G04 EAGLE Gerber RS-274X export*
G75*
%MOMM*%
%FSLAX34Y34*%
%LPD*%
%INBottom Copper*%
%IPPOS*%
%AMOC8*
5,1,8,0,0,1.08239X$1,22.5*%
G01*
%ADD10C,0.499997*%
%ADD11R,1.100000X1.000000*%
%ADD12R,1.300000X1.500000*%
%ADD13R,1.000000X1.100000*%
%ADD14R,0.400000X1.399997*%
%ADD15C,1.000000*%
%ADD16R,1.000000X1.400000*%
%ADD17R,1.400000X1.000000*%
%ADD18C,1.422400*%
%ADD19P,1.429621X8X202.500000*%
%ADD20P,1.429621X8X112.500000*%
%ADD21C,0.124994*%
%ADD22R,5.699988X5.699988*%
%ADD23C,0.609600*%
%ADD24C,0.304800*%
%ADD25C,0.756400*%
%ADD26C,0.254000*%

G36*
X449241Y29511D02*
X449241Y29511D01*
X449318Y29510D01*
X449342Y29519D01*
X449363Y29520D01*
X449402Y29541D01*
X449474Y29567D01*
X465974Y39067D01*
X465996Y39086D01*
X466022Y39099D01*
X466056Y39137D01*
X466059Y39139D01*
X466062Y39143D01*
X466070Y39152D01*
X466123Y39199D01*
X466136Y39225D01*
X466155Y39247D01*
X466178Y39314D01*
X466209Y39378D01*
X466211Y39407D01*
X466220Y39434D01*
X466215Y39506D01*
X466218Y39577D01*
X466208Y39604D01*
X466206Y39633D01*
X466164Y39723D01*
X466149Y39763D01*
X466142Y39771D01*
X466136Y39784D01*
X464394Y42307D01*
X464370Y42331D01*
X464343Y42369D01*
X464061Y42663D01*
X580835Y110081D01*
X580937Y109728D01*
X580953Y109698D01*
X580965Y109653D01*
X582274Y106887D01*
X582291Y106864D01*
X582301Y106837D01*
X582350Y106785D01*
X582393Y106727D01*
X582418Y106713D01*
X582437Y106692D01*
X582503Y106663D01*
X582565Y106627D01*
X582593Y106624D01*
X582619Y106612D01*
X582691Y106611D01*
X582762Y106602D01*
X582789Y106610D01*
X582818Y106610D01*
X582913Y106645D01*
X582953Y106656D01*
X582962Y106663D01*
X582974Y106667D01*
X599474Y116167D01*
X599533Y116219D01*
X599595Y116265D01*
X599606Y116284D01*
X599623Y116299D01*
X599657Y116369D01*
X599697Y116436D01*
X599701Y116461D01*
X599709Y116478D01*
X599711Y116523D01*
X599724Y116600D01*
X599724Y135600D01*
X599719Y135628D01*
X599721Y135656D01*
X599699Y135724D01*
X599685Y135795D01*
X599669Y135818D01*
X599660Y135845D01*
X599613Y135900D01*
X599572Y135959D01*
X599548Y135974D01*
X599530Y135996D01*
X599465Y136027D01*
X599405Y136066D01*
X599377Y136071D01*
X599351Y136083D01*
X599250Y136092D01*
X599208Y136099D01*
X599198Y136097D01*
X599185Y136098D01*
X596135Y135855D01*
X596103Y135846D01*
X596056Y135842D01*
X595676Y135749D01*
X595676Y270651D01*
X596056Y270558D01*
X596090Y270556D01*
X596135Y270545D01*
X599185Y270302D01*
X599214Y270306D01*
X599242Y270301D01*
X599311Y270318D01*
X599383Y270326D01*
X599407Y270341D01*
X599435Y270347D01*
X599493Y270390D01*
X599555Y270426D01*
X599572Y270448D01*
X599595Y270465D01*
X599632Y270527D01*
X599675Y270584D01*
X599682Y270612D01*
X599697Y270636D01*
X599713Y270736D01*
X599724Y270777D01*
X599722Y270787D01*
X599724Y270800D01*
X599724Y289800D01*
X599709Y289876D01*
X599700Y289954D01*
X599689Y289973D01*
X599685Y289995D01*
X599641Y290059D01*
X599602Y290127D01*
X599583Y290143D01*
X599572Y290159D01*
X599534Y290183D01*
X599474Y290233D01*
X582974Y299733D01*
X582947Y299742D01*
X582923Y299758D01*
X582853Y299773D01*
X582785Y299796D01*
X582757Y299793D01*
X582729Y299799D01*
X582659Y299786D01*
X582587Y299780D01*
X582562Y299767D01*
X582534Y299761D01*
X582474Y299721D01*
X582411Y299688D01*
X582393Y299666D01*
X582369Y299650D01*
X582311Y299567D01*
X582284Y299535D01*
X582281Y299524D01*
X582274Y299514D01*
X580965Y296748D01*
X580957Y296715D01*
X580937Y296672D01*
X580835Y296319D01*
X464061Y363737D01*
X464343Y364031D01*
X464361Y364059D01*
X464394Y364093D01*
X466136Y366616D01*
X466147Y366643D01*
X466166Y366665D01*
X466186Y366734D01*
X466214Y366799D01*
X466214Y366828D01*
X466222Y366856D01*
X466214Y366927D01*
X466215Y366998D01*
X466203Y367025D01*
X466200Y367054D01*
X466165Y367116D01*
X466137Y367181D01*
X466117Y367202D01*
X466102Y367227D01*
X466025Y367290D01*
X465995Y367320D01*
X465985Y367324D01*
X465974Y367333D01*
X449474Y376833D01*
X449401Y376857D01*
X449331Y376888D01*
X449307Y376888D01*
X449285Y376896D01*
X449209Y376890D01*
X449132Y376891D01*
X449108Y376881D01*
X449087Y376880D01*
X449048Y376859D01*
X448976Y376833D01*
X432476Y367333D01*
X432454Y367314D01*
X432428Y367301D01*
X432380Y367248D01*
X432327Y367201D01*
X432314Y367175D01*
X432295Y367154D01*
X432272Y367086D01*
X432241Y367022D01*
X432240Y366993D01*
X432230Y366966D01*
X432235Y366894D01*
X432232Y366823D01*
X432242Y366796D01*
X432244Y366767D01*
X432286Y366677D01*
X432301Y366637D01*
X432308Y366629D01*
X432314Y366616D01*
X434056Y364093D01*
X434080Y364069D01*
X434107Y364031D01*
X434389Y363737D01*
X317626Y296326D01*
X317563Y296549D01*
X317548Y296580D01*
X317534Y296627D01*
X316177Y299513D01*
X316159Y299536D01*
X316149Y299563D01*
X316100Y299615D01*
X316058Y299672D01*
X316033Y299687D01*
X316013Y299708D01*
X315948Y299737D01*
X315886Y299772D01*
X315857Y299776D01*
X315831Y299788D01*
X315760Y299789D01*
X315689Y299798D01*
X315661Y299790D01*
X315632Y299791D01*
X315539Y299756D01*
X315498Y299744D01*
X315489Y299737D01*
X315476Y299733D01*
X299225Y290376D01*
X282974Y299733D01*
X282947Y299742D01*
X282923Y299759D01*
X282853Y299773D01*
X282785Y299796D01*
X282756Y299793D01*
X282728Y299799D01*
X282658Y299785D01*
X282587Y299780D01*
X282561Y299766D01*
X282533Y299761D01*
X282474Y299721D01*
X282411Y299688D01*
X282392Y299666D01*
X282368Y299649D01*
X282311Y299567D01*
X282284Y299535D01*
X282281Y299524D01*
X282273Y299513D01*
X280916Y296627D01*
X280907Y296593D01*
X280887Y296549D01*
X280824Y296326D01*
X249719Y314284D01*
X249652Y314312D01*
X249590Y314349D01*
X249506Y314373D01*
X249426Y314407D01*
X249354Y314418D01*
X249285Y314438D01*
X249198Y314441D01*
X249111Y314454D01*
X249039Y314446D01*
X248967Y314449D01*
X248882Y314430D01*
X248795Y314421D01*
X248727Y314395D01*
X248657Y314380D01*
X248579Y314340D01*
X248497Y314310D01*
X248437Y314269D01*
X248373Y314236D01*
X248307Y314178D01*
X248235Y314128D01*
X248188Y314074D01*
X248134Y314026D01*
X248035Y313899D01*
X247444Y313031D01*
X247416Y313022D01*
X247268Y312974D01*
X247264Y312972D01*
X247260Y312970D01*
X247129Y312886D01*
X246999Y312804D01*
X246996Y312801D01*
X246993Y312799D01*
X246876Y312688D01*
X246286Y312052D01*
X246284Y312049D01*
X246281Y312046D01*
X246191Y311919D01*
X246101Y311794D01*
X246100Y311790D01*
X246097Y311786D01*
X246042Y311641D01*
X245986Y311497D01*
X245985Y311493D01*
X245984Y311489D01*
X245977Y311452D01*
X245102Y310754D01*
X245092Y310743D01*
X245080Y310736D01*
X244963Y310625D01*
X244193Y309795D01*
X244163Y309789D01*
X244011Y309764D01*
X244007Y309763D01*
X244003Y309762D01*
X243860Y309698D01*
X243719Y309636D01*
X243716Y309634D01*
X243712Y309632D01*
X243580Y309540D01*
X242903Y308999D01*
X242900Y308996D01*
X242897Y308994D01*
X242790Y308883D01*
X242681Y308771D01*
X242679Y308768D01*
X242676Y308765D01*
X242599Y308628D01*
X242523Y308495D01*
X242522Y308491D01*
X242520Y308488D01*
X242508Y308452D01*
X241538Y307892D01*
X241527Y307883D01*
X241513Y307877D01*
X241382Y307785D01*
X240497Y307079D01*
X240467Y307078D01*
X240312Y307076D01*
X240308Y307075D01*
X240303Y307075D01*
X240154Y307033D01*
X240005Y306993D01*
X240001Y306991D01*
X239997Y306990D01*
X239853Y306918D01*
X239102Y306485D01*
X239099Y306482D01*
X239095Y306480D01*
X238974Y306387D01*
X238849Y306292D01*
X238846Y306289D01*
X238843Y306286D01*
X238749Y306166D01*
X238651Y306043D01*
X238650Y306039D01*
X238647Y306036D01*
X238630Y306003D01*
X237588Y305593D01*
X237575Y305586D01*
X237561Y305582D01*
X237417Y305511D01*
X236437Y304944D01*
X236407Y304948D01*
X236253Y304969D01*
X236249Y304969D01*
X236245Y304969D01*
X236092Y304951D01*
X235937Y304933D01*
X235933Y304931D01*
X235929Y304931D01*
X235776Y304881D01*
X234969Y304564D01*
X234966Y304562D01*
X234962Y304561D01*
X234856Y304503D01*
X234817Y304487D01*
X234783Y304463D01*
X234690Y304412D01*
X234687Y304409D01*
X234684Y304407D01*
X234607Y304335D01*
X234560Y304301D01*
X234522Y304255D01*
X234458Y304195D01*
X234456Y304192D01*
X234452Y304189D01*
X234431Y304158D01*
X233339Y303909D01*
X233325Y303904D01*
X233311Y303902D01*
X233158Y303853D01*
X232104Y303439D01*
X232076Y303447D01*
X231926Y303491D01*
X231922Y303491D01*
X231918Y303492D01*
X231764Y303496D01*
X231608Y303502D01*
X231604Y303501D01*
X231600Y303501D01*
X231441Y303475D01*
X230596Y303282D01*
X230592Y303280D01*
X230588Y303280D01*
X230444Y303226D01*
X230298Y303173D01*
X230294Y303170D01*
X230290Y303169D01*
X230163Y303080D01*
X230035Y302993D01*
X230033Y302990D01*
X230029Y302987D01*
X229917Y302872D01*
X229808Y302746D01*
X229757Y302669D01*
X229699Y302599D01*
X229670Y302537D01*
X229632Y302480D01*
X229602Y302394D01*
X229563Y302311D01*
X229551Y302244D01*
X229528Y302180D01*
X229521Y302089D01*
X229504Y301998D01*
X229508Y301931D01*
X229502Y301863D01*
X229518Y301773D01*
X229523Y301681D01*
X229544Y301617D01*
X229556Y301550D01*
X229593Y301466D01*
X229621Y301379D01*
X229658Y301321D01*
X229685Y301259D01*
X229742Y301187D01*
X229792Y301110D01*
X229841Y301063D01*
X229883Y301010D01*
X229956Y300955D01*
X230023Y300892D01*
X230083Y300859D01*
X230137Y300818D01*
X230221Y300783D01*
X230302Y300738D01*
X230367Y300721D01*
X230430Y300695D01*
X230521Y300682D01*
X230610Y300659D01*
X230728Y300651D01*
X230745Y300649D01*
X230753Y300650D01*
X230770Y300649D01*
X235888Y300649D01*
X237228Y299309D01*
X237322Y299236D01*
X237411Y299157D01*
X237447Y299139D01*
X237479Y299114D01*
X237588Y299067D01*
X237694Y299013D01*
X237733Y299004D01*
X237771Y298988D01*
X237888Y298969D01*
X238004Y298943D01*
X238045Y298944D01*
X238085Y298938D01*
X238203Y298949D01*
X238322Y298953D01*
X238361Y298964D01*
X238401Y298968D01*
X238513Y299008D01*
X238628Y299041D01*
X238663Y299062D01*
X238701Y299075D01*
X238799Y299142D01*
X238902Y299203D01*
X238947Y299242D01*
X238964Y299254D01*
X238977Y299269D01*
X239023Y299309D01*
X240362Y300649D01*
X252888Y300649D01*
X254968Y298568D01*
X255046Y298508D01*
X255118Y298440D01*
X255171Y298411D01*
X255219Y298374D01*
X255310Y298334D01*
X255397Y298286D01*
X255456Y298271D01*
X255511Y298247D01*
X255609Y298232D01*
X255705Y298207D01*
X255805Y298201D01*
X255825Y298197D01*
X255838Y298199D01*
X255866Y298197D01*
X263150Y298197D01*
X265391Y297269D01*
X281394Y281266D01*
X282322Y279025D01*
X282322Y262798D01*
X282334Y262700D01*
X282337Y262601D01*
X282354Y262543D01*
X282362Y262483D01*
X282398Y262391D01*
X282426Y262296D01*
X282456Y262244D01*
X282479Y262187D01*
X282537Y262107D01*
X282587Y262022D01*
X282653Y261946D01*
X282665Y261930D01*
X282675Y261922D01*
X282693Y261901D01*
X284839Y259756D01*
X286386Y256021D01*
X286386Y251979D01*
X284839Y248244D01*
X281981Y245386D01*
X278246Y243839D01*
X274204Y243839D01*
X270469Y245386D01*
X267611Y248244D01*
X266064Y251979D01*
X266064Y256021D01*
X267611Y259756D01*
X269757Y261901D01*
X269817Y261979D01*
X269885Y262051D01*
X269914Y262104D01*
X269951Y262152D01*
X269991Y262243D01*
X270039Y262330D01*
X270054Y262388D01*
X270078Y262444D01*
X270093Y262542D01*
X270118Y262638D01*
X270124Y262738D01*
X270128Y262758D01*
X270126Y262770D01*
X270128Y262798D01*
X270128Y274761D01*
X270116Y274860D01*
X270113Y274959D01*
X270096Y275017D01*
X270088Y275077D01*
X270052Y275169D01*
X270024Y275264D01*
X269994Y275316D01*
X269971Y275373D01*
X269913Y275453D01*
X269863Y275538D01*
X269797Y275613D01*
X269785Y275630D01*
X269775Y275638D01*
X269757Y275659D01*
X259784Y285632D01*
X259706Y285692D01*
X259634Y285760D01*
X259581Y285789D01*
X259533Y285826D01*
X259442Y285866D01*
X259355Y285914D01*
X259296Y285929D01*
X259241Y285953D01*
X259143Y285968D01*
X259047Y285993D01*
X258947Y285999D01*
X258927Y286003D01*
X258914Y286001D01*
X258886Y286003D01*
X255866Y286003D01*
X255767Y285991D01*
X255668Y285988D01*
X255610Y285971D01*
X255550Y285963D01*
X255458Y285927D01*
X255363Y285899D01*
X255311Y285869D01*
X255254Y285846D01*
X255174Y285788D01*
X255089Y285738D01*
X255014Y285672D01*
X254997Y285660D01*
X254989Y285650D01*
X254968Y285632D01*
X252888Y283551D01*
X240362Y283551D01*
X239023Y284891D01*
X238928Y284964D01*
X238839Y285043D01*
X238803Y285061D01*
X238771Y285086D01*
X238662Y285133D01*
X238556Y285187D01*
X238517Y285196D01*
X238479Y285212D01*
X238362Y285231D01*
X238246Y285257D01*
X238205Y285256D01*
X238165Y285262D01*
X238047Y285251D01*
X237928Y285247D01*
X237889Y285236D01*
X237849Y285232D01*
X237736Y285192D01*
X237622Y285159D01*
X237588Y285138D01*
X237549Y285125D01*
X237451Y285058D01*
X237348Y284997D01*
X237303Y284957D01*
X237286Y284946D01*
X237273Y284931D01*
X237228Y284891D01*
X235888Y283551D01*
X223362Y283551D01*
X223234Y283680D01*
X223156Y283740D01*
X223084Y283808D01*
X223031Y283837D01*
X222983Y283874D01*
X222892Y283914D01*
X222805Y283962D01*
X222746Y283977D01*
X222691Y284001D01*
X222593Y284016D01*
X222497Y284041D01*
X222397Y284047D01*
X222377Y284051D01*
X222364Y284049D01*
X222336Y284051D01*
X208884Y284051D01*
X208766Y284036D01*
X208647Y284029D01*
X208608Y284016D01*
X208568Y284011D01*
X208457Y283968D01*
X208344Y283931D01*
X208310Y283909D01*
X208273Y283894D01*
X208176Y283825D01*
X208076Y283761D01*
X208048Y283731D01*
X208015Y283708D01*
X207939Y283616D01*
X207858Y283529D01*
X207838Y283494D01*
X207812Y283463D01*
X207762Y283355D01*
X207704Y283251D01*
X207694Y283211D01*
X207677Y283175D01*
X207654Y283058D01*
X207625Y282943D01*
X207621Y282883D01*
X207617Y282863D01*
X207618Y282842D01*
X207614Y282782D01*
X207614Y278502D01*
X207621Y278452D01*
X207618Y278403D01*
X207641Y278295D01*
X207654Y278186D01*
X207673Y278140D01*
X207683Y278091D01*
X207731Y277993D01*
X207771Y277891D01*
X207801Y277850D01*
X207822Y277806D01*
X207894Y277722D01*
X207958Y277633D01*
X207997Y277602D01*
X208029Y277564D01*
X208118Y277501D01*
X208203Y277430D01*
X208248Y277409D01*
X208289Y277381D01*
X208392Y277342D01*
X208491Y277295D01*
X208540Y277286D01*
X208586Y277268D01*
X208696Y277256D01*
X208803Y277235D01*
X208853Y277238D01*
X208902Y277233D01*
X209011Y277248D01*
X209121Y277255D01*
X209168Y277270D01*
X209217Y277277D01*
X209369Y277329D01*
X209925Y277559D01*
X215622Y277559D01*
X215720Y277572D01*
X215819Y277575D01*
X215877Y277591D01*
X215937Y277599D01*
X216030Y277636D01*
X216125Y277663D01*
X216177Y277694D01*
X216233Y277716D01*
X216313Y277774D01*
X216399Y277825D01*
X216474Y277891D01*
X216490Y277903D01*
X216498Y277912D01*
X216519Y277931D01*
X218600Y280011D01*
X231125Y280011D01*
X232465Y278672D01*
X232559Y278598D01*
X232648Y278520D01*
X232684Y278501D01*
X232716Y278477D01*
X232826Y278429D01*
X232932Y278375D01*
X232971Y278366D01*
X233008Y278350D01*
X233126Y278332D01*
X233242Y278306D01*
X233282Y278307D01*
X233322Y278300D01*
X233441Y278312D01*
X233560Y278315D01*
X233599Y278326D01*
X233639Y278330D01*
X233751Y278371D01*
X233865Y278404D01*
X233900Y278424D01*
X233938Y278438D01*
X234037Y278505D01*
X234139Y278565D01*
X234184Y278605D01*
X234201Y278616D01*
X234215Y278632D01*
X234260Y278672D01*
X235600Y280011D01*
X248125Y280011D01*
X249911Y278225D01*
X249911Y277973D01*
X249915Y277944D01*
X249913Y277914D01*
X249930Y277816D01*
X249934Y277753D01*
X249942Y277726D01*
X249951Y277657D01*
X249962Y277630D01*
X249967Y277601D01*
X250020Y277483D01*
X250025Y277470D01*
X250032Y277451D01*
X250035Y277445D01*
X250068Y277362D01*
X250085Y277338D01*
X250098Y277311D01*
X250179Y277209D01*
X250255Y277104D01*
X250278Y277086D01*
X250296Y277062D01*
X250400Y276984D01*
X250500Y276902D01*
X250527Y276889D01*
X250550Y276871D01*
X250695Y276800D01*
X251104Y276631D01*
X255994Y271741D01*
X256922Y269500D01*
X256922Y262798D01*
X256934Y262700D01*
X256937Y262601D01*
X256954Y262543D01*
X256962Y262483D01*
X256998Y262391D01*
X257026Y262296D01*
X257056Y262244D01*
X257079Y262187D01*
X257137Y262107D01*
X257187Y262022D01*
X257253Y261946D01*
X257265Y261930D01*
X257275Y261922D01*
X257293Y261901D01*
X259439Y259756D01*
X260986Y256021D01*
X260986Y251979D01*
X259439Y248244D01*
X256581Y245386D01*
X252846Y243839D01*
X248804Y243839D01*
X245069Y245386D01*
X242211Y248244D01*
X240664Y251979D01*
X240664Y256021D01*
X242211Y259756D01*
X243203Y260747D01*
X243287Y260856D01*
X243376Y260964D01*
X243385Y260982D01*
X243397Y260998D01*
X243453Y261126D01*
X243512Y261252D01*
X243516Y261271D01*
X243524Y261290D01*
X243546Y261428D01*
X243572Y261564D01*
X243571Y261584D01*
X243574Y261604D01*
X243561Y261742D01*
X243552Y261881D01*
X243546Y261901D01*
X243544Y261921D01*
X243497Y262052D01*
X243454Y262184D01*
X243443Y262201D01*
X243436Y262220D01*
X243358Y262335D01*
X243284Y262453D01*
X243269Y262467D01*
X243258Y262483D01*
X243154Y262575D01*
X243052Y262671D01*
X243034Y262680D01*
X243019Y262694D01*
X242896Y262757D01*
X242774Y262824D01*
X242754Y262829D01*
X242736Y262838D01*
X242600Y262869D01*
X242466Y262904D01*
X242438Y262905D01*
X242426Y262908D01*
X242405Y262907D01*
X242305Y262914D01*
X235600Y262914D01*
X234260Y264253D01*
X234166Y264327D01*
X234077Y264405D01*
X234041Y264424D01*
X234009Y264448D01*
X233899Y264496D01*
X233794Y264550D01*
X233754Y264559D01*
X233717Y264575D01*
X233599Y264593D01*
X233483Y264619D01*
X233443Y264618D01*
X233403Y264625D01*
X233284Y264613D01*
X233165Y264610D01*
X233126Y264599D01*
X233086Y264595D01*
X232974Y264554D01*
X232860Y264521D01*
X232825Y264501D01*
X232787Y264487D01*
X232688Y264420D01*
X232586Y264360D01*
X232541Y264320D01*
X232524Y264309D01*
X232510Y264293D01*
X232465Y264253D01*
X231901Y263689D01*
X231827Y263595D01*
X231749Y263506D01*
X231730Y263470D01*
X231706Y263438D01*
X231658Y263328D01*
X231604Y263222D01*
X231595Y263183D01*
X231579Y263146D01*
X231560Y263028D01*
X231534Y262912D01*
X231536Y262872D01*
X231529Y262832D01*
X231541Y262713D01*
X231544Y262594D01*
X231555Y262555D01*
X231559Y262515D01*
X231599Y262403D01*
X231633Y262289D01*
X231653Y262254D01*
X231667Y262216D01*
X231734Y262117D01*
X231794Y262015D01*
X231834Y261970D01*
X231845Y261953D01*
X231861Y261939D01*
X231900Y261894D01*
X234039Y259756D01*
X235586Y256021D01*
X235586Y251979D01*
X234039Y248244D01*
X231181Y245386D01*
X227446Y243839D01*
X223404Y243839D01*
X222504Y244212D01*
X222456Y244225D01*
X222411Y244246D01*
X222303Y244267D01*
X222197Y244296D01*
X222147Y244297D01*
X222098Y244306D01*
X221989Y244299D01*
X221879Y244301D01*
X221831Y244290D01*
X221781Y244286D01*
X221677Y244253D01*
X221570Y244227D01*
X221526Y244204D01*
X221479Y244188D01*
X221386Y244130D01*
X221289Y244078D01*
X221252Y244045D01*
X221210Y244018D01*
X221135Y243938D01*
X221053Y243864D01*
X221026Y243823D01*
X220992Y243787D01*
X220939Y243690D01*
X220879Y243599D01*
X220862Y243552D01*
X220838Y243508D01*
X220811Y243402D01*
X220775Y243298D01*
X220771Y243248D01*
X220759Y243200D01*
X220749Y243040D01*
X220749Y239460D01*
X220755Y239411D01*
X220753Y239361D01*
X220775Y239254D01*
X220789Y239144D01*
X220807Y239098D01*
X220817Y239049D01*
X220865Y238951D01*
X220906Y238849D01*
X220935Y238808D01*
X220957Y238764D01*
X221028Y238680D01*
X221092Y238591D01*
X221131Y238560D01*
X221163Y238522D01*
X221253Y238459D01*
X221337Y238389D01*
X221382Y238367D01*
X221423Y238339D01*
X221526Y238300D01*
X221625Y238253D01*
X221674Y238244D01*
X221720Y238226D01*
X221830Y238214D01*
X221937Y238193D01*
X221987Y238196D01*
X222036Y238191D01*
X222145Y238206D01*
X222255Y238213D01*
X222302Y238228D01*
X222351Y238235D01*
X222504Y238287D01*
X223273Y238606D01*
X225990Y238606D01*
X228501Y237566D01*
X230422Y235644D01*
X231462Y233134D01*
X231462Y230416D01*
X230422Y227906D01*
X228501Y225984D01*
X225990Y224944D01*
X223272Y224944D01*
X221734Y225582D01*
X221725Y225584D01*
X221717Y225589D01*
X221571Y225626D01*
X221427Y225666D01*
X221418Y225666D01*
X221409Y225668D01*
X221248Y225678D01*
X216275Y225678D01*
X214034Y226606D01*
X213617Y227023D01*
X213539Y227084D01*
X213467Y227152D01*
X213414Y227181D01*
X213366Y227218D01*
X213275Y227258D01*
X213188Y227305D01*
X213130Y227320D01*
X213074Y227345D01*
X212976Y227360D01*
X212880Y227385D01*
X212780Y227391D01*
X212760Y227394D01*
X212748Y227393D01*
X212720Y227395D01*
X206437Y227395D01*
X204651Y229181D01*
X204651Y245707D01*
X206173Y247228D01*
X206258Y247338D01*
X206347Y247445D01*
X206355Y247464D01*
X206368Y247480D01*
X206423Y247608D01*
X206482Y247733D01*
X206486Y247753D01*
X206494Y247771D01*
X206516Y247909D01*
X206542Y248045D01*
X206541Y248065D01*
X206544Y248085D01*
X206531Y248225D01*
X206522Y248363D01*
X206516Y248382D01*
X206514Y248402D01*
X206467Y248533D01*
X206424Y248665D01*
X206414Y248682D01*
X206407Y248701D01*
X206329Y248816D01*
X206254Y248934D01*
X206239Y248948D01*
X206228Y248965D01*
X206124Y249057D01*
X206023Y249152D01*
X206005Y249162D01*
X205990Y249175D01*
X205866Y249238D01*
X205744Y249305D01*
X205725Y249310D01*
X205706Y249320D01*
X205571Y249350D01*
X205436Y249385D01*
X205408Y249387D01*
X205396Y249389D01*
X205376Y249389D01*
X205275Y249395D01*
X196937Y249395D01*
X196476Y249856D01*
X196382Y249929D01*
X196293Y250008D01*
X196257Y250026D01*
X196225Y250051D01*
X196116Y250098D01*
X196010Y250152D01*
X195970Y250161D01*
X195933Y250177D01*
X195815Y250196D01*
X195699Y250222D01*
X195659Y250221D01*
X195619Y250227D01*
X195500Y250216D01*
X195381Y250212D01*
X195343Y250201D01*
X195302Y250197D01*
X195190Y250157D01*
X195076Y250124D01*
X195041Y250103D01*
X195003Y250090D01*
X194905Y250023D01*
X194802Y249962D01*
X194757Y249923D01*
X194740Y249911D01*
X194726Y249896D01*
X194681Y249856D01*
X192816Y247991D01*
X189009Y244184D01*
X188948Y244106D01*
X188880Y244034D01*
X188851Y243981D01*
X188814Y243933D01*
X188775Y243842D01*
X188727Y243755D01*
X188712Y243696D01*
X188688Y243641D01*
X188672Y243543D01*
X188647Y243447D01*
X188641Y243347D01*
X188638Y243327D01*
X188639Y243314D01*
X188637Y243286D01*
X188637Y223385D01*
X187772Y222519D01*
X187687Y222410D01*
X187598Y222303D01*
X187589Y222284D01*
X187577Y222268D01*
X187522Y222141D01*
X187462Y222015D01*
X187459Y221995D01*
X187450Y221976D01*
X187429Y221838D01*
X187403Y221702D01*
X187404Y221682D01*
X187401Y221662D01*
X187414Y221523D01*
X187422Y221385D01*
X187429Y221366D01*
X187430Y221346D01*
X187478Y221214D01*
X187520Y221083D01*
X187531Y221065D01*
X187538Y221046D01*
X187616Y220931D01*
X187691Y220814D01*
X187705Y220800D01*
X187717Y220783D01*
X187821Y220691D01*
X187922Y220596D01*
X187940Y220586D01*
X187955Y220573D01*
X188079Y220510D01*
X188201Y220442D01*
X188220Y220437D01*
X188238Y220428D01*
X188374Y220398D01*
X188509Y220363D01*
X188537Y220361D01*
X188549Y220358D01*
X188569Y220359D01*
X188669Y220353D01*
X322898Y220353D01*
X322996Y220365D01*
X323095Y220368D01*
X323153Y220385D01*
X323213Y220393D01*
X323305Y220429D01*
X323400Y220457D01*
X323453Y220487D01*
X323509Y220510D01*
X323589Y220568D01*
X323674Y220618D01*
X323750Y220684D01*
X323766Y220696D01*
X323774Y220706D01*
X323795Y220724D01*
X334781Y231710D01*
X334841Y231788D01*
X334909Y231860D01*
X334938Y231913D01*
X334975Y231961D01*
X335015Y232052D01*
X335063Y232139D01*
X335078Y232197D01*
X335102Y232253D01*
X335117Y232351D01*
X335142Y232447D01*
X335148Y232547D01*
X335152Y232567D01*
X335150Y232579D01*
X335152Y232607D01*
X335152Y244694D01*
X335135Y244831D01*
X335122Y244970D01*
X335115Y244989D01*
X335112Y245009D01*
X335061Y245138D01*
X335014Y245269D01*
X335003Y245286D01*
X334995Y245305D01*
X334914Y245417D01*
X334836Y245532D01*
X334820Y245546D01*
X334809Y245562D01*
X334701Y245651D01*
X334597Y245743D01*
X334579Y245752D01*
X334564Y245765D01*
X334438Y245824D01*
X334314Y245887D01*
X334294Y245892D01*
X334276Y245900D01*
X334140Y245927D01*
X334004Y245957D01*
X333983Y245956D01*
X333964Y245960D01*
X333825Y245952D01*
X333686Y245947D01*
X333666Y245942D01*
X333646Y245941D01*
X333514Y245898D01*
X333380Y245859D01*
X333363Y245849D01*
X333344Y245842D01*
X333226Y245768D01*
X333106Y245697D01*
X333085Y245679D01*
X333075Y245672D01*
X333061Y245657D01*
X332985Y245591D01*
X332781Y245386D01*
X329046Y243839D01*
X325004Y243839D01*
X321269Y245386D01*
X318411Y248244D01*
X316864Y251979D01*
X316864Y256021D01*
X318411Y259756D01*
X321269Y262614D01*
X325004Y264161D01*
X329046Y264161D01*
X332781Y262614D01*
X332985Y262409D01*
X333095Y262324D01*
X333202Y262235D01*
X333221Y262226D01*
X333237Y262214D01*
X333364Y262159D01*
X333490Y262100D01*
X333510Y262096D01*
X333529Y262088D01*
X333666Y262066D01*
X333803Y262040D01*
X333823Y262041D01*
X333843Y262038D01*
X333981Y262051D01*
X334120Y262059D01*
X334139Y262066D01*
X334159Y262068D01*
X334291Y262115D01*
X334422Y262158D01*
X334439Y262168D01*
X334459Y262175D01*
X334574Y262253D01*
X334691Y262328D01*
X334705Y262342D01*
X334722Y262354D01*
X334814Y262458D01*
X334909Y262559D01*
X334919Y262577D01*
X334932Y262592D01*
X334996Y262716D01*
X335063Y262838D01*
X335068Y262857D01*
X335077Y262875D01*
X335107Y263011D01*
X335142Y263146D01*
X335144Y263174D01*
X335147Y263186D01*
X335146Y263206D01*
X335152Y263306D01*
X335152Y274944D01*
X341013Y280805D01*
X341075Y280813D01*
X341194Y280820D01*
X341232Y280833D01*
X341273Y280838D01*
X341383Y280881D01*
X341496Y280918D01*
X341531Y280940D01*
X341568Y280955D01*
X341664Y281024D01*
X341765Y281088D01*
X341793Y281118D01*
X341826Y281141D01*
X341902Y281233D01*
X341983Y281320D01*
X342003Y281355D01*
X342028Y281386D01*
X342079Y281494D01*
X342137Y281598D01*
X342147Y281638D01*
X342164Y281674D01*
X342186Y281791D01*
X342216Y281906D01*
X342220Y281966D01*
X342224Y281986D01*
X342222Y282007D01*
X342226Y282067D01*
X342226Y282988D01*
X344012Y284774D01*
X356538Y284774D01*
X357878Y283434D01*
X357958Y283372D01*
X358023Y283310D01*
X358039Y283301D01*
X358061Y283282D01*
X358097Y283264D01*
X358129Y283239D01*
X358238Y283192D01*
X358302Y283157D01*
X358312Y283154D01*
X358344Y283138D01*
X358383Y283129D01*
X358421Y283113D01*
X358538Y283094D01*
X358584Y283084D01*
X358610Y283077D01*
X358615Y283077D01*
X358654Y283068D01*
X358695Y283069D01*
X358735Y283063D01*
X358778Y283067D01*
X358780Y283067D01*
X358784Y283068D01*
X358853Y283074D01*
X358972Y283078D01*
X359011Y283089D01*
X359051Y283093D01*
X359088Y283106D01*
X359095Y283107D01*
X359141Y283125D01*
X359163Y283133D01*
X359278Y283166D01*
X359313Y283187D01*
X359351Y283200D01*
X359378Y283219D01*
X359391Y283224D01*
X359457Y283272D01*
X359552Y283328D01*
X359597Y283367D01*
X359614Y283379D01*
X359627Y283394D01*
X359635Y283401D01*
X359648Y283411D01*
X359654Y283418D01*
X359673Y283434D01*
X361012Y284774D01*
X373538Y284774D01*
X374915Y283397D01*
X375008Y283324D01*
X375023Y283310D01*
X375026Y283309D01*
X375098Y283245D01*
X375134Y283226D01*
X375166Y283202D01*
X375276Y283154D01*
X375382Y283100D01*
X375421Y283091D01*
X375458Y283075D01*
X375576Y283057D01*
X375692Y283031D01*
X375732Y283032D01*
X375772Y283025D01*
X375891Y283037D01*
X376010Y283040D01*
X376049Y283051D01*
X376089Y283055D01*
X376201Y283096D01*
X376315Y283129D01*
X376350Y283149D01*
X376388Y283163D01*
X376487Y283230D01*
X376589Y283290D01*
X376634Y283330D01*
X376651Y283341D01*
X376665Y283357D01*
X376710Y283397D01*
X377612Y284299D01*
X394138Y284299D01*
X395660Y282777D01*
X395769Y282692D01*
X395876Y282603D01*
X395895Y282595D01*
X395911Y282582D01*
X396039Y282527D01*
X396164Y282468D01*
X396184Y282464D01*
X396203Y282456D01*
X396341Y282434D01*
X396477Y282408D01*
X396497Y282409D01*
X396517Y282406D01*
X396656Y282419D01*
X396794Y282428D01*
X396813Y282434D01*
X396833Y282436D01*
X396965Y282483D01*
X397096Y282526D01*
X397114Y282536D01*
X397133Y282543D01*
X397248Y282621D01*
X397365Y282696D01*
X397379Y282711D01*
X397396Y282722D01*
X397488Y282826D01*
X397583Y282927D01*
X397593Y282945D01*
X397606Y282960D01*
X397670Y283084D01*
X397737Y283206D01*
X397742Y283225D01*
X397751Y283244D01*
X397781Y283379D01*
X397816Y283514D01*
X397818Y283542D01*
X397821Y283554D01*
X397820Y283574D01*
X397826Y283675D01*
X397826Y292013D01*
X399612Y293799D01*
X416138Y293799D01*
X417924Y292013D01*
X417924Y279487D01*
X416138Y277701D01*
X413717Y277701D01*
X413599Y277686D01*
X413480Y277679D01*
X413442Y277666D01*
X413401Y277661D01*
X413291Y277618D01*
X413178Y277581D01*
X413143Y277559D01*
X413106Y277544D01*
X413010Y277475D01*
X412909Y277411D01*
X412881Y277381D01*
X412848Y277358D01*
X412772Y277266D01*
X412691Y277179D01*
X412671Y277144D01*
X412646Y277113D01*
X412595Y277005D01*
X412537Y276901D01*
X412527Y276861D01*
X412510Y276825D01*
X412488Y276708D01*
X412458Y276593D01*
X412454Y276533D01*
X412450Y276513D01*
X412452Y276492D01*
X412448Y276432D01*
X412448Y258466D01*
X412465Y258329D01*
X412478Y258190D01*
X412485Y258171D01*
X412488Y258151D01*
X412539Y258022D01*
X412586Y257891D01*
X412597Y257874D01*
X412605Y257855D01*
X412686Y257743D01*
X412764Y257627D01*
X412780Y257614D01*
X412791Y257598D01*
X412899Y257509D01*
X413003Y257417D01*
X413021Y257408D01*
X413036Y257395D01*
X413162Y257336D01*
X413286Y257272D01*
X413306Y257268D01*
X413324Y257259D01*
X413460Y257233D01*
X413596Y257203D01*
X413617Y257203D01*
X413636Y257200D01*
X413775Y257208D01*
X413914Y257212D01*
X413934Y257218D01*
X413954Y257219D01*
X414086Y257262D01*
X414220Y257301D01*
X414237Y257311D01*
X414256Y257317D01*
X414374Y257392D01*
X414494Y257462D01*
X414515Y257481D01*
X414525Y257488D01*
X414539Y257503D01*
X414614Y257569D01*
X425143Y268098D01*
X474828Y268098D01*
X474965Y268115D01*
X475104Y268128D01*
X475123Y268135D01*
X475143Y268138D01*
X475272Y268189D01*
X475404Y268236D01*
X475420Y268247D01*
X475439Y268255D01*
X475552Y268336D01*
X475667Y268414D01*
X475680Y268430D01*
X475697Y268441D01*
X475785Y268549D01*
X475877Y268653D01*
X475886Y268671D01*
X475899Y268686D01*
X475959Y268812D01*
X476022Y268936D01*
X476026Y268956D01*
X476035Y268974D01*
X476061Y269110D01*
X476091Y269246D01*
X476091Y269267D01*
X476095Y269286D01*
X476086Y269425D01*
X476082Y269564D01*
X476076Y269584D01*
X476075Y269604D01*
X476032Y269736D01*
X475993Y269870D01*
X475983Y269887D01*
X475977Y269906D01*
X475902Y270024D01*
X475832Y270144D01*
X475813Y270165D01*
X475807Y270175D01*
X475792Y270189D01*
X475725Y270264D01*
X473634Y272356D01*
X472594Y274866D01*
X472594Y277584D01*
X473634Y280094D01*
X475556Y282016D01*
X478066Y283056D01*
X480784Y283056D01*
X482322Y282418D01*
X482331Y282416D01*
X482340Y282411D01*
X482485Y282374D01*
X482629Y282334D01*
X482639Y282334D01*
X482648Y282332D01*
X482808Y282322D01*
X539375Y282322D01*
X541616Y281394D01*
X552550Y270460D01*
X552550Y270459D01*
X554444Y268566D01*
X555372Y266325D01*
X555372Y249380D01*
X555384Y249282D01*
X555387Y249183D01*
X555404Y249125D01*
X555412Y249064D01*
X555448Y248972D01*
X555476Y248877D01*
X555506Y248825D01*
X555529Y248769D01*
X555587Y248689D01*
X555637Y248603D01*
X555703Y248528D01*
X555715Y248511D01*
X555725Y248504D01*
X555743Y248483D01*
X558928Y245298D01*
X558928Y237302D01*
X553273Y231647D01*
X545277Y231647D01*
X539622Y237302D01*
X539622Y245298D01*
X542807Y248483D01*
X542867Y248561D01*
X542935Y248633D01*
X542964Y248686D01*
X543001Y248734D01*
X543041Y248825D01*
X543089Y248911D01*
X543104Y248970D01*
X543128Y249026D01*
X543143Y249124D01*
X543168Y249219D01*
X543174Y249319D01*
X543178Y249340D01*
X543176Y249352D01*
X543178Y249380D01*
X543178Y262061D01*
X543166Y262160D01*
X543163Y262259D01*
X543146Y262317D01*
X543138Y262377D01*
X543102Y262469D01*
X543074Y262564D01*
X543044Y262616D01*
X543021Y262673D01*
X542963Y262753D01*
X542913Y262838D01*
X542847Y262913D01*
X542835Y262930D01*
X542825Y262938D01*
X542807Y262959D01*
X536009Y269757D01*
X535931Y269817D01*
X535859Y269885D01*
X535806Y269914D01*
X535758Y269951D01*
X535667Y269991D01*
X535580Y270039D01*
X535521Y270054D01*
X535466Y270078D01*
X535368Y270093D01*
X535272Y270118D01*
X535172Y270124D01*
X535152Y270128D01*
X535139Y270126D01*
X535111Y270128D01*
X502990Y270128D01*
X502853Y270111D01*
X502714Y270098D01*
X502695Y270091D01*
X502675Y270088D01*
X502546Y270037D01*
X502415Y269990D01*
X502398Y269979D01*
X502379Y269971D01*
X502267Y269890D01*
X502151Y269812D01*
X502138Y269796D01*
X502122Y269785D01*
X502033Y269677D01*
X501941Y269573D01*
X501932Y269555D01*
X501919Y269540D01*
X501860Y269414D01*
X501796Y269290D01*
X501792Y269270D01*
X501783Y269252D01*
X501757Y269115D01*
X501727Y268980D01*
X501727Y268959D01*
X501724Y268940D01*
X501732Y268801D01*
X501736Y268662D01*
X501742Y268642D01*
X501743Y268622D01*
X501786Y268490D01*
X501825Y268356D01*
X501835Y268339D01*
X501841Y268320D01*
X501916Y268202D01*
X501986Y268082D01*
X502005Y268061D01*
X502012Y268051D01*
X502027Y268037D01*
X502093Y267962D01*
X505007Y265047D01*
X512573Y257482D01*
X512573Y249593D01*
X512588Y249475D01*
X512595Y249356D01*
X512608Y249318D01*
X512613Y249277D01*
X512656Y249167D01*
X512693Y249054D01*
X512715Y249019D01*
X512730Y248982D01*
X512799Y248886D01*
X512863Y248785D01*
X512893Y248757D01*
X512916Y248724D01*
X513008Y248648D01*
X513095Y248567D01*
X513130Y248547D01*
X513161Y248522D01*
X513269Y248471D01*
X513373Y248413D01*
X513413Y248403D01*
X513449Y248386D01*
X513566Y248364D01*
X513681Y248334D01*
X513741Y248330D01*
X513761Y248326D01*
X513782Y248328D01*
X513842Y248324D01*
X514763Y248324D01*
X516549Y246538D01*
X516549Y234012D01*
X515209Y232672D01*
X515136Y232578D01*
X515057Y232489D01*
X515039Y232453D01*
X515014Y232421D01*
X514967Y232312D01*
X514913Y232206D01*
X514904Y232167D01*
X514888Y232129D01*
X514869Y232012D01*
X514843Y231896D01*
X514844Y231855D01*
X514838Y231815D01*
X514849Y231697D01*
X514853Y231578D01*
X514864Y231539D01*
X514868Y231499D01*
X514908Y231387D01*
X514941Y231272D01*
X514962Y231237D01*
X514975Y231199D01*
X515042Y231101D01*
X515103Y230998D01*
X515142Y230953D01*
X515154Y230936D01*
X515169Y230923D01*
X515209Y230877D01*
X516549Y229538D01*
X516549Y217012D01*
X516445Y216909D01*
X516385Y216831D01*
X516317Y216759D01*
X516288Y216706D01*
X516251Y216658D01*
X516211Y216567D01*
X516163Y216480D01*
X516148Y216421D01*
X516124Y216366D01*
X516109Y216268D01*
X516084Y216172D01*
X516078Y216072D01*
X516074Y216052D01*
X516076Y216039D01*
X516074Y216011D01*
X516074Y199587D01*
X514552Y198065D01*
X514467Y197956D01*
X514378Y197849D01*
X514370Y197830D01*
X514357Y197814D01*
X514302Y197686D01*
X514243Y197561D01*
X514239Y197541D01*
X514231Y197522D01*
X514209Y197384D01*
X514183Y197248D01*
X514184Y197228D01*
X514181Y197208D01*
X514194Y197069D01*
X514203Y196931D01*
X514209Y196912D01*
X514211Y196892D01*
X514258Y196760D01*
X514301Y196629D01*
X514311Y196611D01*
X514318Y196592D01*
X514396Y196477D01*
X514471Y196360D01*
X514486Y196346D01*
X514497Y196329D01*
X514601Y196237D01*
X514702Y196142D01*
X514720Y196132D01*
X514735Y196119D01*
X514859Y196055D01*
X514981Y195988D01*
X515000Y195983D01*
X515019Y195974D01*
X515154Y195944D01*
X515289Y195909D01*
X515317Y195907D01*
X515329Y195904D01*
X515349Y195905D01*
X515450Y195899D01*
X523788Y195899D01*
X525574Y194113D01*
X525574Y177587D01*
X523788Y175801D01*
X523367Y175801D01*
X523249Y175786D01*
X523130Y175779D01*
X523092Y175766D01*
X523051Y175761D01*
X522941Y175718D01*
X522828Y175681D01*
X522793Y175659D01*
X522756Y175644D01*
X522660Y175575D01*
X522559Y175511D01*
X522531Y175481D01*
X522498Y175458D01*
X522422Y175366D01*
X522341Y175279D01*
X522321Y175244D01*
X522296Y175213D01*
X522245Y175105D01*
X522187Y175001D01*
X522177Y174961D01*
X522160Y174925D01*
X522138Y174808D01*
X522108Y174693D01*
X522104Y174633D01*
X522100Y174613D01*
X522102Y174592D01*
X522098Y174532D01*
X522098Y172731D01*
X508688Y159321D01*
X387856Y159321D01*
X387806Y159315D01*
X387757Y159317D01*
X387649Y159295D01*
X387540Y159281D01*
X387494Y159263D01*
X387445Y159253D01*
X387347Y159204D01*
X387245Y159164D01*
X387204Y159135D01*
X387160Y159113D01*
X387076Y159042D01*
X386987Y158977D01*
X386956Y158939D01*
X386918Y158907D01*
X386855Y158817D01*
X386784Y158732D01*
X386763Y158687D01*
X386735Y158647D01*
X386696Y158544D01*
X386649Y158444D01*
X386640Y158396D01*
X386622Y158349D01*
X386610Y158240D01*
X386589Y158132D01*
X386592Y158083D01*
X386587Y158033D01*
X386602Y157924D01*
X386609Y157815D01*
X386624Y157767D01*
X386631Y157718D01*
X386683Y157566D01*
X387986Y154421D01*
X387986Y150379D01*
X386439Y146644D01*
X383581Y143786D01*
X379846Y142239D01*
X375804Y142239D01*
X372069Y143786D01*
X369211Y146644D01*
X367664Y150379D01*
X367664Y154421D01*
X368967Y157566D01*
X368980Y157614D01*
X369001Y157659D01*
X369022Y157766D01*
X369051Y157873D01*
X369052Y157922D01*
X369061Y157971D01*
X369054Y158081D01*
X369056Y158191D01*
X369044Y158239D01*
X369041Y158288D01*
X369007Y158393D01*
X368982Y158500D01*
X368958Y158544D01*
X368943Y158591D01*
X368884Y158684D01*
X368833Y158781D01*
X368800Y158818D01*
X368773Y158860D01*
X368693Y158935D01*
X368619Y159016D01*
X368578Y159044D01*
X368541Y159078D01*
X368445Y159131D01*
X368353Y159191D01*
X368306Y159207D01*
X368263Y159231D01*
X368157Y159259D01*
X368053Y159294D01*
X368003Y159298D01*
X367955Y159311D01*
X367794Y159321D01*
X362456Y159321D01*
X362406Y159315D01*
X362357Y159317D01*
X362249Y159295D01*
X362140Y159281D01*
X362094Y159263D01*
X362045Y159253D01*
X361947Y159204D01*
X361845Y159164D01*
X361804Y159135D01*
X361760Y159113D01*
X361676Y159042D01*
X361587Y158977D01*
X361556Y158939D01*
X361518Y158907D01*
X361455Y158817D01*
X361384Y158732D01*
X361363Y158687D01*
X361335Y158647D01*
X361296Y158544D01*
X361249Y158444D01*
X361240Y158396D01*
X361222Y158349D01*
X361210Y158240D01*
X361189Y158132D01*
X361192Y158083D01*
X361187Y158033D01*
X361202Y157924D01*
X361209Y157815D01*
X361224Y157767D01*
X361231Y157718D01*
X361283Y157566D01*
X362586Y154421D01*
X362586Y150379D01*
X361039Y146644D01*
X358181Y143786D01*
X354446Y142239D01*
X350404Y142239D01*
X346669Y143786D01*
X343811Y146644D01*
X342264Y150379D01*
X342264Y154421D01*
X343567Y157566D01*
X343580Y157614D01*
X343601Y157659D01*
X343622Y157766D01*
X343651Y157873D01*
X343652Y157922D01*
X343661Y157971D01*
X343654Y158081D01*
X343656Y158191D01*
X343644Y158239D01*
X343641Y158288D01*
X343607Y158393D01*
X343582Y158500D01*
X343558Y158544D01*
X343543Y158591D01*
X343484Y158684D01*
X343433Y158781D01*
X343400Y158818D01*
X343373Y158860D01*
X343293Y158935D01*
X343219Y159016D01*
X343178Y159044D01*
X343141Y159078D01*
X343045Y159131D01*
X342953Y159191D01*
X342906Y159207D01*
X342863Y159231D01*
X342757Y159259D01*
X342653Y159294D01*
X342603Y159298D01*
X342555Y159311D01*
X342394Y159321D01*
X340815Y159321D01*
X336215Y163921D01*
X336106Y164006D01*
X335999Y164095D01*
X335980Y164103D01*
X335964Y164116D01*
X335836Y164171D01*
X335711Y164230D01*
X335691Y164234D01*
X335672Y164242D01*
X335534Y164264D01*
X335398Y164290D01*
X335378Y164289D01*
X335358Y164292D01*
X335219Y164279D01*
X335081Y164270D01*
X335062Y164264D01*
X335042Y164262D01*
X334910Y164215D01*
X334779Y164172D01*
X334761Y164161D01*
X334742Y164154D01*
X334627Y164076D01*
X334510Y164002D01*
X334496Y163987D01*
X334479Y163976D01*
X334387Y163872D01*
X334292Y163770D01*
X334282Y163753D01*
X334269Y163737D01*
X334205Y163613D01*
X334138Y163492D01*
X334133Y163472D01*
X334124Y163454D01*
X334094Y163318D01*
X334059Y163184D01*
X334057Y163156D01*
X334054Y163144D01*
X334055Y163123D01*
X334049Y163023D01*
X334049Y162306D01*
X333666Y161923D01*
X333593Y161829D01*
X333514Y161740D01*
X333496Y161704D01*
X333471Y161672D01*
X333424Y161563D01*
X333370Y161457D01*
X333361Y161417D01*
X333345Y161380D01*
X333326Y161262D01*
X333300Y161146D01*
X333301Y161106D01*
X333295Y161066D01*
X333306Y160948D01*
X333310Y160829D01*
X333321Y160790D01*
X333325Y160749D01*
X333365Y160637D01*
X333398Y160523D01*
X333419Y160488D01*
X333432Y160450D01*
X333499Y160352D01*
X333560Y160249D01*
X333600Y160204D01*
X333611Y160187D01*
X333626Y160174D01*
X333666Y160128D01*
X335639Y158156D01*
X337186Y154421D01*
X337186Y150379D01*
X335639Y146644D01*
X333493Y144499D01*
X333433Y144421D01*
X333365Y144349D01*
X333336Y144296D01*
X333299Y144248D01*
X333259Y144157D01*
X333211Y144070D01*
X333196Y144012D01*
X333172Y143956D01*
X333157Y143858D01*
X333132Y143762D01*
X333126Y143662D01*
X333122Y143642D01*
X333124Y143630D01*
X333122Y143602D01*
X333122Y142751D01*
X333134Y142653D01*
X333137Y142554D01*
X333154Y142496D01*
X333162Y142436D01*
X333198Y142343D01*
X333226Y142248D01*
X333256Y142196D01*
X333279Y142140D01*
X333337Y142060D01*
X333387Y141974D01*
X333453Y141899D01*
X333465Y141883D01*
X333475Y141875D01*
X333493Y141854D01*
X335529Y139818D01*
X335607Y139758D01*
X335679Y139690D01*
X335732Y139661D01*
X335780Y139624D01*
X335871Y139584D01*
X335957Y139536D01*
X336016Y139521D01*
X336072Y139497D01*
X336170Y139482D01*
X336265Y139457D01*
X336365Y139451D01*
X336386Y139447D01*
X336398Y139449D01*
X336426Y139447D01*
X458413Y139447D01*
X460654Y138519D01*
X484373Y114799D01*
X484451Y114739D01*
X484523Y114671D01*
X484576Y114642D01*
X484624Y114605D01*
X484715Y114565D01*
X484801Y114517D01*
X484860Y114502D01*
X484916Y114478D01*
X485014Y114463D01*
X485109Y114438D01*
X485209Y114432D01*
X485230Y114428D01*
X485242Y114430D01*
X485270Y114428D01*
X489773Y114428D01*
X495428Y108773D01*
X495428Y100777D01*
X489773Y95122D01*
X481777Y95122D01*
X476122Y100777D01*
X476122Y105280D01*
X476110Y105378D01*
X476107Y105477D01*
X476090Y105535D01*
X476082Y105595D01*
X476046Y105688D01*
X476018Y105783D01*
X475988Y105835D01*
X475965Y105891D01*
X475907Y105971D01*
X475857Y106057D01*
X475791Y106132D01*
X475779Y106148D01*
X475769Y106156D01*
X475751Y106177D01*
X455046Y126882D01*
X454968Y126942D01*
X454896Y127010D01*
X454843Y127039D01*
X454795Y127076D01*
X454704Y127116D01*
X454618Y127164D01*
X454559Y127179D01*
X454503Y127203D01*
X454405Y127218D01*
X454310Y127243D01*
X454210Y127249D01*
X454189Y127253D01*
X454177Y127251D01*
X454149Y127253D01*
X332162Y127253D01*
X329921Y128181D01*
X321760Y136343D01*
X321682Y136404D01*
X321610Y136472D01*
X321557Y136501D01*
X321509Y136538D01*
X321418Y136577D01*
X321331Y136625D01*
X321272Y136640D01*
X321217Y136664D01*
X321119Y136680D01*
X321023Y136705D01*
X320923Y136711D01*
X320903Y136714D01*
X320890Y136713D01*
X320862Y136715D01*
X286582Y136715D01*
X286484Y136702D01*
X286385Y136699D01*
X286327Y136683D01*
X286267Y136675D01*
X286175Y136638D01*
X286080Y136611D01*
X286027Y136580D01*
X285971Y136558D01*
X285891Y136500D01*
X285806Y136449D01*
X285730Y136383D01*
X285714Y136371D01*
X285706Y136362D01*
X285685Y136343D01*
X283675Y134334D01*
X269138Y134334D01*
X269040Y134321D01*
X268941Y134318D01*
X268883Y134301D01*
X268823Y134294D01*
X268730Y134257D01*
X268635Y134230D01*
X268583Y134199D01*
X268527Y134177D01*
X268447Y134119D01*
X268361Y134068D01*
X268286Y134002D01*
X268270Y133990D01*
X268262Y133980D01*
X268241Y133962D01*
X267394Y133115D01*
X264884Y132076D01*
X262166Y132076D01*
X259656Y133115D01*
X257734Y135037D01*
X256694Y137547D01*
X256694Y140265D01*
X257306Y141741D01*
X257315Y141776D01*
X257321Y141787D01*
X257326Y141815D01*
X257342Y141875D01*
X257383Y142008D01*
X257384Y142028D01*
X257390Y142048D01*
X257392Y142187D01*
X257399Y142326D01*
X257394Y142346D01*
X257395Y142366D01*
X257362Y142501D01*
X257334Y142637D01*
X257325Y142656D01*
X257321Y142675D01*
X257256Y142798D01*
X257195Y142923D01*
X257181Y142938D01*
X257172Y142956D01*
X257078Y143059D01*
X256988Y143165D01*
X256972Y143177D01*
X256958Y143192D01*
X256841Y143268D01*
X256728Y143348D01*
X256709Y143355D01*
X256692Y143366D01*
X256561Y143412D01*
X256431Y143461D01*
X256411Y143463D01*
X256391Y143470D01*
X256253Y143481D01*
X256115Y143496D01*
X256095Y143493D01*
X256074Y143495D01*
X255937Y143471D01*
X255800Y143452D01*
X255773Y143443D01*
X255761Y143440D01*
X255742Y143432D01*
X255647Y143400D01*
X252846Y142239D01*
X248804Y142239D01*
X245069Y143786D01*
X242211Y146644D01*
X240664Y150379D01*
X240664Y153413D01*
X240652Y153511D01*
X240649Y153610D01*
X240632Y153668D01*
X240624Y153728D01*
X240588Y153821D01*
X240560Y153916D01*
X240530Y153968D01*
X240507Y154024D01*
X240449Y154104D01*
X240399Y154190D01*
X240333Y154265D01*
X240321Y154281D01*
X240311Y154289D01*
X240293Y154310D01*
X237156Y157446D01*
X236228Y159687D01*
X236228Y159828D01*
X236216Y159926D01*
X236213Y160025D01*
X236196Y160084D01*
X236188Y160144D01*
X236152Y160236D01*
X236124Y160331D01*
X236094Y160383D01*
X236071Y160439D01*
X236013Y160519D01*
X235963Y160605D01*
X235897Y160680D01*
X235885Y160697D01*
X235875Y160705D01*
X235857Y160726D01*
X234276Y162306D01*
X234276Y163450D01*
X234259Y163588D01*
X234246Y163727D01*
X234239Y163746D01*
X234236Y163766D01*
X234185Y163895D01*
X234138Y164026D01*
X234127Y164043D01*
X234119Y164062D01*
X234038Y164174D01*
X233960Y164289D01*
X233944Y164303D01*
X233933Y164319D01*
X233825Y164408D01*
X233721Y164500D01*
X233703Y164509D01*
X233688Y164522D01*
X233562Y164581D01*
X233438Y164644D01*
X233418Y164649D01*
X233400Y164657D01*
X233263Y164683D01*
X233128Y164714D01*
X233107Y164713D01*
X233088Y164717D01*
X232949Y164709D01*
X232810Y164704D01*
X232790Y164699D01*
X232770Y164697D01*
X232638Y164655D01*
X232504Y164616D01*
X232487Y164606D01*
X232468Y164599D01*
X232350Y164525D01*
X232230Y164454D01*
X232209Y164436D01*
X232199Y164429D01*
X232185Y164414D01*
X232109Y164348D01*
X231893Y164132D01*
X231833Y164054D01*
X231765Y163982D01*
X231736Y163928D01*
X231699Y163881D01*
X231659Y163790D01*
X231611Y163703D01*
X231596Y163644D01*
X231572Y163589D01*
X231557Y163491D01*
X231532Y163395D01*
X231526Y163295D01*
X231522Y163275D01*
X231524Y163262D01*
X231522Y163234D01*
X231522Y161198D01*
X231534Y161100D01*
X231537Y161001D01*
X231554Y160943D01*
X231562Y160883D01*
X231598Y160791D01*
X231626Y160696D01*
X231656Y160644D01*
X231679Y160587D01*
X231737Y160507D01*
X231787Y160422D01*
X231853Y160346D01*
X231865Y160330D01*
X231875Y160322D01*
X231893Y160301D01*
X234039Y158156D01*
X235586Y154421D01*
X235586Y150379D01*
X234039Y146644D01*
X231181Y143786D01*
X227446Y142239D01*
X224794Y142239D01*
X224676Y142224D01*
X224557Y142217D01*
X224518Y142204D01*
X224478Y142199D01*
X224367Y142156D01*
X224254Y142119D01*
X224220Y142097D01*
X224183Y142082D01*
X224086Y142013D01*
X223986Y141949D01*
X223958Y141919D01*
X223925Y141896D01*
X223849Y141804D01*
X223768Y141717D01*
X223748Y141682D01*
X223722Y141651D01*
X223672Y141543D01*
X223614Y141439D01*
X223604Y141399D01*
X223587Y141363D01*
X223564Y141246D01*
X223535Y141131D01*
X223531Y141071D01*
X223527Y141051D01*
X223528Y141030D01*
X223524Y140970D01*
X223524Y138005D01*
X222485Y135495D01*
X220563Y133573D01*
X218053Y132533D01*
X216856Y132533D01*
X216757Y132521D01*
X216658Y132518D01*
X216600Y132501D01*
X216540Y132494D01*
X216448Y132457D01*
X216353Y132430D01*
X216301Y132399D01*
X216244Y132377D01*
X216164Y132318D01*
X216079Y132268D01*
X216004Y132202D01*
X215987Y132190D01*
X215979Y132180D01*
X215958Y132162D01*
X203751Y119955D01*
X198108Y119955D01*
X198059Y119948D01*
X198010Y119951D01*
X197902Y119928D01*
X197793Y119915D01*
X197747Y119896D01*
X197698Y119886D01*
X197599Y119838D01*
X197497Y119798D01*
X197457Y119768D01*
X197412Y119747D01*
X197329Y119675D01*
X197240Y119611D01*
X197208Y119573D01*
X197170Y119540D01*
X197107Y119450D01*
X197037Y119366D01*
X197016Y119321D01*
X196987Y119280D01*
X196948Y119177D01*
X196902Y119078D01*
X196892Y119029D01*
X196875Y118983D01*
X196862Y118873D01*
X196842Y118766D01*
X196845Y118716D01*
X196839Y118667D01*
X196855Y118558D01*
X196862Y118448D01*
X196877Y118401D01*
X196884Y118352D01*
X196936Y118200D01*
X197331Y117246D01*
X197331Y114529D01*
X196291Y112018D01*
X194369Y110097D01*
X191859Y109057D01*
X189141Y109057D01*
X187179Y109869D01*
X187131Y109883D01*
X187087Y109904D01*
X186979Y109924D01*
X186873Y109953D01*
X186823Y109954D01*
X186774Y109963D01*
X186665Y109957D01*
X186555Y109958D01*
X186506Y109947D01*
X186457Y109944D01*
X186352Y109910D01*
X186245Y109884D01*
X186202Y109861D01*
X186154Y109846D01*
X186061Y109787D01*
X185964Y109736D01*
X185928Y109702D01*
X185886Y109676D01*
X185810Y109595D01*
X185729Y109522D01*
X185702Y109480D01*
X185668Y109444D01*
X185615Y109348D01*
X185554Y109256D01*
X185538Y109209D01*
X185514Y109165D01*
X185487Y109059D01*
X185451Y108955D01*
X185447Y108906D01*
X185435Y108857D01*
X185424Y108697D01*
X185424Y107385D01*
X184787Y105846D01*
X184785Y105837D01*
X184780Y105829D01*
X184771Y105793D01*
X184758Y105765D01*
X184741Y105677D01*
X184703Y105540D01*
X184703Y105530D01*
X184701Y105521D01*
X184690Y105361D01*
X184690Y93539D01*
X184703Y93440D01*
X184706Y93341D01*
X184723Y93283D01*
X184730Y93223D01*
X184767Y93131D01*
X184794Y93036D01*
X184825Y92984D01*
X184847Y92927D01*
X184905Y92847D01*
X184956Y92762D01*
X185022Y92687D01*
X185034Y92670D01*
X185044Y92662D01*
X185062Y92641D01*
X191935Y85768D01*
X192013Y85708D01*
X192085Y85640D01*
X192138Y85611D01*
X192186Y85574D01*
X192277Y85534D01*
X192364Y85486D01*
X192422Y85471D01*
X192478Y85447D01*
X192576Y85432D01*
X192672Y85407D01*
X192772Y85401D01*
X192792Y85397D01*
X192804Y85399D01*
X192832Y85397D01*
X195369Y85397D01*
X195436Y85405D01*
X195505Y85404D01*
X195594Y85425D01*
X195684Y85437D01*
X195748Y85462D01*
X195814Y85478D01*
X195961Y85543D01*
X196021Y85575D01*
X196025Y85578D01*
X196029Y85579D01*
X196156Y85670D01*
X196282Y85758D01*
X196284Y85761D01*
X196288Y85763D01*
X196388Y85882D01*
X196489Y85999D01*
X196490Y86003D01*
X196493Y86006D01*
X196572Y86147D01*
X196949Y86928D01*
X196950Y86931D01*
X196952Y86935D01*
X197001Y87084D01*
X197050Y87229D01*
X197050Y87233D01*
X197051Y87237D01*
X197061Y87392D01*
X197073Y87546D01*
X197072Y87550D01*
X197072Y87554D01*
X197068Y87592D01*
X197699Y88517D01*
X197705Y88530D01*
X197715Y88541D01*
X197794Y88681D01*
X198285Y89701D01*
X198314Y89715D01*
X198451Y89784D01*
X198454Y89786D01*
X198458Y89788D01*
X198576Y89892D01*
X198691Y89992D01*
X198694Y89995D01*
X198697Y89998D01*
X198796Y90125D01*
X199284Y90841D01*
X199286Y90844D01*
X199289Y90847D01*
X199359Y90987D01*
X199429Y91124D01*
X199430Y91128D01*
X199432Y91131D01*
X199465Y91284D01*
X199499Y91434D01*
X199499Y91438D01*
X199500Y91442D01*
X199501Y91480D01*
X200263Y92300D01*
X200271Y92312D01*
X200282Y92322D01*
X200381Y92449D01*
X201019Y93384D01*
X201048Y93393D01*
X201195Y93441D01*
X201199Y93443D01*
X201203Y93444D01*
X201333Y93528D01*
X201464Y93611D01*
X201467Y93614D01*
X201470Y93616D01*
X201587Y93727D01*
X202177Y94362D01*
X202179Y94365D01*
X202183Y94368D01*
X202252Y94465D01*
X202311Y94537D01*
X202327Y94571D01*
X202363Y94620D01*
X202364Y94624D01*
X202366Y94628D01*
X202421Y94770D01*
X202421Y94771D01*
X202447Y94825D01*
X202451Y94847D01*
X202478Y94917D01*
X202479Y94921D01*
X202480Y94925D01*
X202487Y94961D01*
X203362Y95659D01*
X203372Y95670D01*
X203385Y95678D01*
X203501Y95788D01*
X204272Y96618D01*
X204305Y96624D01*
X204454Y96648D01*
X204458Y96650D01*
X204462Y96651D01*
X204604Y96714D01*
X204746Y96776D01*
X204749Y96779D01*
X204753Y96780D01*
X204885Y96873D01*
X205563Y97413D01*
X205565Y97416D01*
X205569Y97418D01*
X205675Y97528D01*
X205784Y97641D01*
X205786Y97644D01*
X205789Y97647D01*
X205866Y97782D01*
X205943Y97916D01*
X205944Y97920D01*
X205946Y97924D01*
X205958Y97960D01*
X206928Y98519D01*
X206939Y98528D01*
X206953Y98534D01*
X207085Y98626D01*
X207970Y99332D01*
X208002Y99332D01*
X208155Y99334D01*
X208159Y99335D01*
X208163Y99335D01*
X208315Y99377D01*
X208462Y99417D01*
X208466Y99419D01*
X208470Y99420D01*
X208614Y99492D01*
X209365Y99925D01*
X209368Y99928D01*
X209372Y99929D01*
X209493Y100022D01*
X209618Y100117D01*
X209621Y100121D01*
X209624Y100123D01*
X209718Y100243D01*
X209816Y100366D01*
X209818Y100370D01*
X209820Y100373D01*
X209837Y100407D01*
X210880Y100815D01*
X210893Y100822D01*
X210907Y100826D01*
X211051Y100898D01*
X212031Y101463D01*
X212059Y101460D01*
X212215Y101438D01*
X212219Y101439D01*
X212223Y101438D01*
X212377Y101457D01*
X212531Y101475D01*
X212535Y101476D01*
X212539Y101477D01*
X212692Y101526D01*
X213499Y101842D01*
X213503Y101844D01*
X213507Y101845D01*
X213643Y101921D01*
X213778Y101995D01*
X213781Y101998D01*
X213785Y102000D01*
X213898Y102107D01*
X214011Y102212D01*
X214013Y102215D01*
X214016Y102218D01*
X214038Y102248D01*
X215130Y102497D01*
X215143Y102502D01*
X215158Y102504D01*
X215311Y102553D01*
X216365Y102966D01*
X216394Y102958D01*
X216543Y102914D01*
X216547Y102914D01*
X216551Y102913D01*
X216705Y102909D01*
X216861Y102903D01*
X216865Y102904D01*
X216869Y102904D01*
X217028Y102930D01*
X217873Y103122D01*
X217877Y103124D01*
X217881Y103124D01*
X218025Y103178D01*
X218172Y103231D01*
X218175Y103234D01*
X218179Y103235D01*
X218306Y103323D01*
X218434Y103411D01*
X218437Y103414D01*
X218440Y103416D01*
X218466Y103443D01*
X219583Y103527D01*
X219597Y103529D01*
X219612Y103529D01*
X219771Y103555D01*
X220874Y103806D01*
X220902Y103794D01*
X221042Y103728D01*
X221046Y103728D01*
X221050Y103726D01*
X221201Y103699D01*
X221355Y103670D01*
X221359Y103670D01*
X221363Y103670D01*
X221524Y103671D01*
X222389Y103736D01*
X222393Y103737D01*
X222397Y103737D01*
X222548Y103768D01*
X222700Y103799D01*
X222704Y103801D01*
X222708Y103802D01*
X222844Y103869D01*
X222986Y103938D01*
X222990Y103941D01*
X222993Y103942D01*
X223023Y103965D01*
X224140Y103881D01*
X224154Y103882D01*
X224169Y103879D01*
X224330Y103881D01*
X225459Y103965D01*
X225483Y103949D01*
X225613Y103863D01*
X225617Y103862D01*
X225620Y103859D01*
X225768Y103809D01*
X225913Y103759D01*
X225917Y103758D01*
X225921Y103757D01*
X226081Y103735D01*
X226945Y103670D01*
X226949Y103670D01*
X226954Y103669D01*
X227108Y103678D01*
X227263Y103686D01*
X227267Y103687D01*
X227271Y103687D01*
X227420Y103734D01*
X227567Y103780D01*
X227570Y103782D01*
X227574Y103784D01*
X227607Y103801D01*
X228699Y103552D01*
X228713Y103550D01*
X228727Y103546D01*
X228886Y103524D01*
X230015Y103439D01*
X230036Y103420D01*
X230153Y103315D01*
X230156Y103313D01*
X230159Y103310D01*
X230297Y103239D01*
X230434Y103167D01*
X230438Y103166D01*
X230442Y103164D01*
X230596Y103118D01*
X231441Y102925D01*
X231445Y102925D01*
X231449Y102923D01*
X231602Y102909D01*
X231758Y102894D01*
X231762Y102894D01*
X231766Y102894D01*
X231919Y102918D01*
X232072Y102942D01*
X232076Y102943D01*
X232080Y102944D01*
X232115Y102957D01*
X233158Y102547D01*
X233172Y102544D01*
X233185Y102537D01*
X233339Y102491D01*
X234443Y102239D01*
X234460Y102218D01*
X234560Y102096D01*
X234563Y102093D01*
X234566Y102090D01*
X234688Y102002D01*
X234816Y101908D01*
X234820Y101906D01*
X234823Y101904D01*
X234969Y101836D01*
X235776Y101519D01*
X235780Y101518D01*
X235784Y101516D01*
X235935Y101478D01*
X236084Y101440D01*
X236089Y101440D01*
X236092Y101439D01*
X236247Y101441D01*
X236402Y101441D01*
X236406Y101442D01*
X236411Y101442D01*
X236447Y101450D01*
X237417Y100889D01*
X237430Y100884D01*
X237442Y100875D01*
X237588Y100807D01*
X238642Y100393D01*
X238657Y100368D01*
X238736Y100234D01*
X238739Y100231D01*
X238741Y100228D01*
X238854Y100117D01*
X238962Y100010D01*
X238965Y100008D01*
X238968Y100005D01*
X239102Y99915D01*
X239853Y99482D01*
X239857Y99480D01*
X239860Y99478D01*
X240005Y99418D01*
X240146Y99358D01*
X240150Y99358D01*
X240154Y99356D01*
X240307Y99335D01*
X240461Y99312D01*
X240465Y99312D01*
X240469Y99312D01*
X240506Y99314D01*
X241381Y98615D01*
X241394Y98607D01*
X241404Y98597D01*
X241538Y98508D01*
X242518Y97942D01*
X242530Y97913D01*
X242589Y97770D01*
X242591Y97767D01*
X242593Y97763D01*
X242685Y97640D01*
X242778Y97515D01*
X242781Y97512D01*
X242784Y97509D01*
X242903Y97401D01*
X243580Y96860D01*
X243584Y96858D01*
X243587Y96855D01*
X243718Y96776D01*
X243852Y96695D01*
X243856Y96693D01*
X243859Y96691D01*
X244008Y96647D01*
X244156Y96602D01*
X244160Y96601D01*
X244164Y96600D01*
X244201Y96596D01*
X244963Y95775D01*
X244974Y95766D01*
X244983Y95754D01*
X245102Y95646D01*
X245981Y94944D01*
X246000Y94887D01*
X246031Y94760D01*
X246032Y94756D01*
X246033Y94752D01*
X246058Y94706D01*
X246067Y94679D01*
X246108Y94614D01*
X246180Y94479D01*
X246183Y94476D01*
X246185Y94473D01*
X246286Y94348D01*
X246876Y93712D01*
X246879Y93710D01*
X246881Y93706D01*
X247001Y93607D01*
X247120Y93508D01*
X247123Y93506D01*
X247126Y93504D01*
X247267Y93438D01*
X247406Y93371D01*
X247411Y93370D01*
X247414Y93368D01*
X247450Y93359D01*
X248035Y92501D01*
X248083Y92447D01*
X248123Y92387D01*
X248188Y92328D01*
X248246Y92262D01*
X248305Y92222D01*
X248359Y92174D01*
X248437Y92133D01*
X248509Y92084D01*
X248577Y92059D01*
X248641Y92026D01*
X248726Y92006D01*
X248808Y91976D01*
X248880Y91970D01*
X248950Y91953D01*
X249038Y91955D01*
X249125Y91947D01*
X249196Y91958D01*
X249268Y91959D01*
X249352Y91983D01*
X249439Y91997D01*
X249505Y92025D01*
X249574Y92045D01*
X249719Y92116D01*
X280824Y110074D01*
X280887Y109851D01*
X280902Y109820D01*
X280916Y109773D01*
X282273Y106887D01*
X282291Y106864D01*
X282301Y106837D01*
X282350Y106785D01*
X282392Y106728D01*
X282417Y106713D01*
X282437Y106692D01*
X282502Y106663D01*
X282564Y106628D01*
X282593Y106624D01*
X282619Y106612D01*
X282690Y106611D01*
X282761Y106602D01*
X282789Y106610D01*
X282818Y106610D01*
X282911Y106644D01*
X282952Y106656D01*
X282961Y106663D01*
X282974Y106667D01*
X299225Y116024D01*
X315476Y106667D01*
X315504Y106658D01*
X315528Y106641D01*
X315597Y106627D01*
X315665Y106604D01*
X315694Y106607D01*
X315722Y106601D01*
X315792Y106615D01*
X315863Y106620D01*
X315889Y106634D01*
X315917Y106639D01*
X315976Y106679D01*
X316039Y106712D01*
X316058Y106734D01*
X316082Y106751D01*
X316139Y106833D01*
X316166Y106865D01*
X316169Y106876D01*
X316177Y106887D01*
X317534Y109773D01*
X317543Y109807D01*
X317563Y109851D01*
X317626Y110074D01*
X434389Y42663D01*
X434107Y42369D01*
X434089Y42341D01*
X434056Y42307D01*
X432314Y39784D01*
X432303Y39757D01*
X432284Y39735D01*
X432264Y39666D01*
X432236Y39601D01*
X432236Y39572D01*
X432228Y39544D01*
X432236Y39473D01*
X432236Y39402D01*
X432247Y39375D01*
X432250Y39346D01*
X432285Y39284D01*
X432313Y39219D01*
X432333Y39198D01*
X432348Y39173D01*
X432411Y39121D01*
X432415Y39116D01*
X432424Y39110D01*
X432425Y39110D01*
X432455Y39080D01*
X432465Y39076D01*
X432476Y39067D01*
X448976Y29567D01*
X449049Y29543D01*
X449119Y29512D01*
X449143Y29512D01*
X449165Y29504D01*
X449241Y29511D01*
G37*
G36*
X43743Y209114D02*
X43743Y209114D01*
X43861Y209121D01*
X43900Y209134D01*
X43940Y209139D01*
X44051Y209182D01*
X44164Y209219D01*
X44198Y209241D01*
X44236Y209256D01*
X44332Y209325D01*
X44433Y209389D01*
X44460Y209419D01*
X44493Y209442D01*
X44569Y209534D01*
X44651Y209621D01*
X44670Y209656D01*
X44696Y209687D01*
X44747Y209795D01*
X44804Y209899D01*
X44814Y209939D01*
X44831Y209975D01*
X44854Y210092D01*
X44884Y210207D01*
X44887Y210267D01*
X44891Y210287D01*
X44890Y210308D01*
X44894Y210368D01*
X44894Y211578D01*
X47644Y214328D01*
X47717Y214422D01*
X47796Y214512D01*
X47814Y214548D01*
X47839Y214580D01*
X47886Y214689D01*
X47940Y214795D01*
X47949Y214834D01*
X47965Y214871D01*
X47984Y214989D01*
X48010Y215105D01*
X48009Y215145D01*
X48015Y215185D01*
X48004Y215304D01*
X48000Y215423D01*
X47989Y215462D01*
X47985Y215502D01*
X47945Y215614D01*
X47912Y215728D01*
X47892Y215763D01*
X47878Y215801D01*
X47811Y215900D01*
X47751Y216002D01*
X47711Y216048D01*
X47699Y216065D01*
X47684Y216078D01*
X47644Y216123D01*
X44177Y219591D01*
X44174Y219665D01*
X44157Y219724D01*
X44150Y219784D01*
X44113Y219876D01*
X44086Y219971D01*
X44055Y220023D01*
X44033Y220079D01*
X43975Y220160D01*
X43924Y220245D01*
X43858Y220320D01*
X43846Y220337D01*
X43837Y220345D01*
X43818Y220366D01*
X42718Y221466D01*
X41678Y223977D01*
X41678Y226694D01*
X42718Y229205D01*
X44639Y231126D01*
X47150Y232166D01*
X49867Y232166D01*
X52378Y231126D01*
X53871Y229633D01*
X53965Y229560D01*
X54055Y229481D01*
X54091Y229462D01*
X54123Y229438D01*
X54232Y229390D01*
X54338Y229336D01*
X54377Y229327D01*
X54414Y229311D01*
X54532Y229293D01*
X54648Y229267D01*
X54688Y229268D01*
X54728Y229261D01*
X54847Y229273D01*
X54966Y229276D01*
X55005Y229287D01*
X55045Y229291D01*
X55157Y229332D01*
X55271Y229365D01*
X55306Y229385D01*
X55344Y229399D01*
X55443Y229466D01*
X55545Y229526D01*
X55591Y229566D01*
X55608Y229577D01*
X55621Y229593D01*
X55666Y229633D01*
X57249Y231216D01*
X59760Y232256D01*
X62478Y232256D01*
X64988Y231216D01*
X65834Y230369D01*
X65913Y230309D01*
X65985Y230241D01*
X66038Y230212D01*
X66086Y230175D01*
X66177Y230135D01*
X66263Y230087D01*
X66322Y230072D01*
X66377Y230048D01*
X66475Y230033D01*
X66571Y230008D01*
X66671Y230002D01*
X66692Y229998D01*
X66704Y230000D01*
X66732Y229998D01*
X69438Y229998D01*
X73791Y225644D01*
X73869Y225584D01*
X73941Y225516D01*
X73994Y225487D01*
X74042Y225450D01*
X74133Y225410D01*
X74220Y225362D01*
X74279Y225347D01*
X74334Y225323D01*
X74432Y225308D01*
X74528Y225283D01*
X74628Y225277D01*
X74648Y225273D01*
X74661Y225275D01*
X74689Y225273D01*
X77140Y225273D01*
X77277Y225290D01*
X77416Y225303D01*
X77435Y225310D01*
X77456Y225313D01*
X77584Y225364D01*
X77716Y225411D01*
X77732Y225422D01*
X77751Y225430D01*
X77864Y225511D01*
X77979Y225589D01*
X77992Y225605D01*
X78009Y225616D01*
X78097Y225724D01*
X78189Y225828D01*
X78198Y225846D01*
X78211Y225861D01*
X78271Y225987D01*
X78334Y226111D01*
X78338Y226131D01*
X78347Y226149D01*
X78373Y226286D01*
X78403Y226421D01*
X78403Y226442D01*
X78407Y226461D01*
X78398Y226600D01*
X78394Y226739D01*
X78388Y226759D01*
X78387Y226779D01*
X78344Y226911D01*
X78305Y227045D01*
X78295Y227062D01*
X78289Y227081D01*
X78214Y227199D01*
X78144Y227319D01*
X78125Y227340D01*
X78119Y227350D01*
X78104Y227364D01*
X78037Y227439D01*
X76299Y229178D01*
X76265Y229212D01*
X73215Y232262D01*
X73215Y238633D01*
X73200Y238751D01*
X73192Y238870D01*
X73180Y238908D01*
X73175Y238949D01*
X73131Y239059D01*
X73094Y239172D01*
X73073Y239207D01*
X73058Y239244D01*
X72988Y239340D01*
X72924Y239441D01*
X72895Y239469D01*
X72871Y239502D01*
X72779Y239578D01*
X72693Y239659D01*
X72657Y239679D01*
X72626Y239704D01*
X72518Y239755D01*
X72414Y239813D01*
X72375Y239823D01*
X72338Y239840D01*
X72222Y239862D01*
X72106Y239892D01*
X72046Y239896D01*
X72026Y239900D01*
X72006Y239898D01*
X71946Y239902D01*
X69118Y239902D01*
X69000Y239887D01*
X68881Y239880D01*
X68843Y239867D01*
X68802Y239862D01*
X68692Y239819D01*
X68579Y239782D01*
X68544Y239760D01*
X68507Y239745D01*
X68411Y239676D01*
X68310Y239612D01*
X68282Y239582D01*
X68249Y239559D01*
X68173Y239467D01*
X68092Y239380D01*
X68072Y239345D01*
X68047Y239314D01*
X67996Y239206D01*
X67938Y239102D01*
X67928Y239062D01*
X67911Y239026D01*
X67889Y238909D01*
X67859Y238794D01*
X67855Y238734D01*
X67851Y238714D01*
X67853Y238693D01*
X67849Y238633D01*
X67849Y238212D01*
X66063Y236426D01*
X52537Y236426D01*
X50751Y238212D01*
X50751Y246488D01*
X50739Y246587D01*
X50736Y246686D01*
X50719Y246744D01*
X50711Y246804D01*
X50675Y246896D01*
X50647Y246991D01*
X50617Y247043D01*
X50594Y247100D01*
X50536Y247180D01*
X50486Y247265D01*
X50420Y247340D01*
X50408Y247357D01*
X50398Y247365D01*
X50380Y247386D01*
X45311Y252455D01*
X45233Y252515D01*
X45161Y252583D01*
X45108Y252612D01*
X45060Y252649D01*
X44969Y252689D01*
X44882Y252737D01*
X44823Y252752D01*
X44768Y252776D01*
X44670Y252791D01*
X44574Y252816D01*
X44474Y252822D01*
X44454Y252826D01*
X44441Y252824D01*
X44413Y252826D01*
X34720Y252826D01*
X34686Y252832D01*
X34570Y252858D01*
X34530Y252856D01*
X34490Y252863D01*
X34371Y252852D01*
X34252Y252848D01*
X34213Y252837D01*
X34173Y252833D01*
X34061Y252793D01*
X33947Y252760D01*
X33912Y252739D01*
X33874Y252726D01*
X33775Y252659D01*
X33673Y252598D01*
X33628Y252559D01*
X33611Y252547D01*
X33597Y252532D01*
X33552Y252492D01*
X32444Y251384D01*
X29934Y250344D01*
X27216Y250344D01*
X24706Y251384D01*
X22784Y253306D01*
X21744Y255816D01*
X21744Y258534D01*
X22784Y261044D01*
X24706Y262966D01*
X26244Y263603D01*
X26252Y263608D01*
X26261Y263610D01*
X26391Y263687D01*
X26521Y263761D01*
X26527Y263767D01*
X26535Y263772D01*
X26656Y263878D01*
X27428Y264650D01*
X29321Y266544D01*
X31562Y267472D01*
X32034Y267472D01*
X32133Y267484D01*
X32232Y267487D01*
X32290Y267504D01*
X32350Y267512D01*
X32442Y267548D01*
X32537Y267576D01*
X32589Y267606D01*
X32646Y267629D01*
X32726Y267687D01*
X32811Y267737D01*
X32886Y267803D01*
X32903Y267815D01*
X32911Y267825D01*
X32932Y267843D01*
X35012Y269924D01*
X47538Y269924D01*
X49324Y268138D01*
X49324Y266212D01*
X49336Y266113D01*
X49339Y266014D01*
X49356Y265956D01*
X49364Y265896D01*
X49400Y265804D01*
X49428Y265709D01*
X49458Y265657D01*
X49481Y265600D01*
X49539Y265520D01*
X49589Y265435D01*
X49655Y265360D01*
X49667Y265343D01*
X49677Y265335D01*
X49695Y265314D01*
X62114Y252895D01*
X62192Y252835D01*
X62264Y252767D01*
X62317Y252738D01*
X62365Y252701D01*
X62456Y252661D01*
X62543Y252613D01*
X62602Y252598D01*
X62657Y252574D01*
X62755Y252559D01*
X62851Y252534D01*
X62951Y252528D01*
X62971Y252524D01*
X62984Y252526D01*
X63012Y252524D01*
X66063Y252524D01*
X67849Y250738D01*
X67849Y250317D01*
X67864Y250199D01*
X67871Y250080D01*
X67884Y250042D01*
X67889Y250001D01*
X67932Y249891D01*
X67969Y249778D01*
X67991Y249743D01*
X68006Y249706D01*
X68075Y249610D01*
X68139Y249509D01*
X68169Y249481D01*
X68192Y249448D01*
X68284Y249372D01*
X68371Y249291D01*
X68406Y249271D01*
X68437Y249246D01*
X68545Y249195D01*
X68649Y249137D01*
X68689Y249127D01*
X68725Y249110D01*
X68842Y249088D01*
X68957Y249058D01*
X69017Y249054D01*
X69037Y249050D01*
X69058Y249052D01*
X69118Y249048D01*
X90877Y249048D01*
X91015Y249065D01*
X91153Y249078D01*
X91172Y249085D01*
X91192Y249088D01*
X91321Y249139D01*
X91452Y249186D01*
X91469Y249197D01*
X91488Y249205D01*
X91600Y249286D01*
X91715Y249364D01*
X91729Y249380D01*
X91745Y249391D01*
X91834Y249499D01*
X91926Y249603D01*
X91935Y249621D01*
X91948Y249636D01*
X92007Y249762D01*
X92070Y249886D01*
X92075Y249906D01*
X92083Y249924D01*
X92110Y250061D01*
X92140Y250196D01*
X92139Y250217D01*
X92143Y250236D01*
X92135Y250375D01*
X92130Y250514D01*
X92125Y250534D01*
X92123Y250554D01*
X92081Y250685D01*
X92042Y250820D01*
X92032Y250837D01*
X92025Y250856D01*
X91951Y250974D01*
X91880Y251094D01*
X91862Y251115D01*
X91855Y251125D01*
X91840Y251139D01*
X91774Y251214D01*
X90901Y252087D01*
X90901Y268613D01*
X92687Y270399D01*
X99213Y270399D01*
X100999Y268613D01*
X100999Y256038D01*
X101011Y255939D01*
X101014Y255840D01*
X101031Y255782D01*
X101039Y255722D01*
X101075Y255630D01*
X101103Y255535D01*
X101133Y255483D01*
X101156Y255426D01*
X101214Y255346D01*
X101264Y255261D01*
X101330Y255185D01*
X101342Y255169D01*
X101352Y255161D01*
X101371Y255140D01*
X107449Y249061D01*
X107544Y248988D01*
X107633Y248909D01*
X107669Y248891D01*
X107701Y248866D01*
X107810Y248819D01*
X107916Y248765D01*
X107955Y248756D01*
X107992Y248740D01*
X108110Y248721D01*
X108226Y248695D01*
X108267Y248696D01*
X108307Y248690D01*
X108425Y248701D01*
X108544Y248705D01*
X108583Y248716D01*
X108623Y248720D01*
X108735Y248760D01*
X108850Y248793D01*
X108884Y248814D01*
X108922Y248827D01*
X109021Y248894D01*
X109124Y248955D01*
X109169Y248995D01*
X109186Y249006D01*
X109199Y249021D01*
X109244Y249061D01*
X114529Y254346D01*
X114590Y254425D01*
X114658Y254497D01*
X114687Y254550D01*
X114724Y254598D01*
X114764Y254689D01*
X114812Y254775D01*
X114827Y254834D01*
X114851Y254889D01*
X114866Y254987D01*
X114891Y255083D01*
X114897Y255183D01*
X114901Y255204D01*
X114899Y255216D01*
X114901Y255244D01*
X114901Y268613D01*
X116687Y270399D01*
X121277Y270399D01*
X121395Y270414D01*
X121514Y270421D01*
X121552Y270433D01*
X121592Y270439D01*
X121703Y270482D01*
X121816Y270519D01*
X121850Y270541D01*
X121888Y270556D01*
X121984Y270625D01*
X122085Y270689D01*
X122113Y270719D01*
X122145Y270742D01*
X122221Y270834D01*
X122303Y270921D01*
X122322Y270956D01*
X122348Y270987D01*
X122399Y271095D01*
X122456Y271199D01*
X122466Y271239D01*
X122484Y271275D01*
X122506Y271392D01*
X122536Y271507D01*
X122540Y271567D01*
X122543Y271587D01*
X122542Y271608D01*
X122546Y271668D01*
X122546Y276861D01*
X122534Y276960D01*
X122531Y277059D01*
X122514Y277117D01*
X122506Y277177D01*
X122470Y277269D01*
X122442Y277364D01*
X122411Y277416D01*
X122389Y277473D01*
X122331Y277553D01*
X122281Y277638D01*
X122214Y277713D01*
X122202Y277730D01*
X122193Y277738D01*
X122174Y277759D01*
X121737Y278196D01*
X121737Y278212D01*
X121720Y278270D01*
X121712Y278330D01*
X121676Y278422D01*
X121648Y278517D01*
X121618Y278569D01*
X121595Y278626D01*
X121537Y278706D01*
X121487Y278791D01*
X121421Y278866D01*
X121409Y278883D01*
X121399Y278891D01*
X121381Y278912D01*
X116331Y283961D01*
X116331Y308066D01*
X120230Y311964D01*
X120290Y312042D01*
X120358Y312115D01*
X120387Y312168D01*
X120424Y312215D01*
X120464Y312306D01*
X120512Y312393D01*
X120527Y312452D01*
X120551Y312507D01*
X120566Y312605D01*
X120591Y312701D01*
X120597Y312801D01*
X120601Y312821D01*
X120599Y312834D01*
X120601Y312862D01*
X120601Y323763D01*
X122682Y325843D01*
X122742Y325921D01*
X122810Y325993D01*
X122839Y326046D01*
X122876Y326094D01*
X122916Y326185D01*
X122964Y326272D01*
X122979Y326330D01*
X123003Y326386D01*
X123018Y326484D01*
X123043Y326580D01*
X123049Y326680D01*
X123053Y326700D01*
X123051Y326713D01*
X123053Y326741D01*
X123053Y339119D01*
X123981Y341360D01*
X124265Y341644D01*
X124271Y341651D01*
X124278Y341657D01*
X124368Y341776D01*
X124460Y341895D01*
X124464Y341904D01*
X124470Y341911D01*
X124541Y342056D01*
X125178Y343594D01*
X127099Y345516D01*
X129610Y346556D01*
X132328Y346556D01*
X133866Y345918D01*
X133875Y345916D01*
X133883Y345911D01*
X134029Y345874D01*
X134173Y345834D01*
X134182Y345834D01*
X134191Y345832D01*
X134352Y345822D01*
X135774Y345822D01*
X135872Y345834D01*
X135971Y345837D01*
X136029Y345854D01*
X136089Y345862D01*
X136181Y345898D01*
X136277Y345926D01*
X136329Y345956D01*
X136385Y345979D01*
X136465Y346037D01*
X136551Y346087D01*
X136626Y346153D01*
X136643Y346165D01*
X136650Y346175D01*
X136671Y346194D01*
X137407Y346929D01*
X139446Y347774D01*
X152654Y347774D01*
X154693Y346929D01*
X156254Y345368D01*
X157099Y343329D01*
X157099Y336121D01*
X156230Y334023D01*
X156217Y333975D01*
X156195Y333930D01*
X156175Y333823D01*
X156146Y333716D01*
X156145Y333667D01*
X156136Y333618D01*
X156142Y333508D01*
X156141Y333398D01*
X156152Y333350D01*
X156155Y333301D01*
X156189Y333196D01*
X156215Y333089D01*
X156238Y333045D01*
X156253Y332998D01*
X156312Y332905D01*
X156364Y332808D01*
X156397Y332771D01*
X156424Y332729D01*
X156504Y332654D01*
X156577Y332573D01*
X156619Y332545D01*
X156655Y332511D01*
X156751Y332458D01*
X156843Y332398D01*
X156890Y332382D01*
X156934Y332358D01*
X157040Y332330D01*
X157144Y332295D01*
X157194Y332291D01*
X157242Y332278D01*
X157402Y332268D01*
X160109Y332268D01*
X162619Y331228D01*
X164541Y329307D01*
X165581Y326796D01*
X165581Y324079D01*
X164493Y321454D01*
X164480Y321406D01*
X164459Y321361D01*
X164438Y321253D01*
X164409Y321147D01*
X164409Y321097D01*
X164399Y321048D01*
X164406Y320939D01*
X164404Y320829D01*
X164416Y320781D01*
X164419Y320731D01*
X164453Y320627D01*
X164479Y320520D01*
X164502Y320476D01*
X164517Y320429D01*
X164576Y320336D01*
X164627Y320239D01*
X164661Y320202D01*
X164687Y320160D01*
X164767Y320085D01*
X164841Y320003D01*
X164883Y319976D01*
X164919Y319942D01*
X165015Y319889D01*
X165107Y319829D01*
X165154Y319812D01*
X165197Y319788D01*
X165304Y319761D01*
X165408Y319725D01*
X165457Y319721D01*
X165505Y319709D01*
X165666Y319699D01*
X176688Y319699D01*
X178474Y317913D01*
X178474Y304387D01*
X177893Y303807D01*
X177833Y303729D01*
X177765Y303657D01*
X177736Y303604D01*
X177699Y303556D01*
X177659Y303465D01*
X177611Y303378D01*
X177596Y303319D01*
X177572Y303264D01*
X177557Y303166D01*
X177532Y303070D01*
X177526Y302970D01*
X177522Y302950D01*
X177524Y302937D01*
X177522Y302909D01*
X177522Y300743D01*
X177537Y300625D01*
X177544Y300506D01*
X177557Y300468D01*
X177562Y300427D01*
X177605Y300317D01*
X177642Y300204D01*
X177664Y300169D01*
X177679Y300132D01*
X177748Y300036D01*
X177812Y299935D01*
X177842Y299907D01*
X177865Y299874D01*
X177957Y299798D01*
X178044Y299717D01*
X178079Y299697D01*
X178110Y299672D01*
X178218Y299621D01*
X178322Y299563D01*
X178362Y299553D01*
X178398Y299536D01*
X178515Y299514D01*
X178630Y299484D01*
X178690Y299480D01*
X178710Y299476D01*
X178731Y299478D01*
X178791Y299474D01*
X179188Y299474D01*
X180974Y297688D01*
X180974Y290750D01*
X180991Y290612D01*
X181004Y290473D01*
X181011Y290454D01*
X181014Y290434D01*
X181065Y290305D01*
X181112Y290174D01*
X181123Y290157D01*
X181131Y290138D01*
X181212Y290026D01*
X181290Y289911D01*
X181306Y289897D01*
X181317Y289881D01*
X181425Y289792D01*
X181529Y289700D01*
X181547Y289691D01*
X181562Y289678D01*
X181688Y289619D01*
X181812Y289556D01*
X181832Y289551D01*
X181850Y289543D01*
X181987Y289517D01*
X182122Y289486D01*
X182143Y289487D01*
X182162Y289483D01*
X182301Y289491D01*
X182440Y289496D01*
X182460Y289501D01*
X182480Y289503D01*
X182612Y289545D01*
X182746Y289584D01*
X182763Y289594D01*
X182782Y289601D01*
X182900Y289675D01*
X183020Y289746D01*
X183041Y289764D01*
X183051Y289771D01*
X183065Y289786D01*
X183140Y289852D01*
X183937Y290649D01*
X197200Y290649D01*
X197318Y290664D01*
X197437Y290671D01*
X197475Y290684D01*
X197515Y290689D01*
X197626Y290732D01*
X197739Y290769D01*
X197773Y290791D01*
X197811Y290806D01*
X197907Y290875D01*
X198008Y290939D01*
X198036Y290969D01*
X198068Y290992D01*
X198144Y291084D01*
X198226Y291171D01*
X198245Y291206D01*
X198271Y291237D01*
X198322Y291345D01*
X198379Y291449D01*
X198389Y291489D01*
X198407Y291525D01*
X198429Y291642D01*
X198459Y291757D01*
X198463Y291817D01*
X198466Y291837D01*
X198465Y291858D01*
X198466Y291868D01*
X198466Y291871D01*
X198466Y291875D01*
X198469Y291918D01*
X198469Y311311D01*
X199877Y312719D01*
X199936Y312795D01*
X200002Y312864D01*
X200033Y312920D01*
X200072Y312970D01*
X200110Y313058D01*
X200157Y313142D01*
X200173Y313203D01*
X200198Y313262D01*
X200213Y313357D01*
X200238Y313449D01*
X200238Y313513D01*
X200248Y313576D01*
X200239Y313672D01*
X200240Y313767D01*
X200224Y313829D01*
X200218Y313893D01*
X200186Y313983D01*
X200163Y314076D01*
X200132Y314132D01*
X200111Y314192D01*
X200057Y314271D01*
X200012Y314355D01*
X199943Y314439D01*
X199932Y314455D01*
X199924Y314462D01*
X199910Y314480D01*
X199493Y314929D01*
X199490Y314958D01*
X199476Y315114D01*
X199475Y315117D01*
X199474Y315122D01*
X199421Y315269D01*
X199370Y315414D01*
X199368Y315417D01*
X199366Y315421D01*
X199284Y315559D01*
X198796Y316275D01*
X198793Y316278D01*
X198791Y316282D01*
X198687Y316398D01*
X198585Y316514D01*
X198582Y316516D01*
X198579Y316519D01*
X198451Y316604D01*
X198322Y316692D01*
X198318Y316693D01*
X198314Y316696D01*
X198280Y316710D01*
X197794Y317719D01*
X197786Y317731D01*
X197781Y317745D01*
X197699Y317883D01*
X197061Y318818D01*
X197062Y318849D01*
X197072Y319003D01*
X197071Y319007D01*
X197071Y319011D01*
X197041Y319163D01*
X197012Y319315D01*
X197010Y319319D01*
X197009Y319323D01*
X196949Y319472D01*
X196572Y320253D01*
X196570Y320257D01*
X196569Y320261D01*
X196483Y320391D01*
X196399Y320520D01*
X196396Y320523D01*
X196394Y320527D01*
X196279Y320631D01*
X196165Y320736D01*
X196162Y320738D01*
X196159Y320741D01*
X196127Y320760D01*
X195796Y321830D01*
X195790Y321843D01*
X195788Y321858D01*
X195727Y322007D01*
X195236Y323027D01*
X195241Y323055D01*
X195274Y323208D01*
X195274Y323212D01*
X195275Y323216D01*
X195267Y323369D01*
X195261Y323525D01*
X195260Y323529D01*
X195260Y323533D01*
X195222Y323690D01*
X194966Y324518D01*
X194965Y324522D01*
X194964Y324526D01*
X194900Y324665D01*
X194835Y324808D01*
X194833Y324811D01*
X194831Y324815D01*
X194733Y324935D01*
X194636Y325056D01*
X194633Y325058D01*
X194630Y325062D01*
X194602Y325086D01*
X194434Y326193D01*
X194430Y326207D01*
X194430Y326221D01*
X194392Y326378D01*
X194058Y327460D01*
X194068Y327487D01*
X194123Y327633D01*
X194123Y327637D01*
X194125Y327641D01*
X194140Y327792D01*
X194158Y327949D01*
X194157Y327953D01*
X194157Y327957D01*
X194144Y328118D01*
X194014Y328975D01*
X194013Y328979D01*
X194013Y328983D01*
X194010Y328992D01*
X194010Y328997D01*
X194000Y329027D01*
X193970Y329132D01*
X193928Y329281D01*
X193925Y329284D01*
X193924Y329288D01*
X193847Y329420D01*
X193768Y329556D01*
X193765Y329559D01*
X193763Y329562D01*
X193738Y329590D01*
X193738Y330710D01*
X193736Y330725D01*
X193737Y330739D01*
X193723Y330900D01*
X193554Y332019D01*
X193569Y332046D01*
X193644Y332181D01*
X193645Y332185D01*
X193647Y332188D01*
X193686Y332338D01*
X193726Y332488D01*
X193726Y332492D01*
X193727Y332496D01*
X193737Y332657D01*
X193737Y333524D01*
X193736Y333528D01*
X193737Y333532D01*
X193716Y333684D01*
X193697Y333839D01*
X193695Y333843D01*
X193695Y333847D01*
X193637Y333989D01*
X193580Y334135D01*
X193577Y334138D01*
X193576Y334142D01*
X193555Y334173D01*
X193722Y335281D01*
X193722Y335295D01*
X193726Y335309D01*
X193736Y335470D01*
X193736Y336602D01*
X193753Y336625D01*
X193849Y336749D01*
X193851Y336752D01*
X193853Y336756D01*
X193913Y336897D01*
X193975Y337040D01*
X193976Y337045D01*
X193977Y337048D01*
X194011Y337206D01*
X194140Y338063D01*
X194140Y338067D01*
X194142Y338071D01*
X194144Y338229D01*
X194148Y338381D01*
X194147Y338385D01*
X194147Y338389D01*
X194110Y338543D01*
X194076Y338691D01*
X194074Y338694D01*
X194073Y338698D01*
X194058Y338733D01*
X194388Y339803D01*
X194390Y339817D01*
X194396Y339830D01*
X194430Y339988D01*
X194598Y341107D01*
X194617Y341125D01*
X194732Y341235D01*
X194734Y341239D01*
X194737Y341242D01*
X194819Y341374D01*
X194900Y341505D01*
X194902Y341509D01*
X194904Y341512D01*
X194961Y341663D01*
X195216Y342491D01*
X195217Y342496D01*
X195218Y342499D01*
X195243Y342648D01*
X195271Y342805D01*
X195271Y342809D01*
X195271Y342813D01*
X195258Y342967D01*
X195246Y343122D01*
X195245Y343126D01*
X195244Y343130D01*
X195234Y343166D01*
X195693Y344119D01*
X195716Y344187D01*
X195748Y344251D01*
X195766Y344337D01*
X195794Y344421D01*
X195799Y344492D01*
X195814Y344562D01*
X195810Y344650D01*
X195817Y344738D01*
X195804Y344808D01*
X195801Y344880D01*
X195776Y344964D01*
X195760Y345051D01*
X195730Y345116D01*
X195709Y345185D01*
X195664Y345260D01*
X195627Y345340D01*
X195582Y345395D01*
X195545Y345457D01*
X195482Y345518D01*
X195427Y345587D01*
X195369Y345629D01*
X195318Y345680D01*
X195184Y345769D01*
X164061Y363737D01*
X164343Y364031D01*
X164361Y364059D01*
X164394Y364093D01*
X166136Y366616D01*
X166147Y366643D01*
X166166Y366665D01*
X166186Y366734D01*
X166214Y366799D01*
X166214Y366828D01*
X166222Y366856D01*
X166214Y366927D01*
X166215Y366998D01*
X166203Y367025D01*
X166200Y367054D01*
X166165Y367116D01*
X166137Y367181D01*
X166117Y367202D01*
X166102Y367227D01*
X166025Y367290D01*
X165995Y367320D01*
X165985Y367324D01*
X165974Y367333D01*
X149474Y376833D01*
X149401Y376857D01*
X149331Y376888D01*
X149307Y376888D01*
X149285Y376896D01*
X149209Y376890D01*
X149132Y376891D01*
X149108Y376881D01*
X149087Y376880D01*
X149048Y376859D01*
X148976Y376833D01*
X132476Y367333D01*
X132454Y367314D01*
X132428Y367301D01*
X132380Y367248D01*
X132327Y367201D01*
X132314Y367175D01*
X132295Y367154D01*
X132272Y367086D01*
X132241Y367022D01*
X132240Y366993D01*
X132230Y366966D01*
X132235Y366894D01*
X132232Y366823D01*
X132242Y366796D01*
X132244Y366767D01*
X132286Y366677D01*
X132301Y366637D01*
X132308Y366629D01*
X132314Y366616D01*
X134056Y364093D01*
X134080Y364069D01*
X134107Y364031D01*
X134389Y363737D01*
X103266Y345769D01*
X103209Y345725D01*
X103147Y345690D01*
X103083Y345630D01*
X103013Y345576D01*
X102968Y345520D01*
X102916Y345471D01*
X102870Y345396D01*
X102815Y345327D01*
X102786Y345262D01*
X102748Y345201D01*
X102722Y345117D01*
X102686Y345037D01*
X102674Y344966D01*
X102652Y344898D01*
X102647Y344810D01*
X102633Y344723D01*
X102639Y344652D01*
X102635Y344580D01*
X102652Y344494D01*
X102659Y344406D01*
X102683Y344339D01*
X102696Y344268D01*
X102757Y344119D01*
X103221Y343155D01*
X103215Y343126D01*
X103182Y342974D01*
X103182Y342970D01*
X103182Y342966D01*
X103189Y342813D01*
X103195Y342656D01*
X103196Y342652D01*
X103196Y342648D01*
X103234Y342491D01*
X103489Y341663D01*
X103491Y341659D01*
X103492Y341655D01*
X103557Y341512D01*
X103620Y341373D01*
X103623Y341370D01*
X103624Y341366D01*
X103722Y341247D01*
X103819Y341125D01*
X103822Y341123D01*
X103825Y341119D01*
X103854Y341095D01*
X104020Y339988D01*
X104024Y339974D01*
X104025Y339959D01*
X104027Y339949D01*
X104027Y339946D01*
X104029Y339940D01*
X104062Y339803D01*
X104396Y338721D01*
X104385Y338691D01*
X104331Y338548D01*
X104330Y338544D01*
X104329Y338540D01*
X104313Y338385D01*
X104296Y338232D01*
X104296Y338227D01*
X104296Y338223D01*
X104310Y338063D01*
X104439Y337206D01*
X104440Y337202D01*
X104440Y337198D01*
X104483Y337047D01*
X104525Y336900D01*
X104527Y336896D01*
X104528Y336892D01*
X104607Y336758D01*
X104685Y336625D01*
X104688Y336622D01*
X104690Y336618D01*
X104714Y336590D01*
X104714Y335470D01*
X104716Y335456D01*
X104714Y335441D01*
X104728Y335281D01*
X104896Y334161D01*
X104881Y334134D01*
X104806Y334000D01*
X104805Y333996D01*
X104803Y333992D01*
X104764Y333839D01*
X104725Y333692D01*
X104725Y333688D01*
X104724Y333684D01*
X104713Y333524D01*
X104713Y332657D01*
X104714Y332653D01*
X104713Y332649D01*
X104734Y332494D01*
X104753Y332341D01*
X104754Y332338D01*
X104755Y332333D01*
X104813Y332188D01*
X104870Y332046D01*
X104872Y332042D01*
X104874Y332038D01*
X104894Y332007D01*
X104727Y330900D01*
X104726Y330885D01*
X104723Y330871D01*
X104712Y330710D01*
X104712Y329578D01*
X104694Y329554D01*
X104599Y329432D01*
X104597Y329428D01*
X104595Y329425D01*
X104533Y329281D01*
X104472Y329140D01*
X104472Y329136D01*
X104470Y329132D01*
X104436Y328975D01*
X104306Y328118D01*
X104306Y328114D01*
X104305Y328110D01*
X104302Y327949D01*
X104299Y327800D01*
X104300Y327796D01*
X104300Y327792D01*
X104335Y327641D01*
X104370Y327490D01*
X104372Y327486D01*
X104373Y327482D01*
X104388Y327448D01*
X104058Y326378D01*
X104055Y326364D01*
X104050Y326350D01*
X104016Y326193D01*
X103847Y325074D01*
X103826Y325053D01*
X103713Y324946D01*
X103711Y324942D01*
X103708Y324940D01*
X103627Y324808D01*
X103544Y324676D01*
X103543Y324672D01*
X103541Y324669D01*
X103484Y324518D01*
X103228Y323690D01*
X103227Y323686D01*
X103226Y323682D01*
X103200Y323531D01*
X103173Y323377D01*
X103173Y323373D01*
X103173Y323369D01*
X103185Y323215D01*
X103197Y323060D01*
X103199Y323056D01*
X103199Y323052D01*
X103209Y323016D01*
X102723Y322007D01*
X102718Y321993D01*
X102711Y321981D01*
X102654Y321830D01*
X102319Y320748D01*
X102293Y320730D01*
X102168Y320642D01*
X102166Y320639D01*
X102162Y320637D01*
X102059Y320515D01*
X101961Y320400D01*
X101960Y320397D01*
X101957Y320394D01*
X101878Y320253D01*
X101501Y319472D01*
X101500Y319469D01*
X101498Y319465D01*
X101449Y319315D01*
X101400Y319171D01*
X101400Y319167D01*
X101399Y319163D01*
X101389Y319008D01*
X101377Y318854D01*
X101378Y318850D01*
X101378Y318846D01*
X101382Y318808D01*
X100751Y317883D01*
X100745Y317870D01*
X100735Y317859D01*
X100656Y317719D01*
X100165Y316699D01*
X100136Y316685D01*
X99999Y316616D01*
X99996Y316614D01*
X99992Y316612D01*
X99874Y316508D01*
X99759Y316408D01*
X99756Y316405D01*
X99753Y316402D01*
X99654Y316275D01*
X99166Y315559D01*
X99164Y315556D01*
X99161Y315553D01*
X99090Y315411D01*
X99021Y315276D01*
X99020Y315272D01*
X99018Y315269D01*
X98985Y315116D01*
X98951Y314966D01*
X98951Y314962D01*
X98950Y314958D01*
X98949Y314920D01*
X98187Y314100D01*
X98179Y314088D01*
X98168Y314078D01*
X98069Y313951D01*
X97431Y313016D01*
X97402Y313007D01*
X97255Y312959D01*
X97251Y312957D01*
X97247Y312956D01*
X97117Y312872D01*
X96986Y312789D01*
X96983Y312786D01*
X96980Y312784D01*
X96863Y312673D01*
X96273Y312038D01*
X96271Y312035D01*
X96267Y312032D01*
X96177Y311905D01*
X96087Y311780D01*
X96086Y311776D01*
X96084Y311772D01*
X96029Y311630D01*
X95972Y311483D01*
X95971Y311479D01*
X95970Y311475D01*
X95963Y311439D01*
X95088Y310741D01*
X95078Y310730D01*
X95065Y310722D01*
X94987Y310648D01*
X94985Y310647D01*
X94984Y310645D01*
X94949Y310612D01*
X94178Y309782D01*
X94146Y309776D01*
X93996Y309752D01*
X93992Y309750D01*
X93988Y309749D01*
X93846Y309686D01*
X93704Y309624D01*
X93701Y309621D01*
X93697Y309620D01*
X93565Y309527D01*
X92887Y308987D01*
X92885Y308984D01*
X92881Y308982D01*
X92775Y308871D01*
X92666Y308759D01*
X92663Y308756D01*
X92661Y308753D01*
X92585Y308619D01*
X92507Y308484D01*
X92506Y308480D01*
X92504Y308476D01*
X92492Y308440D01*
X91522Y307881D01*
X91511Y307872D01*
X91497Y307866D01*
X91365Y307774D01*
X90480Y307068D01*
X90448Y307068D01*
X90295Y307066D01*
X90291Y307065D01*
X90287Y307065D01*
X90135Y307023D01*
X89988Y306983D01*
X89984Y306981D01*
X89980Y306980D01*
X89836Y306908D01*
X89085Y306475D01*
X89082Y306472D01*
X89078Y306471D01*
X88957Y306378D01*
X88832Y306283D01*
X88829Y306279D01*
X88826Y306277D01*
X88732Y306157D01*
X88634Y306034D01*
X88632Y306030D01*
X88630Y306027D01*
X88613Y305993D01*
X87570Y305585D01*
X87557Y305578D01*
X87543Y305574D01*
X87399Y305502D01*
X86419Y304937D01*
X86391Y304940D01*
X86235Y304962D01*
X86231Y304961D01*
X86227Y304962D01*
X86073Y304943D01*
X85919Y304925D01*
X85915Y304924D01*
X85911Y304923D01*
X85758Y304874D01*
X84951Y304558D01*
X84947Y304556D01*
X84943Y304555D01*
X84871Y304515D01*
X84803Y304487D01*
X84743Y304444D01*
X84672Y304405D01*
X84669Y304402D01*
X84665Y304400D01*
X84606Y304345D01*
X84545Y304301D01*
X84497Y304242D01*
X84439Y304188D01*
X84437Y304185D01*
X84434Y304182D01*
X84345Y304059D01*
X84342Y304056D01*
X84342Y304054D01*
X84340Y304051D01*
X84306Y303998D01*
X84283Y303983D01*
X84267Y303966D01*
X84248Y303953D01*
X84159Y303851D01*
X84065Y303752D01*
X84054Y303731D01*
X84039Y303714D01*
X83977Y303593D01*
X83911Y303473D01*
X83906Y303451D01*
X83895Y303430D01*
X83866Y303297D01*
X83832Y303165D01*
X83830Y303133D01*
X83827Y303120D01*
X83828Y303098D01*
X83822Y303005D01*
X83822Y275310D01*
X83823Y275301D01*
X83822Y275292D01*
X83843Y275143D01*
X83862Y274995D01*
X83865Y274986D01*
X83866Y274977D01*
X83918Y274825D01*
X84618Y273135D01*
X84618Y270417D01*
X83578Y267907D01*
X81657Y265985D01*
X79146Y264946D01*
X76429Y264946D01*
X73918Y265985D01*
X73369Y266535D01*
X73275Y266608D01*
X73185Y266687D01*
X73149Y266705D01*
X73118Y266730D01*
X73008Y266777D01*
X72902Y266831D01*
X72863Y266840D01*
X72826Y266856D01*
X72708Y266875D01*
X72592Y266901D01*
X72552Y266900D01*
X72512Y266906D01*
X72393Y266895D01*
X72274Y266891D01*
X72235Y266880D01*
X72195Y266876D01*
X72083Y266836D01*
X71969Y266803D01*
X71934Y266782D01*
X71896Y266769D01*
X71797Y266702D01*
X71695Y266641D01*
X71649Y266601D01*
X71633Y266590D01*
X71619Y266575D01*
X71574Y266535D01*
X71024Y265985D01*
X68514Y264946D01*
X65796Y264946D01*
X63286Y265985D01*
X61364Y267907D01*
X60324Y270417D01*
X60324Y273135D01*
X60962Y274674D01*
X60964Y274683D01*
X60969Y274691D01*
X61006Y274836D01*
X61046Y274980D01*
X61046Y274990D01*
X61048Y274999D01*
X61058Y275159D01*
X61058Y282152D01*
X61046Y282250D01*
X61043Y282349D01*
X61026Y282407D01*
X61018Y282467D01*
X60982Y282559D01*
X60954Y282655D01*
X60924Y282707D01*
X60901Y282763D01*
X60843Y282843D01*
X60793Y282928D01*
X60727Y283004D01*
X60715Y283020D01*
X60705Y283028D01*
X60687Y283049D01*
X43183Y300553D01*
X42255Y302793D01*
X42255Y303071D01*
X42254Y303081D01*
X42255Y303090D01*
X42234Y303239D01*
X42215Y303387D01*
X42212Y303396D01*
X42210Y303405D01*
X42158Y303557D01*
X41521Y305096D01*
X41521Y307923D01*
X41504Y308054D01*
X41493Y308186D01*
X41484Y308212D01*
X41481Y308238D01*
X41432Y308361D01*
X41389Y308486D01*
X41374Y308509D01*
X41364Y308534D01*
X41286Y308641D01*
X41213Y308751D01*
X41193Y308770D01*
X41177Y308791D01*
X41075Y308876D01*
X40977Y308964D01*
X40953Y308977D01*
X40932Y308994D01*
X40813Y309051D01*
X40695Y309112D01*
X40669Y309118D01*
X40645Y309130D01*
X40515Y309155D01*
X40386Y309185D01*
X40359Y309184D01*
X40332Y309190D01*
X40200Y309181D01*
X40068Y309179D01*
X40042Y309171D01*
X40015Y309170D01*
X39889Y309129D01*
X39761Y309094D01*
X39727Y309076D01*
X39712Y309072D01*
X39694Y309060D01*
X39617Y309022D01*
X17613Y296319D01*
X17501Y296708D01*
X17485Y296738D01*
X17472Y296783D01*
X16158Y299553D01*
X16140Y299577D01*
X16130Y299604D01*
X16081Y299656D01*
X16038Y299713D01*
X16013Y299727D01*
X15993Y299748D01*
X15928Y299777D01*
X15866Y299812D01*
X15838Y299816D01*
X15811Y299828D01*
X15740Y299828D01*
X15669Y299837D01*
X15641Y299829D01*
X15612Y299830D01*
X15519Y299795D01*
X15478Y299783D01*
X15469Y299776D01*
X15457Y299771D01*
X-1021Y290232D01*
X-1078Y290181D01*
X-1140Y290136D01*
X-1152Y290116D01*
X-1170Y290100D01*
X-1203Y290031D01*
X-1242Y289965D01*
X-1246Y289939D01*
X-1255Y289921D01*
X-1257Y289876D01*
X-1270Y289801D01*
X-1293Y270761D01*
X-1287Y270733D01*
X-1289Y270704D01*
X-1267Y270636D01*
X-1253Y270566D01*
X-1237Y270542D01*
X-1228Y270515D01*
X-1181Y270461D01*
X-1141Y270402D01*
X-1117Y270387D01*
X-1098Y270365D01*
X-1033Y270333D01*
X-973Y270295D01*
X-945Y270290D01*
X-919Y270277D01*
X-819Y270269D01*
X-777Y270262D01*
X-767Y270264D01*
X-753Y270263D01*
X2303Y270510D01*
X2336Y270519D01*
X2382Y270523D01*
X2774Y270619D01*
X2774Y234670D01*
X2783Y234599D01*
X2782Y234527D01*
X2803Y234442D01*
X2814Y234355D01*
X2840Y234288D01*
X2857Y234218D01*
X2898Y234141D01*
X2931Y234059D01*
X2973Y234001D01*
X3007Y233938D01*
X3066Y233873D01*
X3117Y233802D01*
X3173Y233756D01*
X3221Y233703D01*
X3295Y233655D01*
X3362Y233599D01*
X3427Y233568D01*
X3488Y233529D01*
X3571Y233501D01*
X3650Y233464D01*
X3721Y233450D01*
X3789Y233427D01*
X3948Y233405D01*
X5003Y233326D01*
X5027Y233305D01*
X5141Y233202D01*
X5144Y233200D01*
X5148Y233197D01*
X5286Y233126D01*
X5422Y233054D01*
X5426Y233053D01*
X5430Y233051D01*
X5584Y233005D01*
X6427Y232813D01*
X6431Y232813D01*
X6435Y232811D01*
X6591Y232797D01*
X6744Y232782D01*
X6748Y232782D01*
X6752Y232782D01*
X6908Y232807D01*
X7058Y232830D01*
X7062Y232832D01*
X7066Y232832D01*
X7101Y232845D01*
X8144Y232436D01*
X8158Y232432D01*
X8171Y232426D01*
X8325Y232380D01*
X9429Y232128D01*
X9449Y232103D01*
X9546Y231985D01*
X9550Y231983D01*
X9552Y231979D01*
X9678Y231888D01*
X9803Y231797D01*
X9807Y231795D01*
X9810Y231793D01*
X9956Y231725D01*
X10761Y231409D01*
X10764Y231408D01*
X10768Y231406D01*
X10920Y231368D01*
X11069Y231331D01*
X11073Y231331D01*
X11077Y231330D01*
X11232Y231331D01*
X11387Y231332D01*
X11391Y231333D01*
X11395Y231333D01*
X11432Y231340D01*
X12402Y230780D01*
X12415Y230774D01*
X12427Y230766D01*
X12573Y230698D01*
X13626Y230284D01*
X13642Y230257D01*
X13721Y230125D01*
X13724Y230122D01*
X13726Y230119D01*
X13839Y230008D01*
X13947Y229901D01*
X13950Y229899D01*
X13953Y229896D01*
X14087Y229807D01*
X14836Y229374D01*
X14840Y229373D01*
X14843Y229370D01*
X14986Y229311D01*
X15129Y229251D01*
X15133Y229251D01*
X15137Y229249D01*
X15290Y229227D01*
X15444Y229205D01*
X15448Y229205D01*
X15452Y229205D01*
X15489Y229206D01*
X16365Y228508D01*
X16377Y228500D01*
X16388Y228490D01*
X16522Y228401D01*
X17502Y227835D01*
X17514Y227806D01*
X17572Y227664D01*
X17575Y227661D01*
X17576Y227657D01*
X17671Y227531D01*
X17762Y227408D01*
X17765Y227406D01*
X17768Y227403D01*
X17887Y227294D01*
X18563Y226755D01*
X18566Y226753D01*
X18569Y226750D01*
X18702Y226671D01*
X18834Y226590D01*
X18838Y226589D01*
X18842Y226587D01*
X18991Y226542D01*
X19138Y226497D01*
X19142Y226497D01*
X19146Y226496D01*
X19184Y226492D01*
X19945Y225671D01*
X19956Y225662D01*
X19965Y225650D01*
X20085Y225542D01*
X20970Y224836D01*
X20977Y224806D01*
X21013Y224656D01*
X21015Y224652D01*
X21016Y224649D01*
X21089Y224513D01*
X21163Y224375D01*
X21166Y224372D01*
X21168Y224369D01*
X21269Y224244D01*
X21857Y223610D01*
X21861Y223608D01*
X21863Y223604D01*
X21983Y223505D01*
X22101Y223406D01*
X22105Y223404D01*
X22108Y223402D01*
X22250Y223335D01*
X22388Y223269D01*
X22392Y223268D01*
X22396Y223266D01*
X22432Y223257D01*
X23063Y222332D01*
X23073Y222321D01*
X23080Y222308D01*
X23181Y222183D01*
X23951Y221353D01*
X23954Y221322D01*
X23968Y221169D01*
X23969Y221165D01*
X23970Y221161D01*
X24023Y221014D01*
X24074Y220869D01*
X24076Y220866D01*
X24078Y220862D01*
X24160Y220723D01*
X24647Y220009D01*
X24649Y220006D01*
X24651Y220002D01*
X24756Y219885D01*
X24857Y219771D01*
X24861Y219768D01*
X24863Y219765D01*
X24993Y219679D01*
X25121Y219592D01*
X25125Y219591D01*
X25128Y219589D01*
X25162Y219574D01*
X25648Y218565D01*
X25656Y218553D01*
X25661Y218539D01*
X25743Y218401D01*
X26381Y217465D01*
X26379Y217429D01*
X26370Y217281D01*
X26371Y217277D01*
X26370Y217272D01*
X26401Y217120D01*
X26430Y216968D01*
X26432Y216964D01*
X26432Y216960D01*
X26493Y216811D01*
X26868Y216032D01*
X26870Y216029D01*
X26872Y216025D01*
X26957Y215895D01*
X27041Y215765D01*
X27044Y215763D01*
X27046Y215759D01*
X27163Y215653D01*
X27275Y215550D01*
X27278Y215548D01*
X27281Y215545D01*
X27313Y215525D01*
X27643Y214455D01*
X27649Y214442D01*
X27652Y214428D01*
X27713Y214279D01*
X28204Y213259D01*
X28197Y213228D01*
X28165Y213078D01*
X28165Y213074D01*
X28165Y213069D01*
X28172Y212914D01*
X28178Y212760D01*
X28179Y212756D01*
X28179Y212752D01*
X28217Y212595D01*
X28472Y211769D01*
X28474Y211765D01*
X28474Y211761D01*
X28539Y211620D01*
X28603Y211479D01*
X28605Y211476D01*
X28607Y211472D01*
X28706Y211351D01*
X28802Y211231D01*
X28805Y211229D01*
X28808Y211226D01*
X28836Y211201D01*
X28991Y210179D01*
X28997Y210155D01*
X28999Y210131D01*
X29040Y210003D01*
X29077Y209873D01*
X29089Y209852D01*
X29097Y209829D01*
X29169Y209714D01*
X29237Y209598D01*
X29254Y209581D01*
X29267Y209560D01*
X29365Y209467D01*
X29460Y209371D01*
X29481Y209359D01*
X29499Y209342D01*
X29617Y209277D01*
X29732Y209207D01*
X29756Y209200D01*
X29777Y209188D01*
X29907Y209155D01*
X30037Y209116D01*
X30061Y209115D01*
X30085Y209109D01*
X30246Y209099D01*
X43625Y209099D01*
X43743Y209114D01*
G37*
G36*
X140914Y82230D02*
X140914Y82230D01*
X140983Y82229D01*
X141071Y82250D01*
X141160Y82262D01*
X141225Y82287D01*
X141293Y82304D01*
X141372Y82346D01*
X141456Y82379D01*
X141512Y82420D01*
X141574Y82452D01*
X141640Y82513D01*
X141713Y82565D01*
X141758Y82619D01*
X141809Y82666D01*
X141858Y82741D01*
X141916Y82810D01*
X141946Y82874D01*
X141984Y82932D01*
X142013Y83017D01*
X142051Y83098D01*
X142064Y83167D01*
X142087Y83233D01*
X142094Y83322D01*
X142111Y83410D01*
X142107Y83480D01*
X142112Y83550D01*
X142097Y83638D01*
X142091Y83728D01*
X142070Y83794D01*
X142058Y83863D01*
X142021Y83945D01*
X141993Y84030D01*
X141956Y84089D01*
X141927Y84153D01*
X141871Y84223D01*
X141823Y84299D01*
X141772Y84347D01*
X141729Y84401D01*
X141657Y84456D01*
X141592Y84517D01*
X141530Y84551D01*
X141475Y84593D01*
X141330Y84664D01*
X140407Y85046D01*
X138846Y86607D01*
X138001Y88646D01*
X138001Y90401D01*
X137995Y90450D01*
X137997Y90500D01*
X137975Y90608D01*
X137961Y90717D01*
X137943Y90763D01*
X137933Y90811D01*
X137885Y90910D01*
X137844Y91012D01*
X137815Y91052D01*
X137793Y91097D01*
X137722Y91181D01*
X137658Y91270D01*
X137619Y91301D01*
X137587Y91339D01*
X137497Y91402D01*
X137413Y91472D01*
X137368Y91494D01*
X137327Y91522D01*
X137224Y91561D01*
X137125Y91608D01*
X137076Y91617D01*
X137030Y91635D01*
X136920Y91647D01*
X136813Y91668D01*
X136763Y91665D01*
X136713Y91670D01*
X136605Y91655D01*
X136495Y91648D01*
X136448Y91633D01*
X136399Y91626D01*
X136307Y91594D01*
X133579Y91594D01*
X131068Y92634D01*
X129147Y94556D01*
X128107Y97066D01*
X128107Y99784D01*
X128653Y101103D01*
X128661Y101132D01*
X128674Y101158D01*
X128703Y101284D01*
X128737Y101410D01*
X128738Y101439D01*
X128744Y101468D01*
X128740Y101598D01*
X128742Y101728D01*
X128735Y101757D01*
X128734Y101786D01*
X128698Y101911D01*
X128668Y102037D01*
X128654Y102063D01*
X128646Y102092D01*
X128580Y102203D01*
X128519Y102318D01*
X128500Y102340D01*
X128485Y102365D01*
X128378Y102486D01*
X119252Y111612D01*
X119252Y122955D01*
X119240Y123053D01*
X119237Y123152D01*
X119220Y123211D01*
X119212Y123271D01*
X119176Y123363D01*
X119148Y123458D01*
X119118Y123510D01*
X119095Y123566D01*
X119037Y123646D01*
X118987Y123732D01*
X118921Y123807D01*
X118909Y123824D01*
X118899Y123832D01*
X118881Y123853D01*
X102546Y140187D01*
X102546Y153059D01*
X102529Y153196D01*
X102516Y153335D01*
X102509Y153354D01*
X102506Y153374D01*
X102455Y153503D01*
X102408Y153634D01*
X102397Y153651D01*
X102389Y153670D01*
X102307Y153782D01*
X102229Y153898D01*
X102214Y153911D01*
X102202Y153927D01*
X102095Y154016D01*
X101991Y154108D01*
X101973Y154117D01*
X101957Y154130D01*
X101832Y154189D01*
X101708Y154253D01*
X101688Y154257D01*
X101670Y154266D01*
X101533Y154292D01*
X101397Y154322D01*
X101377Y154322D01*
X101357Y154325D01*
X101219Y154317D01*
X101080Y154313D01*
X101060Y154307D01*
X101040Y154306D01*
X100908Y154263D01*
X100774Y154224D01*
X100757Y154214D01*
X100737Y154208D01*
X100620Y154133D01*
X100500Y154063D01*
X100479Y154044D01*
X100469Y154037D01*
X100455Y154022D01*
X100379Y153956D01*
X99013Y152590D01*
X97688Y152590D01*
X97590Y152577D01*
X97491Y152574D01*
X97433Y152558D01*
X97373Y152550D01*
X97281Y152514D01*
X97185Y152486D01*
X97133Y152455D01*
X97077Y152433D01*
X96997Y152375D01*
X96911Y152324D01*
X96836Y152258D01*
X96820Y152246D01*
X96812Y152237D01*
X96791Y152218D01*
X95944Y151372D01*
X93434Y150332D01*
X92237Y150332D01*
X92139Y150319D01*
X92040Y150316D01*
X91981Y150300D01*
X91921Y150292D01*
X91829Y150255D01*
X91734Y150228D01*
X91682Y150197D01*
X91626Y150175D01*
X91545Y150117D01*
X91460Y150066D01*
X91385Y150000D01*
X91368Y149988D01*
X91360Y149979D01*
X91339Y149960D01*
X87733Y146354D01*
X87672Y146275D01*
X87604Y146203D01*
X87575Y146150D01*
X87538Y146102D01*
X87499Y146011D01*
X87451Y145925D01*
X87436Y145866D01*
X87412Y145811D01*
X87396Y145713D01*
X87371Y145617D01*
X87365Y145517D01*
X87362Y145496D01*
X87363Y145484D01*
X87361Y145456D01*
X87361Y137406D01*
X87061Y137106D01*
X86988Y137012D01*
X86909Y136923D01*
X86891Y136887D01*
X86866Y136855D01*
X86819Y136745D01*
X86765Y136639D01*
X86756Y136600D01*
X86740Y136563D01*
X86721Y136445D01*
X86695Y136329D01*
X86696Y136289D01*
X86690Y136249D01*
X86701Y136130D01*
X86705Y136011D01*
X86716Y135972D01*
X86720Y135932D01*
X86760Y135820D01*
X86793Y135706D01*
X86814Y135671D01*
X86827Y135633D01*
X86894Y135534D01*
X86955Y135432D01*
X86995Y135387D01*
X87006Y135370D01*
X87021Y135356D01*
X87061Y135311D01*
X88420Y133952D01*
X88499Y133891D01*
X88571Y133823D01*
X88624Y133794D01*
X88672Y133757D01*
X88763Y133717D01*
X88849Y133670D01*
X88908Y133655D01*
X88964Y133630D01*
X89061Y133615D01*
X89157Y133590D01*
X89257Y133584D01*
X89278Y133581D01*
X89290Y133582D01*
X89318Y133580D01*
X95894Y133580D01*
X97680Y131794D01*
X97680Y118491D01*
X97695Y118373D01*
X97702Y118254D01*
X97715Y118216D01*
X97720Y118175D01*
X97764Y118065D01*
X97800Y117952D01*
X97822Y117917D01*
X97837Y117880D01*
X97907Y117784D01*
X97970Y117683D01*
X98000Y117655D01*
X98024Y117622D01*
X98115Y117546D01*
X98202Y117465D01*
X98238Y117445D01*
X98269Y117420D01*
X98376Y117369D01*
X98481Y117311D01*
X98520Y117301D01*
X98556Y117284D01*
X98673Y117262D01*
X98789Y117232D01*
X98849Y117228D01*
X98869Y117224D01*
X98889Y117226D01*
X98949Y117222D01*
X99638Y117222D01*
X101879Y116294D01*
X103772Y114400D01*
X104312Y113860D01*
X104320Y113854D01*
X104326Y113847D01*
X104445Y113757D01*
X104564Y113665D01*
X104572Y113661D01*
X104580Y113655D01*
X104724Y113584D01*
X106263Y112947D01*
X108185Y111026D01*
X109224Y108515D01*
X109224Y105797D01*
X108185Y103287D01*
X106263Y101365D01*
X103753Y100326D01*
X101035Y100326D01*
X98524Y101365D01*
X96603Y103287D01*
X96206Y104245D01*
X96192Y104270D01*
X96182Y104298D01*
X96113Y104408D01*
X96049Y104521D01*
X96028Y104542D01*
X96012Y104567D01*
X95918Y104656D01*
X95827Y104749D01*
X95802Y104765D01*
X95781Y104785D01*
X95667Y104848D01*
X95556Y104916D01*
X95528Y104924D01*
X95502Y104939D01*
X95376Y104971D01*
X95252Y105009D01*
X95223Y105011D01*
X95194Y105018D01*
X95034Y105028D01*
X92450Y105028D01*
X90209Y105956D01*
X84856Y111309D01*
X84055Y112111D01*
X83977Y112171D01*
X83904Y112239D01*
X83851Y112269D01*
X83803Y112306D01*
X83712Y112345D01*
X83626Y112393D01*
X83567Y112408D01*
X83512Y112432D01*
X83414Y112448D01*
X83318Y112472D01*
X83218Y112479D01*
X83197Y112482D01*
X83185Y112481D01*
X83157Y112483D01*
X80368Y112483D01*
X78583Y114268D01*
X78583Y116459D01*
X78568Y116577D01*
X78560Y116696D01*
X78548Y116734D01*
X78543Y116775D01*
X78499Y116885D01*
X78462Y116998D01*
X78441Y117033D01*
X78426Y117070D01*
X78356Y117166D01*
X78292Y117267D01*
X78263Y117295D01*
X78239Y117328D01*
X78147Y117404D01*
X78060Y117485D01*
X78025Y117505D01*
X77994Y117530D01*
X77886Y117581D01*
X77782Y117639D01*
X77743Y117649D01*
X77706Y117666D01*
X77589Y117688D01*
X77474Y117718D01*
X77414Y117722D01*
X77394Y117726D01*
X77373Y117724D01*
X77313Y117728D01*
X73233Y117728D01*
X73224Y117727D01*
X73215Y117728D01*
X73066Y117707D01*
X72918Y117688D01*
X72909Y117685D01*
X72900Y117684D01*
X72747Y117632D01*
X71209Y116994D01*
X68491Y116994D01*
X65981Y118034D01*
X64059Y119956D01*
X63019Y122466D01*
X63019Y125184D01*
X64059Y127694D01*
X65981Y129616D01*
X68491Y130656D01*
X71209Y130656D01*
X71731Y130439D01*
X71866Y130402D01*
X71998Y130362D01*
X72019Y130361D01*
X72038Y130355D01*
X72178Y130353D01*
X72316Y130346D01*
X72336Y130351D01*
X72356Y130350D01*
X72491Y130383D01*
X72628Y130411D01*
X72646Y130420D01*
X72665Y130424D01*
X72788Y130489D01*
X72913Y130550D01*
X72929Y130564D01*
X72946Y130573D01*
X73049Y130667D01*
X73155Y130757D01*
X73167Y130773D01*
X73182Y130787D01*
X73258Y130903D01*
X73338Y131017D01*
X73345Y131036D01*
X73357Y131053D01*
X73402Y131184D01*
X73451Y131314D01*
X73453Y131334D01*
X73460Y131353D01*
X73471Y131492D01*
X73486Y131630D01*
X73483Y131650D01*
X73485Y131670D01*
X73461Y131807D01*
X73442Y131945D01*
X73433Y131972D01*
X73431Y131984D01*
X73422Y132002D01*
X73390Y132098D01*
X72716Y133725D01*
X72716Y134428D01*
X72703Y134526D01*
X72700Y134625D01*
X72684Y134684D01*
X72676Y134744D01*
X72639Y134836D01*
X72612Y134931D01*
X72581Y134983D01*
X72559Y135039D01*
X72501Y135120D01*
X72450Y135205D01*
X72384Y135280D01*
X72372Y135297D01*
X72363Y135305D01*
X72344Y135326D01*
X70264Y137406D01*
X70264Y145828D01*
X70249Y145946D01*
X70241Y146065D01*
X70229Y146103D01*
X70224Y146143D01*
X70180Y146254D01*
X70143Y146367D01*
X70122Y146401D01*
X70107Y146439D01*
X70037Y146535D01*
X69973Y146636D01*
X69944Y146664D01*
X69920Y146696D01*
X69828Y146772D01*
X69742Y146854D01*
X69706Y146873D01*
X69675Y146899D01*
X69567Y146950D01*
X69463Y147007D01*
X69424Y147017D01*
X69387Y147035D01*
X69271Y147057D01*
X69155Y147087D01*
X69095Y147091D01*
X69075Y147094D01*
X69055Y147093D01*
X68995Y147097D01*
X68220Y147097D01*
X68122Y147085D01*
X68023Y147082D01*
X67964Y147065D01*
X67904Y147057D01*
X67812Y147021D01*
X67717Y146993D01*
X67665Y146962D01*
X67609Y146940D01*
X67529Y146882D01*
X67443Y146832D01*
X67368Y146765D01*
X67351Y146753D01*
X67343Y146744D01*
X67322Y146725D01*
X66587Y145990D01*
X64548Y145145D01*
X51340Y145145D01*
X49301Y145990D01*
X47740Y147551D01*
X46895Y149590D01*
X46895Y156798D01*
X47740Y158837D01*
X49041Y160139D01*
X49127Y160248D01*
X49215Y160355D01*
X49224Y160374D01*
X49236Y160390D01*
X49292Y160517D01*
X49351Y160643D01*
X49355Y160663D01*
X49363Y160682D01*
X49385Y160820D01*
X49411Y160956D01*
X49409Y160976D01*
X49413Y160996D01*
X49400Y161135D01*
X49391Y161273D01*
X49385Y161292D01*
X49383Y161312D01*
X49336Y161444D01*
X49293Y161575D01*
X49282Y161593D01*
X49275Y161612D01*
X49197Y161727D01*
X49123Y161844D01*
X49108Y161858D01*
X49097Y161875D01*
X48992Y161967D01*
X48891Y162062D01*
X48873Y162072D01*
X48858Y162085D01*
X48734Y162149D01*
X48613Y162216D01*
X48593Y162221D01*
X48575Y162230D01*
X48439Y162260D01*
X48305Y162295D01*
X48277Y162297D01*
X48265Y162300D01*
X48244Y162299D01*
X48144Y162305D01*
X15329Y162305D01*
X15230Y162293D01*
X15131Y162290D01*
X15073Y162273D01*
X15013Y162265D01*
X14921Y162229D01*
X14826Y162201D01*
X14774Y162171D01*
X14717Y162148D01*
X14637Y162090D01*
X14552Y162040D01*
X14477Y161974D01*
X14460Y161962D01*
X14452Y161952D01*
X14431Y161934D01*
X13394Y160897D01*
X10884Y159857D01*
X8166Y159857D01*
X5656Y160897D01*
X4940Y161612D01*
X4831Y161697D01*
X4724Y161786D01*
X4705Y161794D01*
X4689Y161807D01*
X4561Y161862D01*
X4436Y161921D01*
X4416Y161925D01*
X4397Y161933D01*
X4259Y161955D01*
X4123Y161981D01*
X4103Y161980D01*
X4083Y161983D01*
X3944Y161970D01*
X3806Y161961D01*
X3787Y161955D01*
X3767Y161953D01*
X3636Y161906D01*
X3504Y161863D01*
X3486Y161853D01*
X3467Y161846D01*
X3353Y161768D01*
X3235Y161693D01*
X3221Y161678D01*
X3204Y161667D01*
X3112Y161563D01*
X3017Y161462D01*
X3007Y161444D01*
X2994Y161429D01*
X2931Y161305D01*
X2863Y161183D01*
X2858Y161163D01*
X2849Y161145D01*
X2819Y161010D01*
X2784Y160875D01*
X2782Y160847D01*
X2779Y160835D01*
X2780Y160815D01*
X2774Y160714D01*
X2774Y135781D01*
X2382Y135877D01*
X2348Y135879D01*
X2303Y135890D01*
X-753Y136137D01*
X-782Y136134D01*
X-810Y136138D01*
X-880Y136122D01*
X-951Y136113D01*
X-976Y136099D01*
X-1004Y136092D01*
X-1061Y136050D01*
X-1123Y136014D01*
X-1141Y135991D01*
X-1164Y135974D01*
X-1200Y135913D01*
X-1243Y135856D01*
X-1250Y135828D01*
X-1265Y135803D01*
X-1282Y135704D01*
X-1292Y135663D01*
X-1290Y135652D01*
X-1293Y135639D01*
X-1270Y116599D01*
X-1254Y116524D01*
X-1246Y116448D01*
X-1235Y116427D01*
X-1230Y116405D01*
X-1186Y116341D01*
X-1149Y116274D01*
X-1129Y116258D01*
X-1117Y116241D01*
X-1080Y116217D01*
X-1021Y116168D01*
X15457Y106629D01*
X15484Y106619D01*
X15508Y106603D01*
X15577Y106588D01*
X15645Y106565D01*
X15674Y106567D01*
X15702Y106561D01*
X15772Y106575D01*
X15843Y106580D01*
X15869Y106594D01*
X15897Y106599D01*
X15957Y106639D01*
X16020Y106672D01*
X16038Y106694D01*
X16062Y106710D01*
X16120Y106792D01*
X16147Y106825D01*
X16150Y106835D01*
X16158Y106847D01*
X17472Y109617D01*
X17480Y109650D01*
X17501Y109692D01*
X17613Y110081D01*
X48731Y92116D01*
X48798Y92088D01*
X48860Y92051D01*
X48944Y92027D01*
X49024Y91993D01*
X49096Y91982D01*
X49165Y91962D01*
X49252Y91959D01*
X49339Y91946D01*
X49411Y91954D01*
X49483Y91951D01*
X49568Y91970D01*
X49655Y91979D01*
X49723Y92005D01*
X49793Y92020D01*
X49871Y92060D01*
X49953Y92090D01*
X50013Y92131D01*
X50077Y92164D01*
X50143Y92222D01*
X50215Y92272D01*
X50262Y92326D01*
X50316Y92374D01*
X50415Y92501D01*
X51006Y93369D01*
X51037Y93379D01*
X51182Y93426D01*
X51186Y93428D01*
X51190Y93430D01*
X51321Y93514D01*
X51451Y93596D01*
X51454Y93599D01*
X51457Y93601D01*
X51574Y93712D01*
X52164Y94348D01*
X52166Y94351D01*
X52169Y94354D01*
X52258Y94479D01*
X52263Y94487D01*
X52305Y94537D01*
X52316Y94560D01*
X52349Y94606D01*
X52350Y94610D01*
X52353Y94614D01*
X52403Y94746D01*
X52441Y94825D01*
X52447Y94859D01*
X52464Y94903D01*
X52465Y94907D01*
X52466Y94911D01*
X52473Y94948D01*
X53348Y95646D01*
X53358Y95657D01*
X53370Y95664D01*
X53487Y95775D01*
X54257Y96605D01*
X54287Y96611D01*
X54439Y96636D01*
X54443Y96637D01*
X54447Y96638D01*
X54590Y96702D01*
X54731Y96764D01*
X54734Y96766D01*
X54738Y96768D01*
X54870Y96860D01*
X55547Y97401D01*
X55550Y97404D01*
X55553Y97406D01*
X55660Y97517D01*
X55769Y97629D01*
X55771Y97632D01*
X55774Y97635D01*
X55850Y97770D01*
X55927Y97905D01*
X55928Y97909D01*
X55930Y97912D01*
X55942Y97948D01*
X56912Y98508D01*
X56923Y98517D01*
X56937Y98523D01*
X57068Y98615D01*
X57953Y99321D01*
X57983Y99322D01*
X58138Y99324D01*
X58142Y99325D01*
X58147Y99325D01*
X58296Y99367D01*
X58445Y99407D01*
X58449Y99409D01*
X58453Y99410D01*
X58597Y99482D01*
X59348Y99915D01*
X59351Y99918D01*
X59355Y99920D01*
X59476Y100013D01*
X59601Y100108D01*
X59604Y100111D01*
X59607Y100114D01*
X59701Y100234D01*
X59799Y100357D01*
X59800Y100361D01*
X59803Y100364D01*
X59820Y100397D01*
X60862Y100807D01*
X60875Y100814D01*
X60889Y100818D01*
X61033Y100889D01*
X62013Y101456D01*
X62043Y101452D01*
X62197Y101431D01*
X62201Y101431D01*
X62205Y101431D01*
X62358Y101449D01*
X62513Y101467D01*
X62517Y101469D01*
X62521Y101469D01*
X62674Y101519D01*
X63481Y101836D01*
X63484Y101838D01*
X63488Y101839D01*
X63625Y101914D01*
X63760Y101988D01*
X63763Y101991D01*
X63766Y101993D01*
X63881Y102101D01*
X63992Y102205D01*
X63994Y102208D01*
X63998Y102211D01*
X64019Y102242D01*
X65111Y102491D01*
X65125Y102496D01*
X65139Y102498D01*
X65292Y102547D01*
X66346Y102961D01*
X66374Y102953D01*
X66524Y102909D01*
X66528Y102909D01*
X66532Y102908D01*
X66686Y102904D01*
X66842Y102898D01*
X66846Y102899D01*
X66850Y102899D01*
X67009Y102925D01*
X67854Y103118D01*
X67858Y103120D01*
X67862Y103120D01*
X68005Y103173D01*
X68152Y103227D01*
X68156Y103230D01*
X68160Y103231D01*
X68286Y103319D01*
X68415Y103407D01*
X68417Y103410D01*
X68421Y103413D01*
X68447Y103440D01*
X69564Y103524D01*
X69578Y103526D01*
X69592Y103526D01*
X69751Y103552D01*
X70855Y103804D01*
X70882Y103792D01*
X71023Y103726D01*
X71027Y103726D01*
X71031Y103724D01*
X71183Y103697D01*
X71335Y103668D01*
X71340Y103669D01*
X71344Y103668D01*
X71505Y103670D01*
X72369Y103735D01*
X72373Y103736D01*
X72377Y103735D01*
X72532Y103768D01*
X72681Y103798D01*
X72684Y103800D01*
X72688Y103801D01*
X72829Y103870D01*
X72967Y103937D01*
X72970Y103940D01*
X72974Y103942D01*
X73004Y103964D01*
X74120Y103881D01*
X74135Y103881D01*
X74149Y103879D01*
X74310Y103881D01*
X75439Y103966D01*
X75464Y103950D01*
X75593Y103864D01*
X75597Y103862D01*
X75601Y103860D01*
X75746Y103811D01*
X75894Y103760D01*
X75898Y103759D01*
X75902Y103758D01*
X76061Y103736D01*
X76926Y103671D01*
X76930Y103672D01*
X76934Y103671D01*
X77090Y103680D01*
X77243Y103688D01*
X77247Y103689D01*
X77252Y103689D01*
X77398Y103736D01*
X77547Y103782D01*
X77551Y103785D01*
X77555Y103786D01*
X77587Y103804D01*
X78679Y103555D01*
X78694Y103553D01*
X78707Y103549D01*
X78867Y103527D01*
X79996Y103442D01*
X80014Y103426D01*
X80133Y103318D01*
X80137Y103316D01*
X80140Y103314D01*
X80274Y103245D01*
X80415Y103171D01*
X80419Y103170D01*
X80423Y103168D01*
X80577Y103122D01*
X81422Y102930D01*
X81426Y102929D01*
X81430Y102928D01*
X81584Y102914D01*
X81739Y102898D01*
X81743Y102899D01*
X81747Y102899D01*
X81899Y102923D01*
X82053Y102947D01*
X82057Y102948D01*
X82061Y102949D01*
X82096Y102962D01*
X83139Y102553D01*
X83153Y102549D01*
X83166Y102543D01*
X83320Y102497D01*
X84424Y102246D01*
X84443Y102223D01*
X84541Y102103D01*
X84545Y102100D01*
X84547Y102097D01*
X84672Y102007D01*
X84798Y101915D01*
X84802Y101913D01*
X84805Y101911D01*
X84951Y101842D01*
X85758Y101526D01*
X85762Y101525D01*
X85766Y101523D01*
X85917Y101486D01*
X86066Y101448D01*
X86070Y101448D01*
X86074Y101447D01*
X86228Y101448D01*
X86384Y101449D01*
X86388Y101450D01*
X86392Y101450D01*
X86429Y101457D01*
X87399Y100898D01*
X87412Y100892D01*
X87424Y100884D01*
X87570Y100816D01*
X88624Y100402D01*
X88642Y100373D01*
X88719Y100243D01*
X88722Y100240D01*
X88724Y100237D01*
X88837Y100126D01*
X88945Y100019D01*
X88948Y100017D01*
X88951Y100014D01*
X89085Y99925D01*
X89836Y99492D01*
X89840Y99490D01*
X89843Y99488D01*
X89987Y99428D01*
X90129Y99369D01*
X90133Y99368D01*
X90137Y99366D01*
X90292Y99345D01*
X90444Y99322D01*
X90448Y99323D01*
X90452Y99322D01*
X90489Y99324D01*
X91365Y98626D01*
X91378Y98618D01*
X91388Y98608D01*
X91522Y98519D01*
X92503Y97953D01*
X92515Y97924D01*
X92573Y97782D01*
X92575Y97779D01*
X92577Y97775D01*
X92670Y97651D01*
X92762Y97527D01*
X92766Y97524D01*
X92768Y97521D01*
X92887Y97413D01*
X93565Y96873D01*
X93569Y96870D01*
X93572Y96867D01*
X93703Y96789D01*
X93837Y96707D01*
X93841Y96706D01*
X93844Y96704D01*
X93989Y96661D01*
X94141Y96614D01*
X94145Y96614D01*
X94149Y96613D01*
X94187Y96609D01*
X94949Y95788D01*
X94960Y95779D01*
X94968Y95768D01*
X95088Y95659D01*
X95972Y94955D01*
X95976Y94941D01*
X95980Y94925D01*
X96017Y94774D01*
X96019Y94770D01*
X96020Y94767D01*
X96052Y94707D01*
X96061Y94679D01*
X96102Y94615D01*
X96166Y94493D01*
X96169Y94490D01*
X96171Y94487D01*
X96223Y94423D01*
X96231Y94410D01*
X96242Y94400D01*
X96273Y94362D01*
X96863Y93727D01*
X96866Y93724D01*
X96868Y93721D01*
X96987Y93623D01*
X97107Y93523D01*
X97110Y93521D01*
X97114Y93518D01*
X97253Y93453D01*
X97394Y93386D01*
X97398Y93385D01*
X97401Y93383D01*
X97438Y93374D01*
X98069Y92449D01*
X98078Y92438D01*
X98085Y92425D01*
X98187Y92300D01*
X98957Y91471D01*
X98960Y91439D01*
X98974Y91286D01*
X98975Y91283D01*
X98976Y91278D01*
X99029Y91131D01*
X99080Y90986D01*
X99082Y90983D01*
X99084Y90979D01*
X99166Y90841D01*
X99654Y90125D01*
X99657Y90122D01*
X99659Y90118D01*
X99763Y90002D01*
X99865Y89886D01*
X99868Y89884D01*
X99871Y89881D01*
X99999Y89796D01*
X100128Y89708D01*
X100132Y89707D01*
X100136Y89704D01*
X100170Y89690D01*
X100656Y88681D01*
X100664Y88669D01*
X100669Y88655D01*
X100751Y88517D01*
X101389Y87582D01*
X101388Y87549D01*
X101378Y87397D01*
X101379Y87393D01*
X101379Y87389D01*
X101409Y87236D01*
X101438Y87085D01*
X101440Y87081D01*
X101441Y87077D01*
X101501Y86928D01*
X101878Y86147D01*
X101880Y86143D01*
X101881Y86139D01*
X101967Y86009D01*
X102051Y85880D01*
X102054Y85877D01*
X102056Y85873D01*
X102171Y85769D01*
X102285Y85664D01*
X102288Y85662D01*
X102291Y85659D01*
X102323Y85640D01*
X102654Y84570D01*
X102660Y84557D01*
X102662Y84542D01*
X102723Y84393D01*
X103423Y82940D01*
X103506Y82812D01*
X103588Y82683D01*
X103593Y82678D01*
X103596Y82673D01*
X103708Y82570D01*
X103820Y82465D01*
X103825Y82462D01*
X103830Y82457D01*
X103963Y82386D01*
X104098Y82311D01*
X104104Y82310D01*
X104110Y82307D01*
X104258Y82270D01*
X104406Y82232D01*
X104415Y82231D01*
X104419Y82230D01*
X104429Y82230D01*
X104567Y82222D01*
X140844Y82222D01*
X140914Y82230D01*
G37*
G36*
X102197Y172933D02*
X102197Y172933D01*
X102316Y172936D01*
X102355Y172948D01*
X102395Y172952D01*
X102507Y172992D01*
X102621Y173025D01*
X102656Y173045D01*
X102694Y173059D01*
X102793Y173126D01*
X102895Y173186D01*
X102941Y173226D01*
X102958Y173238D01*
X102971Y173253D01*
X103016Y173293D01*
X104972Y175249D01*
X151301Y175249D01*
X151419Y175264D01*
X151538Y175271D01*
X151576Y175283D01*
X151616Y175289D01*
X151727Y175332D01*
X151840Y175369D01*
X151874Y175391D01*
X151912Y175406D01*
X152008Y175475D01*
X152109Y175539D01*
X152137Y175569D01*
X152169Y175592D01*
X152245Y175684D01*
X152327Y175771D01*
X152346Y175806D01*
X152372Y175837D01*
X152423Y175945D01*
X152480Y176049D01*
X152491Y176089D01*
X152508Y176125D01*
X152530Y176242D01*
X152560Y176357D01*
X152564Y176417D01*
X152568Y176437D01*
X152566Y176458D01*
X152570Y176518D01*
X152570Y177847D01*
X154526Y179803D01*
X154599Y179897D01*
X154678Y179986D01*
X154696Y180022D01*
X154721Y180054D01*
X154768Y180163D01*
X154822Y180269D01*
X154831Y180308D01*
X154847Y180346D01*
X154866Y180463D01*
X154892Y180579D01*
X154891Y180620D01*
X154897Y180660D01*
X154886Y180778D01*
X154882Y180897D01*
X154871Y180936D01*
X154867Y180976D01*
X154827Y181088D01*
X154794Y181203D01*
X154773Y181237D01*
X154760Y181276D01*
X154693Y181374D01*
X154632Y181477D01*
X154593Y181522D01*
X154581Y181539D01*
X154566Y181552D01*
X154526Y181598D01*
X152570Y183553D01*
X152570Y229882D01*
X152555Y230000D01*
X152548Y230119D01*
X152535Y230157D01*
X152530Y230198D01*
X152486Y230308D01*
X152450Y230422D01*
X152428Y230456D01*
X152413Y230493D01*
X152343Y230590D01*
X152280Y230690D01*
X152250Y230718D01*
X152226Y230751D01*
X152135Y230827D01*
X152048Y230908D01*
X152013Y230928D01*
X151981Y230953D01*
X151874Y231004D01*
X151769Y231062D01*
X151730Y231072D01*
X151694Y231089D01*
X151577Y231111D01*
X151462Y231141D01*
X151401Y231145D01*
X151381Y231149D01*
X151361Y231148D01*
X151301Y231151D01*
X97937Y231151D01*
X97818Y231136D01*
X97700Y231129D01*
X97661Y231117D01*
X97621Y231111D01*
X97510Y231068D01*
X97397Y231031D01*
X97363Y231009D01*
X97325Y230994D01*
X97229Y230925D01*
X97129Y230861D01*
X97101Y230831D01*
X97068Y230808D01*
X96992Y230716D01*
X96911Y230629D01*
X96891Y230594D01*
X96865Y230563D01*
X96815Y230455D01*
X96757Y230351D01*
X96747Y230311D01*
X96730Y230275D01*
X96707Y230158D01*
X96678Y230043D01*
X96674Y229983D01*
X96670Y229963D01*
X96671Y229942D01*
X96667Y229882D01*
X96667Y228553D01*
X94712Y226597D01*
X94639Y226503D01*
X94560Y226414D01*
X94541Y226378D01*
X94517Y226346D01*
X94469Y226237D01*
X94415Y226131D01*
X94406Y226092D01*
X94390Y226054D01*
X94372Y225937D01*
X94346Y225821D01*
X94347Y225780D01*
X94340Y225740D01*
X94352Y225622D01*
X94355Y225503D01*
X94366Y225464D01*
X94370Y225424D01*
X94411Y225312D01*
X94444Y225197D01*
X94464Y225162D01*
X94478Y225124D01*
X94545Y225026D01*
X94605Y224923D01*
X94645Y224878D01*
X94656Y224861D01*
X94672Y224848D01*
X94712Y224802D01*
X96667Y222847D01*
X96667Y176518D01*
X96682Y176400D01*
X96690Y176281D01*
X96702Y176243D01*
X96707Y176202D01*
X96751Y176092D01*
X96788Y175978D01*
X96809Y175944D01*
X96824Y175907D01*
X96894Y175810D01*
X96958Y175710D01*
X96987Y175682D01*
X97011Y175649D01*
X97103Y175573D01*
X97190Y175492D01*
X97225Y175472D01*
X97256Y175447D01*
X97364Y175396D01*
X97468Y175338D01*
X97507Y175328D01*
X97544Y175311D01*
X97661Y175289D01*
X97776Y175259D01*
X97836Y175255D01*
X97856Y175251D01*
X97876Y175252D01*
X97937Y175249D01*
X99265Y175249D01*
X101221Y173293D01*
X101315Y173220D01*
X101405Y173141D01*
X101441Y173123D01*
X101473Y173098D01*
X101582Y173051D01*
X101688Y172996D01*
X101727Y172988D01*
X101764Y172972D01*
X101882Y172953D01*
X101998Y172927D01*
X102038Y172928D01*
X102078Y172922D01*
X102197Y172933D01*
G37*
G36*
X149241Y29511D02*
X149241Y29511D01*
X149318Y29510D01*
X149342Y29519D01*
X149363Y29520D01*
X149402Y29541D01*
X149474Y29567D01*
X165974Y39067D01*
X165996Y39086D01*
X166022Y39099D01*
X166056Y39137D01*
X166059Y39139D01*
X166062Y39143D01*
X166070Y39152D01*
X166123Y39199D01*
X166136Y39225D01*
X166155Y39247D01*
X166178Y39314D01*
X166209Y39378D01*
X166211Y39407D01*
X166220Y39434D01*
X166215Y39506D01*
X166218Y39577D01*
X166208Y39604D01*
X166206Y39633D01*
X166164Y39723D01*
X166149Y39763D01*
X166142Y39771D01*
X166136Y39784D01*
X164394Y42307D01*
X164370Y42331D01*
X164343Y42369D01*
X164061Y42663D01*
X195184Y60631D01*
X195241Y60675D01*
X195303Y60710D01*
X195367Y60770D01*
X195437Y60824D01*
X195482Y60880D01*
X195534Y60929D01*
X195580Y61004D01*
X195635Y61073D01*
X195664Y61138D01*
X195702Y61199D01*
X195728Y61283D01*
X195764Y61363D01*
X195776Y61434D01*
X195798Y61502D01*
X195803Y61590D01*
X195817Y61677D01*
X195811Y61748D01*
X195815Y61820D01*
X195798Y61906D01*
X195791Y61994D01*
X195767Y62061D01*
X195754Y62132D01*
X195693Y62281D01*
X195229Y63245D01*
X195234Y63270D01*
X195268Y63426D01*
X195268Y63430D01*
X195268Y63434D01*
X195261Y63586D01*
X195255Y63744D01*
X195254Y63748D01*
X195254Y63752D01*
X195216Y63909D01*
X194961Y64737D01*
X194959Y64741D01*
X194958Y64745D01*
X194894Y64885D01*
X194830Y65027D01*
X194827Y65030D01*
X194826Y65034D01*
X194728Y65154D01*
X194631Y65275D01*
X194628Y65277D01*
X194625Y65281D01*
X194596Y65305D01*
X194430Y66412D01*
X194426Y66426D01*
X194425Y66441D01*
X194388Y66597D01*
X194054Y67679D01*
X194066Y67709D01*
X194119Y67852D01*
X194120Y67856D01*
X194121Y67860D01*
X194137Y68011D01*
X194154Y68168D01*
X194154Y68173D01*
X194154Y68177D01*
X194140Y68337D01*
X194011Y69194D01*
X194010Y69198D01*
X194010Y69202D01*
X193968Y69349D01*
X193925Y69500D01*
X193923Y69504D01*
X193922Y69508D01*
X193843Y69641D01*
X193765Y69775D01*
X193762Y69778D01*
X193760Y69782D01*
X193736Y69810D01*
X193736Y70930D01*
X193734Y70944D01*
X193736Y70959D01*
X193722Y71119D01*
X193571Y72123D01*
X193564Y72146D01*
X193563Y72171D01*
X193521Y72299D01*
X193485Y72429D01*
X193472Y72450D01*
X193465Y72473D01*
X193393Y72587D01*
X193325Y72704D01*
X193308Y72721D01*
X193295Y72742D01*
X193196Y72835D01*
X193102Y72931D01*
X193081Y72943D01*
X193063Y72960D01*
X192945Y73025D01*
X192829Y73095D01*
X192806Y73102D01*
X192784Y73114D01*
X192654Y73147D01*
X192525Y73186D01*
X192500Y73187D01*
X192477Y73193D01*
X192316Y73203D01*
X188568Y73203D01*
X186328Y74131D01*
X186004Y74455D01*
X185894Y74541D01*
X185787Y74629D01*
X185768Y74638D01*
X185752Y74650D01*
X185624Y74706D01*
X185499Y74765D01*
X185479Y74769D01*
X185461Y74777D01*
X185322Y74799D01*
X185187Y74825D01*
X185167Y74823D01*
X185147Y74827D01*
X185008Y74813D01*
X184869Y74805D01*
X184850Y74799D01*
X184830Y74797D01*
X184699Y74750D01*
X184567Y74707D01*
X184550Y74696D01*
X184531Y74689D01*
X184416Y74611D01*
X184298Y74537D01*
X184284Y74522D01*
X184267Y74511D01*
X184175Y74406D01*
X184080Y74305D01*
X184070Y74287D01*
X184057Y74272D01*
X183994Y74148D01*
X183927Y74027D01*
X183922Y74007D01*
X183912Y73989D01*
X183882Y73853D01*
X183847Y73719D01*
X183845Y73691D01*
X183843Y73679D01*
X183843Y73658D01*
X183837Y73558D01*
X183837Y71666D01*
X182797Y69156D01*
X180876Y67234D01*
X178365Y66194D01*
X175647Y66194D01*
X174109Y66832D01*
X174100Y66834D01*
X174092Y66839D01*
X173946Y66876D01*
X173802Y66916D01*
X173793Y66916D01*
X173784Y66918D01*
X173623Y66928D01*
X170237Y66928D01*
X167996Y67856D01*
X162619Y73234D01*
X160725Y75128D01*
X159776Y77420D01*
X159767Y77517D01*
X159760Y77536D01*
X159757Y77557D01*
X159706Y77685D01*
X159659Y77817D01*
X159648Y77833D01*
X159640Y77852D01*
X159558Y77965D01*
X159480Y78080D01*
X159465Y78093D01*
X159453Y78110D01*
X159346Y78198D01*
X159242Y78290D01*
X159224Y78299D01*
X159208Y78312D01*
X159083Y78372D01*
X158959Y78435D01*
X158939Y78439D01*
X158921Y78448D01*
X158784Y78474D01*
X158648Y78504D01*
X158628Y78504D01*
X158608Y78508D01*
X158470Y78499D01*
X158331Y78495D01*
X158311Y78489D01*
X158291Y78488D01*
X158159Y78445D01*
X158025Y78406D01*
X158008Y78396D01*
X157988Y78390D01*
X157871Y78315D01*
X157751Y78245D01*
X157730Y78226D01*
X157720Y78220D01*
X157706Y78205D01*
X157630Y78138D01*
X155618Y76127D01*
X155558Y76048D01*
X155490Y75976D01*
X155461Y75923D01*
X155424Y75875D01*
X155384Y75784D01*
X155336Y75698D01*
X155321Y75639D01*
X155297Y75584D01*
X155282Y75486D01*
X155257Y75390D01*
X155251Y75290D01*
X155247Y75269D01*
X155249Y75257D01*
X155247Y75229D01*
X155247Y74912D01*
X154319Y72671D01*
X152604Y70956D01*
X150363Y70028D01*
X105657Y70028D01*
X105632Y70025D01*
X105608Y70027D01*
X105475Y70005D01*
X105341Y69988D01*
X105318Y69979D01*
X105294Y69975D01*
X105171Y69921D01*
X105045Y69871D01*
X105026Y69857D01*
X105003Y69847D01*
X104897Y69764D01*
X104788Y69685D01*
X104772Y69666D01*
X104753Y69650D01*
X104671Y69544D01*
X104585Y69440D01*
X104575Y69417D01*
X104560Y69398D01*
X104507Y69273D01*
X104450Y69152D01*
X104445Y69128D01*
X104436Y69105D01*
X104402Y68948D01*
X104310Y68337D01*
X104310Y68333D01*
X104308Y68329D01*
X104306Y68171D01*
X104302Y68019D01*
X104303Y68015D01*
X104303Y68011D01*
X104339Y67858D01*
X104374Y67709D01*
X104376Y67706D01*
X104377Y67702D01*
X104392Y67667D01*
X104062Y66597D01*
X104060Y66583D01*
X104054Y66570D01*
X104020Y66412D01*
X103852Y65293D01*
X103832Y65273D01*
X103718Y65165D01*
X103716Y65161D01*
X103713Y65158D01*
X103631Y65026D01*
X103550Y64895D01*
X103548Y64891D01*
X103546Y64888D01*
X103489Y64737D01*
X103234Y63909D01*
X103233Y63904D01*
X103232Y63901D01*
X103206Y63750D01*
X103179Y63595D01*
X103179Y63591D01*
X103179Y63587D01*
X103192Y63433D01*
X103204Y63278D01*
X103205Y63274D01*
X103206Y63270D01*
X103216Y63234D01*
X102757Y62281D01*
X102734Y62213D01*
X102702Y62149D01*
X102684Y62063D01*
X102656Y61979D01*
X102651Y61908D01*
X102636Y61838D01*
X102640Y61750D01*
X102633Y61662D01*
X102646Y61592D01*
X102649Y61520D01*
X102674Y61436D01*
X102690Y61349D01*
X102720Y61284D01*
X102741Y61215D01*
X102786Y61140D01*
X102823Y61060D01*
X102868Y61005D01*
X102905Y60943D01*
X102968Y60882D01*
X103023Y60813D01*
X103081Y60771D01*
X103132Y60720D01*
X103266Y60631D01*
X134389Y42663D01*
X134107Y42369D01*
X134089Y42341D01*
X134056Y42307D01*
X132314Y39784D01*
X132303Y39757D01*
X132284Y39735D01*
X132264Y39666D01*
X132236Y39601D01*
X132236Y39572D01*
X132228Y39544D01*
X132236Y39473D01*
X132236Y39402D01*
X132247Y39375D01*
X132250Y39346D01*
X132285Y39284D01*
X132313Y39219D01*
X132333Y39198D01*
X132348Y39173D01*
X132411Y39121D01*
X132415Y39116D01*
X132424Y39110D01*
X132425Y39110D01*
X132455Y39080D01*
X132465Y39076D01*
X132476Y39067D01*
X148976Y29567D01*
X149049Y29543D01*
X149119Y29512D01*
X149143Y29512D01*
X149165Y29504D01*
X149241Y29511D01*
G37*
G36*
X504472Y168479D02*
X504472Y168479D01*
X504571Y168482D01*
X504629Y168498D01*
X504689Y168506D01*
X504781Y168543D01*
X504876Y168570D01*
X504929Y168601D01*
X504985Y168623D01*
X505065Y168681D01*
X505150Y168732D01*
X505226Y168798D01*
X505242Y168810D01*
X505250Y168819D01*
X505271Y168838D01*
X510851Y174418D01*
X510924Y174512D01*
X511003Y174601D01*
X511021Y174637D01*
X511046Y174669D01*
X511093Y174778D01*
X511147Y174884D01*
X511156Y174924D01*
X511172Y174961D01*
X511191Y175079D01*
X511217Y175195D01*
X511216Y175235D01*
X511222Y175275D01*
X511211Y175393D01*
X511207Y175512D01*
X511196Y175551D01*
X511192Y175591D01*
X511152Y175704D01*
X511119Y175818D01*
X511098Y175853D01*
X511085Y175891D01*
X511018Y175989D01*
X510957Y176092D01*
X510917Y176137D01*
X510906Y176154D01*
X510891Y176167D01*
X510851Y176213D01*
X509476Y177587D01*
X509476Y194113D01*
X510998Y195635D01*
X511083Y195744D01*
X511172Y195851D01*
X511180Y195870D01*
X511193Y195886D01*
X511248Y196014D01*
X511307Y196139D01*
X511311Y196159D01*
X511319Y196178D01*
X511341Y196316D01*
X511367Y196452D01*
X511366Y196472D01*
X511369Y196492D01*
X511356Y196631D01*
X511347Y196769D01*
X511341Y196788D01*
X511339Y196808D01*
X511292Y196940D01*
X511249Y197071D01*
X511239Y197089D01*
X511232Y197108D01*
X511154Y197223D01*
X511079Y197340D01*
X511064Y197354D01*
X511053Y197371D01*
X510949Y197463D01*
X510848Y197558D01*
X510830Y197568D01*
X510815Y197581D01*
X510691Y197645D01*
X510569Y197712D01*
X510550Y197717D01*
X510531Y197726D01*
X510396Y197756D01*
X510261Y197791D01*
X510233Y197793D01*
X510221Y197796D01*
X510201Y197795D01*
X510100Y197801D01*
X501762Y197801D01*
X499976Y199587D01*
X499976Y215961D01*
X499964Y216060D01*
X499961Y216159D01*
X499944Y216217D01*
X499936Y216277D01*
X499900Y216369D01*
X499872Y216464D01*
X499842Y216516D01*
X499819Y216573D01*
X499761Y216653D01*
X499711Y216738D01*
X499645Y216813D01*
X499633Y216830D01*
X499623Y216838D01*
X499605Y216859D01*
X499451Y217012D01*
X499451Y229538D01*
X500791Y230877D01*
X500864Y230972D01*
X500943Y231061D01*
X500961Y231097D01*
X500986Y231129D01*
X501033Y231238D01*
X501087Y231344D01*
X501096Y231383D01*
X501112Y231421D01*
X501131Y231538D01*
X501157Y231654D01*
X501156Y231695D01*
X501162Y231735D01*
X501151Y231853D01*
X501147Y231972D01*
X501136Y232011D01*
X501132Y232051D01*
X501092Y232164D01*
X501059Y232278D01*
X501038Y232312D01*
X501025Y232351D01*
X500958Y232449D01*
X500897Y232552D01*
X500857Y232597D01*
X500846Y232614D01*
X500831Y232627D01*
X500791Y232672D01*
X499451Y234012D01*
X499451Y246538D01*
X501237Y248324D01*
X502158Y248324D01*
X502276Y248339D01*
X502395Y248346D01*
X502433Y248359D01*
X502474Y248364D01*
X502584Y248407D01*
X502697Y248444D01*
X502732Y248466D01*
X502769Y248481D01*
X502865Y248550D01*
X502966Y248614D01*
X502994Y248644D01*
X503027Y248667D01*
X503103Y248759D01*
X503184Y248846D01*
X503204Y248881D01*
X503229Y248912D01*
X503280Y249020D01*
X503338Y249124D01*
X503348Y249164D01*
X503365Y249200D01*
X503387Y249317D01*
X503417Y249432D01*
X503421Y249492D01*
X503425Y249512D01*
X503423Y249533D01*
X503427Y249593D01*
X503427Y253168D01*
X503415Y253266D01*
X503412Y253365D01*
X503395Y253423D01*
X503387Y253483D01*
X503351Y253575D01*
X503323Y253670D01*
X503293Y253723D01*
X503270Y253779D01*
X503212Y253859D01*
X503162Y253944D01*
X503096Y254020D01*
X503084Y254036D01*
X503074Y254044D01*
X503056Y254065D01*
X498540Y258581D01*
X498462Y258641D01*
X498390Y258709D01*
X498337Y258738D01*
X498289Y258775D01*
X498198Y258815D01*
X498111Y258863D01*
X498053Y258878D01*
X497997Y258902D01*
X497899Y258917D01*
X497803Y258942D01*
X497703Y258948D01*
X497683Y258952D01*
X497671Y258950D01*
X497643Y258952D01*
X474479Y258952D01*
X474341Y258935D01*
X474202Y258922D01*
X474183Y258915D01*
X474163Y258912D01*
X474034Y258861D01*
X473903Y258814D01*
X473886Y258803D01*
X473868Y258795D01*
X473755Y258714D01*
X473640Y258636D01*
X473627Y258620D01*
X473610Y258609D01*
X473521Y258501D01*
X473430Y258397D01*
X473420Y258379D01*
X473407Y258364D01*
X473348Y258238D01*
X473285Y258114D01*
X473280Y258094D01*
X473272Y258076D01*
X473246Y257939D01*
X473215Y257804D01*
X473216Y257783D01*
X473212Y257764D01*
X473221Y257625D01*
X473225Y257486D01*
X473231Y257466D01*
X473232Y257446D01*
X473275Y257314D01*
X473313Y257180D01*
X473324Y257163D01*
X473330Y257144D01*
X473404Y257026D01*
X473475Y256906D01*
X473493Y256885D01*
X473500Y256875D01*
X473501Y256874D01*
X473515Y256861D01*
X473581Y256786D01*
X474597Y255770D01*
X474597Y255769D01*
X477648Y252719D01*
X477648Y249593D01*
X477663Y249475D01*
X477670Y249356D01*
X477683Y249318D01*
X477688Y249277D01*
X477731Y249167D01*
X477768Y249054D01*
X477790Y249019D01*
X477805Y248982D01*
X477874Y248886D01*
X477938Y248785D01*
X477968Y248757D01*
X477991Y248724D01*
X478083Y248648D01*
X478170Y248567D01*
X478205Y248547D01*
X478236Y248522D01*
X478344Y248471D01*
X478448Y248413D01*
X478488Y248403D01*
X478524Y248386D01*
X478641Y248364D01*
X478756Y248334D01*
X478816Y248330D01*
X478836Y248326D01*
X478857Y248328D01*
X478917Y248324D01*
X479838Y248324D01*
X481624Y246538D01*
X481624Y234012D01*
X480284Y232672D01*
X480211Y232578D01*
X480132Y232489D01*
X480114Y232453D01*
X480089Y232421D01*
X480042Y232312D01*
X479988Y232206D01*
X479979Y232167D01*
X479963Y232129D01*
X479944Y232012D01*
X479918Y231896D01*
X479919Y231855D01*
X479913Y231815D01*
X479924Y231697D01*
X479928Y231578D01*
X479939Y231539D01*
X479943Y231499D01*
X479983Y231387D01*
X480016Y231272D01*
X480037Y231237D01*
X480050Y231199D01*
X480117Y231101D01*
X480178Y230998D01*
X480217Y230953D01*
X480229Y230936D01*
X480244Y230923D01*
X480284Y230877D01*
X481624Y229538D01*
X481624Y217012D01*
X481520Y216909D01*
X481460Y216831D01*
X481392Y216759D01*
X481363Y216706D01*
X481326Y216658D01*
X481286Y216567D01*
X481238Y216480D01*
X481223Y216421D01*
X481199Y216366D01*
X481184Y216268D01*
X481159Y216172D01*
X481153Y216072D01*
X481149Y216052D01*
X481151Y216039D01*
X481149Y216011D01*
X481149Y199587D01*
X479627Y198065D01*
X479542Y197956D01*
X479453Y197849D01*
X479445Y197830D01*
X479432Y197814D01*
X479377Y197686D01*
X479318Y197561D01*
X479314Y197541D01*
X479306Y197522D01*
X479284Y197384D01*
X479258Y197248D01*
X479259Y197228D01*
X479256Y197208D01*
X479269Y197069D01*
X479278Y196931D01*
X479284Y196912D01*
X479286Y196892D01*
X479333Y196760D01*
X479376Y196629D01*
X479386Y196611D01*
X479393Y196592D01*
X479471Y196477D01*
X479546Y196360D01*
X479561Y196346D01*
X479572Y196329D01*
X479676Y196237D01*
X479777Y196142D01*
X479795Y196132D01*
X479810Y196119D01*
X479934Y196055D01*
X480056Y195988D01*
X480075Y195983D01*
X480094Y195974D01*
X480229Y195944D01*
X480364Y195909D01*
X480392Y195907D01*
X480404Y195904D01*
X480424Y195905D01*
X480525Y195899D01*
X488863Y195899D01*
X490649Y194113D01*
X490649Y177587D01*
X488863Y175801D01*
X476337Y175801D01*
X474551Y177587D01*
X474551Y180008D01*
X474536Y180126D01*
X474529Y180245D01*
X474516Y180283D01*
X474511Y180324D01*
X474468Y180434D01*
X474431Y180547D01*
X474409Y180582D01*
X474394Y180619D01*
X474325Y180715D01*
X474261Y180816D01*
X474231Y180844D01*
X474208Y180877D01*
X474116Y180953D01*
X474029Y181034D01*
X473994Y181054D01*
X473963Y181079D01*
X473855Y181130D01*
X473751Y181188D01*
X473711Y181198D01*
X473675Y181215D01*
X473558Y181237D01*
X473443Y181267D01*
X473383Y181271D01*
X473363Y181275D01*
X473342Y181273D01*
X473282Y181277D01*
X464495Y181277D01*
X464397Y181265D01*
X464298Y181262D01*
X464239Y181245D01*
X464179Y181237D01*
X464087Y181201D01*
X463992Y181173D01*
X463940Y181143D01*
X463884Y181120D01*
X463804Y181062D01*
X463718Y181012D01*
X463643Y180946D01*
X463626Y180934D01*
X463618Y180924D01*
X463597Y180906D01*
X462255Y179563D01*
X462194Y179485D01*
X462126Y179413D01*
X462097Y179360D01*
X462060Y179312D01*
X462021Y179221D01*
X461973Y179134D01*
X461958Y179076D01*
X461934Y179020D01*
X461918Y178922D01*
X461893Y178826D01*
X461887Y178726D01*
X461884Y178706D01*
X461885Y178694D01*
X461883Y178666D01*
X461883Y174429D01*
X458087Y170633D01*
X458002Y170523D01*
X457913Y170416D01*
X457905Y170398D01*
X457892Y170382D01*
X457837Y170254D01*
X457778Y170128D01*
X457774Y170109D01*
X457766Y170090D01*
X457744Y169952D01*
X457718Y169816D01*
X457719Y169796D01*
X457716Y169776D01*
X457729Y169637D01*
X457738Y169499D01*
X457744Y169479D01*
X457746Y169459D01*
X457793Y169328D01*
X457836Y169196D01*
X457847Y169179D01*
X457854Y169160D01*
X457932Y169045D01*
X458006Y168927D01*
X458021Y168913D01*
X458032Y168897D01*
X458136Y168805D01*
X458238Y168709D01*
X458255Y168700D01*
X458271Y168686D01*
X458395Y168623D01*
X458516Y168556D01*
X458536Y168551D01*
X458554Y168542D01*
X458690Y168511D01*
X458824Y168476D01*
X458852Y168475D01*
X458864Y168472D01*
X458885Y168473D01*
X458985Y168466D01*
X504374Y168466D01*
X504472Y168479D01*
G37*
G36*
X200891Y59310D02*
X200891Y59310D01*
X200919Y59310D01*
X201017Y59346D01*
X201056Y59358D01*
X201064Y59364D01*
X201075Y59368D01*
X247875Y86368D01*
X247895Y86386D01*
X247920Y86397D01*
X247969Y86451D01*
X248024Y86499D01*
X248035Y86524D01*
X248054Y86544D01*
X248078Y86613D01*
X248109Y86679D01*
X248111Y86706D01*
X248120Y86731D01*
X248115Y86804D01*
X248118Y86877D01*
X248109Y86903D01*
X248107Y86930D01*
X248063Y87026D01*
X248049Y87064D01*
X248042Y87071D01*
X248038Y87081D01*
X245764Y90418D01*
X245741Y90440D01*
X245718Y90476D01*
X242972Y93437D01*
X242946Y93456D01*
X242918Y93488D01*
X239762Y96006D01*
X239733Y96021D01*
X239700Y96048D01*
X236204Y98068D01*
X236174Y98078D01*
X236137Y98101D01*
X232379Y99577D01*
X232347Y99582D01*
X232307Y99599D01*
X228371Y100499D01*
X228339Y100499D01*
X228297Y100510D01*
X224271Y100813D01*
X224240Y100809D01*
X224197Y100813D01*
X220170Y100512D01*
X220139Y100504D01*
X220096Y100501D01*
X216160Y99604D01*
X216131Y99591D01*
X216088Y99582D01*
X212329Y98108D01*
X212302Y98091D01*
X212262Y98076D01*
X208765Y96058D01*
X208741Y96037D01*
X208703Y96016D01*
X205545Y93500D01*
X205525Y93475D01*
X205491Y93449D01*
X202743Y90490D01*
X202727Y90463D01*
X202697Y90432D01*
X200421Y87096D01*
X200409Y87067D01*
X200384Y87032D01*
X198631Y83395D01*
X198623Y83364D01*
X198604Y83325D01*
X197412Y79467D01*
X197409Y79435D01*
X197396Y79394D01*
X196793Y75402D01*
X196794Y75370D01*
X196787Y75328D01*
X196786Y71290D01*
X196789Y71276D01*
X196787Y71266D01*
X196792Y71246D01*
X196791Y71216D01*
X197392Y67223D01*
X197403Y67193D01*
X197408Y67150D01*
X198597Y63291D01*
X198612Y63263D01*
X198624Y63222D01*
X200375Y59584D01*
X200392Y59562D01*
X200401Y59536D01*
X200451Y59483D01*
X200495Y59425D01*
X200519Y59412D01*
X200538Y59392D01*
X200604Y59362D01*
X200668Y59326D01*
X200695Y59323D01*
X200720Y59312D01*
X200793Y59311D01*
X200865Y59302D01*
X200891Y59310D01*
G37*
G36*
X224228Y305591D02*
X224228Y305591D01*
X224271Y305587D01*
X228297Y305890D01*
X228328Y305899D01*
X228371Y305901D01*
X232307Y306801D01*
X232336Y306814D01*
X232379Y306823D01*
X236137Y308299D01*
X236164Y308317D01*
X236204Y308332D01*
X239700Y310352D01*
X239724Y310373D01*
X239762Y310394D01*
X242918Y312912D01*
X242938Y312937D01*
X242972Y312963D01*
X245718Y315924D01*
X245734Y315951D01*
X245764Y315982D01*
X248038Y319319D01*
X248048Y319344D01*
X248065Y319365D01*
X248086Y319435D01*
X248115Y319502D01*
X248115Y319530D01*
X248122Y319556D01*
X248114Y319628D01*
X248114Y319701D01*
X248103Y319726D01*
X248100Y319753D01*
X248064Y319817D01*
X248036Y319884D01*
X248016Y319903D01*
X248003Y319926D01*
X247922Y319994D01*
X247892Y320022D01*
X247883Y320025D01*
X247875Y320032D01*
X201075Y347032D01*
X201049Y347041D01*
X201026Y347057D01*
X200955Y347072D01*
X200886Y347096D01*
X200859Y347093D01*
X200832Y347099D01*
X200761Y347086D01*
X200688Y347080D01*
X200663Y347067D01*
X200637Y347062D01*
X200576Y347022D01*
X200511Y346988D01*
X200494Y346967D01*
X200471Y346952D01*
X200410Y346866D01*
X200385Y346835D01*
X200382Y346826D01*
X200375Y346816D01*
X198624Y343178D01*
X198617Y343147D01*
X198597Y343109D01*
X197408Y339250D01*
X197405Y339218D01*
X197392Y339177D01*
X196791Y335184D01*
X196793Y335153D01*
X196786Y335110D01*
X196787Y331072D01*
X196793Y331043D01*
X196791Y331031D01*
X196793Y331023D01*
X196793Y330998D01*
X197396Y327006D01*
X197407Y326976D01*
X197412Y326933D01*
X198604Y323075D01*
X198619Y323047D01*
X198631Y323006D01*
X200384Y319368D01*
X200403Y319343D01*
X200421Y319304D01*
X202697Y315968D01*
X202720Y315946D01*
X202743Y315910D01*
X205491Y312951D01*
X205516Y312932D01*
X205545Y312900D01*
X208703Y310384D01*
X208731Y310369D01*
X208765Y310342D01*
X212262Y308324D01*
X212292Y308314D01*
X212329Y308292D01*
X216088Y306818D01*
X216120Y306812D01*
X216160Y306796D01*
X220096Y305899D01*
X220128Y305898D01*
X220170Y305888D01*
X224197Y305587D01*
X224228Y305591D01*
G37*
G36*
X97689Y59314D02*
X97689Y59314D01*
X97762Y59320D01*
X97787Y59333D01*
X97813Y59338D01*
X97874Y59378D01*
X97939Y59412D01*
X97956Y59433D01*
X97979Y59448D01*
X98040Y59534D01*
X98065Y59565D01*
X98068Y59574D01*
X98075Y59584D01*
X99826Y63222D01*
X99833Y63253D01*
X99853Y63291D01*
X101042Y67150D01*
X101045Y67182D01*
X101058Y67223D01*
X101659Y71216D01*
X101657Y71247D01*
X101664Y71290D01*
X101663Y75328D01*
X101657Y75359D01*
X101657Y75402D01*
X101054Y79394D01*
X101043Y79424D01*
X101038Y79467D01*
X99846Y83325D01*
X99831Y83353D01*
X99819Y83395D01*
X98066Y87032D01*
X98047Y87057D01*
X98029Y87096D01*
X95753Y90432D01*
X95730Y90454D01*
X95707Y90490D01*
X92959Y93449D01*
X92934Y93468D01*
X92905Y93500D01*
X89747Y96016D01*
X89719Y96031D01*
X89685Y96058D01*
X86188Y98076D01*
X86158Y98086D01*
X86121Y98108D01*
X82362Y99582D01*
X82330Y99588D01*
X82290Y99604D01*
X78354Y100501D01*
X78322Y100502D01*
X78280Y100512D01*
X74254Y100813D01*
X74222Y100809D01*
X74179Y100813D01*
X70153Y100510D01*
X70122Y100501D01*
X70079Y100499D01*
X66143Y99599D01*
X66114Y99586D01*
X66071Y99577D01*
X62313Y98101D01*
X62286Y98083D01*
X62246Y98068D01*
X58750Y96048D01*
X58726Y96027D01*
X58688Y96006D01*
X55532Y93488D01*
X55512Y93463D01*
X55478Y93437D01*
X52732Y90476D01*
X52716Y90449D01*
X52686Y90418D01*
X50412Y87081D01*
X50402Y87056D01*
X50385Y87035D01*
X50364Y86965D01*
X50335Y86898D01*
X50336Y86870D01*
X50328Y86844D01*
X50336Y86772D01*
X50336Y86699D01*
X50347Y86674D01*
X50350Y86647D01*
X50386Y86583D01*
X50414Y86516D01*
X50434Y86497D01*
X50447Y86474D01*
X50528Y86407D01*
X50558Y86378D01*
X50567Y86375D01*
X50576Y86368D01*
X97376Y59368D01*
X97401Y59359D01*
X97424Y59343D01*
X97495Y59328D01*
X97564Y59304D01*
X97591Y59307D01*
X97618Y59301D01*
X97689Y59314D01*
G37*
G36*
X78280Y305888D02*
X78280Y305888D01*
X78311Y305896D01*
X78354Y305899D01*
X82290Y306796D01*
X82319Y306809D01*
X82362Y306818D01*
X86121Y308292D01*
X86148Y308309D01*
X86188Y308324D01*
X89685Y310342D01*
X89709Y310363D01*
X89747Y310384D01*
X92905Y312900D01*
X92925Y312925D01*
X92959Y312951D01*
X95707Y315910D01*
X95723Y315937D01*
X95753Y315968D01*
X98029Y319304D01*
X98041Y319333D01*
X98066Y319368D01*
X99819Y323006D01*
X99827Y323036D01*
X99846Y323075D01*
X101038Y326933D01*
X101041Y326965D01*
X101054Y327006D01*
X101657Y330998D01*
X101656Y331030D01*
X101663Y331072D01*
X101664Y335110D01*
X101658Y335141D01*
X101659Y335184D01*
X101058Y339177D01*
X101047Y339207D01*
X101042Y339250D01*
X99853Y343109D01*
X99838Y343137D01*
X99826Y343178D01*
X98075Y346816D01*
X98058Y346838D01*
X98049Y346864D01*
X97999Y346917D01*
X97955Y346975D01*
X97931Y346988D01*
X97912Y347008D01*
X97846Y347038D01*
X97782Y347074D01*
X97755Y347077D01*
X97730Y347088D01*
X97657Y347089D01*
X97585Y347098D01*
X97559Y347090D01*
X97531Y347090D01*
X97433Y347054D01*
X97394Y347042D01*
X97386Y347036D01*
X97376Y347032D01*
X50576Y320032D01*
X50555Y320014D01*
X50530Y320003D01*
X50481Y319949D01*
X50427Y319901D01*
X50415Y319876D01*
X50396Y319856D01*
X50372Y319787D01*
X50341Y319721D01*
X50340Y319694D01*
X50330Y319669D01*
X50335Y319596D01*
X50332Y319523D01*
X50341Y319497D01*
X50343Y319470D01*
X50387Y319374D01*
X50401Y319336D01*
X50408Y319329D01*
X50412Y319319D01*
X52686Y315982D01*
X52709Y315960D01*
X52732Y315924D01*
X55478Y312963D01*
X55504Y312944D01*
X55532Y312912D01*
X58688Y310394D01*
X58717Y310379D01*
X58750Y310352D01*
X62246Y308332D01*
X62276Y308322D01*
X62313Y308299D01*
X66071Y306823D01*
X66103Y306818D01*
X66143Y306801D01*
X70079Y305901D01*
X70111Y305901D01*
X70153Y305890D01*
X74179Y305587D01*
X74210Y305591D01*
X74254Y305587D01*
X78280Y305888D01*
G37*
G36*
X-749Y175703D02*
X-749Y175703D01*
X-738Y175702D01*
X3286Y176004D01*
X3317Y176012D01*
X3360Y176015D01*
X7294Y176913D01*
X7323Y176926D01*
X7366Y176935D01*
X11122Y178409D01*
X11149Y178426D01*
X11190Y178441D01*
X14684Y180459D01*
X14708Y180480D01*
X14746Y180501D01*
X17901Y183017D01*
X17921Y183042D01*
X17956Y183068D01*
X20700Y186026D01*
X20717Y186053D01*
X20747Y186085D01*
X23020Y189419D01*
X23033Y189448D01*
X23058Y189483D01*
X24808Y193119D01*
X24816Y193150D01*
X24836Y193189D01*
X26025Y197045D01*
X26028Y197076D01*
X26042Y197118D01*
X26643Y201108D01*
X26642Y201140D01*
X26649Y201182D01*
X26649Y205218D01*
X26642Y205249D01*
X26643Y205292D01*
X26042Y209282D01*
X26031Y209312D01*
X26025Y209355D01*
X24836Y213211D01*
X24820Y213239D01*
X24808Y213281D01*
X23058Y216917D01*
X23038Y216942D01*
X23020Y216981D01*
X20747Y220315D01*
X20724Y220338D01*
X20700Y220374D01*
X17956Y223332D01*
X17930Y223351D01*
X17901Y223383D01*
X14746Y225899D01*
X14718Y225913D01*
X14684Y225941D01*
X11190Y227959D01*
X11159Y227969D01*
X11122Y227991D01*
X7366Y229465D01*
X7334Y229471D01*
X7294Y229487D01*
X3360Y230385D01*
X3328Y230386D01*
X3286Y230396D01*
X-738Y230698D01*
X-765Y230694D01*
X-792Y230699D01*
X-862Y230682D01*
X-935Y230673D01*
X-959Y230659D01*
X-985Y230653D01*
X-1044Y230610D01*
X-1107Y230573D01*
X-1123Y230551D01*
X-1145Y230535D01*
X-1182Y230472D01*
X-1226Y230414D01*
X-1233Y230387D01*
X-1247Y230364D01*
X-1264Y230260D01*
X-1274Y230221D01*
X-1272Y230211D01*
X-1274Y230200D01*
X-1274Y176200D01*
X-1269Y176173D01*
X-1271Y176146D01*
X-1249Y176077D01*
X-1235Y176005D01*
X-1219Y175983D01*
X-1211Y175957D01*
X-1163Y175901D01*
X-1122Y175841D01*
X-1099Y175827D01*
X-1081Y175806D01*
X-1016Y175774D01*
X-955Y175734D01*
X-928Y175730D01*
X-903Y175718D01*
X-799Y175708D01*
X-758Y175701D01*
X-749Y175703D01*
G37*
G36*
X457051Y187772D02*
X457051Y187772D01*
X457190Y187776D01*
X457210Y187782D01*
X457230Y187783D01*
X457362Y187826D01*
X457496Y187864D01*
X457513Y187875D01*
X457532Y187881D01*
X457650Y187955D01*
X457770Y188026D01*
X457791Y188044D01*
X457801Y188051D01*
X457815Y188066D01*
X457890Y188132D01*
X460181Y190423D01*
X473282Y190423D01*
X473400Y190438D01*
X473519Y190445D01*
X473557Y190458D01*
X473598Y190463D01*
X473708Y190506D01*
X473821Y190543D01*
X473856Y190565D01*
X473893Y190580D01*
X473989Y190649D01*
X474090Y190713D01*
X474118Y190743D01*
X474151Y190766D01*
X474227Y190858D01*
X474308Y190945D01*
X474328Y190980D01*
X474353Y191011D01*
X474404Y191119D01*
X474462Y191223D01*
X474472Y191263D01*
X474489Y191299D01*
X474511Y191416D01*
X474541Y191531D01*
X474545Y191591D01*
X474549Y191611D01*
X474547Y191632D01*
X474551Y191692D01*
X474551Y194113D01*
X476073Y195635D01*
X476158Y195744D01*
X476247Y195851D01*
X476255Y195870D01*
X476268Y195886D01*
X476323Y196014D01*
X476382Y196139D01*
X476386Y196159D01*
X476394Y196178D01*
X476416Y196316D01*
X476442Y196452D01*
X476441Y196472D01*
X476444Y196492D01*
X476431Y196631D01*
X476422Y196769D01*
X476416Y196788D01*
X476414Y196808D01*
X476367Y196940D01*
X476324Y197071D01*
X476314Y197089D01*
X476307Y197108D01*
X476229Y197223D01*
X476154Y197340D01*
X476139Y197354D01*
X476128Y197371D01*
X476024Y197463D01*
X475923Y197558D01*
X475905Y197568D01*
X475890Y197581D01*
X475766Y197645D01*
X475644Y197712D01*
X475625Y197717D01*
X475606Y197726D01*
X475471Y197756D01*
X475336Y197791D01*
X475308Y197793D01*
X475296Y197796D01*
X475276Y197795D01*
X475175Y197801D01*
X466837Y197801D01*
X465051Y199587D01*
X465051Y215961D01*
X465039Y216060D01*
X465036Y216159D01*
X465019Y216217D01*
X465011Y216277D01*
X464975Y216369D01*
X464947Y216464D01*
X464917Y216516D01*
X464894Y216573D01*
X464836Y216653D01*
X464786Y216738D01*
X464720Y216813D01*
X464708Y216830D01*
X464698Y216838D01*
X464680Y216859D01*
X464526Y217012D01*
X464526Y229538D01*
X465866Y230877D01*
X465939Y230972D01*
X466018Y231061D01*
X466036Y231097D01*
X466061Y231129D01*
X466108Y231238D01*
X466162Y231344D01*
X466171Y231383D01*
X466187Y231421D01*
X466206Y231538D01*
X466232Y231654D01*
X466231Y231695D01*
X466237Y231735D01*
X466226Y231853D01*
X466222Y231972D01*
X466211Y232011D01*
X466207Y232051D01*
X466167Y232164D01*
X466134Y232278D01*
X466113Y232312D01*
X466100Y232351D01*
X466033Y232449D01*
X465972Y232552D01*
X465932Y232597D01*
X465921Y232614D01*
X465906Y232627D01*
X465866Y232672D01*
X464526Y234012D01*
X464526Y246538D01*
X466351Y248362D01*
X466361Y248364D01*
X466490Y248415D01*
X466621Y248462D01*
X466638Y248473D01*
X466656Y248481D01*
X466769Y248562D01*
X466884Y248640D01*
X466897Y248656D01*
X466914Y248667D01*
X467003Y248775D01*
X467095Y248879D01*
X467104Y248897D01*
X467117Y248912D01*
X467176Y249038D01*
X467239Y249162D01*
X467244Y249182D01*
X467252Y249200D01*
X467278Y249336D01*
X467309Y249472D01*
X467308Y249493D01*
X467312Y249512D01*
X467303Y249651D01*
X467299Y249790D01*
X467293Y249810D01*
X467292Y249830D01*
X467249Y249962D01*
X467211Y250096D01*
X467200Y250113D01*
X467194Y250132D01*
X467120Y250249D01*
X467049Y250370D01*
X467031Y250391D01*
X467024Y250401D01*
X467009Y250415D01*
X466943Y250491D01*
X466600Y250834D01*
X466521Y250894D01*
X466449Y250962D01*
X466396Y250991D01*
X466348Y251028D01*
X466257Y251068D01*
X466171Y251116D01*
X466112Y251131D01*
X466056Y251155D01*
X465959Y251170D01*
X465863Y251195D01*
X465763Y251201D01*
X465742Y251205D01*
X465730Y251203D01*
X465702Y251205D01*
X434029Y251205D01*
X433931Y251193D01*
X433832Y251190D01*
X433774Y251173D01*
X433714Y251165D01*
X433622Y251129D01*
X433527Y251101D01*
X433474Y251071D01*
X433418Y251048D01*
X433338Y250990D01*
X433253Y250940D01*
X433177Y250874D01*
X433161Y250862D01*
X433153Y250852D01*
X433132Y250834D01*
X432789Y250491D01*
X432703Y250381D01*
X432615Y250274D01*
X432606Y250255D01*
X432594Y250239D01*
X432538Y250111D01*
X432479Y249986D01*
X432476Y249966D01*
X432468Y249947D01*
X432446Y249810D01*
X432420Y249673D01*
X432421Y249653D01*
X432418Y249633D01*
X432431Y249495D01*
X432439Y249356D01*
X432446Y249337D01*
X432447Y249317D01*
X432495Y249185D01*
X432537Y249054D01*
X432548Y249036D01*
X432555Y249017D01*
X432633Y248902D01*
X432708Y248785D01*
X432722Y248771D01*
X432734Y248754D01*
X432838Y248662D01*
X432939Y248567D01*
X432957Y248557D01*
X432972Y248544D01*
X433096Y248480D01*
X433218Y248413D01*
X433237Y248408D01*
X433255Y248399D01*
X433391Y248369D01*
X433526Y248334D01*
X433554Y248332D01*
X433566Y248329D01*
X433586Y248330D01*
X433686Y248324D01*
X444913Y248324D01*
X446699Y246538D01*
X446699Y234012D01*
X445359Y232672D01*
X445286Y232578D01*
X445207Y232489D01*
X445189Y232453D01*
X445164Y232421D01*
X445117Y232312D01*
X445063Y232206D01*
X445054Y232167D01*
X445038Y232129D01*
X445019Y232012D01*
X444993Y231896D01*
X444994Y231855D01*
X444988Y231815D01*
X444999Y231697D01*
X445003Y231578D01*
X445014Y231539D01*
X445018Y231499D01*
X445058Y231387D01*
X445091Y231272D01*
X445112Y231237D01*
X445125Y231199D01*
X445192Y231101D01*
X445253Y230998D01*
X445292Y230953D01*
X445304Y230936D01*
X445319Y230923D01*
X445359Y230877D01*
X446699Y229538D01*
X446699Y217012D01*
X446595Y216909D01*
X446535Y216831D01*
X446467Y216759D01*
X446438Y216706D01*
X446401Y216658D01*
X446361Y216567D01*
X446313Y216480D01*
X446298Y216421D01*
X446274Y216366D01*
X446259Y216268D01*
X446234Y216172D01*
X446228Y216072D01*
X446224Y216052D01*
X446226Y216039D01*
X446224Y216011D01*
X446224Y199587D01*
X444702Y198065D01*
X444617Y197956D01*
X444528Y197849D01*
X444520Y197830D01*
X444507Y197814D01*
X444452Y197686D01*
X444393Y197561D01*
X444389Y197541D01*
X444381Y197522D01*
X444359Y197384D01*
X444333Y197248D01*
X444334Y197228D01*
X444331Y197208D01*
X444344Y197069D01*
X444353Y196931D01*
X444359Y196912D01*
X444361Y196892D01*
X444408Y196760D01*
X444451Y196629D01*
X444461Y196611D01*
X444468Y196592D01*
X444546Y196477D01*
X444621Y196360D01*
X444636Y196346D01*
X444647Y196329D01*
X444751Y196237D01*
X444852Y196142D01*
X444870Y196132D01*
X444885Y196119D01*
X445009Y196055D01*
X445131Y195988D01*
X445150Y195983D01*
X445169Y195974D01*
X445304Y195944D01*
X445439Y195909D01*
X445467Y195907D01*
X445479Y195904D01*
X445499Y195905D01*
X445600Y195899D01*
X453938Y195899D01*
X455724Y194113D01*
X455724Y189030D01*
X455741Y188892D01*
X455754Y188753D01*
X455761Y188734D01*
X455764Y188714D01*
X455815Y188585D01*
X455862Y188454D01*
X455873Y188437D01*
X455881Y188419D01*
X455962Y188306D01*
X456040Y188191D01*
X456056Y188178D01*
X456067Y188161D01*
X456175Y188072D01*
X456279Y187981D01*
X456297Y187971D01*
X456312Y187958D01*
X456438Y187899D01*
X456562Y187836D01*
X456582Y187831D01*
X456600Y187823D01*
X456736Y187797D01*
X456872Y187766D01*
X456893Y187767D01*
X456912Y187763D01*
X457051Y187772D01*
G37*
G36*
X190790Y134763D02*
X190790Y134763D01*
X190909Y134770D01*
X190948Y134783D01*
X190988Y134788D01*
X191098Y134831D01*
X191212Y134868D01*
X191246Y134890D01*
X191283Y134905D01*
X191380Y134974D01*
X191480Y135038D01*
X191508Y135068D01*
X191541Y135091D01*
X191617Y135183D01*
X191698Y135270D01*
X191718Y135305D01*
X191744Y135336D01*
X191794Y135444D01*
X191852Y135548D01*
X191862Y135588D01*
X191879Y135624D01*
X191901Y135741D01*
X191931Y135856D01*
X191935Y135916D01*
X191939Y135936D01*
X191938Y135957D01*
X191941Y136017D01*
X191941Y136296D01*
X192981Y138807D01*
X194903Y140728D01*
X197413Y141768D01*
X200131Y141768D01*
X202641Y140728D01*
X204563Y138807D01*
X205332Y136951D01*
X205356Y136908D01*
X205373Y136861D01*
X205435Y136770D01*
X205489Y136675D01*
X205524Y136639D01*
X205552Y136598D01*
X205634Y136525D01*
X205711Y136446D01*
X205753Y136420D01*
X205790Y136387D01*
X205888Y136337D01*
X205982Y136280D01*
X206029Y136265D01*
X206073Y136243D01*
X206181Y136219D01*
X206286Y136186D01*
X206335Y136184D01*
X206384Y136173D01*
X206493Y136176D01*
X206603Y136171D01*
X206652Y136181D01*
X206702Y136183D01*
X206807Y136213D01*
X206915Y136235D01*
X206959Y136257D01*
X207007Y136271D01*
X207102Y136327D01*
X207200Y136375D01*
X207238Y136408D01*
X207281Y136433D01*
X207402Y136539D01*
X209491Y138629D01*
X209552Y138707D01*
X209620Y138779D01*
X209649Y138832D01*
X209686Y138880D01*
X209726Y138971D01*
X209773Y139057D01*
X209788Y139116D01*
X209813Y139172D01*
X209828Y139270D01*
X209853Y139365D01*
X209859Y139465D01*
X209862Y139486D01*
X209861Y139498D01*
X209863Y139526D01*
X209863Y140723D01*
X210903Y143233D01*
X212824Y145155D01*
X215491Y146260D01*
X215508Y146263D01*
X215556Y146286D01*
X215568Y146292D01*
X215580Y146298D01*
X215607Y146311D01*
X215709Y146352D01*
X215749Y146381D01*
X215794Y146403D01*
X215877Y146474D01*
X215966Y146539D01*
X215998Y146577D01*
X216036Y146609D01*
X216099Y146699D01*
X216169Y146784D01*
X216190Y146829D01*
X216219Y146869D01*
X216258Y146972D01*
X216305Y147071D01*
X216314Y147120D01*
X216332Y147167D01*
X216344Y147276D01*
X216364Y147384D01*
X216361Y147433D01*
X216367Y147483D01*
X216352Y147592D01*
X216345Y147701D01*
X216329Y147748D01*
X216322Y147798D01*
X216270Y147950D01*
X215264Y150379D01*
X215264Y154421D01*
X216811Y158156D01*
X218957Y160301D01*
X219017Y160379D01*
X219085Y160451D01*
X219114Y160504D01*
X219151Y160552D01*
X219191Y160643D01*
X219239Y160730D01*
X219254Y160788D01*
X219278Y160844D01*
X219293Y160942D01*
X219318Y161038D01*
X219324Y161129D01*
X219326Y161139D01*
X219325Y161144D01*
X219328Y161158D01*
X219326Y161170D01*
X219328Y161198D01*
X219328Y161632D01*
X219313Y161750D01*
X219306Y161869D01*
X219293Y161907D01*
X219288Y161948D01*
X219245Y162058D01*
X219208Y162171D01*
X219186Y162206D01*
X219171Y162243D01*
X219102Y162339D01*
X219038Y162440D01*
X219008Y162468D01*
X218985Y162501D01*
X218893Y162577D01*
X218806Y162658D01*
X218771Y162678D01*
X218740Y162703D01*
X218632Y162754D01*
X218528Y162812D01*
X218488Y162822D01*
X218452Y162839D01*
X218335Y162861D01*
X218220Y162891D01*
X218160Y162895D01*
X218140Y162899D01*
X216798Y164241D01*
X216703Y164314D01*
X216614Y164393D01*
X216578Y164411D01*
X216546Y164436D01*
X216437Y164483D01*
X216331Y164537D01*
X216292Y164546D01*
X216254Y164562D01*
X216137Y164581D01*
X216021Y164607D01*
X215980Y164606D01*
X215940Y164612D01*
X215822Y164601D01*
X215703Y164597D01*
X215664Y164586D01*
X215624Y164582D01*
X215511Y164542D01*
X215397Y164509D01*
X215363Y164488D01*
X215324Y164475D01*
X215226Y164408D01*
X215123Y164347D01*
X215078Y164307D01*
X215061Y164296D01*
X215048Y164281D01*
X215003Y164241D01*
X213663Y162901D01*
X201137Y162901D01*
X199351Y164687D01*
X199351Y178213D01*
X199542Y178403D01*
X199585Y178459D01*
X199635Y178507D01*
X199682Y178584D01*
X199737Y178655D01*
X199765Y178719D01*
X199801Y178778D01*
X199827Y178864D01*
X199863Y178946D01*
X199874Y179015D01*
X199895Y179082D01*
X199899Y179172D01*
X199913Y179261D01*
X199906Y179330D01*
X199910Y179400D01*
X199892Y179488D01*
X199883Y179577D01*
X199860Y179643D01*
X199845Y179711D01*
X199806Y179792D01*
X199776Y179876D01*
X199736Y179934D01*
X199706Y179997D01*
X199647Y180065D01*
X199597Y180140D01*
X199545Y180186D01*
X199499Y180239D01*
X199426Y180291D01*
X199359Y180350D01*
X199296Y180382D01*
X199239Y180422D01*
X199155Y180454D01*
X199075Y180495D01*
X199007Y180510D01*
X198942Y180535D01*
X198853Y180545D01*
X198765Y180564D01*
X198695Y180562D01*
X198626Y180570D01*
X198537Y180557D01*
X198447Y180555D01*
X198380Y180535D01*
X198311Y180526D01*
X198219Y180494D01*
X195491Y180494D01*
X194992Y180701D01*
X194878Y180732D01*
X194765Y180771D01*
X194725Y180774D01*
X194686Y180785D01*
X194566Y180787D01*
X194448Y180796D01*
X194408Y180789D01*
X194368Y180790D01*
X194252Y180762D01*
X194135Y180742D01*
X194098Y180725D01*
X194058Y180716D01*
X193953Y180660D01*
X193845Y180611D01*
X193813Y180586D01*
X193777Y180567D01*
X193689Y180487D01*
X193596Y180413D01*
X193572Y180380D01*
X193542Y180353D01*
X193477Y180254D01*
X193405Y180159D01*
X193379Y180105D01*
X193367Y180087D01*
X193361Y180068D01*
X193334Y180014D01*
X193116Y179487D01*
X191194Y177565D01*
X188684Y176526D01*
X185966Y176526D01*
X183456Y177565D01*
X181534Y179487D01*
X181179Y180344D01*
X181165Y180369D01*
X181156Y180397D01*
X181086Y180507D01*
X181022Y180620D01*
X181001Y180641D01*
X180985Y180666D01*
X180891Y180755D01*
X180800Y180848D01*
X180775Y180864D01*
X180754Y180884D01*
X180640Y180947D01*
X180529Y181015D01*
X180501Y181023D01*
X180475Y181038D01*
X180350Y181070D01*
X180225Y181108D01*
X180196Y181110D01*
X180167Y181117D01*
X180007Y181127D01*
X175554Y181127D01*
X175416Y181110D01*
X175277Y181097D01*
X175258Y181090D01*
X175238Y181087D01*
X175109Y181036D01*
X174978Y180989D01*
X174961Y180978D01*
X174943Y180970D01*
X174830Y180889D01*
X174715Y180811D01*
X174702Y180795D01*
X174685Y180784D01*
X174596Y180676D01*
X174505Y180572D01*
X174495Y180554D01*
X174482Y180539D01*
X174423Y180413D01*
X174360Y180289D01*
X174355Y180269D01*
X174347Y180251D01*
X174321Y180114D01*
X174290Y179979D01*
X174291Y179958D01*
X174287Y179939D01*
X174296Y179800D01*
X174300Y179661D01*
X174306Y179641D01*
X174307Y179621D01*
X174350Y179489D01*
X174388Y179355D01*
X174399Y179338D01*
X174405Y179319D01*
X174479Y179201D01*
X174550Y179081D01*
X174568Y179060D01*
X174575Y179050D01*
X174590Y179036D01*
X174656Y178961D01*
X176023Y177594D01*
X176023Y160862D01*
X176038Y160744D01*
X176045Y160625D01*
X176058Y160586D01*
X176063Y160546D01*
X176106Y160435D01*
X176143Y160322D01*
X176165Y160288D01*
X176180Y160251D01*
X176249Y160154D01*
X176313Y160054D01*
X176343Y160026D01*
X176366Y159993D01*
X176458Y159917D01*
X176545Y159836D01*
X176580Y159816D01*
X176611Y159790D01*
X176719Y159740D01*
X176823Y159682D01*
X176863Y159672D01*
X176899Y159655D01*
X177016Y159632D01*
X177131Y159603D01*
X177191Y159599D01*
X177211Y159595D01*
X177232Y159596D01*
X177292Y159592D01*
X188825Y159592D01*
X190611Y157807D01*
X190611Y144281D01*
X188825Y142495D01*
X179455Y142495D01*
X179317Y142478D01*
X179178Y142465D01*
X179159Y142458D01*
X179139Y142455D01*
X179010Y142404D01*
X178879Y142357D01*
X178862Y142346D01*
X178844Y142338D01*
X178731Y142256D01*
X178616Y142178D01*
X178603Y142163D01*
X178586Y142151D01*
X178497Y142044D01*
X178406Y141940D01*
X178396Y141922D01*
X178383Y141906D01*
X178324Y141781D01*
X178261Y141657D01*
X178256Y141637D01*
X178248Y141619D01*
X178222Y141482D01*
X178191Y141346D01*
X178192Y141326D01*
X178188Y141306D01*
X178197Y141168D01*
X178201Y141029D01*
X178207Y141009D01*
X178208Y140989D01*
X178251Y140857D01*
X178289Y140723D01*
X178300Y140706D01*
X178306Y140686D01*
X178380Y140569D01*
X178451Y140449D01*
X178469Y140428D01*
X178476Y140418D01*
X178491Y140404D01*
X178557Y140328D01*
X183766Y135119D01*
X183844Y135059D01*
X183916Y134991D01*
X183969Y134962D01*
X184017Y134925D01*
X184108Y134885D01*
X184195Y134837D01*
X184254Y134822D01*
X184309Y134798D01*
X184407Y134783D01*
X184503Y134758D01*
X184603Y134752D01*
X184623Y134748D01*
X184636Y134750D01*
X184664Y134748D01*
X190672Y134748D01*
X190790Y134763D01*
G37*
G36*
X438475Y179213D02*
X438475Y179213D01*
X438594Y179220D01*
X438632Y179233D01*
X438673Y179238D01*
X438783Y179281D01*
X438896Y179318D01*
X438931Y179340D01*
X438968Y179355D01*
X439064Y179424D01*
X439165Y179488D01*
X439193Y179518D01*
X439226Y179541D01*
X439302Y179633D01*
X439383Y179720D01*
X439403Y179755D01*
X439428Y179786D01*
X439479Y179894D01*
X439537Y179998D01*
X439547Y180038D01*
X439564Y180074D01*
X439586Y180191D01*
X439616Y180306D01*
X439620Y180366D01*
X439624Y180386D01*
X439622Y180407D01*
X439626Y180467D01*
X439626Y194113D01*
X441148Y195635D01*
X441233Y195744D01*
X441322Y195851D01*
X441330Y195870D01*
X441343Y195886D01*
X441398Y196014D01*
X441457Y196139D01*
X441461Y196159D01*
X441469Y196178D01*
X441491Y196316D01*
X441517Y196452D01*
X441516Y196472D01*
X441519Y196492D01*
X441506Y196631D01*
X441497Y196769D01*
X441491Y196788D01*
X441489Y196808D01*
X441442Y196940D01*
X441399Y197071D01*
X441389Y197089D01*
X441382Y197108D01*
X441304Y197223D01*
X441229Y197340D01*
X441214Y197354D01*
X441203Y197371D01*
X441099Y197463D01*
X440998Y197558D01*
X440980Y197568D01*
X440965Y197581D01*
X440841Y197645D01*
X440719Y197712D01*
X440700Y197717D01*
X440681Y197726D01*
X440546Y197756D01*
X440411Y197791D01*
X440383Y197793D01*
X440371Y197796D01*
X440351Y197795D01*
X440250Y197801D01*
X431912Y197801D01*
X430126Y199587D01*
X430126Y215961D01*
X430114Y216060D01*
X430111Y216159D01*
X430094Y216217D01*
X430086Y216277D01*
X430050Y216369D01*
X430022Y216464D01*
X429992Y216516D01*
X429969Y216573D01*
X429911Y216653D01*
X429861Y216738D01*
X429795Y216813D01*
X429783Y216830D01*
X429773Y216838D01*
X429755Y216859D01*
X429601Y217012D01*
X429601Y229538D01*
X430941Y230877D01*
X431014Y230972D01*
X431093Y231061D01*
X431111Y231097D01*
X431136Y231129D01*
X431183Y231238D01*
X431237Y231344D01*
X431246Y231383D01*
X431262Y231421D01*
X431281Y231538D01*
X431307Y231654D01*
X431306Y231695D01*
X431312Y231735D01*
X431301Y231853D01*
X431297Y231972D01*
X431286Y232011D01*
X431282Y232051D01*
X431242Y232163D01*
X431209Y232278D01*
X431188Y232312D01*
X431175Y232351D01*
X431108Y232449D01*
X431047Y232552D01*
X431008Y232597D01*
X430996Y232614D01*
X430981Y232627D01*
X430941Y232672D01*
X430716Y232898D01*
X430622Y232971D01*
X430533Y233049D01*
X430497Y233068D01*
X430465Y233092D01*
X430356Y233140D01*
X430249Y233194D01*
X430210Y233203D01*
X430173Y233219D01*
X430055Y233237D01*
X429939Y233264D01*
X429899Y233262D01*
X429859Y233269D01*
X429740Y233258D01*
X429621Y233254D01*
X429582Y233243D01*
X429542Y233239D01*
X429430Y233199D01*
X429316Y233166D01*
X429281Y233145D01*
X429243Y233131D01*
X429144Y233065D01*
X429042Y233004D01*
X428996Y232964D01*
X428980Y232953D01*
X428966Y232938D01*
X428921Y232898D01*
X411670Y215647D01*
X411610Y215569D01*
X411542Y215497D01*
X411513Y215444D01*
X411476Y215396D01*
X411436Y215305D01*
X411388Y215218D01*
X411373Y215160D01*
X411349Y215104D01*
X411334Y215006D01*
X411309Y214910D01*
X411303Y214810D01*
X411299Y214790D01*
X411301Y214778D01*
X411299Y214750D01*
X411299Y199587D01*
X409777Y198065D01*
X409692Y197956D01*
X409603Y197849D01*
X409595Y197830D01*
X409582Y197814D01*
X409527Y197686D01*
X409468Y197561D01*
X409464Y197541D01*
X409456Y197522D01*
X409434Y197384D01*
X409408Y197248D01*
X409409Y197228D01*
X409406Y197208D01*
X409419Y197069D01*
X409428Y196931D01*
X409434Y196912D01*
X409436Y196892D01*
X409483Y196760D01*
X409526Y196629D01*
X409536Y196611D01*
X409543Y196592D01*
X409621Y196477D01*
X409696Y196360D01*
X409711Y196346D01*
X409722Y196329D01*
X409826Y196237D01*
X409927Y196142D01*
X409945Y196132D01*
X409960Y196119D01*
X410084Y196055D01*
X410206Y195988D01*
X410225Y195983D01*
X410244Y195974D01*
X410379Y195944D01*
X410514Y195909D01*
X410542Y195907D01*
X410554Y195904D01*
X410574Y195905D01*
X410675Y195899D01*
X419013Y195899D01*
X420799Y194113D01*
X420799Y180467D01*
X420814Y180349D01*
X420821Y180230D01*
X420834Y180192D01*
X420839Y180151D01*
X420882Y180041D01*
X420919Y179928D01*
X420941Y179893D01*
X420956Y179856D01*
X421025Y179760D01*
X421089Y179659D01*
X421119Y179631D01*
X421142Y179598D01*
X421234Y179522D01*
X421321Y179441D01*
X421356Y179421D01*
X421387Y179396D01*
X421495Y179345D01*
X421599Y179287D01*
X421639Y179277D01*
X421675Y179260D01*
X421792Y179238D01*
X421907Y179208D01*
X421967Y179204D01*
X421987Y179200D01*
X422008Y179202D01*
X422068Y179198D01*
X438357Y179198D01*
X438475Y179213D01*
G37*
%LPC*%
G36*
X299604Y243839D02*
X299604Y243839D01*
X295869Y245386D01*
X293011Y248244D01*
X291464Y251979D01*
X291464Y256021D01*
X293011Y259756D01*
X295869Y262614D01*
X299604Y264161D01*
X303646Y264161D01*
X307381Y262614D01*
X310239Y259756D01*
X311786Y256021D01*
X311786Y251979D01*
X310239Y248244D01*
X307381Y245386D01*
X303646Y243839D01*
X299604Y243839D01*
G37*
%LPD*%
%LPC*%
G36*
X570677Y231647D02*
X570677Y231647D01*
X565022Y237302D01*
X565022Y245298D01*
X570677Y250953D01*
X578673Y250953D01*
X584328Y245298D01*
X584328Y237302D01*
X578673Y231647D01*
X570677Y231647D01*
G37*
%LPD*%
%LPC*%
G36*
X570677Y155447D02*
X570677Y155447D01*
X565022Y161102D01*
X565022Y169098D01*
X570677Y174753D01*
X578673Y174753D01*
X584328Y169098D01*
X584328Y161102D01*
X578673Y155447D01*
X570677Y155447D01*
G37*
%LPD*%
%LPC*%
G36*
X545277Y155447D02*
X545277Y155447D01*
X539622Y161102D01*
X539622Y169098D01*
X545277Y174753D01*
X553273Y174753D01*
X558928Y169098D01*
X558928Y161102D01*
X553273Y155447D01*
X545277Y155447D01*
G37*
%LPD*%
%LPC*%
G36*
X405577Y95122D02*
X405577Y95122D01*
X399922Y100777D01*
X399922Y108773D01*
X405577Y114428D01*
X413573Y114428D01*
X419228Y108773D01*
X419228Y100777D01*
X413573Y95122D01*
X405577Y95122D01*
G37*
%LPD*%
%LPC*%
G36*
X405577Y69722D02*
X405577Y69722D01*
X399922Y75377D01*
X399922Y83373D01*
X405577Y89028D01*
X413573Y89028D01*
X419228Y83373D01*
X419228Y75377D01*
X413573Y69722D01*
X405577Y69722D01*
G37*
%LPD*%
%LPC*%
G36*
X481777Y69722D02*
X481777Y69722D01*
X476122Y75377D01*
X476122Y83373D01*
X481777Y89028D01*
X489773Y89028D01*
X495428Y83373D01*
X495428Y75377D01*
X489773Y69722D01*
X481777Y69722D01*
G37*
%LPD*%
D10*
X45363Y192031D02*
X45363Y181031D01*
X40363Y181031D01*
X40363Y192031D01*
X45363Y192031D01*
X45363Y185781D02*
X40363Y185781D01*
X40363Y190531D02*
X45363Y190531D01*
X52444Y150694D02*
X63444Y150694D01*
X52444Y150694D02*
X52444Y155694D01*
X63444Y155694D01*
X63444Y150694D01*
X63444Y155444D02*
X52444Y155444D01*
D11*
X157725Y266700D03*
X140725Y266700D03*
D12*
X171425Y288925D03*
X152425Y288925D03*
D11*
X78813Y143669D03*
X95813Y143669D03*
D12*
X88131Y123031D03*
X107131Y123031D03*
D13*
X41275Y261375D03*
X41275Y278375D03*
X182563Y151044D03*
X182563Y168044D03*
D11*
X129150Y317500D03*
X112150Y317500D03*
X59300Y244475D03*
X42300Y244475D03*
D10*
X143550Y100750D02*
X143550Y89750D01*
X143550Y100750D02*
X148550Y100750D01*
X148550Y89750D01*
X143550Y89750D01*
X143550Y94500D02*
X148550Y94500D01*
X148550Y99250D02*
X143550Y99250D01*
D13*
X170425Y311150D03*
X153425Y311150D03*
D10*
X151550Y337225D02*
X140550Y337225D01*
X140550Y342225D01*
X151550Y342225D01*
X151550Y337225D01*
X151550Y341975D02*
X140550Y341975D01*
D13*
X112150Y295275D03*
X129150Y295275D03*
D11*
X36513Y218050D03*
X36513Y201050D03*
D14*
X95950Y260350D03*
X107950Y260350D03*
X119950Y260350D03*
D15*
X149225Y368400D03*
X299945Y280720D03*
X299945Y125680D03*
X149225Y38000D03*
X77725Y327100D03*
X220725Y327100D03*
X220725Y79300D03*
X77725Y79300D03*
X449225Y368400D03*
X592325Y285800D03*
X592325Y120600D03*
X449225Y38000D03*
X6158Y285800D03*
X6158Y120600D03*
X6125Y203200D03*
D16*
X203200Y259444D03*
X193700Y237444D03*
X212700Y237444D03*
D17*
X407875Y285750D03*
X385875Y295250D03*
X385875Y276250D03*
D16*
X517525Y185850D03*
X527025Y207850D03*
X508025Y207850D03*
X447675Y185850D03*
X457175Y207850D03*
X438175Y207850D03*
X412750Y185850D03*
X422250Y207850D03*
X403250Y207850D03*
D17*
X214200Y292100D03*
X192200Y301600D03*
X192200Y282600D03*
D16*
X482600Y185850D03*
X492100Y207850D03*
X473100Y207850D03*
D13*
X367275Y276225D03*
X350275Y276225D03*
D11*
X508000Y223275D03*
X508000Y240275D03*
X438150Y223275D03*
X438150Y240275D03*
D13*
X389500Y200025D03*
X372500Y200025D03*
D11*
X473075Y223275D03*
X473075Y240275D03*
D13*
X241863Y271463D03*
X224863Y271463D03*
X350275Y239713D03*
X367275Y239713D03*
X309000Y169069D03*
X326000Y169069D03*
X242325Y169069D03*
X259325Y169069D03*
X224400Y171450D03*
X207400Y171450D03*
X246625Y292100D03*
X229625Y292100D03*
X274075Y169069D03*
X291075Y169069D03*
D18*
X225425Y152400D03*
X250825Y152400D03*
X276225Y152400D03*
X301625Y152400D03*
X327025Y152400D03*
X352425Y152400D03*
X377825Y152400D03*
X377825Y254000D03*
X352425Y254000D03*
X327025Y254000D03*
X301625Y254000D03*
X276225Y254000D03*
X250825Y254000D03*
X225425Y254000D03*
D19*
X574675Y241300D03*
X549275Y241300D03*
X574675Y165100D03*
X549275Y165100D03*
D20*
X485775Y79375D03*
X485775Y104775D03*
X409575Y79375D03*
X409575Y104775D03*
D21*
X97744Y234825D02*
X96494Y234825D01*
X96494Y240575D01*
X97744Y240575D01*
X97744Y234825D01*
X97744Y236012D02*
X96494Y236012D01*
X96494Y237199D02*
X97744Y237199D01*
X97744Y238386D02*
X96494Y238386D01*
X96494Y239573D02*
X97744Y239573D01*
X101494Y234825D02*
X102744Y234825D01*
X101494Y234825D02*
X101494Y240575D01*
X102744Y240575D01*
X102744Y234825D01*
X102744Y236012D02*
X101494Y236012D01*
X101494Y237199D02*
X102744Y237199D01*
X102744Y238386D02*
X101494Y238386D01*
X101494Y239573D02*
X102744Y239573D01*
X106494Y234825D02*
X107744Y234825D01*
X106494Y234825D02*
X106494Y240575D01*
X107744Y240575D01*
X107744Y234825D01*
X107744Y236012D02*
X106494Y236012D01*
X106494Y237199D02*
X107744Y237199D01*
X107744Y238386D02*
X106494Y238386D01*
X106494Y239573D02*
X107744Y239573D01*
X111494Y234825D02*
X112744Y234825D01*
X111494Y234825D02*
X111494Y240575D01*
X112744Y240575D01*
X112744Y234825D01*
X112744Y236012D02*
X111494Y236012D01*
X111494Y237199D02*
X112744Y237199D01*
X112744Y238386D02*
X111494Y238386D01*
X111494Y239573D02*
X112744Y239573D01*
X116494Y234825D02*
X117744Y234825D01*
X116494Y234825D02*
X116494Y240575D01*
X117744Y240575D01*
X117744Y234825D01*
X117744Y236012D02*
X116494Y236012D01*
X116494Y237199D02*
X117744Y237199D01*
X117744Y238386D02*
X116494Y238386D01*
X116494Y239573D02*
X117744Y239573D01*
X121494Y234825D02*
X122744Y234825D01*
X121494Y234825D02*
X121494Y240575D01*
X122744Y240575D01*
X122744Y234825D01*
X122744Y236012D02*
X121494Y236012D01*
X121494Y237199D02*
X122744Y237199D01*
X122744Y238386D02*
X121494Y238386D01*
X121494Y239573D02*
X122744Y239573D01*
X126494Y234825D02*
X127744Y234825D01*
X126494Y234825D02*
X126494Y240575D01*
X127744Y240575D01*
X127744Y234825D01*
X127744Y236012D02*
X126494Y236012D01*
X126494Y237199D02*
X127744Y237199D01*
X127744Y238386D02*
X126494Y238386D01*
X126494Y239573D02*
X127744Y239573D01*
X131494Y234825D02*
X132744Y234825D01*
X131494Y234825D02*
X131494Y240575D01*
X132744Y240575D01*
X132744Y234825D01*
X132744Y236012D02*
X131494Y236012D01*
X131494Y237199D02*
X132744Y237199D01*
X132744Y238386D02*
X131494Y238386D01*
X131494Y239573D02*
X132744Y239573D01*
X136494Y234825D02*
X137744Y234825D01*
X136494Y234825D02*
X136494Y240575D01*
X137744Y240575D01*
X137744Y234825D01*
X137744Y236012D02*
X136494Y236012D01*
X136494Y237199D02*
X137744Y237199D01*
X137744Y238386D02*
X136494Y238386D01*
X136494Y239573D02*
X137744Y239573D01*
X141494Y234825D02*
X142744Y234825D01*
X141494Y234825D02*
X141494Y240575D01*
X142744Y240575D01*
X142744Y234825D01*
X142744Y236012D02*
X141494Y236012D01*
X141494Y237199D02*
X142744Y237199D01*
X142744Y238386D02*
X141494Y238386D01*
X141494Y239573D02*
X142744Y239573D01*
X146494Y234825D02*
X147744Y234825D01*
X146494Y234825D02*
X146494Y240575D01*
X147744Y240575D01*
X147744Y234825D01*
X147744Y236012D02*
X146494Y236012D01*
X146494Y237199D02*
X147744Y237199D01*
X147744Y238386D02*
X146494Y238386D01*
X146494Y239573D02*
X147744Y239573D01*
X151494Y234825D02*
X152744Y234825D01*
X151494Y234825D02*
X151494Y240575D01*
X152744Y240575D01*
X152744Y234825D01*
X152744Y236012D02*
X151494Y236012D01*
X151494Y237199D02*
X152744Y237199D01*
X152744Y238386D02*
X151494Y238386D01*
X151494Y239573D02*
X152744Y239573D01*
X156244Y231325D02*
X156244Y230075D01*
X156244Y231325D02*
X161994Y231325D01*
X161994Y230075D01*
X156244Y230075D01*
X156244Y231262D02*
X161994Y231262D01*
X156244Y226325D02*
X156244Y225075D01*
X156244Y226325D02*
X161994Y226325D01*
X161994Y225075D01*
X156244Y225075D01*
X156244Y226262D02*
X161994Y226262D01*
X156244Y221325D02*
X156244Y220075D01*
X156244Y221325D02*
X161994Y221325D01*
X161994Y220075D01*
X156244Y220075D01*
X156244Y221262D02*
X161994Y221262D01*
X156244Y216325D02*
X156244Y215075D01*
X156244Y216325D02*
X161994Y216325D01*
X161994Y215075D01*
X156244Y215075D01*
X156244Y216262D02*
X161994Y216262D01*
X156244Y211325D02*
X156244Y210075D01*
X156244Y211325D02*
X161994Y211325D01*
X161994Y210075D01*
X156244Y210075D01*
X156244Y211262D02*
X161994Y211262D01*
X156244Y206325D02*
X156244Y205075D01*
X156244Y206325D02*
X161994Y206325D01*
X161994Y205075D01*
X156244Y205075D01*
X156244Y206262D02*
X161994Y206262D01*
X156244Y201325D02*
X156244Y200075D01*
X156244Y201325D02*
X161994Y201325D01*
X161994Y200075D01*
X156244Y200075D01*
X156244Y201262D02*
X161994Y201262D01*
X156244Y196325D02*
X156244Y195075D01*
X156244Y196325D02*
X161994Y196325D01*
X161994Y195075D01*
X156244Y195075D01*
X156244Y196262D02*
X161994Y196262D01*
X156244Y191325D02*
X156244Y190075D01*
X156244Y191325D02*
X161994Y191325D01*
X161994Y190075D01*
X156244Y190075D01*
X156244Y191262D02*
X161994Y191262D01*
X156244Y186325D02*
X156244Y185075D01*
X156244Y186325D02*
X161994Y186325D01*
X161994Y185075D01*
X156244Y185075D01*
X156244Y186262D02*
X161994Y186262D01*
X156244Y181325D02*
X156244Y180075D01*
X156244Y181325D02*
X161994Y181325D01*
X161994Y180075D01*
X156244Y180075D01*
X156244Y181262D02*
X161994Y181262D01*
X156244Y176325D02*
X156244Y175075D01*
X156244Y176325D02*
X161994Y176325D01*
X161994Y175075D01*
X156244Y175075D01*
X156244Y176262D02*
X161994Y176262D01*
X152744Y171575D02*
X151494Y171575D01*
X152744Y171575D02*
X152744Y165825D01*
X151494Y165825D01*
X151494Y171575D01*
X151494Y167012D02*
X152744Y167012D01*
X152744Y168199D02*
X151494Y168199D01*
X151494Y169386D02*
X152744Y169386D01*
X152744Y170573D02*
X151494Y170573D01*
X147744Y171575D02*
X146494Y171575D01*
X147744Y171575D02*
X147744Y165825D01*
X146494Y165825D01*
X146494Y171575D01*
X146494Y167012D02*
X147744Y167012D01*
X147744Y168199D02*
X146494Y168199D01*
X146494Y169386D02*
X147744Y169386D01*
X147744Y170573D02*
X146494Y170573D01*
X142744Y171575D02*
X141494Y171575D01*
X142744Y171575D02*
X142744Y165825D01*
X141494Y165825D01*
X141494Y171575D01*
X141494Y167012D02*
X142744Y167012D01*
X142744Y168199D02*
X141494Y168199D01*
X141494Y169386D02*
X142744Y169386D01*
X142744Y170573D02*
X141494Y170573D01*
X137744Y171575D02*
X136494Y171575D01*
X137744Y171575D02*
X137744Y165825D01*
X136494Y165825D01*
X136494Y171575D01*
X136494Y167012D02*
X137744Y167012D01*
X137744Y168199D02*
X136494Y168199D01*
X136494Y169386D02*
X137744Y169386D01*
X137744Y170573D02*
X136494Y170573D01*
X132744Y171575D02*
X131494Y171575D01*
X132744Y171575D02*
X132744Y165825D01*
X131494Y165825D01*
X131494Y171575D01*
X131494Y167012D02*
X132744Y167012D01*
X132744Y168199D02*
X131494Y168199D01*
X131494Y169386D02*
X132744Y169386D01*
X132744Y170573D02*
X131494Y170573D01*
X127744Y171575D02*
X126494Y171575D01*
X127744Y171575D02*
X127744Y165825D01*
X126494Y165825D01*
X126494Y171575D01*
X126494Y167012D02*
X127744Y167012D01*
X127744Y168199D02*
X126494Y168199D01*
X126494Y169386D02*
X127744Y169386D01*
X127744Y170573D02*
X126494Y170573D01*
X122744Y171575D02*
X121494Y171575D01*
X122744Y171575D02*
X122744Y165825D01*
X121494Y165825D01*
X121494Y171575D01*
X121494Y167012D02*
X122744Y167012D01*
X122744Y168199D02*
X121494Y168199D01*
X121494Y169386D02*
X122744Y169386D01*
X122744Y170573D02*
X121494Y170573D01*
X117744Y171575D02*
X116494Y171575D01*
X117744Y171575D02*
X117744Y165825D01*
X116494Y165825D01*
X116494Y171575D01*
X116494Y167012D02*
X117744Y167012D01*
X117744Y168199D02*
X116494Y168199D01*
X116494Y169386D02*
X117744Y169386D01*
X117744Y170573D02*
X116494Y170573D01*
X112744Y171575D02*
X111494Y171575D01*
X112744Y171575D02*
X112744Y165825D01*
X111494Y165825D01*
X111494Y171575D01*
X111494Y167012D02*
X112744Y167012D01*
X112744Y168199D02*
X111494Y168199D01*
X111494Y169386D02*
X112744Y169386D01*
X112744Y170573D02*
X111494Y170573D01*
X107744Y171575D02*
X106494Y171575D01*
X107744Y171575D02*
X107744Y165825D01*
X106494Y165825D01*
X106494Y171575D01*
X106494Y167012D02*
X107744Y167012D01*
X107744Y168199D02*
X106494Y168199D01*
X106494Y169386D02*
X107744Y169386D01*
X107744Y170573D02*
X106494Y170573D01*
X102744Y171575D02*
X101494Y171575D01*
X102744Y171575D02*
X102744Y165825D01*
X101494Y165825D01*
X101494Y171575D01*
X101494Y167012D02*
X102744Y167012D01*
X102744Y168199D02*
X101494Y168199D01*
X101494Y169386D02*
X102744Y169386D01*
X102744Y170573D02*
X101494Y170573D01*
X97744Y171575D02*
X96494Y171575D01*
X97744Y171575D02*
X97744Y165825D01*
X96494Y165825D01*
X96494Y171575D01*
X96494Y167012D02*
X97744Y167012D01*
X97744Y168199D02*
X96494Y168199D01*
X96494Y169386D02*
X97744Y169386D01*
X97744Y170573D02*
X96494Y170573D01*
X92994Y175075D02*
X92994Y176325D01*
X92994Y175075D02*
X87244Y175075D01*
X87244Y176325D01*
X92994Y176325D01*
X92994Y176262D02*
X87244Y176262D01*
X92994Y180075D02*
X92994Y181325D01*
X92994Y180075D02*
X87244Y180075D01*
X87244Y181325D01*
X92994Y181325D01*
X92994Y181262D02*
X87244Y181262D01*
X92994Y185075D02*
X92994Y186325D01*
X92994Y185075D02*
X87244Y185075D01*
X87244Y186325D01*
X92994Y186325D01*
X92994Y186262D02*
X87244Y186262D01*
X92994Y190075D02*
X92994Y191325D01*
X92994Y190075D02*
X87244Y190075D01*
X87244Y191325D01*
X92994Y191325D01*
X92994Y191262D02*
X87244Y191262D01*
X92994Y195075D02*
X92994Y196325D01*
X92994Y195075D02*
X87244Y195075D01*
X87244Y196325D01*
X92994Y196325D01*
X92994Y196262D02*
X87244Y196262D01*
X92994Y200075D02*
X92994Y201325D01*
X92994Y200075D02*
X87244Y200075D01*
X87244Y201325D01*
X92994Y201325D01*
X92994Y201262D02*
X87244Y201262D01*
X92994Y205075D02*
X92994Y206325D01*
X92994Y205075D02*
X87244Y205075D01*
X87244Y206325D01*
X92994Y206325D01*
X92994Y206262D02*
X87244Y206262D01*
X92994Y210075D02*
X92994Y211325D01*
X92994Y210075D02*
X87244Y210075D01*
X87244Y211325D01*
X92994Y211325D01*
X92994Y211262D02*
X87244Y211262D01*
X92994Y215075D02*
X92994Y216325D01*
X92994Y215075D02*
X87244Y215075D01*
X87244Y216325D01*
X92994Y216325D01*
X92994Y216262D02*
X87244Y216262D01*
X92994Y220075D02*
X92994Y221325D01*
X92994Y220075D02*
X87244Y220075D01*
X87244Y221325D01*
X92994Y221325D01*
X92994Y221262D02*
X87244Y221262D01*
X92994Y225075D02*
X92994Y226325D01*
X92994Y225075D02*
X87244Y225075D01*
X87244Y226325D01*
X92994Y226325D01*
X92994Y226262D02*
X87244Y226262D01*
X92994Y230075D02*
X92994Y231325D01*
X92994Y230075D02*
X87244Y230075D01*
X87244Y231325D01*
X92994Y231325D01*
X92994Y231262D02*
X87244Y231262D01*
D22*
X124619Y203200D03*
D23*
X78813Y143669D02*
X78813Y134938D01*
X88131Y125619D01*
X88131Y123031D01*
D24*
X97119Y237700D02*
X97119Y242606D01*
X95250Y244475D01*
X77788Y244475D01*
X59300Y244475D01*
X77788Y234156D02*
X81244Y230700D01*
X77788Y234156D02*
X77788Y244475D01*
X92075Y157163D02*
X78813Y143900D01*
X78813Y143669D01*
X92075Y157163D02*
X97119Y157163D01*
X171450Y155575D02*
X171450Y165894D01*
X171450Y175700D01*
X171450Y155575D02*
X175981Y151044D01*
X182563Y151044D01*
D25*
X92075Y157163D03*
X28575Y257175D03*
D23*
X87338Y123825D02*
X88131Y123031D01*
X87338Y123825D02*
X69850Y123825D01*
D25*
X69850Y123825D03*
D23*
X153425Y311150D02*
X153425Y321700D01*
X157163Y325438D01*
X158750Y325438D01*
D25*
X158750Y325438D03*
X102394Y107156D03*
X141288Y304800D03*
D23*
X147638Y311150D01*
X153425Y311150D01*
X32775Y261375D02*
X28575Y257175D01*
X32775Y261375D02*
X41275Y261375D01*
X59300Y247088D02*
X59300Y244475D01*
X59300Y247088D02*
X45013Y261375D01*
X41275Y261375D01*
D24*
X81244Y230700D02*
X90119Y230700D01*
X97119Y168700D02*
X97119Y157163D01*
X159119Y175700D02*
X171450Y175700D01*
D25*
X159893Y165894D03*
D24*
X171450Y165894D01*
D23*
X102394Y107156D02*
X98425Y111125D01*
X93663Y111125D01*
X88131Y116656D01*
X88131Y123031D01*
D24*
X422250Y196850D02*
X422250Y207850D01*
X422250Y196850D02*
X457175Y196850D01*
X492100Y196850D01*
X527050Y196850D01*
X527050Y207850D01*
X527025Y207850D01*
X492100Y207850D02*
X492100Y196850D01*
X457175Y196850D02*
X457175Y207850D01*
X290449Y222250D02*
X235767Y222250D01*
X239738Y226220D01*
X336550Y295250D02*
X385875Y295250D01*
X336550Y295250D02*
X327025Y295250D01*
X336550Y295250D02*
X336550Y295275D01*
X327025Y265176D02*
X290449Y265176D01*
X327025Y265176D02*
X327025Y295250D01*
X290449Y265176D02*
X290449Y222250D01*
X107131Y130994D02*
X107131Y123031D01*
X107131Y130994D02*
X95813Y142313D01*
X95813Y143669D01*
X107950Y260350D02*
X107950Y295275D01*
X112150Y295275D01*
X112150Y317500D02*
X107963Y317500D01*
X107963Y302537D01*
X107950Y302537D01*
X107950Y295275D01*
X42300Y244475D02*
X12700Y244475D01*
X12700Y278375D02*
X41275Y278375D01*
X12700Y278375D02*
X12700Y244475D01*
D26*
X42300Y235398D02*
X67744Y235398D01*
X77442Y225700D01*
X42300Y235398D02*
X42300Y244475D01*
D25*
X26988Y141288D03*
D24*
X149225Y65881D02*
X149225Y38000D01*
X149225Y65881D02*
X131763Y65881D01*
D25*
X131763Y65881D03*
X131763Y86519D03*
D24*
X193700Y227125D02*
X193700Y237444D01*
X193700Y227125D02*
X198574Y222251D01*
X235769Y222251D02*
X239738Y226220D01*
X235769Y222251D02*
X198574Y222251D01*
D25*
X239738Y226220D03*
D24*
X182563Y175419D02*
X177281Y180700D01*
X182563Y175419D02*
X182563Y168044D01*
X90119Y225700D02*
X77442Y225700D01*
X102119Y168700D02*
X102119Y149975D01*
X95813Y143669D01*
X159119Y180700D02*
X177281Y180700D01*
X102119Y179663D02*
X102119Y168700D01*
X102119Y179663D02*
X101600Y180181D01*
X158844Y180975D02*
X159119Y180700D01*
X158844Y180975D02*
X148431Y180975D01*
X124619Y203200D02*
X124619Y211138D01*
X139700Y226219D01*
D25*
X139700Y226219D03*
D24*
X105294Y225700D02*
X90119Y225700D01*
X105294Y225700D02*
X105569Y225425D01*
D25*
X123031Y180181D03*
D24*
X140448Y257923D02*
X156323Y257923D01*
X157725Y259325D01*
X157725Y266700D01*
D23*
X161925Y266700D01*
X171425Y276200D01*
X171425Y288925D01*
D24*
X171425Y311150D02*
X170425Y311150D01*
D23*
X171425Y311150D02*
X171425Y288925D01*
D24*
X137119Y254594D02*
X137119Y237700D01*
X137119Y254594D02*
X140448Y257923D01*
X140725Y266700D02*
X133350Y266700D01*
D23*
X140725Y288925D02*
X152425Y288925D01*
X140725Y288925D02*
X134375Y295275D01*
X129150Y295275D01*
X140725Y288925D02*
X140725Y266700D01*
D24*
X132119Y265469D02*
X132119Y237700D01*
X132119Y265469D02*
X133350Y266700D01*
D25*
X133722Y119063D03*
D24*
X132366Y120419D02*
X132366Y124453D01*
X132366Y120419D02*
X133722Y119063D01*
X117119Y139700D02*
X117119Y168700D01*
X117119Y139700D02*
X132366Y124453D01*
X123825Y125375D02*
X123825Y113506D01*
X134938Y102394D02*
X134938Y98425D01*
X134938Y102394D02*
X123825Y113506D01*
X142875Y98425D02*
X146050Y95250D01*
D23*
X142875Y98425D02*
X134938Y98425D01*
D25*
X134938Y98425D03*
D24*
X107119Y142081D02*
X107119Y168700D01*
X107119Y142081D02*
X123825Y125375D01*
X80169Y157956D02*
X80169Y175419D01*
X80450Y175700D01*
D23*
X80169Y157956D02*
X73025Y157956D01*
X68263Y153194D01*
X57944Y153194D01*
D25*
X80169Y157956D03*
D24*
X80450Y175700D02*
X90119Y175700D01*
D23*
X37075Y201613D02*
X36513Y201050D01*
X42863Y201613D02*
X49213Y201613D01*
X42863Y201613D02*
X37075Y201613D01*
D25*
X49213Y201613D03*
D23*
X42863Y201613D02*
X42863Y186531D01*
D26*
X52799Y213376D02*
X65470Y213376D01*
X52799Y213376D02*
X49213Y209789D01*
X49213Y201613D01*
X65470Y213376D02*
X68145Y210700D01*
D24*
X90119Y210700D01*
D23*
X129150Y337906D02*
X130969Y339725D01*
X129150Y337906D02*
X129150Y317500D01*
D26*
X120650Y285750D02*
X126325Y280075D01*
X120650Y285750D02*
X120650Y306277D01*
X129150Y314777D01*
D24*
X129150Y317500D01*
D23*
X130969Y339725D02*
X146050Y339725D01*
D25*
X130969Y339725D03*
D24*
X127119Y279281D02*
X127119Y237700D01*
X127119Y279281D02*
X126325Y280075D01*
X107119Y242925D02*
X107119Y237700D01*
X95950Y254094D02*
X95950Y260350D01*
X95950Y254094D02*
X107119Y242925D01*
X119950Y253300D02*
X119950Y260350D01*
X112119Y245469D02*
X112119Y237700D01*
X112119Y245469D02*
X119950Y253300D01*
D23*
X217488Y231775D02*
X224631Y231775D01*
D24*
X217488Y231775D02*
X217375Y231888D01*
D23*
X217375Y232769D02*
X212700Y237444D01*
D24*
X217375Y232769D02*
X217375Y231888D01*
D25*
X224631Y231775D03*
D23*
X367275Y276250D02*
X385875Y276250D01*
D24*
X367275Y276250D02*
X367275Y276225D01*
X508000Y207850D02*
X508025Y207850D01*
D23*
X508000Y207850D02*
X508000Y223275D01*
D24*
X438175Y207850D02*
X438150Y207850D01*
D23*
X438150Y223275D01*
X403250Y207850D02*
X396875Y207850D01*
X396875Y200025D02*
X389500Y200025D01*
X396875Y200025D02*
X396875Y207850D01*
X192200Y282600D02*
X190525Y282600D01*
X180975Y273050D01*
X180975Y269081D01*
D25*
X180975Y269081D03*
D24*
X473075Y207850D02*
X473100Y207850D01*
D23*
X473075Y207850D02*
X473075Y223275D01*
X224863Y271463D02*
X211138Y271463D01*
X203200Y263525D01*
X203200Y259444D01*
D24*
X407875Y257063D02*
X407875Y285750D01*
X407875Y257063D02*
X390525Y239713D01*
X367275Y239713D01*
X337534Y169069D02*
X326000Y169069D01*
X517525Y174625D02*
X517525Y185850D01*
X517525Y174625D02*
X506794Y163894D01*
X342710Y163894D01*
X337534Y169069D01*
X259325Y169069D02*
X259325Y181538D01*
X262128Y184341D01*
X346266Y184341D01*
X355981Y174625D01*
X444500Y174625D01*
X447675Y177800D01*
X447675Y185850D01*
X207400Y183588D02*
X207400Y171450D01*
X207400Y183588D02*
X213519Y189706D01*
X353219Y189706D01*
X357075Y185850D01*
X412750Y185850D01*
D23*
X229625Y292100D02*
X214200Y292100D01*
D24*
X462075Y185850D02*
X482600Y185850D01*
X462075Y185850D02*
X457311Y181086D01*
X457311Y176323D01*
X450247Y169259D01*
X348266Y169259D01*
X338931Y178594D01*
X291075Y178594D01*
X291075Y169069D01*
D25*
X58738Y205581D03*
D24*
X58856Y205700D02*
X90119Y205700D01*
X58856Y205700D02*
X58738Y205581D01*
X342900Y276225D02*
X350275Y276225D01*
X342900Y276225D02*
X339725Y273050D01*
X339725Y230188D01*
X325318Y215780D01*
X183236Y215780D01*
X183156Y215700D01*
X159119Y215700D01*
X508000Y240275D02*
X508000Y255588D01*
X500063Y263525D01*
X427038Y263525D01*
X393700Y230188D01*
X363785Y230188D01*
X344297Y210700D01*
X159119Y210700D01*
X429832Y240275D02*
X438150Y240275D01*
X409013Y219456D02*
X372578Y219456D01*
X409013Y219456D02*
X429832Y240275D01*
X209629Y200780D02*
X181808Y200780D01*
X181769Y200819D01*
X209789Y200620D02*
X353742Y200620D01*
X209789Y200620D02*
X209629Y200780D01*
X181769Y200819D02*
X166444Y200819D01*
X353742Y200620D02*
X372578Y219456D01*
X166444Y200819D02*
X166325Y200700D01*
X159119Y200700D01*
X363100Y200025D02*
X372500Y200025D01*
X208439Y194786D02*
X207525Y195700D01*
X208439Y194786D02*
X357861Y194786D01*
X363100Y200025D01*
X207525Y195700D02*
X159119Y195700D01*
D25*
X61119Y225425D03*
D24*
X67544Y225425D02*
X72269Y220700D01*
X67544Y225425D02*
X61119Y225425D01*
X72269Y220700D02*
X90119Y220700D01*
D25*
X147638Y135731D03*
D24*
X137119Y146250D02*
X137119Y168700D01*
X137119Y146250D02*
X147638Y135731D01*
X349250Y205700D02*
X368372Y224822D01*
X400653Y224822D01*
X431610Y255778D01*
X468122Y255778D01*
X473075Y250825D01*
X473075Y240275D01*
X349250Y205700D02*
X159119Y205700D01*
D25*
X69056Y169863D03*
D24*
X69056Y171450D01*
X78306Y180700D01*
X90119Y180700D01*
D25*
X48508Y225335D03*
D26*
X48508Y221367D02*
X51928Y217948D01*
X48508Y221367D02*
X48508Y225335D01*
X67364Y217948D02*
X69611Y215700D01*
X67364Y217948D02*
X51928Y217948D01*
D24*
X69611Y215700D02*
X90119Y215700D01*
X90119Y195700D02*
X69494Y195700D01*
X59531Y185738D01*
X55563Y185738D01*
D25*
X55563Y185738D03*
X57944Y195720D03*
D24*
X65763Y200700D02*
X90119Y200700D01*
X60783Y195720D02*
X57944Y195720D01*
X60783Y195720D02*
X65763Y200700D01*
D25*
X216694Y139364D03*
D24*
X201857Y124527D01*
X178685Y124527D01*
X147119Y156094D02*
X147119Y168700D01*
X147119Y156094D02*
X178685Y124527D01*
D25*
X190500Y115888D03*
D24*
X188119Y118269D01*
X175658Y118269D01*
X142119Y151808D01*
X142119Y168700D01*
D23*
X274075Y154550D02*
X276225Y152400D01*
X274075Y154550D02*
X274075Y169069D01*
X457200Y133350D02*
X485775Y104775D01*
X333375Y133350D02*
X327025Y139700D01*
X333375Y133350D02*
X457200Y133350D01*
D25*
X263525Y138906D03*
D24*
X281781Y138906D02*
X284163Y141288D01*
X281781Y138906D02*
X263525Y138906D01*
X284163Y141288D02*
X327025Y141288D01*
X327025Y139700D01*
D23*
X327025Y141288D02*
X327025Y152400D01*
X276225Y254000D02*
X276225Y277813D01*
X261938Y292100D01*
X246625Y292100D01*
X225425Y170425D02*
X225425Y152400D01*
D24*
X225425Y170425D02*
X224400Y171450D01*
D23*
X242325Y160900D02*
X250825Y152400D01*
X242325Y160900D02*
X242325Y169069D01*
X301625Y152400D02*
X309000Y159775D01*
X309000Y169069D01*
D24*
X350275Y239713D02*
X352425Y239713D01*
D23*
X352425Y254000D01*
D25*
X479425Y276225D03*
D23*
X538163Y276225D01*
X549275Y265113D01*
X549275Y241300D01*
X250825Y254000D02*
X250825Y268288D01*
X247650Y271463D01*
X241863Y271463D01*
D25*
X198772Y134938D03*
D24*
X198772Y133685D01*
X195263Y130175D01*
X182244Y130175D01*
X152119Y160300D01*
X152119Y168700D01*
X153194Y122238D02*
X149344Y122238D01*
D25*
X153194Y122238D03*
D24*
X127119Y144463D02*
X127119Y168700D01*
X127119Y144463D02*
X149344Y122238D01*
X157163Y107038D02*
X157163Y84138D01*
X149150Y76125D01*
D23*
X80900Y76125D01*
D24*
X77725Y79300D01*
X122119Y142081D02*
X122119Y168700D01*
X122119Y142081D02*
X157163Y107038D01*
D25*
X159858Y248444D03*
X67155Y271776D03*
D23*
X67155Y285203D01*
X48352Y304006D01*
X48352Y306455D01*
D25*
X48352Y306455D03*
D24*
X152119Y247369D02*
X152119Y237700D01*
X152119Y247369D02*
X153194Y248444D01*
X159858Y248444D01*
X178594Y253070D02*
X178594Y229394D01*
X178594Y253070D02*
X182342Y256818D01*
D25*
X182342Y256818D03*
D24*
X178594Y229394D02*
X174900Y225700D01*
X159119Y225700D01*
X169383Y256381D02*
X171450Y256381D01*
D25*
X169383Y256381D03*
D24*
X171450Y256381D02*
X171450Y230700D01*
D25*
X77788Y271776D03*
D23*
X77725Y271839D02*
X77725Y327100D01*
X77725Y271839D02*
X77788Y271776D01*
D24*
X159119Y230700D02*
X171450Y230700D01*
X184065Y245706D02*
X191294Y252936D01*
X184065Y245706D02*
X184065Y225279D01*
X203042Y309417D02*
X220725Y327100D01*
X203042Y276338D02*
X191294Y264590D01*
X203042Y276338D02*
X203042Y309417D01*
X191294Y264590D02*
X191294Y252936D01*
X184065Y225279D02*
X179486Y220700D01*
X159119Y220700D01*
X71346Y190700D02*
X53684Y173038D01*
X32544Y173038D01*
X26988Y178594D01*
D23*
X26988Y192088D01*
X15875Y203200D01*
X6125Y203200D01*
D24*
X71346Y190700D02*
X90119Y190700D01*
D23*
X189781Y79300D02*
X220725Y79300D01*
X189781Y79300D02*
X178594Y90488D01*
X178594Y108744D01*
D25*
X178594Y108744D03*
X187325Y183356D03*
D24*
X184981Y185700D01*
X159119Y185700D01*
X9716Y166878D02*
X9525Y166688D01*
X9716Y166878D02*
X55142Y166878D01*
X73964Y185700D01*
D25*
X9525Y166688D03*
D24*
X73964Y185700D02*
X90119Y185700D01*
D25*
X165894Y108744D03*
D23*
X171450Y73025D02*
X177006Y73025D01*
X171450Y73025D02*
X165894Y78581D01*
X165894Y108744D01*
D25*
X177006Y73025D03*
X196850Y187325D03*
D26*
X193475Y190700D01*
X159119Y190700D01*
M02*
