G04 EAGLE Gerber RS-274X export*
G75*
%MOMM*%
%FSLAX34Y34*%
%LPD*%
%INTop Copper*%
%IPPOS*%
%AMOC8*
5,1,8,0,0,1.08239X$1,22.5*%
G01*
%ADD10C,0.499997*%
%ADD11R,1.500000X1.300000*%
%ADD12R,0.800000X0.800000*%
%ADD13R,1.000000X1.100000*%
%ADD14C,1.000000*%
%ADD15R,1.000000X1.400000*%
%ADD16R,1.400000X1.000000*%
%ADD17R,1.100000X1.000000*%
%ADD18C,1.422400*%
%ADD19P,1.429621X8X202.500000*%
%ADD20P,1.429621X8X112.500000*%
%ADD21C,0.304800*%
%ADD22C,0.806400*%
%ADD23C,0.609600*%
%ADD24C,0.508000*%

G36*
X449241Y29511D02*
X449241Y29511D01*
X449318Y29510D01*
X449342Y29519D01*
X449363Y29520D01*
X449402Y29541D01*
X449474Y29567D01*
X465974Y39067D01*
X465996Y39086D01*
X466022Y39099D01*
X466056Y39137D01*
X466059Y39139D01*
X466062Y39143D01*
X466070Y39152D01*
X466123Y39199D01*
X466136Y39225D01*
X466155Y39247D01*
X466178Y39314D01*
X466209Y39378D01*
X466211Y39407D01*
X466220Y39434D01*
X466215Y39506D01*
X466218Y39577D01*
X466208Y39604D01*
X466206Y39633D01*
X466164Y39723D01*
X466149Y39763D01*
X466142Y39771D01*
X466136Y39784D01*
X464394Y42307D01*
X464370Y42331D01*
X464343Y42369D01*
X463336Y43418D01*
X580545Y111086D01*
X580937Y109728D01*
X580953Y109698D01*
X580965Y109653D01*
X582274Y106887D01*
X582291Y106864D01*
X582301Y106837D01*
X582350Y106785D01*
X582393Y106727D01*
X582418Y106713D01*
X582437Y106692D01*
X582503Y106663D01*
X582565Y106627D01*
X582593Y106624D01*
X582619Y106612D01*
X582691Y106611D01*
X582762Y106602D01*
X582789Y106610D01*
X582818Y106610D01*
X582913Y106645D01*
X582953Y106656D01*
X582962Y106663D01*
X582974Y106667D01*
X599474Y116167D01*
X599533Y116219D01*
X599595Y116265D01*
X599606Y116284D01*
X599623Y116299D01*
X599657Y116369D01*
X599697Y116436D01*
X599701Y116461D01*
X599709Y116478D01*
X599711Y116523D01*
X599724Y116600D01*
X599724Y135600D01*
X599719Y135628D01*
X599721Y135656D01*
X599699Y135724D01*
X599685Y135795D01*
X599669Y135818D01*
X599660Y135845D01*
X599613Y135900D01*
X599572Y135959D01*
X599548Y135974D01*
X599530Y135996D01*
X599465Y136027D01*
X599405Y136066D01*
X599377Y136071D01*
X599351Y136083D01*
X599250Y136092D01*
X599208Y136099D01*
X599198Y136097D01*
X599185Y136098D01*
X596135Y135855D01*
X596103Y135846D01*
X596056Y135842D01*
X594660Y135500D01*
X594660Y270900D01*
X596056Y270558D01*
X596090Y270556D01*
X596135Y270545D01*
X599185Y270302D01*
X599214Y270306D01*
X599242Y270301D01*
X599311Y270318D01*
X599383Y270326D01*
X599407Y270341D01*
X599435Y270347D01*
X599493Y270390D01*
X599555Y270426D01*
X599572Y270448D01*
X599595Y270465D01*
X599632Y270527D01*
X599675Y270584D01*
X599682Y270612D01*
X599697Y270636D01*
X599713Y270736D01*
X599724Y270777D01*
X599722Y270787D01*
X599724Y270800D01*
X599724Y289800D01*
X599709Y289876D01*
X599700Y289954D01*
X599689Y289973D01*
X599685Y289995D01*
X599641Y290059D01*
X599602Y290127D01*
X599583Y290143D01*
X599572Y290159D01*
X599534Y290183D01*
X599474Y290233D01*
X582974Y299733D01*
X582947Y299742D01*
X582923Y299758D01*
X582853Y299773D01*
X582785Y299796D01*
X582757Y299793D01*
X582729Y299799D01*
X582659Y299786D01*
X582587Y299780D01*
X582562Y299767D01*
X582534Y299761D01*
X582474Y299721D01*
X582411Y299688D01*
X582393Y299666D01*
X582369Y299650D01*
X582311Y299567D01*
X582284Y299535D01*
X582281Y299524D01*
X582274Y299514D01*
X580965Y296748D01*
X580957Y296715D01*
X580937Y296672D01*
X580545Y295314D01*
X463336Y362982D01*
X464343Y364031D01*
X464361Y364059D01*
X464394Y364093D01*
X466136Y366616D01*
X466147Y366643D01*
X466166Y366665D01*
X466186Y366734D01*
X466214Y366799D01*
X466214Y366828D01*
X466222Y366856D01*
X466214Y366927D01*
X466215Y366998D01*
X466203Y367025D01*
X466200Y367054D01*
X466165Y367116D01*
X466137Y367181D01*
X466117Y367202D01*
X466102Y367227D01*
X466025Y367290D01*
X465995Y367320D01*
X465985Y367324D01*
X465974Y367333D01*
X449474Y376833D01*
X449401Y376857D01*
X449331Y376888D01*
X449307Y376888D01*
X449285Y376896D01*
X449209Y376890D01*
X449132Y376891D01*
X449108Y376881D01*
X449087Y376880D01*
X449048Y376859D01*
X448976Y376833D01*
X432476Y367333D01*
X432454Y367314D01*
X432428Y367301D01*
X432380Y367248D01*
X432327Y367201D01*
X432314Y367175D01*
X432295Y367154D01*
X432272Y367086D01*
X432241Y367022D01*
X432240Y366993D01*
X432230Y366966D01*
X432235Y366894D01*
X432232Y366823D01*
X432242Y366796D01*
X432244Y366767D01*
X432286Y366677D01*
X432301Y366637D01*
X432308Y366629D01*
X432314Y366616D01*
X434056Y364093D01*
X434080Y364069D01*
X434107Y364031D01*
X435114Y362982D01*
X317908Y295315D01*
X317563Y296549D01*
X317548Y296580D01*
X317534Y296627D01*
X316177Y299513D01*
X316159Y299536D01*
X316149Y299563D01*
X316100Y299615D01*
X316058Y299672D01*
X316033Y299687D01*
X316013Y299708D01*
X315948Y299737D01*
X315886Y299772D01*
X315857Y299776D01*
X315831Y299788D01*
X315760Y299789D01*
X315689Y299798D01*
X315661Y299790D01*
X315632Y299791D01*
X315539Y299756D01*
X315498Y299744D01*
X315489Y299737D01*
X315476Y299733D01*
X299225Y290376D01*
X282974Y299733D01*
X282947Y299742D01*
X282923Y299759D01*
X282853Y299773D01*
X282785Y299796D01*
X282756Y299793D01*
X282728Y299799D01*
X282658Y299785D01*
X282587Y299780D01*
X282561Y299766D01*
X282533Y299761D01*
X282474Y299721D01*
X282411Y299688D01*
X282392Y299666D01*
X282368Y299649D01*
X282311Y299567D01*
X282284Y299535D01*
X282281Y299524D01*
X282273Y299513D01*
X280916Y296627D01*
X280907Y296593D01*
X280887Y296549D01*
X280542Y295315D01*
X250027Y312933D01*
X249961Y312961D01*
X249899Y312997D01*
X249815Y313022D01*
X249734Y313056D01*
X249663Y313066D01*
X249594Y313087D01*
X249506Y313090D01*
X249420Y313102D01*
X249348Y313095D01*
X249276Y313097D01*
X249191Y313078D01*
X249103Y313069D01*
X249036Y313044D01*
X248966Y313029D01*
X248887Y312989D01*
X248805Y312958D01*
X248746Y312917D01*
X248682Y312885D01*
X248616Y312827D01*
X248544Y312777D01*
X248497Y312722D01*
X248443Y312675D01*
X248344Y312548D01*
X248057Y312127D01*
X248054Y312126D01*
X248039Y312124D01*
X247989Y312104D01*
X247934Y312086D01*
X247785Y312038D01*
X247782Y312036D01*
X247778Y312034D01*
X247647Y311950D01*
X247516Y311868D01*
X247514Y311865D01*
X247510Y311863D01*
X247393Y311752D01*
X247259Y311606D01*
X247256Y311603D01*
X247253Y311600D01*
X247164Y311474D01*
X247073Y311348D01*
X247072Y311344D01*
X247070Y311341D01*
X247014Y311195D01*
X246958Y311051D01*
X246958Y311047D01*
X246956Y311044D01*
X246934Y310916D01*
X245795Y310007D01*
X245785Y309997D01*
X245773Y309989D01*
X245656Y309878D01*
X244665Y308809D01*
X244538Y308787D01*
X244383Y308762D01*
X244379Y308760D01*
X244375Y308759D01*
X244236Y308697D01*
X244092Y308634D01*
X244089Y308631D01*
X244085Y308629D01*
X243953Y308537D01*
X243798Y308413D01*
X243795Y308411D01*
X243792Y308408D01*
X243683Y308295D01*
X243576Y308185D01*
X243574Y308182D01*
X243571Y308179D01*
X243495Y308044D01*
X243418Y307910D01*
X243417Y307906D01*
X243415Y307902D01*
X243373Y307779D01*
X242112Y307050D01*
X242101Y307042D01*
X242088Y307036D01*
X241956Y306943D01*
X240816Y306034D01*
X240683Y306031D01*
X240530Y306029D01*
X240526Y306028D01*
X240522Y306028D01*
X240372Y305986D01*
X240223Y305946D01*
X240220Y305944D01*
X240216Y305943D01*
X240072Y305871D01*
X239900Y305772D01*
X239897Y305770D01*
X239893Y305768D01*
X239767Y305671D01*
X239647Y305580D01*
X239644Y305577D01*
X239641Y305574D01*
X239543Y305448D01*
X239449Y305330D01*
X239448Y305327D01*
X239445Y305323D01*
X239386Y305208D01*
X238445Y304838D01*
X238374Y304799D01*
X238298Y304769D01*
X238235Y304723D01*
X238166Y304686D01*
X238107Y304630D01*
X238041Y304583D01*
X237991Y304522D01*
X237934Y304469D01*
X237890Y304400D01*
X237838Y304338D01*
X237804Y304267D01*
X237762Y304201D01*
X237737Y304123D01*
X237702Y304050D01*
X237688Y303973D01*
X237663Y303899D01*
X237658Y303817D01*
X237643Y303737D01*
X237647Y303660D01*
X237642Y303581D01*
X237657Y303501D01*
X237662Y303420D01*
X237686Y303346D01*
X237701Y303269D01*
X237735Y303195D01*
X237760Y303118D01*
X237802Y303052D01*
X237835Y302981D01*
X237887Y302918D01*
X237930Y302849D01*
X237987Y302795D01*
X238037Y302735D01*
X238103Y302687D01*
X238162Y302631D01*
X238231Y302593D01*
X238294Y302547D01*
X238369Y302517D01*
X238441Y302477D01*
X238516Y302458D01*
X238589Y302429D01*
X238670Y302418D01*
X238749Y302398D01*
X238900Y302388D01*
X238904Y302388D01*
X238906Y302388D01*
X238909Y302388D01*
X247477Y302388D01*
X250092Y301305D01*
X277212Y274184D01*
X277290Y274124D01*
X277362Y274056D01*
X277415Y274027D01*
X277463Y273990D01*
X277554Y273950D01*
X277641Y273902D01*
X277699Y273887D01*
X277755Y273863D01*
X277853Y273848D01*
X277949Y273823D01*
X278049Y273817D01*
X278069Y273813D01*
X278081Y273815D01*
X278109Y273813D01*
X287993Y273813D01*
X288371Y273513D01*
X288403Y273497D01*
X288441Y273467D01*
X291235Y271931D01*
X291269Y271920D01*
X291311Y271897D01*
X294323Y270848D01*
X294357Y270844D01*
X294404Y270827D01*
X294949Y270735D01*
X300135Y265548D01*
X300214Y265488D01*
X300286Y265420D01*
X300339Y265391D01*
X300387Y265354D01*
X300478Y265314D01*
X300564Y265266D01*
X300623Y265251D01*
X300679Y265227D01*
X300776Y265212D01*
X300872Y265187D01*
X300972Y265181D01*
X300993Y265177D01*
X301005Y265179D01*
X301033Y265177D01*
X303848Y265177D01*
X307956Y263475D01*
X311100Y260331D01*
X312802Y256223D01*
X312802Y251777D01*
X311267Y248072D01*
X311254Y248024D01*
X311233Y247979D01*
X311212Y247872D01*
X311183Y247765D01*
X311183Y247716D01*
X311173Y247667D01*
X311180Y247557D01*
X311178Y247447D01*
X311190Y247399D01*
X311193Y247350D01*
X311227Y247245D01*
X311252Y247138D01*
X311276Y247094D01*
X311291Y247047D01*
X311350Y246954D01*
X311401Y246857D01*
X311434Y246820D01*
X311461Y246778D01*
X311541Y246703D01*
X311615Y246622D01*
X311657Y246594D01*
X311693Y246560D01*
X311789Y246507D01*
X311881Y246447D01*
X311928Y246431D01*
X311971Y246407D01*
X312078Y246379D01*
X312182Y246344D01*
X312231Y246340D01*
X312279Y246327D01*
X312440Y246317D01*
X316210Y246317D01*
X316260Y246323D01*
X316309Y246321D01*
X316417Y246343D01*
X316526Y246357D01*
X316572Y246375D01*
X316621Y246385D01*
X316719Y246434D01*
X316821Y246474D01*
X316861Y246503D01*
X316906Y246525D01*
X316990Y246596D01*
X317079Y246661D01*
X317110Y246699D01*
X317148Y246731D01*
X317211Y246821D01*
X317282Y246906D01*
X317303Y246951D01*
X317331Y246992D01*
X317370Y247094D01*
X317417Y247194D01*
X317426Y247242D01*
X317444Y247289D01*
X317456Y247398D01*
X317477Y247506D01*
X317474Y247555D01*
X317479Y247605D01*
X317464Y247714D01*
X317457Y247823D01*
X317442Y247871D01*
X317435Y247920D01*
X317383Y248072D01*
X315848Y251777D01*
X315848Y256223D01*
X317550Y260331D01*
X320049Y262830D01*
X320109Y262908D01*
X320177Y262980D01*
X320206Y263033D01*
X320243Y263081D01*
X320283Y263172D01*
X320331Y263259D01*
X320346Y263317D01*
X320370Y263373D01*
X320385Y263471D01*
X320410Y263567D01*
X320416Y263667D01*
X320420Y263687D01*
X320418Y263699D01*
X320420Y263727D01*
X320420Y268014D01*
X321426Y270441D01*
X350271Y299287D01*
X352699Y300292D01*
X487089Y300292D01*
X489516Y299287D01*
X507249Y281554D01*
X508255Y279126D01*
X508255Y273494D01*
X508267Y273396D01*
X508270Y273297D01*
X508287Y273239D01*
X508295Y273179D01*
X508331Y273087D01*
X508359Y272992D01*
X508389Y272940D01*
X508412Y272883D01*
X508470Y272803D01*
X508520Y272718D01*
X508586Y272642D01*
X508598Y272626D01*
X508608Y272618D01*
X508626Y272597D01*
X510715Y270509D01*
X510715Y253141D01*
X508334Y250760D01*
X502027Y250760D01*
X501889Y250743D01*
X501751Y250730D01*
X501732Y250723D01*
X501712Y250720D01*
X501582Y250669D01*
X501452Y250622D01*
X501435Y250611D01*
X501416Y250603D01*
X501304Y250522D01*
X501189Y250444D01*
X501175Y250428D01*
X501159Y250417D01*
X501070Y250310D01*
X500978Y250205D01*
X500969Y250187D01*
X500956Y250172D01*
X500897Y250046D01*
X500833Y249922D01*
X500829Y249902D01*
X500820Y249884D01*
X500794Y249748D01*
X500764Y249612D01*
X500764Y249591D01*
X500761Y249572D01*
X500769Y249433D01*
X500774Y249294D01*
X500779Y249274D01*
X500780Y249254D01*
X500823Y249122D01*
X500862Y248988D01*
X500872Y248971D01*
X500878Y248952D01*
X500953Y248834D01*
X501023Y248714D01*
X501042Y248693D01*
X501049Y248683D01*
X501064Y248669D01*
X501130Y248593D01*
X501215Y248509D01*
X501215Y231141D01*
X499126Y229053D01*
X499066Y228975D01*
X498998Y228903D01*
X498969Y228850D01*
X498932Y228802D01*
X498892Y228711D01*
X498844Y228624D01*
X498829Y228566D01*
X498805Y228510D01*
X498790Y228412D01*
X498765Y228316D01*
X498759Y228216D01*
X498755Y228196D01*
X498757Y228184D01*
X498755Y228156D01*
X498755Y224136D01*
X497749Y221709D01*
X495713Y219672D01*
X490171Y214130D01*
X490085Y214020D01*
X489997Y213914D01*
X489988Y213895D01*
X489976Y213879D01*
X489920Y213751D01*
X489862Y213626D01*
X489858Y213606D01*
X489850Y213587D01*
X489828Y213449D01*
X489802Y213313D01*
X489803Y213293D01*
X489800Y213273D01*
X489813Y213134D01*
X489822Y212996D01*
X489828Y212977D01*
X489830Y212957D01*
X489877Y212825D01*
X489920Y212694D01*
X489930Y212676D01*
X489937Y212657D01*
X490015Y212542D01*
X490090Y212425D01*
X490104Y212411D01*
X490116Y212394D01*
X490220Y212302D01*
X490321Y212207D01*
X490339Y212197D01*
X490354Y212184D01*
X490478Y212120D01*
X490600Y212053D01*
X490619Y212048D01*
X490637Y212039D01*
X490773Y212009D01*
X490908Y211974D01*
X490936Y211972D01*
X490948Y211969D01*
X490968Y211970D01*
X491068Y211964D01*
X496412Y211964D01*
X498466Y211113D01*
X508918Y200660D01*
X508996Y200600D01*
X509069Y200532D01*
X509122Y200503D01*
X509169Y200466D01*
X509260Y200426D01*
X509347Y200378D01*
X509406Y200363D01*
X509461Y200339D01*
X509559Y200324D01*
X509655Y200299D01*
X509755Y200293D01*
X509775Y200289D01*
X509788Y200291D01*
X509816Y200289D01*
X525741Y200289D01*
X525859Y200304D01*
X525978Y200311D01*
X526016Y200324D01*
X526057Y200329D01*
X526167Y200372D01*
X526280Y200409D01*
X526315Y200431D01*
X526352Y200446D01*
X526448Y200515D01*
X526549Y200579D01*
X526577Y200609D01*
X526610Y200632D01*
X526686Y200724D01*
X526767Y200811D01*
X526787Y200846D01*
X526812Y200877D01*
X526863Y200985D01*
X526921Y201089D01*
X526931Y201129D01*
X526948Y201165D01*
X526970Y201282D01*
X526992Y201365D01*
X527929Y202303D01*
X528002Y202397D01*
X528081Y202486D01*
X528099Y202522D01*
X528124Y202554D01*
X528171Y202663D01*
X528225Y202769D01*
X528234Y202808D01*
X528250Y202846D01*
X528269Y202963D01*
X528295Y203079D01*
X528294Y203120D01*
X528300Y203160D01*
X528289Y203278D01*
X528285Y203397D01*
X528274Y203436D01*
X528270Y203476D01*
X528230Y203588D01*
X528197Y203703D01*
X528177Y203738D01*
X528163Y203776D01*
X528096Y203874D01*
X528035Y203977D01*
X527996Y204022D01*
X527984Y204039D01*
X527969Y204052D01*
X527929Y204098D01*
X527010Y205016D01*
X527010Y218384D01*
X529391Y220765D01*
X543759Y220765D01*
X544339Y220185D01*
X544417Y220124D01*
X544489Y220056D01*
X544542Y220027D01*
X544590Y219990D01*
X544681Y219950D01*
X544768Y219902D01*
X544826Y219887D01*
X544882Y219863D01*
X544980Y219848D01*
X545076Y219823D01*
X545176Y219817D01*
X545196Y219813D01*
X545208Y219815D01*
X545236Y219813D01*
X546164Y219813D01*
X546262Y219825D01*
X546361Y219828D01*
X546419Y219845D01*
X546479Y219853D01*
X546571Y219889D01*
X546666Y219917D01*
X546718Y219947D01*
X546775Y219970D01*
X546855Y220028D01*
X546940Y220078D01*
X547016Y220144D01*
X547032Y220156D01*
X547040Y220166D01*
X547061Y220184D01*
X548641Y221765D01*
X566009Y221765D01*
X568390Y219384D01*
X568390Y213077D01*
X568407Y212939D01*
X568420Y212801D01*
X568427Y212782D01*
X568430Y212762D01*
X568481Y212632D01*
X568528Y212502D01*
X568539Y212485D01*
X568547Y212466D01*
X568628Y212354D01*
X568706Y212239D01*
X568722Y212225D01*
X568733Y212209D01*
X568840Y212120D01*
X568945Y212028D01*
X568963Y212019D01*
X568978Y212006D01*
X569104Y211947D01*
X569228Y211883D01*
X569248Y211879D01*
X569266Y211870D01*
X569402Y211844D01*
X569538Y211814D01*
X569559Y211814D01*
X569578Y211811D01*
X569717Y211819D01*
X569856Y211824D01*
X569876Y211829D01*
X569896Y211830D01*
X570028Y211873D01*
X570162Y211912D01*
X570179Y211922D01*
X570198Y211928D01*
X570316Y212003D01*
X570436Y212073D01*
X570457Y212092D01*
X570467Y212099D01*
X570481Y212114D01*
X570557Y212180D01*
X570641Y212265D01*
X570943Y212265D01*
X571061Y212280D01*
X571180Y212287D01*
X571218Y212300D01*
X571259Y212305D01*
X571369Y212348D01*
X571482Y212385D01*
X571517Y212407D01*
X571554Y212422D01*
X571650Y212491D01*
X571751Y212555D01*
X571779Y212585D01*
X571812Y212608D01*
X571888Y212700D01*
X571969Y212787D01*
X571989Y212822D01*
X572014Y212853D01*
X572065Y212961D01*
X572123Y213065D01*
X572133Y213105D01*
X572150Y213141D01*
X572172Y213258D01*
X572202Y213373D01*
X572206Y213433D01*
X572210Y213453D01*
X572208Y213474D01*
X572212Y213534D01*
X572212Y229362D01*
X572197Y229480D01*
X572190Y229599D01*
X572177Y229637D01*
X572172Y229678D01*
X572129Y229788D01*
X572092Y229901D01*
X572070Y229936D01*
X572055Y229973D01*
X571986Y230069D01*
X571922Y230170D01*
X571892Y230198D01*
X571869Y230231D01*
X571777Y230307D01*
X571690Y230388D01*
X571655Y230408D01*
X571624Y230433D01*
X571516Y230484D01*
X571412Y230542D01*
X571372Y230552D01*
X571336Y230569D01*
X571219Y230591D01*
X571104Y230621D01*
X571044Y230625D01*
X571024Y230629D01*
X571003Y230627D01*
X570943Y230631D01*
X570256Y230631D01*
X564006Y236881D01*
X564006Y245719D01*
X570256Y251969D01*
X579094Y251969D01*
X585344Y245719D01*
X585344Y240958D01*
X585345Y240949D01*
X585344Y240940D01*
X585365Y240791D01*
X585384Y240643D01*
X585387Y240634D01*
X585388Y240625D01*
X585440Y240473D01*
X586438Y238065D01*
X586438Y213534D01*
X586453Y213416D01*
X586460Y213297D01*
X586473Y213259D01*
X586478Y213218D01*
X586521Y213108D01*
X586558Y212995D01*
X586580Y212960D01*
X586595Y212923D01*
X586664Y212827D01*
X586728Y212726D01*
X586758Y212698D01*
X586781Y212665D01*
X586873Y212589D01*
X586960Y212508D01*
X586995Y212488D01*
X587026Y212463D01*
X587134Y212412D01*
X587238Y212354D01*
X587278Y212344D01*
X587314Y212327D01*
X587431Y212305D01*
X587546Y212275D01*
X587606Y212271D01*
X587626Y212267D01*
X587647Y212269D01*
X587707Y212265D01*
X588009Y212265D01*
X590390Y209884D01*
X590390Y196516D01*
X588009Y194135D01*
X587707Y194135D01*
X587589Y194120D01*
X587470Y194113D01*
X587432Y194100D01*
X587391Y194095D01*
X587281Y194052D01*
X587168Y194015D01*
X587133Y193993D01*
X587096Y193978D01*
X587000Y193909D01*
X586899Y193845D01*
X586871Y193815D01*
X586838Y193792D01*
X586762Y193700D01*
X586681Y193613D01*
X586661Y193578D01*
X586636Y193547D01*
X586585Y193439D01*
X586527Y193335D01*
X586517Y193295D01*
X586500Y193259D01*
X586478Y193142D01*
X586448Y193027D01*
X586444Y192967D01*
X586440Y192947D01*
X586441Y192938D01*
X586440Y192935D01*
X586441Y192920D01*
X586438Y192866D01*
X586438Y168335D01*
X585440Y165927D01*
X585438Y165918D01*
X585433Y165910D01*
X585396Y165765D01*
X585356Y165621D01*
X585356Y165611D01*
X585354Y165602D01*
X585344Y165442D01*
X585344Y160681D01*
X582159Y157497D01*
X582099Y157418D01*
X582031Y157346D01*
X582002Y157293D01*
X581965Y157245D01*
X581925Y157154D01*
X581877Y157068D01*
X581862Y157009D01*
X581838Y156954D01*
X581823Y156856D01*
X581798Y156760D01*
X581792Y156660D01*
X581788Y156639D01*
X581790Y156627D01*
X581788Y156599D01*
X581788Y150985D01*
X580705Y148371D01*
X505679Y73345D01*
X503065Y72262D01*
X494276Y72262D01*
X494178Y72250D01*
X494079Y72247D01*
X494020Y72230D01*
X493960Y72222D01*
X493868Y72186D01*
X493773Y72158D01*
X493721Y72128D01*
X493665Y72105D01*
X493584Y72047D01*
X493499Y71997D01*
X493424Y71931D01*
X493407Y71919D01*
X493399Y71909D01*
X493378Y71891D01*
X490194Y68706D01*
X481356Y68706D01*
X478172Y71891D01*
X478093Y71951D01*
X478021Y72019D01*
X477968Y72048D01*
X477920Y72085D01*
X477829Y72125D01*
X477743Y72173D01*
X477684Y72188D01*
X477629Y72212D01*
X477531Y72227D01*
X477435Y72252D01*
X477335Y72258D01*
X477314Y72262D01*
X477302Y72260D01*
X477274Y72262D01*
X418076Y72262D01*
X417978Y72250D01*
X417879Y72247D01*
X417820Y72230D01*
X417760Y72222D01*
X417668Y72186D01*
X417573Y72158D01*
X417521Y72128D01*
X417465Y72105D01*
X417385Y72047D01*
X417299Y71997D01*
X417224Y71931D01*
X417207Y71919D01*
X417200Y71909D01*
X417178Y71891D01*
X413994Y68706D01*
X405156Y68706D01*
X398906Y74956D01*
X398906Y83794D01*
X405156Y90044D01*
X413994Y90044D01*
X417178Y86859D01*
X417257Y86799D01*
X417329Y86731D01*
X417382Y86702D01*
X417430Y86665D01*
X417521Y86625D01*
X417607Y86577D01*
X417666Y86562D01*
X417721Y86538D01*
X417819Y86523D01*
X417915Y86498D01*
X418015Y86492D01*
X418036Y86488D01*
X418048Y86490D01*
X418076Y86488D01*
X477274Y86488D01*
X477372Y86500D01*
X477471Y86503D01*
X477530Y86520D01*
X477590Y86528D01*
X477682Y86564D01*
X477777Y86592D01*
X477829Y86622D01*
X477885Y86645D01*
X477966Y86703D01*
X478051Y86753D01*
X478126Y86819D01*
X478143Y86831D01*
X478151Y86841D01*
X478172Y86859D01*
X481356Y90044D01*
X490194Y90044D01*
X493378Y86859D01*
X493457Y86799D01*
X493529Y86731D01*
X493582Y86702D01*
X493630Y86665D01*
X493721Y86625D01*
X493807Y86577D01*
X493866Y86562D01*
X493921Y86538D01*
X494019Y86523D01*
X494115Y86498D01*
X494215Y86492D01*
X494236Y86488D01*
X494248Y86490D01*
X494276Y86488D01*
X498178Y86488D01*
X498276Y86500D01*
X498375Y86503D01*
X498434Y86520D01*
X498494Y86528D01*
X498586Y86564D01*
X498681Y86592D01*
X498733Y86622D01*
X498789Y86645D01*
X498869Y86703D01*
X498955Y86753D01*
X499030Y86819D01*
X499047Y86831D01*
X499054Y86841D01*
X499076Y86859D01*
X567191Y154974D01*
X567251Y155053D01*
X567319Y155125D01*
X567348Y155178D01*
X567385Y155226D01*
X567425Y155317D01*
X567473Y155403D01*
X567488Y155462D01*
X567512Y155518D01*
X567527Y155616D01*
X567552Y155711D01*
X567558Y155811D01*
X567562Y155832D01*
X567560Y155844D01*
X567562Y155872D01*
X567562Y156599D01*
X567550Y156697D01*
X567547Y156796D01*
X567530Y156855D01*
X567522Y156915D01*
X567486Y157007D01*
X567458Y157102D01*
X567428Y157154D01*
X567405Y157210D01*
X567347Y157291D01*
X567297Y157376D01*
X567231Y157451D01*
X567219Y157468D01*
X567209Y157476D01*
X567191Y157497D01*
X564006Y160681D01*
X564006Y169519D01*
X570256Y175769D01*
X570943Y175769D01*
X571061Y175784D01*
X571180Y175791D01*
X571218Y175804D01*
X571259Y175809D01*
X571369Y175852D01*
X571482Y175889D01*
X571517Y175911D01*
X571554Y175926D01*
X571650Y175995D01*
X571751Y176059D01*
X571779Y176089D01*
X571812Y176112D01*
X571888Y176204D01*
X571969Y176291D01*
X571989Y176326D01*
X572014Y176357D01*
X572065Y176465D01*
X572123Y176569D01*
X572133Y176609D01*
X572150Y176645D01*
X572172Y176762D01*
X572202Y176877D01*
X572206Y176937D01*
X572210Y176957D01*
X572208Y176978D01*
X572212Y177038D01*
X572212Y192866D01*
X572197Y192984D01*
X572190Y193103D01*
X572177Y193141D01*
X572172Y193182D01*
X572129Y193292D01*
X572092Y193405D01*
X572070Y193440D01*
X572055Y193477D01*
X571986Y193573D01*
X571922Y193674D01*
X571892Y193702D01*
X571869Y193735D01*
X571777Y193811D01*
X571690Y193892D01*
X571655Y193912D01*
X571624Y193937D01*
X571516Y193988D01*
X571412Y194046D01*
X571372Y194056D01*
X571336Y194073D01*
X571219Y194095D01*
X571104Y194125D01*
X571044Y194129D01*
X571024Y194133D01*
X571003Y194131D01*
X570943Y194135D01*
X570641Y194135D01*
X568260Y196516D01*
X568260Y202823D01*
X568243Y202961D01*
X568230Y203099D01*
X568223Y203118D01*
X568220Y203138D01*
X568169Y203268D01*
X568122Y203398D01*
X568111Y203415D01*
X568103Y203434D01*
X568022Y203546D01*
X567944Y203661D01*
X567928Y203675D01*
X567917Y203691D01*
X567810Y203780D01*
X567705Y203872D01*
X567687Y203881D01*
X567672Y203894D01*
X567546Y203953D01*
X567422Y204017D01*
X567402Y204021D01*
X567384Y204030D01*
X567248Y204056D01*
X567112Y204086D01*
X567091Y204086D01*
X567072Y204089D01*
X566933Y204081D01*
X566794Y204076D01*
X566774Y204071D01*
X566754Y204070D01*
X566622Y204027D01*
X566488Y203988D01*
X566471Y203978D01*
X566452Y203972D01*
X566334Y203897D01*
X566214Y203827D01*
X566193Y203808D01*
X566183Y203801D01*
X566169Y203786D01*
X566093Y203720D01*
X566009Y203635D01*
X548641Y203635D01*
X547598Y204679D01*
X547503Y204752D01*
X547414Y204831D01*
X547378Y204849D01*
X547346Y204874D01*
X547237Y204921D01*
X547131Y204975D01*
X547091Y204984D01*
X547054Y205000D01*
X546937Y205019D01*
X546821Y205045D01*
X546780Y205044D01*
X546740Y205050D01*
X546622Y205039D01*
X546503Y205035D01*
X546464Y205024D01*
X546424Y205020D01*
X546312Y204980D01*
X546197Y204947D01*
X546162Y204927D01*
X546124Y204913D01*
X546026Y204846D01*
X545923Y204786D01*
X545878Y204746D01*
X545861Y204734D01*
X545848Y204719D01*
X545803Y204679D01*
X545221Y204098D01*
X545148Y204003D01*
X545069Y203914D01*
X545051Y203878D01*
X545026Y203846D01*
X544979Y203737D01*
X544925Y203631D01*
X544916Y203592D01*
X544900Y203554D01*
X544881Y203437D01*
X544855Y203321D01*
X544856Y203280D01*
X544850Y203240D01*
X544861Y203122D01*
X544865Y203003D01*
X544876Y202964D01*
X544880Y202924D01*
X544920Y202812D01*
X544953Y202697D01*
X544973Y202662D01*
X544987Y202624D01*
X545054Y202526D01*
X545114Y202423D01*
X545154Y202378D01*
X545166Y202361D01*
X545181Y202348D01*
X545221Y202303D01*
X546140Y201384D01*
X546140Y188016D01*
X543759Y185635D01*
X529391Y185635D01*
X526991Y188036D01*
X526988Y188079D01*
X526975Y188117D01*
X526970Y188158D01*
X526927Y188268D01*
X526890Y188381D01*
X526868Y188416D01*
X526853Y188453D01*
X526784Y188549D01*
X526720Y188650D01*
X526690Y188678D01*
X526667Y188711D01*
X526575Y188787D01*
X526488Y188868D01*
X526453Y188888D01*
X526422Y188913D01*
X526314Y188964D01*
X526210Y189022D01*
X526170Y189032D01*
X526134Y189049D01*
X526017Y189071D01*
X525902Y189101D01*
X525842Y189105D01*
X525822Y189109D01*
X525801Y189107D01*
X525741Y189111D01*
X505863Y189111D01*
X503809Y189962D01*
X496662Y197110D01*
X496607Y197152D01*
X496558Y197203D01*
X496481Y197249D01*
X496410Y197305D01*
X496346Y197332D01*
X496287Y197369D01*
X496201Y197395D01*
X496119Y197431D01*
X496050Y197442D01*
X495983Y197462D01*
X495893Y197467D01*
X495805Y197481D01*
X495735Y197474D01*
X495665Y197477D01*
X495578Y197459D01*
X495488Y197451D01*
X495422Y197427D01*
X495354Y197413D01*
X495273Y197374D01*
X495189Y197343D01*
X495131Y197304D01*
X495068Y197273D01*
X495000Y197215D01*
X494926Y197165D01*
X494879Y197112D01*
X494826Y197067D01*
X494775Y196994D01*
X494715Y196926D01*
X494683Y196864D01*
X494643Y196807D01*
X494611Y196723D01*
X494570Y196643D01*
X494555Y196575D01*
X494530Y196510D01*
X494520Y196420D01*
X494501Y196333D01*
X494503Y196263D01*
X494495Y196194D01*
X494508Y196105D01*
X494510Y196015D01*
X494530Y195948D01*
X494540Y195879D01*
X494592Y195726D01*
X495555Y193401D01*
X495555Y187744D01*
X495567Y187646D01*
X495570Y187547D01*
X495587Y187489D01*
X495595Y187429D01*
X495631Y187337D01*
X495659Y187242D01*
X495689Y187190D01*
X495712Y187133D01*
X495770Y187053D01*
X495820Y186968D01*
X495886Y186892D01*
X495898Y186876D01*
X495908Y186868D01*
X495926Y186847D01*
X497990Y184784D01*
X497990Y167416D01*
X495609Y165035D01*
X489302Y165035D01*
X489164Y165018D01*
X489026Y165005D01*
X489007Y164998D01*
X488987Y164995D01*
X488857Y164944D01*
X488727Y164897D01*
X488710Y164886D01*
X488691Y164878D01*
X488579Y164797D01*
X488464Y164719D01*
X488450Y164703D01*
X488434Y164692D01*
X488345Y164585D01*
X488253Y164480D01*
X488244Y164462D01*
X488231Y164447D01*
X488172Y164321D01*
X488108Y164197D01*
X488104Y164177D01*
X488095Y164159D01*
X488069Y164023D01*
X488039Y163887D01*
X488039Y163866D01*
X488036Y163847D01*
X488044Y163708D01*
X488049Y163569D01*
X488054Y163549D01*
X488055Y163529D01*
X488098Y163397D01*
X488137Y163263D01*
X488147Y163246D01*
X488153Y163227D01*
X488228Y163109D01*
X488298Y162989D01*
X488317Y162968D01*
X488324Y162958D01*
X488339Y162944D01*
X488405Y162868D01*
X488490Y162784D01*
X488490Y145416D01*
X485888Y142815D01*
X485883Y142808D01*
X485875Y142802D01*
X485786Y142683D01*
X485693Y142564D01*
X485690Y142555D01*
X485684Y142548D01*
X485613Y142403D01*
X485587Y142339D01*
X485574Y142291D01*
X485552Y142246D01*
X485532Y142139D01*
X485503Y142032D01*
X485502Y141983D01*
X485493Y141934D01*
X485499Y141824D01*
X485498Y141714D01*
X485509Y141666D01*
X485512Y141616D01*
X485546Y141512D01*
X485572Y141405D01*
X485595Y141361D01*
X485610Y141314D01*
X485669Y141221D01*
X485721Y141124D01*
X485754Y141087D01*
X485781Y141045D01*
X485861Y140970D01*
X485935Y140889D01*
X485976Y140861D01*
X486012Y140827D01*
X486108Y140774D01*
X486200Y140714D01*
X486247Y140698D01*
X486291Y140674D01*
X486397Y140646D01*
X486501Y140611D01*
X486551Y140607D01*
X486599Y140594D01*
X486759Y140584D01*
X500455Y140584D01*
X500553Y140597D01*
X500652Y140600D01*
X500710Y140616D01*
X500770Y140624D01*
X500862Y140660D01*
X500957Y140688D01*
X501010Y140719D01*
X501066Y140741D01*
X501146Y140799D01*
X501231Y140849D01*
X501307Y140916D01*
X501323Y140928D01*
X501331Y140937D01*
X501352Y140956D01*
X530234Y169838D01*
X532288Y170689D01*
X539250Y170689D01*
X539348Y170701D01*
X539447Y170704D01*
X539506Y170721D01*
X539566Y170729D01*
X539658Y170765D01*
X539753Y170793D01*
X539805Y170823D01*
X539861Y170846D01*
X539942Y170904D01*
X540027Y170954D01*
X540102Y171020D01*
X540119Y171032D01*
X540127Y171042D01*
X540148Y171060D01*
X544856Y175769D01*
X553694Y175769D01*
X559944Y169519D01*
X559944Y160681D01*
X553694Y154431D01*
X544856Y154431D01*
X540148Y159140D01*
X540069Y159200D01*
X539997Y159268D01*
X539944Y159297D01*
X539896Y159334D01*
X539805Y159374D01*
X539719Y159422D01*
X539660Y159437D01*
X539605Y159461D01*
X539507Y159476D01*
X539411Y159501D01*
X539311Y159507D01*
X539290Y159511D01*
X539278Y159509D01*
X539250Y159511D01*
X536241Y159511D01*
X536142Y159499D01*
X536043Y159496D01*
X535985Y159479D01*
X535925Y159471D01*
X535833Y159435D01*
X535738Y159407D01*
X535686Y159377D01*
X535629Y159354D01*
X535549Y159296D01*
X535464Y159246D01*
X535389Y159180D01*
X535372Y159168D01*
X535364Y159158D01*
X535343Y159140D01*
X506461Y130257D01*
X504407Y129407D01*
X411786Y129407D01*
X411648Y129389D01*
X411510Y129376D01*
X411491Y129369D01*
X411471Y129367D01*
X411341Y129316D01*
X411211Y129269D01*
X411194Y129257D01*
X411175Y129250D01*
X411063Y129168D01*
X410947Y129090D01*
X410934Y129075D01*
X410918Y129063D01*
X410829Y128956D01*
X410737Y128852D01*
X410728Y128834D01*
X410715Y128818D01*
X410656Y128692D01*
X410592Y128568D01*
X410588Y128549D01*
X410579Y128530D01*
X410553Y128394D01*
X410523Y128258D01*
X410523Y128238D01*
X410520Y128218D01*
X410528Y128080D01*
X410532Y127940D01*
X410538Y127921D01*
X410539Y127901D01*
X410582Y127769D01*
X410621Y127635D01*
X410631Y127617D01*
X410637Y127598D01*
X410712Y127480D01*
X410782Y127361D01*
X410801Y127340D01*
X410807Y127329D01*
X410821Y127316D01*
X410822Y127314D01*
X410827Y127310D01*
X410889Y127240D01*
X412562Y125566D01*
X414313Y123816D01*
X415164Y121762D01*
X415164Y114800D01*
X415176Y114702D01*
X415179Y114603D01*
X415196Y114544D01*
X415204Y114484D01*
X415240Y114392D01*
X415268Y114297D01*
X415298Y114245D01*
X415321Y114189D01*
X415379Y114108D01*
X415429Y114023D01*
X415495Y113948D01*
X415507Y113931D01*
X415517Y113923D01*
X415535Y113902D01*
X420244Y109194D01*
X420244Y100356D01*
X413994Y94106D01*
X405156Y94106D01*
X398906Y100356D01*
X398906Y109194D01*
X403615Y113902D01*
X403675Y113981D01*
X403743Y114053D01*
X403772Y114106D01*
X403809Y114154D01*
X403849Y114245D01*
X403897Y114331D01*
X403912Y114390D01*
X403936Y114445D01*
X403951Y114543D01*
X403976Y114639D01*
X403982Y114739D01*
X403986Y114760D01*
X403984Y114772D01*
X403986Y114800D01*
X403986Y117809D01*
X403974Y117908D01*
X403971Y118007D01*
X403954Y118065D01*
X403946Y118125D01*
X403910Y118217D01*
X403882Y118312D01*
X403852Y118364D01*
X403829Y118421D01*
X403771Y118501D01*
X403721Y118586D01*
X403655Y118661D01*
X403643Y118678D01*
X403633Y118686D01*
X403615Y118707D01*
X399504Y122818D01*
X399426Y122878D01*
X399353Y122946D01*
X399300Y122975D01*
X399253Y123012D01*
X399162Y123052D01*
X399075Y123100D01*
X399016Y123115D01*
X398961Y123139D01*
X398863Y123154D01*
X398767Y123179D01*
X398667Y123185D01*
X398647Y123189D01*
X398634Y123187D01*
X398606Y123189D01*
X322467Y123189D01*
X320413Y124040D01*
X309126Y135327D01*
X309048Y135388D01*
X308976Y135456D01*
X308923Y135485D01*
X308875Y135522D01*
X308784Y135561D01*
X308697Y135609D01*
X308638Y135624D01*
X308583Y135648D01*
X308485Y135664D01*
X308389Y135689D01*
X308289Y135695D01*
X308269Y135698D01*
X308256Y135697D01*
X308228Y135699D01*
X303300Y135699D01*
X300903Y136104D01*
X300868Y136103D01*
X300819Y136111D01*
X297631Y136111D01*
X297596Y136104D01*
X297547Y136104D01*
X295150Y135699D01*
X286226Y135699D01*
X284172Y136550D01*
X279790Y140931D01*
X279767Y140949D01*
X279748Y140972D01*
X279642Y141046D01*
X279539Y141126D01*
X279512Y141138D01*
X279488Y141155D01*
X279366Y141201D01*
X279247Y141252D01*
X279218Y141257D01*
X279190Y141268D01*
X279061Y141282D01*
X278933Y141302D01*
X278904Y141299D01*
X278874Y141303D01*
X278746Y141285D01*
X278616Y141272D01*
X278589Y141262D01*
X278559Y141258D01*
X278457Y141223D01*
X274002Y141223D01*
X272416Y141880D01*
X272282Y141917D01*
X272149Y141958D01*
X272129Y141959D01*
X272109Y141964D01*
X271970Y141966D01*
X271831Y141973D01*
X271812Y141969D01*
X271791Y141969D01*
X271656Y141937D01*
X271520Y141909D01*
X271502Y141900D01*
X271482Y141895D01*
X271359Y141830D01*
X271234Y141769D01*
X271219Y141756D01*
X271201Y141746D01*
X271098Y141653D01*
X270992Y141563D01*
X270980Y141546D01*
X270966Y141532D01*
X270889Y141416D01*
X270809Y141303D01*
X270802Y141284D01*
X270791Y141267D01*
X270746Y141135D01*
X270696Y141005D01*
X270694Y140985D01*
X270688Y140966D01*
X270676Y140827D01*
X270661Y140689D01*
X270664Y140669D01*
X270662Y140649D01*
X270686Y140512D01*
X270706Y140374D01*
X270715Y140348D01*
X270717Y140336D01*
X270725Y140317D01*
X270758Y140222D01*
X271622Y138136D01*
X271622Y134914D01*
X270389Y131939D01*
X268111Y129661D01*
X265136Y128428D01*
X262682Y128428D01*
X262584Y128416D01*
X262485Y128413D01*
X262427Y128396D01*
X262366Y128388D01*
X262274Y128352D01*
X262179Y128324D01*
X262127Y128294D01*
X262071Y128271D01*
X261991Y128213D01*
X261905Y128163D01*
X261830Y128097D01*
X261813Y128085D01*
X261806Y128075D01*
X261785Y128057D01*
X259236Y125508D01*
X259176Y125430D01*
X259108Y125358D01*
X259079Y125305D01*
X259042Y125257D01*
X259002Y125166D01*
X258954Y125080D01*
X258939Y125021D01*
X258915Y124965D01*
X258900Y124867D01*
X258875Y124772D01*
X258869Y124672D01*
X258865Y124651D01*
X258867Y124639D01*
X258865Y124611D01*
X258865Y122991D01*
X256484Y120610D01*
X243116Y120610D01*
X242198Y121529D01*
X242103Y121602D01*
X242014Y121681D01*
X241978Y121699D01*
X241946Y121724D01*
X241837Y121771D01*
X241731Y121825D01*
X241692Y121834D01*
X241654Y121850D01*
X241537Y121869D01*
X241421Y121895D01*
X241380Y121894D01*
X241340Y121900D01*
X241222Y121889D01*
X241103Y121885D01*
X241064Y121874D01*
X241024Y121870D01*
X240911Y121830D01*
X240797Y121797D01*
X240763Y121777D01*
X240724Y121763D01*
X240626Y121696D01*
X240523Y121636D01*
X240478Y121596D01*
X240461Y121584D01*
X240448Y121569D01*
X240403Y121529D01*
X239484Y120610D01*
X226116Y120610D01*
X223735Y122991D01*
X223735Y123317D01*
X223720Y123435D01*
X223713Y123554D01*
X223700Y123592D01*
X223695Y123633D01*
X223652Y123743D01*
X223615Y123856D01*
X223593Y123891D01*
X223578Y123928D01*
X223509Y124024D01*
X223445Y124125D01*
X223415Y124153D01*
X223392Y124186D01*
X223300Y124262D01*
X223213Y124343D01*
X223178Y124363D01*
X223147Y124388D01*
X223039Y124439D01*
X222935Y124497D01*
X222895Y124507D01*
X222859Y124524D01*
X222742Y124546D01*
X222627Y124576D01*
X222567Y124580D01*
X222547Y124584D01*
X222526Y124582D01*
X222466Y124586D01*
X218741Y124586D01*
X218642Y124574D01*
X218543Y124571D01*
X218485Y124554D01*
X218425Y124546D01*
X218333Y124510D01*
X218238Y124482D01*
X218186Y124452D01*
X218129Y124429D01*
X218049Y124371D01*
X217964Y124321D01*
X217889Y124255D01*
X217872Y124243D01*
X217864Y124233D01*
X217843Y124215D01*
X190491Y96862D01*
X188437Y96011D01*
X159226Y96011D01*
X157112Y96887D01*
X157065Y96926D01*
X157046Y96935D01*
X157030Y96947D01*
X156902Y97003D01*
X156777Y97062D01*
X156757Y97066D01*
X156739Y97074D01*
X156601Y97095D01*
X156464Y97122D01*
X156444Y97120D01*
X156425Y97124D01*
X156286Y97110D01*
X156147Y97102D01*
X156128Y97096D01*
X156108Y97094D01*
X155977Y97047D01*
X155845Y97004D01*
X155828Y96993D01*
X155809Y96986D01*
X155693Y96908D01*
X155576Y96834D01*
X155562Y96819D01*
X155545Y96808D01*
X155453Y96703D01*
X155358Y96602D01*
X155348Y96584D01*
X155335Y96569D01*
X155271Y96445D01*
X155204Y96324D01*
X155199Y96304D01*
X155190Y96286D01*
X155160Y96150D01*
X155125Y96016D01*
X155123Y95988D01*
X155120Y95976D01*
X155121Y95955D01*
X155115Y95855D01*
X155115Y88444D01*
X154115Y86031D01*
X152269Y84185D01*
X149856Y83185D01*
X142244Y83185D01*
X141053Y83679D01*
X140938Y83710D01*
X140825Y83749D01*
X140785Y83752D01*
X140746Y83763D01*
X140627Y83765D01*
X140508Y83774D01*
X140468Y83767D01*
X140428Y83768D01*
X140312Y83740D01*
X140195Y83720D01*
X140158Y83703D01*
X140119Y83694D01*
X140013Y83638D01*
X139905Y83589D01*
X139873Y83564D01*
X139838Y83545D01*
X139749Y83465D01*
X139656Y83391D01*
X139632Y83358D01*
X139602Y83331D01*
X139537Y83232D01*
X139465Y83136D01*
X139439Y83082D01*
X139427Y83065D01*
X139421Y83046D01*
X139394Y82992D01*
X138627Y81139D01*
X137723Y80235D01*
X137662Y80157D01*
X137594Y80085D01*
X137565Y80032D01*
X137528Y79984D01*
X137489Y79893D01*
X137441Y79806D01*
X137426Y79748D01*
X137402Y79692D01*
X137386Y79594D01*
X137361Y79498D01*
X137355Y79398D01*
X137352Y79378D01*
X137353Y79365D01*
X137351Y79337D01*
X137351Y73063D01*
X137364Y72964D01*
X137367Y72865D01*
X137383Y72807D01*
X137391Y72747D01*
X137428Y72655D01*
X137455Y72560D01*
X137486Y72508D01*
X137508Y72451D01*
X137566Y72371D01*
X137617Y72286D01*
X137683Y72210D01*
X137695Y72194D01*
X137704Y72186D01*
X137723Y72165D01*
X138627Y71261D01*
X139859Y68286D01*
X139859Y65064D01*
X138627Y62089D01*
X136349Y59811D01*
X133373Y58578D01*
X130152Y58578D01*
X127176Y59811D01*
X124898Y62089D01*
X123666Y65064D01*
X123666Y68286D01*
X124898Y71261D01*
X125802Y72165D01*
X125863Y72243D01*
X125931Y72315D01*
X125960Y72368D01*
X125997Y72416D01*
X126036Y72507D01*
X126084Y72594D01*
X126099Y72652D01*
X126123Y72708D01*
X126139Y72806D01*
X126164Y72902D01*
X126170Y73002D01*
X126173Y73022D01*
X126172Y73035D01*
X126174Y73063D01*
X126174Y79337D01*
X126161Y79436D01*
X126158Y79535D01*
X126142Y79593D01*
X126134Y79653D01*
X126097Y79745D01*
X126070Y79840D01*
X126039Y79892D01*
X126017Y79949D01*
X125959Y80029D01*
X125908Y80114D01*
X125842Y80190D01*
X125830Y80206D01*
X125821Y80214D01*
X125802Y80235D01*
X124898Y81139D01*
X123666Y84114D01*
X123666Y87336D01*
X124898Y90311D01*
X127176Y92589D01*
X127211Y92604D01*
X127314Y92663D01*
X127421Y92715D01*
X127452Y92741D01*
X127487Y92761D01*
X127573Y92844D01*
X127663Y92921D01*
X127687Y92954D01*
X127716Y92982D01*
X127778Y93084D01*
X127847Y93181D01*
X127861Y93219D01*
X127882Y93253D01*
X127917Y93367D01*
X127959Y93479D01*
X127964Y93519D01*
X127976Y93557D01*
X127981Y93676D01*
X127995Y93795D01*
X127989Y93835D01*
X127991Y93875D01*
X127967Y93992D01*
X127950Y94110D01*
X127931Y94166D01*
X127927Y94187D01*
X127918Y94205D01*
X127898Y94262D01*
X126841Y96814D01*
X126841Y100036D01*
X127077Y100606D01*
X127090Y100654D01*
X127111Y100699D01*
X127132Y100807D01*
X127161Y100913D01*
X127162Y100963D01*
X127171Y101012D01*
X127164Y101121D01*
X127166Y101231D01*
X127155Y101279D01*
X127152Y101329D01*
X127118Y101433D01*
X127092Y101540D01*
X127069Y101584D01*
X127053Y101631D01*
X126995Y101724D01*
X126943Y101821D01*
X126910Y101858D01*
X126883Y101900D01*
X126803Y101975D01*
X126729Y102057D01*
X126688Y102084D01*
X126652Y102118D01*
X126555Y102171D01*
X126464Y102231D01*
X126417Y102248D01*
X126373Y102272D01*
X126267Y102299D01*
X126163Y102335D01*
X126113Y102339D01*
X126065Y102351D01*
X125905Y102361D01*
X91938Y102361D01*
X91887Y102355D01*
X91835Y102357D01*
X91729Y102335D01*
X91622Y102321D01*
X91574Y102302D01*
X91524Y102292D01*
X91427Y102244D01*
X91326Y102204D01*
X91285Y102174D01*
X91239Y102151D01*
X91157Y102081D01*
X91069Y102018D01*
X91036Y101978D01*
X90997Y101944D01*
X90935Y101856D01*
X90866Y101773D01*
X90844Y101726D01*
X90815Y101684D01*
X90777Y101582D01*
X90731Y101485D01*
X90721Y101434D01*
X90703Y101386D01*
X90691Y101279D01*
X90671Y101173D01*
X90674Y101121D01*
X90669Y101070D01*
X90684Y100963D01*
X90691Y100855D01*
X90707Y100806D01*
X90714Y100755D01*
X90755Y100655D01*
X90789Y100553D01*
X90816Y100509D01*
X90836Y100462D01*
X90901Y100375D01*
X90959Y100284D01*
X90996Y100249D01*
X91027Y100208D01*
X91147Y100099D01*
X91939Y99468D01*
X91951Y99460D01*
X91962Y99450D01*
X92096Y99361D01*
X93359Y98633D01*
X93410Y98510D01*
X93468Y98368D01*
X93470Y98365D01*
X93472Y98361D01*
X93566Y98236D01*
X93657Y98113D01*
X93660Y98110D01*
X93663Y98107D01*
X93782Y97999D01*
X93937Y97876D01*
X93941Y97873D01*
X93944Y97870D01*
X94075Y97792D01*
X94209Y97710D01*
X94213Y97709D01*
X94216Y97707D01*
X94365Y97662D01*
X94513Y97617D01*
X94517Y97617D01*
X94521Y97616D01*
X94650Y97603D01*
X95641Y96536D01*
X95652Y96526D01*
X95661Y96515D01*
X95780Y96407D01*
X96921Y95498D01*
X96952Y95371D01*
X96989Y95220D01*
X96991Y95217D01*
X96992Y95213D01*
X97065Y95077D01*
X97138Y94940D01*
X97141Y94937D01*
X97143Y94933D01*
X97245Y94808D01*
X97380Y94663D01*
X97383Y94660D01*
X97385Y94657D01*
X97502Y94560D01*
X97624Y94459D01*
X97627Y94457D01*
X97631Y94455D01*
X97768Y94390D01*
X97911Y94322D01*
X97915Y94321D01*
X97918Y94319D01*
X98044Y94287D01*
X98865Y93084D01*
X98875Y93073D01*
X98882Y93060D01*
X98983Y92936D01*
X99976Y91867D01*
X99988Y91737D01*
X100002Y91583D01*
X100003Y91579D01*
X100003Y91575D01*
X100056Y91428D01*
X100108Y91283D01*
X100110Y91280D01*
X100111Y91276D01*
X100193Y91137D01*
X100305Y90973D01*
X100308Y90970D01*
X100310Y90967D01*
X100414Y90851D01*
X100516Y90735D01*
X100519Y90733D01*
X100522Y90730D01*
X100650Y90644D01*
X100779Y90557D01*
X100783Y90556D01*
X100786Y90553D01*
X100906Y90503D01*
X101539Y89191D01*
X101546Y89178D01*
X101551Y89165D01*
X101634Y89026D01*
X102455Y87822D01*
X102448Y87691D01*
X102439Y87537D01*
X102439Y87533D01*
X102439Y87529D01*
X102470Y87376D01*
X102499Y87224D01*
X102501Y87221D01*
X102501Y87217D01*
X102562Y87068D01*
X102648Y86889D01*
X102650Y86886D01*
X102652Y86882D01*
X102737Y86752D01*
X102821Y86622D01*
X102824Y86619D01*
X102826Y86616D01*
X102939Y86513D01*
X103055Y86406D01*
X103058Y86404D01*
X103061Y86402D01*
X103172Y86334D01*
X103602Y84942D01*
X103608Y84929D01*
X103611Y84915D01*
X103671Y84766D01*
X104304Y83452D01*
X104277Y83323D01*
X104245Y83173D01*
X104246Y83169D01*
X104245Y83164D01*
X104252Y83010D01*
X104258Y82855D01*
X104259Y82851D01*
X104260Y82847D01*
X104297Y82690D01*
X104356Y82501D01*
X104358Y82497D01*
X104358Y82493D01*
X104423Y82353D01*
X104487Y82211D01*
X104490Y82208D01*
X104491Y82204D01*
X104589Y82084D01*
X104686Y81963D01*
X104689Y81961D01*
X104692Y81958D01*
X104791Y81874D01*
X105009Y80434D01*
X105013Y80420D01*
X105014Y80406D01*
X105051Y80249D01*
X105481Y78856D01*
X105436Y78734D01*
X105382Y78588D01*
X105381Y78584D01*
X105380Y78580D01*
X105364Y78425D01*
X105347Y78272D01*
X105348Y78268D01*
X105347Y78264D01*
X105361Y78103D01*
X105391Y77907D01*
X105392Y77903D01*
X105392Y77899D01*
X105435Y77750D01*
X105477Y77601D01*
X105479Y77598D01*
X105480Y77594D01*
X105559Y77460D01*
X105637Y77326D01*
X105640Y77324D01*
X105642Y77320D01*
X105728Y77222D01*
X105728Y75766D01*
X105730Y75752D01*
X105729Y75737D01*
X105743Y75577D01*
X105960Y74135D01*
X105897Y74020D01*
X105822Y73885D01*
X105821Y73882D01*
X105819Y73878D01*
X105780Y73726D01*
X105740Y73578D01*
X105740Y73574D01*
X105739Y73570D01*
X105729Y73409D01*
X105729Y73211D01*
X105730Y73207D01*
X105729Y73203D01*
X105750Y73049D01*
X105769Y72895D01*
X105771Y72892D01*
X105771Y72888D01*
X105830Y72742D01*
X105886Y72600D01*
X105889Y72596D01*
X105890Y72593D01*
X105961Y72483D01*
X105744Y71043D01*
X105744Y71029D01*
X105740Y71015D01*
X105730Y70854D01*
X105730Y69396D01*
X105651Y69292D01*
X105556Y69170D01*
X105554Y69166D01*
X105552Y69163D01*
X105491Y69020D01*
X105430Y68878D01*
X105429Y68874D01*
X105428Y68870D01*
X105394Y68713D01*
X105364Y68517D01*
X105364Y68512D01*
X105363Y68509D01*
X105360Y68353D01*
X105357Y68199D01*
X105357Y68195D01*
X105357Y68191D01*
X105394Y68039D01*
X105428Y67889D01*
X105430Y67885D01*
X105431Y67881D01*
X105485Y67763D01*
X105056Y66371D01*
X105053Y66357D01*
X105047Y66343D01*
X105014Y66186D01*
X104797Y64744D01*
X104703Y64653D01*
X104591Y64546D01*
X104588Y64543D01*
X104585Y64540D01*
X104503Y64406D01*
X104422Y64276D01*
X104421Y64272D01*
X104419Y64269D01*
X104362Y64118D01*
X104303Y63929D01*
X104303Y63925D01*
X104301Y63921D01*
X104275Y63768D01*
X104249Y63616D01*
X104249Y63612D01*
X104248Y63608D01*
X104261Y63454D01*
X104273Y63299D01*
X104275Y63295D01*
X104275Y63291D01*
X104310Y63165D01*
X104081Y62690D01*
X104058Y62622D01*
X104026Y62557D01*
X104008Y62471D01*
X103980Y62388D01*
X103975Y62317D01*
X103960Y62246D01*
X103964Y62158D01*
X103957Y62071D01*
X103970Y62000D01*
X103973Y61929D01*
X103999Y61844D01*
X104014Y61758D01*
X104044Y61693D01*
X104065Y61624D01*
X104110Y61549D01*
X104147Y61469D01*
X104192Y61413D01*
X104229Y61352D01*
X104292Y61290D01*
X104348Y61222D01*
X104405Y61179D01*
X104456Y61129D01*
X104590Y61040D01*
X135114Y43418D01*
X134107Y42369D01*
X134089Y42341D01*
X134056Y42307D01*
X132314Y39784D01*
X132303Y39757D01*
X132284Y39735D01*
X132264Y39666D01*
X132236Y39601D01*
X132236Y39572D01*
X132228Y39544D01*
X132236Y39473D01*
X132236Y39402D01*
X132247Y39375D01*
X132250Y39346D01*
X132285Y39284D01*
X132313Y39219D01*
X132333Y39198D01*
X132348Y39173D01*
X132411Y39121D01*
X132415Y39116D01*
X132424Y39110D01*
X132425Y39110D01*
X132455Y39080D01*
X132465Y39076D01*
X132476Y39067D01*
X148976Y29567D01*
X149049Y29543D01*
X149119Y29512D01*
X149143Y29512D01*
X149165Y29504D01*
X149241Y29511D01*
X149318Y29510D01*
X149342Y29519D01*
X149363Y29520D01*
X149402Y29541D01*
X149474Y29567D01*
X165974Y39067D01*
X165996Y39086D01*
X166022Y39099D01*
X166056Y39137D01*
X166059Y39139D01*
X166062Y39143D01*
X166070Y39152D01*
X166123Y39199D01*
X166136Y39225D01*
X166155Y39247D01*
X166178Y39314D01*
X166209Y39378D01*
X166211Y39407D01*
X166220Y39434D01*
X166215Y39506D01*
X166218Y39577D01*
X166208Y39604D01*
X166206Y39633D01*
X166164Y39723D01*
X166149Y39763D01*
X166142Y39771D01*
X166136Y39784D01*
X164394Y42307D01*
X164370Y42331D01*
X164343Y42369D01*
X163336Y43418D01*
X193860Y61040D01*
X193917Y61083D01*
X193979Y61118D01*
X194043Y61179D01*
X194113Y61232D01*
X194158Y61288D01*
X194209Y61338D01*
X194256Y61413D01*
X194311Y61481D01*
X194340Y61547D01*
X194378Y61608D01*
X194404Y61692D01*
X194440Y61772D01*
X194452Y61843D01*
X194474Y61911D01*
X194479Y61999D01*
X194493Y62086D01*
X194487Y62157D01*
X194491Y62228D01*
X194474Y62315D01*
X194467Y62402D01*
X194443Y62470D01*
X194429Y62540D01*
X194369Y62690D01*
X194139Y63167D01*
X194166Y63295D01*
X194198Y63447D01*
X194198Y63451D01*
X194199Y63455D01*
X194192Y63607D01*
X194186Y63764D01*
X194184Y63768D01*
X194184Y63772D01*
X194147Y63929D01*
X194088Y64118D01*
X194087Y64122D01*
X194086Y64126D01*
X194023Y64263D01*
X193957Y64408D01*
X193955Y64411D01*
X193953Y64415D01*
X193856Y64535D01*
X193758Y64656D01*
X193755Y64659D01*
X193752Y64662D01*
X193653Y64746D01*
X193436Y66186D01*
X193433Y66200D01*
X193432Y66214D01*
X193394Y66371D01*
X192965Y67764D01*
X193010Y67886D01*
X193065Y68032D01*
X193066Y68036D01*
X193067Y68040D01*
X193083Y68194D01*
X193100Y68348D01*
X193099Y68352D01*
X193100Y68356D01*
X193086Y68517D01*
X193056Y68713D01*
X193055Y68716D01*
X193055Y68721D01*
X193012Y68870D01*
X192970Y69019D01*
X192968Y69022D01*
X192967Y69026D01*
X192888Y69160D01*
X192810Y69294D01*
X192808Y69297D01*
X192805Y69300D01*
X192720Y69398D01*
X192720Y70854D01*
X192718Y70869D01*
X192720Y70883D01*
X192706Y71044D01*
X192696Y71107D01*
X192690Y71131D01*
X192688Y71155D01*
X192647Y71283D01*
X192610Y71413D01*
X192598Y71434D01*
X192590Y71457D01*
X192518Y71572D01*
X192450Y71688D01*
X192433Y71706D01*
X192420Y71726D01*
X192322Y71819D01*
X192227Y71915D01*
X192206Y71927D01*
X192188Y71944D01*
X192070Y72009D01*
X191954Y72079D01*
X191931Y72086D01*
X191910Y72098D01*
X191779Y72131D01*
X191650Y72170D01*
X191625Y72171D01*
X191602Y72177D01*
X191441Y72187D01*
X190722Y72187D01*
X190624Y72175D01*
X190525Y72172D01*
X190466Y72155D01*
X190406Y72147D01*
X190314Y72111D01*
X190219Y72083D01*
X190167Y72053D01*
X190111Y72030D01*
X190031Y71972D01*
X189945Y71922D01*
X189870Y71856D01*
X189853Y71844D01*
X189846Y71834D01*
X189824Y71816D01*
X185004Y66995D01*
X182390Y65912D01*
X178864Y65912D01*
X178854Y65911D01*
X178845Y65912D01*
X178696Y65891D01*
X178548Y65872D01*
X178539Y65869D01*
X178530Y65868D01*
X178378Y65816D01*
X176236Y64928D01*
X173014Y64928D01*
X170039Y66161D01*
X167761Y68439D01*
X166528Y71414D01*
X166528Y74636D01*
X167761Y77611D01*
X170039Y79889D01*
X173014Y81122D01*
X176236Y81122D01*
X177416Y80633D01*
X177444Y80625D01*
X177471Y80612D01*
X177597Y80583D01*
X177723Y80549D01*
X177752Y80548D01*
X177781Y80542D01*
X177911Y80546D01*
X178041Y80544D01*
X178069Y80551D01*
X178099Y80552D01*
X178224Y80588D01*
X178350Y80618D01*
X178376Y80632D01*
X178404Y80640D01*
X178516Y80706D01*
X178631Y80767D01*
X178653Y80787D01*
X178678Y80802D01*
X178799Y80908D01*
X181042Y83151D01*
X183221Y85330D01*
X185835Y86413D01*
X194733Y86413D01*
X194810Y86423D01*
X194889Y86422D01*
X194968Y86442D01*
X195048Y86453D01*
X195121Y86481D01*
X195197Y86501D01*
X195268Y86540D01*
X195344Y86570D01*
X195407Y86616D01*
X195476Y86653D01*
X195536Y86709D01*
X195601Y86756D01*
X195651Y86817D01*
X195709Y86870D01*
X195752Y86939D01*
X195804Y87001D01*
X195838Y87072D01*
X195880Y87138D01*
X195905Y87216D01*
X195940Y87289D01*
X195954Y87366D01*
X195979Y87440D01*
X195984Y87522D01*
X195999Y87601D01*
X195995Y87680D01*
X196000Y87758D01*
X195992Y87818D01*
X196816Y89026D01*
X196823Y89039D01*
X196832Y89050D01*
X196911Y89191D01*
X197544Y90504D01*
X197663Y90564D01*
X197800Y90632D01*
X197803Y90635D01*
X197807Y90637D01*
X197923Y90739D01*
X198040Y90840D01*
X198043Y90844D01*
X198046Y90846D01*
X198145Y90973D01*
X198257Y91137D01*
X198258Y91141D01*
X198261Y91144D01*
X198331Y91282D01*
X198401Y91420D01*
X198402Y91424D01*
X198404Y91428D01*
X198436Y91575D01*
X198471Y91730D01*
X198471Y91735D01*
X198472Y91739D01*
X198476Y91869D01*
X199467Y92936D01*
X199475Y92948D01*
X199486Y92957D01*
X199585Y93084D01*
X200407Y94289D01*
X200531Y94330D01*
X200678Y94377D01*
X200682Y94379D01*
X200686Y94381D01*
X200815Y94464D01*
X200947Y94547D01*
X200950Y94550D01*
X200954Y94552D01*
X201070Y94663D01*
X201205Y94808D01*
X201208Y94812D01*
X201211Y94814D01*
X201299Y94939D01*
X201391Y95067D01*
X201392Y95071D01*
X201394Y95074D01*
X201449Y95218D01*
X201506Y95363D01*
X201507Y95367D01*
X201508Y95371D01*
X201531Y95499D01*
X202670Y96407D01*
X202680Y96417D01*
X202692Y96425D01*
X202809Y96536D01*
X203801Y97604D01*
X203931Y97626D01*
X204083Y97651D01*
X204086Y97653D01*
X204090Y97654D01*
X204234Y97717D01*
X204374Y97779D01*
X204377Y97782D01*
X204381Y97783D01*
X204513Y97875D01*
X204668Y97999D01*
X204671Y98002D01*
X204674Y98004D01*
X204781Y98115D01*
X204890Y98227D01*
X204892Y98230D01*
X204895Y98233D01*
X204970Y98366D01*
X205048Y98503D01*
X205049Y98507D01*
X205051Y98510D01*
X205093Y98633D01*
X206354Y99361D01*
X206366Y99370D01*
X206379Y99376D01*
X206511Y99468D01*
X207651Y100377D01*
X207783Y100379D01*
X207937Y100381D01*
X207941Y100382D01*
X207945Y100382D01*
X208096Y100424D01*
X208244Y100464D01*
X208248Y100466D01*
X208252Y100468D01*
X208396Y100539D01*
X208568Y100638D01*
X208571Y100641D01*
X208575Y100642D01*
X208696Y100735D01*
X208821Y100830D01*
X208824Y100833D01*
X208827Y100836D01*
X208922Y100957D01*
X209019Y101079D01*
X209020Y101083D01*
X209023Y101086D01*
X209082Y101202D01*
X210438Y101734D01*
X210451Y101740D01*
X210465Y101744D01*
X210609Y101816D01*
X211872Y102544D01*
X212003Y102527D01*
X212155Y102506D01*
X212159Y102507D01*
X212163Y102506D01*
X212316Y102525D01*
X212471Y102543D01*
X212475Y102544D01*
X212479Y102545D01*
X212632Y102594D01*
X212817Y102666D01*
X212821Y102668D01*
X212825Y102669D01*
X212960Y102744D01*
X213096Y102818D01*
X213099Y102821D01*
X213103Y102823D01*
X213217Y102931D01*
X213329Y103035D01*
X213331Y103039D01*
X213334Y103042D01*
X213410Y103147D01*
X214830Y103471D01*
X214843Y103476D01*
X214858Y103477D01*
X215011Y103527D01*
X216369Y104059D01*
X216494Y104023D01*
X216643Y103979D01*
X216647Y103979D01*
X216651Y103978D01*
X216805Y103973D01*
X216961Y103968D01*
X216965Y103969D01*
X216969Y103969D01*
X217128Y103995D01*
X217321Y104039D01*
X217325Y104040D01*
X217329Y104040D01*
X217341Y104045D01*
X217354Y104047D01*
X217484Y104098D01*
X217620Y104147D01*
X217623Y104150D01*
X217627Y104151D01*
X217638Y104159D01*
X217650Y104164D01*
X217759Y104243D01*
X217882Y104327D01*
X217885Y104330D01*
X217888Y104333D01*
X217902Y104347D01*
X217907Y104350D01*
X217916Y104361D01*
X217979Y104426D01*
X219432Y104534D01*
X219446Y104537D01*
X219460Y104537D01*
X219619Y104562D01*
X221041Y104886D01*
X221157Y104833D01*
X221300Y104767D01*
X221304Y104766D01*
X221308Y104764D01*
X221460Y104737D01*
X221613Y104708D01*
X221617Y104708D01*
X221621Y104708D01*
X221782Y104709D01*
X221980Y104724D01*
X221984Y104725D01*
X221988Y104725D01*
X222141Y104757D01*
X222291Y104787D01*
X222295Y104789D01*
X222299Y104790D01*
X222440Y104860D01*
X222577Y104926D01*
X222581Y104929D01*
X222584Y104931D01*
X222688Y105009D01*
X224140Y104900D01*
X224155Y104900D01*
X224169Y104898D01*
X224330Y104900D01*
X225784Y105008D01*
X225894Y104936D01*
X226023Y104851D01*
X226027Y104850D01*
X226030Y104847D01*
X226177Y104797D01*
X226323Y104747D01*
X226327Y104746D01*
X226331Y104745D01*
X226491Y104723D01*
X226688Y104708D01*
X226692Y104708D01*
X226696Y104707D01*
X226848Y104716D01*
X227006Y104724D01*
X227010Y104725D01*
X227014Y104725D01*
X227163Y104773D01*
X227310Y104818D01*
X227313Y104821D01*
X227317Y104822D01*
X227431Y104884D01*
X228851Y104559D01*
X228865Y104558D01*
X228879Y104553D01*
X229038Y104531D01*
X230492Y104422D01*
X230593Y104332D01*
X230601Y104325D01*
X230680Y104250D01*
X230689Y104245D01*
X230705Y104231D01*
X230709Y104229D01*
X230712Y104226D01*
X230852Y104154D01*
X230926Y104115D01*
X230959Y104096D01*
X230962Y104096D01*
X230987Y104083D01*
X230990Y104082D01*
X230994Y104080D01*
X231149Y104034D01*
X231342Y103990D01*
X231346Y103990D01*
X231350Y103988D01*
X231506Y103974D01*
X231658Y103958D01*
X231662Y103959D01*
X231667Y103959D01*
X231820Y103983D01*
X231973Y104007D01*
X231976Y104008D01*
X231981Y104009D01*
X232103Y104053D01*
X233458Y103521D01*
X233472Y103517D01*
X233485Y103511D01*
X233639Y103465D01*
X235061Y103140D01*
X235144Y103040D01*
X235243Y102919D01*
X235246Y102917D01*
X235249Y102914D01*
X235373Y102824D01*
X235499Y102731D01*
X235503Y102730D01*
X235506Y102727D01*
X235652Y102659D01*
X235836Y102586D01*
X235840Y102585D01*
X235844Y102584D01*
X235995Y102546D01*
X236145Y102508D01*
X236149Y102508D01*
X236153Y102507D01*
X236308Y102509D01*
X236463Y102509D01*
X236467Y102510D01*
X236471Y102510D01*
X236598Y102536D01*
X237859Y101807D01*
X237873Y101801D01*
X237884Y101793D01*
X238030Y101725D01*
X239387Y101192D01*
X239455Y101080D01*
X239534Y100946D01*
X239537Y100944D01*
X239539Y100940D01*
X239649Y100833D01*
X239760Y100722D01*
X239763Y100720D01*
X239766Y100717D01*
X239900Y100628D01*
X240072Y100529D01*
X240075Y100527D01*
X240079Y100525D01*
X240223Y100465D01*
X240365Y100405D01*
X240369Y100405D01*
X240373Y100403D01*
X240524Y100382D01*
X240679Y100359D01*
X240684Y100359D01*
X240688Y100359D01*
X240817Y100365D01*
X241956Y99457D01*
X241968Y99449D01*
X241978Y99439D01*
X242112Y99350D01*
X243375Y98620D01*
X243426Y98498D01*
X243484Y98356D01*
X243486Y98353D01*
X243488Y98349D01*
X243579Y98227D01*
X243673Y98101D01*
X243676Y98098D01*
X243679Y98095D01*
X243798Y97987D01*
X243953Y97863D01*
X243956Y97861D01*
X243959Y97858D01*
X244093Y97778D01*
X244224Y97697D01*
X244228Y97696D01*
X244232Y97694D01*
X244380Y97650D01*
X244528Y97604D01*
X244533Y97604D01*
X244537Y97603D01*
X244666Y97590D01*
X245656Y96522D01*
X245667Y96512D01*
X245676Y96501D01*
X245795Y96393D01*
X246935Y95483D01*
X246967Y95355D01*
X247003Y95206D01*
X247005Y95202D01*
X247006Y95198D01*
X247079Y95063D01*
X247152Y94925D01*
X247155Y94922D01*
X247157Y94918D01*
X247259Y94794D01*
X247393Y94648D01*
X247397Y94646D01*
X247399Y94642D01*
X247516Y94546D01*
X247637Y94444D01*
X247641Y94442D01*
X247644Y94440D01*
X247783Y94374D01*
X247924Y94307D01*
X247928Y94306D01*
X247932Y94304D01*
X248058Y94272D01*
X248344Y93852D01*
X248392Y93798D01*
X248431Y93738D01*
X248496Y93679D01*
X248554Y93614D01*
X248614Y93573D01*
X248668Y93525D01*
X248745Y93484D01*
X248818Y93435D01*
X248885Y93411D01*
X248949Y93377D01*
X249035Y93357D01*
X249117Y93328D01*
X249189Y93321D01*
X249259Y93304D01*
X249346Y93306D01*
X249434Y93298D01*
X249505Y93309D01*
X249577Y93311D01*
X249661Y93334D01*
X249748Y93348D01*
X249814Y93377D01*
X249883Y93396D01*
X250027Y93467D01*
X280542Y111085D01*
X280887Y109851D01*
X280902Y109820D01*
X280916Y109773D01*
X282273Y106887D01*
X282291Y106864D01*
X282301Y106837D01*
X282350Y106785D01*
X282392Y106728D01*
X282417Y106713D01*
X282437Y106692D01*
X282502Y106663D01*
X282564Y106628D01*
X282593Y106624D01*
X282619Y106612D01*
X282690Y106611D01*
X282761Y106602D01*
X282789Y106610D01*
X282818Y106610D01*
X282911Y106644D01*
X282952Y106656D01*
X282961Y106663D01*
X282974Y106667D01*
X299225Y116024D01*
X315476Y106667D01*
X315504Y106658D01*
X315528Y106641D01*
X315597Y106627D01*
X315665Y106604D01*
X315694Y106607D01*
X315722Y106601D01*
X315792Y106615D01*
X315863Y106620D01*
X315889Y106634D01*
X315917Y106639D01*
X315976Y106679D01*
X316039Y106712D01*
X316058Y106734D01*
X316082Y106751D01*
X316139Y106833D01*
X316166Y106865D01*
X316169Y106876D01*
X316177Y106887D01*
X317534Y109773D01*
X317543Y109807D01*
X317563Y109851D01*
X317908Y111085D01*
X435114Y43418D01*
X434107Y42369D01*
X434089Y42341D01*
X434056Y42307D01*
X432314Y39784D01*
X432303Y39757D01*
X432284Y39735D01*
X432264Y39666D01*
X432236Y39601D01*
X432236Y39572D01*
X432228Y39544D01*
X432236Y39473D01*
X432236Y39402D01*
X432247Y39375D01*
X432250Y39346D01*
X432285Y39284D01*
X432313Y39219D01*
X432333Y39198D01*
X432348Y39173D01*
X432411Y39121D01*
X432415Y39116D01*
X432424Y39110D01*
X432425Y39110D01*
X432455Y39080D01*
X432465Y39076D01*
X432476Y39067D01*
X448976Y29567D01*
X449049Y29543D01*
X449119Y29512D01*
X449143Y29512D01*
X449165Y29504D01*
X449241Y29511D01*
G37*
G36*
X49102Y93305D02*
X49102Y93305D01*
X49174Y93303D01*
X49259Y93322D01*
X49347Y93331D01*
X49414Y93356D01*
X49484Y93371D01*
X49563Y93411D01*
X49645Y93442D01*
X49704Y93483D01*
X49768Y93515D01*
X49834Y93573D01*
X49906Y93623D01*
X49953Y93678D01*
X50007Y93725D01*
X50106Y93852D01*
X50393Y94273D01*
X50516Y94314D01*
X50665Y94362D01*
X50668Y94364D01*
X50672Y94366D01*
X50802Y94449D01*
X50934Y94532D01*
X50936Y94535D01*
X50940Y94537D01*
X51057Y94648D01*
X51191Y94794D01*
X51194Y94797D01*
X51197Y94800D01*
X51286Y94926D01*
X51377Y95052D01*
X51378Y95056D01*
X51381Y95059D01*
X51435Y95202D01*
X51492Y95348D01*
X51492Y95353D01*
X51494Y95356D01*
X51517Y95484D01*
X52655Y96393D01*
X52665Y96403D01*
X52677Y96411D01*
X52794Y96522D01*
X53785Y97591D01*
X53912Y97613D01*
X54067Y97638D01*
X54071Y97640D01*
X54075Y97641D01*
X54214Y97703D01*
X54358Y97766D01*
X54361Y97769D01*
X54365Y97771D01*
X54497Y97863D01*
X54652Y97987D01*
X54655Y97989D01*
X54658Y97992D01*
X54767Y98105D01*
X54874Y98215D01*
X54876Y98218D01*
X54879Y98221D01*
X54955Y98356D01*
X55032Y98490D01*
X55033Y98494D01*
X55035Y98498D01*
X55077Y98621D01*
X56338Y99350D01*
X56349Y99358D01*
X56362Y99364D01*
X56494Y99457D01*
X57634Y100366D01*
X57767Y100369D01*
X57920Y100371D01*
X57924Y100372D01*
X57928Y100372D01*
X58078Y100414D01*
X58227Y100454D01*
X58230Y100456D01*
X58234Y100457D01*
X58378Y100529D01*
X58550Y100628D01*
X58553Y100630D01*
X58557Y100632D01*
X58683Y100729D01*
X58803Y100820D01*
X58806Y100823D01*
X58809Y100826D01*
X58906Y100951D01*
X59001Y101070D01*
X59002Y101073D01*
X59005Y101077D01*
X59064Y101192D01*
X60420Y101725D01*
X60433Y101732D01*
X60446Y101736D01*
X60591Y101807D01*
X61853Y102537D01*
X61984Y102520D01*
X62136Y102499D01*
X62141Y102499D01*
X62145Y102499D01*
X62299Y102517D01*
X62452Y102535D01*
X62456Y102537D01*
X62460Y102537D01*
X62614Y102586D01*
X62798Y102659D01*
X62802Y102661D01*
X62806Y102662D01*
X62940Y102737D01*
X63077Y102811D01*
X63080Y102814D01*
X63084Y102816D01*
X63196Y102923D01*
X63310Y103028D01*
X63312Y103032D01*
X63315Y103035D01*
X63391Y103140D01*
X64811Y103465D01*
X64824Y103470D01*
X64839Y103472D01*
X64992Y103521D01*
X66349Y104054D01*
X66474Y104018D01*
X66623Y103974D01*
X66627Y103974D01*
X66631Y103973D01*
X66786Y103969D01*
X66941Y103963D01*
X66945Y103964D01*
X66949Y103964D01*
X67108Y103990D01*
X67301Y104034D01*
X67305Y104036D01*
X67309Y104036D01*
X67338Y104047D01*
X67342Y104048D01*
X67457Y104091D01*
X67600Y104143D01*
X67604Y104146D01*
X67607Y104147D01*
X67628Y104161D01*
X67634Y104164D01*
X67692Y104206D01*
X67734Y104235D01*
X67862Y104323D01*
X67865Y104326D01*
X67868Y104329D01*
X67886Y104347D01*
X67891Y104350D01*
X67899Y104360D01*
X67959Y104422D01*
X69412Y104531D01*
X69426Y104534D01*
X69441Y104534D01*
X69576Y104556D01*
X69580Y104556D01*
X69582Y104557D01*
X69600Y104560D01*
X69627Y104566D01*
X69683Y104586D01*
X69723Y104594D01*
X69772Y104618D01*
X69882Y104654D01*
X69903Y104667D01*
X69925Y104675D01*
X70037Y104752D01*
X70151Y104824D01*
X70168Y104842D01*
X70187Y104855D01*
X70276Y104957D01*
X70369Y105056D01*
X70381Y105077D01*
X70396Y105095D01*
X70457Y105215D01*
X70523Y105334D01*
X70529Y105357D01*
X70539Y105379D01*
X70568Y105511D01*
X70602Y105642D01*
X70604Y105676D01*
X70607Y105690D01*
X70606Y105711D01*
X70612Y105803D01*
X70612Y106127D01*
X71695Y108742D01*
X73696Y110742D01*
X76310Y111825D01*
X76408Y111825D01*
X76507Y111838D01*
X76606Y111841D01*
X76664Y111857D01*
X76724Y111865D01*
X76816Y111902D01*
X76911Y111929D01*
X76963Y111960D01*
X77020Y111982D01*
X77100Y112040D01*
X77185Y112091D01*
X77260Y112157D01*
X77277Y112169D01*
X77285Y112178D01*
X77306Y112197D01*
X77797Y112688D01*
X79851Y113539D01*
X96151Y113539D01*
X96288Y113556D01*
X96427Y113569D01*
X96446Y113576D01*
X96466Y113579D01*
X96595Y113630D01*
X96726Y113677D01*
X96743Y113688D01*
X96762Y113696D01*
X96874Y113777D01*
X96989Y113855D01*
X97003Y113871D01*
X97019Y113882D01*
X97108Y113990D01*
X97200Y114094D01*
X97209Y114112D01*
X97222Y114127D01*
X97281Y114253D01*
X97344Y114377D01*
X97349Y114397D01*
X97358Y114415D01*
X97384Y114551D01*
X97414Y114687D01*
X97414Y114708D01*
X97417Y114727D01*
X97409Y114866D01*
X97404Y115005D01*
X97399Y115025D01*
X97398Y115045D01*
X97355Y115177D01*
X97316Y115311D01*
X97306Y115328D01*
X97300Y115347D01*
X97225Y115465D01*
X97155Y115585D01*
X97136Y115606D01*
X97129Y115616D01*
X97114Y115630D01*
X97048Y115705D01*
X83713Y129041D01*
X83635Y129101D01*
X83563Y129169D01*
X83510Y129198D01*
X83462Y129235D01*
X83371Y129275D01*
X83284Y129323D01*
X83226Y129338D01*
X83170Y129362D01*
X83072Y129377D01*
X82976Y129402D01*
X82876Y129408D01*
X82856Y129412D01*
X82844Y129410D01*
X82816Y129412D01*
X68961Y129412D01*
X68863Y129400D01*
X68764Y129397D01*
X68706Y129380D01*
X68646Y129372D01*
X68554Y129336D01*
X68459Y129308D01*
X68407Y129278D01*
X68350Y129255D01*
X68270Y129197D01*
X68185Y129147D01*
X68109Y129081D01*
X68093Y129069D01*
X68085Y129059D01*
X68073Y129048D01*
X68072Y129048D01*
X68064Y129041D01*
X65984Y126960D01*
X52616Y126960D01*
X51697Y127879D01*
X51603Y127952D01*
X51514Y128031D01*
X51478Y128049D01*
X51446Y128074D01*
X51337Y128121D01*
X51231Y128175D01*
X51192Y128184D01*
X51154Y128200D01*
X51037Y128219D01*
X50921Y128245D01*
X50880Y128244D01*
X50840Y128250D01*
X50722Y128239D01*
X50603Y128235D01*
X50564Y128224D01*
X50524Y128220D01*
X50412Y128180D01*
X50297Y128147D01*
X50262Y128127D01*
X50224Y128113D01*
X50126Y128046D01*
X50023Y127985D01*
X49978Y127946D01*
X49961Y127934D01*
X49948Y127919D01*
X49902Y127879D01*
X48984Y126960D01*
X35616Y126960D01*
X33235Y129341D01*
X33235Y133212D01*
X33229Y133261D01*
X33231Y133311D01*
X33216Y133385D01*
X33213Y133436D01*
X33203Y133467D01*
X33195Y133528D01*
X33177Y133574D01*
X33167Y133622D01*
X33124Y133710D01*
X33115Y133739D01*
X33107Y133752D01*
X33078Y133823D01*
X33049Y133863D01*
X33027Y133908D01*
X32956Y133992D01*
X32946Y134005D01*
X32945Y134008D01*
X32944Y134008D01*
X32892Y134081D01*
X32853Y134112D01*
X32821Y134150D01*
X32731Y134213D01*
X32647Y134283D01*
X32602Y134305D01*
X32561Y134333D01*
X32458Y134372D01*
X32359Y134419D01*
X32310Y134428D01*
X32264Y134446D01*
X32154Y134458D01*
X32047Y134479D01*
X31997Y134476D01*
X31948Y134481D01*
X31839Y134466D01*
X31729Y134459D01*
X31682Y134444D01*
X31633Y134437D01*
X31480Y134385D01*
X28598Y133191D01*
X25377Y133191D01*
X22401Y134423D01*
X20123Y136701D01*
X18891Y139677D01*
X18891Y142898D01*
X20123Y145874D01*
X21211Y146962D01*
X21217Y146969D01*
X21224Y146975D01*
X21316Y147096D01*
X21406Y147213D01*
X21410Y147222D01*
X21416Y147229D01*
X21487Y147374D01*
X22250Y149216D01*
X25790Y152756D01*
X25850Y152834D01*
X25918Y152906D01*
X25947Y152959D01*
X25984Y153007D01*
X26024Y153098D01*
X26072Y153185D01*
X26087Y153243D01*
X26111Y153299D01*
X26126Y153397D01*
X26151Y153492D01*
X26157Y153593D01*
X26161Y153613D01*
X26159Y153625D01*
X26161Y153653D01*
X26161Y163037D01*
X27012Y165091D01*
X32839Y170917D01*
X32899Y170995D01*
X32967Y171068D01*
X32996Y171121D01*
X33033Y171168D01*
X33073Y171259D01*
X33121Y171346D01*
X33136Y171405D01*
X33160Y171460D01*
X33175Y171558D01*
X33200Y171654D01*
X33206Y171754D01*
X33210Y171774D01*
X33208Y171787D01*
X33210Y171815D01*
X33210Y175109D01*
X35591Y177490D01*
X37916Y177490D01*
X37965Y177496D01*
X38015Y177494D01*
X38122Y177516D01*
X38231Y177530D01*
X38277Y177548D01*
X38326Y177558D01*
X38425Y177606D01*
X38527Y177647D01*
X38567Y177676D01*
X38612Y177698D01*
X38695Y177769D01*
X38784Y177833D01*
X38816Y177872D01*
X38854Y177904D01*
X38917Y177994D01*
X38987Y178078D01*
X39008Y178123D01*
X39037Y178164D01*
X39076Y178267D01*
X39123Y178366D01*
X39132Y178415D01*
X39149Y178461D01*
X39162Y178571D01*
X39182Y178678D01*
X39179Y178728D01*
X39185Y178777D01*
X39169Y178886D01*
X39163Y178996D01*
X39147Y179043D01*
X39140Y179092D01*
X39088Y179245D01*
X38560Y180519D01*
X38560Y194131D01*
X39560Y196544D01*
X40913Y197897D01*
X40918Y197904D01*
X40926Y197910D01*
X41016Y198030D01*
X41108Y198148D01*
X41111Y198156D01*
X41117Y198164D01*
X41188Y198308D01*
X41595Y199292D01*
X44903Y202599D01*
X44964Y202678D01*
X45032Y202750D01*
X45061Y202803D01*
X45098Y202851D01*
X45137Y202942D01*
X45185Y203028D01*
X45200Y203087D01*
X45224Y203143D01*
X45240Y203241D01*
X45265Y203336D01*
X45271Y203436D01*
X45274Y203457D01*
X45273Y203469D01*
X45275Y203497D01*
X45275Y206202D01*
X45782Y207426D01*
X45784Y207435D01*
X45789Y207443D01*
X45826Y207588D01*
X45866Y207733D01*
X45866Y207742D01*
X45868Y207751D01*
X45878Y207912D01*
X45878Y207986D01*
X47111Y210961D01*
X49389Y213239D01*
X51233Y214003D01*
X51294Y214038D01*
X51358Y214063D01*
X51431Y214116D01*
X51509Y214161D01*
X51559Y214209D01*
X51616Y214250D01*
X51673Y214319D01*
X51738Y214382D01*
X51774Y214441D01*
X51819Y214495D01*
X51857Y214576D01*
X51904Y214653D01*
X51924Y214720D01*
X51954Y214783D01*
X51971Y214871D01*
X51997Y214957D01*
X52001Y215027D01*
X52014Y215095D01*
X52008Y215185D01*
X52013Y215275D01*
X51998Y215343D01*
X51994Y215413D01*
X51966Y215498D01*
X51948Y215586D01*
X51918Y215649D01*
X51896Y215715D01*
X51848Y215791D01*
X51809Y215872D01*
X51763Y215925D01*
X51726Y215984D01*
X51660Y216045D01*
X51602Y216114D01*
X51545Y216154D01*
X51494Y216202D01*
X51416Y216245D01*
X51342Y216297D01*
X51277Y216322D01*
X51216Y216355D01*
X51129Y216378D01*
X51045Y216410D01*
X50975Y216417D01*
X50908Y216435D01*
X50747Y216445D01*
X48485Y216445D01*
X45509Y217678D01*
X43232Y219955D01*
X41999Y222931D01*
X41999Y226152D01*
X43232Y229128D01*
X44135Y230032D01*
X44196Y230110D01*
X44264Y230182D01*
X44288Y230225D01*
X44309Y230251D01*
X44315Y230263D01*
X44330Y230283D01*
X44370Y230374D01*
X44417Y230461D01*
X44429Y230505D01*
X44445Y230539D01*
X44448Y230554D01*
X44457Y230575D01*
X44472Y230673D01*
X44497Y230768D01*
X44501Y230832D01*
X44505Y230851D01*
X44503Y230870D01*
X44507Y230889D01*
X44505Y230901D01*
X44507Y230929D01*
X44507Y281395D01*
X45358Y283449D01*
X52397Y290488D01*
X54451Y291339D01*
X108284Y291339D01*
X108383Y291351D01*
X108482Y291354D01*
X108540Y291371D01*
X108600Y291379D01*
X108692Y291415D01*
X108787Y291443D01*
X108839Y291473D01*
X108896Y291496D01*
X108976Y291554D01*
X109061Y291604D01*
X109136Y291670D01*
X109153Y291682D01*
X109161Y291692D01*
X109182Y291710D01*
X116277Y298806D01*
X116338Y298884D01*
X116406Y298956D01*
X116435Y299009D01*
X116472Y299057D01*
X116511Y299148D01*
X116559Y299235D01*
X116574Y299293D01*
X116598Y299349D01*
X116614Y299447D01*
X116639Y299542D01*
X116645Y299643D01*
X116648Y299663D01*
X116647Y299675D01*
X116649Y299703D01*
X116649Y321787D01*
X117500Y323841D01*
X118589Y324930D01*
X118649Y325008D01*
X118717Y325080D01*
X118746Y325133D01*
X118783Y325181D01*
X118823Y325272D01*
X118871Y325359D01*
X118886Y325417D01*
X118910Y325473D01*
X118925Y325571D01*
X118950Y325666D01*
X118956Y325767D01*
X118960Y325787D01*
X118958Y325799D01*
X118960Y325827D01*
X118960Y327859D01*
X121341Y330240D01*
X127123Y330240D01*
X127192Y330248D01*
X127262Y330247D01*
X127350Y330268D01*
X127439Y330280D01*
X127504Y330305D01*
X127572Y330322D01*
X127651Y330364D01*
X127734Y330397D01*
X127791Y330438D01*
X127853Y330470D01*
X127919Y330531D01*
X127992Y330583D01*
X128036Y330637D01*
X128088Y330684D01*
X128137Y330759D01*
X128195Y330828D01*
X128224Y330891D01*
X128263Y330950D01*
X128292Y331035D01*
X128330Y331116D01*
X128343Y331185D01*
X128366Y331251D01*
X128373Y331340D01*
X128390Y331428D01*
X128386Y331498D01*
X128391Y331568D01*
X128376Y331656D01*
X128370Y331746D01*
X128349Y331812D01*
X128337Y331881D01*
X128300Y331963D01*
X128272Y332048D01*
X128235Y332107D01*
X128206Y332171D01*
X128150Y332241D01*
X128102Y332317D01*
X128051Y332365D01*
X128008Y332419D01*
X127936Y332473D01*
X127870Y332535D01*
X127809Y332569D01*
X127753Y332611D01*
X127609Y332682D01*
X127176Y332861D01*
X124898Y335139D01*
X123666Y338114D01*
X123666Y341336D01*
X124898Y344311D01*
X127176Y346589D01*
X130152Y347822D01*
X133373Y347822D01*
X135057Y347124D01*
X135086Y347116D01*
X135112Y347103D01*
X135239Y347074D01*
X135364Y347040D01*
X135393Y347040D01*
X135422Y347033D01*
X135552Y347037D01*
X135682Y347035D01*
X135711Y347042D01*
X135740Y347043D01*
X135864Y347079D01*
X135991Y347109D01*
X136017Y347123D01*
X136046Y347131D01*
X136157Y347197D01*
X136272Y347258D01*
X136294Y347278D01*
X136320Y347293D01*
X136440Y347399D01*
X136831Y347790D01*
X139244Y348790D01*
X152856Y348790D01*
X155269Y347790D01*
X157115Y345944D01*
X158115Y343531D01*
X158115Y335919D01*
X157115Y333506D01*
X155269Y331660D01*
X153502Y330928D01*
X153459Y330903D01*
X153412Y330887D01*
X153321Y330825D01*
X153226Y330770D01*
X153190Y330736D01*
X153149Y330708D01*
X153076Y330626D01*
X152998Y330549D01*
X152972Y330507D01*
X152939Y330470D01*
X152889Y330372D01*
X152831Y330278D01*
X152817Y330231D01*
X152794Y330186D01*
X152770Y330079D01*
X152738Y329974D01*
X152735Y329925D01*
X152724Y329876D01*
X152728Y329766D01*
X152723Y329657D01*
X152733Y329608D01*
X152734Y329558D01*
X152765Y329452D01*
X152787Y329345D01*
X152809Y329300D01*
X152823Y329253D01*
X152878Y329158D01*
X152927Y329059D01*
X152959Y329021D01*
X152984Y328979D01*
X153090Y328858D01*
X154090Y327859D01*
X154090Y325827D01*
X154102Y325729D01*
X154105Y325630D01*
X154122Y325572D01*
X154130Y325512D01*
X154166Y325420D01*
X154194Y325324D01*
X154224Y325272D01*
X154247Y325216D01*
X154305Y325136D01*
X154355Y325050D01*
X154421Y324975D01*
X154433Y324959D01*
X154443Y324951D01*
X154462Y324930D01*
X155729Y323662D01*
X165180Y314211D01*
X165258Y314151D01*
X165330Y314083D01*
X165383Y314054D01*
X165431Y314017D01*
X165522Y313977D01*
X165609Y313929D01*
X165667Y313914D01*
X165723Y313890D01*
X165821Y313875D01*
X165916Y313850D01*
X166016Y313844D01*
X166037Y313840D01*
X166049Y313842D01*
X166077Y313840D01*
X181834Y313840D01*
X181869Y313805D01*
X181963Y313732D01*
X182052Y313653D01*
X182088Y313635D01*
X182120Y313610D01*
X182229Y313563D01*
X182335Y313508D01*
X182375Y313500D01*
X182412Y313484D01*
X182529Y313465D01*
X182645Y313439D01*
X182686Y313440D01*
X182726Y313434D01*
X182844Y313445D01*
X182963Y313448D01*
X183002Y313460D01*
X183042Y313463D01*
X183155Y313504D01*
X183269Y313537D01*
X183304Y313557D01*
X183342Y313571D01*
X183440Y313638D01*
X183543Y313698D01*
X183588Y313738D01*
X183605Y313750D01*
X183618Y313765D01*
X183664Y313805D01*
X193301Y323442D01*
X193322Y323469D01*
X193348Y323492D01*
X193419Y323595D01*
X193496Y323693D01*
X193509Y323725D01*
X193529Y323754D01*
X193572Y323871D01*
X193622Y323985D01*
X193627Y324019D01*
X193639Y324052D01*
X193652Y324176D01*
X193672Y324299D01*
X193668Y324334D01*
X193672Y324368D01*
X193658Y324529D01*
X193441Y325966D01*
X193437Y325980D01*
X193436Y325994D01*
X193399Y326151D01*
X192969Y327544D01*
X193013Y327664D01*
X193068Y327812D01*
X193069Y327816D01*
X193070Y327820D01*
X193086Y327970D01*
X193103Y328128D01*
X193102Y328132D01*
X193103Y328136D01*
X193089Y328296D01*
X193059Y328492D01*
X193058Y328497D01*
X193058Y328501D01*
X193015Y328648D01*
X192973Y328799D01*
X192971Y328802D01*
X192970Y328806D01*
X192891Y328939D01*
X192813Y329073D01*
X192810Y329076D01*
X192808Y329080D01*
X192722Y329178D01*
X192722Y330634D01*
X192720Y330648D01*
X192721Y330663D01*
X192707Y330823D01*
X192490Y332265D01*
X192552Y332379D01*
X192628Y332515D01*
X192629Y332518D01*
X192631Y332522D01*
X192670Y332674D01*
X192710Y332822D01*
X192710Y332826D01*
X192711Y332830D01*
X192721Y332991D01*
X192721Y333189D01*
X192720Y333193D01*
X192721Y333197D01*
X192701Y333348D01*
X192681Y333505D01*
X192679Y333508D01*
X192679Y333513D01*
X192622Y333654D01*
X192564Y333800D01*
X192561Y333804D01*
X192560Y333807D01*
X192489Y333917D01*
X192706Y335357D01*
X192706Y335371D01*
X192710Y335385D01*
X192720Y335546D01*
X192720Y337004D01*
X192798Y337106D01*
X192894Y337230D01*
X192896Y337234D01*
X192898Y337237D01*
X192959Y337380D01*
X193020Y337522D01*
X193021Y337526D01*
X193022Y337530D01*
X193056Y337687D01*
X193086Y337883D01*
X193086Y337888D01*
X193087Y337891D01*
X193090Y338044D01*
X193093Y338201D01*
X193093Y338205D01*
X193093Y338209D01*
X193057Y338360D01*
X193022Y338511D01*
X193020Y338515D01*
X193019Y338519D01*
X192965Y338637D01*
X193394Y340029D01*
X193397Y340043D01*
X193403Y340057D01*
X193436Y340214D01*
X193653Y341656D01*
X193685Y341686D01*
X193704Y341700D01*
X193723Y341723D01*
X193747Y341746D01*
X193859Y341854D01*
X193862Y341857D01*
X193864Y341860D01*
X193946Y341993D01*
X194028Y342124D01*
X194029Y342127D01*
X194031Y342131D01*
X194088Y342281D01*
X194147Y342471D01*
X194147Y342475D01*
X194149Y342479D01*
X194175Y342632D01*
X194202Y342784D01*
X194201Y342788D01*
X194202Y342793D01*
X194189Y342945D01*
X194177Y343101D01*
X194175Y343105D01*
X194175Y343109D01*
X194140Y343235D01*
X194369Y343710D01*
X194392Y343778D01*
X194424Y343842D01*
X194442Y343929D01*
X194470Y344012D01*
X194475Y344083D01*
X194490Y344154D01*
X194486Y344242D01*
X194493Y344329D01*
X194480Y344400D01*
X194477Y344471D01*
X194451Y344556D01*
X194436Y344642D01*
X194406Y344707D01*
X194385Y344776D01*
X194340Y344851D01*
X194303Y344931D01*
X194258Y344987D01*
X194221Y345048D01*
X194158Y345110D01*
X194103Y345178D01*
X194045Y345221D01*
X193994Y345271D01*
X193860Y345360D01*
X163336Y362982D01*
X164343Y364031D01*
X164361Y364059D01*
X164394Y364093D01*
X166136Y366616D01*
X166147Y366643D01*
X166166Y366665D01*
X166186Y366734D01*
X166214Y366799D01*
X166214Y366828D01*
X166222Y366856D01*
X166214Y366927D01*
X166215Y366998D01*
X166203Y367025D01*
X166200Y367054D01*
X166165Y367116D01*
X166137Y367181D01*
X166117Y367202D01*
X166102Y367227D01*
X166025Y367290D01*
X165995Y367320D01*
X165985Y367324D01*
X165974Y367333D01*
X149474Y376833D01*
X149401Y376857D01*
X149331Y376888D01*
X149307Y376888D01*
X149285Y376896D01*
X149209Y376890D01*
X149132Y376891D01*
X149108Y376881D01*
X149087Y376880D01*
X149048Y376859D01*
X148976Y376833D01*
X132476Y367333D01*
X132454Y367314D01*
X132428Y367301D01*
X132380Y367248D01*
X132327Y367201D01*
X132314Y367175D01*
X132295Y367154D01*
X132272Y367086D01*
X132241Y367022D01*
X132240Y366993D01*
X132230Y366966D01*
X132235Y366894D01*
X132232Y366823D01*
X132242Y366796D01*
X132244Y366767D01*
X132286Y366677D01*
X132301Y366637D01*
X132308Y366629D01*
X132314Y366616D01*
X134056Y364093D01*
X134080Y364069D01*
X134107Y364031D01*
X135114Y362982D01*
X104590Y345360D01*
X104533Y345317D01*
X104471Y345282D01*
X104407Y345221D01*
X104337Y345168D01*
X104292Y345112D01*
X104241Y345062D01*
X104194Y344987D01*
X104139Y344919D01*
X104110Y344853D01*
X104072Y344792D01*
X104046Y344708D01*
X104010Y344628D01*
X103998Y344557D01*
X103976Y344489D01*
X103971Y344401D01*
X103957Y344314D01*
X103963Y344243D01*
X103959Y344172D01*
X103976Y344085D01*
X103983Y343998D01*
X104007Y343930D01*
X104021Y343860D01*
X104081Y343710D01*
X104311Y343233D01*
X104284Y343105D01*
X104252Y342953D01*
X104252Y342949D01*
X104251Y342945D01*
X104258Y342793D01*
X104264Y342636D01*
X104266Y342632D01*
X104266Y342628D01*
X104303Y342471D01*
X104362Y342282D01*
X104363Y342278D01*
X104364Y342274D01*
X104430Y342131D01*
X104493Y341992D01*
X104495Y341989D01*
X104497Y341985D01*
X104594Y341865D01*
X104692Y341744D01*
X104695Y341741D01*
X104698Y341738D01*
X104797Y341654D01*
X105014Y340214D01*
X105017Y340200D01*
X105018Y340186D01*
X105056Y340029D01*
X105485Y338636D01*
X105440Y338514D01*
X105385Y338368D01*
X105384Y338364D01*
X105383Y338360D01*
X105367Y338206D01*
X105350Y338052D01*
X105351Y338048D01*
X105350Y338044D01*
X105364Y337883D01*
X105394Y337687D01*
X105395Y337684D01*
X105395Y337679D01*
X105438Y337529D01*
X105480Y337381D01*
X105482Y337378D01*
X105483Y337374D01*
X105562Y337240D01*
X105640Y337106D01*
X105642Y337103D01*
X105645Y337100D01*
X105730Y337002D01*
X105730Y335546D01*
X105732Y335531D01*
X105730Y335517D01*
X105744Y335357D01*
X105961Y333915D01*
X105897Y333800D01*
X105822Y333665D01*
X105821Y333661D01*
X105819Y333658D01*
X105779Y333504D01*
X105741Y333358D01*
X105741Y333354D01*
X105739Y333350D01*
X105729Y333189D01*
X105729Y332991D01*
X105730Y332987D01*
X105729Y332983D01*
X105749Y332829D01*
X105769Y332675D01*
X105770Y332671D01*
X105771Y332667D01*
X105829Y332523D01*
X105886Y332380D01*
X105888Y332376D01*
X105890Y332372D01*
X105960Y332263D01*
X105743Y330823D01*
X105742Y330809D01*
X105739Y330794D01*
X105728Y330634D01*
X105728Y329176D01*
X105648Y329072D01*
X105553Y328950D01*
X105552Y328946D01*
X105549Y328942D01*
X105488Y328799D01*
X105427Y328658D01*
X105426Y328654D01*
X105425Y328650D01*
X105391Y328492D01*
X105361Y328296D01*
X105361Y328292D01*
X105360Y328288D01*
X105357Y328135D01*
X105353Y327979D01*
X105354Y327974D01*
X105354Y327970D01*
X105390Y327820D01*
X105425Y327669D01*
X105427Y327665D01*
X105428Y327661D01*
X105481Y327543D01*
X105051Y326151D01*
X105049Y326137D01*
X105043Y326123D01*
X105009Y325966D01*
X104791Y324524D01*
X104696Y324433D01*
X104585Y324327D01*
X104583Y324323D01*
X104580Y324320D01*
X104499Y324189D01*
X104416Y324057D01*
X104415Y324053D01*
X104413Y324050D01*
X104356Y323899D01*
X104297Y323710D01*
X104297Y323706D01*
X104295Y323702D01*
X104269Y323547D01*
X104242Y323397D01*
X104243Y323392D01*
X104242Y323388D01*
X104255Y323233D01*
X104267Y323079D01*
X104268Y323076D01*
X104269Y323071D01*
X104304Y322946D01*
X103671Y321634D01*
X103667Y321620D01*
X103659Y321608D01*
X103602Y321458D01*
X103172Y320064D01*
X103064Y319988D01*
X102938Y319900D01*
X102936Y319897D01*
X102932Y319894D01*
X102834Y319778D01*
X102731Y319658D01*
X102730Y319654D01*
X102727Y319651D01*
X102648Y319511D01*
X102562Y319333D01*
X102561Y319329D01*
X102558Y319325D01*
X102510Y319179D01*
X102461Y319031D01*
X102460Y319027D01*
X102459Y319023D01*
X102449Y318870D01*
X102438Y318714D01*
X102439Y318710D01*
X102438Y318706D01*
X102454Y318577D01*
X101634Y317374D01*
X101627Y317361D01*
X101618Y317350D01*
X101539Y317209D01*
X100906Y315896D01*
X100787Y315836D01*
X100776Y315830D01*
X100736Y315815D01*
X100718Y315802D01*
X100650Y315768D01*
X100647Y315765D01*
X100643Y315763D01*
X100537Y315670D01*
X100479Y315628D01*
X100455Y315599D01*
X100410Y315560D01*
X100407Y315556D01*
X100404Y315554D01*
X100305Y315427D01*
X100193Y315263D01*
X100192Y315259D01*
X100189Y315256D01*
X100119Y315118D01*
X100049Y314980D01*
X100048Y314976D01*
X100046Y314972D01*
X100013Y314822D01*
X99979Y314670D01*
X99979Y314665D01*
X99978Y314661D01*
X99974Y314531D01*
X98983Y313464D01*
X98975Y313452D01*
X98964Y313443D01*
X98865Y313316D01*
X98043Y312111D01*
X97919Y312070D01*
X97772Y312023D01*
X97768Y312021D01*
X97764Y312019D01*
X97635Y311936D01*
X97503Y311853D01*
X97500Y311850D01*
X97496Y311848D01*
X97380Y311737D01*
X97245Y311592D01*
X97242Y311588D01*
X97239Y311586D01*
X97151Y311461D01*
X97059Y311333D01*
X97058Y311329D01*
X97056Y311326D01*
X97001Y311182D01*
X96944Y311037D01*
X96943Y311033D01*
X96942Y311029D01*
X96919Y310901D01*
X95780Y309993D01*
X95770Y309983D01*
X95758Y309975D01*
X95641Y309864D01*
X94649Y308796D01*
X94519Y308774D01*
X94367Y308749D01*
X94364Y308747D01*
X94359Y308746D01*
X94218Y308683D01*
X94076Y308621D01*
X94073Y308618D01*
X94069Y308617D01*
X93937Y308524D01*
X93782Y308401D01*
X93779Y308398D01*
X93776Y308396D01*
X93668Y308284D01*
X93560Y308173D01*
X93558Y308170D01*
X93555Y308167D01*
X93480Y308033D01*
X93402Y307897D01*
X93401Y307893D01*
X93399Y307890D01*
X93357Y307767D01*
X92096Y307039D01*
X92084Y307030D01*
X92071Y307024D01*
X91939Y306932D01*
X90799Y306023D01*
X90667Y306021D01*
X90513Y306019D01*
X90509Y306018D01*
X90505Y306018D01*
X90354Y305976D01*
X90206Y305936D01*
X90202Y305934D01*
X90198Y305932D01*
X90054Y305861D01*
X89882Y305762D01*
X89879Y305759D01*
X89875Y305758D01*
X89754Y305665D01*
X89629Y305570D01*
X89626Y305567D01*
X89623Y305564D01*
X89528Y305443D01*
X89431Y305321D01*
X89430Y305317D01*
X89427Y305314D01*
X89368Y305198D01*
X88012Y304666D01*
X87999Y304659D01*
X87985Y304656D01*
X87841Y304584D01*
X86578Y303856D01*
X86449Y303872D01*
X86295Y303894D01*
X86291Y303893D01*
X86287Y303894D01*
X86132Y303875D01*
X85979Y303857D01*
X85975Y303856D01*
X85971Y303855D01*
X85818Y303806D01*
X85633Y303734D01*
X85629Y303732D01*
X85625Y303731D01*
X85490Y303656D01*
X85354Y303581D01*
X85351Y303579D01*
X85347Y303577D01*
X85235Y303470D01*
X85121Y303364D01*
X85119Y303361D01*
X85116Y303358D01*
X85040Y303253D01*
X83620Y302929D01*
X83607Y302924D01*
X83592Y302923D01*
X83439Y302873D01*
X82081Y302341D01*
X81958Y302377D01*
X81807Y302421D01*
X81803Y302421D01*
X81799Y302422D01*
X81646Y302427D01*
X81489Y302432D01*
X81485Y302431D01*
X81481Y302431D01*
X81322Y302405D01*
X81129Y302361D01*
X81125Y302360D01*
X81121Y302360D01*
X80975Y302305D01*
X80830Y302252D01*
X80827Y302250D01*
X80823Y302249D01*
X80694Y302159D01*
X80568Y302073D01*
X80565Y302070D01*
X80562Y302067D01*
X80471Y301974D01*
X79018Y301866D01*
X79004Y301863D01*
X78990Y301863D01*
X78831Y301838D01*
X77409Y301514D01*
X77288Y301569D01*
X77150Y301633D01*
X77146Y301634D01*
X77142Y301636D01*
X76989Y301663D01*
X76837Y301692D01*
X76833Y301692D01*
X76829Y301692D01*
X76668Y301691D01*
X76470Y301676D01*
X76466Y301675D01*
X76462Y301675D01*
X76310Y301643D01*
X76159Y301613D01*
X76155Y301611D01*
X76151Y301610D01*
X76012Y301541D01*
X75873Y301474D01*
X75869Y301471D01*
X75866Y301469D01*
X75762Y301391D01*
X74310Y301500D01*
X74295Y301500D01*
X74281Y301502D01*
X74120Y301500D01*
X72666Y301392D01*
X72557Y301463D01*
X72427Y301549D01*
X72423Y301550D01*
X72420Y301553D01*
X72273Y301603D01*
X72127Y301653D01*
X72123Y301654D01*
X72119Y301655D01*
X71959Y301677D01*
X71762Y301692D01*
X71758Y301692D01*
X71754Y301693D01*
X71602Y301684D01*
X71444Y301676D01*
X71440Y301675D01*
X71436Y301675D01*
X71287Y301627D01*
X71140Y301582D01*
X71137Y301579D01*
X71133Y301578D01*
X71019Y301516D01*
X69599Y301841D01*
X69585Y301842D01*
X69571Y301847D01*
X69412Y301869D01*
X67958Y301978D01*
X67858Y302067D01*
X67745Y302169D01*
X67741Y302171D01*
X67738Y302174D01*
X67598Y302246D01*
X67463Y302317D01*
X67460Y302318D01*
X67456Y302320D01*
X67301Y302366D01*
X67108Y302410D01*
X67104Y302410D01*
X67100Y302412D01*
X66944Y302426D01*
X66792Y302442D01*
X66788Y302441D01*
X66783Y302441D01*
X66630Y302417D01*
X66477Y302393D01*
X66474Y302392D01*
X66469Y302391D01*
X66347Y302347D01*
X64992Y302879D01*
X64978Y302883D01*
X64965Y302889D01*
X64811Y302935D01*
X64525Y303001D01*
X64443Y303009D01*
X64363Y303027D01*
X64285Y303024D01*
X64208Y303032D01*
X64127Y303020D01*
X64045Y303017D01*
X63970Y302996D01*
X63894Y302984D01*
X63818Y302951D01*
X63739Y302929D01*
X63673Y302889D01*
X63602Y302859D01*
X63536Y302809D01*
X63465Y302767D01*
X63354Y302669D01*
X63349Y302665D01*
X63348Y302664D01*
X63345Y302661D01*
X62696Y302012D01*
X60082Y300929D01*
X54972Y300929D01*
X54962Y300928D01*
X54953Y300929D01*
X54804Y300908D01*
X54656Y300889D01*
X54647Y300886D01*
X54638Y300885D01*
X54486Y300833D01*
X52344Y299945D01*
X49122Y299945D01*
X46147Y301178D01*
X43869Y303456D01*
X42636Y306431D01*
X42636Y307394D01*
X42620Y307525D01*
X42609Y307657D01*
X42600Y307682D01*
X42596Y307709D01*
X42548Y307832D01*
X42504Y307957D01*
X42489Y307980D01*
X42479Y308005D01*
X42402Y308112D01*
X42328Y308222D01*
X42308Y308240D01*
X42292Y308262D01*
X42190Y308347D01*
X42092Y308435D01*
X42068Y308448D01*
X42048Y308465D01*
X41928Y308521D01*
X41811Y308583D01*
X41784Y308589D01*
X41760Y308600D01*
X41630Y308625D01*
X41501Y308656D01*
X41474Y308655D01*
X41447Y308660D01*
X41315Y308652D01*
X41183Y308649D01*
X41157Y308642D01*
X41130Y308640D01*
X41004Y308600D01*
X40877Y308564D01*
X40842Y308547D01*
X40828Y308542D01*
X40809Y308531D01*
X40732Y308493D01*
X17905Y295314D01*
X17501Y296708D01*
X17485Y296738D01*
X17472Y296783D01*
X16158Y299553D01*
X16140Y299577D01*
X16130Y299604D01*
X16081Y299656D01*
X16038Y299713D01*
X16013Y299727D01*
X15993Y299748D01*
X15928Y299777D01*
X15866Y299812D01*
X15838Y299816D01*
X15811Y299828D01*
X15740Y299828D01*
X15669Y299837D01*
X15641Y299829D01*
X15612Y299830D01*
X15519Y299795D01*
X15478Y299783D01*
X15469Y299776D01*
X15457Y299771D01*
X-1021Y290232D01*
X-1078Y290181D01*
X-1140Y290136D01*
X-1152Y290116D01*
X-1170Y290100D01*
X-1203Y290031D01*
X-1242Y289965D01*
X-1246Y289939D01*
X-1255Y289921D01*
X-1257Y289876D01*
X-1270Y289801D01*
X-1293Y270761D01*
X-1287Y270733D01*
X-1289Y270704D01*
X-1267Y270636D01*
X-1253Y270566D01*
X-1237Y270542D01*
X-1228Y270515D01*
X-1181Y270461D01*
X-1141Y270402D01*
X-1117Y270387D01*
X-1098Y270365D01*
X-1033Y270333D01*
X-973Y270295D01*
X-945Y270290D01*
X-919Y270277D01*
X-819Y270269D01*
X-777Y270262D01*
X-767Y270264D01*
X-753Y270263D01*
X2303Y270510D01*
X2336Y270519D01*
X2382Y270523D01*
X3790Y270869D01*
X3790Y235613D01*
X3799Y235542D01*
X3798Y235470D01*
X3819Y235385D01*
X3830Y235298D01*
X3856Y235231D01*
X3873Y235161D01*
X3914Y235084D01*
X3947Y235002D01*
X3989Y234944D01*
X4023Y234880D01*
X4082Y234816D01*
X4133Y234745D01*
X4189Y234699D01*
X4237Y234646D01*
X4311Y234598D01*
X4378Y234542D01*
X4443Y234511D01*
X4504Y234472D01*
X4587Y234444D01*
X4666Y234406D01*
X4737Y234393D01*
X4805Y234370D01*
X4964Y234347D01*
X5480Y234309D01*
X5577Y234223D01*
X5693Y234118D01*
X5697Y234116D01*
X5699Y234113D01*
X5836Y234043D01*
X5974Y233970D01*
X5978Y233969D01*
X5982Y233967D01*
X6136Y233922D01*
X6327Y233878D01*
X6332Y233878D01*
X6336Y233876D01*
X6492Y233862D01*
X6644Y233847D01*
X6648Y233847D01*
X6652Y233847D01*
X6807Y233872D01*
X6958Y233895D01*
X6962Y233896D01*
X6966Y233897D01*
X7088Y233941D01*
X8444Y233409D01*
X8458Y233406D01*
X8471Y233399D01*
X8625Y233353D01*
X10047Y233029D01*
X10131Y232928D01*
X10229Y232809D01*
X10232Y232806D01*
X10235Y232803D01*
X10359Y232713D01*
X10485Y232620D01*
X10489Y232619D01*
X10492Y232617D01*
X10638Y232548D01*
X10820Y232477D01*
X10825Y232476D01*
X10828Y232474D01*
X10977Y232437D01*
X11129Y232399D01*
X11133Y232399D01*
X11137Y232398D01*
X11290Y232399D01*
X11447Y232399D01*
X11451Y232400D01*
X11455Y232400D01*
X11582Y232426D01*
X12844Y231698D01*
X12857Y231692D01*
X12869Y231684D01*
X13015Y231616D01*
X14372Y231083D01*
X14441Y230969D01*
X14519Y230838D01*
X14522Y230835D01*
X14524Y230831D01*
X14634Y230724D01*
X14744Y230614D01*
X14748Y230612D01*
X14751Y230609D01*
X14885Y230520D01*
X15054Y230422D01*
X15058Y230420D01*
X15062Y230417D01*
X15205Y230358D01*
X15348Y230298D01*
X15352Y230298D01*
X15356Y230296D01*
X15509Y230274D01*
X15662Y230252D01*
X15666Y230252D01*
X15670Y230252D01*
X15800Y230258D01*
X16939Y229350D01*
X16951Y229342D01*
X16962Y229332D01*
X17096Y229243D01*
X18358Y228514D01*
X18409Y228393D01*
X18467Y228250D01*
X18470Y228246D01*
X18471Y228243D01*
X18565Y228119D01*
X18657Y227994D01*
X18660Y227992D01*
X18662Y227988D01*
X18782Y227880D01*
X18935Y227758D01*
X18938Y227756D01*
X18941Y227753D01*
X19074Y227673D01*
X19206Y227593D01*
X19210Y227591D01*
X19214Y227589D01*
X19364Y227544D01*
X19511Y227500D01*
X19515Y227500D01*
X19519Y227498D01*
X19648Y227485D01*
X20638Y226418D01*
X20650Y226408D01*
X20658Y226397D01*
X20778Y226289D01*
X21918Y225380D01*
X21949Y225253D01*
X21986Y225102D01*
X21988Y225098D01*
X21989Y225095D01*
X22062Y224958D01*
X22135Y224821D01*
X22138Y224818D01*
X22140Y224815D01*
X22242Y224690D01*
X22375Y224546D01*
X22378Y224544D01*
X22380Y224540D01*
X22501Y224441D01*
X22619Y224342D01*
X22622Y224340D01*
X22626Y224338D01*
X22765Y224272D01*
X22906Y224205D01*
X22910Y224204D01*
X22913Y224202D01*
X23039Y224170D01*
X23860Y222967D01*
X23869Y222956D01*
X23876Y222943D01*
X23978Y222818D01*
X24970Y221750D01*
X24982Y221618D01*
X24996Y221465D01*
X24997Y221461D01*
X24998Y221457D01*
X25051Y221310D01*
X25102Y221165D01*
X25104Y221162D01*
X25105Y221158D01*
X25187Y221019D01*
X25298Y220858D01*
X25301Y220854D01*
X25302Y220851D01*
X25404Y220738D01*
X25508Y220619D01*
X25512Y220617D01*
X25515Y220614D01*
X25642Y220529D01*
X25772Y220441D01*
X25776Y220440D01*
X25779Y220437D01*
X25899Y220387D01*
X26531Y219075D01*
X26538Y219062D01*
X26543Y219049D01*
X26625Y218910D01*
X27447Y217706D01*
X27440Y217573D01*
X27430Y217420D01*
X27431Y217416D01*
X27431Y217412D01*
X27461Y217258D01*
X27490Y217108D01*
X27492Y217104D01*
X27493Y217100D01*
X27553Y216951D01*
X27638Y216774D01*
X27641Y216771D01*
X27642Y216767D01*
X27727Y216637D01*
X27811Y216507D01*
X27814Y216505D01*
X27816Y216501D01*
X27931Y216397D01*
X28045Y216292D01*
X28048Y216290D01*
X28052Y216287D01*
X28162Y216219D01*
X28592Y214827D01*
X28598Y214814D01*
X28600Y214800D01*
X28661Y214651D01*
X29294Y213337D01*
X29267Y213209D01*
X29235Y213058D01*
X29235Y213054D01*
X29234Y213049D01*
X29241Y212894D01*
X29247Y212740D01*
X29249Y212736D01*
X29249Y212732D01*
X29286Y212575D01*
X29344Y212388D01*
X29346Y212384D01*
X29347Y212380D01*
X29412Y212239D01*
X29475Y212098D01*
X29478Y212095D01*
X29480Y212091D01*
X29578Y211969D01*
X29674Y211850D01*
X29678Y211848D01*
X29680Y211844D01*
X29780Y211761D01*
X29997Y210321D01*
X30001Y210307D01*
X30001Y210292D01*
X30039Y210136D01*
X30469Y208742D01*
X30423Y208619D01*
X30369Y208475D01*
X30368Y208471D01*
X30367Y208467D01*
X30351Y208312D01*
X30334Y208159D01*
X30334Y208155D01*
X30334Y208150D01*
X30348Y207990D01*
X30377Y207796D01*
X30378Y207792D01*
X30378Y207788D01*
X30422Y207639D01*
X30464Y207490D01*
X30466Y207487D01*
X30467Y207483D01*
X30546Y207349D01*
X30623Y207215D01*
X30626Y207212D01*
X30628Y207209D01*
X30714Y207111D01*
X30714Y205655D01*
X30716Y205641D01*
X30715Y205626D01*
X30728Y205466D01*
X30946Y204024D01*
X30883Y203909D01*
X30807Y203774D01*
X30806Y203770D01*
X30804Y203767D01*
X30765Y203617D01*
X30726Y203467D01*
X30725Y203463D01*
X30724Y203459D01*
X30714Y203298D01*
X30714Y203102D01*
X30715Y203098D01*
X30714Y203094D01*
X30735Y202941D01*
X30754Y202786D01*
X30756Y202783D01*
X30756Y202779D01*
X30815Y202633D01*
X30871Y202491D01*
X30874Y202487D01*
X30875Y202484D01*
X30945Y202374D01*
X30728Y200934D01*
X30728Y200920D01*
X30724Y200906D01*
X30714Y200745D01*
X30714Y199287D01*
X30635Y199183D01*
X30540Y199061D01*
X30538Y199057D01*
X30536Y199054D01*
X30474Y198910D01*
X30413Y198769D01*
X30413Y198765D01*
X30411Y198761D01*
X30377Y198604D01*
X30348Y198410D01*
X30348Y198406D01*
X30347Y198402D01*
X30344Y198245D01*
X30340Y198092D01*
X30341Y198088D01*
X30341Y198084D01*
X30377Y197935D01*
X30412Y197782D01*
X30414Y197778D01*
X30415Y197774D01*
X30468Y197656D01*
X30039Y196264D01*
X30036Y196250D01*
X30031Y196237D01*
X29997Y196079D01*
X29779Y194637D01*
X29685Y194547D01*
X29573Y194440D01*
X29571Y194436D01*
X29568Y194433D01*
X29486Y194300D01*
X29405Y194170D01*
X29403Y194166D01*
X29401Y194163D01*
X29344Y194012D01*
X29286Y193825D01*
X29286Y193821D01*
X29284Y193817D01*
X29258Y193662D01*
X29231Y193512D01*
X29232Y193507D01*
X29231Y193503D01*
X29244Y193351D01*
X29256Y193195D01*
X29257Y193190D01*
X29258Y193186D01*
X29293Y193061D01*
X28661Y191749D01*
X28656Y191735D01*
X28649Y191723D01*
X28592Y191573D01*
X28162Y190179D01*
X28055Y190103D01*
X27928Y190014D01*
X27926Y190011D01*
X27922Y190009D01*
X27822Y189890D01*
X27722Y189773D01*
X27720Y189769D01*
X27717Y189766D01*
X27638Y189626D01*
X27553Y189449D01*
X27552Y189445D01*
X27550Y189442D01*
X27501Y189294D01*
X27452Y189147D01*
X27452Y189143D01*
X27451Y189139D01*
X27441Y188987D01*
X27429Y188830D01*
X27430Y188826D01*
X27430Y188822D01*
X27446Y188693D01*
X26625Y187490D01*
X26619Y187477D01*
X26610Y187466D01*
X26531Y187325D01*
X25898Y186012D01*
X25781Y185953D01*
X25643Y185884D01*
X25640Y185881D01*
X25636Y185879D01*
X25520Y185777D01*
X25402Y185676D01*
X25400Y185672D01*
X25397Y185669D01*
X25298Y185542D01*
X25187Y185381D01*
X25186Y185377D01*
X25183Y185374D01*
X25114Y185236D01*
X25043Y185097D01*
X25042Y185093D01*
X25040Y185090D01*
X25007Y184940D01*
X24973Y184787D01*
X24973Y184783D01*
X24972Y184779D01*
X24969Y184649D01*
X23978Y183582D01*
X23970Y183570D01*
X23959Y183560D01*
X23860Y183433D01*
X23038Y182228D01*
X22914Y182187D01*
X22767Y182140D01*
X22763Y182138D01*
X22759Y182136D01*
X22628Y182052D01*
X22498Y181970D01*
X22495Y181967D01*
X22492Y181965D01*
X22375Y181854D01*
X22242Y181710D01*
X22239Y181707D01*
X22236Y181704D01*
X22147Y181578D01*
X22056Y181452D01*
X22055Y181448D01*
X22052Y181444D01*
X21996Y181298D01*
X21941Y181155D01*
X21940Y181151D01*
X21939Y181147D01*
X21916Y181019D01*
X20778Y180111D01*
X20767Y180101D01*
X20755Y180093D01*
X20638Y179982D01*
X19647Y178913D01*
X19519Y178892D01*
X19365Y178866D01*
X19361Y178865D01*
X19357Y178864D01*
X19216Y178801D01*
X19074Y178738D01*
X19071Y178736D01*
X19067Y178734D01*
X18935Y178642D01*
X18782Y178520D01*
X18779Y178517D01*
X18775Y178515D01*
X18669Y178404D01*
X18560Y178292D01*
X18558Y178288D01*
X18555Y178285D01*
X18479Y178150D01*
X18402Y178016D01*
X18400Y178012D01*
X18398Y178008D01*
X18357Y177885D01*
X17272Y177259D01*
X17188Y177195D01*
X17099Y177139D01*
X17062Y177099D01*
X17019Y177067D01*
X16953Y176984D01*
X16881Y176907D01*
X16855Y176860D01*
X16821Y176818D01*
X16778Y176721D01*
X16727Y176628D01*
X16714Y176576D01*
X16692Y176527D01*
X16674Y176423D01*
X16648Y176321D01*
X16643Y176235D01*
X16639Y176214D01*
X16640Y176198D01*
X16638Y176160D01*
X16638Y170926D01*
X16639Y170917D01*
X16638Y170908D01*
X16659Y170759D01*
X16678Y170611D01*
X16681Y170602D01*
X16682Y170593D01*
X16734Y170440D01*
X17622Y168298D01*
X17622Y165077D01*
X16389Y162101D01*
X14111Y159823D01*
X11136Y158591D01*
X7914Y158591D01*
X5545Y159572D01*
X5497Y159585D01*
X5452Y159607D01*
X5344Y159627D01*
X5238Y159656D01*
X5188Y159657D01*
X5139Y159666D01*
X5030Y159660D01*
X4920Y159661D01*
X4872Y159650D01*
X4822Y159647D01*
X4718Y159613D01*
X4611Y159587D01*
X4567Y159564D01*
X4520Y159549D01*
X4427Y159490D01*
X4330Y159438D01*
X4293Y159405D01*
X4251Y159378D01*
X4176Y159299D01*
X4094Y159225D01*
X4067Y159183D01*
X4033Y159147D01*
X3980Y159051D01*
X3920Y158959D01*
X3903Y158912D01*
X3879Y158868D01*
X3852Y158762D01*
X3816Y158658D01*
X3812Y158608D01*
X3800Y158560D01*
X3790Y158400D01*
X3790Y135531D01*
X2382Y135877D01*
X2348Y135879D01*
X2303Y135890D01*
X-753Y136137D01*
X-782Y136134D01*
X-810Y136138D01*
X-880Y136122D01*
X-951Y136113D01*
X-976Y136099D01*
X-1004Y136092D01*
X-1061Y136050D01*
X-1123Y136014D01*
X-1141Y135991D01*
X-1164Y135974D01*
X-1200Y135913D01*
X-1243Y135856D01*
X-1250Y135828D01*
X-1265Y135803D01*
X-1282Y135704D01*
X-1292Y135663D01*
X-1290Y135652D01*
X-1293Y135639D01*
X-1270Y116599D01*
X-1254Y116524D01*
X-1246Y116448D01*
X-1235Y116427D01*
X-1230Y116405D01*
X-1186Y116341D01*
X-1149Y116274D01*
X-1129Y116258D01*
X-1117Y116241D01*
X-1080Y116217D01*
X-1021Y116168D01*
X15457Y106629D01*
X15484Y106619D01*
X15508Y106603D01*
X15577Y106588D01*
X15645Y106565D01*
X15674Y106567D01*
X15702Y106561D01*
X15772Y106575D01*
X15843Y106580D01*
X15869Y106594D01*
X15897Y106599D01*
X15957Y106639D01*
X16020Y106672D01*
X16038Y106694D01*
X16062Y106710D01*
X16120Y106792D01*
X16147Y106825D01*
X16150Y106835D01*
X16158Y106847D01*
X17472Y109617D01*
X17480Y109650D01*
X17501Y109692D01*
X17905Y111086D01*
X48423Y93467D01*
X48489Y93439D01*
X48551Y93403D01*
X48635Y93378D01*
X48716Y93344D01*
X48787Y93334D01*
X48856Y93313D01*
X48944Y93310D01*
X49030Y93298D01*
X49102Y93305D01*
G37*
G36*
X93262Y140247D02*
X93262Y140247D01*
X93400Y140256D01*
X93420Y140262D01*
X93440Y140264D01*
X93571Y140311D01*
X93703Y140354D01*
X93720Y140365D01*
X93739Y140372D01*
X93854Y140450D01*
X93972Y140524D01*
X93986Y140539D01*
X94002Y140550D01*
X94094Y140655D01*
X94190Y140756D01*
X94199Y140773D01*
X94213Y140789D01*
X94276Y140913D01*
X94343Y141034D01*
X94348Y141054D01*
X94357Y141072D01*
X94388Y141208D01*
X94423Y141342D01*
X94424Y141370D01*
X94427Y141382D01*
X94426Y141403D01*
X94433Y141503D01*
X94433Y151756D01*
X94420Y151854D01*
X94417Y151953D01*
X94401Y152011D01*
X94393Y152071D01*
X94356Y152163D01*
X94329Y152258D01*
X94298Y152310D01*
X94276Y152367D01*
X94218Y152447D01*
X94167Y152532D01*
X94101Y152608D01*
X94089Y152624D01*
X94080Y152632D01*
X94061Y152653D01*
X91973Y154741D01*
X91973Y169109D01*
X94354Y171490D01*
X102680Y171490D01*
X102798Y171505D01*
X102916Y171512D01*
X102955Y171525D01*
X102995Y171530D01*
X103106Y171573D01*
X103219Y171610D01*
X103253Y171632D01*
X103291Y171647D01*
X103387Y171716D01*
X103488Y171780D01*
X103515Y171810D01*
X103548Y171833D01*
X103624Y171925D01*
X103706Y172012D01*
X103725Y172047D01*
X103751Y172078D01*
X103802Y172186D01*
X103859Y172290D01*
X103869Y172330D01*
X103886Y172366D01*
X103909Y172483D01*
X103939Y172598D01*
X103942Y172658D01*
X103946Y172678D01*
X103945Y172699D01*
X103949Y172759D01*
X103949Y176615D01*
X103948Y176624D01*
X103949Y176633D01*
X103928Y176782D01*
X103909Y176930D01*
X103906Y176939D01*
X103904Y176948D01*
X103852Y177100D01*
X103028Y179089D01*
X103028Y182311D01*
X104261Y185286D01*
X106539Y187564D01*
X109514Y188797D01*
X112736Y188797D01*
X115711Y187564D01*
X117989Y185286D01*
X119222Y182311D01*
X119222Y179089D01*
X117989Y176114D01*
X115561Y173686D01*
X115560Y173685D01*
X115558Y173682D01*
X115533Y173657D01*
X115498Y173612D01*
X115446Y173562D01*
X115405Y173498D01*
X115357Y173440D01*
X115346Y173416D01*
X115338Y173406D01*
X115316Y173356D01*
X115277Y173293D01*
X115254Y173220D01*
X115221Y173152D01*
X115216Y173124D01*
X115212Y173114D01*
X115204Y173064D01*
X115180Y172990D01*
X115176Y172914D01*
X115161Y172839D01*
X115163Y172810D01*
X115162Y172800D01*
X115166Y172751D01*
X115162Y172672D01*
X115177Y172598D01*
X115181Y172522D01*
X115191Y172493D01*
X115192Y172484D01*
X115208Y172439D01*
X115223Y172360D01*
X115256Y172292D01*
X115279Y172220D01*
X115296Y172193D01*
X115299Y172184D01*
X115326Y172145D01*
X115360Y172073D01*
X115409Y172015D01*
X115449Y171951D01*
X115472Y171929D01*
X115478Y171921D01*
X115514Y171889D01*
X115564Y171829D01*
X115626Y171785D01*
X115681Y171733D01*
X115708Y171718D01*
X115716Y171711D01*
X115761Y171688D01*
X115822Y171644D01*
X115893Y171616D01*
X115960Y171579D01*
X115987Y171572D01*
X115999Y171566D01*
X116051Y171555D01*
X116118Y171528D01*
X116194Y171519D01*
X116267Y171500D01*
X116304Y171498D01*
X116310Y171496D01*
X116319Y171497D01*
X116428Y171490D01*
X124721Y171490D01*
X124874Y171336D01*
X124953Y171276D01*
X125025Y171208D01*
X125078Y171179D01*
X125126Y171142D01*
X125217Y171102D01*
X125303Y171054D01*
X125362Y171039D01*
X125418Y171015D01*
X125516Y171000D01*
X125611Y170975D01*
X125711Y170969D01*
X125732Y170965D01*
X125744Y170967D01*
X125772Y170965D01*
X142146Y170965D01*
X144527Y168584D01*
X144527Y162277D01*
X144545Y162139D01*
X144558Y162001D01*
X144565Y161982D01*
X144567Y161962D01*
X144618Y161832D01*
X144665Y161702D01*
X144677Y161685D01*
X144684Y161666D01*
X144766Y161554D01*
X144844Y161439D01*
X144859Y161425D01*
X144871Y161409D01*
X144978Y161320D01*
X145082Y161228D01*
X145100Y161219D01*
X145116Y161206D01*
X145241Y161147D01*
X145366Y161083D01*
X145385Y161079D01*
X145404Y161070D01*
X145540Y161044D01*
X145676Y161014D01*
X145696Y161014D01*
X145716Y161011D01*
X145855Y161019D01*
X145994Y161024D01*
X146013Y161029D01*
X146033Y161030D01*
X146166Y161073D01*
X146299Y161112D01*
X146317Y161122D01*
X146336Y161128D01*
X146453Y161203D01*
X146573Y161273D01*
X146594Y161292D01*
X146605Y161299D01*
X146619Y161314D01*
X146694Y161380D01*
X146779Y161465D01*
X161417Y161465D01*
X161535Y161480D01*
X161654Y161487D01*
X161692Y161500D01*
X161733Y161505D01*
X161843Y161548D01*
X161956Y161585D01*
X161991Y161607D01*
X162028Y161622D01*
X162124Y161691D01*
X162225Y161755D01*
X162253Y161785D01*
X162286Y161808D01*
X162362Y161900D01*
X162443Y161987D01*
X162463Y162022D01*
X162488Y162053D01*
X162539Y162161D01*
X162597Y162265D01*
X162607Y162305D01*
X162624Y162341D01*
X162646Y162458D01*
X162676Y162573D01*
X162680Y162633D01*
X162684Y162653D01*
X162682Y162674D01*
X162686Y162734D01*
X162686Y186072D01*
X162674Y186170D01*
X162671Y186269D01*
X162654Y186327D01*
X162646Y186387D01*
X162610Y186479D01*
X162582Y186575D01*
X162552Y186627D01*
X162529Y186683D01*
X162471Y186763D01*
X162421Y186848D01*
X162355Y186924D01*
X162343Y186940D01*
X162333Y186948D01*
X162315Y186969D01*
X158394Y190890D01*
X158316Y190950D01*
X158244Y191018D01*
X158191Y191047D01*
X158143Y191084D01*
X158052Y191124D01*
X157965Y191172D01*
X157907Y191187D01*
X157851Y191211D01*
X157753Y191226D01*
X157658Y191251D01*
X157557Y191257D01*
X157537Y191261D01*
X157525Y191259D01*
X157497Y191261D01*
X155613Y191261D01*
X155514Y191249D01*
X155415Y191246D01*
X155357Y191229D01*
X155297Y191221D01*
X155205Y191185D01*
X155110Y191157D01*
X155058Y191127D01*
X155001Y191104D01*
X154921Y191046D01*
X154836Y190996D01*
X154760Y190930D01*
X154744Y190918D01*
X154736Y190908D01*
X154715Y190890D01*
X153811Y189986D01*
X150836Y188753D01*
X147614Y188753D01*
X144639Y189986D01*
X142361Y192264D01*
X141128Y195239D01*
X141128Y197930D01*
X141113Y198048D01*
X141106Y198166D01*
X141093Y198205D01*
X141088Y198245D01*
X141045Y198356D01*
X141008Y198469D01*
X140986Y198503D01*
X140971Y198541D01*
X140902Y198637D01*
X140838Y198738D01*
X140808Y198765D01*
X140785Y198798D01*
X140693Y198874D01*
X140606Y198956D01*
X140571Y198975D01*
X140540Y199001D01*
X140432Y199052D01*
X140328Y199109D01*
X140288Y199119D01*
X140252Y199136D01*
X140135Y199159D01*
X140020Y199189D01*
X139960Y199192D01*
X139940Y199196D01*
X139919Y199195D01*
X139859Y199199D01*
X113966Y199199D01*
X113867Y199186D01*
X113768Y199183D01*
X113710Y199167D01*
X113650Y199159D01*
X113558Y199122D01*
X113463Y199095D01*
X113411Y199064D01*
X113354Y199042D01*
X113274Y198984D01*
X113189Y198933D01*
X113114Y198867D01*
X113097Y198855D01*
X113089Y198846D01*
X113068Y198827D01*
X106353Y192112D01*
X104299Y191261D01*
X102767Y191261D01*
X102669Y191249D01*
X102570Y191246D01*
X102512Y191229D01*
X102452Y191221D01*
X102359Y191185D01*
X102264Y191157D01*
X102212Y191127D01*
X102156Y191104D01*
X102076Y191046D01*
X101990Y190996D01*
X101915Y190930D01*
X101899Y190918D01*
X101891Y190908D01*
X101870Y190890D01*
X100966Y189986D01*
X97990Y188753D01*
X94769Y188753D01*
X91793Y189986D01*
X89515Y192264D01*
X88244Y195333D01*
X88219Y195376D01*
X88203Y195423D01*
X88141Y195514D01*
X88086Y195610D01*
X88052Y195645D01*
X88024Y195686D01*
X87942Y195759D01*
X87865Y195838D01*
X87823Y195864D01*
X87785Y195897D01*
X87688Y195947D01*
X87594Y196004D01*
X87546Y196019D01*
X87502Y196042D01*
X87395Y196066D01*
X87290Y196098D01*
X87240Y196100D01*
X87192Y196111D01*
X87082Y196108D01*
X86972Y196113D01*
X86924Y196103D01*
X86874Y196102D01*
X86768Y196071D01*
X86661Y196049D01*
X86616Y196027D01*
X86569Y196013D01*
X86474Y195957D01*
X86375Y195909D01*
X86337Y195877D01*
X86295Y195852D01*
X86174Y195745D01*
X85335Y194907D01*
X85275Y194829D01*
X85207Y194756D01*
X85178Y194703D01*
X85141Y194656D01*
X85101Y194565D01*
X85053Y194478D01*
X85038Y194419D01*
X85014Y194364D01*
X84999Y194266D01*
X84974Y194170D01*
X84968Y194070D01*
X84964Y194050D01*
X84966Y194037D01*
X84964Y194009D01*
X84964Y186213D01*
X84113Y184159D01*
X71682Y171728D01*
X71664Y171705D01*
X71641Y171686D01*
X71566Y171579D01*
X71487Y171477D01*
X71475Y171450D01*
X71458Y171426D01*
X71412Y171304D01*
X71360Y171185D01*
X71356Y171156D01*
X71345Y171128D01*
X71331Y170999D01*
X71311Y170871D01*
X71313Y170841D01*
X71310Y170812D01*
X71328Y170684D01*
X71340Y170554D01*
X71350Y170526D01*
X71354Y170497D01*
X71407Y170345D01*
X71597Y169886D01*
X71597Y168116D01*
X71612Y167998D01*
X71619Y167879D01*
X71632Y167841D01*
X71637Y167800D01*
X71680Y167690D01*
X71717Y167577D01*
X71739Y167542D01*
X71754Y167505D01*
X71823Y167409D01*
X71887Y167308D01*
X71917Y167280D01*
X71940Y167247D01*
X72032Y167171D01*
X72119Y167090D01*
X72154Y167070D01*
X72185Y167045D01*
X72293Y166994D01*
X72397Y166936D01*
X72437Y166926D01*
X72473Y166909D01*
X72590Y166887D01*
X72705Y166857D01*
X72765Y166853D01*
X72785Y166849D01*
X72806Y166851D01*
X72866Y166847D01*
X74636Y166847D01*
X77611Y165614D01*
X79889Y163336D01*
X81122Y160361D01*
X81122Y157139D01*
X79889Y154164D01*
X77611Y151886D01*
X75469Y150999D01*
X75461Y150994D01*
X75452Y150991D01*
X75323Y150915D01*
X75193Y150841D01*
X75186Y150834D01*
X75178Y150830D01*
X75057Y150723D01*
X74471Y150137D01*
X72292Y147958D01*
X69677Y146875D01*
X69434Y146875D01*
X69336Y146862D01*
X69237Y146859D01*
X69179Y146843D01*
X69119Y146835D01*
X69027Y146798D01*
X68932Y146771D01*
X68879Y146740D01*
X68823Y146718D01*
X68743Y146660D01*
X68658Y146609D01*
X68582Y146543D01*
X68566Y146531D01*
X68558Y146522D01*
X68537Y146503D01*
X67951Y145917D01*
X67878Y145823D01*
X67799Y145734D01*
X67781Y145698D01*
X67756Y145666D01*
X67709Y145557D01*
X67655Y145451D01*
X67646Y145411D01*
X67630Y145374D01*
X67611Y145256D01*
X67585Y145140D01*
X67586Y145100D01*
X67580Y145060D01*
X67591Y144941D01*
X67595Y144822D01*
X67606Y144784D01*
X67610Y144743D01*
X67650Y144631D01*
X67683Y144517D01*
X67704Y144482D01*
X67717Y144444D01*
X67784Y144346D01*
X67845Y144243D01*
X67885Y144198D01*
X67896Y144181D01*
X67911Y144168D01*
X67951Y144122D01*
X68064Y144009D01*
X68142Y143949D01*
X68214Y143881D01*
X68267Y143852D01*
X68315Y143814D01*
X68406Y143775D01*
X68493Y143727D01*
X68552Y143712D01*
X68607Y143688D01*
X68705Y143673D01*
X68801Y143648D01*
X68901Y143642D01*
X68921Y143638D01*
X68934Y143640D01*
X68961Y143638D01*
X87702Y143638D01*
X90317Y142555D01*
X92266Y140605D01*
X92376Y140520D01*
X92483Y140431D01*
X92501Y140423D01*
X92517Y140410D01*
X92645Y140355D01*
X92771Y140296D01*
X92790Y140292D01*
X92809Y140284D01*
X92947Y140262D01*
X93083Y140236D01*
X93103Y140237D01*
X93123Y140234D01*
X93262Y140247D01*
G37*
G36*
X469209Y148415D02*
X469209Y148415D01*
X469328Y148423D01*
X469366Y148435D01*
X469407Y148440D01*
X469517Y148484D01*
X469630Y148521D01*
X469665Y148542D01*
X469702Y148557D01*
X469798Y148627D01*
X469899Y148691D01*
X469927Y148720D01*
X469960Y148744D01*
X470036Y148836D01*
X470117Y148922D01*
X470137Y148958D01*
X470162Y148989D01*
X470213Y149097D01*
X470271Y149201D01*
X470281Y149240D01*
X470298Y149277D01*
X470320Y149393D01*
X470350Y149509D01*
X470354Y149569D01*
X470358Y149589D01*
X470356Y149609D01*
X470357Y149614D01*
X470358Y149619D01*
X470357Y149624D01*
X470360Y149669D01*
X470360Y162784D01*
X472741Y165165D01*
X479048Y165165D01*
X479186Y165182D01*
X479324Y165195D01*
X479343Y165202D01*
X479363Y165205D01*
X479493Y165256D01*
X479623Y165303D01*
X479640Y165314D01*
X479659Y165322D01*
X479771Y165403D01*
X479886Y165481D01*
X479900Y165497D01*
X479916Y165508D01*
X480005Y165615D01*
X480097Y165720D01*
X480106Y165738D01*
X480119Y165753D01*
X480178Y165879D01*
X480242Y166003D01*
X480246Y166023D01*
X480255Y166041D01*
X480281Y166177D01*
X480311Y166313D01*
X480311Y166334D01*
X480314Y166353D01*
X480306Y166492D01*
X480301Y166631D01*
X480296Y166651D01*
X480295Y166671D01*
X480252Y166803D01*
X480213Y166937D01*
X480203Y166954D01*
X480197Y166973D01*
X480122Y167091D01*
X480052Y167211D01*
X480033Y167232D01*
X480026Y167242D01*
X480011Y167256D01*
X479945Y167332D01*
X479860Y167416D01*
X479860Y184784D01*
X481974Y186897D01*
X482034Y186975D01*
X482102Y187047D01*
X482127Y187093D01*
X482130Y187097D01*
X482133Y187102D01*
X482168Y187148D01*
X482208Y187239D01*
X482256Y187326D01*
X482271Y187384D01*
X482295Y187440D01*
X482310Y187538D01*
X482335Y187634D01*
X482341Y187734D01*
X482345Y187754D01*
X482343Y187766D01*
X482345Y187794D01*
X482345Y188826D01*
X482333Y188924D01*
X482330Y189023D01*
X482313Y189081D01*
X482305Y189142D01*
X482269Y189234D01*
X482241Y189329D01*
X482211Y189381D01*
X482188Y189437D01*
X482130Y189517D01*
X482080Y189603D01*
X482014Y189678D01*
X482002Y189695D01*
X481992Y189702D01*
X481974Y189723D01*
X480236Y191461D01*
X480158Y191522D01*
X480086Y191590D01*
X480033Y191619D01*
X479985Y191656D01*
X479894Y191695D01*
X479807Y191743D01*
X479749Y191758D01*
X479693Y191782D01*
X479595Y191798D01*
X479499Y191823D01*
X479399Y191829D01*
X479379Y191832D01*
X479366Y191831D01*
X479338Y191833D01*
X448506Y191833D01*
X448457Y191827D01*
X448407Y191829D01*
X448300Y191807D01*
X448191Y191793D01*
X448145Y191775D01*
X448096Y191765D01*
X447997Y191716D01*
X447895Y191676D01*
X447855Y191647D01*
X447810Y191625D01*
X447727Y191554D01*
X447638Y191489D01*
X447606Y191451D01*
X447568Y191419D01*
X447505Y191329D01*
X447435Y191244D01*
X447414Y191199D01*
X447385Y191159D01*
X447346Y191056D01*
X447299Y190956D01*
X447290Y190908D01*
X447272Y190861D01*
X447260Y190752D01*
X447240Y190644D01*
X447243Y190595D01*
X447237Y190545D01*
X447253Y190436D01*
X447259Y190327D01*
X447275Y190279D01*
X447282Y190230D01*
X447334Y190078D01*
X447930Y188639D01*
X447930Y187744D01*
X447942Y187646D01*
X447945Y187547D01*
X447962Y187489D01*
X447970Y187429D01*
X448006Y187337D01*
X448034Y187242D01*
X448064Y187190D01*
X448087Y187133D01*
X448145Y187053D01*
X448195Y186968D01*
X448261Y186892D01*
X448273Y186876D01*
X448283Y186868D01*
X448301Y186847D01*
X450365Y184784D01*
X450365Y167416D01*
X447984Y165035D01*
X441677Y165035D01*
X441539Y165018D01*
X441401Y165005D01*
X441382Y164998D01*
X441362Y164995D01*
X441232Y164944D01*
X441102Y164897D01*
X441085Y164886D01*
X441066Y164878D01*
X440954Y164797D01*
X440839Y164719D01*
X440825Y164703D01*
X440809Y164692D01*
X440720Y164585D01*
X440628Y164480D01*
X440619Y164462D01*
X440606Y164447D01*
X440547Y164321D01*
X440483Y164197D01*
X440479Y164177D01*
X440470Y164159D01*
X440444Y164023D01*
X440414Y163887D01*
X440414Y163866D01*
X440411Y163847D01*
X440419Y163708D01*
X440424Y163569D01*
X440429Y163549D01*
X440430Y163529D01*
X440473Y163397D01*
X440512Y163263D01*
X440522Y163246D01*
X440528Y163227D01*
X440603Y163109D01*
X440673Y162989D01*
X440692Y162968D01*
X440699Y162958D01*
X440714Y162944D01*
X440780Y162868D01*
X440865Y162784D01*
X440865Y149669D01*
X440880Y149551D01*
X440887Y149433D01*
X440900Y149394D01*
X440905Y149354D01*
X440948Y149243D01*
X440985Y149130D01*
X441007Y149096D01*
X441022Y149058D01*
X441091Y148962D01*
X441155Y148861D01*
X441185Y148834D01*
X441208Y148801D01*
X441300Y148725D01*
X441387Y148643D01*
X441422Y148624D01*
X441453Y148598D01*
X441561Y148547D01*
X441665Y148490D01*
X441705Y148480D01*
X441741Y148463D01*
X441858Y148440D01*
X441973Y148410D01*
X442033Y148407D01*
X442053Y148403D01*
X442074Y148404D01*
X442134Y148400D01*
X469091Y148400D01*
X469209Y148415D01*
G37*
G36*
X200891Y59310D02*
X200891Y59310D01*
X200919Y59310D01*
X201017Y59346D01*
X201056Y59358D01*
X201064Y59364D01*
X201075Y59368D01*
X247875Y86368D01*
X247895Y86386D01*
X247920Y86397D01*
X247969Y86451D01*
X248024Y86499D01*
X248035Y86524D01*
X248054Y86544D01*
X248078Y86613D01*
X248109Y86679D01*
X248111Y86706D01*
X248120Y86731D01*
X248115Y86804D01*
X248118Y86877D01*
X248109Y86903D01*
X248107Y86930D01*
X248063Y87026D01*
X248049Y87064D01*
X248042Y87071D01*
X248038Y87081D01*
X245764Y90418D01*
X245741Y90440D01*
X245718Y90476D01*
X242972Y93437D01*
X242946Y93456D01*
X242918Y93488D01*
X239762Y96006D01*
X239733Y96021D01*
X239700Y96048D01*
X236204Y98068D01*
X236174Y98078D01*
X236137Y98101D01*
X232379Y99577D01*
X232347Y99582D01*
X232307Y99599D01*
X228371Y100499D01*
X228339Y100499D01*
X228297Y100510D01*
X224271Y100813D01*
X224240Y100809D01*
X224197Y100813D01*
X220170Y100512D01*
X220139Y100504D01*
X220096Y100501D01*
X216160Y99604D01*
X216131Y99591D01*
X216088Y99582D01*
X212329Y98108D01*
X212302Y98091D01*
X212262Y98076D01*
X208765Y96058D01*
X208741Y96037D01*
X208703Y96016D01*
X205545Y93500D01*
X205525Y93475D01*
X205491Y93449D01*
X202743Y90490D01*
X202727Y90463D01*
X202697Y90432D01*
X200421Y87096D01*
X200409Y87067D01*
X200384Y87032D01*
X198631Y83395D01*
X198623Y83364D01*
X198604Y83325D01*
X197412Y79467D01*
X197409Y79435D01*
X197396Y79394D01*
X196793Y75402D01*
X196794Y75370D01*
X196787Y75328D01*
X196786Y71290D01*
X196789Y71276D01*
X196787Y71266D01*
X196792Y71246D01*
X196791Y71216D01*
X197392Y67223D01*
X197403Y67193D01*
X197408Y67150D01*
X198597Y63291D01*
X198612Y63263D01*
X198624Y63222D01*
X200375Y59584D01*
X200392Y59562D01*
X200401Y59536D01*
X200451Y59483D01*
X200495Y59425D01*
X200519Y59412D01*
X200538Y59392D01*
X200604Y59362D01*
X200668Y59326D01*
X200695Y59323D01*
X200720Y59312D01*
X200793Y59311D01*
X200865Y59302D01*
X200891Y59310D01*
G37*
G36*
X224228Y305591D02*
X224228Y305591D01*
X224271Y305587D01*
X228297Y305890D01*
X228328Y305899D01*
X228371Y305901D01*
X232307Y306801D01*
X232336Y306814D01*
X232379Y306823D01*
X236137Y308299D01*
X236164Y308317D01*
X236204Y308332D01*
X239700Y310352D01*
X239724Y310373D01*
X239762Y310394D01*
X242918Y312912D01*
X242938Y312937D01*
X242972Y312963D01*
X245718Y315924D01*
X245734Y315951D01*
X245764Y315982D01*
X248038Y319319D01*
X248048Y319344D01*
X248065Y319365D01*
X248086Y319435D01*
X248115Y319502D01*
X248115Y319530D01*
X248122Y319556D01*
X248114Y319628D01*
X248114Y319701D01*
X248103Y319726D01*
X248100Y319753D01*
X248064Y319817D01*
X248036Y319884D01*
X248016Y319903D01*
X248003Y319926D01*
X247922Y319994D01*
X247892Y320022D01*
X247883Y320025D01*
X247875Y320032D01*
X201075Y347032D01*
X201049Y347041D01*
X201026Y347057D01*
X200955Y347072D01*
X200886Y347096D01*
X200859Y347093D01*
X200832Y347099D01*
X200761Y347086D01*
X200688Y347080D01*
X200663Y347067D01*
X200637Y347062D01*
X200576Y347022D01*
X200511Y346988D01*
X200494Y346967D01*
X200471Y346952D01*
X200410Y346866D01*
X200385Y346835D01*
X200382Y346826D01*
X200375Y346816D01*
X198624Y343178D01*
X198617Y343147D01*
X198597Y343109D01*
X197408Y339250D01*
X197405Y339218D01*
X197392Y339177D01*
X196791Y335184D01*
X196793Y335153D01*
X196786Y335110D01*
X196787Y331072D01*
X196793Y331043D01*
X196791Y331031D01*
X196793Y331023D01*
X196793Y330998D01*
X197396Y327006D01*
X197407Y326976D01*
X197412Y326933D01*
X198604Y323075D01*
X198619Y323047D01*
X198631Y323006D01*
X200384Y319368D01*
X200403Y319343D01*
X200421Y319304D01*
X202697Y315968D01*
X202720Y315946D01*
X202743Y315910D01*
X205491Y312951D01*
X205516Y312932D01*
X205545Y312900D01*
X208703Y310384D01*
X208731Y310369D01*
X208765Y310342D01*
X212262Y308324D01*
X212292Y308314D01*
X212329Y308292D01*
X216088Y306818D01*
X216120Y306812D01*
X216160Y306796D01*
X220096Y305899D01*
X220128Y305898D01*
X220170Y305888D01*
X224197Y305587D01*
X224228Y305591D01*
G37*
G36*
X97689Y59314D02*
X97689Y59314D01*
X97762Y59320D01*
X97787Y59333D01*
X97813Y59338D01*
X97874Y59378D01*
X97939Y59412D01*
X97956Y59433D01*
X97979Y59448D01*
X98040Y59534D01*
X98065Y59565D01*
X98068Y59574D01*
X98075Y59584D01*
X99826Y63222D01*
X99833Y63253D01*
X99853Y63291D01*
X101042Y67150D01*
X101045Y67182D01*
X101058Y67223D01*
X101659Y71216D01*
X101657Y71247D01*
X101664Y71290D01*
X101663Y75328D01*
X101657Y75359D01*
X101657Y75402D01*
X101054Y79394D01*
X101043Y79424D01*
X101038Y79467D01*
X99846Y83325D01*
X99831Y83353D01*
X99819Y83395D01*
X98066Y87032D01*
X98047Y87057D01*
X98029Y87096D01*
X95753Y90432D01*
X95730Y90454D01*
X95707Y90490D01*
X92959Y93449D01*
X92934Y93468D01*
X92905Y93500D01*
X89747Y96016D01*
X89719Y96031D01*
X89685Y96058D01*
X86188Y98076D01*
X86158Y98086D01*
X86121Y98108D01*
X82362Y99582D01*
X82330Y99588D01*
X82290Y99604D01*
X78354Y100501D01*
X78322Y100502D01*
X78280Y100512D01*
X74254Y100813D01*
X74222Y100809D01*
X74179Y100813D01*
X70153Y100510D01*
X70122Y100501D01*
X70079Y100499D01*
X66143Y99599D01*
X66114Y99586D01*
X66071Y99577D01*
X62313Y98101D01*
X62286Y98083D01*
X62246Y98068D01*
X58750Y96048D01*
X58726Y96027D01*
X58688Y96006D01*
X55532Y93488D01*
X55512Y93463D01*
X55478Y93437D01*
X52732Y90476D01*
X52716Y90449D01*
X52686Y90418D01*
X50412Y87081D01*
X50402Y87056D01*
X50385Y87035D01*
X50364Y86965D01*
X50335Y86898D01*
X50336Y86870D01*
X50328Y86844D01*
X50336Y86772D01*
X50336Y86699D01*
X50347Y86674D01*
X50350Y86647D01*
X50386Y86583D01*
X50414Y86516D01*
X50434Y86497D01*
X50447Y86474D01*
X50528Y86407D01*
X50558Y86378D01*
X50567Y86375D01*
X50576Y86368D01*
X97376Y59368D01*
X97401Y59359D01*
X97424Y59343D01*
X97495Y59328D01*
X97564Y59304D01*
X97591Y59307D01*
X97618Y59301D01*
X97689Y59314D01*
G37*
G36*
X78280Y305888D02*
X78280Y305888D01*
X78311Y305896D01*
X78354Y305899D01*
X82290Y306796D01*
X82319Y306809D01*
X82362Y306818D01*
X86121Y308292D01*
X86148Y308309D01*
X86188Y308324D01*
X89685Y310342D01*
X89709Y310363D01*
X89747Y310384D01*
X92905Y312900D01*
X92925Y312925D01*
X92959Y312951D01*
X95707Y315910D01*
X95723Y315937D01*
X95753Y315968D01*
X98029Y319304D01*
X98041Y319333D01*
X98066Y319368D01*
X99819Y323006D01*
X99827Y323036D01*
X99846Y323075D01*
X101038Y326933D01*
X101041Y326965D01*
X101054Y327006D01*
X101657Y330998D01*
X101656Y331030D01*
X101663Y331072D01*
X101664Y335110D01*
X101658Y335141D01*
X101659Y335184D01*
X101058Y339177D01*
X101047Y339207D01*
X101042Y339250D01*
X99853Y343109D01*
X99838Y343137D01*
X99826Y343178D01*
X98075Y346816D01*
X98058Y346838D01*
X98049Y346864D01*
X97999Y346917D01*
X97955Y346975D01*
X97931Y346988D01*
X97912Y347008D01*
X97846Y347038D01*
X97782Y347074D01*
X97755Y347077D01*
X97730Y347088D01*
X97657Y347089D01*
X97585Y347098D01*
X97559Y347090D01*
X97531Y347090D01*
X97433Y347054D01*
X97394Y347042D01*
X97386Y347036D01*
X97376Y347032D01*
X50576Y320032D01*
X50555Y320014D01*
X50530Y320003D01*
X50481Y319949D01*
X50427Y319901D01*
X50415Y319876D01*
X50396Y319856D01*
X50372Y319787D01*
X50341Y319721D01*
X50340Y319694D01*
X50330Y319669D01*
X50335Y319596D01*
X50332Y319523D01*
X50341Y319497D01*
X50343Y319470D01*
X50387Y319374D01*
X50401Y319336D01*
X50408Y319329D01*
X50412Y319319D01*
X52686Y315982D01*
X52709Y315960D01*
X52732Y315924D01*
X55478Y312963D01*
X55504Y312944D01*
X55532Y312912D01*
X58688Y310394D01*
X58717Y310379D01*
X58750Y310352D01*
X62246Y308332D01*
X62276Y308322D01*
X62313Y308299D01*
X66071Y306823D01*
X66103Y306818D01*
X66143Y306801D01*
X70079Y305901D01*
X70111Y305901D01*
X70153Y305890D01*
X74179Y305587D01*
X74210Y305591D01*
X74254Y305587D01*
X78280Y305888D01*
G37*
G36*
X-749Y175703D02*
X-749Y175703D01*
X-738Y175702D01*
X3286Y176004D01*
X3317Y176012D01*
X3360Y176015D01*
X7294Y176913D01*
X7323Y176926D01*
X7366Y176935D01*
X11122Y178409D01*
X11149Y178426D01*
X11190Y178441D01*
X14684Y180459D01*
X14708Y180480D01*
X14746Y180501D01*
X17901Y183017D01*
X17921Y183042D01*
X17956Y183068D01*
X20700Y186026D01*
X20717Y186053D01*
X20747Y186085D01*
X23020Y189419D01*
X23033Y189448D01*
X23058Y189483D01*
X24808Y193119D01*
X24816Y193150D01*
X24836Y193189D01*
X26025Y197045D01*
X26028Y197076D01*
X26042Y197118D01*
X26643Y201108D01*
X26642Y201140D01*
X26649Y201182D01*
X26649Y205218D01*
X26642Y205249D01*
X26643Y205292D01*
X26042Y209282D01*
X26031Y209312D01*
X26025Y209355D01*
X24836Y213211D01*
X24820Y213239D01*
X24808Y213281D01*
X23058Y216917D01*
X23038Y216942D01*
X23020Y216981D01*
X20747Y220315D01*
X20724Y220338D01*
X20700Y220374D01*
X17956Y223332D01*
X17930Y223351D01*
X17901Y223383D01*
X14746Y225899D01*
X14718Y225913D01*
X14684Y225941D01*
X11190Y227959D01*
X11159Y227969D01*
X11122Y227991D01*
X7366Y229465D01*
X7334Y229471D01*
X7294Y229487D01*
X3360Y230385D01*
X3328Y230386D01*
X3286Y230396D01*
X-738Y230698D01*
X-765Y230694D01*
X-792Y230699D01*
X-862Y230682D01*
X-935Y230673D01*
X-959Y230659D01*
X-985Y230653D01*
X-1044Y230610D01*
X-1107Y230573D01*
X-1123Y230551D01*
X-1145Y230535D01*
X-1182Y230472D01*
X-1226Y230414D01*
X-1233Y230387D01*
X-1247Y230364D01*
X-1264Y230260D01*
X-1274Y230221D01*
X-1272Y230211D01*
X-1274Y230200D01*
X-1274Y176200D01*
X-1269Y176173D01*
X-1271Y176146D01*
X-1249Y176077D01*
X-1235Y176005D01*
X-1219Y175983D01*
X-1211Y175957D01*
X-1163Y175901D01*
X-1122Y175841D01*
X-1099Y175827D01*
X-1081Y175806D01*
X-1016Y175774D01*
X-955Y175734D01*
X-928Y175730D01*
X-903Y175718D01*
X-799Y175708D01*
X-758Y175701D01*
X-749Y175703D01*
G37*
G36*
X174686Y273889D02*
X174686Y273889D01*
X174785Y273892D01*
X174843Y273908D01*
X174903Y273916D01*
X174995Y273953D01*
X175090Y273980D01*
X175142Y274011D01*
X175199Y274033D01*
X175279Y274091D01*
X175364Y274142D01*
X175440Y274208D01*
X175456Y274220D01*
X175464Y274229D01*
X175485Y274248D01*
X176389Y275152D01*
X179198Y276315D01*
X179242Y276340D01*
X179288Y276357D01*
X179379Y276419D01*
X179475Y276473D01*
X179510Y276508D01*
X179552Y276536D01*
X179624Y276618D01*
X179703Y276694D01*
X179729Y276737D01*
X179762Y276774D01*
X179812Y276872D01*
X179869Y276965D01*
X179884Y277013D01*
X179907Y277057D01*
X179931Y277164D01*
X179963Y277269D01*
X179965Y277319D01*
X179976Y277368D01*
X179973Y277477D01*
X179978Y277587D01*
X179968Y277636D01*
X179967Y277685D01*
X179936Y277791D01*
X179914Y277898D01*
X179892Y277943D01*
X179878Y277991D01*
X179822Y278085D01*
X179774Y278184D01*
X179742Y278222D01*
X179717Y278265D01*
X179610Y278386D01*
X179570Y278426D01*
X178720Y280480D01*
X178720Y294441D01*
X178705Y294559D01*
X178697Y294678D01*
X178685Y294716D01*
X178680Y294757D01*
X178636Y294867D01*
X178599Y294980D01*
X178578Y295015D01*
X178563Y295052D01*
X178493Y295148D01*
X178429Y295249D01*
X178400Y295277D01*
X178376Y295310D01*
X178284Y295386D01*
X178197Y295467D01*
X178162Y295487D01*
X178131Y295512D01*
X178023Y295563D01*
X177919Y295621D01*
X177880Y295631D01*
X177843Y295648D01*
X177726Y295670D01*
X177611Y295700D01*
X177551Y295704D01*
X177531Y295708D01*
X177510Y295706D01*
X177450Y295710D01*
X164466Y295710D01*
X162085Y298091D01*
X162085Y300973D01*
X162073Y301071D01*
X162070Y301170D01*
X162053Y301228D01*
X162045Y301288D01*
X162009Y301380D01*
X161981Y301476D01*
X161951Y301528D01*
X161928Y301584D01*
X161870Y301664D01*
X161820Y301750D01*
X161754Y301825D01*
X161742Y301841D01*
X161732Y301849D01*
X161714Y301870D01*
X152845Y310739D01*
X152767Y310799D01*
X152695Y310867D01*
X152642Y310896D01*
X152594Y310933D01*
X152503Y310973D01*
X152416Y311021D01*
X152358Y311036D01*
X152302Y311060D01*
X152204Y311075D01*
X152109Y311100D01*
X152009Y311106D01*
X151988Y311110D01*
X151976Y311108D01*
X151948Y311110D01*
X138341Y311110D01*
X137423Y312029D01*
X137328Y312102D01*
X137239Y312181D01*
X137203Y312199D01*
X137171Y312224D01*
X137062Y312271D01*
X136956Y312325D01*
X136917Y312334D01*
X136879Y312350D01*
X136762Y312369D01*
X136646Y312395D01*
X136605Y312394D01*
X136565Y312400D01*
X136447Y312389D01*
X136328Y312385D01*
X136289Y312374D01*
X136249Y312370D01*
X136136Y312330D01*
X136022Y312297D01*
X135988Y312277D01*
X135949Y312263D01*
X135851Y312196D01*
X135748Y312136D01*
X135703Y312096D01*
X135686Y312084D01*
X135673Y312069D01*
X135628Y312029D01*
X134709Y311110D01*
X129095Y311110D01*
X128977Y311095D01*
X128859Y311088D01*
X128820Y311075D01*
X128780Y311070D01*
X128669Y311027D01*
X128556Y310990D01*
X128522Y310968D01*
X128484Y310953D01*
X128388Y310884D01*
X128287Y310820D01*
X128260Y310790D01*
X128227Y310767D01*
X128151Y310675D01*
X128069Y310588D01*
X128050Y310553D01*
X128024Y310522D01*
X127973Y310414D01*
X127916Y310310D01*
X127906Y310270D01*
X127889Y310234D01*
X127866Y310117D01*
X127836Y310002D01*
X127833Y309942D01*
X127829Y309922D01*
X127830Y309901D01*
X127826Y309841D01*
X127826Y295751D01*
X126975Y293697D01*
X124410Y291131D01*
X124325Y291022D01*
X124236Y290915D01*
X124228Y290896D01*
X124215Y290880D01*
X124160Y290752D01*
X124101Y290627D01*
X124097Y290607D01*
X124089Y290588D01*
X124067Y290450D01*
X124041Y290314D01*
X124042Y290294D01*
X124039Y290274D01*
X124052Y290135D01*
X124061Y289997D01*
X124067Y289978D01*
X124069Y289958D01*
X124116Y289826D01*
X124159Y289695D01*
X124170Y289677D01*
X124176Y289658D01*
X124254Y289543D01*
X124329Y289426D01*
X124344Y289412D01*
X124355Y289395D01*
X124459Y289303D01*
X124560Y289208D01*
X124578Y289198D01*
X124593Y289185D01*
X124718Y289121D01*
X124839Y289054D01*
X124859Y289049D01*
X124877Y289040D01*
X125012Y289010D01*
X125147Y288975D01*
X125175Y288973D01*
X125187Y288970D01*
X125207Y288971D01*
X125308Y288965D01*
X134709Y288965D01*
X135628Y288046D01*
X135722Y287973D01*
X135811Y287894D01*
X135847Y287876D01*
X135879Y287851D01*
X135988Y287804D01*
X136094Y287750D01*
X136133Y287741D01*
X136171Y287725D01*
X136288Y287706D01*
X136404Y287680D01*
X136445Y287681D01*
X136485Y287675D01*
X136603Y287686D01*
X136722Y287690D01*
X136761Y287701D01*
X136801Y287705D01*
X136913Y287745D01*
X137028Y287778D01*
X137063Y287798D01*
X137101Y287812D01*
X137199Y287879D01*
X137302Y287940D01*
X137347Y287979D01*
X137364Y287991D01*
X137377Y288006D01*
X137423Y288046D01*
X138341Y288965D01*
X151709Y288965D01*
X154090Y286584D01*
X154090Y283527D01*
X154102Y283429D01*
X154105Y283330D01*
X154122Y283272D01*
X154130Y283212D01*
X154166Y283120D01*
X154194Y283024D01*
X154224Y282972D01*
X154247Y282916D01*
X154305Y282836D01*
X154355Y282751D01*
X154421Y282675D01*
X154433Y282659D01*
X154443Y282651D01*
X154461Y282630D01*
X162843Y274248D01*
X162921Y274187D01*
X162994Y274119D01*
X163047Y274090D01*
X163094Y274053D01*
X163185Y274014D01*
X163272Y273966D01*
X163331Y273951D01*
X163386Y273927D01*
X163484Y273911D01*
X163580Y273886D01*
X163680Y273880D01*
X163700Y273877D01*
X163713Y273878D01*
X163741Y273876D01*
X174587Y273876D01*
X174686Y273889D01*
G37*
G36*
X477849Y220930D02*
X477849Y220930D01*
X477948Y220933D01*
X478006Y220949D01*
X478067Y220957D01*
X478159Y220994D01*
X478254Y221021D01*
X478306Y221052D01*
X478362Y221074D01*
X478442Y221132D01*
X478528Y221183D01*
X478603Y221249D01*
X478620Y221261D01*
X478627Y221270D01*
X478648Y221289D01*
X484896Y227536D01*
X484969Y227630D01*
X485047Y227719D01*
X485066Y227755D01*
X485091Y227787D01*
X485138Y227897D01*
X485192Y228003D01*
X485201Y228042D01*
X485217Y228079D01*
X485236Y228197D01*
X485262Y228313D01*
X485260Y228353D01*
X485267Y228393D01*
X485256Y228512D01*
X485252Y228631D01*
X485241Y228670D01*
X485237Y228710D01*
X485197Y228822D01*
X485164Y228936D01*
X485143Y228971D01*
X485129Y229009D01*
X485062Y229108D01*
X485002Y229210D01*
X484962Y229255D01*
X484951Y229272D01*
X484935Y229286D01*
X484896Y229331D01*
X483085Y231141D01*
X483085Y248509D01*
X485466Y250890D01*
X491773Y250890D01*
X491911Y250907D01*
X492049Y250920D01*
X492068Y250927D01*
X492088Y250930D01*
X492218Y250981D01*
X492348Y251028D01*
X492365Y251039D01*
X492384Y251047D01*
X492496Y251128D01*
X492611Y251206D01*
X492625Y251222D01*
X492641Y251233D01*
X492730Y251340D01*
X492822Y251445D01*
X492831Y251463D01*
X492844Y251478D01*
X492903Y251604D01*
X492967Y251728D01*
X492971Y251748D01*
X492980Y251766D01*
X493006Y251902D01*
X493036Y252038D01*
X493036Y252059D01*
X493039Y252078D01*
X493031Y252217D01*
X493026Y252356D01*
X493021Y252376D01*
X493020Y252396D01*
X492977Y252528D01*
X492938Y252662D01*
X492928Y252679D01*
X492922Y252698D01*
X492847Y252816D01*
X492777Y252936D01*
X492758Y252957D01*
X492751Y252967D01*
X492736Y252981D01*
X492670Y253057D01*
X492585Y253141D01*
X492585Y270509D01*
X494674Y272597D01*
X494734Y272675D01*
X494802Y272747D01*
X494831Y272800D01*
X494868Y272848D01*
X494908Y272939D01*
X494956Y273026D01*
X494971Y273084D01*
X494995Y273140D01*
X495010Y273238D01*
X495035Y273334D01*
X495041Y273434D01*
X495045Y273454D01*
X495043Y273466D01*
X495045Y273494D01*
X495045Y274551D01*
X495033Y274649D01*
X495030Y274748D01*
X495013Y274806D01*
X495005Y274867D01*
X494969Y274958D01*
X494941Y275054D01*
X494911Y275106D01*
X494888Y275162D01*
X494830Y275242D01*
X494780Y275328D01*
X494714Y275403D01*
X494702Y275420D01*
X494692Y275427D01*
X494674Y275448D01*
X488665Y281457D01*
X488609Y281500D01*
X488561Y281550D01*
X488484Y281597D01*
X488413Y281652D01*
X488349Y281680D01*
X488290Y281717D01*
X488204Y281743D01*
X488121Y281779D01*
X488052Y281790D01*
X487986Y281810D01*
X487896Y281814D01*
X487807Y281829D01*
X487738Y281822D01*
X487668Y281825D01*
X487580Y281807D01*
X487491Y281799D01*
X487425Y281775D01*
X487357Y281761D01*
X487276Y281722D01*
X487191Y281691D01*
X487134Y281652D01*
X487071Y281621D01*
X487003Y281563D01*
X486928Y281513D01*
X486882Y281460D01*
X486829Y281415D01*
X486777Y281341D01*
X486718Y281274D01*
X486686Y281212D01*
X486646Y281155D01*
X486614Y281071D01*
X486573Y280991D01*
X486558Y280923D01*
X486533Y280858D01*
X486523Y280768D01*
X486504Y280681D01*
X486506Y280611D01*
X486498Y280541D01*
X486511Y280453D01*
X486513Y280363D01*
X486533Y280296D01*
X486542Y280227D01*
X486594Y280074D01*
X487522Y277836D01*
X487522Y274614D01*
X486289Y271639D01*
X484011Y269361D01*
X481036Y268128D01*
X477815Y268128D01*
X477545Y268240D01*
X477497Y268253D01*
X477452Y268274D01*
X477344Y268295D01*
X477238Y268324D01*
X477188Y268325D01*
X477139Y268334D01*
X477030Y268327D01*
X476920Y268329D01*
X476872Y268317D01*
X476822Y268314D01*
X476718Y268280D01*
X476611Y268255D01*
X476567Y268232D01*
X476520Y268216D01*
X476427Y268158D01*
X476330Y268106D01*
X476293Y268073D01*
X476251Y268046D01*
X476176Y267966D01*
X476094Y267892D01*
X476067Y267851D01*
X476033Y267815D01*
X475980Y267718D01*
X475920Y267627D01*
X475903Y267580D01*
X475879Y267536D01*
X475852Y267430D01*
X475816Y267326D01*
X475812Y267276D01*
X475800Y267228D01*
X475790Y267067D01*
X475790Y253141D01*
X473409Y250760D01*
X467102Y250760D01*
X466964Y250743D01*
X466826Y250730D01*
X466807Y250723D01*
X466787Y250720D01*
X466657Y250669D01*
X466527Y250622D01*
X466510Y250611D01*
X466491Y250603D01*
X466379Y250522D01*
X466264Y250444D01*
X466250Y250428D01*
X466234Y250417D01*
X466145Y250310D01*
X466053Y250205D01*
X466044Y250187D01*
X466031Y250172D01*
X465972Y250046D01*
X465908Y249922D01*
X465904Y249902D01*
X465895Y249884D01*
X465869Y249748D01*
X465839Y249612D01*
X465839Y249591D01*
X465836Y249572D01*
X465844Y249433D01*
X465849Y249294D01*
X465854Y249274D01*
X465855Y249254D01*
X465898Y249122D01*
X465937Y248988D01*
X465947Y248971D01*
X465953Y248952D01*
X466028Y248834D01*
X466098Y248714D01*
X466117Y248693D01*
X466124Y248683D01*
X466139Y248669D01*
X466205Y248593D01*
X466290Y248509D01*
X466290Y231141D01*
X464201Y229053D01*
X464141Y228975D01*
X464073Y228903D01*
X464044Y228850D01*
X464007Y228802D01*
X463967Y228711D01*
X463919Y228624D01*
X463904Y228566D01*
X463880Y228510D01*
X463865Y228412D01*
X463840Y228316D01*
X463834Y228216D01*
X463830Y228196D01*
X463832Y228184D01*
X463830Y228156D01*
X463830Y227311D01*
X462824Y224884D01*
X461024Y223084D01*
X460939Y222974D01*
X460851Y222867D01*
X460842Y222849D01*
X460830Y222833D01*
X460774Y222705D01*
X460715Y222579D01*
X460711Y222560D01*
X460703Y222541D01*
X460681Y222403D01*
X460655Y222267D01*
X460657Y222247D01*
X460653Y222227D01*
X460666Y222088D01*
X460675Y221950D01*
X460681Y221930D01*
X460683Y221910D01*
X460730Y221779D01*
X460773Y221647D01*
X460784Y221630D01*
X460791Y221611D01*
X460869Y221496D01*
X460943Y221378D01*
X460958Y221364D01*
X460969Y221348D01*
X461074Y221256D01*
X461175Y221160D01*
X461193Y221151D01*
X461208Y221137D01*
X461332Y221074D01*
X461453Y221007D01*
X461473Y221002D01*
X461491Y220993D01*
X461627Y220962D01*
X461761Y220927D01*
X461789Y220926D01*
X461801Y220923D01*
X461822Y220924D01*
X461922Y220917D01*
X477751Y220917D01*
X477849Y220930D01*
G37*
G36*
X447009Y232045D02*
X447009Y232045D01*
X447128Y232052D01*
X447166Y232065D01*
X447207Y232070D01*
X447317Y232113D01*
X447430Y232150D01*
X447465Y232172D01*
X447502Y232187D01*
X447598Y232256D01*
X447699Y232320D01*
X447727Y232350D01*
X447760Y232373D01*
X447836Y232465D01*
X447917Y232552D01*
X447937Y232587D01*
X447962Y232618D01*
X448013Y232726D01*
X448071Y232830D01*
X448081Y232870D01*
X448098Y232906D01*
X448120Y233023D01*
X448150Y233138D01*
X448154Y233198D01*
X448158Y233218D01*
X448156Y233239D01*
X448160Y233299D01*
X448160Y248509D01*
X450541Y250890D01*
X456848Y250890D01*
X456986Y250907D01*
X457124Y250920D01*
X457143Y250927D01*
X457163Y250930D01*
X457293Y250981D01*
X457423Y251028D01*
X457440Y251039D01*
X457459Y251047D01*
X457571Y251128D01*
X457686Y251206D01*
X457700Y251222D01*
X457716Y251233D01*
X457805Y251340D01*
X457897Y251445D01*
X457906Y251463D01*
X457919Y251478D01*
X457978Y251604D01*
X458042Y251728D01*
X458046Y251748D01*
X458055Y251766D01*
X458081Y251902D01*
X458111Y252038D01*
X458111Y252059D01*
X458114Y252078D01*
X458106Y252217D01*
X458101Y252356D01*
X458096Y252376D01*
X458095Y252396D01*
X458052Y252528D01*
X458013Y252662D01*
X458003Y252679D01*
X457997Y252698D01*
X457922Y252816D01*
X457852Y252936D01*
X457833Y252957D01*
X457826Y252967D01*
X457811Y252981D01*
X457745Y253057D01*
X457660Y253141D01*
X457660Y269939D01*
X457645Y270057D01*
X457638Y270175D01*
X457625Y270214D01*
X457620Y270254D01*
X457577Y270365D01*
X457540Y270478D01*
X457518Y270512D01*
X457503Y270550D01*
X457434Y270646D01*
X457370Y270747D01*
X457340Y270774D01*
X457317Y270807D01*
X457225Y270883D01*
X457138Y270965D01*
X457103Y270984D01*
X457072Y271010D01*
X456964Y271061D01*
X456860Y271118D01*
X456820Y271128D01*
X456784Y271145D01*
X456667Y271168D01*
X456552Y271198D01*
X456492Y271201D01*
X456472Y271205D01*
X456451Y271204D01*
X456391Y271208D01*
X442134Y271208D01*
X442016Y271193D01*
X441897Y271185D01*
X441859Y271173D01*
X441818Y271168D01*
X441708Y271124D01*
X441595Y271087D01*
X441560Y271066D01*
X441523Y271051D01*
X441427Y270981D01*
X441326Y270917D01*
X441298Y270888D01*
X441265Y270864D01*
X441189Y270772D01*
X441108Y270686D01*
X441088Y270650D01*
X441063Y270619D01*
X441012Y270511D01*
X440954Y270407D01*
X440944Y270368D01*
X440927Y270331D01*
X440905Y270215D01*
X440875Y270099D01*
X440871Y270039D01*
X440867Y270019D01*
X440869Y269999D01*
X440865Y269939D01*
X440865Y253141D01*
X438484Y250760D01*
X432177Y250760D01*
X432039Y250743D01*
X431901Y250730D01*
X431882Y250723D01*
X431862Y250720D01*
X431732Y250669D01*
X431602Y250622D01*
X431585Y250611D01*
X431566Y250603D01*
X431454Y250522D01*
X431339Y250444D01*
X431325Y250428D01*
X431309Y250417D01*
X431220Y250310D01*
X431128Y250205D01*
X431119Y250187D01*
X431106Y250172D01*
X431047Y250046D01*
X430983Y249922D01*
X430979Y249902D01*
X430970Y249884D01*
X430944Y249748D01*
X430914Y249612D01*
X430914Y249591D01*
X430911Y249572D01*
X430919Y249433D01*
X430924Y249294D01*
X430929Y249274D01*
X430930Y249254D01*
X430973Y249122D01*
X431012Y248988D01*
X431022Y248971D01*
X431028Y248952D01*
X431103Y248834D01*
X431173Y248714D01*
X431192Y248693D01*
X431199Y248683D01*
X431214Y248669D01*
X431280Y248593D01*
X431365Y248509D01*
X431365Y233299D01*
X431380Y233181D01*
X431387Y233062D01*
X431400Y233024D01*
X431405Y232983D01*
X431448Y232873D01*
X431485Y232760D01*
X431507Y232725D01*
X431522Y232688D01*
X431591Y232592D01*
X431655Y232491D01*
X431685Y232463D01*
X431708Y232430D01*
X431800Y232354D01*
X431887Y232273D01*
X431922Y232253D01*
X431953Y232228D01*
X432061Y232177D01*
X432165Y232119D01*
X432205Y232109D01*
X432241Y232092D01*
X432358Y232070D01*
X432473Y232040D01*
X432533Y232036D01*
X432553Y232032D01*
X432574Y232034D01*
X432634Y232030D01*
X446891Y232030D01*
X447009Y232045D01*
G37*
G36*
X179953Y122033D02*
X179953Y122033D01*
X180093Y122037D01*
X180112Y122043D01*
X180132Y122044D01*
X180264Y122087D01*
X180398Y122126D01*
X180416Y122136D01*
X180435Y122142D01*
X180553Y122217D01*
X180672Y122287D01*
X180693Y122306D01*
X180704Y122312D01*
X180718Y122327D01*
X180793Y122393D01*
X182739Y124339D01*
X185714Y125572D01*
X188936Y125572D01*
X191640Y124452D01*
X191668Y124444D01*
X191695Y124430D01*
X191821Y124402D01*
X191947Y124368D01*
X191976Y124367D01*
X192005Y124361D01*
X192135Y124365D01*
X192265Y124363D01*
X192293Y124369D01*
X192323Y124370D01*
X192447Y124406D01*
X192574Y124437D01*
X192600Y124451D01*
X192628Y124459D01*
X192740Y124525D01*
X192855Y124585D01*
X192877Y124605D01*
X192902Y124620D01*
X193023Y124727D01*
X194777Y126481D01*
X194850Y126575D01*
X194929Y126664D01*
X194947Y126700D01*
X194972Y126732D01*
X195019Y126841D01*
X195073Y126947D01*
X195082Y126987D01*
X195098Y127024D01*
X195117Y127142D01*
X195143Y127258D01*
X195142Y127298D01*
X195148Y127338D01*
X195137Y127457D01*
X195133Y127576D01*
X195122Y127614D01*
X195118Y127655D01*
X195078Y127767D01*
X195045Y127881D01*
X195025Y127916D01*
X195011Y127954D01*
X194944Y128053D01*
X194884Y128155D01*
X194844Y128200D01*
X194832Y128217D01*
X194817Y128231D01*
X194777Y128276D01*
X192702Y130351D01*
X191469Y133327D01*
X191469Y136548D01*
X192702Y139524D01*
X194738Y141560D01*
X194798Y141638D01*
X194866Y141710D01*
X194895Y141763D01*
X194932Y141811D01*
X194972Y141902D01*
X195020Y141988D01*
X195035Y142047D01*
X195059Y142103D01*
X195074Y142201D01*
X195099Y142296D01*
X195105Y142396D01*
X195109Y142417D01*
X195107Y142429D01*
X195109Y142457D01*
X195109Y159591D01*
X195094Y159709D01*
X195087Y159828D01*
X195074Y159866D01*
X195069Y159907D01*
X195026Y160017D01*
X194989Y160130D01*
X194967Y160165D01*
X194952Y160202D01*
X194883Y160298D01*
X194819Y160399D01*
X194789Y160427D01*
X194766Y160460D01*
X194674Y160536D01*
X194587Y160617D01*
X194552Y160637D01*
X194521Y160662D01*
X194413Y160713D01*
X194309Y160771D01*
X194269Y160781D01*
X194233Y160798D01*
X194116Y160820D01*
X194001Y160850D01*
X193941Y160854D01*
X193921Y160858D01*
X193900Y160856D01*
X193840Y160860D01*
X179895Y160860D01*
X179777Y160845D01*
X179659Y160838D01*
X179620Y160825D01*
X179580Y160820D01*
X179469Y160777D01*
X179356Y160740D01*
X179322Y160718D01*
X179284Y160703D01*
X179188Y160634D01*
X179087Y160570D01*
X179060Y160540D01*
X179027Y160517D01*
X178951Y160425D01*
X178869Y160338D01*
X178850Y160303D01*
X178824Y160272D01*
X178773Y160164D01*
X178716Y160060D01*
X178706Y160020D01*
X178689Y159984D01*
X178666Y159867D01*
X178636Y159752D01*
X178633Y159692D01*
X178629Y159672D01*
X178630Y159651D01*
X178626Y159591D01*
X178626Y123291D01*
X178644Y123154D01*
X178657Y123015D01*
X178664Y122995D01*
X178666Y122975D01*
X178717Y122847D01*
X178764Y122715D01*
X178776Y122699D01*
X178783Y122680D01*
X178865Y122567D01*
X178943Y122452D01*
X178958Y122439D01*
X178970Y122422D01*
X179077Y122333D01*
X179181Y122242D01*
X179199Y122233D01*
X179215Y122220D01*
X179341Y122160D01*
X179465Y122097D01*
X179484Y122093D01*
X179503Y122084D01*
X179639Y122058D01*
X179775Y122027D01*
X179795Y122028D01*
X179815Y122024D01*
X179953Y122033D01*
G37*
G36*
X421584Y161228D02*
X421584Y161228D01*
X421703Y161235D01*
X421741Y161248D01*
X421782Y161253D01*
X421892Y161296D01*
X422005Y161333D01*
X422040Y161355D01*
X422077Y161370D01*
X422173Y161439D01*
X422274Y161503D01*
X422302Y161533D01*
X422335Y161556D01*
X422411Y161648D01*
X422492Y161735D01*
X422512Y161770D01*
X422537Y161801D01*
X422588Y161909D01*
X422646Y162013D01*
X422656Y162053D01*
X422673Y162089D01*
X422695Y162206D01*
X422725Y162321D01*
X422729Y162381D01*
X422733Y162401D01*
X422731Y162422D01*
X422735Y162482D01*
X422735Y162784D01*
X425116Y165165D01*
X431423Y165165D01*
X431561Y165182D01*
X431699Y165195D01*
X431718Y165202D01*
X431738Y165205D01*
X431868Y165256D01*
X431998Y165303D01*
X432015Y165314D01*
X432034Y165322D01*
X432146Y165403D01*
X432261Y165481D01*
X432275Y165497D01*
X432291Y165508D01*
X432380Y165615D01*
X432472Y165720D01*
X432481Y165738D01*
X432494Y165753D01*
X432553Y165879D01*
X432617Y166003D01*
X432621Y166023D01*
X432630Y166041D01*
X432656Y166177D01*
X432686Y166313D01*
X432686Y166334D01*
X432689Y166353D01*
X432681Y166492D01*
X432676Y166631D01*
X432671Y166651D01*
X432670Y166671D01*
X432627Y166803D01*
X432588Y166937D01*
X432578Y166954D01*
X432572Y166973D01*
X432497Y167091D01*
X432427Y167211D01*
X432408Y167232D01*
X432401Y167242D01*
X432386Y167256D01*
X432320Y167332D01*
X432235Y167416D01*
X432235Y182626D01*
X432220Y182744D01*
X432213Y182863D01*
X432200Y182901D01*
X432195Y182942D01*
X432152Y183052D01*
X432115Y183165D01*
X432093Y183200D01*
X432078Y183237D01*
X432009Y183333D01*
X431945Y183434D01*
X431915Y183462D01*
X431892Y183495D01*
X431800Y183571D01*
X431713Y183652D01*
X431678Y183672D01*
X431647Y183697D01*
X431539Y183748D01*
X431435Y183806D01*
X431395Y183816D01*
X431359Y183833D01*
X431242Y183855D01*
X431127Y183885D01*
X431067Y183889D01*
X431047Y183893D01*
X431026Y183891D01*
X430966Y183895D01*
X412534Y183895D01*
X412416Y183880D01*
X412297Y183873D01*
X412259Y183860D01*
X412218Y183855D01*
X412108Y183812D01*
X411995Y183775D01*
X411960Y183753D01*
X411923Y183738D01*
X411827Y183669D01*
X411726Y183605D01*
X411698Y183575D01*
X411665Y183552D01*
X411589Y183460D01*
X411508Y183373D01*
X411488Y183338D01*
X411463Y183307D01*
X411412Y183199D01*
X411354Y183095D01*
X411344Y183055D01*
X411327Y183019D01*
X411305Y182902D01*
X411275Y182787D01*
X411271Y182727D01*
X411267Y182707D01*
X411269Y182686D01*
X411265Y182626D01*
X411265Y170616D01*
X408884Y168235D01*
X402100Y168235D01*
X401963Y168218D01*
X401824Y168205D01*
X401805Y168198D01*
X401785Y168195D01*
X401656Y168144D01*
X401525Y168097D01*
X401508Y168086D01*
X401489Y168078D01*
X401377Y167997D01*
X401262Y167919D01*
X401248Y167903D01*
X401232Y167892D01*
X401143Y167784D01*
X401051Y167680D01*
X401042Y167662D01*
X401029Y167647D01*
X400970Y167521D01*
X400907Y167397D01*
X400902Y167377D01*
X400893Y167359D01*
X400867Y167223D01*
X400837Y167087D01*
X400837Y167066D01*
X400834Y167047D01*
X400842Y166908D01*
X400847Y166769D01*
X400852Y166749D01*
X400853Y166729D01*
X400896Y166597D01*
X400935Y166463D01*
X400945Y166446D01*
X400951Y166427D01*
X401026Y166309D01*
X401096Y166189D01*
X401115Y166168D01*
X401122Y166158D01*
X401137Y166144D01*
X401203Y166069D01*
X405687Y161584D01*
X405765Y161524D01*
X405837Y161456D01*
X405890Y161427D01*
X405938Y161390D01*
X406029Y161350D01*
X406116Y161302D01*
X406174Y161287D01*
X406230Y161263D01*
X406328Y161248D01*
X406424Y161223D01*
X406524Y161217D01*
X406544Y161213D01*
X406556Y161215D01*
X406584Y161213D01*
X421466Y161213D01*
X421584Y161228D01*
G37*
%LPC*%
G36*
X544856Y230631D02*
X544856Y230631D01*
X538606Y236881D01*
X538606Y245719D01*
X544856Y251969D01*
X553694Y251969D01*
X559944Y245719D01*
X559944Y236881D01*
X553694Y230631D01*
X544856Y230631D01*
G37*
%LPD*%
%LPC*%
G36*
X481356Y94106D02*
X481356Y94106D01*
X475106Y100356D01*
X475106Y109194D01*
X481356Y115444D01*
X490194Y115444D01*
X496444Y109194D01*
X496444Y100356D01*
X490194Y94106D01*
X481356Y94106D01*
G37*
%LPD*%
D10*
X45125Y181825D02*
X45125Y192825D01*
X50125Y192825D01*
X50125Y181825D01*
X45125Y181825D01*
X45125Y186575D02*
X50125Y186575D01*
X50125Y191325D02*
X45125Y191325D01*
X53238Y156488D02*
X64238Y156488D01*
X64238Y151488D01*
X53238Y151488D01*
X53238Y156488D01*
X53238Y156238D02*
X64238Y156238D01*
D11*
X187325Y152425D03*
X187325Y171425D03*
D10*
X148550Y100750D02*
X148550Y89750D01*
X143550Y89750D01*
X143550Y100750D01*
X148550Y100750D01*
X148550Y94500D02*
X143550Y94500D01*
X143550Y99250D02*
X148550Y99250D01*
D12*
X41275Y154425D03*
X41275Y169425D03*
D10*
X140550Y342225D02*
X151550Y342225D01*
X151550Y337225D01*
X140550Y337225D01*
X140550Y342225D01*
X140550Y341975D02*
X151550Y341975D01*
D13*
X42300Y136525D03*
X59300Y136525D03*
D14*
X149225Y368400D03*
X299945Y280720D03*
X299945Y125680D03*
X149225Y38000D03*
X77725Y327100D03*
X220725Y327100D03*
X220725Y79300D03*
X77725Y79300D03*
X449225Y368400D03*
X592325Y285800D03*
X592325Y120600D03*
X449225Y38000D03*
X6158Y285800D03*
X6158Y120600D03*
X6125Y203200D03*
D15*
X457225Y239825D03*
X476225Y239825D03*
X466725Y261825D03*
D16*
X173150Y304775D03*
X173150Y285775D03*
X195150Y295275D03*
D15*
X492150Y239825D03*
X511150Y239825D03*
X501650Y261825D03*
X422300Y239825D03*
X441300Y239825D03*
X431800Y261825D03*
X441300Y176100D03*
X422300Y176100D03*
X431800Y154100D03*
X488925Y176100D03*
X469925Y176100D03*
X479425Y154100D03*
D16*
X155463Y152400D03*
X133463Y142900D03*
X133463Y161900D03*
D13*
X113275Y231775D03*
X96275Y231775D03*
X145025Y279400D03*
X128025Y279400D03*
X118038Y161925D03*
X101038Y161925D03*
X249800Y130175D03*
X232800Y130175D03*
X383150Y225425D03*
X366150Y225425D03*
X145025Y320675D03*
X128025Y320675D03*
X332350Y215900D03*
X315350Y215900D03*
D17*
X403225Y256150D03*
X403225Y239150D03*
D13*
X402200Y177800D03*
X385200Y177800D03*
X332350Y184150D03*
X315350Y184150D03*
D18*
X225425Y152400D03*
X250825Y152400D03*
X276225Y152400D03*
X301625Y152400D03*
X327025Y152400D03*
X352425Y152400D03*
X377825Y152400D03*
X377825Y254000D03*
X352425Y254000D03*
X327025Y254000D03*
X301625Y254000D03*
X276225Y254000D03*
X250825Y254000D03*
X225425Y254000D03*
D19*
X574675Y241300D03*
X549275Y241300D03*
X574675Y165100D03*
X549275Y165100D03*
D20*
X485775Y79375D03*
X485775Y104775D03*
X409575Y79375D03*
X409575Y104775D03*
D16*
X557325Y212700D03*
X557325Y193700D03*
X579325Y203200D03*
D17*
X536575Y211700D03*
X536575Y194700D03*
D21*
X422300Y176100D02*
X422300Y165100D01*
X469925Y165100D02*
X469925Y176100D01*
X469925Y165100D02*
X422300Y165100D01*
X441300Y239825D02*
X441300Y250825D01*
X476225Y250825D01*
X511175Y250825D01*
X511175Y239825D01*
X511150Y239825D01*
X476225Y239825D02*
X476225Y250825D01*
X557325Y193700D02*
X568325Y193700D01*
X568325Y225425D01*
X511175Y225425D01*
X511175Y239825D01*
X517525Y165100D02*
X469925Y165100D01*
X517525Y165100D02*
X517525Y180975D01*
X555625Y180975D01*
X555625Y193700D02*
X557325Y193700D01*
X555625Y193700D02*
X555625Y180975D01*
D22*
X79375Y150813D03*
X187325Y139700D03*
X28575Y257175D03*
X50800Y117475D03*
X171450Y325438D03*
X112713Y98425D03*
D21*
X173150Y285775D02*
X154125Y304800D01*
X139700Y304800D01*
D22*
X139700Y304800D03*
X139700Y176213D03*
X196850Y187303D03*
D21*
X196850Y180950D01*
X187325Y171425D01*
X41275Y171450D02*
X41275Y169425D01*
X41275Y171450D02*
X31750Y161925D01*
X31750Y150813D01*
X26988Y146050D01*
X26988Y141288D01*
D22*
X26988Y141288D03*
X131763Y66675D03*
D21*
X131763Y85725D01*
D22*
X131763Y85725D03*
X201638Y224633D03*
D23*
X140492Y224633D01*
X139700Y225425D01*
D22*
X139700Y225425D03*
D21*
X109538Y179113D02*
X109538Y147638D01*
X114275Y142900D01*
X133463Y142900D01*
X109538Y179113D02*
X111125Y180700D01*
X111125Y180975D01*
D22*
X111125Y180700D03*
X134516Y115888D03*
D23*
X106925Y115888D01*
X86288Y136525D02*
X59300Y136525D01*
X86288Y136525D02*
X106925Y115888D01*
D21*
X42300Y136525D02*
X41275Y136525D01*
D23*
X41275Y154425D01*
D22*
X134938Y98425D03*
D23*
X146050Y98425D01*
D21*
X146050Y95250D01*
D22*
X73025Y158750D03*
D23*
X68263Y153988D01*
X58738Y153988D01*
D22*
X53975Y206375D03*
D23*
X52388Y204788D01*
X52388Y200025D01*
X47625Y195263D01*
X47625Y187325D01*
X131763Y339725D02*
X146050Y339725D01*
D22*
X131763Y339725D03*
X223838Y231775D03*
D23*
X217488Y238125D01*
X119625Y238125D01*
X113275Y231775D01*
D22*
X180975Y268288D03*
D21*
X160900Y268288D02*
X151375Y277813D01*
X160900Y268288D02*
X180975Y268288D01*
X151375Y277813D02*
X146613Y277813D01*
X145025Y279400D01*
X118038Y161925D02*
X118063Y161900D01*
X133463Y161900D01*
X155463Y152400D02*
X157050Y150813D01*
X157050Y104888D01*
X160338Y101600D01*
X187325Y101600D01*
X215900Y130175D01*
X232800Y130175D01*
D24*
X383150Y225425D02*
X454025Y225425D01*
X457225Y228625D01*
X457225Y239825D01*
D21*
X173150Y304775D02*
X166713Y304775D01*
X150813Y320675D01*
X145025Y320675D01*
D24*
X333938Y214313D02*
X481013Y214313D01*
X333938Y214313D02*
X332350Y215900D01*
X481013Y214313D02*
X492150Y225450D01*
X492150Y239825D01*
D23*
X422300Y239825D02*
X422300Y246038D01*
X412188Y256150D01*
X403225Y256150D01*
D24*
X402200Y186300D02*
X402200Y177800D01*
X402200Y186300D02*
X406400Y190500D01*
X438150Y190500D01*
X441325Y187325D01*
X441325Y176100D01*
D21*
X441300Y176100D01*
D24*
X342900Y184150D02*
X332350Y184150D01*
X342900Y184150D02*
X357188Y198438D01*
X482600Y198438D01*
X488950Y192088D01*
X488950Y176100D01*
D21*
X488925Y176100D01*
D23*
X96275Y231775D02*
X82367Y231775D01*
X63500Y212908D01*
X63500Y203200D01*
D22*
X63500Y203200D03*
D21*
X60325Y279400D02*
X128025Y279400D01*
X60325Y279400D02*
X57150Y276225D01*
X57150Y228600D01*
X60325Y225425D01*
D22*
X60325Y225425D03*
D24*
X101038Y161925D02*
X101038Y141850D01*
X109538Y133350D01*
X146050Y133350D01*
D22*
X146050Y133350D03*
D21*
X93663Y211138D02*
X293688Y211138D01*
X93663Y211138D02*
X79375Y196850D01*
X79375Y187325D01*
X63500Y171450D01*
X63500Y168275D01*
X293688Y211138D02*
X307975Y225425D01*
X366150Y225425D01*
D22*
X63500Y168275D03*
D21*
X122238Y320675D02*
X128025Y320675D01*
X122238Y320675D02*
X122238Y296863D01*
X111125Y285750D01*
X55563Y285750D01*
X50096Y280283D01*
X50096Y224542D01*
D22*
X50096Y224542D03*
D21*
X307975Y215900D02*
X315350Y215900D01*
X307975Y215900D02*
X296863Y204788D01*
X111125Y204788D01*
X103188Y196850D01*
X96380Y196850D01*
D22*
X96380Y196850D03*
D21*
X90488Y217488D02*
X68263Y195263D01*
X59867Y195263D01*
X58738Y194133D01*
D22*
X58738Y194133D03*
D21*
X304991Y231585D02*
X357301Y231585D01*
X361277Y235561D01*
X304991Y231585D02*
X290894Y217488D01*
X403225Y235561D02*
X403225Y239150D01*
X403225Y235561D02*
X361277Y235561D01*
X290894Y217488D02*
X90488Y217488D01*
X220663Y168275D02*
X343091Y168275D01*
X220663Y168275D02*
X214313Y161925D01*
X214313Y140158D01*
X215900Y138570D01*
D22*
X215900Y138570D03*
D21*
X343091Y168275D02*
X352616Y177800D01*
X385200Y177800D01*
X315350Y184150D02*
X223838Y184150D01*
X207963Y168275D01*
X207963Y131763D01*
X193675Y117475D01*
X187325Y117475D01*
D22*
X187325Y117475D03*
D21*
X311069Y141288D02*
X323579Y128778D01*
X401447Y128778D01*
X409575Y120650D01*
X409575Y104775D01*
X311069Y141288D02*
X287338Y141288D01*
X276225Y152400D01*
D24*
X254563Y130175D02*
X249800Y130175D01*
X254563Y130175D02*
X260913Y136525D01*
X263525Y136525D01*
D22*
X263525Y136525D03*
D21*
X533400Y165100D02*
X549275Y165100D01*
X533400Y165100D02*
X503295Y134995D01*
X327089Y134995D01*
X312795Y149289D01*
X304737Y149289D01*
X301625Y152400D01*
D24*
X352425Y254000D02*
X352425Y269875D01*
X368300Y285750D01*
X473075Y285750D01*
X479425Y279400D01*
X479425Y276225D01*
D22*
X479425Y276225D03*
D23*
X377825Y152400D02*
X377825Y146050D01*
X382588Y141288D01*
X474663Y141288D01*
X479425Y146050D01*
X479425Y154100D01*
X358775Y165100D02*
X352425Y158750D01*
X352425Y152400D01*
X358775Y165100D02*
X392113Y165100D01*
X403113Y154100D01*
X431800Y154100D01*
D24*
X377825Y254000D02*
X377825Y265113D01*
X382588Y269875D01*
X431800Y269875D01*
X431800Y261825D01*
X354013Y293688D02*
X327025Y266700D01*
X327025Y254000D01*
X354013Y293688D02*
X485775Y293688D01*
X501650Y277813D01*
X501650Y261825D01*
D23*
X246063Y295275D02*
X195150Y295275D01*
X246063Y295275D02*
X274638Y266700D01*
X288925Y266700D01*
X301625Y254000D01*
D24*
X466725Y261825D02*
X466725Y271463D01*
X460375Y277813D01*
X374650Y277813D01*
X365189Y268351D01*
X365189Y247714D01*
X357188Y239713D01*
X301625Y239713D01*
X292109Y230196D01*
X239776Y230124D01*
X225425Y244475D02*
X225425Y254000D01*
X225425Y244475D02*
X239776Y230124D01*
D21*
X536575Y212700D02*
X536575Y211700D01*
D23*
X536575Y212700D02*
X557325Y212700D01*
D21*
X536575Y194700D02*
X506975Y194700D01*
X495300Y206375D01*
X354013Y206375D01*
X344488Y196850D01*
X225425Y196850D01*
X200698Y172123D01*
X200698Y136070D01*
X199566Y134938D01*
D22*
X199566Y134938D03*
D23*
X574675Y165100D02*
X579325Y169750D01*
X579325Y203200D01*
X579325Y236650D01*
X574675Y241300D01*
X485775Y79375D02*
X409575Y79375D01*
X485775Y79375D02*
X501650Y79375D01*
X574675Y152400D01*
X574675Y165100D01*
D22*
X149225Y123825D03*
D21*
X149225Y114300D01*
X142875Y107950D01*
X80963Y107950D01*
X77725Y104713D01*
D23*
X77725Y79300D01*
D22*
X161445Y249238D03*
X65568Y270983D03*
X50733Y308042D03*
D23*
X58667Y308042D02*
X77725Y327100D01*
X58667Y308042D02*
X50733Y308042D01*
D24*
X65568Y270983D02*
X65568Y259870D01*
X76200Y249238D01*
X161445Y249238D01*
D22*
X180755Y257612D03*
D21*
X190980Y274920D02*
X184308Y281591D01*
X184308Y306546D01*
X204863Y327100D02*
X220725Y327100D01*
X204863Y327100D02*
X184308Y306546D01*
X180755Y257612D02*
X189350Y257612D01*
X190980Y259243D01*
X190980Y274920D01*
D22*
X169383Y257175D03*
D24*
X167795Y258763D01*
X79375Y258763D01*
X76200Y261938D01*
X76200Y270983D01*
D22*
X76200Y270983D03*
X177800Y109538D03*
D21*
X173038Y114300D01*
X173038Y179388D01*
X180975Y187325D01*
X184150Y187325D01*
D22*
X184150Y187325D03*
X9525Y166688D03*
D23*
X9525Y203200D01*
D21*
X6125Y203200D01*
D22*
X149225Y196850D03*
D21*
X160338Y196850D01*
X168275Y188913D01*
X168275Y112713D01*
X165100Y109538D01*
D22*
X165100Y109538D03*
X174625Y73025D03*
D23*
X180975Y73025D01*
X187250Y79300D01*
X220725Y79300D01*
M02*
