G04 EAGLE Gerber RS-274X export*
G75*
%MOMM*%
%FSLAX34Y34*%
%LPD*%
%INSilkscreen Bottom*%
%IPPOS*%
%AMOC8*
5,1,8,0,0,1.08239X$1,22.5*%
G01*
%ADD10C,0.101600*%
%ADD11R,0.751331X0.014731*%
%ADD12R,0.883919X0.014731*%
%ADD13R,1.001775X0.014731*%
%ADD14R,1.119631X0.014731*%
%ADD15R,1.134363X0.014731*%
%ADD16R,1.149094X0.014731*%
%ADD17R,1.163825X0.014731*%
%ADD18R,1.178556X0.014731*%
%ADD19R,1.193288X0.014731*%
%ADD20R,1.222756X0.014731*%
%ADD21R,1.237488X0.014731*%
%ADD22R,1.266950X0.014731*%
%ADD23R,1.281681X0.014731*%
%ADD24R,1.311144X0.014731*%
%ADD25R,1.325881X0.014731*%
%ADD26R,1.355344X0.014731*%
%ADD27R,1.370075X0.014731*%
%ADD28R,1.384806X0.014731*%
%ADD29R,1.399538X0.014731*%
%ADD30R,1.414275X0.014731*%
%ADD31R,1.443738X0.014731*%
%ADD32R,1.458469X0.014731*%
%ADD33R,1.487931X0.014731*%
%ADD34R,1.502663X0.014731*%
%ADD35R,1.517394X0.014731*%
%ADD36R,1.532125X0.014731*%
%ADD37R,1.546856X0.014731*%
%ADD38R,1.576319X0.014731*%
%ADD39R,1.605788X0.014731*%
%ADD40R,1.620519X0.014731*%
%ADD41R,1.649981X0.014731*%
%ADD42R,1.664713X0.014731*%
%ADD43R,1.694175X0.014731*%
%ADD44R,1.708913X0.014731*%
%ADD45R,1.738375X0.014731*%
%ADD46R,1.753106X0.014731*%
%ADD47R,1.767838X0.014731*%
%ADD48R,1.782569X0.014731*%
%ADD49R,1.797306X0.014731*%
%ADD50R,0.117856X0.014731*%
%ADD51R,1.826769X0.014731*%
%ADD52R,0.235713X0.014731*%
%ADD53R,0.353569X0.014731*%
%ADD54R,1.856231X0.014731*%
%ADD55R,0.486156X0.014731*%
%ADD56R,1.870963X0.014731*%
%ADD57R,0.604013X0.014731*%
%ADD58R,0.721869X0.014731*%
%ADD59R,1.885694X0.014731*%
%ADD60R,0.839719X0.014731*%
%ADD61R,0.972306X0.014731*%
%ADD62R,1.090169X0.014731*%
%ADD63R,1.208025X0.014731*%
%ADD64R,1.252219X0.014731*%
%ADD65R,1.296412X0.014731*%
%ADD66R,1.340612X0.014731*%
%ADD67R,1.826763X0.014731*%
%ADD68R,1.414269X0.014731*%
%ADD69R,1.812031X0.014731*%
%ADD70R,1.429000X0.014731*%
%ADD71R,1.458462X0.014731*%
%ADD72R,1.473200X0.014731*%
%ADD73R,1.723644X0.014731*%
%ADD74R,1.694181X0.014731*%
%ADD75R,1.679450X0.014731*%
%ADD76R,1.561594X0.014731*%
%ADD77R,1.576325X0.014731*%
%ADD78R,1.591056X0.014731*%
%ADD79R,1.635250X0.014731*%
%ADD80R,1.561588X0.014731*%
%ADD81R,1.443731X0.014731*%
%ADD82R,1.797300X0.014731*%
%ADD83R,1.841500X0.014731*%
%ADD84R,1.311150X0.014731*%
%ADD85R,1.296419X0.014731*%
%ADD86R,1.193294X0.014731*%
%ADD87R,0.957575X0.014731*%
%ADD88R,0.589281X0.014731*%
%ADD89R,0.471425X0.014731*%
%ADD90R,0.220975X0.014731*%
%ADD91R,1.812038X0.014731*%
%ADD92R,0.103119X0.014731*%
%ADD93R,0.029463X0.014731*%
%ADD94R,0.162050X0.014731*%
%ADD95R,0.265175X0.014731*%
%ADD96R,0.397763X0.014731*%
%ADD97R,0.515619X0.014731*%
%ADD98R,0.648206X0.014731*%
%ADD99R,1.679444X0.014731*%
%ADD100R,1.016506X0.014731*%
%ADD101R,1.104900X0.014731*%
%ADD102R,1.222750X0.014731*%
%ADD103R,1.429006X0.014731*%
%ADD104R,1.208019X0.014731*%
%ADD105R,0.987044X0.014731*%
%ADD106R,0.854456X0.014731*%
%ADD107R,0.618744X0.014731*%
%ADD108R,0.500888X0.014731*%
%ADD109R,0.368300X0.014731*%
%ADD110R,0.132587X0.014731*%
%ADD111R,0.014731X0.014731*%
%ADD112R,1.664719X0.014731*%
%ADD113R,1.075438X0.014731*%
%ADD114R,0.942844X0.014731*%
%ADD115R,0.707131X0.014731*%
%ADD116R,0.456694X0.014731*%
%ADD117R,0.088388X0.014731*%
%ADD118C,0.076200*%
%ADD119C,0.152400*%
%ADD120C,0.254000*%
%ADD121C,0.150000*%
%ADD122C,0.500000*%
%ADD123C,1.000000*%


D10*
X82769Y302147D02*
X82769Y297744D01*
X80201Y294442D01*
X82769Y297744D02*
X85337Y294442D01*
X82769Y297744D02*
X78733Y299212D01*
X82769Y297744D02*
X86805Y299212D01*
X72603Y292608D02*
X72603Y305816D01*
X68934Y305816D01*
X68814Y305814D01*
X68694Y305808D01*
X68574Y305798D01*
X68455Y305785D01*
X68336Y305767D01*
X68218Y305746D01*
X68101Y305720D01*
X67984Y305691D01*
X67869Y305658D01*
X67755Y305621D01*
X67642Y305581D01*
X67530Y305537D01*
X67420Y305489D01*
X67311Y305438D01*
X67204Y305383D01*
X67100Y305324D01*
X66997Y305263D01*
X66896Y305198D01*
X66797Y305129D01*
X66700Y305058D01*
X66606Y304983D01*
X66515Y304906D01*
X66426Y304825D01*
X66340Y304741D01*
X66256Y304655D01*
X66175Y304566D01*
X66098Y304475D01*
X66023Y304381D01*
X65952Y304284D01*
X65883Y304185D01*
X65818Y304084D01*
X65757Y303982D01*
X65698Y303877D01*
X65643Y303770D01*
X65592Y303661D01*
X65544Y303551D01*
X65500Y303439D01*
X65460Y303326D01*
X65423Y303212D01*
X65390Y303097D01*
X65361Y302980D01*
X65335Y302863D01*
X65314Y302745D01*
X65296Y302626D01*
X65283Y302507D01*
X65273Y302387D01*
X65267Y302267D01*
X65265Y302147D01*
X65267Y302027D01*
X65273Y301907D01*
X65283Y301787D01*
X65296Y301668D01*
X65314Y301549D01*
X65335Y301431D01*
X65361Y301314D01*
X65390Y301197D01*
X65423Y301082D01*
X65460Y300968D01*
X65500Y300855D01*
X65544Y300743D01*
X65592Y300633D01*
X65643Y300524D01*
X65698Y300417D01*
X65757Y300313D01*
X65818Y300210D01*
X65883Y300109D01*
X65952Y300010D01*
X66023Y299913D01*
X66098Y299819D01*
X66175Y299728D01*
X66256Y299639D01*
X66340Y299553D01*
X66426Y299469D01*
X66515Y299388D01*
X66606Y299311D01*
X66700Y299236D01*
X66797Y299165D01*
X66896Y299096D01*
X66997Y299031D01*
X67100Y298970D01*
X67204Y298911D01*
X67311Y298856D01*
X67420Y298805D01*
X67530Y298757D01*
X67642Y298713D01*
X67755Y298673D01*
X67869Y298636D01*
X67984Y298603D01*
X68101Y298574D01*
X68218Y298548D01*
X68336Y298527D01*
X68455Y298509D01*
X68574Y298496D01*
X68694Y298486D01*
X68814Y298480D01*
X68934Y298478D01*
X72603Y298478D01*
X60408Y302881D02*
X56739Y305816D01*
X56739Y292608D01*
X60408Y292608D02*
X53070Y292608D01*
X196342Y333883D02*
X196342Y347091D01*
X192673Y347091D01*
X192553Y347089D01*
X192433Y347083D01*
X192313Y347073D01*
X192194Y347060D01*
X192075Y347042D01*
X191957Y347021D01*
X191840Y346995D01*
X191723Y346966D01*
X191608Y346933D01*
X191494Y346896D01*
X191381Y346856D01*
X191269Y346812D01*
X191159Y346764D01*
X191050Y346713D01*
X190943Y346658D01*
X190839Y346599D01*
X190736Y346538D01*
X190635Y346473D01*
X190536Y346404D01*
X190439Y346333D01*
X190345Y346258D01*
X190254Y346181D01*
X190165Y346100D01*
X190079Y346016D01*
X189995Y345930D01*
X189914Y345841D01*
X189837Y345750D01*
X189762Y345656D01*
X189691Y345559D01*
X189622Y345460D01*
X189557Y345359D01*
X189496Y345257D01*
X189437Y345152D01*
X189382Y345045D01*
X189331Y344936D01*
X189283Y344826D01*
X189239Y344714D01*
X189199Y344601D01*
X189162Y344487D01*
X189129Y344372D01*
X189100Y344255D01*
X189074Y344138D01*
X189053Y344020D01*
X189035Y343901D01*
X189022Y343782D01*
X189012Y343662D01*
X189006Y343542D01*
X189004Y343422D01*
X189006Y343302D01*
X189012Y343182D01*
X189022Y343062D01*
X189035Y342943D01*
X189053Y342824D01*
X189074Y342706D01*
X189100Y342589D01*
X189129Y342472D01*
X189162Y342357D01*
X189199Y342243D01*
X189239Y342130D01*
X189283Y342018D01*
X189331Y341908D01*
X189382Y341799D01*
X189437Y341692D01*
X189496Y341588D01*
X189557Y341485D01*
X189622Y341384D01*
X189691Y341285D01*
X189762Y341188D01*
X189837Y341094D01*
X189914Y341003D01*
X189995Y340914D01*
X190079Y340828D01*
X190165Y340744D01*
X190254Y340663D01*
X190345Y340586D01*
X190439Y340511D01*
X190536Y340440D01*
X190635Y340371D01*
X190736Y340306D01*
X190839Y340245D01*
X190943Y340186D01*
X191050Y340131D01*
X191159Y340080D01*
X191269Y340032D01*
X191381Y339988D01*
X191494Y339948D01*
X191608Y339911D01*
X191723Y339878D01*
X191840Y339849D01*
X191957Y339823D01*
X192075Y339802D01*
X192194Y339784D01*
X192313Y339771D01*
X192433Y339761D01*
X192553Y339755D01*
X192673Y339753D01*
X196342Y339753D01*
X180111Y347091D02*
X179998Y347089D01*
X179886Y347083D01*
X179773Y347074D01*
X179661Y347060D01*
X179550Y347043D01*
X179439Y347022D01*
X179329Y346997D01*
X179220Y346969D01*
X179112Y346936D01*
X179005Y346900D01*
X178900Y346861D01*
X178795Y346818D01*
X178693Y346771D01*
X178592Y346721D01*
X178493Y346667D01*
X178395Y346610D01*
X178300Y346550D01*
X178207Y346487D01*
X178116Y346420D01*
X178027Y346350D01*
X177941Y346278D01*
X177857Y346202D01*
X177776Y346124D01*
X177698Y346043D01*
X177622Y345959D01*
X177550Y345873D01*
X177480Y345784D01*
X177413Y345693D01*
X177350Y345600D01*
X177290Y345505D01*
X177233Y345407D01*
X177179Y345308D01*
X177129Y345207D01*
X177082Y345105D01*
X177039Y345000D01*
X177000Y344895D01*
X176964Y344788D01*
X176931Y344680D01*
X176903Y344571D01*
X176878Y344461D01*
X176857Y344350D01*
X176840Y344239D01*
X176826Y344127D01*
X176817Y344014D01*
X176811Y343902D01*
X176809Y343789D01*
X180111Y347091D02*
X180238Y347089D01*
X180365Y347083D01*
X180492Y347074D01*
X180618Y347061D01*
X180744Y347044D01*
X180869Y347023D01*
X180994Y346998D01*
X181117Y346970D01*
X181240Y346938D01*
X181362Y346902D01*
X181483Y346863D01*
X181603Y346820D01*
X181721Y346774D01*
X181838Y346724D01*
X181953Y346670D01*
X182066Y346613D01*
X182178Y346553D01*
X182288Y346490D01*
X182396Y346423D01*
X182502Y346353D01*
X182606Y346280D01*
X182708Y346203D01*
X182807Y346124D01*
X182904Y346042D01*
X182998Y345957D01*
X183090Y345869D01*
X183179Y345779D01*
X183265Y345685D01*
X183349Y345590D01*
X183429Y345492D01*
X183507Y345391D01*
X183582Y345288D01*
X183653Y345183D01*
X183721Y345076D01*
X183786Y344967D01*
X183848Y344856D01*
X183907Y344743D01*
X183962Y344629D01*
X184013Y344513D01*
X184061Y344395D01*
X184106Y344276D01*
X184147Y344156D01*
X177910Y341221D02*
X177828Y341301D01*
X177749Y341384D01*
X177672Y341470D01*
X177598Y341558D01*
X177528Y341649D01*
X177460Y341741D01*
X177395Y341836D01*
X177333Y341933D01*
X177275Y342032D01*
X177219Y342133D01*
X177167Y342235D01*
X177119Y342339D01*
X177074Y342445D01*
X177032Y342552D01*
X176993Y342660D01*
X176959Y342770D01*
X176927Y342880D01*
X176900Y342992D01*
X176876Y343104D01*
X176855Y343217D01*
X176839Y343331D01*
X176826Y343445D01*
X176816Y343559D01*
X176811Y343674D01*
X176809Y343789D01*
X177910Y341221D02*
X184147Y333883D01*
X176809Y333883D01*
X28067Y248666D02*
X28067Y235458D01*
X28067Y248666D02*
X24398Y248666D01*
X24278Y248664D01*
X24158Y248658D01*
X24038Y248648D01*
X23919Y248635D01*
X23800Y248617D01*
X23682Y248596D01*
X23565Y248570D01*
X23448Y248541D01*
X23333Y248508D01*
X23219Y248471D01*
X23106Y248431D01*
X22994Y248387D01*
X22884Y248339D01*
X22775Y248288D01*
X22668Y248233D01*
X22564Y248174D01*
X22461Y248113D01*
X22360Y248048D01*
X22261Y247979D01*
X22164Y247908D01*
X22070Y247833D01*
X21979Y247756D01*
X21890Y247675D01*
X21804Y247591D01*
X21720Y247505D01*
X21639Y247416D01*
X21562Y247325D01*
X21487Y247231D01*
X21416Y247134D01*
X21347Y247035D01*
X21282Y246934D01*
X21221Y246832D01*
X21162Y246727D01*
X21107Y246620D01*
X21056Y246511D01*
X21008Y246401D01*
X20964Y246289D01*
X20924Y246176D01*
X20887Y246062D01*
X20854Y245947D01*
X20825Y245830D01*
X20799Y245713D01*
X20778Y245595D01*
X20760Y245476D01*
X20747Y245357D01*
X20737Y245237D01*
X20731Y245117D01*
X20729Y244997D01*
X20731Y244877D01*
X20737Y244757D01*
X20747Y244637D01*
X20760Y244518D01*
X20778Y244399D01*
X20799Y244281D01*
X20825Y244164D01*
X20854Y244047D01*
X20887Y243932D01*
X20924Y243818D01*
X20964Y243705D01*
X21008Y243593D01*
X21056Y243483D01*
X21107Y243374D01*
X21162Y243267D01*
X21221Y243162D01*
X21282Y243060D01*
X21347Y242959D01*
X21416Y242860D01*
X21487Y242763D01*
X21562Y242669D01*
X21639Y242578D01*
X21720Y242489D01*
X21804Y242403D01*
X21890Y242319D01*
X21979Y242238D01*
X22070Y242161D01*
X22164Y242086D01*
X22261Y242015D01*
X22360Y241946D01*
X22461Y241881D01*
X22564Y241820D01*
X22668Y241761D01*
X22775Y241706D01*
X22884Y241655D01*
X22994Y241607D01*
X23106Y241563D01*
X23219Y241523D01*
X23333Y241486D01*
X23448Y241453D01*
X23565Y241424D01*
X23682Y241398D01*
X23800Y241377D01*
X23919Y241359D01*
X24038Y241346D01*
X24158Y241336D01*
X24278Y241330D01*
X24398Y241328D01*
X28067Y241328D01*
X15872Y235458D02*
X11469Y235458D01*
X11362Y235460D01*
X11255Y235466D01*
X11148Y235476D01*
X11042Y235489D01*
X10936Y235507D01*
X10831Y235528D01*
X10727Y235553D01*
X10623Y235582D01*
X10521Y235615D01*
X10421Y235652D01*
X10321Y235692D01*
X10223Y235736D01*
X10127Y235783D01*
X10033Y235834D01*
X9940Y235888D01*
X9850Y235945D01*
X9761Y236006D01*
X9675Y236070D01*
X9592Y236137D01*
X9510Y236207D01*
X9432Y236280D01*
X9356Y236356D01*
X9283Y236434D01*
X9213Y236516D01*
X9146Y236599D01*
X9082Y236685D01*
X9021Y236774D01*
X8964Y236864D01*
X8910Y236957D01*
X8859Y237051D01*
X8812Y237147D01*
X8768Y237245D01*
X8728Y237345D01*
X8691Y237445D01*
X8658Y237547D01*
X8629Y237651D01*
X8604Y237755D01*
X8583Y237860D01*
X8565Y237966D01*
X8552Y238072D01*
X8542Y238179D01*
X8536Y238286D01*
X8534Y238393D01*
X8534Y239861D01*
X8536Y239968D01*
X8542Y240075D01*
X8552Y240182D01*
X8565Y240288D01*
X8583Y240394D01*
X8604Y240499D01*
X8629Y240603D01*
X8658Y240707D01*
X8691Y240809D01*
X8728Y240909D01*
X8768Y241009D01*
X8812Y241107D01*
X8859Y241203D01*
X8910Y241297D01*
X8964Y241390D01*
X9021Y241480D01*
X9082Y241569D01*
X9146Y241655D01*
X9213Y241738D01*
X9283Y241820D01*
X9356Y241898D01*
X9432Y241974D01*
X9510Y242047D01*
X9592Y242117D01*
X9675Y242184D01*
X9761Y242248D01*
X9850Y242309D01*
X9940Y242366D01*
X10033Y242420D01*
X10127Y242471D01*
X10223Y242519D01*
X10321Y242562D01*
X10421Y242602D01*
X10521Y242639D01*
X10623Y242672D01*
X10727Y242701D01*
X10831Y242726D01*
X10936Y242747D01*
X11042Y242765D01*
X11148Y242778D01*
X11255Y242788D01*
X11362Y242794D01*
X11469Y242796D01*
X15872Y242796D01*
X15872Y248666D01*
X8534Y248666D01*
X62992Y112141D02*
X62992Y98933D01*
X62992Y112141D02*
X59323Y112141D01*
X59203Y112139D01*
X59083Y112133D01*
X58963Y112123D01*
X58844Y112110D01*
X58725Y112092D01*
X58607Y112071D01*
X58490Y112045D01*
X58373Y112016D01*
X58258Y111983D01*
X58144Y111946D01*
X58031Y111906D01*
X57919Y111862D01*
X57809Y111814D01*
X57700Y111763D01*
X57593Y111708D01*
X57489Y111649D01*
X57386Y111588D01*
X57285Y111523D01*
X57186Y111454D01*
X57089Y111383D01*
X56995Y111308D01*
X56904Y111231D01*
X56815Y111150D01*
X56729Y111066D01*
X56645Y110980D01*
X56564Y110891D01*
X56487Y110800D01*
X56412Y110706D01*
X56341Y110609D01*
X56272Y110510D01*
X56207Y110409D01*
X56146Y110306D01*
X56087Y110202D01*
X56032Y110095D01*
X55981Y109986D01*
X55933Y109876D01*
X55889Y109764D01*
X55849Y109651D01*
X55812Y109537D01*
X55779Y109422D01*
X55750Y109305D01*
X55724Y109188D01*
X55703Y109070D01*
X55685Y108951D01*
X55672Y108832D01*
X55662Y108712D01*
X55656Y108592D01*
X55654Y108472D01*
X55656Y108352D01*
X55662Y108232D01*
X55672Y108112D01*
X55685Y107993D01*
X55703Y107874D01*
X55724Y107756D01*
X55750Y107639D01*
X55779Y107522D01*
X55812Y107407D01*
X55849Y107293D01*
X55889Y107180D01*
X55933Y107068D01*
X55981Y106958D01*
X56032Y106849D01*
X56087Y106742D01*
X56146Y106637D01*
X56207Y106535D01*
X56272Y106434D01*
X56341Y106335D01*
X56412Y106238D01*
X56487Y106144D01*
X56564Y106053D01*
X56645Y105964D01*
X56729Y105878D01*
X56815Y105794D01*
X56904Y105713D01*
X56995Y105636D01*
X57089Y105561D01*
X57186Y105490D01*
X57285Y105421D01*
X57386Y105356D01*
X57489Y105295D01*
X57593Y105236D01*
X57700Y105181D01*
X57809Y105130D01*
X57919Y105082D01*
X58031Y105038D01*
X58144Y104998D01*
X58258Y104961D01*
X58373Y104928D01*
X58490Y104899D01*
X58607Y104873D01*
X58725Y104852D01*
X58844Y104834D01*
X58963Y104821D01*
X59083Y104811D01*
X59203Y104805D01*
X59323Y104803D01*
X62992Y104803D01*
X50797Y101868D02*
X47862Y112141D01*
X50797Y101868D02*
X43459Y101868D01*
X45660Y104803D02*
X45660Y98933D01*
X218567Y102108D02*
X218567Y115316D01*
X214898Y115316D01*
X214778Y115314D01*
X214658Y115308D01*
X214538Y115298D01*
X214419Y115285D01*
X214300Y115267D01*
X214182Y115246D01*
X214065Y115220D01*
X213948Y115191D01*
X213833Y115158D01*
X213719Y115121D01*
X213606Y115081D01*
X213494Y115037D01*
X213384Y114989D01*
X213275Y114938D01*
X213168Y114883D01*
X213064Y114824D01*
X212961Y114763D01*
X212860Y114698D01*
X212761Y114629D01*
X212664Y114558D01*
X212570Y114483D01*
X212479Y114406D01*
X212390Y114325D01*
X212304Y114241D01*
X212220Y114155D01*
X212139Y114066D01*
X212062Y113975D01*
X211987Y113881D01*
X211916Y113784D01*
X211847Y113685D01*
X211782Y113584D01*
X211721Y113481D01*
X211662Y113377D01*
X211607Y113270D01*
X211556Y113161D01*
X211508Y113051D01*
X211464Y112939D01*
X211424Y112826D01*
X211387Y112712D01*
X211354Y112597D01*
X211325Y112480D01*
X211299Y112363D01*
X211278Y112245D01*
X211260Y112126D01*
X211247Y112007D01*
X211237Y111887D01*
X211231Y111767D01*
X211229Y111647D01*
X211231Y111527D01*
X211237Y111407D01*
X211247Y111287D01*
X211260Y111168D01*
X211278Y111049D01*
X211299Y110931D01*
X211325Y110814D01*
X211354Y110697D01*
X211387Y110582D01*
X211424Y110468D01*
X211464Y110355D01*
X211508Y110243D01*
X211556Y110133D01*
X211607Y110024D01*
X211662Y109917D01*
X211721Y109812D01*
X211782Y109710D01*
X211847Y109609D01*
X211916Y109510D01*
X211987Y109413D01*
X212062Y109319D01*
X212139Y109228D01*
X212220Y109139D01*
X212304Y109053D01*
X212390Y108969D01*
X212479Y108888D01*
X212570Y108811D01*
X212664Y108736D01*
X212761Y108665D01*
X212860Y108596D01*
X212961Y108531D01*
X213064Y108470D01*
X213168Y108411D01*
X213275Y108356D01*
X213384Y108305D01*
X213494Y108257D01*
X213606Y108213D01*
X213719Y108173D01*
X213833Y108136D01*
X213948Y108103D01*
X214065Y108074D01*
X214182Y108048D01*
X214300Y108027D01*
X214419Y108009D01*
X214538Y107996D01*
X214658Y107986D01*
X214778Y107980D01*
X214898Y107978D01*
X218567Y107978D01*
X206372Y102108D02*
X202703Y102108D01*
X202583Y102110D01*
X202463Y102116D01*
X202343Y102126D01*
X202224Y102139D01*
X202105Y102157D01*
X201987Y102178D01*
X201870Y102204D01*
X201753Y102233D01*
X201638Y102266D01*
X201524Y102303D01*
X201411Y102343D01*
X201299Y102387D01*
X201189Y102435D01*
X201080Y102486D01*
X200973Y102541D01*
X200869Y102600D01*
X200766Y102661D01*
X200665Y102726D01*
X200566Y102795D01*
X200469Y102866D01*
X200375Y102941D01*
X200284Y103018D01*
X200195Y103099D01*
X200109Y103183D01*
X200025Y103269D01*
X199944Y103358D01*
X199867Y103449D01*
X199792Y103543D01*
X199721Y103640D01*
X199652Y103739D01*
X199587Y103840D01*
X199526Y103942D01*
X199467Y104047D01*
X199412Y104154D01*
X199361Y104263D01*
X199313Y104373D01*
X199269Y104485D01*
X199229Y104598D01*
X199192Y104712D01*
X199159Y104827D01*
X199130Y104944D01*
X199104Y105061D01*
X199083Y105179D01*
X199065Y105298D01*
X199052Y105417D01*
X199042Y105537D01*
X199036Y105657D01*
X199034Y105777D01*
X199036Y105897D01*
X199042Y106017D01*
X199052Y106137D01*
X199065Y106256D01*
X199083Y106375D01*
X199104Y106493D01*
X199130Y106610D01*
X199159Y106727D01*
X199192Y106842D01*
X199229Y106956D01*
X199269Y107069D01*
X199313Y107181D01*
X199361Y107291D01*
X199412Y107400D01*
X199467Y107507D01*
X199526Y107611D01*
X199587Y107714D01*
X199652Y107815D01*
X199721Y107914D01*
X199792Y108011D01*
X199867Y108105D01*
X199944Y108196D01*
X200025Y108285D01*
X200109Y108371D01*
X200195Y108455D01*
X200284Y108536D01*
X200375Y108613D01*
X200469Y108688D01*
X200566Y108759D01*
X200665Y108828D01*
X200766Y108893D01*
X200869Y108954D01*
X200973Y109013D01*
X201080Y109068D01*
X201189Y109119D01*
X201299Y109167D01*
X201411Y109211D01*
X201524Y109251D01*
X201638Y109288D01*
X201753Y109321D01*
X201870Y109350D01*
X201987Y109376D01*
X202105Y109397D01*
X202224Y109415D01*
X202343Y109428D01*
X202463Y109438D01*
X202583Y109444D01*
X202703Y109446D01*
X201969Y115316D02*
X206372Y115316D01*
X201969Y115316D02*
X201862Y115314D01*
X201755Y115308D01*
X201648Y115298D01*
X201542Y115285D01*
X201436Y115267D01*
X201331Y115246D01*
X201227Y115221D01*
X201123Y115192D01*
X201021Y115159D01*
X200921Y115122D01*
X200821Y115082D01*
X200723Y115038D01*
X200627Y114991D01*
X200533Y114940D01*
X200440Y114886D01*
X200350Y114829D01*
X200261Y114768D01*
X200175Y114704D01*
X200092Y114637D01*
X200010Y114567D01*
X199932Y114494D01*
X199856Y114418D01*
X199783Y114340D01*
X199713Y114258D01*
X199646Y114175D01*
X199582Y114089D01*
X199521Y114000D01*
X199464Y113910D01*
X199410Y113817D01*
X199359Y113723D01*
X199312Y113627D01*
X199268Y113529D01*
X199228Y113429D01*
X199191Y113329D01*
X199158Y113227D01*
X199129Y113123D01*
X199104Y113019D01*
X199083Y112914D01*
X199065Y112808D01*
X199052Y112702D01*
X199042Y112595D01*
X199036Y112488D01*
X199034Y112381D01*
X199036Y112274D01*
X199042Y112167D01*
X199052Y112060D01*
X199065Y111954D01*
X199083Y111848D01*
X199104Y111743D01*
X199129Y111639D01*
X199158Y111535D01*
X199191Y111433D01*
X199228Y111333D01*
X199268Y111233D01*
X199312Y111135D01*
X199359Y111039D01*
X199410Y110945D01*
X199464Y110852D01*
X199521Y110762D01*
X199582Y110673D01*
X199646Y110587D01*
X199713Y110504D01*
X199783Y110422D01*
X199856Y110344D01*
X199932Y110268D01*
X200010Y110195D01*
X200092Y110125D01*
X200175Y110058D01*
X200261Y109994D01*
X200350Y109933D01*
X200440Y109876D01*
X200533Y109822D01*
X200627Y109771D01*
X200723Y109724D01*
X200821Y109680D01*
X200921Y109640D01*
X201021Y109603D01*
X201123Y109570D01*
X201227Y109541D01*
X201331Y109516D01*
X201436Y109495D01*
X201542Y109477D01*
X201648Y109464D01*
X201755Y109454D01*
X201862Y109448D01*
X201969Y109446D01*
X204904Y109446D01*
D11*
X264246Y206540D03*
D12*
X264762Y206687D03*
D13*
X265204Y206835D03*
D14*
X265646Y206982D03*
D15*
X265720Y207129D03*
D16*
X265646Y207277D03*
D17*
X265572Y207424D03*
D18*
X265646Y207571D03*
D19*
X265572Y207719D03*
D20*
X265572Y207866D03*
D21*
X265499Y208013D03*
X265499Y208161D03*
D22*
X265499Y208308D03*
D23*
X265425Y208455D03*
D24*
X265425Y208603D03*
X265425Y208750D03*
D25*
X265351Y208897D03*
D26*
X265351Y209045D03*
D27*
X265278Y209192D03*
D28*
X265351Y209339D03*
D29*
X265278Y209487D03*
D30*
X265204Y209634D03*
D31*
X265204Y209781D03*
X265204Y209928D03*
D32*
X265130Y210076D03*
D33*
X265130Y210223D03*
D34*
X265057Y210370D03*
D35*
X265130Y210518D03*
D36*
X265057Y210665D03*
D37*
X264983Y210812D03*
D38*
X264983Y210960D03*
X264983Y211107D03*
D39*
X264983Y211254D03*
D40*
X264909Y211402D03*
X264909Y211549D03*
D41*
X264909Y211696D03*
D42*
X264836Y211844D03*
D43*
X264836Y211991D03*
X264836Y212138D03*
D44*
X264762Y212286D03*
D45*
X264762Y212433D03*
D46*
X264688Y212580D03*
D47*
X264762Y212728D03*
D48*
X264688Y212875D03*
D49*
X264615Y213022D03*
D50*
X244137Y213022D03*
D51*
X264615Y213170D03*
D52*
X244726Y213170D03*
D51*
X264615Y213317D03*
D53*
X245168Y213317D03*
D54*
X264615Y213464D03*
D55*
X245684Y213464D03*
D56*
X264541Y213611D03*
D57*
X246126Y213611D03*
D56*
X264541Y213759D03*
D58*
X246715Y213759D03*
D59*
X264615Y213906D03*
D60*
X247157Y213906D03*
D59*
X264615Y214053D03*
D61*
X247673Y214053D03*
D56*
X264688Y214201D03*
D62*
X248115Y214201D03*
D59*
X264762Y214348D03*
D14*
X248262Y214348D03*
D59*
X264762Y214495D03*
D16*
X248262Y214495D03*
D59*
X264909Y214643D03*
D17*
X248189Y214643D03*
D59*
X264909Y214790D03*
D18*
X248115Y214790D03*
D56*
X264983Y214937D03*
D19*
X248189Y214937D03*
D59*
X265057Y215085D03*
D63*
X248115Y215085D03*
D59*
X265057Y215232D03*
D21*
X248115Y215232D03*
D59*
X265204Y215379D03*
D64*
X248041Y215379D03*
D59*
X265204Y215527D03*
D64*
X248041Y215527D03*
D56*
X265278Y215674D03*
D23*
X248041Y215674D03*
D59*
X265351Y215821D03*
D65*
X247968Y215821D03*
D59*
X265351Y215969D03*
D25*
X247968Y215969D03*
D59*
X265499Y216116D03*
D25*
X247968Y216116D03*
D59*
X265499Y216263D03*
D66*
X247894Y216263D03*
D56*
X265572Y216411D03*
D27*
X247894Y216411D03*
D54*
X265499Y216558D03*
D28*
X247820Y216558D03*
D54*
X265499Y216705D03*
D29*
X247894Y216705D03*
D67*
X265499Y216853D03*
D68*
X247820Y216853D03*
D69*
X265425Y217000D03*
D70*
X247747Y217000D03*
D48*
X265425Y217147D03*
D71*
X247747Y217147D03*
D48*
X265425Y217294D03*
D71*
X247747Y217294D03*
D47*
X265351Y217442D03*
D72*
X247673Y217442D03*
D45*
X265351Y217589D03*
D34*
X247673Y217589D03*
D73*
X265278Y217736D03*
D34*
X247673Y217736D03*
D44*
X265351Y217884D03*
D36*
X247673Y217884D03*
D74*
X265278Y218031D03*
D37*
X247599Y218031D03*
D75*
X265204Y218178D03*
D76*
X247526Y218178D03*
D41*
X265204Y218326D03*
D77*
X247599Y218326D03*
D41*
X265204Y218473D03*
D78*
X247526Y218473D03*
D79*
X265130Y218620D03*
D40*
X247526Y218620D03*
D39*
X265130Y218768D03*
D79*
X247452Y218768D03*
D39*
X265130Y218915D03*
D79*
X247452Y218915D03*
D77*
X265130Y219062D03*
D42*
X247452Y219062D03*
D80*
X265057Y219210D03*
D75*
X247378Y219210D03*
D37*
X264983Y219357D03*
D44*
X247378Y219357D03*
D36*
X265057Y219504D03*
D44*
X247378Y219504D03*
D35*
X264983Y219652D03*
D73*
X247305Y219652D03*
D33*
X264983Y219799D03*
D46*
X247305Y219799D03*
D72*
X264909Y219946D03*
D47*
X247231Y219946D03*
D72*
X264909Y220094D03*
D48*
X247305Y220094D03*
D81*
X264909Y220241D03*
D82*
X247231Y220241D03*
D70*
X264836Y220388D03*
D69*
X247157Y220388D03*
D29*
X264836Y220536D03*
D83*
X247157Y220536D03*
D29*
X264836Y220683D03*
D83*
X247157Y220683D03*
D28*
X264762Y220830D03*
D56*
X247157Y220830D03*
D26*
X264762Y220977D03*
D59*
X247084Y220977D03*
D66*
X264688Y221125D03*
D56*
X247157Y221125D03*
D25*
X264762Y221272D03*
D59*
X247231Y221272D03*
D84*
X264688Y221419D03*
D59*
X247231Y221419D03*
D85*
X264615Y221567D03*
D56*
X247305Y221567D03*
D22*
X264615Y221714D03*
D59*
X247378Y221714D03*
D22*
X264615Y221861D03*
D59*
X247378Y221861D03*
D64*
X264541Y222009D03*
D59*
X247526Y222009D03*
D20*
X264541Y222156D03*
D59*
X247526Y222156D03*
D63*
X264467Y222303D03*
D56*
X247599Y222303D03*
D86*
X264541Y222451D03*
D59*
X247673Y222451D03*
D18*
X264467Y222598D03*
D59*
X247673Y222598D03*
D17*
X264394Y222745D03*
D59*
X247820Y222745D03*
D16*
X264467Y222893D03*
D59*
X247820Y222893D03*
D15*
X264394Y223040D03*
D56*
X247894Y223040D03*
D62*
X264467Y223187D03*
D59*
X247968Y223187D03*
D87*
X264983Y223335D03*
D59*
X247968Y223335D03*
D60*
X265572Y223482D03*
D59*
X248115Y223482D03*
D58*
X266014Y223629D03*
D59*
X248115Y223629D03*
D88*
X266530Y223777D03*
D54*
X248115Y223777D03*
D89*
X266972Y223924D03*
D83*
X248041Y223924D03*
D53*
X267561Y224071D03*
D83*
X248041Y224071D03*
D90*
X268077Y224219D03*
D91*
X248041Y224219D03*
D92*
X268519Y224366D03*
D49*
X247968Y224366D03*
D93*
X258722Y224513D03*
D48*
X248041Y224513D03*
D94*
X259238Y224660D03*
D47*
X247968Y224660D03*
D95*
X259753Y224808D03*
D46*
X247894Y224808D03*
D96*
X260269Y224955D03*
D73*
X247894Y224955D03*
D97*
X260711Y225102D03*
D73*
X247894Y225102D03*
D98*
X261226Y225250D03*
D74*
X247894Y225250D03*
D11*
X261742Y225397D03*
D99*
X247820Y225397D03*
D12*
X262258Y225544D03*
D42*
X247747Y225544D03*
D100*
X262773Y225692D03*
D41*
X247820Y225692D03*
D101*
X263215Y225839D03*
D79*
X247747Y225839D03*
D15*
X263215Y225986D03*
D40*
X247673Y225986D03*
D16*
X263141Y226134D03*
D78*
X247673Y226134D03*
D17*
X263068Y226281D03*
D78*
X247673Y226281D03*
D18*
X263141Y226428D03*
D80*
X247673Y226428D03*
D19*
X263068Y226576D03*
D37*
X247599Y226576D03*
D102*
X263068Y226723D03*
D36*
X247526Y226723D03*
D21*
X262994Y226870D03*
D35*
X247599Y226870D03*
D21*
X262994Y227018D03*
D34*
X247526Y227018D03*
D22*
X262994Y227165D03*
D72*
X247526Y227165D03*
D23*
X262921Y227312D03*
D32*
X247452Y227312D03*
D24*
X262921Y227460D03*
D32*
X247452Y227460D03*
D24*
X262921Y227607D03*
D103*
X246182Y227607D03*
D25*
X262847Y227754D03*
D68*
X247378Y227754D03*
D26*
X262847Y227902D03*
D28*
X247378Y227902D03*
D27*
X262773Y228049D03*
D28*
X247378Y228049D03*
X262847Y228196D03*
D27*
X247305Y228196D03*
D29*
X262773Y228343D03*
D66*
X247305Y228343D03*
D68*
X262700Y228491D03*
D66*
X247305Y228491D03*
D31*
X262700Y228638D03*
D84*
X247305Y228638D03*
D31*
X262700Y228785D03*
D65*
X247231Y228785D03*
D72*
X262700Y228933D03*
D23*
X247157Y228933D03*
D33*
X262626Y229080D03*
D22*
X247231Y229080D03*
D34*
X262552Y229227D03*
D64*
X247157Y229227D03*
D35*
X262626Y229375D03*
D20*
X247157Y229375D03*
D36*
X262552Y229522D03*
D104*
X247084Y229522D03*
D80*
X262552Y229669D03*
D104*
X247084Y229669D03*
D38*
X262479Y229817D03*
D18*
X247084Y229817D03*
D38*
X262479Y229964D03*
D17*
X247010Y229964D03*
D39*
X262479Y230111D03*
D16*
X246936Y230111D03*
D40*
X262405Y230259D03*
D15*
X247010Y230259D03*
D40*
X262405Y230406D03*
D101*
X247010Y230406D03*
D41*
X262405Y230553D03*
D105*
X247452Y230553D03*
D42*
X262331Y230701D03*
D106*
X247968Y230701D03*
D43*
X262331Y230848D03*
D11*
X248483Y230848D03*
D43*
X262331Y230995D03*
D107*
X248999Y230995D03*
D44*
X262258Y231143D03*
D108*
X249441Y231143D03*
D45*
X262258Y231290D03*
D109*
X249956Y231290D03*
D46*
X262184Y231437D03*
D95*
X250472Y231437D03*
D47*
X262258Y231585D03*
D110*
X250988Y231585D03*
D48*
X262184Y231732D03*
D111*
X251430Y231732D03*
D49*
X262110Y231879D03*
D51*
X262110Y232026D03*
X262110Y232174D03*
D54*
X262110Y232321D03*
D56*
X262037Y232468D03*
X262037Y232616D03*
D59*
X262110Y232763D03*
X262110Y232910D03*
X262258Y233058D03*
X262258Y233205D03*
D56*
X262331Y233352D03*
D59*
X262405Y233500D03*
X262405Y233647D03*
X262552Y233794D03*
X262552Y233942D03*
D56*
X262626Y234089D03*
D59*
X262700Y234236D03*
X262700Y234384D03*
D56*
X262773Y234531D03*
D59*
X262847Y234678D03*
X262847Y234826D03*
X262994Y234973D03*
X262994Y235120D03*
D56*
X263068Y235268D03*
D54*
X262994Y235415D03*
X262994Y235562D03*
D67*
X262994Y235709D03*
D69*
X262921Y235857D03*
D48*
X262921Y236004D03*
X262921Y236151D03*
D47*
X262847Y236299D03*
D45*
X262847Y236446D03*
D73*
X262773Y236593D03*
D44*
X262847Y236741D03*
D74*
X262773Y236888D03*
D75*
X262700Y237035D03*
D112*
X262773Y237183D03*
D41*
X262700Y237330D03*
D40*
X262700Y237477D03*
D39*
X262626Y237625D03*
X262626Y237772D03*
D77*
X262626Y237919D03*
D80*
X262552Y238067D03*
D36*
X262552Y238214D03*
X262552Y238361D03*
D35*
X262479Y238509D03*
D33*
X262479Y238656D03*
D72*
X262405Y238803D03*
X262405Y238951D03*
D81*
X262405Y239098D03*
D70*
X262331Y239245D03*
D29*
X262331Y239392D03*
X262331Y239540D03*
D28*
X262258Y239687D03*
D26*
X262258Y239834D03*
D66*
X262184Y239982D03*
D25*
X262258Y240129D03*
D84*
X262184Y240276D03*
D85*
X262110Y240424D03*
D22*
X262110Y240571D03*
X262110Y240718D03*
D21*
X262110Y240866D03*
D20*
X262037Y241013D03*
D63*
X261963Y241160D03*
D86*
X262037Y241308D03*
D18*
X261963Y241455D03*
D16*
X261963Y241602D03*
X261963Y241750D03*
D15*
X261889Y241897D03*
D113*
X262037Y242044D03*
D114*
X262552Y242192D03*
D60*
X263068Y242339D03*
D115*
X263583Y242486D03*
D88*
X264025Y242634D03*
D116*
X264541Y242781D03*
D53*
X265057Y242928D03*
D90*
X265572Y243075D03*
D117*
X266088Y243223D03*
D50*
X261587Y205694D03*
D52*
X262176Y205842D03*
D53*
X262618Y205989D03*
D55*
X263134Y206136D03*
D57*
X263576Y206284D03*
D58*
X264165Y206431D03*
D60*
X264607Y206578D03*
D61*
X265123Y206726D03*
D62*
X265565Y206873D03*
D14*
X265712Y207020D03*
D118*
X183268Y254381D02*
X181180Y254381D01*
X183268Y254381D02*
X183357Y254383D01*
X183445Y254389D01*
X183533Y254398D01*
X183621Y254411D01*
X183708Y254428D01*
X183794Y254448D01*
X183879Y254473D01*
X183964Y254500D01*
X184047Y254532D01*
X184128Y254566D01*
X184208Y254605D01*
X184286Y254646D01*
X184363Y254691D01*
X184437Y254739D01*
X184510Y254790D01*
X184580Y254844D01*
X184647Y254902D01*
X184713Y254962D01*
X184775Y255024D01*
X184835Y255090D01*
X184893Y255157D01*
X184947Y255227D01*
X184998Y255300D01*
X185046Y255374D01*
X185091Y255451D01*
X185132Y255529D01*
X185171Y255609D01*
X185205Y255690D01*
X185237Y255773D01*
X185264Y255858D01*
X185289Y255943D01*
X185309Y256029D01*
X185326Y256116D01*
X185339Y256204D01*
X185348Y256292D01*
X185354Y256380D01*
X185356Y256469D01*
X185357Y256469D02*
X185357Y261691D01*
X185356Y261691D02*
X185354Y261780D01*
X185348Y261868D01*
X185339Y261956D01*
X185326Y262044D01*
X185309Y262131D01*
X185289Y262217D01*
X185264Y262302D01*
X185237Y262387D01*
X185205Y262470D01*
X185171Y262551D01*
X185132Y262631D01*
X185091Y262709D01*
X185046Y262786D01*
X184998Y262860D01*
X184947Y262933D01*
X184893Y263003D01*
X184835Y263070D01*
X184775Y263136D01*
X184713Y263198D01*
X184647Y263258D01*
X184580Y263316D01*
X184510Y263370D01*
X184437Y263421D01*
X184363Y263469D01*
X184286Y263514D01*
X184208Y263555D01*
X184128Y263594D01*
X184047Y263628D01*
X183964Y263660D01*
X183879Y263687D01*
X183794Y263712D01*
X183708Y263732D01*
X183621Y263749D01*
X183533Y263762D01*
X183445Y263771D01*
X183357Y263777D01*
X183268Y263779D01*
X181180Y263779D01*
X177711Y261691D02*
X175100Y263779D01*
X175100Y254381D01*
X172490Y254381D02*
X177711Y254381D01*
D119*
X182080Y278752D02*
X182080Y298882D01*
D118*
X182767Y265494D02*
X184856Y265494D01*
X184945Y265496D01*
X185033Y265502D01*
X185121Y265511D01*
X185209Y265524D01*
X185296Y265541D01*
X185382Y265561D01*
X185467Y265586D01*
X185552Y265613D01*
X185635Y265645D01*
X185716Y265679D01*
X185796Y265718D01*
X185874Y265759D01*
X185951Y265804D01*
X186025Y265852D01*
X186098Y265903D01*
X186168Y265957D01*
X186235Y266015D01*
X186301Y266075D01*
X186363Y266137D01*
X186423Y266203D01*
X186481Y266270D01*
X186535Y266340D01*
X186586Y266413D01*
X186634Y266487D01*
X186679Y266564D01*
X186720Y266642D01*
X186759Y266722D01*
X186793Y266803D01*
X186825Y266886D01*
X186852Y266971D01*
X186877Y267056D01*
X186897Y267142D01*
X186914Y267229D01*
X186927Y267317D01*
X186936Y267405D01*
X186942Y267493D01*
X186944Y267582D01*
X186944Y272803D01*
X186942Y272892D01*
X186936Y272980D01*
X186927Y273068D01*
X186914Y273156D01*
X186897Y273243D01*
X186877Y273329D01*
X186852Y273414D01*
X186825Y273499D01*
X186793Y273582D01*
X186759Y273663D01*
X186720Y273743D01*
X186679Y273821D01*
X186634Y273898D01*
X186586Y273972D01*
X186535Y274045D01*
X186481Y274115D01*
X186423Y274182D01*
X186363Y274248D01*
X186301Y274310D01*
X186235Y274370D01*
X186168Y274428D01*
X186098Y274482D01*
X186025Y274533D01*
X185951Y274581D01*
X185874Y274626D01*
X185796Y274667D01*
X185716Y274706D01*
X185635Y274740D01*
X185552Y274772D01*
X185467Y274799D01*
X185382Y274824D01*
X185296Y274844D01*
X185209Y274861D01*
X185121Y274874D01*
X185033Y274883D01*
X184945Y274889D01*
X184856Y274891D01*
X184856Y274892D02*
X182767Y274892D01*
X176427Y274892D02*
X176332Y274890D01*
X176238Y274884D01*
X176144Y274875D01*
X176050Y274862D01*
X175957Y274845D01*
X175865Y274824D01*
X175773Y274799D01*
X175683Y274771D01*
X175594Y274739D01*
X175506Y274704D01*
X175420Y274665D01*
X175335Y274623D01*
X175252Y274577D01*
X175171Y274528D01*
X175092Y274476D01*
X175015Y274421D01*
X174941Y274362D01*
X174869Y274301D01*
X174799Y274237D01*
X174732Y274170D01*
X174668Y274100D01*
X174607Y274028D01*
X174548Y273954D01*
X174493Y273877D01*
X174441Y273798D01*
X174392Y273717D01*
X174346Y273634D01*
X174304Y273549D01*
X174265Y273463D01*
X174230Y273375D01*
X174198Y273286D01*
X174170Y273196D01*
X174145Y273104D01*
X174124Y273012D01*
X174107Y272919D01*
X174094Y272825D01*
X174085Y272731D01*
X174079Y272637D01*
X174077Y272542D01*
X176427Y274891D02*
X176535Y274889D01*
X176644Y274883D01*
X176752Y274873D01*
X176859Y274860D01*
X176966Y274842D01*
X177073Y274821D01*
X177178Y274796D01*
X177283Y274767D01*
X177386Y274735D01*
X177488Y274698D01*
X177589Y274658D01*
X177688Y274615D01*
X177786Y274568D01*
X177882Y274517D01*
X177976Y274463D01*
X178068Y274406D01*
X178158Y274345D01*
X178246Y274281D01*
X178331Y274215D01*
X178414Y274145D01*
X178494Y274072D01*
X178572Y273996D01*
X178647Y273918D01*
X178719Y273837D01*
X178788Y273753D01*
X178854Y273667D01*
X178917Y273579D01*
X178976Y273488D01*
X179033Y273396D01*
X179086Y273301D01*
X179135Y273204D01*
X179181Y273106D01*
X179224Y273007D01*
X179263Y272905D01*
X179298Y272803D01*
X174860Y270714D02*
X174791Y270783D01*
X174725Y270854D01*
X174661Y270927D01*
X174600Y271003D01*
X174542Y271082D01*
X174488Y271162D01*
X174436Y271245D01*
X174388Y271329D01*
X174342Y271415D01*
X174301Y271503D01*
X174262Y271593D01*
X174227Y271684D01*
X174196Y271776D01*
X174168Y271869D01*
X174144Y271963D01*
X174124Y272058D01*
X174107Y272154D01*
X174094Y272251D01*
X174085Y272348D01*
X174079Y272445D01*
X174077Y272542D01*
X174860Y270715D02*
X179298Y265494D01*
X174077Y265494D01*
X119109Y131509D02*
X117021Y131509D01*
X119109Y131509D02*
X119198Y131511D01*
X119286Y131517D01*
X119374Y131526D01*
X119462Y131539D01*
X119549Y131556D01*
X119635Y131576D01*
X119720Y131601D01*
X119805Y131628D01*
X119888Y131660D01*
X119969Y131694D01*
X120049Y131733D01*
X120127Y131774D01*
X120204Y131819D01*
X120278Y131867D01*
X120351Y131918D01*
X120421Y131972D01*
X120488Y132030D01*
X120554Y132090D01*
X120616Y132152D01*
X120676Y132218D01*
X120734Y132285D01*
X120788Y132355D01*
X120839Y132428D01*
X120887Y132502D01*
X120932Y132579D01*
X120973Y132657D01*
X121012Y132737D01*
X121046Y132818D01*
X121078Y132901D01*
X121105Y132986D01*
X121130Y133071D01*
X121150Y133157D01*
X121167Y133244D01*
X121180Y133332D01*
X121189Y133420D01*
X121195Y133508D01*
X121197Y133597D01*
X121198Y133597D02*
X121198Y138818D01*
X121197Y138818D02*
X121195Y138907D01*
X121189Y138995D01*
X121180Y139083D01*
X121167Y139171D01*
X121150Y139258D01*
X121130Y139344D01*
X121105Y139429D01*
X121078Y139514D01*
X121046Y139597D01*
X121012Y139678D01*
X120973Y139758D01*
X120932Y139836D01*
X120887Y139913D01*
X120839Y139987D01*
X120788Y140060D01*
X120734Y140130D01*
X120676Y140197D01*
X120616Y140263D01*
X120554Y140325D01*
X120488Y140385D01*
X120421Y140443D01*
X120351Y140497D01*
X120278Y140548D01*
X120204Y140596D01*
X120127Y140641D01*
X120049Y140682D01*
X119969Y140721D01*
X119888Y140755D01*
X119805Y140787D01*
X119720Y140814D01*
X119635Y140839D01*
X119549Y140859D01*
X119462Y140876D01*
X119374Y140889D01*
X119286Y140898D01*
X119198Y140904D01*
X119109Y140906D01*
X119109Y140907D02*
X117021Y140907D01*
X113552Y131509D02*
X110942Y131509D01*
X110942Y131508D02*
X110841Y131510D01*
X110740Y131516D01*
X110639Y131526D01*
X110539Y131539D01*
X110439Y131557D01*
X110340Y131578D01*
X110242Y131604D01*
X110145Y131633D01*
X110049Y131665D01*
X109955Y131702D01*
X109862Y131742D01*
X109770Y131786D01*
X109681Y131833D01*
X109593Y131884D01*
X109507Y131938D01*
X109424Y131995D01*
X109342Y132055D01*
X109264Y132119D01*
X109187Y132185D01*
X109114Y132255D01*
X109043Y132327D01*
X108975Y132402D01*
X108910Y132480D01*
X108848Y132560D01*
X108789Y132642D01*
X108733Y132727D01*
X108681Y132814D01*
X108632Y132902D01*
X108586Y132993D01*
X108545Y133085D01*
X108506Y133179D01*
X108472Y133274D01*
X108441Y133370D01*
X108414Y133468D01*
X108390Y133566D01*
X108371Y133666D01*
X108355Y133766D01*
X108343Y133866D01*
X108335Y133967D01*
X108331Y134068D01*
X108331Y134170D01*
X108335Y134271D01*
X108343Y134372D01*
X108355Y134472D01*
X108371Y134572D01*
X108390Y134672D01*
X108414Y134770D01*
X108441Y134868D01*
X108472Y134964D01*
X108506Y135059D01*
X108545Y135153D01*
X108586Y135245D01*
X108632Y135336D01*
X108681Y135425D01*
X108733Y135511D01*
X108789Y135596D01*
X108848Y135678D01*
X108910Y135758D01*
X108975Y135836D01*
X109043Y135911D01*
X109114Y135983D01*
X109187Y136053D01*
X109264Y136119D01*
X109342Y136183D01*
X109424Y136243D01*
X109507Y136300D01*
X109593Y136354D01*
X109681Y136405D01*
X109770Y136452D01*
X109862Y136496D01*
X109955Y136536D01*
X110049Y136573D01*
X110145Y136605D01*
X110242Y136634D01*
X110340Y136660D01*
X110439Y136681D01*
X110539Y136699D01*
X110639Y136712D01*
X110740Y136722D01*
X110841Y136728D01*
X110942Y136730D01*
X110419Y140907D02*
X113552Y140907D01*
X110419Y140906D02*
X110329Y140904D01*
X110240Y140898D01*
X110150Y140889D01*
X110061Y140875D01*
X109973Y140858D01*
X109886Y140837D01*
X109799Y140812D01*
X109714Y140783D01*
X109630Y140751D01*
X109548Y140716D01*
X109467Y140676D01*
X109388Y140634D01*
X109311Y140588D01*
X109236Y140538D01*
X109163Y140486D01*
X109092Y140430D01*
X109024Y140372D01*
X108959Y140310D01*
X108896Y140246D01*
X108836Y140179D01*
X108779Y140110D01*
X108725Y140038D01*
X108674Y139964D01*
X108626Y139888D01*
X108582Y139810D01*
X108541Y139730D01*
X108503Y139648D01*
X108469Y139565D01*
X108439Y139480D01*
X108412Y139394D01*
X108389Y139308D01*
X108370Y139220D01*
X108355Y139131D01*
X108343Y139042D01*
X108335Y138953D01*
X108331Y138863D01*
X108331Y138773D01*
X108335Y138683D01*
X108343Y138594D01*
X108355Y138505D01*
X108370Y138416D01*
X108389Y138328D01*
X108412Y138242D01*
X108439Y138156D01*
X108469Y138071D01*
X108503Y137988D01*
X108541Y137906D01*
X108582Y137826D01*
X108626Y137748D01*
X108674Y137672D01*
X108725Y137598D01*
X108779Y137526D01*
X108836Y137457D01*
X108896Y137390D01*
X108959Y137326D01*
X109024Y137264D01*
X109092Y137206D01*
X109163Y137150D01*
X109236Y137098D01*
X109311Y137048D01*
X109388Y137002D01*
X109467Y136960D01*
X109548Y136920D01*
X109630Y136885D01*
X109714Y136853D01*
X109799Y136824D01*
X109886Y136799D01*
X109973Y136778D01*
X110061Y136761D01*
X110150Y136747D01*
X110240Y136738D01*
X110329Y136732D01*
X110419Y136730D01*
X112508Y136730D01*
D119*
X81445Y129235D02*
X81445Y109106D01*
D118*
X96383Y96584D02*
X98472Y96584D01*
X98561Y96586D01*
X98649Y96592D01*
X98737Y96601D01*
X98825Y96614D01*
X98912Y96631D01*
X98998Y96651D01*
X99083Y96676D01*
X99168Y96703D01*
X99251Y96735D01*
X99332Y96769D01*
X99412Y96808D01*
X99490Y96849D01*
X99567Y96894D01*
X99641Y96942D01*
X99714Y96993D01*
X99784Y97047D01*
X99851Y97105D01*
X99917Y97165D01*
X99979Y97227D01*
X100039Y97293D01*
X100097Y97360D01*
X100151Y97430D01*
X100202Y97503D01*
X100250Y97577D01*
X100295Y97654D01*
X100336Y97732D01*
X100375Y97812D01*
X100409Y97893D01*
X100441Y97976D01*
X100468Y98061D01*
X100493Y98146D01*
X100513Y98232D01*
X100530Y98319D01*
X100543Y98407D01*
X100552Y98495D01*
X100558Y98583D01*
X100560Y98672D01*
X100560Y103893D01*
X100558Y103982D01*
X100552Y104070D01*
X100543Y104158D01*
X100530Y104246D01*
X100513Y104333D01*
X100493Y104419D01*
X100468Y104504D01*
X100441Y104589D01*
X100409Y104672D01*
X100375Y104753D01*
X100336Y104833D01*
X100295Y104911D01*
X100250Y104988D01*
X100202Y105062D01*
X100151Y105135D01*
X100097Y105205D01*
X100039Y105272D01*
X99979Y105338D01*
X99917Y105400D01*
X99851Y105460D01*
X99784Y105518D01*
X99714Y105572D01*
X99641Y105623D01*
X99567Y105671D01*
X99490Y105716D01*
X99412Y105757D01*
X99332Y105796D01*
X99251Y105830D01*
X99168Y105862D01*
X99083Y105889D01*
X98998Y105914D01*
X98912Y105934D01*
X98825Y105951D01*
X98737Y105964D01*
X98649Y105973D01*
X98561Y105979D01*
X98472Y105981D01*
X98472Y105982D02*
X96383Y105982D01*
X90826Y105982D02*
X92915Y98672D01*
X87694Y98672D01*
X89260Y100760D02*
X89260Y96584D01*
X54356Y267582D02*
X54356Y269670D01*
X54356Y267582D02*
X54358Y267493D01*
X54364Y267405D01*
X54373Y267317D01*
X54386Y267229D01*
X54403Y267142D01*
X54423Y267056D01*
X54448Y266971D01*
X54475Y266886D01*
X54507Y266803D01*
X54541Y266722D01*
X54580Y266642D01*
X54621Y266564D01*
X54666Y266487D01*
X54714Y266413D01*
X54765Y266340D01*
X54819Y266270D01*
X54877Y266203D01*
X54937Y266137D01*
X54999Y266075D01*
X55065Y266015D01*
X55132Y265957D01*
X55202Y265903D01*
X55275Y265852D01*
X55349Y265804D01*
X55426Y265759D01*
X55504Y265718D01*
X55584Y265679D01*
X55665Y265645D01*
X55748Y265613D01*
X55833Y265586D01*
X55918Y265561D01*
X56004Y265541D01*
X56091Y265524D01*
X56179Y265511D01*
X56267Y265502D01*
X56355Y265496D01*
X56444Y265494D01*
X61666Y265494D01*
X61757Y265496D01*
X61848Y265502D01*
X61939Y265512D01*
X62029Y265526D01*
X62118Y265543D01*
X62206Y265565D01*
X62294Y265591D01*
X62380Y265620D01*
X62465Y265653D01*
X62548Y265690D01*
X62630Y265730D01*
X62710Y265774D01*
X62788Y265821D01*
X62864Y265872D01*
X62937Y265925D01*
X63008Y265982D01*
X63077Y266043D01*
X63142Y266106D01*
X63205Y266171D01*
X63265Y266240D01*
X63323Y266311D01*
X63376Y266384D01*
X63427Y266460D01*
X63474Y266538D01*
X63518Y266618D01*
X63558Y266700D01*
X63595Y266783D01*
X63628Y266868D01*
X63657Y266954D01*
X63683Y267042D01*
X63705Y267130D01*
X63722Y267219D01*
X63736Y267309D01*
X63746Y267400D01*
X63752Y267491D01*
X63754Y267582D01*
X63754Y269670D01*
X54356Y273139D02*
X54356Y276272D01*
X54358Y276361D01*
X54364Y276449D01*
X54373Y276537D01*
X54386Y276625D01*
X54403Y276712D01*
X54423Y276798D01*
X54448Y276883D01*
X54475Y276968D01*
X54507Y277051D01*
X54541Y277132D01*
X54580Y277212D01*
X54621Y277290D01*
X54666Y277367D01*
X54714Y277441D01*
X54765Y277514D01*
X54819Y277584D01*
X54877Y277651D01*
X54937Y277717D01*
X54999Y277779D01*
X55065Y277839D01*
X55132Y277897D01*
X55202Y277951D01*
X55275Y278002D01*
X55349Y278050D01*
X55426Y278095D01*
X55504Y278136D01*
X55584Y278175D01*
X55665Y278209D01*
X55748Y278241D01*
X55833Y278268D01*
X55918Y278293D01*
X56004Y278313D01*
X56091Y278330D01*
X56179Y278343D01*
X56267Y278352D01*
X56355Y278358D01*
X56444Y278360D01*
X57489Y278360D01*
X57578Y278358D01*
X57666Y278352D01*
X57754Y278343D01*
X57842Y278330D01*
X57929Y278313D01*
X58015Y278293D01*
X58100Y278268D01*
X58185Y278241D01*
X58268Y278209D01*
X58349Y278175D01*
X58429Y278136D01*
X58507Y278095D01*
X58584Y278050D01*
X58658Y278002D01*
X58731Y277951D01*
X58801Y277897D01*
X58868Y277839D01*
X58934Y277779D01*
X58996Y277717D01*
X59056Y277651D01*
X59114Y277584D01*
X59168Y277514D01*
X59219Y277441D01*
X59267Y277367D01*
X59312Y277290D01*
X59353Y277212D01*
X59392Y277132D01*
X59426Y277051D01*
X59458Y276968D01*
X59485Y276883D01*
X59510Y276798D01*
X59530Y276712D01*
X59547Y276625D01*
X59560Y276537D01*
X59569Y276449D01*
X59575Y276361D01*
X59577Y276272D01*
X59577Y273139D01*
X63754Y273139D01*
X63754Y278360D01*
X184531Y129970D02*
X184531Y127882D01*
X184533Y127793D01*
X184539Y127705D01*
X184548Y127617D01*
X184561Y127529D01*
X184578Y127442D01*
X184598Y127356D01*
X184623Y127271D01*
X184650Y127186D01*
X184682Y127103D01*
X184716Y127022D01*
X184755Y126942D01*
X184796Y126864D01*
X184841Y126787D01*
X184889Y126713D01*
X184940Y126640D01*
X184994Y126570D01*
X185052Y126503D01*
X185112Y126437D01*
X185174Y126375D01*
X185240Y126315D01*
X185307Y126257D01*
X185377Y126203D01*
X185450Y126152D01*
X185524Y126104D01*
X185601Y126059D01*
X185679Y126018D01*
X185759Y125979D01*
X185840Y125945D01*
X185923Y125913D01*
X186008Y125886D01*
X186093Y125861D01*
X186179Y125841D01*
X186266Y125824D01*
X186354Y125811D01*
X186442Y125802D01*
X186530Y125796D01*
X186619Y125794D01*
X191841Y125794D01*
X191932Y125796D01*
X192023Y125802D01*
X192114Y125812D01*
X192204Y125826D01*
X192293Y125843D01*
X192381Y125865D01*
X192469Y125891D01*
X192555Y125920D01*
X192640Y125953D01*
X192723Y125990D01*
X192805Y126030D01*
X192885Y126074D01*
X192963Y126121D01*
X193039Y126172D01*
X193112Y126225D01*
X193183Y126282D01*
X193252Y126343D01*
X193317Y126406D01*
X193380Y126471D01*
X193440Y126540D01*
X193498Y126611D01*
X193551Y126684D01*
X193602Y126760D01*
X193649Y126838D01*
X193693Y126918D01*
X193733Y127000D01*
X193770Y127083D01*
X193803Y127168D01*
X193832Y127254D01*
X193858Y127342D01*
X193880Y127430D01*
X193897Y127519D01*
X193911Y127609D01*
X193921Y127700D01*
X193927Y127791D01*
X193929Y127882D01*
X193929Y129970D01*
X189752Y133439D02*
X189752Y136572D01*
X189750Y136661D01*
X189744Y136749D01*
X189735Y136837D01*
X189722Y136925D01*
X189705Y137012D01*
X189685Y137098D01*
X189660Y137183D01*
X189633Y137268D01*
X189601Y137351D01*
X189567Y137432D01*
X189528Y137512D01*
X189487Y137590D01*
X189442Y137667D01*
X189394Y137741D01*
X189343Y137814D01*
X189289Y137884D01*
X189231Y137951D01*
X189171Y138017D01*
X189109Y138079D01*
X189043Y138139D01*
X188976Y138197D01*
X188906Y138251D01*
X188833Y138302D01*
X188759Y138350D01*
X188682Y138395D01*
X188604Y138436D01*
X188524Y138475D01*
X188443Y138509D01*
X188360Y138541D01*
X188275Y138568D01*
X188190Y138593D01*
X188104Y138613D01*
X188017Y138630D01*
X187929Y138643D01*
X187841Y138652D01*
X187753Y138658D01*
X187664Y138660D01*
X187142Y138660D01*
X187142Y138661D02*
X187041Y138659D01*
X186940Y138653D01*
X186839Y138643D01*
X186739Y138630D01*
X186639Y138612D01*
X186540Y138591D01*
X186442Y138565D01*
X186345Y138536D01*
X186249Y138504D01*
X186155Y138467D01*
X186062Y138427D01*
X185970Y138383D01*
X185881Y138336D01*
X185793Y138285D01*
X185707Y138231D01*
X185624Y138174D01*
X185542Y138114D01*
X185464Y138050D01*
X185387Y137984D01*
X185314Y137914D01*
X185243Y137842D01*
X185175Y137767D01*
X185110Y137689D01*
X185048Y137609D01*
X184989Y137527D01*
X184933Y137442D01*
X184881Y137356D01*
X184832Y137267D01*
X184786Y137176D01*
X184745Y137084D01*
X184706Y136990D01*
X184672Y136895D01*
X184641Y136799D01*
X184614Y136701D01*
X184590Y136603D01*
X184571Y136503D01*
X184555Y136403D01*
X184543Y136303D01*
X184535Y136202D01*
X184531Y136101D01*
X184531Y135999D01*
X184535Y135898D01*
X184543Y135797D01*
X184555Y135697D01*
X184571Y135597D01*
X184590Y135497D01*
X184614Y135399D01*
X184641Y135301D01*
X184672Y135205D01*
X184706Y135110D01*
X184745Y135016D01*
X184786Y134924D01*
X184832Y134833D01*
X184881Y134745D01*
X184933Y134658D01*
X184989Y134573D01*
X185048Y134491D01*
X185110Y134411D01*
X185175Y134333D01*
X185243Y134258D01*
X185314Y134186D01*
X185387Y134116D01*
X185464Y134050D01*
X185542Y133986D01*
X185624Y133926D01*
X185707Y133869D01*
X185793Y133815D01*
X185881Y133764D01*
X185970Y133717D01*
X186062Y133673D01*
X186155Y133633D01*
X186249Y133596D01*
X186345Y133564D01*
X186442Y133535D01*
X186540Y133509D01*
X186639Y133488D01*
X186739Y133470D01*
X186839Y133457D01*
X186940Y133447D01*
X187041Y133441D01*
X187142Y133439D01*
X189752Y133439D01*
X189881Y133441D01*
X190009Y133447D01*
X190137Y133457D01*
X190265Y133471D01*
X190393Y133488D01*
X190520Y133510D01*
X190646Y133536D01*
X190771Y133565D01*
X190895Y133598D01*
X191018Y133636D01*
X191140Y133676D01*
X191261Y133721D01*
X191380Y133769D01*
X191498Y133821D01*
X191614Y133877D01*
X191728Y133936D01*
X191840Y133999D01*
X191951Y134065D01*
X192059Y134134D01*
X192165Y134207D01*
X192269Y134283D01*
X192371Y134362D01*
X192470Y134444D01*
X192566Y134529D01*
X192660Y134617D01*
X192751Y134708D01*
X192839Y134802D01*
X192924Y134898D01*
X193006Y134997D01*
X193085Y135099D01*
X193161Y135203D01*
X193234Y135309D01*
X193303Y135417D01*
X193369Y135527D01*
X193432Y135640D01*
X193491Y135754D01*
X193547Y135870D01*
X193599Y135988D01*
X193647Y136107D01*
X193692Y136228D01*
X193732Y136350D01*
X193770Y136473D01*
X193803Y136597D01*
X193832Y136722D01*
X193858Y136848D01*
X193880Y136975D01*
X193897Y137103D01*
X193911Y137231D01*
X193921Y137359D01*
X193927Y137487D01*
X193929Y137616D01*
X126118Y327406D02*
X124030Y327406D01*
X126118Y327406D02*
X126207Y327408D01*
X126295Y327414D01*
X126383Y327423D01*
X126471Y327436D01*
X126558Y327453D01*
X126644Y327473D01*
X126729Y327498D01*
X126814Y327525D01*
X126897Y327557D01*
X126978Y327591D01*
X127058Y327630D01*
X127136Y327671D01*
X127213Y327716D01*
X127287Y327764D01*
X127360Y327815D01*
X127430Y327869D01*
X127497Y327927D01*
X127563Y327987D01*
X127625Y328049D01*
X127685Y328115D01*
X127743Y328182D01*
X127797Y328252D01*
X127848Y328325D01*
X127896Y328399D01*
X127941Y328476D01*
X127982Y328554D01*
X128021Y328634D01*
X128055Y328715D01*
X128087Y328798D01*
X128114Y328883D01*
X128139Y328968D01*
X128159Y329054D01*
X128176Y329141D01*
X128189Y329229D01*
X128198Y329317D01*
X128204Y329405D01*
X128206Y329494D01*
X128207Y329494D02*
X128207Y334716D01*
X128206Y334716D02*
X128204Y334805D01*
X128198Y334893D01*
X128189Y334981D01*
X128176Y335069D01*
X128159Y335156D01*
X128139Y335242D01*
X128114Y335327D01*
X128087Y335412D01*
X128055Y335495D01*
X128021Y335576D01*
X127982Y335656D01*
X127941Y335734D01*
X127896Y335811D01*
X127848Y335885D01*
X127797Y335958D01*
X127743Y336028D01*
X127685Y336095D01*
X127625Y336161D01*
X127563Y336223D01*
X127497Y336283D01*
X127430Y336341D01*
X127360Y336395D01*
X127287Y336446D01*
X127213Y336494D01*
X127136Y336539D01*
X127058Y336580D01*
X126978Y336619D01*
X126897Y336653D01*
X126814Y336685D01*
X126729Y336712D01*
X126644Y336737D01*
X126558Y336757D01*
X126471Y336774D01*
X126383Y336787D01*
X126295Y336796D01*
X126207Y336802D01*
X126118Y336804D01*
X124030Y336804D01*
X120561Y330017D02*
X120559Y330118D01*
X120553Y330219D01*
X120543Y330320D01*
X120530Y330420D01*
X120512Y330520D01*
X120491Y330619D01*
X120465Y330717D01*
X120436Y330814D01*
X120404Y330910D01*
X120367Y331004D01*
X120327Y331097D01*
X120283Y331189D01*
X120236Y331278D01*
X120185Y331366D01*
X120131Y331452D01*
X120074Y331535D01*
X120014Y331617D01*
X119950Y331695D01*
X119884Y331772D01*
X119814Y331845D01*
X119742Y331916D01*
X119667Y331984D01*
X119589Y332049D01*
X119509Y332111D01*
X119427Y332170D01*
X119342Y332226D01*
X119256Y332278D01*
X119167Y332327D01*
X119076Y332373D01*
X118984Y332414D01*
X118890Y332453D01*
X118795Y332487D01*
X118699Y332518D01*
X118601Y332545D01*
X118503Y332569D01*
X118403Y332588D01*
X118303Y332604D01*
X118203Y332616D01*
X118102Y332624D01*
X118001Y332628D01*
X117899Y332628D01*
X117798Y332624D01*
X117697Y332616D01*
X117597Y332604D01*
X117497Y332588D01*
X117397Y332569D01*
X117299Y332545D01*
X117201Y332518D01*
X117105Y332487D01*
X117010Y332453D01*
X116916Y332414D01*
X116824Y332373D01*
X116733Y332327D01*
X116645Y332278D01*
X116558Y332226D01*
X116473Y332170D01*
X116391Y332111D01*
X116311Y332049D01*
X116233Y331984D01*
X116158Y331916D01*
X116086Y331845D01*
X116016Y331772D01*
X115950Y331695D01*
X115886Y331617D01*
X115826Y331535D01*
X115769Y331452D01*
X115715Y331366D01*
X115664Y331278D01*
X115617Y331189D01*
X115573Y331097D01*
X115533Y331004D01*
X115496Y330910D01*
X115464Y330814D01*
X115435Y330717D01*
X115409Y330619D01*
X115388Y330520D01*
X115370Y330420D01*
X115357Y330320D01*
X115347Y330219D01*
X115341Y330118D01*
X115339Y330017D01*
X115341Y329916D01*
X115347Y329815D01*
X115357Y329714D01*
X115370Y329614D01*
X115388Y329514D01*
X115409Y329415D01*
X115435Y329317D01*
X115464Y329220D01*
X115496Y329124D01*
X115533Y329030D01*
X115573Y328937D01*
X115617Y328845D01*
X115664Y328756D01*
X115715Y328668D01*
X115769Y328582D01*
X115826Y328499D01*
X115886Y328417D01*
X115950Y328339D01*
X116016Y328262D01*
X116086Y328189D01*
X116158Y328118D01*
X116233Y328050D01*
X116311Y327985D01*
X116391Y327923D01*
X116473Y327864D01*
X116558Y327808D01*
X116645Y327756D01*
X116733Y327707D01*
X116824Y327661D01*
X116916Y327620D01*
X117010Y327581D01*
X117105Y327547D01*
X117201Y327516D01*
X117299Y327489D01*
X117397Y327465D01*
X117497Y327446D01*
X117597Y327430D01*
X117697Y327418D01*
X117798Y327410D01*
X117899Y327406D01*
X118001Y327406D01*
X118102Y327410D01*
X118203Y327418D01*
X118303Y327430D01*
X118403Y327446D01*
X118503Y327465D01*
X118601Y327489D01*
X118699Y327516D01*
X118795Y327547D01*
X118890Y327581D01*
X118984Y327620D01*
X119076Y327661D01*
X119167Y327707D01*
X119255Y327756D01*
X119342Y327808D01*
X119427Y327864D01*
X119509Y327923D01*
X119589Y327985D01*
X119667Y328050D01*
X119742Y328118D01*
X119814Y328189D01*
X119884Y328262D01*
X119950Y328339D01*
X120014Y328417D01*
X120074Y328499D01*
X120131Y328582D01*
X120185Y328668D01*
X120236Y328756D01*
X120283Y328845D01*
X120327Y328937D01*
X120367Y329030D01*
X120404Y329124D01*
X120436Y329220D01*
X120465Y329317D01*
X120491Y329415D01*
X120512Y329514D01*
X120530Y329614D01*
X120543Y329714D01*
X120553Y329815D01*
X120559Y329916D01*
X120561Y330017D01*
X120038Y334716D02*
X120036Y334806D01*
X120030Y334895D01*
X120021Y334985D01*
X120007Y335074D01*
X119990Y335162D01*
X119969Y335249D01*
X119944Y335336D01*
X119915Y335421D01*
X119883Y335505D01*
X119848Y335587D01*
X119808Y335668D01*
X119766Y335747D01*
X119720Y335824D01*
X119670Y335899D01*
X119618Y335972D01*
X119562Y336043D01*
X119504Y336111D01*
X119442Y336176D01*
X119378Y336239D01*
X119311Y336299D01*
X119242Y336356D01*
X119170Y336410D01*
X119096Y336461D01*
X119020Y336509D01*
X118942Y336553D01*
X118862Y336594D01*
X118780Y336632D01*
X118697Y336666D01*
X118612Y336696D01*
X118526Y336723D01*
X118440Y336746D01*
X118352Y336765D01*
X118263Y336780D01*
X118174Y336792D01*
X118085Y336800D01*
X117995Y336804D01*
X117905Y336804D01*
X117815Y336800D01*
X117726Y336792D01*
X117637Y336780D01*
X117548Y336765D01*
X117460Y336746D01*
X117374Y336723D01*
X117288Y336696D01*
X117203Y336666D01*
X117120Y336632D01*
X117038Y336594D01*
X116958Y336553D01*
X116880Y336509D01*
X116804Y336461D01*
X116730Y336410D01*
X116658Y336356D01*
X116589Y336299D01*
X116522Y336239D01*
X116458Y336176D01*
X116396Y336111D01*
X116338Y336043D01*
X116282Y335972D01*
X116230Y335899D01*
X116180Y335824D01*
X116134Y335747D01*
X116092Y335668D01*
X116052Y335587D01*
X116017Y335505D01*
X115985Y335421D01*
X115956Y335336D01*
X115931Y335249D01*
X115910Y335162D01*
X115893Y335074D01*
X115879Y334985D01*
X115870Y334895D01*
X115864Y334806D01*
X115862Y334716D01*
X115864Y334626D01*
X115870Y334537D01*
X115879Y334447D01*
X115893Y334358D01*
X115910Y334270D01*
X115931Y334183D01*
X115956Y334096D01*
X115985Y334011D01*
X116017Y333927D01*
X116052Y333845D01*
X116092Y333764D01*
X116134Y333685D01*
X116180Y333608D01*
X116230Y333533D01*
X116282Y333460D01*
X116338Y333389D01*
X116396Y333321D01*
X116458Y333256D01*
X116522Y333193D01*
X116589Y333133D01*
X116658Y333076D01*
X116730Y333022D01*
X116804Y332971D01*
X116880Y332923D01*
X116958Y332879D01*
X117038Y332838D01*
X117120Y332800D01*
X117203Y332766D01*
X117288Y332736D01*
X117374Y332709D01*
X117460Y332686D01*
X117548Y332667D01*
X117637Y332652D01*
X117726Y332640D01*
X117815Y332632D01*
X117905Y332628D01*
X117995Y332628D01*
X118085Y332632D01*
X118174Y332640D01*
X118263Y332652D01*
X118352Y332667D01*
X118440Y332686D01*
X118526Y332709D01*
X118612Y332736D01*
X118697Y332766D01*
X118780Y332800D01*
X118862Y332838D01*
X118942Y332879D01*
X119020Y332923D01*
X119096Y332971D01*
X119170Y333022D01*
X119242Y333076D01*
X119311Y333133D01*
X119378Y333193D01*
X119442Y333256D01*
X119504Y333321D01*
X119562Y333389D01*
X119618Y333460D01*
X119670Y333533D01*
X119720Y333608D01*
X119766Y333685D01*
X119808Y333764D01*
X119848Y333845D01*
X119883Y333927D01*
X119915Y334011D01*
X119944Y334096D01*
X119969Y334183D01*
X119990Y334270D01*
X120007Y334358D01*
X120021Y334447D01*
X120030Y334537D01*
X120036Y334626D01*
X120038Y334716D01*
X64206Y219456D02*
X62117Y219456D01*
X64206Y219456D02*
X64295Y219458D01*
X64383Y219464D01*
X64471Y219473D01*
X64559Y219486D01*
X64646Y219503D01*
X64732Y219523D01*
X64817Y219548D01*
X64902Y219575D01*
X64985Y219607D01*
X65066Y219641D01*
X65146Y219680D01*
X65224Y219721D01*
X65301Y219766D01*
X65375Y219814D01*
X65448Y219865D01*
X65518Y219919D01*
X65585Y219977D01*
X65651Y220037D01*
X65713Y220099D01*
X65773Y220165D01*
X65831Y220232D01*
X65885Y220302D01*
X65936Y220375D01*
X65984Y220449D01*
X66029Y220526D01*
X66070Y220604D01*
X66109Y220684D01*
X66143Y220765D01*
X66175Y220848D01*
X66202Y220933D01*
X66227Y221018D01*
X66247Y221104D01*
X66264Y221191D01*
X66277Y221279D01*
X66286Y221367D01*
X66292Y221455D01*
X66294Y221544D01*
X66294Y226766D01*
X66292Y226855D01*
X66286Y226943D01*
X66277Y227031D01*
X66264Y227119D01*
X66247Y227206D01*
X66227Y227292D01*
X66202Y227377D01*
X66175Y227462D01*
X66143Y227545D01*
X66109Y227626D01*
X66070Y227706D01*
X66029Y227784D01*
X65984Y227861D01*
X65936Y227935D01*
X65885Y228008D01*
X65831Y228078D01*
X65773Y228145D01*
X65713Y228211D01*
X65651Y228273D01*
X65585Y228333D01*
X65518Y228391D01*
X65448Y228445D01*
X65375Y228496D01*
X65301Y228544D01*
X65224Y228589D01*
X65146Y228630D01*
X65066Y228669D01*
X64985Y228703D01*
X64902Y228735D01*
X64817Y228762D01*
X64732Y228787D01*
X64646Y228807D01*
X64559Y228824D01*
X64471Y228837D01*
X64383Y228846D01*
X64295Y228852D01*
X64206Y228854D01*
X62117Y228854D01*
X56560Y223633D02*
X53427Y223633D01*
X56560Y223633D02*
X56649Y223635D01*
X56737Y223641D01*
X56825Y223650D01*
X56913Y223663D01*
X57000Y223680D01*
X57086Y223700D01*
X57171Y223725D01*
X57256Y223752D01*
X57339Y223784D01*
X57420Y223818D01*
X57500Y223857D01*
X57578Y223898D01*
X57655Y223943D01*
X57729Y223991D01*
X57802Y224042D01*
X57872Y224096D01*
X57939Y224154D01*
X58005Y224214D01*
X58067Y224276D01*
X58127Y224342D01*
X58185Y224409D01*
X58239Y224479D01*
X58290Y224552D01*
X58338Y224626D01*
X58383Y224703D01*
X58424Y224781D01*
X58463Y224861D01*
X58497Y224942D01*
X58529Y225025D01*
X58556Y225110D01*
X58581Y225195D01*
X58601Y225281D01*
X58618Y225368D01*
X58631Y225456D01*
X58640Y225544D01*
X58646Y225632D01*
X58648Y225721D01*
X58648Y226243D01*
X58649Y226243D02*
X58647Y226344D01*
X58641Y226445D01*
X58631Y226546D01*
X58618Y226646D01*
X58600Y226746D01*
X58579Y226845D01*
X58553Y226943D01*
X58524Y227040D01*
X58492Y227136D01*
X58455Y227230D01*
X58415Y227323D01*
X58371Y227415D01*
X58324Y227504D01*
X58273Y227592D01*
X58219Y227678D01*
X58162Y227761D01*
X58102Y227843D01*
X58038Y227921D01*
X57972Y227998D01*
X57902Y228071D01*
X57830Y228142D01*
X57755Y228210D01*
X57677Y228275D01*
X57597Y228337D01*
X57515Y228396D01*
X57430Y228452D01*
X57344Y228504D01*
X57255Y228553D01*
X57164Y228599D01*
X57072Y228640D01*
X56978Y228679D01*
X56883Y228713D01*
X56787Y228744D01*
X56689Y228771D01*
X56591Y228795D01*
X56491Y228814D01*
X56391Y228830D01*
X56291Y228842D01*
X56190Y228850D01*
X56089Y228854D01*
X55987Y228854D01*
X55886Y228850D01*
X55785Y228842D01*
X55685Y228830D01*
X55585Y228814D01*
X55485Y228795D01*
X55387Y228771D01*
X55289Y228744D01*
X55193Y228713D01*
X55098Y228679D01*
X55004Y228640D01*
X54912Y228599D01*
X54821Y228553D01*
X54733Y228504D01*
X54646Y228452D01*
X54561Y228396D01*
X54479Y228337D01*
X54399Y228275D01*
X54321Y228210D01*
X54246Y228142D01*
X54174Y228071D01*
X54104Y227998D01*
X54038Y227921D01*
X53974Y227843D01*
X53914Y227761D01*
X53857Y227678D01*
X53803Y227592D01*
X53752Y227504D01*
X53705Y227415D01*
X53661Y227323D01*
X53621Y227230D01*
X53584Y227136D01*
X53552Y227040D01*
X53523Y226943D01*
X53497Y226845D01*
X53476Y226746D01*
X53458Y226646D01*
X53445Y226546D01*
X53435Y226445D01*
X53429Y226344D01*
X53427Y226243D01*
X53427Y223633D01*
X53429Y223507D01*
X53435Y223381D01*
X53444Y223255D01*
X53457Y223130D01*
X53475Y223005D01*
X53495Y222880D01*
X53520Y222756D01*
X53548Y222633D01*
X53580Y222511D01*
X53616Y222390D01*
X53655Y222270D01*
X53698Y222152D01*
X53745Y222035D01*
X53795Y221919D01*
X53849Y221804D01*
X53905Y221692D01*
X53966Y221581D01*
X54029Y221472D01*
X54096Y221365D01*
X54166Y221260D01*
X54240Y221157D01*
X54316Y221057D01*
X54395Y220959D01*
X54477Y220863D01*
X54563Y220770D01*
X54650Y220679D01*
X54741Y220592D01*
X54834Y220506D01*
X54930Y220424D01*
X55028Y220345D01*
X55128Y220269D01*
X55231Y220195D01*
X55336Y220125D01*
X55443Y220058D01*
X55552Y219995D01*
X55663Y219934D01*
X55775Y219878D01*
X55890Y219824D01*
X56006Y219774D01*
X56123Y219727D01*
X56241Y219684D01*
X56361Y219645D01*
X56482Y219609D01*
X56604Y219577D01*
X56727Y219549D01*
X56851Y219524D01*
X56976Y219504D01*
X57101Y219486D01*
X57226Y219473D01*
X57352Y219464D01*
X57478Y219458D01*
X57604Y219456D01*
X174244Y324231D02*
X174244Y333629D01*
X170067Y333629D01*
X170067Y329452D02*
X174244Y329452D01*
X166206Y329452D02*
X163595Y329452D01*
X163595Y329453D02*
X163494Y329451D01*
X163393Y329445D01*
X163292Y329435D01*
X163192Y329422D01*
X163092Y329404D01*
X162993Y329383D01*
X162895Y329357D01*
X162798Y329328D01*
X162702Y329296D01*
X162608Y329259D01*
X162515Y329219D01*
X162423Y329175D01*
X162334Y329128D01*
X162246Y329077D01*
X162160Y329023D01*
X162077Y328966D01*
X161995Y328906D01*
X161917Y328842D01*
X161840Y328776D01*
X161767Y328706D01*
X161696Y328634D01*
X161628Y328559D01*
X161563Y328481D01*
X161501Y328401D01*
X161442Y328319D01*
X161386Y328234D01*
X161334Y328148D01*
X161285Y328059D01*
X161239Y327968D01*
X161198Y327876D01*
X161159Y327782D01*
X161125Y327687D01*
X161094Y327591D01*
X161067Y327493D01*
X161043Y327395D01*
X161024Y327295D01*
X161008Y327195D01*
X160996Y327095D01*
X160988Y326994D01*
X160984Y326893D01*
X160984Y326791D01*
X160988Y326690D01*
X160996Y326589D01*
X161008Y326489D01*
X161024Y326389D01*
X161043Y326289D01*
X161067Y326191D01*
X161094Y326093D01*
X161125Y325997D01*
X161159Y325902D01*
X161198Y325808D01*
X161239Y325716D01*
X161285Y325625D01*
X161334Y325537D01*
X161386Y325450D01*
X161442Y325365D01*
X161501Y325283D01*
X161563Y325203D01*
X161628Y325125D01*
X161696Y325050D01*
X161767Y324978D01*
X161840Y324908D01*
X161917Y324842D01*
X161995Y324778D01*
X162077Y324718D01*
X162160Y324661D01*
X162246Y324607D01*
X162334Y324556D01*
X162423Y324509D01*
X162515Y324465D01*
X162608Y324425D01*
X162702Y324388D01*
X162798Y324356D01*
X162895Y324327D01*
X162993Y324301D01*
X163092Y324280D01*
X163192Y324262D01*
X163292Y324249D01*
X163393Y324239D01*
X163494Y324233D01*
X163595Y324231D01*
X166206Y324231D01*
X166206Y333629D01*
X163595Y333629D01*
X163505Y333627D01*
X163416Y333621D01*
X163326Y333612D01*
X163237Y333598D01*
X163149Y333581D01*
X163062Y333560D01*
X162975Y333535D01*
X162890Y333506D01*
X162806Y333474D01*
X162724Y333439D01*
X162643Y333399D01*
X162564Y333357D01*
X162487Y333311D01*
X162412Y333261D01*
X162339Y333209D01*
X162268Y333153D01*
X162200Y333095D01*
X162135Y333033D01*
X162072Y332969D01*
X162012Y332902D01*
X161955Y332833D01*
X161901Y332761D01*
X161850Y332687D01*
X161802Y332611D01*
X161758Y332533D01*
X161717Y332453D01*
X161679Y332371D01*
X161645Y332288D01*
X161615Y332203D01*
X161588Y332117D01*
X161565Y332031D01*
X161546Y331943D01*
X161531Y331854D01*
X161519Y331765D01*
X161511Y331676D01*
X161507Y331586D01*
X161507Y331496D01*
X161511Y331406D01*
X161519Y331317D01*
X161531Y331228D01*
X161546Y331139D01*
X161565Y331051D01*
X161588Y330965D01*
X161615Y330879D01*
X161645Y330794D01*
X161679Y330711D01*
X161717Y330629D01*
X161758Y330549D01*
X161802Y330471D01*
X161850Y330395D01*
X161901Y330321D01*
X161955Y330249D01*
X162012Y330180D01*
X162072Y330113D01*
X162135Y330049D01*
X162200Y329987D01*
X162268Y329929D01*
X162339Y329873D01*
X162412Y329821D01*
X162487Y329771D01*
X162564Y329725D01*
X162643Y329683D01*
X162724Y329643D01*
X162806Y329608D01*
X162890Y329576D01*
X162975Y329547D01*
X163062Y329522D01*
X163149Y329501D01*
X163237Y329484D01*
X163326Y329470D01*
X163416Y329461D01*
X163505Y329455D01*
X163595Y329453D01*
X157498Y331541D02*
X154887Y333629D01*
X154887Y324231D01*
X157498Y324231D02*
X152276Y324231D01*
X104610Y300805D02*
X104610Y291407D01*
X104610Y300805D02*
X102000Y300805D01*
X101899Y300803D01*
X101798Y300797D01*
X101697Y300787D01*
X101597Y300774D01*
X101497Y300756D01*
X101398Y300735D01*
X101300Y300709D01*
X101203Y300680D01*
X101107Y300648D01*
X101013Y300611D01*
X100920Y300571D01*
X100828Y300527D01*
X100739Y300480D01*
X100651Y300429D01*
X100565Y300375D01*
X100482Y300318D01*
X100400Y300258D01*
X100322Y300194D01*
X100245Y300128D01*
X100172Y300058D01*
X100101Y299986D01*
X100033Y299911D01*
X99968Y299833D01*
X99906Y299753D01*
X99847Y299671D01*
X99791Y299586D01*
X99739Y299500D01*
X99690Y299411D01*
X99644Y299320D01*
X99603Y299228D01*
X99564Y299134D01*
X99530Y299039D01*
X99499Y298943D01*
X99472Y298845D01*
X99448Y298747D01*
X99429Y298647D01*
X99413Y298547D01*
X99401Y298447D01*
X99393Y298346D01*
X99389Y298245D01*
X99389Y298143D01*
X99393Y298042D01*
X99401Y297941D01*
X99413Y297841D01*
X99429Y297741D01*
X99448Y297641D01*
X99472Y297543D01*
X99499Y297445D01*
X99530Y297349D01*
X99564Y297254D01*
X99603Y297160D01*
X99644Y297068D01*
X99690Y296977D01*
X99739Y296889D01*
X99791Y296802D01*
X99847Y296717D01*
X99906Y296635D01*
X99968Y296555D01*
X100033Y296477D01*
X100101Y296402D01*
X100172Y296330D01*
X100245Y296260D01*
X100322Y296194D01*
X100400Y296130D01*
X100482Y296070D01*
X100565Y296013D01*
X100651Y295959D01*
X100739Y295908D01*
X100828Y295861D01*
X100920Y295817D01*
X101013Y295777D01*
X101107Y295740D01*
X101203Y295708D01*
X101300Y295679D01*
X101398Y295653D01*
X101497Y295632D01*
X101597Y295614D01*
X101697Y295601D01*
X101798Y295591D01*
X101899Y295585D01*
X102000Y295583D01*
X104610Y295583D01*
X101477Y295583D02*
X99389Y291407D01*
X90302Y298455D02*
X90304Y298550D01*
X90310Y298644D01*
X90319Y298738D01*
X90332Y298832D01*
X90349Y298925D01*
X90370Y299017D01*
X90395Y299109D01*
X90423Y299199D01*
X90455Y299288D01*
X90490Y299376D01*
X90529Y299462D01*
X90571Y299547D01*
X90617Y299630D01*
X90666Y299711D01*
X90718Y299790D01*
X90773Y299867D01*
X90832Y299941D01*
X90893Y300013D01*
X90957Y300083D01*
X91024Y300150D01*
X91094Y300214D01*
X91166Y300275D01*
X91240Y300334D01*
X91317Y300389D01*
X91396Y300441D01*
X91477Y300490D01*
X91560Y300536D01*
X91645Y300578D01*
X91731Y300617D01*
X91819Y300652D01*
X91908Y300684D01*
X91998Y300712D01*
X92090Y300737D01*
X92182Y300758D01*
X92275Y300775D01*
X92369Y300788D01*
X92463Y300797D01*
X92557Y300803D01*
X92652Y300805D01*
X92652Y300804D02*
X92760Y300802D01*
X92869Y300796D01*
X92977Y300786D01*
X93084Y300773D01*
X93191Y300755D01*
X93298Y300734D01*
X93403Y300709D01*
X93508Y300680D01*
X93611Y300648D01*
X93713Y300611D01*
X93814Y300571D01*
X93913Y300528D01*
X94011Y300481D01*
X94107Y300430D01*
X94201Y300376D01*
X94293Y300319D01*
X94383Y300258D01*
X94471Y300194D01*
X94556Y300128D01*
X94639Y300058D01*
X94719Y299985D01*
X94797Y299909D01*
X94872Y299831D01*
X94944Y299750D01*
X95013Y299666D01*
X95079Y299580D01*
X95142Y299492D01*
X95201Y299401D01*
X95258Y299309D01*
X95311Y299214D01*
X95360Y299117D01*
X95406Y299019D01*
X95449Y298920D01*
X95488Y298818D01*
X95523Y298716D01*
X91085Y296627D02*
X91016Y296696D01*
X90950Y296767D01*
X90886Y296840D01*
X90825Y296916D01*
X90767Y296995D01*
X90713Y297075D01*
X90661Y297158D01*
X90613Y297242D01*
X90567Y297328D01*
X90526Y297416D01*
X90487Y297506D01*
X90452Y297597D01*
X90421Y297689D01*
X90393Y297782D01*
X90369Y297876D01*
X90349Y297971D01*
X90332Y298067D01*
X90319Y298164D01*
X90310Y298261D01*
X90304Y298358D01*
X90302Y298455D01*
X91085Y296628D02*
X95523Y291407D01*
X90302Y291407D01*
X24580Y212890D02*
X15182Y212890D01*
X24580Y212890D02*
X24580Y215500D01*
X24578Y215601D01*
X24572Y215702D01*
X24562Y215803D01*
X24549Y215903D01*
X24531Y216003D01*
X24510Y216102D01*
X24484Y216200D01*
X24455Y216297D01*
X24423Y216393D01*
X24386Y216487D01*
X24346Y216580D01*
X24302Y216672D01*
X24255Y216761D01*
X24204Y216849D01*
X24150Y216935D01*
X24093Y217018D01*
X24033Y217100D01*
X23969Y217178D01*
X23903Y217255D01*
X23833Y217328D01*
X23761Y217399D01*
X23686Y217467D01*
X23608Y217532D01*
X23528Y217594D01*
X23446Y217653D01*
X23361Y217709D01*
X23275Y217761D01*
X23186Y217810D01*
X23095Y217856D01*
X23003Y217897D01*
X22909Y217936D01*
X22814Y217970D01*
X22718Y218001D01*
X22620Y218028D01*
X22522Y218052D01*
X22422Y218071D01*
X22322Y218087D01*
X22222Y218099D01*
X22121Y218107D01*
X22020Y218111D01*
X21918Y218111D01*
X21817Y218107D01*
X21716Y218099D01*
X21616Y218087D01*
X21516Y218071D01*
X21416Y218052D01*
X21318Y218028D01*
X21220Y218001D01*
X21124Y217970D01*
X21029Y217936D01*
X20935Y217897D01*
X20843Y217856D01*
X20752Y217810D01*
X20664Y217761D01*
X20577Y217709D01*
X20492Y217653D01*
X20410Y217594D01*
X20330Y217532D01*
X20252Y217467D01*
X20177Y217399D01*
X20105Y217328D01*
X20035Y217255D01*
X19969Y217178D01*
X19905Y217100D01*
X19845Y217018D01*
X19788Y216935D01*
X19734Y216849D01*
X19683Y216761D01*
X19636Y216672D01*
X19592Y216580D01*
X19552Y216487D01*
X19515Y216393D01*
X19483Y216297D01*
X19454Y216200D01*
X19428Y216102D01*
X19407Y216003D01*
X19389Y215903D01*
X19376Y215803D01*
X19366Y215702D01*
X19360Y215601D01*
X19358Y215500D01*
X19358Y212890D01*
X19358Y216023D02*
X15182Y218111D01*
X15182Y221977D02*
X15182Y224587D01*
X15181Y224587D02*
X15183Y224688D01*
X15189Y224789D01*
X15199Y224890D01*
X15212Y224990D01*
X15230Y225090D01*
X15251Y225189D01*
X15277Y225287D01*
X15306Y225384D01*
X15338Y225480D01*
X15375Y225574D01*
X15415Y225667D01*
X15459Y225759D01*
X15506Y225848D01*
X15557Y225936D01*
X15611Y226022D01*
X15668Y226105D01*
X15728Y226187D01*
X15792Y226265D01*
X15858Y226342D01*
X15928Y226415D01*
X16000Y226486D01*
X16075Y226554D01*
X16153Y226619D01*
X16233Y226681D01*
X16315Y226740D01*
X16400Y226796D01*
X16487Y226848D01*
X16575Y226897D01*
X16666Y226943D01*
X16758Y226984D01*
X16852Y227023D01*
X16947Y227057D01*
X17043Y227088D01*
X17141Y227115D01*
X17239Y227139D01*
X17339Y227158D01*
X17439Y227174D01*
X17539Y227186D01*
X17640Y227194D01*
X17741Y227198D01*
X17843Y227198D01*
X17944Y227194D01*
X18045Y227186D01*
X18145Y227174D01*
X18245Y227158D01*
X18345Y227139D01*
X18443Y227115D01*
X18541Y227088D01*
X18637Y227057D01*
X18732Y227023D01*
X18826Y226984D01*
X18918Y226943D01*
X19009Y226897D01*
X19098Y226848D01*
X19184Y226796D01*
X19269Y226740D01*
X19351Y226681D01*
X19431Y226619D01*
X19509Y226554D01*
X19584Y226486D01*
X19656Y226415D01*
X19726Y226342D01*
X19792Y226265D01*
X19856Y226187D01*
X19916Y226105D01*
X19973Y226022D01*
X20027Y225936D01*
X20078Y225848D01*
X20125Y225759D01*
X20169Y225667D01*
X20209Y225574D01*
X20246Y225480D01*
X20278Y225384D01*
X20307Y225287D01*
X20333Y225189D01*
X20354Y225090D01*
X20372Y224990D01*
X20385Y224890D01*
X20395Y224789D01*
X20401Y224688D01*
X20403Y224587D01*
X24580Y225110D02*
X24580Y221977D01*
X24579Y225110D02*
X24577Y225200D01*
X24571Y225289D01*
X24562Y225379D01*
X24548Y225468D01*
X24531Y225556D01*
X24510Y225643D01*
X24485Y225730D01*
X24456Y225815D01*
X24424Y225899D01*
X24389Y225981D01*
X24349Y226062D01*
X24307Y226141D01*
X24261Y226218D01*
X24211Y226293D01*
X24159Y226366D01*
X24103Y226437D01*
X24045Y226505D01*
X23983Y226570D01*
X23919Y226633D01*
X23852Y226693D01*
X23783Y226750D01*
X23711Y226804D01*
X23637Y226855D01*
X23561Y226903D01*
X23483Y226947D01*
X23403Y226988D01*
X23321Y227026D01*
X23238Y227060D01*
X23153Y227090D01*
X23067Y227117D01*
X22981Y227140D01*
X22893Y227159D01*
X22804Y227174D01*
X22715Y227186D01*
X22626Y227194D01*
X22536Y227198D01*
X22446Y227198D01*
X22356Y227194D01*
X22267Y227186D01*
X22178Y227174D01*
X22089Y227159D01*
X22001Y227140D01*
X21915Y227117D01*
X21829Y227090D01*
X21744Y227060D01*
X21661Y227026D01*
X21579Y226988D01*
X21499Y226947D01*
X21421Y226903D01*
X21345Y226855D01*
X21271Y226804D01*
X21199Y226750D01*
X21130Y226693D01*
X21063Y226633D01*
X20999Y226570D01*
X20937Y226505D01*
X20879Y226437D01*
X20823Y226366D01*
X20771Y226293D01*
X20721Y226218D01*
X20675Y226141D01*
X20633Y226062D01*
X20593Y225981D01*
X20558Y225899D01*
X20526Y225815D01*
X20497Y225730D01*
X20472Y225643D01*
X20451Y225556D01*
X20434Y225468D01*
X20420Y225379D01*
X20411Y225289D01*
X20405Y225200D01*
X20403Y225110D01*
X20403Y223021D01*
D120*
X90170Y259715D02*
X125730Y259715D01*
X125730Y280035D01*
X90170Y280035D01*
X90170Y259715D01*
D118*
X82804Y273981D02*
X73406Y267716D01*
X73406Y273981D02*
X82804Y267716D01*
X80716Y277382D02*
X82804Y279993D01*
X73406Y279993D01*
X73406Y282603D02*
X73406Y277382D01*
X209822Y220325D02*
X209822Y216148D01*
X209822Y220325D02*
X209820Y220426D01*
X209814Y220527D01*
X209804Y220628D01*
X209791Y220728D01*
X209773Y220828D01*
X209752Y220927D01*
X209726Y221025D01*
X209697Y221122D01*
X209665Y221218D01*
X209628Y221312D01*
X209588Y221405D01*
X209544Y221497D01*
X209497Y221586D01*
X209446Y221674D01*
X209392Y221760D01*
X209335Y221843D01*
X209275Y221925D01*
X209211Y222003D01*
X209145Y222080D01*
X209075Y222153D01*
X209003Y222224D01*
X208928Y222292D01*
X208850Y222357D01*
X208770Y222419D01*
X208688Y222478D01*
X208603Y222534D01*
X208517Y222586D01*
X208428Y222635D01*
X208337Y222681D01*
X208245Y222722D01*
X208151Y222761D01*
X208056Y222795D01*
X207960Y222826D01*
X207862Y222853D01*
X207764Y222877D01*
X207664Y222896D01*
X207564Y222912D01*
X207464Y222924D01*
X207363Y222932D01*
X207262Y222936D01*
X207160Y222936D01*
X207059Y222932D01*
X206958Y222924D01*
X206858Y222912D01*
X206758Y222896D01*
X206658Y222877D01*
X206560Y222853D01*
X206462Y222826D01*
X206366Y222795D01*
X206271Y222761D01*
X206177Y222722D01*
X206085Y222681D01*
X205994Y222635D01*
X205906Y222586D01*
X205819Y222534D01*
X205734Y222478D01*
X205652Y222419D01*
X205572Y222357D01*
X205494Y222292D01*
X205419Y222224D01*
X205347Y222153D01*
X205277Y222080D01*
X205211Y222003D01*
X205147Y221925D01*
X205087Y221843D01*
X205030Y221760D01*
X204976Y221674D01*
X204925Y221586D01*
X204878Y221497D01*
X204834Y221405D01*
X204794Y221312D01*
X204757Y221218D01*
X204725Y221122D01*
X204696Y221025D01*
X204670Y220927D01*
X204649Y220828D01*
X204631Y220728D01*
X204618Y220628D01*
X204608Y220527D01*
X204602Y220426D01*
X204600Y220325D01*
X204601Y220325D02*
X204601Y216148D01*
X204600Y216148D02*
X204602Y216047D01*
X204608Y215946D01*
X204618Y215845D01*
X204631Y215745D01*
X204649Y215645D01*
X204670Y215546D01*
X204696Y215448D01*
X204725Y215351D01*
X204757Y215255D01*
X204794Y215161D01*
X204834Y215068D01*
X204878Y214976D01*
X204925Y214887D01*
X204976Y214799D01*
X205030Y214713D01*
X205087Y214630D01*
X205147Y214548D01*
X205211Y214470D01*
X205277Y214393D01*
X205347Y214320D01*
X205419Y214249D01*
X205494Y214181D01*
X205572Y214116D01*
X205652Y214054D01*
X205734Y213995D01*
X205819Y213939D01*
X205906Y213887D01*
X205994Y213838D01*
X206085Y213792D01*
X206177Y213751D01*
X206271Y213712D01*
X206366Y213678D01*
X206462Y213647D01*
X206560Y213620D01*
X206658Y213596D01*
X206758Y213577D01*
X206858Y213561D01*
X206958Y213549D01*
X207059Y213541D01*
X207160Y213537D01*
X207262Y213537D01*
X207363Y213541D01*
X207464Y213549D01*
X207564Y213561D01*
X207664Y213577D01*
X207764Y213596D01*
X207862Y213620D01*
X207960Y213647D01*
X208056Y213678D01*
X208151Y213712D01*
X208245Y213751D01*
X208337Y213792D01*
X208428Y213838D01*
X208516Y213887D01*
X208603Y213939D01*
X208688Y213995D01*
X208770Y214054D01*
X208850Y214116D01*
X208928Y214181D01*
X209003Y214249D01*
X209075Y214320D01*
X209145Y214393D01*
X209211Y214470D01*
X209275Y214548D01*
X209335Y214630D01*
X209392Y214713D01*
X209446Y214799D01*
X209497Y214887D01*
X209544Y214976D01*
X209588Y215068D01*
X209628Y215161D01*
X209665Y215255D01*
X209697Y215351D01*
X209726Y215448D01*
X209752Y215546D01*
X209773Y215645D01*
X209791Y215745D01*
X209804Y215845D01*
X209814Y215946D01*
X209820Y216047D01*
X209822Y216148D01*
X205645Y215626D02*
X203556Y213538D01*
X200890Y221892D02*
X200890Y222936D01*
X195669Y222936D01*
X198279Y213538D01*
X415519Y265450D02*
X415519Y269627D01*
X415517Y269728D01*
X415511Y269829D01*
X415501Y269930D01*
X415488Y270030D01*
X415470Y270130D01*
X415449Y270229D01*
X415423Y270327D01*
X415394Y270424D01*
X415362Y270520D01*
X415325Y270614D01*
X415285Y270707D01*
X415241Y270799D01*
X415194Y270888D01*
X415143Y270976D01*
X415089Y271062D01*
X415032Y271145D01*
X414972Y271227D01*
X414908Y271305D01*
X414842Y271382D01*
X414772Y271455D01*
X414700Y271526D01*
X414625Y271594D01*
X414547Y271659D01*
X414467Y271721D01*
X414385Y271780D01*
X414300Y271836D01*
X414214Y271888D01*
X414125Y271937D01*
X414034Y271983D01*
X413942Y272024D01*
X413848Y272063D01*
X413753Y272097D01*
X413657Y272128D01*
X413559Y272155D01*
X413461Y272179D01*
X413361Y272198D01*
X413261Y272214D01*
X413161Y272226D01*
X413060Y272234D01*
X412959Y272238D01*
X412857Y272238D01*
X412756Y272234D01*
X412655Y272226D01*
X412555Y272214D01*
X412455Y272198D01*
X412355Y272179D01*
X412257Y272155D01*
X412159Y272128D01*
X412063Y272097D01*
X411968Y272063D01*
X411874Y272024D01*
X411782Y271983D01*
X411691Y271937D01*
X411603Y271888D01*
X411516Y271836D01*
X411431Y271780D01*
X411349Y271721D01*
X411269Y271659D01*
X411191Y271594D01*
X411116Y271526D01*
X411044Y271455D01*
X410974Y271382D01*
X410908Y271305D01*
X410844Y271227D01*
X410784Y271145D01*
X410727Y271062D01*
X410673Y270976D01*
X410622Y270888D01*
X410575Y270799D01*
X410531Y270707D01*
X410491Y270614D01*
X410454Y270520D01*
X410422Y270424D01*
X410393Y270327D01*
X410367Y270229D01*
X410346Y270130D01*
X410328Y270030D01*
X410315Y269930D01*
X410305Y269829D01*
X410299Y269728D01*
X410297Y269627D01*
X410298Y269627D02*
X410298Y265450D01*
X410297Y265450D02*
X410299Y265349D01*
X410305Y265248D01*
X410315Y265147D01*
X410328Y265047D01*
X410346Y264947D01*
X410367Y264848D01*
X410393Y264750D01*
X410422Y264653D01*
X410454Y264557D01*
X410491Y264463D01*
X410531Y264370D01*
X410575Y264278D01*
X410622Y264189D01*
X410673Y264101D01*
X410727Y264015D01*
X410784Y263932D01*
X410844Y263850D01*
X410908Y263772D01*
X410974Y263695D01*
X411044Y263622D01*
X411116Y263551D01*
X411191Y263483D01*
X411269Y263418D01*
X411349Y263356D01*
X411431Y263297D01*
X411516Y263241D01*
X411603Y263189D01*
X411691Y263140D01*
X411782Y263094D01*
X411874Y263053D01*
X411968Y263014D01*
X412063Y262980D01*
X412159Y262949D01*
X412257Y262922D01*
X412355Y262898D01*
X412455Y262879D01*
X412555Y262863D01*
X412655Y262851D01*
X412756Y262843D01*
X412857Y262839D01*
X412959Y262839D01*
X413060Y262843D01*
X413161Y262851D01*
X413261Y262863D01*
X413361Y262879D01*
X413461Y262898D01*
X413559Y262922D01*
X413657Y262949D01*
X413753Y262980D01*
X413848Y263014D01*
X413942Y263053D01*
X414034Y263094D01*
X414125Y263140D01*
X414213Y263189D01*
X414300Y263241D01*
X414385Y263297D01*
X414467Y263356D01*
X414547Y263418D01*
X414625Y263483D01*
X414700Y263551D01*
X414772Y263622D01*
X414842Y263695D01*
X414908Y263772D01*
X414972Y263850D01*
X415032Y263932D01*
X415089Y264015D01*
X415143Y264101D01*
X415194Y264189D01*
X415241Y264278D01*
X415285Y264370D01*
X415325Y264463D01*
X415362Y264557D01*
X415394Y264653D01*
X415423Y264750D01*
X415449Y264848D01*
X415470Y264947D01*
X415488Y265047D01*
X415501Y265147D01*
X415511Y265248D01*
X415517Y265349D01*
X415519Y265450D01*
X411342Y264928D02*
X409253Y262839D01*
X406587Y265450D02*
X406585Y265551D01*
X406579Y265652D01*
X406569Y265753D01*
X406556Y265853D01*
X406538Y265953D01*
X406517Y266052D01*
X406491Y266150D01*
X406462Y266247D01*
X406430Y266343D01*
X406393Y266437D01*
X406353Y266530D01*
X406309Y266622D01*
X406262Y266711D01*
X406211Y266799D01*
X406157Y266885D01*
X406100Y266968D01*
X406040Y267050D01*
X405976Y267128D01*
X405910Y267205D01*
X405840Y267278D01*
X405768Y267349D01*
X405693Y267417D01*
X405615Y267482D01*
X405535Y267544D01*
X405453Y267603D01*
X405368Y267659D01*
X405282Y267711D01*
X405193Y267760D01*
X405102Y267806D01*
X405010Y267847D01*
X404916Y267886D01*
X404821Y267920D01*
X404725Y267951D01*
X404627Y267978D01*
X404529Y268002D01*
X404429Y268021D01*
X404329Y268037D01*
X404229Y268049D01*
X404128Y268057D01*
X404027Y268061D01*
X403925Y268061D01*
X403824Y268057D01*
X403723Y268049D01*
X403623Y268037D01*
X403523Y268021D01*
X403423Y268002D01*
X403325Y267978D01*
X403227Y267951D01*
X403131Y267920D01*
X403036Y267886D01*
X402942Y267847D01*
X402850Y267806D01*
X402759Y267760D01*
X402671Y267711D01*
X402584Y267659D01*
X402499Y267603D01*
X402417Y267544D01*
X402337Y267482D01*
X402259Y267417D01*
X402184Y267349D01*
X402112Y267278D01*
X402042Y267205D01*
X401976Y267128D01*
X401912Y267050D01*
X401852Y266968D01*
X401795Y266885D01*
X401741Y266799D01*
X401690Y266711D01*
X401643Y266622D01*
X401599Y266530D01*
X401559Y266437D01*
X401522Y266343D01*
X401490Y266247D01*
X401461Y266150D01*
X401435Y266052D01*
X401414Y265953D01*
X401396Y265853D01*
X401383Y265753D01*
X401373Y265652D01*
X401367Y265551D01*
X401365Y265450D01*
X401367Y265349D01*
X401373Y265248D01*
X401383Y265147D01*
X401396Y265047D01*
X401414Y264947D01*
X401435Y264848D01*
X401461Y264750D01*
X401490Y264653D01*
X401522Y264557D01*
X401559Y264463D01*
X401599Y264370D01*
X401643Y264278D01*
X401690Y264189D01*
X401741Y264101D01*
X401795Y264015D01*
X401852Y263932D01*
X401912Y263850D01*
X401976Y263772D01*
X402042Y263695D01*
X402112Y263622D01*
X402184Y263551D01*
X402259Y263483D01*
X402337Y263418D01*
X402417Y263356D01*
X402499Y263297D01*
X402584Y263241D01*
X402671Y263189D01*
X402759Y263140D01*
X402850Y263094D01*
X402942Y263053D01*
X403036Y263014D01*
X403131Y262980D01*
X403227Y262949D01*
X403325Y262922D01*
X403423Y262898D01*
X403523Y262879D01*
X403623Y262863D01*
X403723Y262851D01*
X403824Y262843D01*
X403925Y262839D01*
X404027Y262839D01*
X404128Y262843D01*
X404229Y262851D01*
X404329Y262863D01*
X404429Y262879D01*
X404529Y262898D01*
X404627Y262922D01*
X404725Y262949D01*
X404821Y262980D01*
X404916Y263014D01*
X405010Y263053D01*
X405102Y263094D01*
X405193Y263140D01*
X405281Y263189D01*
X405368Y263241D01*
X405453Y263297D01*
X405535Y263356D01*
X405615Y263418D01*
X405693Y263483D01*
X405768Y263551D01*
X405840Y263622D01*
X405910Y263695D01*
X405976Y263772D01*
X406040Y263850D01*
X406100Y263932D01*
X406157Y264015D01*
X406211Y264101D01*
X406262Y264189D01*
X406309Y264278D01*
X406353Y264370D01*
X406393Y264463D01*
X406430Y264557D01*
X406462Y264653D01*
X406491Y264750D01*
X406517Y264848D01*
X406538Y264947D01*
X406556Y265047D01*
X406569Y265147D01*
X406579Y265248D01*
X406585Y265349D01*
X406587Y265450D01*
X406064Y270149D02*
X406062Y270239D01*
X406056Y270328D01*
X406047Y270418D01*
X406033Y270507D01*
X406016Y270595D01*
X405995Y270682D01*
X405970Y270769D01*
X405941Y270854D01*
X405909Y270938D01*
X405874Y271020D01*
X405834Y271101D01*
X405792Y271180D01*
X405746Y271257D01*
X405696Y271332D01*
X405644Y271405D01*
X405588Y271476D01*
X405530Y271544D01*
X405468Y271609D01*
X405404Y271672D01*
X405337Y271732D01*
X405268Y271789D01*
X405196Y271843D01*
X405122Y271894D01*
X405046Y271942D01*
X404968Y271986D01*
X404888Y272027D01*
X404806Y272065D01*
X404723Y272099D01*
X404638Y272129D01*
X404552Y272156D01*
X404466Y272179D01*
X404378Y272198D01*
X404289Y272213D01*
X404200Y272225D01*
X404111Y272233D01*
X404021Y272237D01*
X403931Y272237D01*
X403841Y272233D01*
X403752Y272225D01*
X403663Y272213D01*
X403574Y272198D01*
X403486Y272179D01*
X403400Y272156D01*
X403314Y272129D01*
X403229Y272099D01*
X403146Y272065D01*
X403064Y272027D01*
X402984Y271986D01*
X402906Y271942D01*
X402830Y271894D01*
X402756Y271843D01*
X402684Y271789D01*
X402615Y271732D01*
X402548Y271672D01*
X402484Y271609D01*
X402422Y271544D01*
X402364Y271476D01*
X402308Y271405D01*
X402256Y271332D01*
X402206Y271257D01*
X402160Y271180D01*
X402118Y271101D01*
X402078Y271020D01*
X402043Y270938D01*
X402011Y270854D01*
X401982Y270769D01*
X401957Y270682D01*
X401936Y270595D01*
X401919Y270507D01*
X401905Y270418D01*
X401896Y270328D01*
X401890Y270239D01*
X401888Y270149D01*
X401890Y270059D01*
X401896Y269970D01*
X401905Y269880D01*
X401919Y269791D01*
X401936Y269703D01*
X401957Y269616D01*
X401982Y269529D01*
X402011Y269444D01*
X402043Y269360D01*
X402078Y269278D01*
X402118Y269197D01*
X402160Y269118D01*
X402206Y269041D01*
X402256Y268966D01*
X402308Y268893D01*
X402364Y268822D01*
X402422Y268754D01*
X402484Y268689D01*
X402548Y268626D01*
X402615Y268566D01*
X402684Y268509D01*
X402756Y268455D01*
X402830Y268404D01*
X402906Y268356D01*
X402984Y268312D01*
X403064Y268271D01*
X403146Y268233D01*
X403229Y268199D01*
X403314Y268169D01*
X403400Y268142D01*
X403486Y268119D01*
X403574Y268100D01*
X403663Y268085D01*
X403752Y268073D01*
X403841Y268065D01*
X403931Y268061D01*
X404021Y268061D01*
X404111Y268065D01*
X404200Y268073D01*
X404289Y268085D01*
X404378Y268100D01*
X404466Y268119D01*
X404552Y268142D01*
X404638Y268169D01*
X404723Y268199D01*
X404806Y268233D01*
X404888Y268271D01*
X404968Y268312D01*
X405046Y268356D01*
X405122Y268404D01*
X405196Y268455D01*
X405268Y268509D01*
X405337Y268566D01*
X405404Y268626D01*
X405468Y268689D01*
X405530Y268754D01*
X405588Y268822D01*
X405644Y268893D01*
X405696Y268966D01*
X405746Y269041D01*
X405792Y269118D01*
X405834Y269197D01*
X405874Y269278D01*
X405909Y269360D01*
X405941Y269444D01*
X405970Y269529D01*
X405995Y269616D01*
X406016Y269703D01*
X406033Y269791D01*
X406047Y269880D01*
X406056Y269970D01*
X406062Y270059D01*
X406064Y270149D01*
X525056Y169614D02*
X525056Y165437D01*
X525057Y169614D02*
X525055Y169715D01*
X525049Y169816D01*
X525039Y169917D01*
X525026Y170017D01*
X525008Y170117D01*
X524987Y170216D01*
X524961Y170314D01*
X524932Y170411D01*
X524900Y170507D01*
X524863Y170601D01*
X524823Y170694D01*
X524779Y170786D01*
X524732Y170875D01*
X524681Y170963D01*
X524627Y171049D01*
X524570Y171132D01*
X524510Y171214D01*
X524446Y171292D01*
X524380Y171369D01*
X524310Y171442D01*
X524238Y171513D01*
X524163Y171581D01*
X524085Y171646D01*
X524005Y171708D01*
X523923Y171767D01*
X523838Y171823D01*
X523752Y171875D01*
X523663Y171924D01*
X523572Y171970D01*
X523480Y172011D01*
X523386Y172050D01*
X523291Y172084D01*
X523195Y172115D01*
X523097Y172142D01*
X522999Y172166D01*
X522899Y172185D01*
X522799Y172201D01*
X522699Y172213D01*
X522598Y172221D01*
X522497Y172225D01*
X522395Y172225D01*
X522294Y172221D01*
X522193Y172213D01*
X522093Y172201D01*
X521993Y172185D01*
X521893Y172166D01*
X521795Y172142D01*
X521697Y172115D01*
X521601Y172084D01*
X521506Y172050D01*
X521412Y172011D01*
X521320Y171970D01*
X521229Y171924D01*
X521141Y171875D01*
X521054Y171823D01*
X520969Y171767D01*
X520887Y171708D01*
X520807Y171646D01*
X520729Y171581D01*
X520654Y171513D01*
X520582Y171442D01*
X520512Y171369D01*
X520446Y171292D01*
X520382Y171214D01*
X520322Y171132D01*
X520265Y171049D01*
X520211Y170963D01*
X520160Y170875D01*
X520113Y170786D01*
X520069Y170694D01*
X520029Y170601D01*
X519992Y170507D01*
X519960Y170411D01*
X519931Y170314D01*
X519905Y170216D01*
X519884Y170117D01*
X519866Y170017D01*
X519853Y169917D01*
X519843Y169816D01*
X519837Y169715D01*
X519835Y169614D01*
X519835Y165437D01*
X519837Y165336D01*
X519843Y165235D01*
X519853Y165134D01*
X519866Y165034D01*
X519884Y164934D01*
X519905Y164835D01*
X519931Y164737D01*
X519960Y164640D01*
X519992Y164544D01*
X520029Y164450D01*
X520069Y164357D01*
X520113Y164265D01*
X520160Y164176D01*
X520211Y164088D01*
X520265Y164002D01*
X520322Y163919D01*
X520382Y163837D01*
X520446Y163759D01*
X520512Y163682D01*
X520582Y163609D01*
X520654Y163538D01*
X520729Y163470D01*
X520807Y163405D01*
X520887Y163343D01*
X520969Y163284D01*
X521054Y163228D01*
X521141Y163176D01*
X521229Y163127D01*
X521320Y163081D01*
X521412Y163040D01*
X521506Y163001D01*
X521601Y162967D01*
X521697Y162936D01*
X521795Y162909D01*
X521893Y162885D01*
X521993Y162866D01*
X522093Y162850D01*
X522193Y162838D01*
X522294Y162830D01*
X522395Y162826D01*
X522497Y162826D01*
X522598Y162830D01*
X522699Y162838D01*
X522799Y162850D01*
X522899Y162866D01*
X522999Y162885D01*
X523097Y162909D01*
X523195Y162936D01*
X523291Y162967D01*
X523386Y163001D01*
X523480Y163040D01*
X523572Y163081D01*
X523663Y163127D01*
X523751Y163176D01*
X523838Y163228D01*
X523923Y163284D01*
X524005Y163343D01*
X524085Y163405D01*
X524163Y163470D01*
X524238Y163538D01*
X524310Y163609D01*
X524380Y163682D01*
X524446Y163759D01*
X524510Y163837D01*
X524570Y163919D01*
X524627Y164002D01*
X524681Y164088D01*
X524732Y164176D01*
X524779Y164265D01*
X524823Y164357D01*
X524863Y164450D01*
X524900Y164544D01*
X524932Y164640D01*
X524961Y164737D01*
X524987Y164835D01*
X525008Y164934D01*
X525026Y165034D01*
X525039Y165134D01*
X525049Y165235D01*
X525055Y165336D01*
X525057Y165437D01*
X520879Y164915D02*
X518791Y162827D01*
X514036Y167004D02*
X510903Y167004D01*
X514036Y167004D02*
X514125Y167006D01*
X514213Y167012D01*
X514301Y167021D01*
X514389Y167034D01*
X514476Y167051D01*
X514562Y167071D01*
X514647Y167096D01*
X514732Y167123D01*
X514815Y167155D01*
X514896Y167189D01*
X514976Y167228D01*
X515054Y167269D01*
X515131Y167314D01*
X515205Y167362D01*
X515278Y167413D01*
X515348Y167467D01*
X515415Y167525D01*
X515481Y167585D01*
X515543Y167647D01*
X515603Y167713D01*
X515661Y167780D01*
X515715Y167850D01*
X515766Y167923D01*
X515814Y167997D01*
X515859Y168074D01*
X515900Y168152D01*
X515939Y168232D01*
X515973Y168313D01*
X516005Y168396D01*
X516032Y168481D01*
X516057Y168566D01*
X516077Y168652D01*
X516094Y168739D01*
X516107Y168827D01*
X516116Y168915D01*
X516122Y169003D01*
X516124Y169092D01*
X516124Y169614D01*
X516125Y169614D02*
X516123Y169715D01*
X516117Y169816D01*
X516107Y169917D01*
X516094Y170017D01*
X516076Y170117D01*
X516055Y170216D01*
X516029Y170314D01*
X516000Y170411D01*
X515968Y170507D01*
X515931Y170601D01*
X515891Y170694D01*
X515847Y170786D01*
X515800Y170875D01*
X515749Y170963D01*
X515695Y171049D01*
X515638Y171132D01*
X515578Y171214D01*
X515514Y171292D01*
X515448Y171369D01*
X515378Y171442D01*
X515306Y171513D01*
X515231Y171581D01*
X515153Y171646D01*
X515073Y171708D01*
X514991Y171767D01*
X514906Y171823D01*
X514820Y171875D01*
X514731Y171924D01*
X514640Y171970D01*
X514548Y172011D01*
X514454Y172050D01*
X514359Y172084D01*
X514263Y172115D01*
X514165Y172142D01*
X514067Y172166D01*
X513967Y172185D01*
X513867Y172201D01*
X513767Y172213D01*
X513666Y172221D01*
X513565Y172225D01*
X513463Y172225D01*
X513362Y172221D01*
X513261Y172213D01*
X513161Y172201D01*
X513061Y172185D01*
X512961Y172166D01*
X512863Y172142D01*
X512765Y172115D01*
X512669Y172084D01*
X512574Y172050D01*
X512480Y172011D01*
X512388Y171970D01*
X512297Y171924D01*
X512209Y171875D01*
X512122Y171823D01*
X512037Y171767D01*
X511955Y171708D01*
X511875Y171646D01*
X511797Y171581D01*
X511722Y171513D01*
X511650Y171442D01*
X511580Y171369D01*
X511514Y171292D01*
X511450Y171214D01*
X511390Y171132D01*
X511333Y171049D01*
X511279Y170963D01*
X511228Y170875D01*
X511181Y170786D01*
X511137Y170694D01*
X511097Y170601D01*
X511060Y170507D01*
X511028Y170411D01*
X510999Y170314D01*
X510973Y170216D01*
X510952Y170117D01*
X510934Y170017D01*
X510921Y169917D01*
X510911Y169816D01*
X510905Y169715D01*
X510903Y169614D01*
X510903Y167004D01*
X510905Y166878D01*
X510911Y166752D01*
X510920Y166626D01*
X510933Y166501D01*
X510951Y166376D01*
X510971Y166251D01*
X510996Y166127D01*
X511024Y166004D01*
X511056Y165882D01*
X511092Y165761D01*
X511131Y165641D01*
X511174Y165523D01*
X511221Y165406D01*
X511271Y165290D01*
X511325Y165175D01*
X511381Y165063D01*
X511442Y164952D01*
X511505Y164843D01*
X511572Y164736D01*
X511642Y164631D01*
X511716Y164528D01*
X511792Y164428D01*
X511871Y164330D01*
X511953Y164234D01*
X512039Y164141D01*
X512126Y164050D01*
X512217Y163963D01*
X512310Y163877D01*
X512406Y163795D01*
X512504Y163716D01*
X512604Y163640D01*
X512707Y163566D01*
X512812Y163496D01*
X512919Y163429D01*
X513028Y163366D01*
X513139Y163305D01*
X513251Y163249D01*
X513366Y163195D01*
X513482Y163145D01*
X513599Y163098D01*
X513717Y163055D01*
X513837Y163016D01*
X513958Y162980D01*
X514080Y162948D01*
X514203Y162920D01*
X514327Y162895D01*
X514452Y162875D01*
X514577Y162857D01*
X514702Y162844D01*
X514828Y162835D01*
X514954Y162829D01*
X515080Y162827D01*
X453619Y165437D02*
X453619Y169614D01*
X453617Y169715D01*
X453611Y169816D01*
X453601Y169917D01*
X453588Y170017D01*
X453570Y170117D01*
X453549Y170216D01*
X453523Y170314D01*
X453494Y170411D01*
X453462Y170507D01*
X453425Y170601D01*
X453385Y170694D01*
X453341Y170786D01*
X453294Y170875D01*
X453243Y170963D01*
X453189Y171049D01*
X453132Y171132D01*
X453072Y171214D01*
X453008Y171292D01*
X452942Y171369D01*
X452872Y171442D01*
X452800Y171513D01*
X452725Y171581D01*
X452647Y171646D01*
X452567Y171708D01*
X452485Y171767D01*
X452400Y171823D01*
X452314Y171875D01*
X452225Y171924D01*
X452134Y171970D01*
X452042Y172011D01*
X451948Y172050D01*
X451853Y172084D01*
X451757Y172115D01*
X451659Y172142D01*
X451561Y172166D01*
X451461Y172185D01*
X451361Y172201D01*
X451261Y172213D01*
X451160Y172221D01*
X451059Y172225D01*
X450957Y172225D01*
X450856Y172221D01*
X450755Y172213D01*
X450655Y172201D01*
X450555Y172185D01*
X450455Y172166D01*
X450357Y172142D01*
X450259Y172115D01*
X450163Y172084D01*
X450068Y172050D01*
X449974Y172011D01*
X449882Y171970D01*
X449791Y171924D01*
X449703Y171875D01*
X449616Y171823D01*
X449531Y171767D01*
X449449Y171708D01*
X449369Y171646D01*
X449291Y171581D01*
X449216Y171513D01*
X449144Y171442D01*
X449074Y171369D01*
X449008Y171292D01*
X448944Y171214D01*
X448884Y171132D01*
X448827Y171049D01*
X448773Y170963D01*
X448722Y170875D01*
X448675Y170786D01*
X448631Y170694D01*
X448591Y170601D01*
X448554Y170507D01*
X448522Y170411D01*
X448493Y170314D01*
X448467Y170216D01*
X448446Y170117D01*
X448428Y170017D01*
X448415Y169917D01*
X448405Y169816D01*
X448399Y169715D01*
X448397Y169614D01*
X448398Y169614D02*
X448398Y165437D01*
X448397Y165437D02*
X448399Y165336D01*
X448405Y165235D01*
X448415Y165134D01*
X448428Y165034D01*
X448446Y164934D01*
X448467Y164835D01*
X448493Y164737D01*
X448522Y164640D01*
X448554Y164544D01*
X448591Y164450D01*
X448631Y164357D01*
X448675Y164265D01*
X448722Y164176D01*
X448773Y164088D01*
X448827Y164002D01*
X448884Y163919D01*
X448944Y163837D01*
X449008Y163759D01*
X449074Y163682D01*
X449144Y163609D01*
X449216Y163538D01*
X449291Y163470D01*
X449369Y163405D01*
X449449Y163343D01*
X449531Y163284D01*
X449616Y163228D01*
X449703Y163176D01*
X449791Y163127D01*
X449882Y163081D01*
X449974Y163040D01*
X450068Y163001D01*
X450163Y162967D01*
X450259Y162936D01*
X450357Y162909D01*
X450455Y162885D01*
X450555Y162866D01*
X450655Y162850D01*
X450755Y162838D01*
X450856Y162830D01*
X450957Y162826D01*
X451059Y162826D01*
X451160Y162830D01*
X451261Y162838D01*
X451361Y162850D01*
X451461Y162866D01*
X451561Y162885D01*
X451659Y162909D01*
X451757Y162936D01*
X451853Y162967D01*
X451948Y163001D01*
X452042Y163040D01*
X452134Y163081D01*
X452225Y163127D01*
X452313Y163176D01*
X452400Y163228D01*
X452485Y163284D01*
X452567Y163343D01*
X452647Y163405D01*
X452725Y163470D01*
X452800Y163538D01*
X452872Y163609D01*
X452942Y163682D01*
X453008Y163759D01*
X453072Y163837D01*
X453132Y163919D01*
X453189Y164002D01*
X453243Y164088D01*
X453294Y164176D01*
X453341Y164265D01*
X453385Y164357D01*
X453425Y164450D01*
X453462Y164544D01*
X453494Y164640D01*
X453523Y164737D01*
X453549Y164835D01*
X453570Y164934D01*
X453588Y165034D01*
X453601Y165134D01*
X453611Y165235D01*
X453617Y165336D01*
X453619Y165437D01*
X449442Y164915D02*
X447353Y162827D01*
X444687Y170136D02*
X442076Y172225D01*
X442076Y162827D01*
X439466Y162827D02*
X444687Y162827D01*
X435543Y167526D02*
X435541Y167711D01*
X435534Y167896D01*
X435523Y168080D01*
X435508Y168264D01*
X435488Y168448D01*
X435464Y168632D01*
X435435Y168814D01*
X435402Y168996D01*
X435365Y169177D01*
X435323Y169357D01*
X435277Y169537D01*
X435227Y169715D01*
X435173Y169891D01*
X435114Y170067D01*
X435052Y170241D01*
X434985Y170413D01*
X434914Y170584D01*
X434839Y170753D01*
X434760Y170920D01*
X434730Y171000D01*
X434697Y171079D01*
X434660Y171156D01*
X434620Y171232D01*
X434577Y171306D01*
X434531Y171378D01*
X434481Y171447D01*
X434429Y171515D01*
X434373Y171580D01*
X434315Y171643D01*
X434253Y171702D01*
X434190Y171760D01*
X434123Y171814D01*
X434055Y171865D01*
X433984Y171913D01*
X433911Y171958D01*
X433837Y172000D01*
X433760Y172038D01*
X433682Y172073D01*
X433603Y172105D01*
X433522Y172133D01*
X433440Y172157D01*
X433356Y172178D01*
X433273Y172195D01*
X433188Y172208D01*
X433103Y172217D01*
X433018Y172223D01*
X432932Y172225D01*
X432846Y172223D01*
X432761Y172217D01*
X432676Y172208D01*
X432591Y172195D01*
X432508Y172178D01*
X432424Y172157D01*
X432342Y172133D01*
X432262Y172105D01*
X432182Y172073D01*
X432104Y172038D01*
X432027Y172000D01*
X431953Y171958D01*
X431880Y171913D01*
X431809Y171865D01*
X431741Y171814D01*
X431674Y171760D01*
X431611Y171702D01*
X431550Y171643D01*
X431491Y171580D01*
X431436Y171515D01*
X431383Y171447D01*
X431333Y171378D01*
X431287Y171306D01*
X431244Y171232D01*
X431204Y171156D01*
X431167Y171079D01*
X431134Y171000D01*
X431104Y170920D01*
X431025Y170753D01*
X430950Y170584D01*
X430879Y170413D01*
X430812Y170241D01*
X430750Y170067D01*
X430691Y169891D01*
X430637Y169715D01*
X430587Y169537D01*
X430541Y169357D01*
X430499Y169177D01*
X430462Y168996D01*
X430429Y168814D01*
X430400Y168632D01*
X430376Y168448D01*
X430356Y168264D01*
X430341Y168080D01*
X430330Y167896D01*
X430323Y167711D01*
X430321Y167526D01*
X435543Y167526D02*
X435541Y167341D01*
X435534Y167156D01*
X435523Y166972D01*
X435508Y166788D01*
X435488Y166604D01*
X435464Y166420D01*
X435435Y166238D01*
X435402Y166056D01*
X435365Y165875D01*
X435323Y165695D01*
X435277Y165515D01*
X435227Y165337D01*
X435173Y165161D01*
X435114Y164985D01*
X435052Y164811D01*
X434985Y164639D01*
X434914Y164468D01*
X434839Y164299D01*
X434760Y164132D01*
X434730Y164052D01*
X434697Y163973D01*
X434660Y163896D01*
X434620Y163820D01*
X434577Y163746D01*
X434531Y163674D01*
X434481Y163605D01*
X434428Y163537D01*
X434373Y163472D01*
X434314Y163409D01*
X434253Y163350D01*
X434190Y163292D01*
X434123Y163238D01*
X434055Y163187D01*
X433984Y163139D01*
X433911Y163094D01*
X433837Y163052D01*
X433760Y163014D01*
X433682Y162979D01*
X433603Y162947D01*
X433522Y162919D01*
X433440Y162895D01*
X433356Y162874D01*
X433273Y162857D01*
X433188Y162844D01*
X433103Y162835D01*
X433018Y162829D01*
X432932Y162827D01*
X431105Y164132D02*
X431026Y164299D01*
X430951Y164468D01*
X430880Y164639D01*
X430813Y164811D01*
X430751Y164985D01*
X430692Y165161D01*
X430638Y165337D01*
X430588Y165515D01*
X430542Y165695D01*
X430500Y165875D01*
X430463Y166056D01*
X430430Y166238D01*
X430401Y166420D01*
X430377Y166604D01*
X430357Y166788D01*
X430342Y166972D01*
X430331Y167156D01*
X430324Y167341D01*
X430322Y167526D01*
X431104Y164132D02*
X431134Y164052D01*
X431167Y163973D01*
X431204Y163896D01*
X431244Y163820D01*
X431287Y163746D01*
X431333Y163674D01*
X431383Y163605D01*
X431436Y163537D01*
X431491Y163472D01*
X431550Y163409D01*
X431611Y163350D01*
X431674Y163292D01*
X431741Y163238D01*
X431809Y163187D01*
X431880Y163139D01*
X431953Y163094D01*
X432027Y163052D01*
X432104Y163014D01*
X432182Y162979D01*
X432262Y162947D01*
X432342Y162919D01*
X432424Y162895D01*
X432508Y162874D01*
X432591Y162857D01*
X432676Y162844D01*
X432761Y162835D01*
X432846Y162829D01*
X432932Y162827D01*
X435021Y164915D02*
X430844Y170136D01*
X413931Y171202D02*
X413931Y167025D01*
X413932Y171202D02*
X413930Y171303D01*
X413924Y171404D01*
X413914Y171505D01*
X413901Y171605D01*
X413883Y171705D01*
X413862Y171804D01*
X413836Y171902D01*
X413807Y171999D01*
X413775Y172095D01*
X413738Y172189D01*
X413698Y172282D01*
X413654Y172374D01*
X413607Y172463D01*
X413556Y172551D01*
X413502Y172637D01*
X413445Y172720D01*
X413385Y172802D01*
X413321Y172880D01*
X413255Y172957D01*
X413185Y173030D01*
X413113Y173101D01*
X413038Y173169D01*
X412960Y173234D01*
X412880Y173296D01*
X412798Y173355D01*
X412713Y173411D01*
X412627Y173463D01*
X412538Y173512D01*
X412447Y173558D01*
X412355Y173599D01*
X412261Y173638D01*
X412166Y173672D01*
X412070Y173703D01*
X411972Y173730D01*
X411874Y173754D01*
X411774Y173773D01*
X411674Y173789D01*
X411574Y173801D01*
X411473Y173809D01*
X411372Y173813D01*
X411270Y173813D01*
X411169Y173809D01*
X411068Y173801D01*
X410968Y173789D01*
X410868Y173773D01*
X410768Y173754D01*
X410670Y173730D01*
X410572Y173703D01*
X410476Y173672D01*
X410381Y173638D01*
X410287Y173599D01*
X410195Y173558D01*
X410104Y173512D01*
X410016Y173463D01*
X409929Y173411D01*
X409844Y173355D01*
X409762Y173296D01*
X409682Y173234D01*
X409604Y173169D01*
X409529Y173101D01*
X409457Y173030D01*
X409387Y172957D01*
X409321Y172880D01*
X409257Y172802D01*
X409197Y172720D01*
X409140Y172637D01*
X409086Y172551D01*
X409035Y172463D01*
X408988Y172374D01*
X408944Y172282D01*
X408904Y172189D01*
X408867Y172095D01*
X408835Y171999D01*
X408806Y171902D01*
X408780Y171804D01*
X408759Y171705D01*
X408741Y171605D01*
X408728Y171505D01*
X408718Y171404D01*
X408712Y171303D01*
X408710Y171202D01*
X408710Y167025D01*
X408712Y166924D01*
X408718Y166823D01*
X408728Y166722D01*
X408741Y166622D01*
X408759Y166522D01*
X408780Y166423D01*
X408806Y166325D01*
X408835Y166228D01*
X408867Y166132D01*
X408904Y166038D01*
X408944Y165945D01*
X408988Y165853D01*
X409035Y165764D01*
X409086Y165676D01*
X409140Y165590D01*
X409197Y165507D01*
X409257Y165425D01*
X409321Y165347D01*
X409387Y165270D01*
X409457Y165197D01*
X409529Y165126D01*
X409604Y165058D01*
X409682Y164993D01*
X409762Y164931D01*
X409844Y164872D01*
X409929Y164816D01*
X410016Y164764D01*
X410104Y164715D01*
X410195Y164669D01*
X410287Y164628D01*
X410381Y164589D01*
X410476Y164555D01*
X410572Y164524D01*
X410670Y164497D01*
X410768Y164473D01*
X410868Y164454D01*
X410968Y164438D01*
X411068Y164426D01*
X411169Y164418D01*
X411270Y164414D01*
X411372Y164414D01*
X411473Y164418D01*
X411574Y164426D01*
X411674Y164438D01*
X411774Y164454D01*
X411874Y164473D01*
X411972Y164497D01*
X412070Y164524D01*
X412166Y164555D01*
X412261Y164589D01*
X412355Y164628D01*
X412447Y164669D01*
X412538Y164715D01*
X412626Y164764D01*
X412713Y164816D01*
X412798Y164872D01*
X412880Y164931D01*
X412960Y164993D01*
X413038Y165058D01*
X413113Y165126D01*
X413185Y165197D01*
X413255Y165270D01*
X413321Y165347D01*
X413385Y165425D01*
X413445Y165507D01*
X413502Y165590D01*
X413556Y165676D01*
X413607Y165764D01*
X413654Y165853D01*
X413698Y165945D01*
X413738Y166038D01*
X413775Y166132D01*
X413807Y166228D01*
X413836Y166325D01*
X413862Y166423D01*
X413883Y166522D01*
X413901Y166622D01*
X413914Y166722D01*
X413924Y166823D01*
X413930Y166924D01*
X413932Y167025D01*
X409754Y166503D02*
X407666Y164414D01*
X404999Y171724D02*
X402389Y173812D01*
X402389Y164414D01*
X404999Y164414D02*
X399778Y164414D01*
X395855Y171724D02*
X393245Y173812D01*
X393245Y164414D01*
X395855Y164414D02*
X390634Y164414D01*
X207556Y316250D02*
X207556Y320427D01*
X207557Y320427D02*
X207555Y320528D01*
X207549Y320629D01*
X207539Y320730D01*
X207526Y320830D01*
X207508Y320930D01*
X207487Y321029D01*
X207461Y321127D01*
X207432Y321224D01*
X207400Y321320D01*
X207363Y321414D01*
X207323Y321507D01*
X207279Y321599D01*
X207232Y321688D01*
X207181Y321776D01*
X207127Y321862D01*
X207070Y321945D01*
X207010Y322027D01*
X206946Y322105D01*
X206880Y322182D01*
X206810Y322255D01*
X206738Y322326D01*
X206663Y322394D01*
X206585Y322459D01*
X206505Y322521D01*
X206423Y322580D01*
X206338Y322636D01*
X206252Y322688D01*
X206163Y322737D01*
X206072Y322783D01*
X205980Y322824D01*
X205886Y322863D01*
X205791Y322897D01*
X205695Y322928D01*
X205597Y322955D01*
X205499Y322979D01*
X205399Y322998D01*
X205299Y323014D01*
X205199Y323026D01*
X205098Y323034D01*
X204997Y323038D01*
X204895Y323038D01*
X204794Y323034D01*
X204693Y323026D01*
X204593Y323014D01*
X204493Y322998D01*
X204393Y322979D01*
X204295Y322955D01*
X204197Y322928D01*
X204101Y322897D01*
X204006Y322863D01*
X203912Y322824D01*
X203820Y322783D01*
X203729Y322737D01*
X203641Y322688D01*
X203554Y322636D01*
X203469Y322580D01*
X203387Y322521D01*
X203307Y322459D01*
X203229Y322394D01*
X203154Y322326D01*
X203082Y322255D01*
X203012Y322182D01*
X202946Y322105D01*
X202882Y322027D01*
X202822Y321945D01*
X202765Y321862D01*
X202711Y321776D01*
X202660Y321688D01*
X202613Y321599D01*
X202569Y321507D01*
X202529Y321414D01*
X202492Y321320D01*
X202460Y321224D01*
X202431Y321127D01*
X202405Y321029D01*
X202384Y320930D01*
X202366Y320830D01*
X202353Y320730D01*
X202343Y320629D01*
X202337Y320528D01*
X202335Y320427D01*
X202335Y316250D01*
X202337Y316149D01*
X202343Y316048D01*
X202353Y315947D01*
X202366Y315847D01*
X202384Y315747D01*
X202405Y315648D01*
X202431Y315550D01*
X202460Y315453D01*
X202492Y315357D01*
X202529Y315263D01*
X202569Y315170D01*
X202613Y315078D01*
X202660Y314989D01*
X202711Y314901D01*
X202765Y314815D01*
X202822Y314732D01*
X202882Y314650D01*
X202946Y314572D01*
X203012Y314495D01*
X203082Y314422D01*
X203154Y314351D01*
X203229Y314283D01*
X203307Y314218D01*
X203387Y314156D01*
X203469Y314097D01*
X203554Y314041D01*
X203641Y313989D01*
X203729Y313940D01*
X203820Y313894D01*
X203912Y313853D01*
X204006Y313814D01*
X204101Y313780D01*
X204197Y313749D01*
X204295Y313722D01*
X204393Y313698D01*
X204493Y313679D01*
X204593Y313663D01*
X204693Y313651D01*
X204794Y313643D01*
X204895Y313639D01*
X204997Y313639D01*
X205098Y313643D01*
X205199Y313651D01*
X205299Y313663D01*
X205399Y313679D01*
X205499Y313698D01*
X205597Y313722D01*
X205695Y313749D01*
X205791Y313780D01*
X205886Y313814D01*
X205980Y313853D01*
X206072Y313894D01*
X206163Y313940D01*
X206251Y313989D01*
X206338Y314041D01*
X206423Y314097D01*
X206505Y314156D01*
X206585Y314218D01*
X206663Y314283D01*
X206738Y314351D01*
X206810Y314422D01*
X206880Y314495D01*
X206946Y314572D01*
X207010Y314650D01*
X207070Y314732D01*
X207127Y314815D01*
X207181Y314901D01*
X207232Y314989D01*
X207279Y315078D01*
X207323Y315170D01*
X207363Y315263D01*
X207400Y315357D01*
X207432Y315453D01*
X207461Y315550D01*
X207487Y315648D01*
X207508Y315747D01*
X207526Y315847D01*
X207539Y315947D01*
X207549Y316048D01*
X207555Y316149D01*
X207557Y316250D01*
X203379Y315728D02*
X201291Y313639D01*
X198624Y320949D02*
X196014Y323037D01*
X196014Y313639D01*
X198624Y313639D02*
X193403Y313639D01*
X184259Y320688D02*
X184261Y320783D01*
X184267Y320877D01*
X184276Y320971D01*
X184289Y321065D01*
X184306Y321158D01*
X184327Y321250D01*
X184352Y321342D01*
X184380Y321432D01*
X184412Y321521D01*
X184447Y321609D01*
X184486Y321695D01*
X184528Y321780D01*
X184574Y321863D01*
X184623Y321944D01*
X184675Y322023D01*
X184730Y322100D01*
X184789Y322174D01*
X184850Y322246D01*
X184914Y322316D01*
X184981Y322383D01*
X185051Y322447D01*
X185123Y322508D01*
X185197Y322567D01*
X185274Y322622D01*
X185353Y322674D01*
X185434Y322723D01*
X185517Y322769D01*
X185602Y322811D01*
X185688Y322850D01*
X185776Y322885D01*
X185865Y322917D01*
X185955Y322945D01*
X186047Y322970D01*
X186139Y322991D01*
X186232Y323008D01*
X186326Y323021D01*
X186420Y323030D01*
X186514Y323036D01*
X186609Y323038D01*
X186609Y323037D02*
X186717Y323035D01*
X186826Y323029D01*
X186934Y323019D01*
X187041Y323006D01*
X187148Y322988D01*
X187255Y322967D01*
X187360Y322942D01*
X187465Y322913D01*
X187568Y322881D01*
X187670Y322844D01*
X187771Y322804D01*
X187870Y322761D01*
X187968Y322714D01*
X188064Y322663D01*
X188158Y322609D01*
X188250Y322552D01*
X188340Y322491D01*
X188428Y322427D01*
X188513Y322361D01*
X188596Y322291D01*
X188676Y322218D01*
X188754Y322142D01*
X188829Y322064D01*
X188901Y321983D01*
X188970Y321899D01*
X189036Y321813D01*
X189099Y321725D01*
X189158Y321634D01*
X189215Y321542D01*
X189268Y321447D01*
X189317Y321350D01*
X189363Y321252D01*
X189406Y321153D01*
X189445Y321051D01*
X189480Y320949D01*
X185042Y318860D02*
X184973Y318929D01*
X184907Y319000D01*
X184843Y319073D01*
X184782Y319149D01*
X184724Y319228D01*
X184670Y319308D01*
X184618Y319391D01*
X184570Y319475D01*
X184524Y319561D01*
X184483Y319649D01*
X184444Y319739D01*
X184409Y319830D01*
X184378Y319922D01*
X184350Y320015D01*
X184326Y320109D01*
X184306Y320204D01*
X184289Y320300D01*
X184276Y320397D01*
X184267Y320494D01*
X184261Y320591D01*
X184259Y320688D01*
X185042Y318860D02*
X189480Y313639D01*
X184259Y313639D01*
X491719Y169614D02*
X491719Y165437D01*
X491719Y169614D02*
X491717Y169715D01*
X491711Y169816D01*
X491701Y169917D01*
X491688Y170017D01*
X491670Y170117D01*
X491649Y170216D01*
X491623Y170314D01*
X491594Y170411D01*
X491562Y170507D01*
X491525Y170601D01*
X491485Y170694D01*
X491441Y170786D01*
X491394Y170875D01*
X491343Y170963D01*
X491289Y171049D01*
X491232Y171132D01*
X491172Y171214D01*
X491108Y171292D01*
X491042Y171369D01*
X490972Y171442D01*
X490900Y171513D01*
X490825Y171581D01*
X490747Y171646D01*
X490667Y171708D01*
X490585Y171767D01*
X490500Y171823D01*
X490414Y171875D01*
X490325Y171924D01*
X490234Y171970D01*
X490142Y172011D01*
X490048Y172050D01*
X489953Y172084D01*
X489857Y172115D01*
X489759Y172142D01*
X489661Y172166D01*
X489561Y172185D01*
X489461Y172201D01*
X489361Y172213D01*
X489260Y172221D01*
X489159Y172225D01*
X489057Y172225D01*
X488956Y172221D01*
X488855Y172213D01*
X488755Y172201D01*
X488655Y172185D01*
X488555Y172166D01*
X488457Y172142D01*
X488359Y172115D01*
X488263Y172084D01*
X488168Y172050D01*
X488074Y172011D01*
X487982Y171970D01*
X487891Y171924D01*
X487803Y171875D01*
X487716Y171823D01*
X487631Y171767D01*
X487549Y171708D01*
X487469Y171646D01*
X487391Y171581D01*
X487316Y171513D01*
X487244Y171442D01*
X487174Y171369D01*
X487108Y171292D01*
X487044Y171214D01*
X486984Y171132D01*
X486927Y171049D01*
X486873Y170963D01*
X486822Y170875D01*
X486775Y170786D01*
X486731Y170694D01*
X486691Y170601D01*
X486654Y170507D01*
X486622Y170411D01*
X486593Y170314D01*
X486567Y170216D01*
X486546Y170117D01*
X486528Y170017D01*
X486515Y169917D01*
X486505Y169816D01*
X486499Y169715D01*
X486497Y169614D01*
X486498Y169614D02*
X486498Y165437D01*
X486497Y165437D02*
X486499Y165336D01*
X486505Y165235D01*
X486515Y165134D01*
X486528Y165034D01*
X486546Y164934D01*
X486567Y164835D01*
X486593Y164737D01*
X486622Y164640D01*
X486654Y164544D01*
X486691Y164450D01*
X486731Y164357D01*
X486775Y164265D01*
X486822Y164176D01*
X486873Y164088D01*
X486927Y164002D01*
X486984Y163919D01*
X487044Y163837D01*
X487108Y163759D01*
X487174Y163682D01*
X487244Y163609D01*
X487316Y163538D01*
X487391Y163470D01*
X487469Y163405D01*
X487549Y163343D01*
X487631Y163284D01*
X487716Y163228D01*
X487803Y163176D01*
X487891Y163127D01*
X487982Y163081D01*
X488074Y163040D01*
X488168Y163001D01*
X488263Y162967D01*
X488359Y162936D01*
X488457Y162909D01*
X488555Y162885D01*
X488655Y162866D01*
X488755Y162850D01*
X488855Y162838D01*
X488956Y162830D01*
X489057Y162826D01*
X489159Y162826D01*
X489260Y162830D01*
X489361Y162838D01*
X489461Y162850D01*
X489561Y162866D01*
X489661Y162885D01*
X489759Y162909D01*
X489857Y162936D01*
X489953Y162967D01*
X490048Y163001D01*
X490142Y163040D01*
X490234Y163081D01*
X490325Y163127D01*
X490413Y163176D01*
X490500Y163228D01*
X490585Y163284D01*
X490667Y163343D01*
X490747Y163405D01*
X490825Y163470D01*
X490900Y163538D01*
X490972Y163609D01*
X491042Y163682D01*
X491108Y163759D01*
X491172Y163837D01*
X491232Y163919D01*
X491289Y164002D01*
X491343Y164088D01*
X491394Y164176D01*
X491441Y164265D01*
X491485Y164357D01*
X491525Y164450D01*
X491562Y164544D01*
X491594Y164640D01*
X491623Y164737D01*
X491649Y164835D01*
X491670Y164934D01*
X491688Y165034D01*
X491701Y165134D01*
X491711Y165235D01*
X491717Y165336D01*
X491719Y165437D01*
X487542Y164915D02*
X485453Y162827D01*
X482787Y170136D02*
X480176Y172225D01*
X480176Y162827D01*
X477566Y162827D02*
X482787Y162827D01*
X473643Y164915D02*
X471554Y172225D01*
X473643Y164915D02*
X468422Y164915D01*
X469988Y167004D02*
X469988Y162827D01*
X373248Y288158D02*
X373248Y297556D01*
X370637Y297556D01*
X370536Y297554D01*
X370435Y297548D01*
X370334Y297538D01*
X370234Y297525D01*
X370134Y297507D01*
X370035Y297486D01*
X369937Y297460D01*
X369840Y297431D01*
X369744Y297399D01*
X369650Y297362D01*
X369557Y297322D01*
X369465Y297278D01*
X369376Y297231D01*
X369288Y297180D01*
X369202Y297126D01*
X369119Y297069D01*
X369037Y297009D01*
X368959Y296945D01*
X368882Y296879D01*
X368809Y296809D01*
X368738Y296737D01*
X368670Y296662D01*
X368605Y296584D01*
X368543Y296504D01*
X368484Y296422D01*
X368428Y296337D01*
X368376Y296251D01*
X368327Y296162D01*
X368281Y296071D01*
X368240Y295979D01*
X368201Y295885D01*
X368167Y295790D01*
X368136Y295694D01*
X368109Y295596D01*
X368085Y295498D01*
X368066Y295398D01*
X368050Y295298D01*
X368038Y295198D01*
X368030Y295097D01*
X368026Y294996D01*
X368026Y294894D01*
X368030Y294793D01*
X368038Y294692D01*
X368050Y294592D01*
X368066Y294492D01*
X368085Y294392D01*
X368109Y294294D01*
X368136Y294196D01*
X368167Y294100D01*
X368201Y294005D01*
X368240Y293911D01*
X368281Y293819D01*
X368327Y293728D01*
X368376Y293640D01*
X368428Y293553D01*
X368484Y293468D01*
X368543Y293386D01*
X368605Y293306D01*
X368670Y293228D01*
X368738Y293153D01*
X368809Y293081D01*
X368882Y293011D01*
X368959Y292945D01*
X369037Y292881D01*
X369119Y292821D01*
X369202Y292764D01*
X369288Y292710D01*
X369376Y292659D01*
X369465Y292612D01*
X369557Y292568D01*
X369650Y292528D01*
X369744Y292491D01*
X369840Y292459D01*
X369937Y292430D01*
X370035Y292404D01*
X370134Y292383D01*
X370234Y292365D01*
X370334Y292352D01*
X370435Y292342D01*
X370536Y292336D01*
X370637Y292334D01*
X370637Y292335D02*
X373248Y292335D01*
X370115Y292335D02*
X368027Y288158D01*
X364161Y288158D02*
X361028Y288158D01*
X360939Y288160D01*
X360851Y288166D01*
X360763Y288175D01*
X360675Y288188D01*
X360588Y288205D01*
X360502Y288225D01*
X360417Y288250D01*
X360332Y288277D01*
X360249Y288309D01*
X360168Y288343D01*
X360088Y288382D01*
X360010Y288423D01*
X359933Y288468D01*
X359859Y288516D01*
X359786Y288567D01*
X359716Y288621D01*
X359649Y288679D01*
X359583Y288739D01*
X359521Y288801D01*
X359461Y288867D01*
X359403Y288934D01*
X359349Y289004D01*
X359298Y289077D01*
X359250Y289151D01*
X359205Y289228D01*
X359164Y289306D01*
X359125Y289386D01*
X359091Y289467D01*
X359059Y289550D01*
X359032Y289635D01*
X359007Y289720D01*
X358987Y289806D01*
X358970Y289893D01*
X358957Y289981D01*
X358948Y290069D01*
X358942Y290157D01*
X358940Y290246D01*
X358940Y291291D01*
X358942Y291380D01*
X358948Y291468D01*
X358957Y291556D01*
X358970Y291644D01*
X358987Y291731D01*
X359007Y291817D01*
X359032Y291902D01*
X359059Y291987D01*
X359091Y292070D01*
X359125Y292151D01*
X359164Y292231D01*
X359205Y292309D01*
X359250Y292386D01*
X359298Y292460D01*
X359349Y292533D01*
X359403Y292603D01*
X359461Y292670D01*
X359521Y292736D01*
X359583Y292798D01*
X359649Y292858D01*
X359716Y292916D01*
X359786Y292970D01*
X359859Y293021D01*
X359933Y293069D01*
X360010Y293114D01*
X360088Y293155D01*
X360168Y293194D01*
X360249Y293228D01*
X360332Y293260D01*
X360417Y293287D01*
X360502Y293312D01*
X360588Y293332D01*
X360675Y293349D01*
X360763Y293362D01*
X360851Y293371D01*
X360939Y293377D01*
X361028Y293379D01*
X364161Y293379D01*
X364161Y297556D01*
X358940Y297556D01*
X519933Y217302D02*
X529331Y217302D01*
X529331Y219913D01*
X529329Y220014D01*
X529323Y220115D01*
X529313Y220216D01*
X529300Y220316D01*
X529282Y220416D01*
X529261Y220515D01*
X529235Y220613D01*
X529206Y220710D01*
X529174Y220806D01*
X529137Y220900D01*
X529097Y220993D01*
X529053Y221085D01*
X529006Y221174D01*
X528955Y221262D01*
X528901Y221348D01*
X528844Y221431D01*
X528784Y221513D01*
X528720Y221591D01*
X528654Y221668D01*
X528584Y221741D01*
X528512Y221812D01*
X528437Y221880D01*
X528359Y221945D01*
X528279Y222007D01*
X528197Y222066D01*
X528112Y222122D01*
X528026Y222174D01*
X527937Y222223D01*
X527846Y222269D01*
X527754Y222310D01*
X527660Y222349D01*
X527565Y222383D01*
X527469Y222414D01*
X527371Y222441D01*
X527273Y222465D01*
X527173Y222484D01*
X527073Y222500D01*
X526973Y222512D01*
X526872Y222520D01*
X526771Y222524D01*
X526669Y222524D01*
X526568Y222520D01*
X526467Y222512D01*
X526367Y222500D01*
X526267Y222484D01*
X526167Y222465D01*
X526069Y222441D01*
X525971Y222414D01*
X525875Y222383D01*
X525780Y222349D01*
X525686Y222310D01*
X525594Y222269D01*
X525503Y222223D01*
X525415Y222174D01*
X525328Y222122D01*
X525243Y222066D01*
X525161Y222007D01*
X525081Y221945D01*
X525003Y221880D01*
X524928Y221812D01*
X524856Y221741D01*
X524786Y221668D01*
X524720Y221591D01*
X524656Y221513D01*
X524596Y221431D01*
X524539Y221348D01*
X524485Y221262D01*
X524434Y221174D01*
X524387Y221085D01*
X524343Y220993D01*
X524303Y220900D01*
X524266Y220806D01*
X524234Y220710D01*
X524205Y220613D01*
X524179Y220515D01*
X524158Y220416D01*
X524140Y220316D01*
X524127Y220216D01*
X524117Y220115D01*
X524111Y220014D01*
X524109Y219913D01*
X524110Y219913D02*
X524110Y217302D01*
X524110Y220435D02*
X519933Y222523D01*
X525154Y226389D02*
X525154Y229522D01*
X525152Y229611D01*
X525146Y229699D01*
X525137Y229787D01*
X525124Y229875D01*
X525107Y229962D01*
X525087Y230048D01*
X525062Y230133D01*
X525035Y230218D01*
X525003Y230301D01*
X524969Y230382D01*
X524930Y230462D01*
X524889Y230540D01*
X524844Y230617D01*
X524796Y230691D01*
X524745Y230764D01*
X524691Y230834D01*
X524633Y230901D01*
X524573Y230967D01*
X524511Y231029D01*
X524445Y231089D01*
X524378Y231147D01*
X524308Y231201D01*
X524235Y231252D01*
X524161Y231300D01*
X524084Y231345D01*
X524006Y231386D01*
X523926Y231425D01*
X523845Y231459D01*
X523762Y231491D01*
X523677Y231518D01*
X523592Y231543D01*
X523506Y231563D01*
X523419Y231580D01*
X523331Y231593D01*
X523243Y231602D01*
X523155Y231608D01*
X523066Y231610D01*
X522543Y231610D01*
X522543Y231611D02*
X522442Y231609D01*
X522341Y231603D01*
X522240Y231593D01*
X522140Y231580D01*
X522040Y231562D01*
X521941Y231541D01*
X521843Y231515D01*
X521746Y231486D01*
X521650Y231454D01*
X521556Y231417D01*
X521463Y231377D01*
X521371Y231333D01*
X521282Y231286D01*
X521194Y231235D01*
X521108Y231181D01*
X521025Y231124D01*
X520943Y231064D01*
X520865Y231000D01*
X520788Y230934D01*
X520715Y230864D01*
X520644Y230792D01*
X520576Y230717D01*
X520511Y230639D01*
X520449Y230559D01*
X520390Y230477D01*
X520334Y230392D01*
X520282Y230306D01*
X520233Y230217D01*
X520187Y230126D01*
X520146Y230034D01*
X520107Y229940D01*
X520073Y229845D01*
X520042Y229749D01*
X520015Y229651D01*
X519991Y229553D01*
X519972Y229453D01*
X519956Y229353D01*
X519944Y229253D01*
X519936Y229152D01*
X519932Y229051D01*
X519932Y228949D01*
X519936Y228848D01*
X519944Y228747D01*
X519956Y228647D01*
X519972Y228547D01*
X519991Y228447D01*
X520015Y228349D01*
X520042Y228251D01*
X520073Y228155D01*
X520107Y228060D01*
X520146Y227966D01*
X520187Y227874D01*
X520233Y227783D01*
X520282Y227695D01*
X520334Y227608D01*
X520390Y227523D01*
X520449Y227441D01*
X520511Y227361D01*
X520576Y227283D01*
X520644Y227208D01*
X520715Y227136D01*
X520788Y227066D01*
X520865Y227000D01*
X520943Y226936D01*
X521025Y226876D01*
X521108Y226819D01*
X521194Y226765D01*
X521282Y226714D01*
X521371Y226667D01*
X521463Y226623D01*
X521556Y226583D01*
X521650Y226546D01*
X521746Y226514D01*
X521843Y226485D01*
X521941Y226459D01*
X522040Y226438D01*
X522140Y226420D01*
X522240Y226407D01*
X522341Y226397D01*
X522442Y226391D01*
X522543Y226389D01*
X525154Y226389D01*
X525283Y226391D01*
X525411Y226397D01*
X525539Y226407D01*
X525667Y226421D01*
X525795Y226438D01*
X525922Y226460D01*
X526048Y226486D01*
X526173Y226515D01*
X526297Y226548D01*
X526420Y226586D01*
X526542Y226626D01*
X526663Y226671D01*
X526782Y226719D01*
X526900Y226771D01*
X527016Y226827D01*
X527130Y226886D01*
X527242Y226949D01*
X527353Y227015D01*
X527461Y227084D01*
X527567Y227157D01*
X527671Y227233D01*
X527773Y227312D01*
X527872Y227394D01*
X527968Y227479D01*
X528062Y227567D01*
X528153Y227658D01*
X528241Y227752D01*
X528326Y227848D01*
X528408Y227947D01*
X528487Y228049D01*
X528563Y228153D01*
X528636Y228259D01*
X528705Y228367D01*
X528771Y228477D01*
X528834Y228590D01*
X528893Y228704D01*
X528949Y228820D01*
X529001Y228938D01*
X529049Y229057D01*
X529094Y229178D01*
X529134Y229300D01*
X529172Y229423D01*
X529205Y229547D01*
X529234Y229672D01*
X529260Y229798D01*
X529282Y229925D01*
X529299Y230053D01*
X529313Y230181D01*
X529323Y230309D01*
X529329Y230437D01*
X529331Y230566D01*
X459481Y217302D02*
X450083Y217302D01*
X459481Y217302D02*
X459481Y219913D01*
X459479Y220014D01*
X459473Y220115D01*
X459463Y220216D01*
X459450Y220316D01*
X459432Y220416D01*
X459411Y220515D01*
X459385Y220613D01*
X459356Y220710D01*
X459324Y220806D01*
X459287Y220900D01*
X459247Y220993D01*
X459203Y221085D01*
X459156Y221174D01*
X459105Y221262D01*
X459051Y221348D01*
X458994Y221431D01*
X458934Y221513D01*
X458870Y221591D01*
X458804Y221668D01*
X458734Y221741D01*
X458662Y221812D01*
X458587Y221880D01*
X458509Y221945D01*
X458429Y222007D01*
X458347Y222066D01*
X458262Y222122D01*
X458176Y222174D01*
X458087Y222223D01*
X457996Y222269D01*
X457904Y222310D01*
X457810Y222349D01*
X457715Y222383D01*
X457619Y222414D01*
X457521Y222441D01*
X457423Y222465D01*
X457323Y222484D01*
X457223Y222500D01*
X457123Y222512D01*
X457022Y222520D01*
X456921Y222524D01*
X456819Y222524D01*
X456718Y222520D01*
X456617Y222512D01*
X456517Y222500D01*
X456417Y222484D01*
X456317Y222465D01*
X456219Y222441D01*
X456121Y222414D01*
X456025Y222383D01*
X455930Y222349D01*
X455836Y222310D01*
X455744Y222269D01*
X455653Y222223D01*
X455565Y222174D01*
X455478Y222122D01*
X455393Y222066D01*
X455311Y222007D01*
X455231Y221945D01*
X455153Y221880D01*
X455078Y221812D01*
X455006Y221741D01*
X454936Y221668D01*
X454870Y221591D01*
X454806Y221513D01*
X454746Y221431D01*
X454689Y221348D01*
X454635Y221262D01*
X454584Y221174D01*
X454537Y221085D01*
X454493Y220993D01*
X454453Y220900D01*
X454416Y220806D01*
X454384Y220710D01*
X454355Y220613D01*
X454329Y220515D01*
X454308Y220416D01*
X454290Y220316D01*
X454277Y220216D01*
X454267Y220115D01*
X454261Y220014D01*
X454259Y219913D01*
X454260Y219913D02*
X454260Y217302D01*
X454260Y220435D02*
X450083Y222523D01*
X458437Y226389D02*
X459481Y226389D01*
X459481Y231610D01*
X450083Y229000D01*
X395473Y221356D02*
X395473Y211958D01*
X395473Y221356D02*
X392862Y221356D01*
X392761Y221354D01*
X392660Y221348D01*
X392559Y221338D01*
X392459Y221325D01*
X392359Y221307D01*
X392260Y221286D01*
X392162Y221260D01*
X392065Y221231D01*
X391969Y221199D01*
X391875Y221162D01*
X391782Y221122D01*
X391690Y221078D01*
X391601Y221031D01*
X391513Y220980D01*
X391427Y220926D01*
X391344Y220869D01*
X391262Y220809D01*
X391184Y220745D01*
X391107Y220679D01*
X391034Y220609D01*
X390963Y220537D01*
X390895Y220462D01*
X390830Y220384D01*
X390768Y220304D01*
X390709Y220222D01*
X390653Y220137D01*
X390601Y220051D01*
X390552Y219962D01*
X390506Y219871D01*
X390465Y219779D01*
X390426Y219685D01*
X390392Y219590D01*
X390361Y219494D01*
X390334Y219396D01*
X390310Y219298D01*
X390291Y219198D01*
X390275Y219098D01*
X390263Y218998D01*
X390255Y218897D01*
X390251Y218796D01*
X390251Y218694D01*
X390255Y218593D01*
X390263Y218492D01*
X390275Y218392D01*
X390291Y218292D01*
X390310Y218192D01*
X390334Y218094D01*
X390361Y217996D01*
X390392Y217900D01*
X390426Y217805D01*
X390465Y217711D01*
X390506Y217619D01*
X390552Y217528D01*
X390601Y217440D01*
X390653Y217353D01*
X390709Y217268D01*
X390768Y217186D01*
X390830Y217106D01*
X390895Y217028D01*
X390963Y216953D01*
X391034Y216881D01*
X391107Y216811D01*
X391184Y216745D01*
X391262Y216681D01*
X391344Y216621D01*
X391427Y216564D01*
X391513Y216510D01*
X391601Y216459D01*
X391690Y216412D01*
X391782Y216368D01*
X391875Y216328D01*
X391969Y216291D01*
X392065Y216259D01*
X392162Y216230D01*
X392260Y216204D01*
X392359Y216183D01*
X392459Y216165D01*
X392559Y216152D01*
X392660Y216142D01*
X392761Y216136D01*
X392862Y216134D01*
X392862Y216135D02*
X395473Y216135D01*
X392340Y216135D02*
X390252Y211958D01*
X386386Y214568D02*
X386384Y214669D01*
X386378Y214770D01*
X386368Y214871D01*
X386355Y214971D01*
X386337Y215071D01*
X386316Y215170D01*
X386290Y215268D01*
X386261Y215365D01*
X386229Y215461D01*
X386192Y215555D01*
X386152Y215648D01*
X386108Y215740D01*
X386061Y215829D01*
X386010Y215917D01*
X385956Y216003D01*
X385899Y216086D01*
X385839Y216168D01*
X385775Y216246D01*
X385709Y216323D01*
X385639Y216396D01*
X385567Y216467D01*
X385492Y216535D01*
X385414Y216600D01*
X385334Y216662D01*
X385252Y216721D01*
X385167Y216777D01*
X385081Y216829D01*
X384992Y216878D01*
X384901Y216924D01*
X384809Y216965D01*
X384715Y217004D01*
X384620Y217038D01*
X384524Y217069D01*
X384426Y217096D01*
X384328Y217120D01*
X384228Y217139D01*
X384128Y217155D01*
X384028Y217167D01*
X383927Y217175D01*
X383826Y217179D01*
X383724Y217179D01*
X383623Y217175D01*
X383522Y217167D01*
X383422Y217155D01*
X383322Y217139D01*
X383222Y217120D01*
X383124Y217096D01*
X383026Y217069D01*
X382930Y217038D01*
X382835Y217004D01*
X382741Y216965D01*
X382649Y216924D01*
X382558Y216878D01*
X382470Y216829D01*
X382383Y216777D01*
X382298Y216721D01*
X382216Y216662D01*
X382136Y216600D01*
X382058Y216535D01*
X381983Y216467D01*
X381911Y216396D01*
X381841Y216323D01*
X381775Y216246D01*
X381711Y216168D01*
X381651Y216086D01*
X381594Y216003D01*
X381540Y215917D01*
X381489Y215829D01*
X381442Y215740D01*
X381398Y215648D01*
X381358Y215555D01*
X381321Y215461D01*
X381289Y215365D01*
X381260Y215268D01*
X381234Y215170D01*
X381213Y215071D01*
X381195Y214971D01*
X381182Y214871D01*
X381172Y214770D01*
X381166Y214669D01*
X381164Y214568D01*
X381166Y214467D01*
X381172Y214366D01*
X381182Y214265D01*
X381195Y214165D01*
X381213Y214065D01*
X381234Y213966D01*
X381260Y213868D01*
X381289Y213771D01*
X381321Y213675D01*
X381358Y213581D01*
X381398Y213488D01*
X381442Y213396D01*
X381489Y213307D01*
X381540Y213219D01*
X381594Y213133D01*
X381651Y213050D01*
X381711Y212968D01*
X381775Y212890D01*
X381841Y212813D01*
X381911Y212740D01*
X381983Y212669D01*
X382058Y212601D01*
X382136Y212536D01*
X382216Y212474D01*
X382298Y212415D01*
X382383Y212359D01*
X382470Y212307D01*
X382558Y212258D01*
X382649Y212212D01*
X382741Y212171D01*
X382835Y212132D01*
X382930Y212098D01*
X383026Y212067D01*
X383124Y212040D01*
X383222Y212016D01*
X383322Y211997D01*
X383422Y211981D01*
X383522Y211969D01*
X383623Y211961D01*
X383724Y211957D01*
X383826Y211957D01*
X383927Y211961D01*
X384028Y211969D01*
X384128Y211981D01*
X384228Y211997D01*
X384328Y212016D01*
X384426Y212040D01*
X384524Y212067D01*
X384620Y212098D01*
X384715Y212132D01*
X384809Y212171D01*
X384901Y212212D01*
X384992Y212258D01*
X385080Y212307D01*
X385167Y212359D01*
X385252Y212415D01*
X385334Y212474D01*
X385414Y212536D01*
X385492Y212601D01*
X385567Y212669D01*
X385639Y212740D01*
X385709Y212813D01*
X385775Y212890D01*
X385839Y212968D01*
X385899Y213050D01*
X385956Y213133D01*
X386010Y213219D01*
X386061Y213307D01*
X386108Y213396D01*
X386152Y213488D01*
X386192Y213581D01*
X386229Y213675D01*
X386261Y213771D01*
X386290Y213868D01*
X386316Y213966D01*
X386337Y214065D01*
X386355Y214165D01*
X386368Y214265D01*
X386378Y214366D01*
X386384Y214467D01*
X386386Y214568D01*
X385863Y219267D02*
X385861Y219357D01*
X385855Y219446D01*
X385846Y219536D01*
X385832Y219625D01*
X385815Y219713D01*
X385794Y219800D01*
X385769Y219887D01*
X385740Y219972D01*
X385708Y220056D01*
X385673Y220138D01*
X385633Y220219D01*
X385591Y220298D01*
X385545Y220375D01*
X385495Y220450D01*
X385443Y220523D01*
X385387Y220594D01*
X385329Y220662D01*
X385267Y220727D01*
X385203Y220790D01*
X385136Y220850D01*
X385067Y220907D01*
X384995Y220961D01*
X384921Y221012D01*
X384845Y221060D01*
X384767Y221104D01*
X384687Y221145D01*
X384605Y221183D01*
X384522Y221217D01*
X384437Y221247D01*
X384351Y221274D01*
X384265Y221297D01*
X384177Y221316D01*
X384088Y221331D01*
X383999Y221343D01*
X383910Y221351D01*
X383820Y221355D01*
X383730Y221355D01*
X383640Y221351D01*
X383551Y221343D01*
X383462Y221331D01*
X383373Y221316D01*
X383285Y221297D01*
X383199Y221274D01*
X383113Y221247D01*
X383028Y221217D01*
X382945Y221183D01*
X382863Y221145D01*
X382783Y221104D01*
X382705Y221060D01*
X382629Y221012D01*
X382555Y220961D01*
X382483Y220907D01*
X382414Y220850D01*
X382347Y220790D01*
X382283Y220727D01*
X382221Y220662D01*
X382163Y220594D01*
X382107Y220523D01*
X382055Y220450D01*
X382005Y220375D01*
X381959Y220298D01*
X381917Y220219D01*
X381877Y220138D01*
X381842Y220056D01*
X381810Y219972D01*
X381781Y219887D01*
X381756Y219800D01*
X381735Y219713D01*
X381718Y219625D01*
X381704Y219536D01*
X381695Y219446D01*
X381689Y219357D01*
X381687Y219267D01*
X381689Y219177D01*
X381695Y219088D01*
X381704Y218998D01*
X381718Y218909D01*
X381735Y218821D01*
X381756Y218734D01*
X381781Y218647D01*
X381810Y218562D01*
X381842Y218478D01*
X381877Y218396D01*
X381917Y218315D01*
X381959Y218236D01*
X382005Y218159D01*
X382055Y218084D01*
X382107Y218011D01*
X382163Y217940D01*
X382221Y217872D01*
X382283Y217807D01*
X382347Y217744D01*
X382414Y217684D01*
X382483Y217627D01*
X382555Y217573D01*
X382629Y217522D01*
X382705Y217474D01*
X382783Y217430D01*
X382863Y217389D01*
X382945Y217351D01*
X383028Y217317D01*
X383113Y217287D01*
X383199Y217260D01*
X383285Y217237D01*
X383373Y217218D01*
X383462Y217203D01*
X383551Y217191D01*
X383640Y217183D01*
X383730Y217179D01*
X383820Y217179D01*
X383910Y217183D01*
X383999Y217191D01*
X384088Y217203D01*
X384177Y217218D01*
X384265Y217237D01*
X384351Y217260D01*
X384437Y217287D01*
X384522Y217317D01*
X384605Y217351D01*
X384687Y217389D01*
X384767Y217430D01*
X384845Y217474D01*
X384921Y217522D01*
X384995Y217573D01*
X385067Y217627D01*
X385136Y217684D01*
X385203Y217744D01*
X385267Y217807D01*
X385329Y217872D01*
X385387Y217940D01*
X385443Y218011D01*
X385495Y218084D01*
X385545Y218159D01*
X385591Y218236D01*
X385633Y218315D01*
X385673Y218396D01*
X385708Y218478D01*
X385740Y218562D01*
X385769Y218647D01*
X385794Y218734D01*
X385815Y218821D01*
X385832Y218909D01*
X385846Y218998D01*
X385855Y219088D01*
X385861Y219177D01*
X385863Y219267D01*
X485008Y217302D02*
X494406Y217302D01*
X494406Y219913D01*
X494404Y220014D01*
X494398Y220115D01*
X494388Y220216D01*
X494375Y220316D01*
X494357Y220416D01*
X494336Y220515D01*
X494310Y220613D01*
X494281Y220710D01*
X494249Y220806D01*
X494212Y220900D01*
X494172Y220993D01*
X494128Y221085D01*
X494081Y221174D01*
X494030Y221262D01*
X493976Y221348D01*
X493919Y221431D01*
X493859Y221513D01*
X493795Y221591D01*
X493729Y221668D01*
X493659Y221741D01*
X493587Y221812D01*
X493512Y221880D01*
X493434Y221945D01*
X493354Y222007D01*
X493272Y222066D01*
X493187Y222122D01*
X493101Y222174D01*
X493012Y222223D01*
X492921Y222269D01*
X492829Y222310D01*
X492735Y222349D01*
X492640Y222383D01*
X492544Y222414D01*
X492446Y222441D01*
X492348Y222465D01*
X492248Y222484D01*
X492148Y222500D01*
X492048Y222512D01*
X491947Y222520D01*
X491846Y222524D01*
X491744Y222524D01*
X491643Y222520D01*
X491542Y222512D01*
X491442Y222500D01*
X491342Y222484D01*
X491242Y222465D01*
X491144Y222441D01*
X491046Y222414D01*
X490950Y222383D01*
X490855Y222349D01*
X490761Y222310D01*
X490669Y222269D01*
X490578Y222223D01*
X490490Y222174D01*
X490403Y222122D01*
X490318Y222066D01*
X490236Y222007D01*
X490156Y221945D01*
X490078Y221880D01*
X490003Y221812D01*
X489931Y221741D01*
X489861Y221668D01*
X489795Y221591D01*
X489731Y221513D01*
X489671Y221431D01*
X489614Y221348D01*
X489560Y221262D01*
X489509Y221174D01*
X489462Y221085D01*
X489418Y220993D01*
X489378Y220900D01*
X489341Y220806D01*
X489309Y220710D01*
X489280Y220613D01*
X489254Y220515D01*
X489233Y220416D01*
X489215Y220316D01*
X489202Y220216D01*
X489192Y220115D01*
X489186Y220014D01*
X489184Y219913D01*
X489185Y219913D02*
X489185Y217302D01*
X489185Y220435D02*
X485008Y222523D01*
X492317Y226389D02*
X494406Y229000D01*
X485008Y229000D01*
X485008Y231610D02*
X485008Y226389D01*
X492317Y235533D02*
X494406Y238143D01*
X485008Y238143D01*
X485008Y235533D02*
X485008Y240754D01*
X276410Y269108D02*
X276410Y278506D01*
X273800Y278506D01*
X273699Y278504D01*
X273598Y278498D01*
X273497Y278488D01*
X273397Y278475D01*
X273297Y278457D01*
X273198Y278436D01*
X273100Y278410D01*
X273003Y278381D01*
X272907Y278349D01*
X272813Y278312D01*
X272720Y278272D01*
X272628Y278228D01*
X272539Y278181D01*
X272451Y278130D01*
X272365Y278076D01*
X272282Y278019D01*
X272200Y277959D01*
X272122Y277895D01*
X272045Y277829D01*
X271972Y277759D01*
X271901Y277687D01*
X271833Y277612D01*
X271768Y277534D01*
X271706Y277454D01*
X271647Y277372D01*
X271591Y277287D01*
X271539Y277201D01*
X271490Y277112D01*
X271444Y277021D01*
X271403Y276929D01*
X271364Y276835D01*
X271330Y276740D01*
X271299Y276644D01*
X271272Y276546D01*
X271248Y276448D01*
X271229Y276348D01*
X271213Y276248D01*
X271201Y276148D01*
X271193Y276047D01*
X271189Y275946D01*
X271189Y275844D01*
X271193Y275743D01*
X271201Y275642D01*
X271213Y275542D01*
X271229Y275442D01*
X271248Y275342D01*
X271272Y275244D01*
X271299Y275146D01*
X271330Y275050D01*
X271364Y274955D01*
X271403Y274861D01*
X271444Y274769D01*
X271490Y274678D01*
X271539Y274590D01*
X271591Y274503D01*
X271647Y274418D01*
X271706Y274336D01*
X271768Y274256D01*
X271833Y274178D01*
X271901Y274103D01*
X271972Y274031D01*
X272045Y273961D01*
X272122Y273895D01*
X272200Y273831D01*
X272282Y273771D01*
X272365Y273714D01*
X272451Y273660D01*
X272539Y273609D01*
X272628Y273562D01*
X272720Y273518D01*
X272813Y273478D01*
X272907Y273441D01*
X273003Y273409D01*
X273100Y273380D01*
X273198Y273354D01*
X273297Y273333D01*
X273397Y273315D01*
X273497Y273302D01*
X273598Y273292D01*
X273699Y273286D01*
X273800Y273284D01*
X273800Y273285D02*
X276410Y273285D01*
X273278Y273285D02*
X271189Y269108D01*
X267324Y276417D02*
X264713Y278506D01*
X264713Y269108D01*
X267324Y269108D02*
X262102Y269108D01*
X252958Y276156D02*
X252960Y276251D01*
X252966Y276345D01*
X252975Y276439D01*
X252988Y276533D01*
X253005Y276626D01*
X253026Y276718D01*
X253051Y276810D01*
X253079Y276900D01*
X253111Y276989D01*
X253146Y277077D01*
X253185Y277163D01*
X253227Y277248D01*
X253273Y277331D01*
X253322Y277412D01*
X253374Y277491D01*
X253429Y277568D01*
X253488Y277642D01*
X253549Y277714D01*
X253613Y277784D01*
X253680Y277851D01*
X253750Y277915D01*
X253822Y277976D01*
X253896Y278035D01*
X253973Y278090D01*
X254052Y278142D01*
X254133Y278191D01*
X254216Y278237D01*
X254301Y278279D01*
X254387Y278318D01*
X254475Y278353D01*
X254564Y278385D01*
X254654Y278413D01*
X254746Y278438D01*
X254838Y278459D01*
X254931Y278476D01*
X255025Y278489D01*
X255119Y278498D01*
X255213Y278504D01*
X255308Y278506D01*
X255416Y278504D01*
X255525Y278498D01*
X255633Y278488D01*
X255740Y278475D01*
X255847Y278457D01*
X255954Y278436D01*
X256059Y278411D01*
X256164Y278382D01*
X256267Y278350D01*
X256369Y278313D01*
X256470Y278273D01*
X256569Y278230D01*
X256667Y278183D01*
X256763Y278132D01*
X256857Y278078D01*
X256949Y278021D01*
X257039Y277960D01*
X257127Y277896D01*
X257212Y277830D01*
X257295Y277760D01*
X257375Y277687D01*
X257453Y277611D01*
X257528Y277533D01*
X257600Y277452D01*
X257669Y277368D01*
X257735Y277282D01*
X257798Y277194D01*
X257857Y277103D01*
X257914Y277011D01*
X257967Y276916D01*
X258016Y276819D01*
X258062Y276721D01*
X258105Y276622D01*
X258144Y276520D01*
X258179Y276418D01*
X253741Y274328D02*
X253672Y274397D01*
X253606Y274468D01*
X253542Y274541D01*
X253481Y274617D01*
X253423Y274696D01*
X253369Y274776D01*
X253317Y274859D01*
X253269Y274943D01*
X253223Y275029D01*
X253182Y275117D01*
X253143Y275207D01*
X253108Y275298D01*
X253077Y275390D01*
X253049Y275483D01*
X253025Y275577D01*
X253005Y275672D01*
X252988Y275768D01*
X252975Y275865D01*
X252966Y275962D01*
X252960Y276059D01*
X252958Y276156D01*
X253742Y274329D02*
X258180Y269108D01*
X252958Y269108D01*
X367754Y226192D02*
X367754Y216794D01*
X367754Y226192D02*
X365144Y226192D01*
X365144Y226193D02*
X365043Y226191D01*
X364942Y226185D01*
X364841Y226175D01*
X364741Y226162D01*
X364641Y226144D01*
X364542Y226123D01*
X364444Y226097D01*
X364347Y226068D01*
X364251Y226036D01*
X364157Y225999D01*
X364064Y225959D01*
X363972Y225915D01*
X363883Y225868D01*
X363795Y225817D01*
X363709Y225763D01*
X363626Y225706D01*
X363544Y225646D01*
X363466Y225582D01*
X363389Y225516D01*
X363316Y225446D01*
X363245Y225374D01*
X363177Y225299D01*
X363112Y225221D01*
X363050Y225141D01*
X362991Y225059D01*
X362935Y224974D01*
X362883Y224888D01*
X362834Y224799D01*
X362788Y224708D01*
X362747Y224616D01*
X362708Y224522D01*
X362674Y224427D01*
X362643Y224331D01*
X362616Y224233D01*
X362592Y224135D01*
X362573Y224035D01*
X362557Y223935D01*
X362545Y223835D01*
X362537Y223734D01*
X362533Y223633D01*
X362533Y223531D01*
X362537Y223430D01*
X362545Y223329D01*
X362557Y223229D01*
X362573Y223129D01*
X362592Y223029D01*
X362616Y222931D01*
X362643Y222833D01*
X362674Y222737D01*
X362708Y222642D01*
X362747Y222548D01*
X362788Y222456D01*
X362834Y222365D01*
X362883Y222277D01*
X362935Y222190D01*
X362991Y222105D01*
X363050Y222023D01*
X363112Y221943D01*
X363177Y221865D01*
X363245Y221790D01*
X363316Y221718D01*
X363389Y221648D01*
X363466Y221582D01*
X363544Y221518D01*
X363626Y221458D01*
X363709Y221401D01*
X363795Y221347D01*
X363883Y221296D01*
X363972Y221249D01*
X364064Y221205D01*
X364157Y221165D01*
X364251Y221128D01*
X364347Y221096D01*
X364444Y221067D01*
X364542Y221041D01*
X364641Y221020D01*
X364741Y221002D01*
X364841Y220989D01*
X364942Y220979D01*
X365043Y220973D01*
X365144Y220971D01*
X367754Y220971D01*
X364621Y220971D02*
X362533Y216794D01*
X358667Y224104D02*
X356057Y226192D01*
X356057Y216794D01*
X358667Y216794D02*
X353446Y216794D01*
X349523Y216794D02*
X346913Y216794D01*
X346812Y216796D01*
X346711Y216802D01*
X346610Y216812D01*
X346510Y216825D01*
X346410Y216843D01*
X346311Y216864D01*
X346213Y216890D01*
X346116Y216919D01*
X346020Y216951D01*
X345926Y216988D01*
X345833Y217028D01*
X345741Y217072D01*
X345652Y217119D01*
X345564Y217170D01*
X345478Y217224D01*
X345395Y217281D01*
X345313Y217341D01*
X345235Y217405D01*
X345158Y217471D01*
X345085Y217541D01*
X345014Y217613D01*
X344946Y217688D01*
X344881Y217766D01*
X344819Y217846D01*
X344760Y217928D01*
X344704Y218013D01*
X344652Y218100D01*
X344603Y218188D01*
X344557Y218279D01*
X344516Y218371D01*
X344477Y218465D01*
X344443Y218560D01*
X344412Y218656D01*
X344385Y218754D01*
X344361Y218852D01*
X344342Y218952D01*
X344326Y219052D01*
X344314Y219152D01*
X344306Y219253D01*
X344302Y219354D01*
X344302Y219456D01*
X344306Y219557D01*
X344314Y219658D01*
X344326Y219758D01*
X344342Y219858D01*
X344361Y219958D01*
X344385Y220056D01*
X344412Y220154D01*
X344443Y220250D01*
X344477Y220345D01*
X344516Y220439D01*
X344557Y220531D01*
X344603Y220622D01*
X344652Y220711D01*
X344704Y220797D01*
X344760Y220882D01*
X344819Y220964D01*
X344881Y221044D01*
X344946Y221122D01*
X345014Y221197D01*
X345085Y221269D01*
X345158Y221339D01*
X345235Y221405D01*
X345313Y221469D01*
X345395Y221529D01*
X345478Y221586D01*
X345564Y221640D01*
X345652Y221691D01*
X345741Y221738D01*
X345833Y221782D01*
X345926Y221822D01*
X346020Y221859D01*
X346116Y221891D01*
X346213Y221920D01*
X346311Y221946D01*
X346410Y221967D01*
X346510Y221985D01*
X346610Y221998D01*
X346711Y222008D01*
X346812Y222014D01*
X346913Y222016D01*
X346391Y226192D02*
X349523Y226192D01*
X346391Y226192D02*
X346301Y226190D01*
X346212Y226184D01*
X346122Y226175D01*
X346033Y226161D01*
X345945Y226144D01*
X345858Y226123D01*
X345771Y226098D01*
X345686Y226069D01*
X345602Y226037D01*
X345520Y226002D01*
X345439Y225962D01*
X345360Y225920D01*
X345283Y225874D01*
X345208Y225824D01*
X345135Y225772D01*
X345064Y225716D01*
X344996Y225658D01*
X344931Y225596D01*
X344868Y225532D01*
X344808Y225465D01*
X344751Y225396D01*
X344697Y225324D01*
X344646Y225250D01*
X344598Y225174D01*
X344554Y225096D01*
X344513Y225016D01*
X344475Y224934D01*
X344441Y224851D01*
X344411Y224766D01*
X344384Y224680D01*
X344361Y224594D01*
X344342Y224506D01*
X344327Y224417D01*
X344315Y224328D01*
X344307Y224239D01*
X344303Y224149D01*
X344303Y224059D01*
X344307Y223969D01*
X344315Y223880D01*
X344327Y223791D01*
X344342Y223702D01*
X344361Y223614D01*
X344384Y223528D01*
X344411Y223442D01*
X344441Y223357D01*
X344475Y223274D01*
X344513Y223192D01*
X344554Y223112D01*
X344598Y223034D01*
X344646Y222958D01*
X344697Y222884D01*
X344751Y222812D01*
X344808Y222743D01*
X344868Y222676D01*
X344931Y222612D01*
X344996Y222550D01*
X345064Y222492D01*
X345135Y222436D01*
X345208Y222384D01*
X345283Y222334D01*
X345360Y222288D01*
X345439Y222246D01*
X345520Y222206D01*
X345602Y222171D01*
X345686Y222139D01*
X345771Y222110D01*
X345858Y222085D01*
X345945Y222064D01*
X346033Y222047D01*
X346122Y222033D01*
X346212Y222024D01*
X346301Y222018D01*
X346391Y222016D01*
X346391Y222015D02*
X348479Y222015D01*
X326479Y194442D02*
X326479Y185044D01*
X326479Y194442D02*
X323869Y194442D01*
X323869Y194443D02*
X323768Y194441D01*
X323667Y194435D01*
X323566Y194425D01*
X323466Y194412D01*
X323366Y194394D01*
X323267Y194373D01*
X323169Y194347D01*
X323072Y194318D01*
X322976Y194286D01*
X322882Y194249D01*
X322789Y194209D01*
X322697Y194165D01*
X322608Y194118D01*
X322520Y194067D01*
X322434Y194013D01*
X322351Y193956D01*
X322269Y193896D01*
X322191Y193832D01*
X322114Y193766D01*
X322041Y193696D01*
X321970Y193624D01*
X321902Y193549D01*
X321837Y193471D01*
X321775Y193391D01*
X321716Y193309D01*
X321660Y193224D01*
X321608Y193138D01*
X321559Y193049D01*
X321513Y192958D01*
X321472Y192866D01*
X321433Y192772D01*
X321399Y192677D01*
X321368Y192581D01*
X321341Y192483D01*
X321317Y192385D01*
X321298Y192285D01*
X321282Y192185D01*
X321270Y192085D01*
X321262Y191984D01*
X321258Y191883D01*
X321258Y191781D01*
X321262Y191680D01*
X321270Y191579D01*
X321282Y191479D01*
X321298Y191379D01*
X321317Y191279D01*
X321341Y191181D01*
X321368Y191083D01*
X321399Y190987D01*
X321433Y190892D01*
X321472Y190798D01*
X321513Y190706D01*
X321559Y190615D01*
X321608Y190527D01*
X321660Y190440D01*
X321716Y190355D01*
X321775Y190273D01*
X321837Y190193D01*
X321902Y190115D01*
X321970Y190040D01*
X322041Y189968D01*
X322114Y189898D01*
X322191Y189832D01*
X322269Y189768D01*
X322351Y189708D01*
X322434Y189651D01*
X322520Y189597D01*
X322608Y189546D01*
X322697Y189499D01*
X322789Y189455D01*
X322882Y189415D01*
X322976Y189378D01*
X323072Y189346D01*
X323169Y189317D01*
X323267Y189291D01*
X323366Y189270D01*
X323466Y189252D01*
X323566Y189239D01*
X323667Y189229D01*
X323768Y189223D01*
X323869Y189221D01*
X326479Y189221D01*
X323346Y189221D02*
X321258Y185044D01*
X317392Y192354D02*
X314782Y194442D01*
X314782Y185044D01*
X317392Y185044D02*
X312171Y185044D01*
X308248Y187133D02*
X306160Y194442D01*
X308248Y187133D02*
X303027Y187133D01*
X304593Y189221D02*
X304593Y185044D01*
X258217Y186632D02*
X258217Y196030D01*
X255606Y196030D01*
X255505Y196028D01*
X255404Y196022D01*
X255303Y196012D01*
X255203Y195999D01*
X255103Y195981D01*
X255004Y195960D01*
X254906Y195934D01*
X254809Y195905D01*
X254713Y195873D01*
X254619Y195836D01*
X254526Y195796D01*
X254434Y195752D01*
X254345Y195705D01*
X254257Y195654D01*
X254171Y195600D01*
X254088Y195543D01*
X254006Y195483D01*
X253928Y195419D01*
X253851Y195353D01*
X253778Y195283D01*
X253707Y195211D01*
X253639Y195136D01*
X253574Y195058D01*
X253512Y194978D01*
X253453Y194896D01*
X253397Y194811D01*
X253345Y194725D01*
X253296Y194636D01*
X253250Y194545D01*
X253209Y194453D01*
X253170Y194359D01*
X253136Y194264D01*
X253105Y194168D01*
X253078Y194070D01*
X253054Y193972D01*
X253035Y193872D01*
X253019Y193772D01*
X253007Y193672D01*
X252999Y193571D01*
X252995Y193470D01*
X252995Y193368D01*
X252999Y193267D01*
X253007Y193166D01*
X253019Y193066D01*
X253035Y192966D01*
X253054Y192866D01*
X253078Y192768D01*
X253105Y192670D01*
X253136Y192574D01*
X253170Y192479D01*
X253209Y192385D01*
X253250Y192293D01*
X253296Y192202D01*
X253345Y192114D01*
X253397Y192027D01*
X253453Y191942D01*
X253512Y191860D01*
X253574Y191780D01*
X253639Y191702D01*
X253707Y191627D01*
X253778Y191555D01*
X253851Y191485D01*
X253928Y191419D01*
X254006Y191355D01*
X254088Y191295D01*
X254171Y191238D01*
X254257Y191184D01*
X254345Y191133D01*
X254434Y191086D01*
X254526Y191042D01*
X254619Y191002D01*
X254713Y190965D01*
X254809Y190933D01*
X254906Y190904D01*
X255004Y190878D01*
X255103Y190857D01*
X255203Y190839D01*
X255303Y190826D01*
X255404Y190816D01*
X255505Y190810D01*
X255606Y190808D01*
X258217Y190808D01*
X255084Y190808D02*
X252995Y186632D01*
X249130Y193941D02*
X246519Y196030D01*
X246519Y186632D01*
X243909Y186632D02*
X249130Y186632D01*
X239986Y186632D02*
X236853Y186632D01*
X236764Y186634D01*
X236676Y186640D01*
X236588Y186649D01*
X236500Y186662D01*
X236413Y186679D01*
X236327Y186699D01*
X236242Y186724D01*
X236157Y186751D01*
X236074Y186783D01*
X235993Y186817D01*
X235913Y186856D01*
X235835Y186897D01*
X235758Y186942D01*
X235684Y186990D01*
X235611Y187041D01*
X235541Y187095D01*
X235474Y187153D01*
X235408Y187213D01*
X235346Y187275D01*
X235286Y187341D01*
X235228Y187408D01*
X235174Y187478D01*
X235123Y187551D01*
X235075Y187625D01*
X235030Y187702D01*
X234989Y187780D01*
X234950Y187860D01*
X234916Y187941D01*
X234884Y188024D01*
X234857Y188109D01*
X234832Y188194D01*
X234812Y188280D01*
X234795Y188367D01*
X234782Y188455D01*
X234773Y188543D01*
X234767Y188631D01*
X234765Y188720D01*
X234765Y189764D01*
X234767Y189853D01*
X234773Y189941D01*
X234782Y190029D01*
X234795Y190117D01*
X234812Y190204D01*
X234832Y190290D01*
X234857Y190375D01*
X234884Y190460D01*
X234916Y190543D01*
X234950Y190624D01*
X234989Y190704D01*
X235030Y190782D01*
X235075Y190859D01*
X235123Y190933D01*
X235174Y191006D01*
X235228Y191076D01*
X235286Y191143D01*
X235346Y191209D01*
X235408Y191271D01*
X235474Y191331D01*
X235541Y191389D01*
X235611Y191443D01*
X235684Y191494D01*
X235758Y191542D01*
X235835Y191587D01*
X235913Y191628D01*
X235993Y191667D01*
X236074Y191701D01*
X236157Y191733D01*
X236242Y191760D01*
X236327Y191785D01*
X236413Y191805D01*
X236500Y191822D01*
X236588Y191835D01*
X236676Y191844D01*
X236764Y191850D01*
X236853Y191852D01*
X236853Y191853D02*
X239986Y191853D01*
X239986Y196030D01*
X234765Y196030D01*
X224879Y196030D02*
X224879Y186632D01*
X224879Y196030D02*
X222269Y196030D01*
X222168Y196028D01*
X222067Y196022D01*
X221966Y196012D01*
X221866Y195999D01*
X221766Y195981D01*
X221667Y195960D01*
X221569Y195934D01*
X221472Y195905D01*
X221376Y195873D01*
X221282Y195836D01*
X221189Y195796D01*
X221097Y195752D01*
X221008Y195705D01*
X220920Y195654D01*
X220834Y195600D01*
X220751Y195543D01*
X220669Y195483D01*
X220591Y195419D01*
X220514Y195353D01*
X220441Y195283D01*
X220370Y195211D01*
X220302Y195136D01*
X220237Y195058D01*
X220175Y194978D01*
X220116Y194896D01*
X220060Y194811D01*
X220008Y194725D01*
X219959Y194636D01*
X219913Y194545D01*
X219872Y194453D01*
X219833Y194359D01*
X219799Y194264D01*
X219768Y194168D01*
X219741Y194070D01*
X219717Y193972D01*
X219698Y193872D01*
X219682Y193772D01*
X219670Y193672D01*
X219662Y193571D01*
X219658Y193470D01*
X219658Y193368D01*
X219662Y193267D01*
X219670Y193166D01*
X219682Y193066D01*
X219698Y192966D01*
X219717Y192866D01*
X219741Y192768D01*
X219768Y192670D01*
X219799Y192574D01*
X219833Y192479D01*
X219872Y192385D01*
X219913Y192293D01*
X219959Y192202D01*
X220008Y192114D01*
X220060Y192027D01*
X220116Y191942D01*
X220175Y191860D01*
X220237Y191780D01*
X220302Y191702D01*
X220370Y191627D01*
X220441Y191555D01*
X220514Y191485D01*
X220591Y191419D01*
X220669Y191355D01*
X220751Y191295D01*
X220834Y191238D01*
X220920Y191184D01*
X221008Y191133D01*
X221097Y191086D01*
X221189Y191042D01*
X221282Y191002D01*
X221376Y190965D01*
X221472Y190933D01*
X221569Y190904D01*
X221667Y190878D01*
X221766Y190857D01*
X221866Y190839D01*
X221966Y190826D01*
X222067Y190816D01*
X222168Y190810D01*
X222269Y190808D01*
X224879Y190808D01*
X221746Y190808D02*
X219658Y186632D01*
X215792Y193941D02*
X213182Y196030D01*
X213182Y186632D01*
X215792Y186632D02*
X210571Y186632D01*
X206648Y191853D02*
X203516Y191853D01*
X203516Y191852D02*
X203427Y191850D01*
X203339Y191844D01*
X203251Y191835D01*
X203163Y191822D01*
X203076Y191805D01*
X202990Y191785D01*
X202905Y191760D01*
X202820Y191733D01*
X202737Y191701D01*
X202656Y191667D01*
X202576Y191628D01*
X202498Y191587D01*
X202421Y191542D01*
X202347Y191494D01*
X202274Y191443D01*
X202204Y191389D01*
X202137Y191331D01*
X202071Y191271D01*
X202009Y191209D01*
X201949Y191143D01*
X201891Y191076D01*
X201837Y191006D01*
X201786Y190933D01*
X201738Y190859D01*
X201693Y190782D01*
X201652Y190704D01*
X201613Y190624D01*
X201579Y190543D01*
X201547Y190460D01*
X201520Y190375D01*
X201495Y190290D01*
X201475Y190204D01*
X201458Y190117D01*
X201445Y190029D01*
X201436Y189941D01*
X201430Y189853D01*
X201428Y189764D01*
X201427Y189764D02*
X201427Y189242D01*
X201429Y189141D01*
X201435Y189040D01*
X201445Y188939D01*
X201458Y188839D01*
X201476Y188739D01*
X201497Y188640D01*
X201523Y188542D01*
X201552Y188445D01*
X201584Y188349D01*
X201621Y188255D01*
X201661Y188162D01*
X201705Y188070D01*
X201752Y187981D01*
X201803Y187893D01*
X201857Y187807D01*
X201914Y187724D01*
X201974Y187642D01*
X202038Y187564D01*
X202104Y187487D01*
X202174Y187414D01*
X202246Y187343D01*
X202321Y187275D01*
X202399Y187210D01*
X202479Y187148D01*
X202561Y187089D01*
X202646Y187033D01*
X202733Y186981D01*
X202821Y186932D01*
X202912Y186886D01*
X203004Y186845D01*
X203098Y186806D01*
X203193Y186772D01*
X203289Y186741D01*
X203387Y186714D01*
X203485Y186690D01*
X203585Y186671D01*
X203685Y186655D01*
X203785Y186643D01*
X203886Y186635D01*
X203987Y186631D01*
X204089Y186631D01*
X204190Y186635D01*
X204291Y186643D01*
X204391Y186655D01*
X204491Y186671D01*
X204591Y186690D01*
X204689Y186714D01*
X204787Y186741D01*
X204883Y186772D01*
X204978Y186806D01*
X205072Y186845D01*
X205164Y186886D01*
X205255Y186932D01*
X205343Y186981D01*
X205430Y187033D01*
X205515Y187089D01*
X205597Y187148D01*
X205677Y187210D01*
X205755Y187275D01*
X205830Y187343D01*
X205902Y187414D01*
X205972Y187487D01*
X206038Y187564D01*
X206102Y187642D01*
X206162Y187724D01*
X206219Y187807D01*
X206273Y187893D01*
X206324Y187981D01*
X206371Y188070D01*
X206415Y188162D01*
X206455Y188255D01*
X206492Y188349D01*
X206524Y188445D01*
X206553Y188542D01*
X206579Y188640D01*
X206600Y188739D01*
X206618Y188839D01*
X206631Y188939D01*
X206641Y189040D01*
X206647Y189141D01*
X206649Y189242D01*
X206648Y189242D02*
X206648Y191853D01*
X206646Y191979D01*
X206640Y192105D01*
X206631Y192231D01*
X206618Y192356D01*
X206600Y192481D01*
X206580Y192606D01*
X206555Y192730D01*
X206527Y192853D01*
X206495Y192975D01*
X206459Y193096D01*
X206420Y193216D01*
X206377Y193334D01*
X206330Y193451D01*
X206280Y193567D01*
X206226Y193682D01*
X206170Y193794D01*
X206109Y193905D01*
X206046Y194014D01*
X205979Y194121D01*
X205909Y194226D01*
X205835Y194329D01*
X205759Y194429D01*
X205680Y194527D01*
X205598Y194623D01*
X205512Y194716D01*
X205425Y194807D01*
X205334Y194894D01*
X205241Y194980D01*
X205145Y195062D01*
X205047Y195141D01*
X204947Y195217D01*
X204844Y195291D01*
X204739Y195361D01*
X204632Y195428D01*
X204523Y195491D01*
X204412Y195552D01*
X204300Y195608D01*
X204185Y195662D01*
X204069Y195712D01*
X203952Y195759D01*
X203834Y195802D01*
X203714Y195841D01*
X203593Y195877D01*
X203471Y195909D01*
X203348Y195937D01*
X203224Y195962D01*
X203099Y195982D01*
X202974Y196000D01*
X202849Y196013D01*
X202723Y196022D01*
X202597Y196028D01*
X202471Y196030D01*
X275679Y288232D02*
X275679Y297630D01*
X273069Y297630D01*
X272968Y297628D01*
X272867Y297622D01*
X272766Y297612D01*
X272666Y297599D01*
X272566Y297581D01*
X272467Y297560D01*
X272369Y297534D01*
X272272Y297505D01*
X272176Y297473D01*
X272082Y297436D01*
X271989Y297396D01*
X271897Y297352D01*
X271808Y297305D01*
X271720Y297254D01*
X271634Y297200D01*
X271551Y297143D01*
X271469Y297083D01*
X271391Y297019D01*
X271314Y296953D01*
X271241Y296883D01*
X271170Y296811D01*
X271102Y296736D01*
X271037Y296658D01*
X270975Y296578D01*
X270916Y296496D01*
X270860Y296411D01*
X270808Y296325D01*
X270759Y296236D01*
X270713Y296145D01*
X270672Y296053D01*
X270633Y295959D01*
X270599Y295864D01*
X270568Y295768D01*
X270541Y295670D01*
X270517Y295572D01*
X270498Y295472D01*
X270482Y295372D01*
X270470Y295272D01*
X270462Y295171D01*
X270458Y295070D01*
X270458Y294968D01*
X270462Y294867D01*
X270470Y294766D01*
X270482Y294666D01*
X270498Y294566D01*
X270517Y294466D01*
X270541Y294368D01*
X270568Y294270D01*
X270599Y294174D01*
X270633Y294079D01*
X270672Y293985D01*
X270713Y293893D01*
X270759Y293802D01*
X270808Y293714D01*
X270860Y293627D01*
X270916Y293542D01*
X270975Y293460D01*
X271037Y293380D01*
X271102Y293302D01*
X271170Y293227D01*
X271241Y293155D01*
X271314Y293085D01*
X271391Y293019D01*
X271469Y292955D01*
X271551Y292895D01*
X271634Y292838D01*
X271720Y292784D01*
X271808Y292733D01*
X271897Y292686D01*
X271989Y292642D01*
X272082Y292602D01*
X272176Y292565D01*
X272272Y292533D01*
X272369Y292504D01*
X272467Y292478D01*
X272566Y292457D01*
X272666Y292439D01*
X272766Y292426D01*
X272867Y292416D01*
X272968Y292410D01*
X273069Y292408D01*
X275679Y292408D01*
X272546Y292408D02*
X270458Y288232D01*
X266592Y295541D02*
X263982Y297630D01*
X263982Y288232D01*
X266592Y288232D02*
X261371Y288232D01*
X257448Y296585D02*
X257448Y297630D01*
X252227Y297630D01*
X254838Y288232D01*
X291554Y194442D02*
X291554Y185044D01*
X291554Y194442D02*
X288944Y194442D01*
X288944Y194443D02*
X288843Y194441D01*
X288742Y194435D01*
X288641Y194425D01*
X288541Y194412D01*
X288441Y194394D01*
X288342Y194373D01*
X288244Y194347D01*
X288147Y194318D01*
X288051Y194286D01*
X287957Y194249D01*
X287864Y194209D01*
X287772Y194165D01*
X287683Y194118D01*
X287595Y194067D01*
X287509Y194013D01*
X287426Y193956D01*
X287344Y193896D01*
X287266Y193832D01*
X287189Y193766D01*
X287116Y193696D01*
X287045Y193624D01*
X286977Y193549D01*
X286912Y193471D01*
X286850Y193391D01*
X286791Y193309D01*
X286735Y193224D01*
X286683Y193138D01*
X286634Y193049D01*
X286588Y192958D01*
X286547Y192866D01*
X286508Y192772D01*
X286474Y192677D01*
X286443Y192581D01*
X286416Y192483D01*
X286392Y192385D01*
X286373Y192285D01*
X286357Y192185D01*
X286345Y192085D01*
X286337Y191984D01*
X286333Y191883D01*
X286333Y191781D01*
X286337Y191680D01*
X286345Y191579D01*
X286357Y191479D01*
X286373Y191379D01*
X286392Y191279D01*
X286416Y191181D01*
X286443Y191083D01*
X286474Y190987D01*
X286508Y190892D01*
X286547Y190798D01*
X286588Y190706D01*
X286634Y190615D01*
X286683Y190527D01*
X286735Y190440D01*
X286791Y190355D01*
X286850Y190273D01*
X286912Y190193D01*
X286977Y190115D01*
X287045Y190040D01*
X287116Y189968D01*
X287189Y189898D01*
X287266Y189832D01*
X287344Y189768D01*
X287426Y189708D01*
X287509Y189651D01*
X287595Y189597D01*
X287683Y189546D01*
X287772Y189499D01*
X287864Y189455D01*
X287957Y189415D01*
X288051Y189378D01*
X288147Y189346D01*
X288244Y189317D01*
X288342Y189291D01*
X288441Y189270D01*
X288541Y189252D01*
X288641Y189239D01*
X288742Y189229D01*
X288843Y189223D01*
X288944Y189221D01*
X291554Y189221D01*
X288421Y189221D02*
X286333Y185044D01*
X282467Y192354D02*
X279857Y194442D01*
X279857Y185044D01*
X282467Y185044D02*
X277246Y185044D01*
X271235Y189221D02*
X268102Y189221D01*
X271235Y189221D02*
X271324Y189223D01*
X271412Y189229D01*
X271500Y189238D01*
X271588Y189251D01*
X271675Y189268D01*
X271761Y189288D01*
X271846Y189313D01*
X271931Y189340D01*
X272014Y189372D01*
X272095Y189406D01*
X272175Y189445D01*
X272253Y189486D01*
X272330Y189531D01*
X272404Y189579D01*
X272477Y189630D01*
X272547Y189684D01*
X272614Y189742D01*
X272680Y189802D01*
X272742Y189864D01*
X272802Y189930D01*
X272860Y189997D01*
X272914Y190067D01*
X272965Y190140D01*
X273013Y190214D01*
X273058Y190291D01*
X273099Y190369D01*
X273138Y190449D01*
X273172Y190530D01*
X273204Y190613D01*
X273231Y190698D01*
X273256Y190783D01*
X273276Y190869D01*
X273293Y190956D01*
X273306Y191044D01*
X273315Y191132D01*
X273321Y191220D01*
X273323Y191309D01*
X273323Y191832D01*
X273324Y191832D02*
X273322Y191933D01*
X273316Y192034D01*
X273306Y192135D01*
X273293Y192235D01*
X273275Y192335D01*
X273254Y192434D01*
X273228Y192532D01*
X273199Y192629D01*
X273167Y192725D01*
X273130Y192819D01*
X273090Y192912D01*
X273046Y193004D01*
X272999Y193093D01*
X272948Y193181D01*
X272894Y193267D01*
X272837Y193350D01*
X272777Y193432D01*
X272713Y193510D01*
X272647Y193587D01*
X272577Y193660D01*
X272505Y193731D01*
X272430Y193799D01*
X272352Y193864D01*
X272272Y193926D01*
X272190Y193985D01*
X272105Y194041D01*
X272019Y194093D01*
X271930Y194142D01*
X271839Y194188D01*
X271747Y194229D01*
X271653Y194268D01*
X271558Y194302D01*
X271462Y194333D01*
X271364Y194360D01*
X271266Y194384D01*
X271166Y194403D01*
X271066Y194419D01*
X270966Y194431D01*
X270865Y194439D01*
X270764Y194443D01*
X270662Y194443D01*
X270561Y194439D01*
X270460Y194431D01*
X270360Y194419D01*
X270260Y194403D01*
X270160Y194384D01*
X270062Y194360D01*
X269964Y194333D01*
X269868Y194302D01*
X269773Y194268D01*
X269679Y194229D01*
X269587Y194188D01*
X269496Y194142D01*
X269408Y194093D01*
X269321Y194041D01*
X269236Y193985D01*
X269154Y193926D01*
X269074Y193864D01*
X268996Y193799D01*
X268921Y193731D01*
X268849Y193660D01*
X268779Y193587D01*
X268713Y193510D01*
X268649Y193432D01*
X268589Y193350D01*
X268532Y193267D01*
X268478Y193181D01*
X268427Y193093D01*
X268380Y193004D01*
X268336Y192912D01*
X268296Y192819D01*
X268259Y192725D01*
X268227Y192629D01*
X268198Y192532D01*
X268172Y192434D01*
X268151Y192335D01*
X268133Y192235D01*
X268120Y192135D01*
X268110Y192034D01*
X268104Y191933D01*
X268102Y191832D01*
X268102Y189221D01*
X268104Y189095D01*
X268110Y188969D01*
X268119Y188843D01*
X268132Y188718D01*
X268150Y188593D01*
X268170Y188468D01*
X268195Y188344D01*
X268223Y188221D01*
X268255Y188099D01*
X268291Y187978D01*
X268330Y187858D01*
X268373Y187740D01*
X268420Y187623D01*
X268470Y187507D01*
X268524Y187392D01*
X268580Y187280D01*
X268641Y187169D01*
X268704Y187060D01*
X268771Y186953D01*
X268841Y186848D01*
X268915Y186745D01*
X268991Y186645D01*
X269070Y186547D01*
X269152Y186451D01*
X269238Y186358D01*
X269325Y186267D01*
X269416Y186180D01*
X269509Y186094D01*
X269605Y186012D01*
X269703Y185933D01*
X269803Y185857D01*
X269906Y185783D01*
X270011Y185713D01*
X270118Y185646D01*
X270227Y185583D01*
X270338Y185522D01*
X270450Y185466D01*
X270565Y185412D01*
X270681Y185362D01*
X270798Y185315D01*
X270916Y185272D01*
X271036Y185233D01*
X271157Y185197D01*
X271279Y185165D01*
X271402Y185137D01*
X271526Y185112D01*
X271651Y185092D01*
X271776Y185074D01*
X271901Y185061D01*
X272027Y185052D01*
X272153Y185046D01*
X272279Y185044D01*
D121*
X91325Y170700D02*
X91325Y235700D01*
X91325Y170700D02*
X156325Y170700D01*
X156325Y235700D01*
X91325Y235700D01*
D122*
X96325Y257200D03*
D123*
X101825Y225200D03*
D118*
X131169Y209094D02*
X131169Y202422D01*
X131167Y202323D01*
X131161Y202223D01*
X131152Y202124D01*
X131138Y202026D01*
X131121Y201928D01*
X131100Y201830D01*
X131075Y201734D01*
X131046Y201639D01*
X131014Y201544D01*
X130978Y201452D01*
X130939Y201360D01*
X130896Y201270D01*
X130850Y201182D01*
X130800Y201096D01*
X130747Y201012D01*
X130691Y200930D01*
X130631Y200850D01*
X130569Y200773D01*
X130503Y200698D01*
X130435Y200625D01*
X130364Y200556D01*
X130290Y200489D01*
X130214Y200425D01*
X130135Y200364D01*
X130054Y200306D01*
X129971Y200251D01*
X129886Y200200D01*
X129799Y200152D01*
X129710Y200107D01*
X129619Y200066D01*
X129527Y200028D01*
X129434Y199994D01*
X129339Y199964D01*
X129243Y199937D01*
X129146Y199914D01*
X129049Y199895D01*
X128950Y199880D01*
X128851Y199868D01*
X128752Y199860D01*
X128653Y199856D01*
X128553Y199856D01*
X128454Y199860D01*
X128355Y199868D01*
X128256Y199880D01*
X128157Y199895D01*
X128060Y199914D01*
X127963Y199937D01*
X127867Y199964D01*
X127772Y199994D01*
X127679Y200028D01*
X127587Y200066D01*
X127496Y200107D01*
X127407Y200152D01*
X127320Y200200D01*
X127235Y200251D01*
X127152Y200306D01*
X127071Y200364D01*
X126992Y200425D01*
X126916Y200489D01*
X126842Y200556D01*
X126771Y200625D01*
X126703Y200698D01*
X126637Y200773D01*
X126575Y200850D01*
X126515Y200930D01*
X126459Y201012D01*
X126406Y201096D01*
X126356Y201182D01*
X126310Y201270D01*
X126267Y201360D01*
X126228Y201452D01*
X126192Y201544D01*
X126160Y201639D01*
X126131Y201734D01*
X126106Y201830D01*
X126085Y201928D01*
X126068Y202026D01*
X126054Y202124D01*
X126045Y202223D01*
X126039Y202323D01*
X126037Y202422D01*
X126037Y209094D01*
X121869Y207041D02*
X119303Y209094D01*
X119303Y199856D01*
X121869Y199856D02*
X116737Y199856D01*
M02*
