G04 EAGLE Gerber RS-274X export*
G75*
%MOMM*%
%FSLAX34Y34*%
%LPD*%
%INSolderpaste Bottom*%
%IPPOS*%
%AMOC8*
5,1,8,0,0,1.08239X$1,22.5*%
G01*
%ADD10R,1.100000X1.000000*%
%ADD11R,1.300000X1.500000*%
%ADD12R,1.000000X1.100000*%
%ADD13R,0.400000X1.399997*%
%ADD14R,1.000000X1.400000*%
%ADD15R,1.400000X1.000000*%
%ADD16C,0.124994*%
%ADD17R,5.699988X5.699988*%


D10*
X157725Y266700D03*
X140725Y266700D03*
D11*
X171425Y288925D03*
X152425Y288925D03*
D10*
X78813Y143669D03*
X95813Y143669D03*
D11*
X88131Y123031D03*
X107131Y123031D03*
D12*
X41275Y261375D03*
X41275Y278375D03*
X182563Y151044D03*
X182563Y168044D03*
D10*
X129150Y317500D03*
X112150Y317500D03*
X59300Y244475D03*
X42300Y244475D03*
D12*
X170425Y311150D03*
X153425Y311150D03*
X112150Y295275D03*
X129150Y295275D03*
D10*
X36513Y218050D03*
X36513Y201050D03*
D13*
X95950Y260350D03*
X107950Y260350D03*
X119950Y260350D03*
D14*
X203200Y259444D03*
X193700Y237444D03*
X212700Y237444D03*
D15*
X407875Y285750D03*
X385875Y295250D03*
X385875Y276250D03*
D14*
X517525Y185850D03*
X527025Y207850D03*
X508025Y207850D03*
X447675Y185850D03*
X457175Y207850D03*
X438175Y207850D03*
X412750Y185850D03*
X422250Y207850D03*
X403250Y207850D03*
D15*
X214200Y292100D03*
X192200Y301600D03*
X192200Y282600D03*
D14*
X482600Y185850D03*
X492100Y207850D03*
X473100Y207850D03*
D12*
X367275Y276225D03*
X350275Y276225D03*
D10*
X508000Y223275D03*
X508000Y240275D03*
X438150Y223275D03*
X438150Y240275D03*
D12*
X389500Y200025D03*
X372500Y200025D03*
D10*
X473075Y223275D03*
X473075Y240275D03*
D12*
X241863Y271463D03*
X224863Y271463D03*
X350275Y239713D03*
X367275Y239713D03*
X309000Y169069D03*
X326000Y169069D03*
X242325Y169069D03*
X259325Y169069D03*
X224400Y171450D03*
X207400Y171450D03*
X246625Y292100D03*
X229625Y292100D03*
X274075Y169069D03*
X291075Y169069D03*
D16*
X97744Y234825D02*
X96494Y234825D01*
X96494Y240575D01*
X97744Y240575D01*
X97744Y234825D01*
X97744Y236012D02*
X96494Y236012D01*
X96494Y237199D02*
X97744Y237199D01*
X97744Y238386D02*
X96494Y238386D01*
X96494Y239573D02*
X97744Y239573D01*
X101494Y234825D02*
X102744Y234825D01*
X101494Y234825D02*
X101494Y240575D01*
X102744Y240575D01*
X102744Y234825D01*
X102744Y236012D02*
X101494Y236012D01*
X101494Y237199D02*
X102744Y237199D01*
X102744Y238386D02*
X101494Y238386D01*
X101494Y239573D02*
X102744Y239573D01*
X106494Y234825D02*
X107744Y234825D01*
X106494Y234825D02*
X106494Y240575D01*
X107744Y240575D01*
X107744Y234825D01*
X107744Y236012D02*
X106494Y236012D01*
X106494Y237199D02*
X107744Y237199D01*
X107744Y238386D02*
X106494Y238386D01*
X106494Y239573D02*
X107744Y239573D01*
X111494Y234825D02*
X112744Y234825D01*
X111494Y234825D02*
X111494Y240575D01*
X112744Y240575D01*
X112744Y234825D01*
X112744Y236012D02*
X111494Y236012D01*
X111494Y237199D02*
X112744Y237199D01*
X112744Y238386D02*
X111494Y238386D01*
X111494Y239573D02*
X112744Y239573D01*
X116494Y234825D02*
X117744Y234825D01*
X116494Y234825D02*
X116494Y240575D01*
X117744Y240575D01*
X117744Y234825D01*
X117744Y236012D02*
X116494Y236012D01*
X116494Y237199D02*
X117744Y237199D01*
X117744Y238386D02*
X116494Y238386D01*
X116494Y239573D02*
X117744Y239573D01*
X121494Y234825D02*
X122744Y234825D01*
X121494Y234825D02*
X121494Y240575D01*
X122744Y240575D01*
X122744Y234825D01*
X122744Y236012D02*
X121494Y236012D01*
X121494Y237199D02*
X122744Y237199D01*
X122744Y238386D02*
X121494Y238386D01*
X121494Y239573D02*
X122744Y239573D01*
X126494Y234825D02*
X127744Y234825D01*
X126494Y234825D02*
X126494Y240575D01*
X127744Y240575D01*
X127744Y234825D01*
X127744Y236012D02*
X126494Y236012D01*
X126494Y237199D02*
X127744Y237199D01*
X127744Y238386D02*
X126494Y238386D01*
X126494Y239573D02*
X127744Y239573D01*
X131494Y234825D02*
X132744Y234825D01*
X131494Y234825D02*
X131494Y240575D01*
X132744Y240575D01*
X132744Y234825D01*
X132744Y236012D02*
X131494Y236012D01*
X131494Y237199D02*
X132744Y237199D01*
X132744Y238386D02*
X131494Y238386D01*
X131494Y239573D02*
X132744Y239573D01*
X136494Y234825D02*
X137744Y234825D01*
X136494Y234825D02*
X136494Y240575D01*
X137744Y240575D01*
X137744Y234825D01*
X137744Y236012D02*
X136494Y236012D01*
X136494Y237199D02*
X137744Y237199D01*
X137744Y238386D02*
X136494Y238386D01*
X136494Y239573D02*
X137744Y239573D01*
X141494Y234825D02*
X142744Y234825D01*
X141494Y234825D02*
X141494Y240575D01*
X142744Y240575D01*
X142744Y234825D01*
X142744Y236012D02*
X141494Y236012D01*
X141494Y237199D02*
X142744Y237199D01*
X142744Y238386D02*
X141494Y238386D01*
X141494Y239573D02*
X142744Y239573D01*
X146494Y234825D02*
X147744Y234825D01*
X146494Y234825D02*
X146494Y240575D01*
X147744Y240575D01*
X147744Y234825D01*
X147744Y236012D02*
X146494Y236012D01*
X146494Y237199D02*
X147744Y237199D01*
X147744Y238386D02*
X146494Y238386D01*
X146494Y239573D02*
X147744Y239573D01*
X151494Y234825D02*
X152744Y234825D01*
X151494Y234825D02*
X151494Y240575D01*
X152744Y240575D01*
X152744Y234825D01*
X152744Y236012D02*
X151494Y236012D01*
X151494Y237199D02*
X152744Y237199D01*
X152744Y238386D02*
X151494Y238386D01*
X151494Y239573D02*
X152744Y239573D01*
X156244Y231325D02*
X156244Y230075D01*
X156244Y231325D02*
X161994Y231325D01*
X161994Y230075D01*
X156244Y230075D01*
X156244Y231262D02*
X161994Y231262D01*
X156244Y226325D02*
X156244Y225075D01*
X156244Y226325D02*
X161994Y226325D01*
X161994Y225075D01*
X156244Y225075D01*
X156244Y226262D02*
X161994Y226262D01*
X156244Y221325D02*
X156244Y220075D01*
X156244Y221325D02*
X161994Y221325D01*
X161994Y220075D01*
X156244Y220075D01*
X156244Y221262D02*
X161994Y221262D01*
X156244Y216325D02*
X156244Y215075D01*
X156244Y216325D02*
X161994Y216325D01*
X161994Y215075D01*
X156244Y215075D01*
X156244Y216262D02*
X161994Y216262D01*
X156244Y211325D02*
X156244Y210075D01*
X156244Y211325D02*
X161994Y211325D01*
X161994Y210075D01*
X156244Y210075D01*
X156244Y211262D02*
X161994Y211262D01*
X156244Y206325D02*
X156244Y205075D01*
X156244Y206325D02*
X161994Y206325D01*
X161994Y205075D01*
X156244Y205075D01*
X156244Y206262D02*
X161994Y206262D01*
X156244Y201325D02*
X156244Y200075D01*
X156244Y201325D02*
X161994Y201325D01*
X161994Y200075D01*
X156244Y200075D01*
X156244Y201262D02*
X161994Y201262D01*
X156244Y196325D02*
X156244Y195075D01*
X156244Y196325D02*
X161994Y196325D01*
X161994Y195075D01*
X156244Y195075D01*
X156244Y196262D02*
X161994Y196262D01*
X156244Y191325D02*
X156244Y190075D01*
X156244Y191325D02*
X161994Y191325D01*
X161994Y190075D01*
X156244Y190075D01*
X156244Y191262D02*
X161994Y191262D01*
X156244Y186325D02*
X156244Y185075D01*
X156244Y186325D02*
X161994Y186325D01*
X161994Y185075D01*
X156244Y185075D01*
X156244Y186262D02*
X161994Y186262D01*
X156244Y181325D02*
X156244Y180075D01*
X156244Y181325D02*
X161994Y181325D01*
X161994Y180075D01*
X156244Y180075D01*
X156244Y181262D02*
X161994Y181262D01*
X156244Y176325D02*
X156244Y175075D01*
X156244Y176325D02*
X161994Y176325D01*
X161994Y175075D01*
X156244Y175075D01*
X156244Y176262D02*
X161994Y176262D01*
X152744Y171575D02*
X151494Y171575D01*
X152744Y171575D02*
X152744Y165825D01*
X151494Y165825D01*
X151494Y171575D01*
X151494Y167012D02*
X152744Y167012D01*
X152744Y168199D02*
X151494Y168199D01*
X151494Y169386D02*
X152744Y169386D01*
X152744Y170573D02*
X151494Y170573D01*
X147744Y171575D02*
X146494Y171575D01*
X147744Y171575D02*
X147744Y165825D01*
X146494Y165825D01*
X146494Y171575D01*
X146494Y167012D02*
X147744Y167012D01*
X147744Y168199D02*
X146494Y168199D01*
X146494Y169386D02*
X147744Y169386D01*
X147744Y170573D02*
X146494Y170573D01*
X142744Y171575D02*
X141494Y171575D01*
X142744Y171575D02*
X142744Y165825D01*
X141494Y165825D01*
X141494Y171575D01*
X141494Y167012D02*
X142744Y167012D01*
X142744Y168199D02*
X141494Y168199D01*
X141494Y169386D02*
X142744Y169386D01*
X142744Y170573D02*
X141494Y170573D01*
X137744Y171575D02*
X136494Y171575D01*
X137744Y171575D02*
X137744Y165825D01*
X136494Y165825D01*
X136494Y171575D01*
X136494Y167012D02*
X137744Y167012D01*
X137744Y168199D02*
X136494Y168199D01*
X136494Y169386D02*
X137744Y169386D01*
X137744Y170573D02*
X136494Y170573D01*
X132744Y171575D02*
X131494Y171575D01*
X132744Y171575D02*
X132744Y165825D01*
X131494Y165825D01*
X131494Y171575D01*
X131494Y167012D02*
X132744Y167012D01*
X132744Y168199D02*
X131494Y168199D01*
X131494Y169386D02*
X132744Y169386D01*
X132744Y170573D02*
X131494Y170573D01*
X127744Y171575D02*
X126494Y171575D01*
X127744Y171575D02*
X127744Y165825D01*
X126494Y165825D01*
X126494Y171575D01*
X126494Y167012D02*
X127744Y167012D01*
X127744Y168199D02*
X126494Y168199D01*
X126494Y169386D02*
X127744Y169386D01*
X127744Y170573D02*
X126494Y170573D01*
X122744Y171575D02*
X121494Y171575D01*
X122744Y171575D02*
X122744Y165825D01*
X121494Y165825D01*
X121494Y171575D01*
X121494Y167012D02*
X122744Y167012D01*
X122744Y168199D02*
X121494Y168199D01*
X121494Y169386D02*
X122744Y169386D01*
X122744Y170573D02*
X121494Y170573D01*
X117744Y171575D02*
X116494Y171575D01*
X117744Y171575D02*
X117744Y165825D01*
X116494Y165825D01*
X116494Y171575D01*
X116494Y167012D02*
X117744Y167012D01*
X117744Y168199D02*
X116494Y168199D01*
X116494Y169386D02*
X117744Y169386D01*
X117744Y170573D02*
X116494Y170573D01*
X112744Y171575D02*
X111494Y171575D01*
X112744Y171575D02*
X112744Y165825D01*
X111494Y165825D01*
X111494Y171575D01*
X111494Y167012D02*
X112744Y167012D01*
X112744Y168199D02*
X111494Y168199D01*
X111494Y169386D02*
X112744Y169386D01*
X112744Y170573D02*
X111494Y170573D01*
X107744Y171575D02*
X106494Y171575D01*
X107744Y171575D02*
X107744Y165825D01*
X106494Y165825D01*
X106494Y171575D01*
X106494Y167012D02*
X107744Y167012D01*
X107744Y168199D02*
X106494Y168199D01*
X106494Y169386D02*
X107744Y169386D01*
X107744Y170573D02*
X106494Y170573D01*
X102744Y171575D02*
X101494Y171575D01*
X102744Y171575D02*
X102744Y165825D01*
X101494Y165825D01*
X101494Y171575D01*
X101494Y167012D02*
X102744Y167012D01*
X102744Y168199D02*
X101494Y168199D01*
X101494Y169386D02*
X102744Y169386D01*
X102744Y170573D02*
X101494Y170573D01*
X97744Y171575D02*
X96494Y171575D01*
X97744Y171575D02*
X97744Y165825D01*
X96494Y165825D01*
X96494Y171575D01*
X96494Y167012D02*
X97744Y167012D01*
X97744Y168199D02*
X96494Y168199D01*
X96494Y169386D02*
X97744Y169386D01*
X97744Y170573D02*
X96494Y170573D01*
X92994Y175075D02*
X92994Y176325D01*
X92994Y175075D02*
X87244Y175075D01*
X87244Y176325D01*
X92994Y176325D01*
X92994Y176262D02*
X87244Y176262D01*
X92994Y180075D02*
X92994Y181325D01*
X92994Y180075D02*
X87244Y180075D01*
X87244Y181325D01*
X92994Y181325D01*
X92994Y181262D02*
X87244Y181262D01*
X92994Y185075D02*
X92994Y186325D01*
X92994Y185075D02*
X87244Y185075D01*
X87244Y186325D01*
X92994Y186325D01*
X92994Y186262D02*
X87244Y186262D01*
X92994Y190075D02*
X92994Y191325D01*
X92994Y190075D02*
X87244Y190075D01*
X87244Y191325D01*
X92994Y191325D01*
X92994Y191262D02*
X87244Y191262D01*
X92994Y195075D02*
X92994Y196325D01*
X92994Y195075D02*
X87244Y195075D01*
X87244Y196325D01*
X92994Y196325D01*
X92994Y196262D02*
X87244Y196262D01*
X92994Y200075D02*
X92994Y201325D01*
X92994Y200075D02*
X87244Y200075D01*
X87244Y201325D01*
X92994Y201325D01*
X92994Y201262D02*
X87244Y201262D01*
X92994Y205075D02*
X92994Y206325D01*
X92994Y205075D02*
X87244Y205075D01*
X87244Y206325D01*
X92994Y206325D01*
X92994Y206262D02*
X87244Y206262D01*
X92994Y210075D02*
X92994Y211325D01*
X92994Y210075D02*
X87244Y210075D01*
X87244Y211325D01*
X92994Y211325D01*
X92994Y211262D02*
X87244Y211262D01*
X92994Y215075D02*
X92994Y216325D01*
X92994Y215075D02*
X87244Y215075D01*
X87244Y216325D01*
X92994Y216325D01*
X92994Y216262D02*
X87244Y216262D01*
X92994Y220075D02*
X92994Y221325D01*
X92994Y220075D02*
X87244Y220075D01*
X87244Y221325D01*
X92994Y221325D01*
X92994Y221262D02*
X87244Y221262D01*
X92994Y225075D02*
X92994Y226325D01*
X92994Y225075D02*
X87244Y225075D01*
X87244Y226325D01*
X92994Y226325D01*
X92994Y226262D02*
X87244Y226262D01*
X92994Y230075D02*
X92994Y231325D01*
X92994Y230075D02*
X87244Y230075D01*
X87244Y231325D01*
X92994Y231325D01*
X92994Y231262D02*
X87244Y231262D01*
D17*
X124619Y203200D03*
M02*
