G04 EAGLE Gerber RS-274X export*
G75*
%MOMM*%
%FSLAX34Y34*%
%LPD*%
%INSolderpaste Bottom*%
%IPPOS*%
%AMOC8*
5,1,8,0,0,1.08239X$1,22.5*%
G01*
%ADD10R,1.100000X1.000000*%
%ADD11R,1.300000X1.500000*%
%ADD12R,1.000000X1.100000*%
%ADD13R,0.400000X1.399997*%
%ADD14R,1.000000X1.400000*%
%ADD15R,1.400000X1.000000*%
%ADD16R,0.300000X1.200000*%
%ADD17R,1.200000X0.300000*%


D10*
X157725Y266700D03*
X140725Y266700D03*
D11*
X171425Y288925D03*
X152425Y288925D03*
D10*
X78813Y139700D03*
X95813Y139700D03*
D11*
X92100Y119063D03*
X111100Y119063D03*
D12*
X41275Y261375D03*
X41275Y278375D03*
X187325Y156600D03*
X187325Y173600D03*
D10*
X129150Y317500D03*
X112150Y317500D03*
X59300Y241300D03*
X42300Y241300D03*
D12*
X170425Y311150D03*
X153425Y311150D03*
X112150Y295275D03*
X129150Y295275D03*
D10*
X36513Y221225D03*
X36513Y204225D03*
D13*
X95950Y269875D03*
X107950Y269875D03*
X119950Y269875D03*
D14*
X203200Y258650D03*
X193700Y236650D03*
X212700Y236650D03*
D15*
X407875Y285750D03*
X385875Y295250D03*
X385875Y276250D03*
D14*
X517525Y185850D03*
X527025Y207850D03*
X508025Y207850D03*
X447675Y185850D03*
X457175Y207850D03*
X438175Y207850D03*
X412750Y185850D03*
X422250Y207850D03*
X403250Y207850D03*
D15*
X214200Y292100D03*
X192200Y301600D03*
X192200Y282600D03*
D14*
X482600Y185850D03*
X492100Y207850D03*
X473100Y207850D03*
D12*
X367275Y276225D03*
X350275Y276225D03*
D10*
X508000Y223275D03*
X508000Y240275D03*
X438150Y223275D03*
X438150Y240275D03*
D12*
X389500Y200025D03*
X372500Y200025D03*
D10*
X473075Y223275D03*
X473075Y240275D03*
D12*
X241863Y271463D03*
X224863Y271463D03*
X350275Y238125D03*
X367275Y238125D03*
X309000Y171450D03*
X326000Y171450D03*
X242325Y171450D03*
X259325Y171450D03*
X224400Y171450D03*
X207400Y171450D03*
X246625Y292100D03*
X229625Y292100D03*
X274075Y171450D03*
X291075Y171450D03*
D16*
X96325Y245700D03*
X101325Y245700D03*
X106325Y245700D03*
X111325Y245700D03*
X116325Y245700D03*
X121325Y245700D03*
X126325Y245700D03*
X131325Y245700D03*
X136325Y245700D03*
X141325Y245700D03*
X146325Y245700D03*
X151325Y245700D03*
D17*
X166325Y230700D03*
X166325Y225700D03*
X166325Y220700D03*
X166325Y215700D03*
X166325Y210700D03*
X166325Y205700D03*
X166325Y200700D03*
X166325Y195700D03*
X166325Y190700D03*
X166325Y185700D03*
X166325Y180700D03*
X166325Y175700D03*
D16*
X151325Y160700D03*
X146325Y160700D03*
X141325Y160700D03*
X136325Y160700D03*
X131325Y160700D03*
X126325Y160700D03*
X121325Y160700D03*
X116325Y160700D03*
X111325Y160700D03*
X106325Y160700D03*
X101325Y160700D03*
X96325Y160700D03*
D17*
X81325Y175700D03*
X81325Y180700D03*
X81325Y185700D03*
X81325Y190700D03*
X81325Y195700D03*
X81325Y200700D03*
X81325Y205700D03*
X81325Y210700D03*
X81325Y215700D03*
X81325Y220700D03*
X81325Y225700D03*
X81325Y230700D03*
M02*
