M48
;GenerationSoftware,Autodesk,EAGLE,9.6.2*%
;CreationDate,2022-04-28T08:20:43Z*%
FMAT,2
ICI,OFF
METRIC,TZ,000.000
T4C0.350
T3C0.800
T2C0.813
T1C1.016
%
G90
M71
T1
X14843Y31829
X5398Y12779
X5398Y15319
X5398Y17859
T2
X40878Y10398
X40878Y7858
X48577Y7858
X54927Y16589
X57467Y16589
X57467Y23971
X54927Y23971
X48577Y10398
T3
X35243Y15240
X37783Y15240
X35243Y25400
X32702Y25400
X30162Y25400
X27622Y25400
X25082Y25400
X22542Y25400
X27622Y15240
X22542Y15240
X25082Y15240
X37783Y25400
X30162Y15240
X32702Y15240
T4
X13176Y8493
X6032Y21352
X18256Y30797
X20638Y30162
X6906Y18415
X20161Y22622
X17881Y22262
X8565Y13176
X16215Y12122
X9446Y20161
X5432Y28654
X3334Y20717
X22832Y10674
X19606Y31353
X18932Y13891
X8176Y25241
X20537Y13632
X19758Y12779
X10661Y12700
X17121Y12779
X17947Y13573
M30