M48
;GenerationSoftware,Autodesk,EAGLE,9.6.2*%
;CreationDate,2020-12-02T13:15:54Z*%
FMAT,2
ICI,OFF
METRIC,TZ,000.000
T3C0.400
T2C0.800
T1C0.813
%
G90
M71
T1
X40958Y10478
X57467Y24130
X54927Y24130
X57467Y16510
X54927Y16510
X48577Y7937
X48577Y10478
X40958Y7937
T2
X35243Y15240
X22542Y15240
X25082Y15240
X27622Y15240
X30162Y15240
X32702Y15240
X37783Y15240
X37783Y25400
X35243Y25400
X32702Y25400
X30162Y25400
X27622Y25400
X25082Y25400
X22542Y25400
T3
X6350Y20320
X6032Y22542
X14605Y13335
X6350Y16828
X5010Y22454
X9638Y19685
X5874Y19413
X21590Y13857
X18733Y11747
X26352Y13652
X47942Y27622
X19957Y13494
X19685Y18730
X16144Y24924
X6557Y27098
X5073Y30804
X18075Y25761
X16938Y25717
X7620Y27098
X17780Y10954
X18415Y18733
X952Y16669
X14922Y19685
X16510Y10954
X17463Y7302
X7937Y15081
X18733Y13970
X2857Y25717
X5080Y11747
X17145Y32544
X11271Y9843
X13970Y30480
X13970Y17621
X2699Y14129
X13176Y6667
X13176Y8573
X20164Y22463
X13970Y22542
X14922Y12382
X11112Y18070
X13452Y11589
X13494Y9843
X7302Y15875
X5398Y20638
X13176Y33973
X22384Y23177
X18098Y26829
M30