M48
;GenerationSoftware,Autodesk,EAGLE,9.6.2*%
;CreationDate,2021-04-20T00:58:42Z*%
FMAT,2
ICI,OFF
METRIC,TZ,000.000
T3C0.350
T2C0.800
T1C0.813
%
G90
M71
T1
X40958Y10478
X57467Y24130
X54927Y24130
X57467Y16510
X54927Y16510
X48577Y7937
X48577Y10478
X40958Y7937
T2
X35243Y15240
X22542Y15240
X25082Y15240
X27622Y15240
X30162Y15240
X32702Y15240
X37783Y15240
X37783Y25400
X35243Y25400
X32702Y25400
X30162Y25400
X27622Y25400
X25082Y25400
X22542Y25400
T3
X14764Y13573
X6906Y16986
X4851Y22534
X5556Y18574
X5794Y19572
X21669Y13936
X19050Y11589
X26352Y13891
X47942Y27622
X19877Y13494
X15319Y12224
X13176Y6588
X6715Y27178
X4835Y30645
X18234Y25682
X16938Y25638
X7779Y27178
X17859Y10874
X18733Y18336
X952Y16669
X16589Y10874
X17701Y7302
X19685Y18733
X9208Y15716
X2857Y25717
X6985Y12382
X15875Y32544
X10239Y10716
X14129Y30480
X15989Y16589
X2699Y14129
X13176Y8652
X23974Y22622
X13970Y22622
X12303Y18018
X13372Y11906
X15986Y24844
X13494Y9843
X8017Y15796
X4921Y20161
X13097Y33973
X22463Y23177
X18098Y26908
X5874Y20558
X6112Y22542
M30