G04 EAGLE Gerber RS-274X export*
G75*
%MOMM*%
%FSLAX34Y34*%
%LPD*%
%INBottom Copper*%
%IPPOS*%
%AMOC8*
5,1,8,0,0,1.08239X$1,22.5*%
G01*
%ADD10R,0.400000X1.399997*%
%ADD11C,1.000000*%
%ADD12R,1.400000X1.000000*%
%ADD13R,1.000000X1.400000*%
%ADD14C,1.422400*%
%ADD15R,0.254000X0.812800*%
%ADD16R,0.812800X0.254000*%
%ADD17R,5.511800X5.511800*%
%ADD18P,1.649562X8X22.500000*%
%ADD19P,1.429621X8X202.500000*%
%ADD20P,1.429621X8X112.500000*%
%ADD21R,1.000000X1.100000*%
%ADD22R,1.100000X1.000000*%
%ADD23R,1.500000X1.300000*%
%ADD24R,1.300000X1.500000*%
%ADD25C,1.524000*%
%ADD26C,0.254000*%
%ADD27C,0.609600*%
%ADD28C,0.508000*%
%ADD29C,0.756400*%
%ADD30C,0.304800*%
%ADD31C,0.406400*%

G36*
X449241Y29511D02*
X449241Y29511D01*
X449318Y29510D01*
X449342Y29519D01*
X449363Y29520D01*
X449402Y29541D01*
X449474Y29567D01*
X465974Y39067D01*
X465996Y39086D01*
X466022Y39099D01*
X466056Y39137D01*
X466059Y39139D01*
X466062Y39143D01*
X466070Y39152D01*
X466123Y39199D01*
X466136Y39225D01*
X466155Y39247D01*
X466178Y39314D01*
X466209Y39378D01*
X466211Y39407D01*
X466220Y39434D01*
X466215Y39506D01*
X466218Y39577D01*
X466208Y39604D01*
X466206Y39633D01*
X466164Y39723D01*
X466149Y39763D01*
X466142Y39771D01*
X466136Y39784D01*
X464413Y42280D01*
X580996Y109587D01*
X582274Y106887D01*
X582291Y106864D01*
X582301Y106837D01*
X582350Y106785D01*
X582393Y106727D01*
X582418Y106713D01*
X582437Y106692D01*
X582503Y106663D01*
X582565Y106627D01*
X582593Y106624D01*
X582619Y106612D01*
X582691Y106611D01*
X582762Y106602D01*
X582789Y106610D01*
X582818Y106610D01*
X582913Y106645D01*
X582953Y106656D01*
X582962Y106663D01*
X582974Y106667D01*
X599474Y116167D01*
X599533Y116219D01*
X599595Y116265D01*
X599606Y116284D01*
X599623Y116299D01*
X599657Y116369D01*
X599697Y116436D01*
X599701Y116461D01*
X599709Y116478D01*
X599711Y116523D01*
X599724Y116600D01*
X599724Y135600D01*
X599719Y135628D01*
X599721Y135656D01*
X599699Y135724D01*
X599685Y135795D01*
X599669Y135818D01*
X599660Y135845D01*
X599613Y135900D01*
X599572Y135959D01*
X599548Y135974D01*
X599530Y135996D01*
X599465Y136027D01*
X599405Y136066D01*
X599377Y136071D01*
X599351Y136083D01*
X599250Y136092D01*
X599208Y136099D01*
X599198Y136097D01*
X599185Y136098D01*
X596184Y135859D01*
X596184Y270541D01*
X599185Y270302D01*
X599214Y270306D01*
X599242Y270301D01*
X599311Y270318D01*
X599383Y270326D01*
X599407Y270341D01*
X599435Y270347D01*
X599493Y270390D01*
X599555Y270426D01*
X599572Y270448D01*
X599595Y270465D01*
X599632Y270527D01*
X599675Y270584D01*
X599682Y270612D01*
X599697Y270636D01*
X599713Y270736D01*
X599724Y270777D01*
X599722Y270787D01*
X599724Y270800D01*
X599724Y289800D01*
X599709Y289876D01*
X599700Y289954D01*
X599689Y289973D01*
X599685Y289995D01*
X599641Y290059D01*
X599602Y290127D01*
X599583Y290143D01*
X599572Y290159D01*
X599534Y290183D01*
X599474Y290233D01*
X582974Y299733D01*
X582947Y299742D01*
X582923Y299758D01*
X582853Y299773D01*
X582785Y299796D01*
X582757Y299793D01*
X582729Y299799D01*
X582659Y299786D01*
X582587Y299780D01*
X582562Y299767D01*
X582534Y299761D01*
X582474Y299721D01*
X582411Y299688D01*
X582393Y299666D01*
X582369Y299650D01*
X582311Y299567D01*
X582284Y299535D01*
X582281Y299524D01*
X582274Y299514D01*
X580996Y296813D01*
X464413Y364120D01*
X466136Y366616D01*
X466147Y366643D01*
X466166Y366665D01*
X466186Y366734D01*
X466214Y366799D01*
X466214Y366828D01*
X466222Y366856D01*
X466214Y366927D01*
X466215Y366998D01*
X466203Y367025D01*
X466200Y367054D01*
X466165Y367116D01*
X466137Y367181D01*
X466117Y367202D01*
X466102Y367227D01*
X466025Y367290D01*
X465995Y367320D01*
X465985Y367324D01*
X465974Y367333D01*
X449474Y376833D01*
X449401Y376857D01*
X449331Y376888D01*
X449307Y376888D01*
X449285Y376896D01*
X449209Y376890D01*
X449132Y376891D01*
X449108Y376881D01*
X449087Y376880D01*
X449048Y376859D01*
X448976Y376833D01*
X432476Y367333D01*
X432454Y367314D01*
X432428Y367301D01*
X432380Y367248D01*
X432327Y367201D01*
X432314Y367175D01*
X432295Y367154D01*
X432272Y367086D01*
X432241Y367022D01*
X432240Y366993D01*
X432230Y366966D01*
X432235Y366894D01*
X432232Y366823D01*
X432242Y366796D01*
X432244Y366767D01*
X432286Y366677D01*
X432301Y366637D01*
X432308Y366629D01*
X432314Y366616D01*
X434037Y364120D01*
X317449Y296810D01*
X316177Y299513D01*
X316159Y299536D01*
X316149Y299563D01*
X316100Y299615D01*
X316058Y299672D01*
X316033Y299687D01*
X316013Y299708D01*
X315948Y299737D01*
X315886Y299772D01*
X315857Y299776D01*
X315831Y299788D01*
X315760Y299789D01*
X315689Y299798D01*
X315661Y299790D01*
X315632Y299791D01*
X315539Y299756D01*
X315498Y299744D01*
X315489Y299737D01*
X315476Y299733D01*
X299225Y290376D01*
X282974Y299733D01*
X282947Y299742D01*
X282923Y299759D01*
X282853Y299773D01*
X282785Y299796D01*
X282756Y299793D01*
X282728Y299799D01*
X282658Y299785D01*
X282587Y299780D01*
X282561Y299766D01*
X282533Y299761D01*
X282474Y299721D01*
X282411Y299688D01*
X282392Y299666D01*
X282368Y299649D01*
X282311Y299567D01*
X282284Y299535D01*
X282281Y299524D01*
X282273Y299513D01*
X281001Y296810D01*
X249786Y314831D01*
X249759Y314843D01*
X249734Y314860D01*
X249599Y314913D01*
X249467Y314970D01*
X249437Y314975D01*
X249409Y314986D01*
X249266Y315007D01*
X249124Y315032D01*
X249094Y315031D01*
X249064Y315035D01*
X248920Y315022D01*
X248776Y315015D01*
X248747Y315007D01*
X248717Y315004D01*
X248579Y314959D01*
X248441Y314919D01*
X248414Y314904D01*
X248386Y314895D01*
X248262Y314820D01*
X248136Y314749D01*
X248114Y314729D01*
X248088Y314713D01*
X247908Y314548D01*
X247814Y314446D01*
X247797Y314424D01*
X247672Y314268D01*
X247130Y313473D01*
X247061Y313452D01*
X247050Y313445D01*
X247038Y313441D01*
X246900Y313357D01*
X246760Y313275D01*
X246751Y313266D01*
X246740Y313260D01*
X246560Y313094D01*
X245857Y312336D01*
X245850Y312326D01*
X245840Y312318D01*
X245747Y312186D01*
X245651Y312055D01*
X245646Y312044D01*
X245639Y312033D01*
X245578Y311884D01*
X245514Y311735D01*
X245514Y311732D01*
X244770Y311139D01*
X244751Y311120D01*
X244603Y310984D01*
X243949Y310279D01*
X243877Y310268D01*
X243865Y310263D01*
X243853Y310261D01*
X243704Y310198D01*
X243554Y310138D01*
X243543Y310131D01*
X243532Y310126D01*
X243329Y309989D01*
X242521Y309344D01*
X242512Y309335D01*
X242501Y309328D01*
X242390Y309212D01*
X242275Y309097D01*
X242268Y309086D01*
X242260Y309077D01*
X242177Y308939D01*
X242092Y308800D01*
X242091Y308798D01*
X241268Y308322D01*
X241245Y308306D01*
X241079Y308194D01*
X240328Y307594D01*
X240255Y307594D01*
X240242Y307591D01*
X240230Y307591D01*
X240074Y307551D01*
X239916Y307514D01*
X239904Y307508D01*
X239892Y307505D01*
X239671Y307400D01*
X238776Y306883D01*
X238766Y306875D01*
X238754Y306870D01*
X238626Y306771D01*
X238496Y306675D01*
X238488Y306665D01*
X238478Y306657D01*
X238375Y306532D01*
X238271Y306409D01*
X238269Y306407D01*
X237384Y306059D01*
X237360Y306046D01*
X237179Y305960D01*
X236346Y305479D01*
X236274Y305489D01*
X236261Y305488D01*
X236249Y305490D01*
X236088Y305474D01*
X235927Y305461D01*
X235915Y305457D01*
X235902Y305456D01*
X235668Y305385D01*
X234706Y305007D01*
X234695Y305001D01*
X234682Y304997D01*
X234540Y304919D01*
X234398Y304843D01*
X234388Y304835D01*
X234377Y304829D01*
X234258Y304720D01*
X234136Y304614D01*
X234134Y304612D01*
X233207Y304400D01*
X233180Y304390D01*
X232990Y304333D01*
X232094Y303981D01*
X232025Y304002D01*
X232012Y304003D01*
X232000Y304006D01*
X231837Y304015D01*
X231677Y304025D01*
X231664Y304023D01*
X231652Y304024D01*
X231410Y303989D01*
X230402Y303758D01*
X230390Y303754D01*
X230377Y303753D01*
X230225Y303696D01*
X230073Y303642D01*
X230062Y303636D01*
X230050Y303631D01*
X229916Y303542D01*
X229779Y303455D01*
X229778Y303453D01*
X228829Y303382D01*
X228801Y303376D01*
X228604Y303348D01*
X227666Y303133D01*
X227600Y303165D01*
X227588Y303167D01*
X227577Y303173D01*
X227418Y303205D01*
X227260Y303240D01*
X227247Y303239D01*
X227235Y303242D01*
X226991Y303243D01*
X225959Y303166D01*
X225947Y303163D01*
X225934Y303163D01*
X225776Y303130D01*
X225617Y303100D01*
X225606Y303095D01*
X225593Y303092D01*
X225447Y303024D01*
X225299Y302958D01*
X225297Y302957D01*
X224349Y303027D01*
X224320Y303026D01*
X224121Y303027D01*
X223161Y302955D01*
X223101Y302996D01*
X223089Y303000D01*
X223079Y303007D01*
X222927Y303063D01*
X222776Y303121D01*
X222763Y303122D01*
X222751Y303127D01*
X222510Y303164D01*
X221479Y303241D01*
X221466Y303241D01*
X221454Y303243D01*
X221292Y303234D01*
X221130Y303227D01*
X221118Y303224D01*
X221106Y303223D01*
X220950Y303178D01*
X220794Y303135D01*
X220792Y303133D01*
X219865Y303345D01*
X219838Y303348D01*
X219640Y303379D01*
X218680Y303450D01*
X218627Y303500D01*
X218616Y303506D01*
X218606Y303514D01*
X218465Y303591D01*
X218324Y303671D01*
X218312Y303675D01*
X218301Y303681D01*
X218067Y303754D01*
X217059Y303984D01*
X217046Y303986D01*
X217035Y303990D01*
X216874Y304005D01*
X216713Y304022D01*
X216700Y304021D01*
X216688Y304022D01*
X216527Y304000D01*
X216367Y303981D01*
X216364Y303980D01*
X215479Y304327D01*
X215452Y304334D01*
X215261Y304394D01*
X214323Y304608D01*
X214278Y304665D01*
X214268Y304672D01*
X214260Y304682D01*
X214131Y304780D01*
X214004Y304880D01*
X213992Y304885D01*
X213982Y304893D01*
X213762Y305000D01*
X212800Y305377D01*
X212787Y305381D01*
X212776Y305386D01*
X212619Y305425D01*
X212463Y305467D01*
X212450Y305467D01*
X212438Y305470D01*
X212275Y305472D01*
X212114Y305477D01*
X212112Y305477D01*
X211288Y305952D01*
X211263Y305963D01*
X211083Y306050D01*
X210187Y306402D01*
X210151Y306465D01*
X210142Y306474D01*
X210136Y306485D01*
X210023Y306601D01*
X209912Y306718D01*
X209901Y306725D01*
X209892Y306734D01*
X209691Y306873D01*
X208795Y307390D01*
X208784Y307395D01*
X208774Y307402D01*
X208623Y307464D01*
X208476Y307528D01*
X208463Y307531D01*
X208451Y307536D01*
X208292Y307562D01*
X208133Y307591D01*
X208120Y307590D01*
X208108Y307592D01*
X207863Y307584D01*
X207773Y307574D01*
X207692Y307589D01*
X207633Y307586D01*
X207574Y307591D01*
X207459Y307577D01*
X207344Y307571D01*
X207287Y307554D01*
X207228Y307547D01*
X207120Y307506D01*
X207009Y307474D01*
X206958Y307445D01*
X206902Y307424D01*
X206806Y307360D01*
X206705Y307304D01*
X206647Y307254D01*
X206612Y307231D01*
X206582Y307199D01*
X206519Y307145D01*
X197583Y298209D01*
X197504Y298110D01*
X197419Y298016D01*
X197396Y297974D01*
X197366Y297936D01*
X197312Y297822D01*
X197251Y297711D01*
X197238Y297665D01*
X197217Y297621D01*
X197191Y297498D01*
X197156Y297376D01*
X197151Y297315D01*
X197144Y297280D01*
X197145Y297232D01*
X197136Y297132D01*
X197136Y280551D01*
X197139Y280525D01*
X197137Y280499D01*
X197159Y280353D01*
X197176Y280205D01*
X197185Y280181D01*
X197189Y280155D01*
X197244Y280017D01*
X197294Y279877D01*
X197308Y279855D01*
X197318Y279831D01*
X197402Y279709D01*
X197483Y279584D01*
X197502Y279566D01*
X197517Y279545D01*
X197627Y279446D01*
X197734Y279342D01*
X197756Y279329D01*
X197776Y279311D01*
X197905Y279239D01*
X198033Y279163D01*
X198058Y279155D01*
X198081Y279143D01*
X198223Y279102D01*
X198365Y279057D01*
X198391Y279055D01*
X198416Y279048D01*
X198660Y279028D01*
X213746Y279028D01*
X215553Y277222D01*
X215631Y277159D01*
X215704Y277089D01*
X215767Y277051D01*
X215826Y277005D01*
X215916Y276962D01*
X216003Y276911D01*
X216073Y276888D01*
X216141Y276856D01*
X216239Y276835D01*
X216335Y276804D01*
X216409Y276798D01*
X216481Y276783D01*
X216582Y276785D01*
X216682Y276776D01*
X216756Y276787D01*
X216830Y276789D01*
X216927Y276813D01*
X217027Y276828D01*
X217096Y276856D01*
X217168Y276874D01*
X217257Y276920D01*
X217351Y276957D01*
X217412Y276999D01*
X217478Y277033D01*
X217554Y277098D01*
X217637Y277156D01*
X217686Y277211D01*
X217743Y277259D01*
X217803Y277340D01*
X217870Y277415D01*
X217906Y277480D01*
X217950Y277540D01*
X217990Y277632D01*
X218039Y277720D01*
X218059Y277791D01*
X218088Y277860D01*
X218106Y277958D01*
X218133Y278055D01*
X218141Y278155D01*
X218150Y278203D01*
X218148Y278238D01*
X218153Y278299D01*
X218153Y287040D01*
X219641Y288528D01*
X235746Y288528D01*
X237234Y287040D01*
X237234Y278170D01*
X237237Y278144D01*
X237235Y278118D01*
X237257Y277971D01*
X237274Y277824D01*
X237283Y277799D01*
X237287Y277773D01*
X237342Y277636D01*
X237392Y277496D01*
X237406Y277474D01*
X237416Y277449D01*
X237500Y277328D01*
X237581Y277203D01*
X237600Y277185D01*
X237615Y277163D01*
X237725Y277064D01*
X237832Y276961D01*
X237854Y276947D01*
X237874Y276930D01*
X238003Y276858D01*
X238131Y276782D01*
X238156Y276774D01*
X238179Y276761D01*
X238321Y276721D01*
X238463Y276676D01*
X238489Y276674D01*
X238514Y276667D01*
X238758Y276647D01*
X252640Y276647D01*
X254446Y274840D01*
X254525Y274778D01*
X254597Y274708D01*
X254661Y274670D01*
X254719Y274624D01*
X254810Y274581D01*
X254896Y274529D01*
X254967Y274507D01*
X255035Y274475D01*
X255133Y274454D01*
X255228Y274423D01*
X255303Y274417D01*
X255375Y274402D01*
X255476Y274403D01*
X255576Y274395D01*
X255649Y274406D01*
X255724Y274408D01*
X255821Y274432D01*
X255920Y274447D01*
X255990Y274474D01*
X256062Y274493D01*
X256151Y274539D01*
X256244Y274576D01*
X256305Y274618D01*
X256371Y274652D01*
X256448Y274717D01*
X256530Y274775D01*
X256580Y274830D01*
X256637Y274878D01*
X256697Y274959D01*
X256764Y275033D01*
X256800Y275098D01*
X256844Y275158D01*
X256884Y275250D01*
X256932Y275338D01*
X256953Y275410D01*
X256982Y275478D01*
X257000Y275577D01*
X257027Y275674D01*
X257035Y275774D01*
X257044Y275821D01*
X257042Y275857D01*
X257047Y275918D01*
X257047Y284659D01*
X258535Y286147D01*
X274640Y286147D01*
X276128Y284659D01*
X276128Y284138D01*
X276143Y284012D01*
X276149Y283886D01*
X276163Y283840D01*
X276168Y283792D01*
X276211Y283673D01*
X276246Y283551D01*
X276269Y283509D01*
X276286Y283464D01*
X276354Y283357D01*
X276416Y283247D01*
X276455Y283201D01*
X276475Y283171D01*
X276509Y283137D01*
X276574Y283061D01*
X293764Y265871D01*
X294538Y264003D01*
X294538Y263792D01*
X294555Y263643D01*
X294568Y263493D01*
X294575Y263470D01*
X294578Y263446D01*
X294628Y263305D01*
X294675Y263161D01*
X294687Y263141D01*
X294695Y263118D01*
X294777Y262991D01*
X294854Y262863D01*
X294871Y262845D01*
X294884Y262825D01*
X294993Y262720D01*
X295097Y262613D01*
X295118Y262600D01*
X295135Y262583D01*
X295264Y262506D01*
X295391Y262425D01*
X295413Y262416D01*
X295434Y262404D01*
X295577Y262358D01*
X295719Y262308D01*
X295743Y262305D01*
X295766Y262298D01*
X295915Y262286D01*
X296065Y262269D01*
X296089Y262272D01*
X296113Y262270D01*
X296262Y262292D01*
X296411Y262310D01*
X296439Y262319D01*
X296458Y262322D01*
X296502Y262339D01*
X296644Y262385D01*
X299705Y263653D01*
X303545Y263653D01*
X307093Y262183D01*
X309808Y259468D01*
X311278Y255920D01*
X311278Y252080D01*
X309808Y248532D01*
X307093Y245817D01*
X303545Y244347D01*
X299705Y244347D01*
X296644Y245615D01*
X296499Y245657D01*
X296356Y245702D01*
X296332Y245704D01*
X296309Y245711D01*
X296159Y245718D01*
X296009Y245730D01*
X295985Y245727D01*
X295961Y245728D01*
X295813Y245701D01*
X295664Y245678D01*
X295642Y245670D01*
X295618Y245665D01*
X295480Y245605D01*
X295340Y245550D01*
X295321Y245536D01*
X295298Y245526D01*
X295178Y245436D01*
X295054Y245351D01*
X295038Y245333D01*
X295019Y245318D01*
X294921Y245203D01*
X294821Y245092D01*
X294809Y245071D01*
X294794Y245052D01*
X294725Y244919D01*
X294652Y244787D01*
X294646Y244764D01*
X294635Y244742D01*
X294599Y244597D01*
X294558Y244452D01*
X294555Y244422D01*
X294551Y244404D01*
X294550Y244357D01*
X294538Y244208D01*
X294538Y240545D01*
X294541Y240519D01*
X294539Y240493D01*
X294561Y240346D01*
X294578Y240199D01*
X294587Y240174D01*
X294591Y240148D01*
X294645Y240011D01*
X294695Y239871D01*
X294710Y239849D01*
X294719Y239824D01*
X294804Y239703D01*
X294884Y239578D01*
X294903Y239560D01*
X294918Y239538D01*
X295028Y239439D01*
X295135Y239336D01*
X295158Y239322D01*
X295177Y239305D01*
X295307Y239233D01*
X295434Y239157D01*
X295459Y239149D01*
X295482Y239136D01*
X295625Y239096D01*
X295766Y239051D01*
X295792Y239049D01*
X295817Y239042D01*
X296061Y239022D01*
X302684Y239022D01*
X304172Y237534D01*
X304172Y224429D01*
X303451Y223708D01*
X303389Y223629D01*
X303319Y223557D01*
X303281Y223493D01*
X303235Y223435D01*
X303192Y223344D01*
X303140Y223258D01*
X303117Y223187D01*
X303086Y223120D01*
X303065Y223022D01*
X303034Y222926D01*
X303028Y222852D01*
X303012Y222779D01*
X303014Y222679D01*
X303006Y222579D01*
X303017Y222505D01*
X303018Y222431D01*
X303043Y222334D01*
X303058Y222234D01*
X303085Y222165D01*
X303103Y222093D01*
X303149Y222004D01*
X303186Y221910D01*
X303229Y221849D01*
X303263Y221783D01*
X303328Y221707D01*
X303385Y221624D01*
X303440Y221574D01*
X303489Y221518D01*
X303570Y221458D01*
X303644Y221391D01*
X303709Y221355D01*
X303769Y221310D01*
X303861Y221271D01*
X303949Y221222D01*
X304021Y221202D01*
X304089Y221172D01*
X304188Y221155D01*
X304285Y221127D01*
X304385Y221119D01*
X304432Y221111D01*
X304468Y221113D01*
X304528Y221108D01*
X334766Y221108D01*
X334792Y221111D01*
X334818Y221109D01*
X334965Y221131D01*
X335112Y221148D01*
X335137Y221156D01*
X335163Y221160D01*
X335301Y221215D01*
X335441Y221265D01*
X335463Y221279D01*
X335487Y221289D01*
X335609Y221374D01*
X335733Y221454D01*
X335752Y221473D01*
X335773Y221488D01*
X335872Y221598D01*
X335976Y221705D01*
X335989Y221727D01*
X336007Y221747D01*
X336078Y221877D01*
X336154Y222004D01*
X336162Y222029D01*
X336175Y222052D01*
X336216Y222195D01*
X336261Y222336D01*
X336263Y222362D01*
X336270Y222387D01*
X336290Y222631D01*
X336290Y245936D01*
X336278Y246036D01*
X336276Y246136D01*
X336258Y246208D01*
X336250Y246282D01*
X336216Y246377D01*
X336191Y246474D01*
X336157Y246540D01*
X336132Y246610D01*
X336078Y246695D01*
X336032Y246784D01*
X335983Y246841D01*
X335943Y246903D01*
X335871Y246973D01*
X335806Y247049D01*
X335746Y247094D01*
X335692Y247145D01*
X335606Y247197D01*
X335526Y247257D01*
X335457Y247286D01*
X335393Y247324D01*
X335298Y247355D01*
X335206Y247395D01*
X335132Y247408D01*
X335061Y247430D01*
X334961Y247438D01*
X334863Y247456D01*
X334788Y247452D01*
X334714Y247458D01*
X334615Y247443D01*
X334514Y247438D01*
X334443Y247418D01*
X334369Y247407D01*
X334276Y247370D01*
X334180Y247342D01*
X334115Y247305D01*
X334046Y247278D01*
X333963Y247221D01*
X333875Y247172D01*
X333799Y247106D01*
X333759Y247079D01*
X333736Y247053D01*
X333689Y247013D01*
X332493Y245817D01*
X328945Y244347D01*
X325105Y244347D01*
X321557Y245817D01*
X318842Y248532D01*
X317372Y252080D01*
X317372Y255920D01*
X318842Y259468D01*
X321557Y262183D01*
X325105Y263653D01*
X328945Y263653D01*
X332493Y262183D01*
X334876Y259800D01*
X334897Y259784D01*
X334914Y259764D01*
X335033Y259675D01*
X335149Y259583D01*
X335173Y259572D01*
X335194Y259556D01*
X335330Y259498D01*
X335464Y259434D01*
X335490Y259429D01*
X335514Y259418D01*
X335660Y259392D01*
X335805Y259361D01*
X335831Y259361D01*
X335857Y259357D01*
X336006Y259364D01*
X336153Y259367D01*
X336179Y259373D01*
X336205Y259375D01*
X336348Y259416D01*
X336491Y259452D01*
X336515Y259464D01*
X336540Y259471D01*
X336669Y259544D01*
X336801Y259612D01*
X336821Y259629D01*
X336844Y259641D01*
X337030Y259800D01*
X339117Y261886D01*
X346217Y268987D01*
X429380Y268987D01*
X429406Y268990D01*
X429432Y268988D01*
X429579Y269010D01*
X429726Y269027D01*
X429751Y269035D01*
X429777Y269039D01*
X429914Y269094D01*
X430054Y269144D01*
X430076Y269158D01*
X430101Y269168D01*
X430222Y269253D01*
X430347Y269333D01*
X430365Y269352D01*
X430387Y269367D01*
X430486Y269477D01*
X430589Y269584D01*
X430603Y269606D01*
X430620Y269626D01*
X430692Y269756D01*
X430768Y269883D01*
X430776Y269908D01*
X430789Y269931D01*
X430829Y270074D01*
X430874Y270215D01*
X430876Y270241D01*
X430883Y270266D01*
X430903Y270510D01*
X430903Y276159D01*
X432274Y277529D01*
X432290Y277550D01*
X432310Y277567D01*
X432398Y277686D01*
X432490Y277802D01*
X432501Y277826D01*
X432517Y277847D01*
X432576Y277983D01*
X432639Y278117D01*
X432645Y278143D01*
X432655Y278167D01*
X432681Y278312D01*
X432712Y278458D01*
X432712Y278484D01*
X432717Y278510D01*
X432709Y278658D01*
X432706Y278806D01*
X432700Y278832D01*
X432699Y278858D01*
X432658Y279001D01*
X432621Y279144D01*
X432609Y279168D01*
X432602Y279193D01*
X432530Y279323D01*
X432462Y279454D01*
X432445Y279474D01*
X432432Y279497D01*
X432274Y279683D01*
X430903Y281054D01*
X430903Y293159D01*
X432391Y294647D01*
X445496Y294647D01*
X447193Y292950D01*
X447250Y292868D01*
X447331Y292743D01*
X447350Y292725D01*
X447365Y292703D01*
X447475Y292604D01*
X447582Y292501D01*
X447604Y292487D01*
X447624Y292470D01*
X447753Y292398D01*
X447881Y292322D01*
X447906Y292314D01*
X447929Y292301D01*
X448071Y292261D01*
X448213Y292216D01*
X448239Y292214D01*
X448264Y292207D01*
X448508Y292187D01*
X448955Y292187D01*
X448981Y292190D01*
X449007Y292188D01*
X449154Y292210D01*
X449301Y292227D01*
X449326Y292236D01*
X449352Y292240D01*
X449489Y292294D01*
X449629Y292344D01*
X449651Y292359D01*
X449676Y292368D01*
X449797Y292453D01*
X449922Y292533D01*
X449940Y292552D01*
X449962Y292567D01*
X450061Y292677D01*
X450164Y292784D01*
X450178Y292807D01*
X450195Y292826D01*
X450267Y292956D01*
X450343Y293083D01*
X450351Y293108D01*
X450364Y293131D01*
X450404Y293274D01*
X450449Y293415D01*
X450451Y293441D01*
X450458Y293466D01*
X450478Y293710D01*
X450478Y296865D01*
X451966Y298353D01*
X464071Y298353D01*
X465559Y296865D01*
X465559Y280760D01*
X463753Y278954D01*
X463691Y278875D01*
X463621Y278803D01*
X463583Y278739D01*
X463536Y278681D01*
X463493Y278590D01*
X463442Y278504D01*
X463419Y278433D01*
X463387Y278365D01*
X463366Y278267D01*
X463336Y278172D01*
X463330Y278097D01*
X463314Y278025D01*
X463316Y277924D01*
X463308Y277824D01*
X463319Y277751D01*
X463320Y277676D01*
X463344Y277579D01*
X463359Y277480D01*
X463387Y277410D01*
X463405Y277338D01*
X463451Y277249D01*
X463488Y277156D01*
X463531Y277095D01*
X463565Y277029D01*
X463630Y276952D01*
X463687Y276870D01*
X463742Y276820D01*
X463790Y276763D01*
X463871Y276703D01*
X463946Y276636D01*
X464011Y276600D01*
X464071Y276556D01*
X464163Y276516D01*
X464251Y276468D01*
X464322Y276447D01*
X464391Y276418D01*
X464490Y276400D01*
X464586Y276373D01*
X464686Y276365D01*
X464734Y276356D01*
X464770Y276358D01*
X464830Y276353D01*
X473571Y276353D01*
X475059Y274865D01*
X475059Y274660D01*
X475062Y274634D01*
X475060Y274608D01*
X475082Y274461D01*
X475099Y274314D01*
X475108Y274289D01*
X475112Y274263D01*
X475167Y274125D01*
X475217Y273986D01*
X475231Y273964D01*
X475241Y273939D01*
X475325Y273818D01*
X475406Y273693D01*
X475425Y273675D01*
X475440Y273653D01*
X475550Y273554D01*
X475657Y273451D01*
X475679Y273437D01*
X475699Y273420D01*
X475828Y273348D01*
X475956Y273272D01*
X475981Y273264D01*
X476004Y273251D01*
X476146Y273211D01*
X476288Y273166D01*
X476314Y273164D01*
X476339Y273157D01*
X476583Y273137D01*
X488117Y273137D01*
X488143Y273140D01*
X488169Y273138D01*
X488316Y273160D01*
X488463Y273177D01*
X488488Y273186D01*
X488514Y273190D01*
X488652Y273244D01*
X488792Y273294D01*
X488814Y273309D01*
X488838Y273318D01*
X488960Y273403D01*
X489084Y273483D01*
X489103Y273502D01*
X489124Y273517D01*
X489223Y273627D01*
X489327Y273734D01*
X489340Y273757D01*
X489358Y273776D01*
X489429Y273906D01*
X489505Y274033D01*
X489513Y274058D01*
X489526Y274081D01*
X489567Y274224D01*
X489612Y274365D01*
X489614Y274391D01*
X489621Y274416D01*
X489641Y274660D01*
X489641Y278871D01*
X491129Y280359D01*
X504234Y280359D01*
X505722Y278871D01*
X505722Y266766D01*
X504351Y265396D01*
X504335Y265375D01*
X504315Y265358D01*
X504227Y265239D01*
X504135Y265123D01*
X504124Y265099D01*
X504108Y265078D01*
X504049Y264942D01*
X503986Y264808D01*
X503980Y264782D01*
X503970Y264758D01*
X503944Y264612D01*
X503913Y264467D01*
X503913Y264441D01*
X503908Y264415D01*
X503916Y264266D01*
X503919Y264119D01*
X503925Y264093D01*
X503926Y264067D01*
X503967Y263924D01*
X504004Y263781D01*
X504016Y263757D01*
X504023Y263732D01*
X504095Y263602D01*
X504163Y263471D01*
X504180Y263451D01*
X504193Y263428D01*
X504351Y263242D01*
X505931Y261662D01*
X505988Y261580D01*
X506068Y261456D01*
X506087Y261437D01*
X506102Y261416D01*
X506212Y261317D01*
X506319Y261213D01*
X506342Y261200D01*
X506361Y261182D01*
X506491Y261111D01*
X506618Y261035D01*
X506643Y261027D01*
X506666Y261014D01*
X506809Y260973D01*
X506950Y260928D01*
X506976Y260926D01*
X507001Y260919D01*
X507245Y260899D01*
X534179Y260899D01*
X536047Y260126D01*
X546869Y249303D01*
X546968Y249225D01*
X547062Y249140D01*
X547105Y249117D01*
X547142Y249087D01*
X547257Y249033D01*
X547367Y248972D01*
X547414Y248958D01*
X547457Y248938D01*
X547581Y248911D01*
X547703Y248877D01*
X547763Y248872D01*
X547798Y248864D01*
X547846Y248865D01*
X547946Y248857D01*
X553063Y248857D01*
X558420Y243500D01*
X558420Y235925D01*
X553063Y230568D01*
X546995Y230568D01*
X546969Y230565D01*
X546943Y230567D01*
X546796Y230545D01*
X546649Y230528D01*
X546624Y230519D01*
X546598Y230515D01*
X546461Y230460D01*
X546321Y230410D01*
X546299Y230396D01*
X546274Y230386D01*
X546153Y230302D01*
X546028Y230221D01*
X546010Y230202D01*
X545988Y230188D01*
X545889Y230078D01*
X545786Y229971D01*
X545772Y229948D01*
X545755Y229929D01*
X545683Y229799D01*
X545607Y229672D01*
X545599Y229647D01*
X545586Y229624D01*
X545546Y229481D01*
X545501Y229340D01*
X545499Y229314D01*
X545492Y229288D01*
X545472Y229045D01*
X545472Y224496D01*
X545472Y224494D01*
X545472Y224492D01*
X545492Y224321D01*
X545512Y224150D01*
X545513Y224148D01*
X545513Y224146D01*
X545588Y223913D01*
X546187Y222467D01*
X546187Y215281D01*
X546201Y215155D01*
X546208Y215029D01*
X546221Y214983D01*
X546227Y214935D01*
X546269Y214816D01*
X546304Y214694D01*
X546328Y214652D01*
X546344Y214607D01*
X546413Y214500D01*
X546475Y214390D01*
X546514Y214344D01*
X546533Y214314D01*
X546568Y214280D01*
X546633Y214204D01*
X548109Y212727D01*
X548109Y196623D01*
X546303Y194816D01*
X546241Y194738D01*
X546171Y194665D01*
X546133Y194601D01*
X546086Y194543D01*
X546043Y194452D01*
X545992Y194366D01*
X545969Y194295D01*
X545937Y194228D01*
X545916Y194130D01*
X545886Y194034D01*
X545880Y193960D01*
X545864Y193887D01*
X545866Y193787D01*
X545858Y193687D01*
X545869Y193613D01*
X545870Y193539D01*
X545894Y193442D01*
X545909Y193342D01*
X545937Y193273D01*
X545955Y193201D01*
X546001Y193112D01*
X546038Y193018D01*
X546081Y192957D01*
X546115Y192891D01*
X546180Y192815D01*
X546237Y192732D01*
X546292Y192682D01*
X546340Y192626D01*
X546421Y192566D01*
X546496Y192499D01*
X546561Y192463D01*
X546621Y192418D01*
X546713Y192379D01*
X546801Y192330D01*
X546872Y192310D01*
X546941Y192280D01*
X547040Y192263D01*
X547136Y192235D01*
X547236Y192227D01*
X547284Y192219D01*
X547320Y192221D01*
X547380Y192216D01*
X556121Y192216D01*
X557609Y190727D01*
X557609Y189279D01*
X557612Y189253D01*
X557610Y189227D01*
X557632Y189080D01*
X557649Y188933D01*
X557658Y188908D01*
X557662Y188882D01*
X557717Y188744D01*
X557767Y188605D01*
X557781Y188583D01*
X557791Y188558D01*
X557875Y188437D01*
X557956Y188312D01*
X557975Y188294D01*
X557990Y188272D01*
X558100Y188173D01*
X558207Y188070D01*
X558229Y188056D01*
X558249Y188039D01*
X558378Y187967D01*
X558506Y187891D01*
X558531Y187883D01*
X558554Y187870D01*
X558696Y187830D01*
X558838Y187785D01*
X558864Y187783D01*
X558889Y187775D01*
X559133Y187756D01*
X560781Y187756D01*
X562649Y186982D01*
X566600Y183031D01*
X567373Y181164D01*
X567373Y175202D01*
X567385Y175102D01*
X567386Y175002D01*
X567405Y174930D01*
X567413Y174856D01*
X567447Y174761D01*
X567471Y174664D01*
X567506Y174598D01*
X567531Y174528D01*
X567585Y174443D01*
X567631Y174354D01*
X567679Y174297D01*
X567720Y174235D01*
X567792Y174165D01*
X567857Y174089D01*
X567917Y174044D01*
X567970Y173993D01*
X568056Y173941D01*
X568137Y173881D01*
X568206Y173852D01*
X568269Y173814D01*
X568365Y173783D01*
X568457Y173743D01*
X568530Y173730D01*
X568601Y173708D01*
X568701Y173700D01*
X568800Y173682D01*
X568875Y173686D01*
X568949Y173680D01*
X569048Y173695D01*
X569148Y173700D01*
X569220Y173720D01*
X569293Y173731D01*
X569387Y173768D01*
X569483Y173796D01*
X569548Y173833D01*
X569617Y173860D01*
X569700Y173917D01*
X569787Y173966D01*
X569864Y174032D01*
X569903Y174059D01*
X569927Y174085D01*
X569974Y174125D01*
X570887Y175038D01*
X578463Y175038D01*
X583820Y169682D01*
X583820Y162106D01*
X578463Y156749D01*
X570887Y156749D01*
X569974Y157663D01*
X569895Y157725D01*
X569823Y157795D01*
X569759Y157833D01*
X569701Y157879D01*
X569610Y157922D01*
X569524Y157974D01*
X569453Y157996D01*
X569385Y158028D01*
X569287Y158049D01*
X569192Y158080D01*
X569117Y158086D01*
X569045Y158101D01*
X568944Y158100D01*
X568844Y158108D01*
X568771Y158097D01*
X568696Y158096D01*
X568599Y158071D01*
X568500Y158056D01*
X568430Y158029D01*
X568358Y158011D01*
X568269Y157965D01*
X568176Y157927D01*
X568115Y157885D01*
X568049Y157851D01*
X567972Y157786D01*
X567890Y157728D01*
X567840Y157673D01*
X567783Y157625D01*
X567723Y157544D01*
X567656Y157470D01*
X567620Y157404D01*
X567576Y157345D01*
X567536Y157253D01*
X567488Y157165D01*
X567467Y157093D01*
X567438Y157025D01*
X567420Y156926D01*
X567393Y156829D01*
X567385Y156729D01*
X567376Y156682D01*
X567378Y156646D01*
X567373Y156585D01*
X567373Y139483D01*
X566600Y137616D01*
X565171Y136187D01*
X563081Y135321D01*
X563014Y135284D01*
X562943Y135256D01*
X562863Y135200D01*
X562776Y135152D01*
X562720Y135100D01*
X562657Y135057D01*
X562591Y134984D01*
X562518Y134918D01*
X562475Y134855D01*
X562424Y134798D01*
X562376Y134712D01*
X562320Y134631D01*
X562292Y134560D01*
X562255Y134493D01*
X562228Y134398D01*
X562192Y134307D01*
X562181Y134231D01*
X562160Y134158D01*
X562148Y134009D01*
X562141Y133962D01*
X562143Y133944D01*
X560652Y132453D01*
X548548Y132453D01*
X547177Y133824D01*
X547157Y133840D01*
X547140Y133860D01*
X547020Y133948D01*
X546904Y134040D01*
X546880Y134051D01*
X546859Y134067D01*
X546723Y134126D01*
X546589Y134189D01*
X546563Y134195D01*
X546539Y134205D01*
X546393Y134231D01*
X546248Y134262D01*
X546222Y134262D01*
X546196Y134267D01*
X546048Y134259D01*
X545900Y134256D01*
X545874Y134250D01*
X545848Y134249D01*
X545706Y134208D01*
X545562Y134171D01*
X545539Y134159D01*
X545513Y134152D01*
X545384Y134080D01*
X545252Y134012D01*
X545232Y133995D01*
X545209Y133982D01*
X545023Y133824D01*
X543652Y132453D01*
X541113Y132453D01*
X540987Y132439D01*
X540861Y132432D01*
X540815Y132419D01*
X540767Y132413D01*
X540648Y132371D01*
X540526Y132336D01*
X540484Y132312D01*
X540439Y132296D01*
X540332Y132227D01*
X540222Y132165D01*
X540176Y132126D01*
X540146Y132107D01*
X540112Y132072D01*
X540036Y132007D01*
X494960Y86931D01*
X493812Y86456D01*
X493680Y86382D01*
X493547Y86314D01*
X493528Y86298D01*
X493507Y86286D01*
X493396Y86185D01*
X493281Y86088D01*
X493267Y86068D01*
X493249Y86052D01*
X493163Y85928D01*
X493074Y85808D01*
X493065Y85785D01*
X493051Y85765D01*
X492996Y85625D01*
X492936Y85487D01*
X492932Y85464D01*
X492923Y85441D01*
X492901Y85293D01*
X492875Y85144D01*
X492876Y85120D01*
X492872Y85096D01*
X492885Y84946D01*
X492893Y84796D01*
X492899Y84773D01*
X492901Y84749D01*
X492947Y84606D01*
X492989Y84462D01*
X493001Y84440D01*
X493008Y84417D01*
X493086Y84289D01*
X493159Y84157D01*
X493178Y84135D01*
X493188Y84119D01*
X493221Y84085D01*
X493318Y83971D01*
X494920Y82369D01*
X494920Y74793D01*
X489563Y69437D01*
X481987Y69437D01*
X476630Y74793D01*
X476630Y82369D01*
X477818Y83557D01*
X477881Y83636D01*
X477951Y83708D01*
X477989Y83772D01*
X478035Y83830D01*
X478078Y83921D01*
X478130Y84007D01*
X478152Y84078D01*
X478184Y84145D01*
X478205Y84244D01*
X478236Y84339D01*
X478242Y84413D01*
X478257Y84486D01*
X478256Y84586D01*
X478264Y84687D01*
X478253Y84760D01*
X478251Y84835D01*
X478227Y84932D01*
X478212Y85031D01*
X478185Y85100D01*
X478166Y85173D01*
X478120Y85262D01*
X478083Y85355D01*
X478041Y85416D01*
X478007Y85482D01*
X477942Y85559D01*
X477884Y85641D01*
X477829Y85691D01*
X477781Y85748D01*
X477700Y85808D01*
X477626Y85875D01*
X477561Y85911D01*
X477501Y85955D01*
X477408Y85995D01*
X477321Y86043D01*
X477249Y86064D01*
X477181Y86093D01*
X477082Y86111D01*
X476985Y86138D01*
X476885Y86146D01*
X476838Y86155D01*
X476802Y86153D01*
X476741Y86158D01*
X417815Y86158D01*
X417715Y86146D01*
X417615Y86144D01*
X417543Y86126D01*
X417469Y86118D01*
X417374Y86084D01*
X417277Y86059D01*
X417211Y86025D01*
X417141Y86000D01*
X417056Y85946D01*
X416967Y85900D01*
X416910Y85852D01*
X416848Y85811D01*
X416778Y85739D01*
X416701Y85674D01*
X416657Y85614D01*
X416606Y85561D01*
X416554Y85474D01*
X416494Y85394D01*
X416465Y85325D01*
X416427Y85262D01*
X416396Y85166D01*
X416356Y85074D01*
X416343Y85000D01*
X416320Y84930D01*
X416312Y84830D01*
X416295Y84731D01*
X416298Y84656D01*
X416293Y84582D01*
X416307Y84483D01*
X416313Y84383D01*
X416333Y84311D01*
X416344Y84238D01*
X416381Y84144D01*
X416409Y84048D01*
X416445Y83983D01*
X416473Y83914D01*
X416530Y83831D01*
X416579Y83744D01*
X416644Y83667D01*
X416672Y83628D01*
X416698Y83604D01*
X416738Y83557D01*
X417926Y82369D01*
X417926Y74793D01*
X412569Y69437D01*
X404993Y69437D01*
X399637Y74793D01*
X399637Y82369D01*
X400825Y83557D01*
X400887Y83636D01*
X400957Y83708D01*
X400995Y83772D01*
X401041Y83830D01*
X401084Y83921D01*
X401136Y84007D01*
X401158Y84078D01*
X401190Y84145D01*
X401211Y84244D01*
X401242Y84339D01*
X401248Y84413D01*
X401264Y84486D01*
X401262Y84586D01*
X401270Y84687D01*
X401259Y84760D01*
X401258Y84835D01*
X401233Y84932D01*
X401218Y85031D01*
X401191Y85100D01*
X401173Y85173D01*
X401127Y85262D01*
X401090Y85355D01*
X401047Y85416D01*
X401013Y85482D01*
X400948Y85559D01*
X400891Y85641D01*
X400835Y85691D01*
X400787Y85748D01*
X400706Y85808D01*
X400632Y85875D01*
X400567Y85911D01*
X400507Y85955D01*
X400415Y85995D01*
X400327Y86043D01*
X400255Y86064D01*
X400187Y86093D01*
X400088Y86111D01*
X399991Y86138D01*
X399891Y86146D01*
X399844Y86155D01*
X399808Y86153D01*
X399748Y86158D01*
X395071Y86158D01*
X393203Y86931D01*
X391774Y88360D01*
X391001Y90228D01*
X391001Y98865D01*
X390986Y98990D01*
X390980Y99116D01*
X390966Y99163D01*
X390961Y99211D01*
X390918Y99330D01*
X390883Y99451D01*
X390859Y99493D01*
X390843Y99539D01*
X390775Y99645D01*
X390713Y99755D01*
X390673Y99802D01*
X390654Y99832D01*
X390619Y99865D01*
X390554Y99942D01*
X387343Y103153D01*
X387244Y103232D01*
X387150Y103317D01*
X387107Y103340D01*
X387070Y103370D01*
X386955Y103424D01*
X386845Y103485D01*
X386798Y103498D01*
X386755Y103519D01*
X386631Y103545D01*
X386509Y103580D01*
X386449Y103585D01*
X386414Y103592D01*
X386366Y103591D01*
X386266Y103600D01*
X352851Y103600D01*
X350984Y104373D01*
X349341Y106016D01*
X349340Y106017D01*
X310194Y145163D01*
X310173Y145180D01*
X310156Y145200D01*
X310037Y145288D01*
X309921Y145380D01*
X309897Y145391D01*
X309876Y145407D01*
X309740Y145465D01*
X309605Y145529D01*
X309580Y145534D01*
X309556Y145545D01*
X309409Y145571D01*
X309265Y145602D01*
X309239Y145602D01*
X309213Y145606D01*
X309064Y145599D01*
X308916Y145596D01*
X308891Y145590D01*
X308865Y145588D01*
X308722Y145547D01*
X308578Y145511D01*
X308555Y145499D01*
X308530Y145492D01*
X308401Y145420D01*
X308268Y145352D01*
X308248Y145335D01*
X308226Y145322D01*
X308039Y145163D01*
X307093Y144217D01*
X303545Y142747D01*
X299705Y142747D01*
X296157Y144217D01*
X293442Y146932D01*
X292059Y150271D01*
X291986Y150402D01*
X291917Y150536D01*
X291901Y150555D01*
X291889Y150576D01*
X291788Y150687D01*
X291691Y150802D01*
X291672Y150816D01*
X291655Y150834D01*
X291532Y150920D01*
X291411Y151009D01*
X291388Y151018D01*
X291369Y151032D01*
X291229Y151087D01*
X291091Y151147D01*
X291067Y151151D01*
X291044Y151160D01*
X290896Y151182D01*
X290748Y151209D01*
X290724Y151207D01*
X290700Y151211D01*
X290549Y151198D01*
X290400Y151191D01*
X290376Y151184D01*
X290352Y151182D01*
X290209Y151136D01*
X290065Y151094D01*
X290044Y151082D01*
X290021Y151075D01*
X289892Y150997D01*
X289761Y150924D01*
X289738Y150905D01*
X289722Y150895D01*
X289688Y150862D01*
X289574Y150765D01*
X286902Y148093D01*
X284906Y147266D01*
X284904Y147265D01*
X284902Y147265D01*
X284748Y147178D01*
X284602Y147097D01*
X284600Y147095D01*
X284598Y147094D01*
X284412Y146936D01*
X281693Y144217D01*
X278145Y142747D01*
X274305Y142747D01*
X270757Y144217D01*
X268042Y146932D01*
X266659Y150271D01*
X266586Y150402D01*
X266517Y150536D01*
X266501Y150555D01*
X266489Y150576D01*
X266388Y150687D01*
X266291Y150802D01*
X266272Y150816D01*
X266255Y150834D01*
X266132Y150920D01*
X266011Y151009D01*
X265988Y151018D01*
X265969Y151032D01*
X265829Y151087D01*
X265691Y151147D01*
X265667Y151151D01*
X265644Y151160D01*
X265496Y151182D01*
X265348Y151209D01*
X265324Y151207D01*
X265300Y151211D01*
X265149Y151198D01*
X265000Y151191D01*
X264976Y151184D01*
X264952Y151182D01*
X264809Y151136D01*
X264665Y151094D01*
X264644Y151082D01*
X264621Y151075D01*
X264492Y150997D01*
X264361Y150924D01*
X264338Y150905D01*
X264322Y150895D01*
X264288Y150862D01*
X264174Y150765D01*
X261502Y148093D01*
X259506Y147266D01*
X259504Y147265D01*
X259502Y147265D01*
X259350Y147179D01*
X259202Y147097D01*
X259200Y147096D01*
X259198Y147095D01*
X259012Y146936D01*
X256293Y144217D01*
X252745Y142747D01*
X248905Y142747D01*
X245357Y144217D01*
X242642Y146932D01*
X241067Y150734D01*
X240994Y150866D01*
X240925Y150999D01*
X240909Y151018D01*
X240898Y151039D01*
X240797Y151150D01*
X240699Y151265D01*
X240680Y151279D01*
X240663Y151297D01*
X240540Y151383D01*
X240419Y151472D01*
X240397Y151482D01*
X240377Y151495D01*
X240237Y151550D01*
X240099Y151610D01*
X240075Y151614D01*
X240053Y151623D01*
X239904Y151645D01*
X239756Y151672D01*
X239732Y151670D01*
X239708Y151674D01*
X239558Y151661D01*
X239408Y151654D01*
X239385Y151647D01*
X239360Y151645D01*
X239217Y151599D01*
X239073Y151557D01*
X239052Y151545D01*
X239029Y151538D01*
X238900Y151460D01*
X238769Y151387D01*
X238747Y151368D01*
X238730Y151358D01*
X238696Y151325D01*
X238583Y151229D01*
X235447Y148093D01*
X234391Y147655D01*
X234280Y147594D01*
X234166Y147540D01*
X234128Y147509D01*
X234086Y147486D01*
X233992Y147401D01*
X233894Y147322D01*
X233864Y147284D01*
X233828Y147252D01*
X233756Y147148D01*
X233678Y147049D01*
X233650Y146995D01*
X233630Y146965D01*
X233622Y146946D01*
X230893Y144217D01*
X227197Y142686D01*
X227066Y142613D01*
X226932Y142544D01*
X226914Y142528D01*
X226893Y142517D01*
X226781Y142416D01*
X226667Y142318D01*
X226652Y142299D01*
X226634Y142283D01*
X226549Y142159D01*
X226460Y142038D01*
X226450Y142016D01*
X226436Y141996D01*
X226381Y141856D01*
X226322Y141718D01*
X226317Y141694D01*
X226308Y141672D01*
X226287Y141523D01*
X226260Y141375D01*
X226261Y141351D01*
X226258Y141327D01*
X226270Y141177D01*
X226278Y141027D01*
X226285Y141004D01*
X226287Y140980D01*
X226333Y140836D01*
X226374Y140692D01*
X226386Y140671D01*
X226394Y140648D01*
X226471Y140519D01*
X226545Y140388D01*
X226563Y140366D01*
X226573Y140349D01*
X226606Y140315D01*
X226703Y140202D01*
X229555Y137350D01*
X232382Y134523D01*
X232382Y112244D01*
X232396Y112119D01*
X232403Y111992D01*
X232416Y111946D01*
X232422Y111898D01*
X232464Y111779D01*
X232499Y111658D01*
X232523Y111615D01*
X232539Y111570D01*
X232608Y111464D01*
X232669Y111353D01*
X232709Y111307D01*
X232728Y111277D01*
X232763Y111244D01*
X232828Y111167D01*
X233677Y110318D01*
X234640Y107994D01*
X234640Y105479D01*
X233808Y103470D01*
X233786Y103393D01*
X233754Y103320D01*
X233738Y103226D01*
X233712Y103135D01*
X233708Y103055D01*
X233694Y102976D01*
X233700Y102882D01*
X233695Y102787D01*
X233709Y102708D01*
X233714Y102628D01*
X233741Y102537D01*
X233758Y102444D01*
X233789Y102371D01*
X233812Y102294D01*
X233877Y102169D01*
X233896Y102124D01*
X233909Y102107D01*
X233925Y102077D01*
X233973Y102001D01*
X233981Y101991D01*
X233986Y101980D01*
X234089Y101856D01*
X234191Y101729D01*
X234200Y101721D01*
X234209Y101712D01*
X234337Y101614D01*
X234465Y101514D01*
X234476Y101508D01*
X234486Y101501D01*
X234706Y101393D01*
X235668Y101015D01*
X235680Y101012D01*
X235692Y101006D01*
X235849Y100967D01*
X236005Y100926D01*
X236017Y100925D01*
X236030Y100922D01*
X236192Y100920D01*
X236353Y100915D01*
X236356Y100916D01*
X237179Y100440D01*
X237205Y100429D01*
X237384Y100341D01*
X238280Y99989D01*
X238316Y99926D01*
X238325Y99917D01*
X238331Y99906D01*
X238444Y99790D01*
X238555Y99672D01*
X238566Y99665D01*
X238574Y99656D01*
X238776Y99517D01*
X239671Y99000D01*
X239683Y98995D01*
X239693Y98988D01*
X239843Y98926D01*
X239991Y98861D01*
X240003Y98859D01*
X240015Y98854D01*
X240175Y98828D01*
X240334Y98799D01*
X240336Y98799D01*
X241079Y98206D01*
X241103Y98191D01*
X241268Y98078D01*
X242101Y97596D01*
X242127Y97529D01*
X242135Y97518D01*
X242139Y97507D01*
X242234Y97375D01*
X242326Y97242D01*
X242335Y97234D01*
X242342Y97223D01*
X242521Y97056D01*
X243329Y96411D01*
X243340Y96404D01*
X243349Y96396D01*
X243487Y96312D01*
X243624Y96226D01*
X243636Y96222D01*
X243647Y96216D01*
X243801Y96166D01*
X243954Y96113D01*
X243957Y96113D01*
X244603Y95416D01*
X244625Y95397D01*
X244770Y95261D01*
X245522Y94661D01*
X245539Y94590D01*
X245544Y94578D01*
X245547Y94566D01*
X245621Y94422D01*
X245692Y94277D01*
X245700Y94267D01*
X245706Y94256D01*
X245857Y94064D01*
X246560Y93306D01*
X246570Y93297D01*
X246577Y93287D01*
X246702Y93184D01*
X246825Y93079D01*
X246836Y93073D01*
X246846Y93065D01*
X246990Y92993D01*
X247134Y92918D01*
X247136Y92918D01*
X247672Y92132D01*
X247690Y92111D01*
X247814Y91954D01*
X247908Y91852D01*
X247931Y91832D01*
X247950Y91809D01*
X248063Y91719D01*
X248173Y91625D01*
X248199Y91611D01*
X248223Y91593D01*
X248354Y91531D01*
X248482Y91465D01*
X248511Y91457D01*
X248538Y91444D01*
X248680Y91414D01*
X248820Y91378D01*
X248850Y91378D01*
X248879Y91371D01*
X249024Y91374D01*
X249168Y91371D01*
X249197Y91378D01*
X249228Y91378D01*
X249368Y91414D01*
X249509Y91443D01*
X249536Y91456D01*
X249566Y91464D01*
X249786Y91569D01*
X281002Y109590D01*
X282273Y106887D01*
X282291Y106864D01*
X282301Y106837D01*
X282350Y106785D01*
X282392Y106728D01*
X282417Y106713D01*
X282437Y106692D01*
X282502Y106663D01*
X282564Y106628D01*
X282593Y106624D01*
X282619Y106612D01*
X282690Y106611D01*
X282761Y106602D01*
X282789Y106610D01*
X282818Y106610D01*
X282911Y106644D01*
X282952Y106656D01*
X282961Y106663D01*
X282974Y106667D01*
X299225Y116024D01*
X315476Y106667D01*
X315504Y106658D01*
X315528Y106641D01*
X315597Y106627D01*
X315665Y106604D01*
X315694Y106607D01*
X315722Y106601D01*
X315792Y106615D01*
X315863Y106620D01*
X315889Y106634D01*
X315917Y106639D01*
X315976Y106679D01*
X316039Y106712D01*
X316058Y106734D01*
X316082Y106751D01*
X316139Y106833D01*
X316166Y106865D01*
X316169Y106876D01*
X316177Y106887D01*
X317449Y109590D01*
X434037Y42280D01*
X432314Y39784D01*
X432303Y39757D01*
X432284Y39735D01*
X432264Y39666D01*
X432236Y39601D01*
X432236Y39572D01*
X432228Y39544D01*
X432236Y39473D01*
X432236Y39402D01*
X432247Y39375D01*
X432250Y39346D01*
X432285Y39284D01*
X432313Y39219D01*
X432333Y39198D01*
X432348Y39173D01*
X432411Y39121D01*
X432415Y39116D01*
X432424Y39110D01*
X432425Y39110D01*
X432455Y39080D01*
X432465Y39076D01*
X432476Y39067D01*
X448976Y29567D01*
X449049Y29543D01*
X449119Y29512D01*
X449143Y29512D01*
X449165Y29504D01*
X449241Y29511D01*
G37*
G36*
X49530Y91378D02*
X49530Y91378D01*
X49674Y91385D01*
X49703Y91393D01*
X49733Y91396D01*
X49871Y91441D01*
X50009Y91481D01*
X50036Y91496D01*
X50064Y91505D01*
X50188Y91580D01*
X50314Y91651D01*
X50336Y91671D01*
X50362Y91687D01*
X50542Y91852D01*
X50636Y91954D01*
X50653Y91976D01*
X50778Y92132D01*
X51320Y92927D01*
X51389Y92948D01*
X51400Y92955D01*
X51412Y92959D01*
X51551Y93043D01*
X51690Y93125D01*
X51699Y93134D01*
X51710Y93140D01*
X51890Y93306D01*
X52593Y94064D01*
X52601Y94074D01*
X52610Y94082D01*
X52703Y94214D01*
X52799Y94345D01*
X52804Y94356D01*
X52811Y94367D01*
X52873Y94517D01*
X52936Y94665D01*
X52936Y94668D01*
X53680Y95261D01*
X53699Y95280D01*
X53847Y95416D01*
X54501Y96121D01*
X54573Y96132D01*
X54585Y96137D01*
X54597Y96139D01*
X54746Y96202D01*
X54896Y96262D01*
X54907Y96269D01*
X54918Y96274D01*
X55121Y96411D01*
X55929Y97056D01*
X55938Y97065D01*
X55949Y97072D01*
X56060Y97188D01*
X56175Y97303D01*
X56182Y97314D01*
X56190Y97323D01*
X56273Y97461D01*
X56358Y97600D01*
X56359Y97602D01*
X57182Y98078D01*
X57205Y98094D01*
X57371Y98206D01*
X58122Y98806D01*
X58195Y98806D01*
X58208Y98809D01*
X58220Y98809D01*
X58376Y98849D01*
X58534Y98886D01*
X58546Y98892D01*
X58558Y98895D01*
X58779Y99000D01*
X59674Y99517D01*
X59684Y99525D01*
X59696Y99530D01*
X59824Y99629D01*
X59954Y99725D01*
X59962Y99735D01*
X59972Y99743D01*
X60075Y99868D01*
X60179Y99991D01*
X60181Y99993D01*
X61066Y100341D01*
X61090Y100354D01*
X61271Y100440D01*
X62104Y100921D01*
X62176Y100911D01*
X62189Y100912D01*
X62201Y100910D01*
X62362Y100926D01*
X62523Y100939D01*
X62535Y100943D01*
X62548Y100944D01*
X62782Y101015D01*
X63744Y101393D01*
X63755Y101399D01*
X63768Y101403D01*
X63909Y101481D01*
X64052Y101557D01*
X64062Y101565D01*
X64073Y101571D01*
X64192Y101679D01*
X64314Y101786D01*
X64316Y101788D01*
X65243Y102000D01*
X65270Y102010D01*
X65461Y102067D01*
X66356Y102419D01*
X66425Y102398D01*
X66438Y102397D01*
X66450Y102394D01*
X66613Y102385D01*
X66773Y102375D01*
X66786Y102377D01*
X66798Y102376D01*
X67040Y102411D01*
X68048Y102642D01*
X68060Y102646D01*
X68073Y102647D01*
X68225Y102704D01*
X68377Y102758D01*
X68388Y102764D01*
X68400Y102769D01*
X68534Y102858D01*
X68671Y102945D01*
X68672Y102947D01*
X69621Y103018D01*
X69649Y103024D01*
X69846Y103052D01*
X70784Y103267D01*
X70850Y103235D01*
X70862Y103233D01*
X70873Y103227D01*
X71032Y103195D01*
X71190Y103160D01*
X71203Y103161D01*
X71215Y103158D01*
X71459Y103157D01*
X72491Y103234D01*
X72503Y103237D01*
X72516Y103237D01*
X72674Y103270D01*
X72833Y103300D01*
X72844Y103305D01*
X72857Y103308D01*
X73003Y103376D01*
X73151Y103442D01*
X73153Y103443D01*
X74101Y103373D01*
X74130Y103374D01*
X74329Y103373D01*
X75289Y103445D01*
X75349Y103404D01*
X75361Y103400D01*
X75371Y103393D01*
X75523Y103337D01*
X75674Y103279D01*
X75687Y103278D01*
X75699Y103273D01*
X75940Y103236D01*
X76971Y103159D01*
X76984Y103159D01*
X76996Y103157D01*
X77158Y103166D01*
X77320Y103173D01*
X77332Y103176D01*
X77344Y103177D01*
X77500Y103222D01*
X77656Y103265D01*
X77658Y103267D01*
X78585Y103055D01*
X78612Y103052D01*
X78810Y103021D01*
X79770Y102950D01*
X79823Y102900D01*
X79834Y102894D01*
X79844Y102886D01*
X79985Y102809D01*
X80126Y102729D01*
X80138Y102725D01*
X80149Y102719D01*
X80383Y102646D01*
X81391Y102416D01*
X81404Y102414D01*
X81415Y102410D01*
X81576Y102395D01*
X81737Y102378D01*
X81750Y102379D01*
X81762Y102378D01*
X81923Y102400D01*
X82083Y102419D01*
X82086Y102420D01*
X82971Y102073D01*
X82998Y102066D01*
X83189Y102006D01*
X84127Y101792D01*
X84172Y101735D01*
X84182Y101728D01*
X84190Y101718D01*
X84319Y101620D01*
X84446Y101520D01*
X84458Y101515D01*
X84468Y101507D01*
X84688Y101400D01*
X84802Y101355D01*
X84862Y101339D01*
X84919Y101315D01*
X85030Y101295D01*
X85139Y101266D01*
X85201Y101264D01*
X85262Y101253D01*
X85375Y101259D01*
X85488Y101256D01*
X85548Y101268D01*
X85610Y101271D01*
X85718Y101302D01*
X85829Y101325D01*
X85885Y101350D01*
X85945Y101368D01*
X86043Y101423D01*
X86146Y101470D01*
X86195Y101507D01*
X86249Y101538D01*
X86398Y101664D01*
X86422Y101683D01*
X86427Y101689D01*
X86435Y101696D01*
X103787Y119048D01*
X103880Y119166D01*
X103978Y119280D01*
X103989Y119302D01*
X104004Y119321D01*
X104068Y119457D01*
X104136Y119591D01*
X104142Y119614D01*
X104152Y119636D01*
X104184Y119783D01*
X104220Y119929D01*
X104221Y119953D01*
X104226Y119977D01*
X104223Y120127D01*
X104225Y120277D01*
X104220Y120301D01*
X104220Y120325D01*
X104183Y120471D01*
X104151Y120618D01*
X104141Y120640D01*
X104135Y120663D01*
X104066Y120797D01*
X104001Y120933D01*
X103986Y120951D01*
X103975Y120973D01*
X103878Y121088D01*
X103784Y121205D01*
X103765Y121220D01*
X103749Y121238D01*
X103629Y121328D01*
X103510Y121421D01*
X103484Y121434D01*
X103469Y121445D01*
X103426Y121464D01*
X103293Y121532D01*
X103033Y121640D01*
X101254Y123418D01*
X100292Y125742D01*
X100292Y128258D01*
X100910Y129751D01*
X100952Y129895D01*
X100997Y130039D01*
X100999Y130063D01*
X101006Y130086D01*
X101013Y130236D01*
X101025Y130386D01*
X101022Y130410D01*
X101023Y130434D01*
X100996Y130582D01*
X100974Y130731D01*
X100965Y130753D01*
X100960Y130777D01*
X100900Y130915D01*
X100845Y131055D01*
X100831Y131074D01*
X100821Y131097D01*
X100732Y131217D01*
X100646Y131341D01*
X100628Y131357D01*
X100614Y131376D01*
X100499Y131474D01*
X100387Y131574D01*
X100366Y131586D01*
X100348Y131601D01*
X100214Y131670D01*
X100082Y131743D01*
X100059Y131749D01*
X100037Y131760D01*
X99892Y131796D01*
X99747Y131837D01*
X99718Y131840D01*
X99699Y131844D01*
X99652Y131845D01*
X99503Y131857D01*
X93498Y131857D01*
X93472Y131854D01*
X93446Y131856D01*
X93299Y131834D01*
X93152Y131817D01*
X93127Y131808D01*
X93101Y131804D01*
X92963Y131750D01*
X92824Y131700D01*
X92802Y131685D01*
X92777Y131676D01*
X92656Y131591D01*
X92531Y131511D01*
X92513Y131492D01*
X92491Y131477D01*
X92392Y131367D01*
X92289Y131260D01*
X92275Y131237D01*
X92258Y131218D01*
X92186Y131088D01*
X92110Y130961D01*
X92102Y130936D01*
X92089Y130913D01*
X92049Y130770D01*
X92004Y130629D01*
X92002Y130603D01*
X91994Y130578D01*
X91992Y130546D01*
X91012Y128181D01*
X89234Y126402D01*
X86910Y125440D01*
X84394Y125440D01*
X82070Y126402D01*
X80292Y128181D01*
X79329Y130505D01*
X79329Y133020D01*
X80224Y135180D01*
X80265Y135325D01*
X80311Y135468D01*
X80313Y135492D01*
X80320Y135515D01*
X80327Y135666D01*
X80339Y135815D01*
X80335Y135839D01*
X80337Y135863D01*
X80310Y136011D01*
X80287Y136160D01*
X80278Y136182D01*
X80274Y136206D01*
X80214Y136344D01*
X80159Y136484D01*
X80145Y136504D01*
X80135Y136526D01*
X80045Y136647D01*
X79960Y136770D01*
X79942Y136786D01*
X79927Y136806D01*
X79812Y136903D01*
X79701Y137003D01*
X79680Y137015D01*
X79661Y137031D01*
X79528Y137099D01*
X79396Y137172D01*
X79372Y137178D01*
X79351Y137189D01*
X79206Y137226D01*
X79060Y137267D01*
X79031Y137269D01*
X79013Y137274D01*
X78966Y137274D01*
X78817Y137286D01*
X72002Y137286D01*
X71877Y137272D01*
X71750Y137265D01*
X71704Y137252D01*
X71656Y137246D01*
X71537Y137204D01*
X71415Y137169D01*
X71373Y137145D01*
X71328Y137129D01*
X71222Y137060D01*
X71111Y136999D01*
X71065Y136959D01*
X71035Y136940D01*
X71001Y136905D01*
X70925Y136840D01*
X64582Y130497D01*
X64503Y130398D01*
X64419Y130304D01*
X64395Y130262D01*
X64365Y130224D01*
X64311Y130110D01*
X64250Y129999D01*
X64237Y129953D01*
X64216Y129909D01*
X64190Y129785D01*
X64155Y129664D01*
X64150Y129603D01*
X64143Y129568D01*
X64144Y129520D01*
X64136Y129420D01*
X64136Y125773D01*
X62589Y122038D01*
X59731Y119180D01*
X55996Y117633D01*
X51954Y117633D01*
X48219Y119180D01*
X45361Y122038D01*
X43814Y125773D01*
X43814Y129815D01*
X45361Y133549D01*
X48219Y136408D01*
X51954Y137954D01*
X55601Y137954D01*
X55727Y137969D01*
X55853Y137975D01*
X55899Y137989D01*
X55947Y137994D01*
X56066Y138037D01*
X56188Y138072D01*
X56230Y138096D01*
X56275Y138112D01*
X56382Y138181D01*
X56492Y138242D01*
X56538Y138281D01*
X56568Y138301D01*
X56602Y138336D01*
X56678Y138401D01*
X59654Y141376D01*
X59685Y141415D01*
X59722Y141449D01*
X59793Y141552D01*
X59870Y141649D01*
X59892Y141694D01*
X59920Y141736D01*
X59966Y141852D01*
X60019Y141964D01*
X60030Y142013D01*
X60048Y142060D01*
X60066Y142183D01*
X60093Y142305D01*
X60092Y142355D01*
X60099Y142405D01*
X60089Y142529D01*
X60087Y142653D01*
X60074Y142702D01*
X60070Y142752D01*
X60032Y142871D01*
X60002Y142991D01*
X59979Y143036D01*
X59963Y143084D01*
X59899Y143191D01*
X59842Y143301D01*
X59809Y143339D01*
X59783Y143383D01*
X59697Y143472D01*
X59616Y143566D01*
X59575Y143596D01*
X59540Y143633D01*
X59436Y143700D01*
X59336Y143774D01*
X59290Y143794D01*
X59247Y143821D01*
X59130Y143862D01*
X59016Y143912D01*
X58966Y143921D01*
X58919Y143937D01*
X58795Y143951D01*
X58673Y143973D01*
X58622Y143971D01*
X58572Y143976D01*
X58449Y143962D01*
X58325Y143955D01*
X58276Y143941D01*
X58226Y143936D01*
X57994Y143860D01*
X55996Y143033D01*
X51954Y143033D01*
X48219Y144580D01*
X45361Y147438D01*
X43814Y151173D01*
X43814Y155215D01*
X45039Y158173D01*
X45053Y158221D01*
X45075Y158267D01*
X45101Y158388D01*
X45135Y158508D01*
X45138Y158558D01*
X45148Y158607D01*
X45146Y158731D01*
X45152Y158856D01*
X45143Y158905D01*
X45142Y158956D01*
X45112Y159076D01*
X45090Y159199D01*
X45069Y159245D01*
X45057Y159294D01*
X45000Y159404D01*
X44951Y159518D01*
X44921Y159559D01*
X44898Y159603D01*
X44817Y159698D01*
X44743Y159798D01*
X44704Y159831D01*
X44672Y159869D01*
X44572Y159943D01*
X44477Y160023D01*
X44432Y160046D01*
X44391Y160076D01*
X44277Y160125D01*
X44167Y160182D01*
X44118Y160194D01*
X44071Y160214D01*
X43949Y160236D01*
X43828Y160266D01*
X43778Y160267D01*
X43728Y160276D01*
X43604Y160269D01*
X43480Y160271D01*
X43431Y160260D01*
X43380Y160258D01*
X43261Y160223D01*
X43139Y160197D01*
X43094Y160175D01*
X43045Y160161D01*
X42937Y160101D01*
X42825Y160047D01*
X42785Y160016D01*
X42741Y159991D01*
X42555Y159833D01*
X41031Y158308D01*
X40952Y158209D01*
X40867Y158115D01*
X40844Y158073D01*
X40814Y158035D01*
X40760Y157921D01*
X40699Y157810D01*
X40686Y157764D01*
X40665Y157720D01*
X40639Y157597D01*
X40604Y157475D01*
X40599Y157414D01*
X40592Y157379D01*
X40593Y157331D01*
X40584Y157231D01*
X40584Y151673D01*
X39096Y150184D01*
X25991Y150184D01*
X24503Y151673D01*
X24503Y163777D01*
X25991Y165266D01*
X31550Y165266D01*
X31675Y165280D01*
X31802Y165287D01*
X31848Y165300D01*
X31896Y165306D01*
X32015Y165348D01*
X32137Y165383D01*
X32179Y165407D01*
X32224Y165423D01*
X32330Y165492D01*
X32441Y165553D01*
X32487Y165593D01*
X32517Y165612D01*
X32551Y165647D01*
X32627Y165712D01*
X36554Y169639D01*
X38340Y171425D01*
X40395Y172276D01*
X43314Y172276D01*
X43463Y172293D01*
X43613Y172306D01*
X43636Y172313D01*
X43660Y172316D01*
X43802Y172367D01*
X43945Y172413D01*
X43966Y172425D01*
X43989Y172434D01*
X44115Y172515D01*
X44244Y172593D01*
X44261Y172609D01*
X44281Y172623D01*
X44386Y172731D01*
X44494Y172836D01*
X44507Y172856D01*
X44524Y172873D01*
X44601Y173002D01*
X44682Y173129D01*
X44690Y173152D01*
X44702Y173172D01*
X44748Y173315D01*
X44799Y173457D01*
X44801Y173481D01*
X44809Y173504D01*
X44821Y173654D01*
X44837Y173804D01*
X44835Y173828D01*
X44837Y173852D01*
X44814Y174001D01*
X44797Y174150D01*
X44788Y174177D01*
X44785Y174196D01*
X44767Y174240D01*
X44721Y174382D01*
X43814Y176573D01*
X43814Y180615D01*
X45361Y184349D01*
X48219Y187208D01*
X51954Y188754D01*
X55996Y188754D01*
X59731Y187208D01*
X62589Y184349D01*
X64136Y180615D01*
X64136Y176573D01*
X62589Y172838D01*
X60010Y170259D01*
X59931Y170160D01*
X59847Y170066D01*
X59823Y170024D01*
X59793Y169986D01*
X59739Y169872D01*
X59678Y169761D01*
X59665Y169715D01*
X59644Y169671D01*
X59618Y169548D01*
X59583Y169426D01*
X59578Y169365D01*
X59571Y169330D01*
X59572Y169282D01*
X59564Y169182D01*
X59564Y162605D01*
X59578Y162480D01*
X59585Y162354D01*
X59598Y162307D01*
X59604Y162259D01*
X59646Y162140D01*
X59681Y162019D01*
X59705Y161977D01*
X59721Y161931D01*
X59790Y161825D01*
X59851Y161715D01*
X59891Y161668D01*
X59910Y161638D01*
X59945Y161605D01*
X60010Y161528D01*
X62589Y158949D01*
X62926Y158135D01*
X62963Y158068D01*
X62991Y157997D01*
X63048Y157917D01*
X63095Y157831D01*
X63147Y157774D01*
X63190Y157711D01*
X63263Y157646D01*
X63329Y157573D01*
X63392Y157529D01*
X63449Y157478D01*
X63535Y157430D01*
X63616Y157374D01*
X63687Y157346D01*
X63754Y157309D01*
X63849Y157283D01*
X63940Y157247D01*
X64016Y157235D01*
X64090Y157215D01*
X64238Y157203D01*
X64285Y157196D01*
X64304Y157197D01*
X64333Y157195D01*
X102712Y157195D01*
X104766Y156344D01*
X105247Y155863D01*
X105346Y155785D01*
X105440Y155700D01*
X105482Y155677D01*
X105520Y155647D01*
X105634Y155593D01*
X105745Y155531D01*
X105791Y155518D01*
X105835Y155498D01*
X105958Y155471D01*
X106080Y155437D01*
X106141Y155432D01*
X106176Y155424D01*
X106224Y155425D01*
X106324Y155417D01*
X109240Y155417D01*
X109266Y155420D01*
X109292Y155418D01*
X109439Y155440D01*
X109586Y155457D01*
X109611Y155466D01*
X109637Y155470D01*
X109775Y155524D01*
X109915Y155574D01*
X109937Y155589D01*
X109961Y155598D01*
X110083Y155683D01*
X110207Y155763D01*
X110226Y155782D01*
X110247Y155797D01*
X110346Y155907D01*
X110450Y156014D01*
X110463Y156037D01*
X110481Y156056D01*
X110552Y156186D01*
X110628Y156313D01*
X110636Y156338D01*
X110649Y156361D01*
X110690Y156504D01*
X110735Y156645D01*
X110737Y156671D01*
X110744Y156696D01*
X110764Y156940D01*
X110764Y157104D01*
X112252Y158592D01*
X141903Y158592D01*
X143505Y156990D01*
X143525Y156974D01*
X143542Y156954D01*
X143661Y156866D01*
X143778Y156773D01*
X143801Y156762D01*
X143822Y156747D01*
X143959Y156688D01*
X144093Y156624D01*
X144118Y156619D01*
X144143Y156609D01*
X144289Y156582D01*
X144433Y156551D01*
X144460Y156552D01*
X144486Y156547D01*
X144634Y156555D01*
X144782Y156557D01*
X144807Y156563D01*
X144834Y156565D01*
X144976Y156606D01*
X145120Y156642D01*
X145143Y156654D01*
X145168Y156661D01*
X145298Y156734D01*
X145430Y156802D01*
X145450Y156819D01*
X145473Y156831D01*
X145659Y156990D01*
X147261Y158592D01*
X168497Y158592D01*
X168523Y158595D01*
X168549Y158593D01*
X168696Y158615D01*
X168843Y158632D01*
X168868Y158641D01*
X168894Y158645D01*
X169032Y158699D01*
X169172Y158749D01*
X169194Y158764D01*
X169218Y158773D01*
X169340Y158858D01*
X169464Y158938D01*
X169483Y158957D01*
X169504Y158972D01*
X169603Y159082D01*
X169707Y159189D01*
X169720Y159212D01*
X169738Y159231D01*
X169809Y159361D01*
X169885Y159488D01*
X169893Y159513D01*
X169906Y159536D01*
X169947Y159679D01*
X169992Y159820D01*
X169994Y159846D01*
X170001Y159871D01*
X170021Y160115D01*
X170021Y212947D01*
X170018Y212973D01*
X170020Y212999D01*
X169998Y213146D01*
X169981Y213293D01*
X169972Y213318D01*
X169968Y213344D01*
X169913Y213482D01*
X169863Y213622D01*
X169849Y213644D01*
X169839Y213668D01*
X169755Y213790D01*
X169674Y213914D01*
X169655Y213933D01*
X169640Y213954D01*
X169530Y214053D01*
X169423Y214157D01*
X169401Y214170D01*
X169381Y214188D01*
X169252Y214259D01*
X169124Y214335D01*
X169099Y214343D01*
X169076Y214356D01*
X168934Y214397D01*
X168792Y214442D01*
X168766Y214444D01*
X168741Y214451D01*
X168497Y214471D01*
X122255Y214471D01*
X120767Y215959D01*
X120767Y225061D01*
X120764Y225087D01*
X120766Y225113D01*
X120744Y225259D01*
X120727Y225407D01*
X120718Y225431D01*
X120714Y225457D01*
X120659Y225595D01*
X120609Y225735D01*
X120595Y225757D01*
X120585Y225781D01*
X120501Y225903D01*
X120420Y226028D01*
X120401Y226046D01*
X120386Y226067D01*
X120276Y226166D01*
X120169Y226270D01*
X120147Y226283D01*
X120127Y226301D01*
X119998Y226373D01*
X119870Y226449D01*
X119845Y226457D01*
X119822Y226469D01*
X119680Y226510D01*
X119538Y226555D01*
X119512Y226557D01*
X119487Y226564D01*
X119243Y226584D01*
X97747Y226584D01*
X96066Y227280D01*
X94780Y228566D01*
X94084Y230247D01*
X94084Y232236D01*
X94081Y232262D01*
X94083Y232288D01*
X94061Y232435D01*
X94044Y232582D01*
X94035Y232607D01*
X94031Y232633D01*
X93976Y232770D01*
X93926Y232910D01*
X93912Y232932D01*
X93902Y232957D01*
X93818Y233078D01*
X93737Y233203D01*
X93718Y233221D01*
X93703Y233243D01*
X93593Y233342D01*
X93486Y233445D01*
X93464Y233459D01*
X93444Y233476D01*
X93315Y233548D01*
X93187Y233624D01*
X93162Y233632D01*
X93139Y233645D01*
X92997Y233685D01*
X92855Y233730D01*
X92829Y233732D01*
X92804Y233740D01*
X92560Y233759D01*
X92104Y233759D01*
X90616Y235248D01*
X90616Y247352D01*
X91828Y248565D01*
X91906Y248664D01*
X91991Y248757D01*
X92014Y248800D01*
X92044Y248838D01*
X92098Y248952D01*
X92159Y249062D01*
X92173Y249109D01*
X92193Y249153D01*
X92220Y249276D01*
X92254Y249398D01*
X92259Y249459D01*
X92267Y249493D01*
X92266Y249541D01*
X92274Y249642D01*
X92274Y251349D01*
X92262Y251449D01*
X92261Y251549D01*
X92242Y251621D01*
X92234Y251695D01*
X92200Y251790D01*
X92176Y251887D01*
X92141Y251953D01*
X92116Y252023D01*
X92062Y252108D01*
X92016Y252197D01*
X91968Y252254D01*
X91927Y252316D01*
X91855Y252386D01*
X91790Y252462D01*
X91730Y252507D01*
X91677Y252558D01*
X91591Y252610D01*
X91510Y252669D01*
X91441Y252699D01*
X91378Y252737D01*
X91282Y252768D01*
X91190Y252807D01*
X91117Y252821D01*
X91046Y252843D01*
X90946Y252851D01*
X90847Y252869D01*
X90772Y252865D01*
X90698Y252871D01*
X90599Y252856D01*
X90499Y252851D01*
X90427Y252831D01*
X90354Y252820D01*
X90260Y252782D01*
X90164Y252755D01*
X90099Y252718D01*
X90030Y252691D01*
X89947Y252634D01*
X89860Y252585D01*
X89783Y252519D01*
X89744Y252492D01*
X89720Y252465D01*
X89673Y252426D01*
X88065Y250817D01*
X88063Y250816D01*
X88062Y250814D01*
X87954Y250678D01*
X87848Y250544D01*
X87847Y250542D01*
X87846Y250541D01*
X87734Y250323D01*
X87116Y248831D01*
X85338Y247052D01*
X83014Y246090D01*
X80499Y246090D01*
X78175Y247052D01*
X76396Y248831D01*
X75434Y251155D01*
X75434Y253670D01*
X76396Y255994D01*
X78175Y257773D01*
X79667Y258391D01*
X79669Y258392D01*
X79671Y258392D01*
X79819Y258475D01*
X79971Y258560D01*
X79973Y258561D01*
X79975Y258562D01*
X80161Y258721D01*
X87123Y265683D01*
X88918Y267478D01*
X88948Y267495D01*
X89019Y267523D01*
X89100Y267579D01*
X89186Y267627D01*
X89243Y267678D01*
X89305Y267722D01*
X89371Y267795D01*
X89444Y267861D01*
X89488Y267924D01*
X89539Y267981D01*
X89586Y268067D01*
X89642Y268148D01*
X89670Y268219D01*
X89707Y268286D01*
X89734Y268381D01*
X89770Y268472D01*
X89781Y268548D01*
X89802Y268621D01*
X89814Y268770D01*
X89815Y268777D01*
X90828Y269790D01*
X90906Y269889D01*
X90991Y269982D01*
X91014Y270025D01*
X91044Y270063D01*
X91098Y270177D01*
X91159Y270287D01*
X91173Y270334D01*
X91193Y270378D01*
X91220Y270501D01*
X91254Y270623D01*
X91259Y270684D01*
X91267Y270718D01*
X91266Y270766D01*
X91274Y270867D01*
X91274Y273392D01*
X91271Y273418D01*
X91273Y273444D01*
X91251Y273591D01*
X91234Y273738D01*
X91225Y273763D01*
X91221Y273789D01*
X91166Y273927D01*
X91116Y274067D01*
X91102Y274089D01*
X91092Y274113D01*
X91008Y274235D01*
X90927Y274359D01*
X90908Y274378D01*
X90894Y274399D01*
X90784Y274498D01*
X90677Y274602D01*
X90654Y274615D01*
X90635Y274633D01*
X90505Y274704D01*
X90378Y274780D01*
X90353Y274788D01*
X90330Y274801D01*
X90187Y274842D01*
X90046Y274887D01*
X90020Y274889D01*
X89994Y274896D01*
X89751Y274916D01*
X89310Y274916D01*
X87822Y276404D01*
X87822Y293509D01*
X89310Y294997D01*
X89751Y294997D01*
X89777Y295000D01*
X89803Y294998D01*
X89949Y295020D01*
X90097Y295037D01*
X90121Y295046D01*
X90147Y295050D01*
X90285Y295104D01*
X90425Y295154D01*
X90447Y295169D01*
X90471Y295178D01*
X90593Y295263D01*
X90718Y295343D01*
X90736Y295362D01*
X90757Y295377D01*
X90856Y295487D01*
X90960Y295594D01*
X90973Y295617D01*
X90991Y295636D01*
X91062Y295765D01*
X91139Y295893D01*
X91147Y295918D01*
X91159Y295941D01*
X91200Y296084D01*
X91245Y296225D01*
X91247Y296251D01*
X91254Y296276D01*
X91274Y296520D01*
X91274Y298793D01*
X92125Y300847D01*
X94465Y303188D01*
X96520Y304039D01*
X134462Y304039D01*
X136516Y303188D01*
X142850Y296853D01*
X142997Y296500D01*
X143034Y296433D01*
X143062Y296362D01*
X143118Y296281D01*
X143166Y296195D01*
X143218Y296139D01*
X143261Y296076D01*
X143334Y296010D01*
X143400Y295937D01*
X143463Y295894D01*
X143520Y295842D01*
X143606Y295795D01*
X143687Y295739D01*
X143758Y295711D01*
X143825Y295674D01*
X143920Y295647D01*
X144011Y295611D01*
X144087Y295600D01*
X144160Y295579D01*
X144309Y295567D01*
X144356Y295560D01*
X144375Y295562D01*
X144404Y295559D01*
X146665Y295559D01*
X148153Y294071D01*
X148153Y278966D01*
X147283Y278096D01*
X147266Y278075D01*
X147246Y278058D01*
X147158Y277939D01*
X147066Y277823D01*
X147055Y277799D01*
X147039Y277778D01*
X146981Y277642D01*
X146917Y277508D01*
X146912Y277482D01*
X146901Y277458D01*
X146875Y277312D01*
X146844Y277167D01*
X146844Y277141D01*
X146840Y277115D01*
X146847Y276966D01*
X146850Y276819D01*
X146856Y276793D01*
X146858Y276767D01*
X146899Y276624D01*
X146935Y276481D01*
X146947Y276457D01*
X146954Y276432D01*
X147027Y276302D01*
X147094Y276171D01*
X147111Y276151D01*
X147124Y276128D01*
X147283Y275942D01*
X148153Y275071D01*
X148153Y274837D01*
X148156Y274811D01*
X148154Y274785D01*
X148176Y274638D01*
X148193Y274491D01*
X148202Y274466D01*
X148206Y274440D01*
X148261Y274302D01*
X148311Y274163D01*
X148325Y274141D01*
X148335Y274116D01*
X148419Y273995D01*
X148500Y273870D01*
X148519Y273852D01*
X148533Y273830D01*
X148643Y273731D01*
X148750Y273628D01*
X148773Y273614D01*
X148792Y273597D01*
X148922Y273525D01*
X149049Y273449D01*
X149074Y273441D01*
X149097Y273428D01*
X149240Y273388D01*
X149381Y273343D01*
X149407Y273341D01*
X149433Y273333D01*
X149676Y273314D01*
X150408Y273314D01*
X150534Y273328D01*
X150660Y273335D01*
X150707Y273348D01*
X150755Y273354D01*
X150874Y273396D01*
X150995Y273431D01*
X151037Y273455D01*
X151083Y273471D01*
X151189Y273540D01*
X151299Y273601D01*
X151346Y273641D01*
X151376Y273660D01*
X151409Y273695D01*
X151485Y273760D01*
X152991Y275266D01*
X166096Y275266D01*
X167584Y273777D01*
X167584Y261673D01*
X166096Y260184D01*
X152991Y260184D01*
X151485Y261690D01*
X151386Y261769D01*
X151293Y261853D01*
X151250Y261877D01*
X151212Y261907D01*
X151098Y261961D01*
X150988Y262022D01*
X150941Y262035D01*
X150897Y262056D01*
X150774Y262082D01*
X150652Y262117D01*
X150591Y262122D01*
X150557Y262129D01*
X150509Y262128D01*
X150408Y262136D01*
X149676Y262136D01*
X149650Y262133D01*
X149624Y262135D01*
X149478Y262113D01*
X149330Y262096D01*
X149306Y262088D01*
X149280Y262084D01*
X149142Y262029D01*
X149002Y261979D01*
X148980Y261965D01*
X148956Y261955D01*
X148834Y261870D01*
X148709Y261790D01*
X148691Y261771D01*
X148670Y261756D01*
X148571Y261646D01*
X148467Y261539D01*
X148454Y261517D01*
X148436Y261497D01*
X148364Y261367D01*
X148288Y261240D01*
X148280Y261215D01*
X148268Y261192D01*
X148227Y261049D01*
X148182Y260908D01*
X148180Y260882D01*
X148173Y260857D01*
X148153Y260613D01*
X148153Y259966D01*
X146665Y258478D01*
X129560Y258478D01*
X128072Y259966D01*
X128072Y260382D01*
X128069Y260408D01*
X128071Y260434D01*
X128049Y260581D01*
X128032Y260728D01*
X128023Y260753D01*
X128019Y260779D01*
X127964Y260916D01*
X127914Y261056D01*
X127900Y261078D01*
X127890Y261103D01*
X127806Y261224D01*
X127725Y261349D01*
X127706Y261367D01*
X127692Y261389D01*
X127582Y261488D01*
X127475Y261591D01*
X127452Y261605D01*
X127433Y261622D01*
X127303Y261694D01*
X127176Y261770D01*
X127151Y261778D01*
X127128Y261791D01*
X126985Y261831D01*
X126844Y261876D01*
X126818Y261878D01*
X126792Y261885D01*
X126549Y261905D01*
X124426Y261905D01*
X124400Y261902D01*
X124374Y261904D01*
X124228Y261882D01*
X124080Y261865D01*
X124056Y261856D01*
X124030Y261852D01*
X123892Y261798D01*
X123752Y261748D01*
X123730Y261733D01*
X123706Y261724D01*
X123584Y261639D01*
X123459Y261559D01*
X123441Y261540D01*
X123420Y261525D01*
X123321Y261415D01*
X123217Y261308D01*
X123204Y261285D01*
X123186Y261266D01*
X123114Y261136D01*
X123038Y261009D01*
X123030Y260984D01*
X123018Y260961D01*
X122977Y260818D01*
X122932Y260677D01*
X122930Y260651D01*
X122923Y260626D01*
X122903Y260382D01*
X122903Y256679D01*
X121188Y254963D01*
X121132Y254925D01*
X121007Y254844D01*
X120989Y254825D01*
X120968Y254810D01*
X120869Y254700D01*
X120765Y254593D01*
X120752Y254571D01*
X120734Y254551D01*
X120662Y254422D01*
X120586Y254294D01*
X120578Y254269D01*
X120566Y254246D01*
X120525Y254104D01*
X120480Y253962D01*
X120478Y253936D01*
X120471Y253911D01*
X120451Y253667D01*
X120451Y250364D01*
X120454Y250338D01*
X120452Y250312D01*
X120474Y250165D01*
X120491Y250018D01*
X120500Y249993D01*
X120504Y249967D01*
X120559Y249829D01*
X120609Y249690D01*
X120623Y249668D01*
X120633Y249643D01*
X120717Y249522D01*
X120798Y249397D01*
X120817Y249379D01*
X120831Y249357D01*
X120941Y249258D01*
X121048Y249155D01*
X121071Y249141D01*
X121090Y249124D01*
X121220Y249052D01*
X121347Y248976D01*
X121372Y248968D01*
X121395Y248955D01*
X121538Y248915D01*
X121679Y248870D01*
X121705Y248868D01*
X121731Y248860D01*
X121974Y248841D01*
X122209Y248841D01*
X123697Y247352D01*
X123697Y245808D01*
X123700Y245782D01*
X123698Y245756D01*
X123720Y245610D01*
X123737Y245462D01*
X123746Y245438D01*
X123750Y245412D01*
X123804Y245274D01*
X123854Y245134D01*
X123869Y245112D01*
X123878Y245088D01*
X123963Y244966D01*
X124043Y244841D01*
X124062Y244823D01*
X124077Y244802D01*
X124187Y244703D01*
X124294Y244599D01*
X124317Y244586D01*
X124336Y244568D01*
X124466Y244496D01*
X124593Y244420D01*
X124618Y244412D01*
X124641Y244400D01*
X124784Y244359D01*
X124925Y244314D01*
X124951Y244312D01*
X124976Y244305D01*
X125220Y244285D01*
X132215Y244285D01*
X133896Y243589D01*
X134053Y243433D01*
X134131Y243370D01*
X134204Y243300D01*
X134267Y243262D01*
X134326Y243216D01*
X134416Y243173D01*
X134503Y243121D01*
X134574Y243099D01*
X134641Y243067D01*
X134739Y243046D01*
X134835Y243015D01*
X134909Y243009D01*
X134981Y242994D01*
X135082Y242995D01*
X135182Y242987D01*
X135255Y242998D01*
X135330Y243000D01*
X135427Y243024D01*
X135527Y243039D01*
X135596Y243066D01*
X135668Y243085D01*
X135757Y243131D01*
X135851Y243168D01*
X135912Y243210D01*
X135978Y243244D01*
X136054Y243309D01*
X136137Y243367D01*
X136186Y243422D01*
X136243Y243470D01*
X136303Y243551D01*
X136370Y243625D01*
X136406Y243690D01*
X136450Y243750D01*
X136490Y243843D01*
X136539Y243930D01*
X136559Y244002D01*
X136588Y244070D01*
X136606Y244169D01*
X136633Y244266D01*
X136641Y244366D01*
X136650Y244413D01*
X136648Y244449D01*
X136653Y244510D01*
X136653Y252527D01*
X138141Y254016D01*
X144246Y254016D01*
X145735Y252527D01*
X145735Y240398D01*
X145749Y240273D01*
X145755Y240146D01*
X145769Y240100D01*
X145774Y240052D01*
X145817Y239933D01*
X145852Y239812D01*
X145876Y239769D01*
X145892Y239724D01*
X145961Y239617D01*
X146022Y239507D01*
X146061Y239461D01*
X146081Y239431D01*
X146116Y239397D01*
X146181Y239321D01*
X151465Y234037D01*
X151486Y234020D01*
X151503Y234000D01*
X151622Y233912D01*
X151738Y233820D01*
X151762Y233809D01*
X151783Y233793D01*
X151919Y233734D01*
X152053Y233671D01*
X152079Y233665D01*
X152103Y233655D01*
X152249Y233629D01*
X152394Y233598D01*
X152420Y233598D01*
X152446Y233593D01*
X152595Y233601D01*
X152742Y233604D01*
X152768Y233610D01*
X152794Y233611D01*
X152937Y233652D01*
X153080Y233689D01*
X153104Y233701D01*
X153129Y233708D01*
X153258Y233780D01*
X153390Y233848D01*
X153410Y233865D01*
X153433Y233878D01*
X153619Y234037D01*
X160207Y240624D01*
X160285Y240723D01*
X160370Y240817D01*
X160393Y240859D01*
X160423Y240897D01*
X160477Y241011D01*
X160539Y241122D01*
X160552Y241168D01*
X160572Y241212D01*
X160599Y241335D01*
X160633Y241457D01*
X160638Y241518D01*
X160646Y241553D01*
X160645Y241601D01*
X160653Y241701D01*
X160653Y252527D01*
X162141Y254016D01*
X168246Y254016D01*
X169734Y252527D01*
X169734Y237903D01*
X169737Y237877D01*
X169735Y237851D01*
X169757Y237704D01*
X169774Y237557D01*
X169783Y237532D01*
X169787Y237506D01*
X169842Y237368D01*
X169892Y237228D01*
X169906Y237206D01*
X169916Y237182D01*
X170000Y237060D01*
X170081Y236936D01*
X170100Y236917D01*
X170115Y236896D01*
X170225Y236797D01*
X170331Y236693D01*
X170354Y236680D01*
X170373Y236662D01*
X170503Y236591D01*
X170631Y236515D01*
X170656Y236507D01*
X170679Y236494D01*
X170821Y236453D01*
X170963Y236408D01*
X170989Y236406D01*
X171014Y236399D01*
X171258Y236379D01*
X175165Y236379D01*
X175191Y236382D01*
X175217Y236380D01*
X175364Y236402D01*
X175511Y236419D01*
X175536Y236428D01*
X175562Y236432D01*
X175699Y236487D01*
X175839Y236537D01*
X175861Y236551D01*
X175886Y236561D01*
X176007Y236645D01*
X176132Y236726D01*
X176150Y236745D01*
X176172Y236760D01*
X176271Y236870D01*
X176374Y236977D01*
X176388Y236999D01*
X176405Y237019D01*
X176477Y237148D01*
X176553Y237276D01*
X176561Y237301D01*
X176574Y237324D01*
X176614Y237466D01*
X176659Y237608D01*
X176661Y237634D01*
X176668Y237659D01*
X176688Y237903D01*
X176688Y289214D01*
X176674Y289339D01*
X176667Y289466D01*
X176654Y289512D01*
X176648Y289560D01*
X176606Y289679D01*
X176571Y289801D01*
X176547Y289843D01*
X176531Y289888D01*
X176462Y289995D01*
X176400Y290105D01*
X176361Y290151D01*
X176342Y290181D01*
X176307Y290215D01*
X176242Y290291D01*
X156597Y309936D01*
X156576Y309952D01*
X156559Y309972D01*
X156440Y310060D01*
X156324Y310152D01*
X156300Y310164D01*
X156279Y310179D01*
X156143Y310238D01*
X156009Y310301D01*
X155983Y310307D01*
X155959Y310317D01*
X155813Y310344D01*
X155668Y310375D01*
X155642Y310374D01*
X155616Y310379D01*
X155468Y310371D01*
X155320Y310369D01*
X155294Y310362D01*
X155268Y310361D01*
X155126Y310320D01*
X154982Y310284D01*
X154958Y310272D01*
X154933Y310265D01*
X154804Y310192D01*
X154672Y310124D01*
X154652Y310107D01*
X154629Y310094D01*
X154443Y309936D01*
X152640Y308133D01*
X144223Y308133D01*
X138271Y314085D01*
X138271Y314786D01*
X138268Y314812D01*
X138270Y314838D01*
X138248Y314985D01*
X138231Y315132D01*
X138222Y315157D01*
X138218Y315183D01*
X138163Y315321D01*
X138113Y315460D01*
X138099Y315482D01*
X138089Y315507D01*
X138005Y315628D01*
X137924Y315753D01*
X137905Y315771D01*
X137890Y315793D01*
X137780Y315892D01*
X137673Y315995D01*
X137651Y316009D01*
X137631Y316026D01*
X137502Y316098D01*
X137374Y316174D01*
X137349Y316182D01*
X137326Y316195D01*
X137184Y316235D01*
X137042Y316280D01*
X137016Y316282D01*
X136991Y316290D01*
X136747Y316309D01*
X123391Y316309D01*
X121903Y317798D01*
X121903Y329902D01*
X123391Y331391D01*
X136496Y331391D01*
X138002Y329885D01*
X138101Y329806D01*
X138195Y329722D01*
X138237Y329698D01*
X138275Y329668D01*
X138389Y329614D01*
X138500Y329553D01*
X138546Y329540D01*
X138590Y329519D01*
X138713Y329493D01*
X138835Y329458D01*
X138896Y329453D01*
X138931Y329446D01*
X138979Y329447D01*
X139079Y329439D01*
X144780Y329439D01*
X146877Y328570D01*
X146879Y328570D01*
X146880Y328569D01*
X147042Y328523D01*
X147212Y328475D01*
X147214Y328475D01*
X147216Y328474D01*
X147460Y328454D01*
X152640Y328454D01*
X158592Y322502D01*
X158592Y320069D01*
X158606Y319943D01*
X158613Y319817D01*
X158626Y319770D01*
X158632Y319722D01*
X158674Y319603D01*
X158709Y319482D01*
X158733Y319440D01*
X158749Y319394D01*
X158818Y319288D01*
X158880Y319178D01*
X158919Y319131D01*
X158938Y319101D01*
X158973Y319068D01*
X159038Y318992D01*
X181073Y296957D01*
X181151Y296895D01*
X181224Y296825D01*
X181287Y296787D01*
X181346Y296740D01*
X181436Y296697D01*
X181523Y296646D01*
X181593Y296623D01*
X181661Y296591D01*
X181759Y296570D01*
X181855Y296540D01*
X181929Y296534D01*
X182001Y296518D01*
X182102Y296520D01*
X182202Y296512D01*
X182276Y296523D01*
X182350Y296524D01*
X182447Y296549D01*
X182547Y296563D01*
X182616Y296591D01*
X182688Y296609D01*
X182777Y296655D01*
X182871Y296692D01*
X182932Y296735D01*
X182998Y296769D01*
X183074Y296834D01*
X183157Y296891D01*
X183206Y296946D01*
X183263Y296995D01*
X183323Y297075D01*
X183390Y297150D01*
X183426Y297215D01*
X183470Y297275D01*
X183510Y297367D01*
X183559Y297455D01*
X183579Y297527D01*
X183608Y297595D01*
X183626Y297693D01*
X183653Y297790D01*
X183661Y297890D01*
X183670Y297938D01*
X183668Y297974D01*
X183673Y298034D01*
X183673Y303721D01*
X186500Y306549D01*
X189744Y309792D01*
X189791Y309852D01*
X189846Y309905D01*
X189899Y309988D01*
X189960Y310065D01*
X189993Y310134D01*
X190034Y310198D01*
X190067Y310291D01*
X190109Y310380D01*
X190125Y310455D01*
X190151Y310527D01*
X190162Y310625D01*
X190183Y310721D01*
X190181Y310797D01*
X190190Y310873D01*
X190178Y310971D01*
X190177Y311069D01*
X190158Y311143D01*
X190149Y311219D01*
X190103Y311361D01*
X190092Y311407D01*
X190083Y311424D01*
X190074Y311452D01*
X189734Y312274D01*
X189734Y314789D01*
X190696Y317113D01*
X192475Y318891D01*
X194799Y319854D01*
X194874Y319854D01*
X194953Y319863D01*
X195033Y319862D01*
X195125Y319883D01*
X195220Y319894D01*
X195295Y319921D01*
X195373Y319938D01*
X195459Y319979D01*
X195548Y320011D01*
X195615Y320055D01*
X195687Y320089D01*
X195761Y320149D01*
X195841Y320200D01*
X195896Y320258D01*
X195958Y320308D01*
X196017Y320383D01*
X196083Y320451D01*
X196124Y320519D01*
X196173Y320582D01*
X196213Y320668D01*
X196262Y320750D01*
X196286Y320826D01*
X196320Y320898D01*
X196339Y320991D01*
X196368Y321082D01*
X196375Y321162D01*
X196391Y321240D01*
X196388Y321335D01*
X196396Y321429D01*
X196384Y321508D01*
X196382Y321588D01*
X196352Y321726D01*
X196344Y321774D01*
X196336Y321794D01*
X196329Y321827D01*
X196276Y321998D01*
X196265Y322024D01*
X196193Y322210D01*
X195775Y323077D01*
X195791Y323148D01*
X195791Y323161D01*
X195794Y323173D01*
X195790Y323334D01*
X195789Y323496D01*
X195786Y323509D01*
X195785Y323521D01*
X195732Y323760D01*
X195427Y324748D01*
X195422Y324760D01*
X195419Y324772D01*
X195352Y324919D01*
X195287Y325067D01*
X195279Y325077D01*
X195274Y325089D01*
X195175Y325217D01*
X195078Y325346D01*
X195076Y325347D01*
X194934Y326288D01*
X194926Y326315D01*
X194883Y326510D01*
X194599Y327429D01*
X194626Y327497D01*
X194627Y327509D01*
X194632Y327521D01*
X194652Y327682D01*
X194675Y327842D01*
X194674Y327854D01*
X194675Y327867D01*
X194658Y328111D01*
X194504Y329133D01*
X194501Y329146D01*
X194500Y329158D01*
X194455Y329314D01*
X194413Y329470D01*
X194407Y329481D01*
X194403Y329493D01*
X194324Y329634D01*
X194248Y329777D01*
X194246Y329779D01*
X194246Y330730D01*
X194242Y330757D01*
X194228Y330957D01*
X194085Y331908D01*
X194121Y331971D01*
X194125Y331983D01*
X194131Y331994D01*
X194175Y332150D01*
X194221Y332305D01*
X194222Y332317D01*
X194225Y332330D01*
X194245Y332573D01*
X194245Y333607D01*
X194243Y333620D01*
X194244Y333633D01*
X194223Y333793D01*
X194205Y333954D01*
X194200Y333965D01*
X194199Y333978D01*
X194142Y334129D01*
X194087Y334282D01*
X194086Y334284D01*
X194227Y335224D01*
X194228Y335252D01*
X194244Y335451D01*
X194244Y336413D01*
X194289Y336470D01*
X194294Y336482D01*
X194302Y336492D01*
X194369Y336639D01*
X194438Y336785D01*
X194440Y336798D01*
X194446Y336809D01*
X194501Y337048D01*
X194655Y338070D01*
X194656Y338083D01*
X194659Y338095D01*
X194662Y338257D01*
X194667Y338418D01*
X194665Y338431D01*
X194665Y338443D01*
X194631Y338602D01*
X194600Y338760D01*
X194599Y338763D01*
X194879Y339671D01*
X194884Y339699D01*
X194929Y339893D01*
X195072Y340845D01*
X195126Y340895D01*
X195133Y340905D01*
X195142Y340914D01*
X195230Y341050D01*
X195320Y341184D01*
X195324Y341196D01*
X195331Y341206D01*
X195422Y341434D01*
X195726Y342422D01*
X195728Y342434D01*
X195733Y342446D01*
X195760Y342606D01*
X195790Y342764D01*
X195789Y342777D01*
X195792Y342789D01*
X195782Y342950D01*
X195774Y343112D01*
X195774Y343115D01*
X196186Y343972D01*
X196195Y343998D01*
X196269Y344184D01*
X196316Y344335D01*
X196321Y344364D01*
X196332Y344392D01*
X196353Y344535D01*
X196379Y344678D01*
X196378Y344707D01*
X196382Y344737D01*
X196370Y344881D01*
X196364Y345026D01*
X196356Y345054D01*
X196353Y345084D01*
X196309Y345222D01*
X196269Y345361D01*
X196255Y345387D01*
X196246Y345416D01*
X196171Y345540D01*
X196101Y345666D01*
X196081Y345689D01*
X196066Y345714D01*
X195965Y345818D01*
X195868Y345925D01*
X195844Y345942D01*
X195823Y345964D01*
X195621Y346103D01*
X164413Y364120D01*
X166136Y366616D01*
X166147Y366643D01*
X166166Y366665D01*
X166186Y366734D01*
X166214Y366799D01*
X166214Y366828D01*
X166222Y366856D01*
X166214Y366927D01*
X166215Y366998D01*
X166203Y367025D01*
X166200Y367054D01*
X166165Y367116D01*
X166137Y367181D01*
X166117Y367202D01*
X166102Y367227D01*
X166025Y367290D01*
X165995Y367320D01*
X165985Y367324D01*
X165974Y367333D01*
X149474Y376833D01*
X149401Y376857D01*
X149331Y376888D01*
X149307Y376888D01*
X149285Y376896D01*
X149209Y376890D01*
X149132Y376891D01*
X149108Y376881D01*
X149087Y376880D01*
X149048Y376859D01*
X148976Y376833D01*
X132476Y367333D01*
X132454Y367314D01*
X132428Y367301D01*
X132380Y367248D01*
X132327Y367201D01*
X132314Y367175D01*
X132295Y367154D01*
X132272Y367086D01*
X132241Y367022D01*
X132240Y366993D01*
X132230Y366966D01*
X132235Y366894D01*
X132232Y366823D01*
X132242Y366796D01*
X132244Y366767D01*
X132286Y366677D01*
X132301Y366637D01*
X132308Y366629D01*
X132314Y366616D01*
X134037Y364120D01*
X102828Y346103D01*
X102805Y346085D01*
X102778Y346072D01*
X102665Y345981D01*
X102549Y345895D01*
X102529Y345872D01*
X102506Y345854D01*
X102417Y345740D01*
X102323Y345629D01*
X102310Y345603D01*
X102291Y345579D01*
X102230Y345448D01*
X102164Y345319D01*
X102157Y345290D01*
X102144Y345263D01*
X102115Y345121D01*
X102080Y344981D01*
X102079Y344951D01*
X102073Y344922D01*
X102077Y344777D01*
X102074Y344632D01*
X102081Y344603D01*
X102081Y344574D01*
X102134Y344335D01*
X102181Y344184D01*
X102192Y344158D01*
X102264Y343972D01*
X102681Y343105D01*
X102665Y343034D01*
X102665Y343021D01*
X102663Y343009D01*
X102666Y342846D01*
X102668Y342685D01*
X102671Y342673D01*
X102671Y342661D01*
X102724Y342422D01*
X103028Y341434D01*
X103033Y341422D01*
X103036Y341410D01*
X103104Y341262D01*
X103168Y341114D01*
X103176Y341104D01*
X103181Y341093D01*
X103280Y340965D01*
X103377Y340835D01*
X103379Y340834D01*
X103521Y339893D01*
X103528Y339867D01*
X103571Y339671D01*
X103855Y338752D01*
X103828Y338684D01*
X103826Y338672D01*
X103822Y338660D01*
X103802Y338499D01*
X103779Y338339D01*
X103780Y338327D01*
X103778Y338314D01*
X103795Y338070D01*
X103949Y337048D01*
X103952Y337035D01*
X103953Y337023D01*
X103997Y336867D01*
X104040Y336711D01*
X104046Y336700D01*
X104049Y336688D01*
X104128Y336547D01*
X104205Y336404D01*
X104206Y336402D01*
X104206Y335451D01*
X104209Y335424D01*
X104223Y335224D01*
X104366Y334273D01*
X104330Y334210D01*
X104326Y334198D01*
X104320Y334186D01*
X104276Y334030D01*
X104229Y333876D01*
X104229Y333863D01*
X104225Y333851D01*
X104205Y333607D01*
X104205Y332573D01*
X104206Y332561D01*
X104205Y332548D01*
X104226Y332388D01*
X104245Y332227D01*
X104249Y332215D01*
X104251Y332203D01*
X104308Y332052D01*
X104362Y331899D01*
X104364Y331897D01*
X104222Y330957D01*
X104221Y330929D01*
X104204Y330730D01*
X104204Y329767D01*
X104159Y329710D01*
X104153Y329699D01*
X104146Y329689D01*
X104079Y329542D01*
X104010Y329395D01*
X104007Y329383D01*
X104002Y329372D01*
X103946Y329133D01*
X103792Y328111D01*
X103791Y328098D01*
X103788Y328086D01*
X103785Y327925D01*
X103779Y327763D01*
X103782Y327750D01*
X103782Y327738D01*
X103815Y327579D01*
X103847Y327421D01*
X103848Y327418D01*
X103567Y326510D01*
X103562Y326482D01*
X103516Y326288D01*
X103373Y325337D01*
X103319Y325287D01*
X103312Y325276D01*
X103303Y325268D01*
X103215Y325132D01*
X103125Y324998D01*
X103121Y324986D01*
X103114Y324975D01*
X103023Y324748D01*
X102718Y323760D01*
X102716Y323748D01*
X102711Y323736D01*
X102684Y323576D01*
X102654Y323417D01*
X102654Y323405D01*
X102652Y323392D01*
X102662Y323231D01*
X102669Y323069D01*
X102670Y323067D01*
X102257Y322210D01*
X102248Y322184D01*
X102174Y321998D01*
X101890Y321079D01*
X101830Y321038D01*
X101821Y321029D01*
X101811Y321021D01*
X101704Y320900D01*
X101595Y320781D01*
X101588Y320770D01*
X101580Y320760D01*
X101457Y320549D01*
X101008Y319618D01*
X101003Y319606D01*
X100997Y319595D01*
X100946Y319441D01*
X100893Y319288D01*
X100892Y319276D01*
X100888Y319264D01*
X100873Y319102D01*
X100857Y318942D01*
X100857Y318939D01*
X100321Y318154D01*
X100308Y318129D01*
X100207Y317957D01*
X99789Y317090D01*
X99724Y317058D01*
X99714Y317050D01*
X99703Y317045D01*
X99578Y316941D01*
X99453Y316839D01*
X99445Y316829D01*
X99435Y316821D01*
X99282Y316631D01*
X98699Y315777D01*
X98693Y315765D01*
X98685Y315756D01*
X98612Y315611D01*
X98537Y315468D01*
X98534Y315456D01*
X98528Y315445D01*
X98490Y315287D01*
X98449Y315131D01*
X98449Y315128D01*
X97802Y314431D01*
X97785Y314409D01*
X97660Y314253D01*
X97118Y313459D01*
X97048Y313437D01*
X97037Y313431D01*
X97025Y313427D01*
X96887Y313342D01*
X96747Y313261D01*
X96738Y313252D01*
X96728Y313245D01*
X96547Y313080D01*
X95844Y312322D01*
X95836Y312312D01*
X95827Y312304D01*
X95733Y312171D01*
X95637Y312042D01*
X95632Y312030D01*
X95625Y312020D01*
X95564Y311870D01*
X95500Y311721D01*
X95500Y311719D01*
X94756Y311126D01*
X94736Y311106D01*
X94589Y310971D01*
X93935Y310266D01*
X93863Y310255D01*
X93851Y310250D01*
X93838Y310248D01*
X93690Y310186D01*
X93539Y310125D01*
X93529Y310118D01*
X93517Y310113D01*
X93314Y309977D01*
X92506Y309332D01*
X92497Y309323D01*
X92486Y309316D01*
X92374Y309200D01*
X92260Y309085D01*
X92253Y309075D01*
X92244Y309066D01*
X92161Y308926D01*
X92076Y308789D01*
X92075Y308787D01*
X91252Y308311D01*
X91229Y308295D01*
X91064Y308183D01*
X90311Y307584D01*
X90238Y307583D01*
X90226Y307581D01*
X90213Y307580D01*
X90056Y307541D01*
X89899Y307504D01*
X89888Y307498D01*
X89876Y307495D01*
X89655Y307390D01*
X88759Y306873D01*
X88749Y306866D01*
X88737Y306860D01*
X88608Y306762D01*
X88479Y306666D01*
X88471Y306656D01*
X88461Y306648D01*
X88357Y306522D01*
X88254Y306400D01*
X88252Y306398D01*
X87367Y306050D01*
X87343Y306038D01*
X87162Y305952D01*
X86329Y305471D01*
X86257Y305482D01*
X86244Y305481D01*
X86231Y305482D01*
X86072Y305467D01*
X85909Y305453D01*
X85897Y305449D01*
X85885Y305448D01*
X85650Y305377D01*
X84688Y305000D01*
X84677Y304994D01*
X84664Y304991D01*
X84522Y304912D01*
X84380Y304836D01*
X84370Y304828D01*
X84359Y304822D01*
X84239Y304713D01*
X84117Y304607D01*
X84116Y304605D01*
X83189Y304394D01*
X83163Y304385D01*
X82971Y304327D01*
X82075Y303976D01*
X82006Y303997D01*
X81993Y303998D01*
X81981Y304001D01*
X81819Y304010D01*
X81658Y304021D01*
X81646Y304019D01*
X81633Y304019D01*
X81391Y303984D01*
X80383Y303754D01*
X80371Y303750D01*
X80358Y303749D01*
X80206Y303692D01*
X80054Y303639D01*
X80043Y303632D01*
X80031Y303627D01*
X79896Y303538D01*
X79760Y303451D01*
X79758Y303449D01*
X78810Y303379D01*
X78782Y303373D01*
X78585Y303345D01*
X77647Y303131D01*
X77581Y303162D01*
X77569Y303165D01*
X77558Y303170D01*
X77399Y303203D01*
X77241Y303238D01*
X77228Y303237D01*
X77216Y303240D01*
X76971Y303241D01*
X75940Y303164D01*
X75928Y303162D01*
X75915Y303162D01*
X75756Y303129D01*
X75598Y303099D01*
X75587Y303094D01*
X75574Y303091D01*
X75427Y303023D01*
X75280Y302957D01*
X75278Y302956D01*
X74329Y303027D01*
X74301Y303026D01*
X74101Y303027D01*
X73142Y302956D01*
X73082Y302997D01*
X73070Y303001D01*
X73059Y303008D01*
X72907Y303064D01*
X72757Y303122D01*
X72744Y303123D01*
X72732Y303128D01*
X72491Y303166D01*
X71459Y303243D01*
X71447Y303243D01*
X71434Y303245D01*
X71274Y303236D01*
X71111Y303229D01*
X71099Y303226D01*
X71086Y303225D01*
X70932Y303180D01*
X70775Y303137D01*
X70773Y303136D01*
X69846Y303348D01*
X69818Y303351D01*
X69621Y303382D01*
X68661Y303454D01*
X68608Y303503D01*
X68597Y303509D01*
X68588Y303518D01*
X68446Y303595D01*
X68305Y303675D01*
X68293Y303679D01*
X68282Y303685D01*
X68048Y303758D01*
X67840Y303806D01*
X67817Y303809D01*
X67796Y303815D01*
X67644Y303828D01*
X67493Y303844D01*
X67471Y303842D01*
X67448Y303843D01*
X67298Y303821D01*
X67147Y303803D01*
X67126Y303795D01*
X67104Y303792D01*
X66963Y303736D01*
X66820Y303684D01*
X66801Y303671D01*
X66780Y303663D01*
X66655Y303577D01*
X66528Y303494D01*
X66512Y303477D01*
X66494Y303464D01*
X66392Y303351D01*
X66287Y303242D01*
X66275Y303222D01*
X66260Y303205D01*
X66186Y303072D01*
X66109Y302942D01*
X66103Y302920D01*
X66092Y302900D01*
X66050Y302754D01*
X66005Y302609D01*
X66003Y302587D01*
X65997Y302565D01*
X65977Y302321D01*
X65977Y244843D01*
X65992Y244717D01*
X65998Y244591D01*
X66012Y244545D01*
X66017Y244497D01*
X66060Y244378D01*
X66095Y244256D01*
X66118Y244214D01*
X66135Y244169D01*
X66203Y244062D01*
X66265Y243952D01*
X66304Y243906D01*
X66324Y243876D01*
X66358Y243842D01*
X66423Y243766D01*
X91894Y218295D01*
X91993Y218217D01*
X92087Y218132D01*
X92129Y218109D01*
X92167Y218079D01*
X92281Y218025D01*
X92392Y217963D01*
X92439Y217950D01*
X92482Y217930D01*
X92606Y217903D01*
X92727Y217869D01*
X92788Y217864D01*
X92823Y217856D01*
X92871Y217857D01*
X92971Y217849D01*
X112654Y217849D01*
X114142Y216361D01*
X114142Y166705D01*
X112654Y165217D01*
X102421Y165217D01*
X100933Y166705D01*
X100933Y168694D01*
X100930Y168720D01*
X100932Y168746D01*
X100910Y168893D01*
X100893Y169040D01*
X100884Y169065D01*
X100880Y169091D01*
X100825Y169229D01*
X100775Y169369D01*
X100761Y169391D01*
X100751Y169415D01*
X100667Y169537D01*
X100586Y169661D01*
X100567Y169680D01*
X100552Y169701D01*
X100442Y169800D01*
X100335Y169904D01*
X100313Y169917D01*
X100293Y169935D01*
X100164Y170006D01*
X100036Y170082D01*
X100011Y170090D01*
X99988Y170103D01*
X99846Y170144D01*
X99704Y170189D01*
X99678Y170191D01*
X99653Y170198D01*
X99409Y170218D01*
X98190Y170218D01*
X98065Y170203D01*
X97939Y170197D01*
X97892Y170183D01*
X97844Y170178D01*
X97725Y170135D01*
X97604Y170100D01*
X97562Y170076D01*
X97516Y170060D01*
X97410Y169992D01*
X97360Y169964D01*
X93938Y169964D01*
X69975Y193927D01*
X69876Y194005D01*
X69782Y194090D01*
X69740Y194113D01*
X69702Y194143D01*
X69588Y194197D01*
X69477Y194258D01*
X69431Y194272D01*
X69387Y194292D01*
X69263Y194319D01*
X69142Y194353D01*
X69081Y194358D01*
X69046Y194366D01*
X68998Y194365D01*
X68898Y194373D01*
X29190Y194373D01*
X29157Y194369D01*
X29123Y194371D01*
X28984Y194349D01*
X28844Y194333D01*
X28812Y194322D01*
X28779Y194316D01*
X28648Y194263D01*
X28516Y194215D01*
X28487Y194197D01*
X28456Y194184D01*
X28341Y194103D01*
X28223Y194026D01*
X28199Y194002D01*
X28172Y193983D01*
X28079Y193877D01*
X27981Y193776D01*
X27963Y193747D01*
X27941Y193722D01*
X27818Y193510D01*
X27247Y192325D01*
X27237Y192298D01*
X27163Y192113D01*
X26880Y191193D01*
X26820Y191152D01*
X26811Y191143D01*
X26801Y191136D01*
X26694Y191015D01*
X26585Y190895D01*
X26578Y190884D01*
X26570Y190874D01*
X26447Y190663D01*
X25999Y189734D01*
X25995Y189722D01*
X25988Y189711D01*
X25938Y189557D01*
X25885Y189404D01*
X25883Y189392D01*
X25879Y189380D01*
X25865Y189219D01*
X25848Y189058D01*
X25848Y189055D01*
X25313Y188270D01*
X25300Y188245D01*
X25199Y188072D01*
X24781Y187206D01*
X24716Y187174D01*
X24706Y187166D01*
X24695Y187160D01*
X24571Y187057D01*
X24445Y186955D01*
X24437Y186945D01*
X24428Y186937D01*
X24274Y186746D01*
X23693Y185894D01*
X23687Y185883D01*
X23679Y185873D01*
X23605Y185727D01*
X23531Y185585D01*
X23528Y185573D01*
X23522Y185562D01*
X23483Y185403D01*
X23443Y185248D01*
X23443Y185245D01*
X22796Y184548D01*
X22780Y184526D01*
X22654Y184370D01*
X22112Y183575D01*
X22043Y183554D01*
X22032Y183547D01*
X22020Y183543D01*
X21882Y183459D01*
X21742Y183377D01*
X21733Y183369D01*
X21722Y183362D01*
X21542Y183197D01*
X20840Y182440D01*
X20833Y182430D01*
X20823Y182422D01*
X20730Y182290D01*
X20634Y182159D01*
X20629Y182148D01*
X20622Y182137D01*
X20561Y181988D01*
X20497Y181839D01*
X20496Y181836D01*
X19753Y181244D01*
X19733Y181224D01*
X19586Y181089D01*
X18932Y180383D01*
X18860Y180372D01*
X18848Y180368D01*
X18836Y180366D01*
X18686Y180303D01*
X18536Y180243D01*
X18526Y180235D01*
X18514Y180231D01*
X18311Y180094D01*
X17505Y179451D01*
X17496Y179442D01*
X17485Y179435D01*
X17373Y179319D01*
X17259Y179204D01*
X17252Y179193D01*
X17244Y179184D01*
X17162Y179046D01*
X17076Y178907D01*
X17075Y178905D01*
X16251Y178429D01*
X16228Y178412D01*
X16063Y178301D01*
X15311Y177701D01*
X15238Y177701D01*
X15226Y177698D01*
X15213Y177698D01*
X15056Y177658D01*
X14899Y177621D01*
X14888Y177615D01*
X14875Y177612D01*
X14654Y177507D01*
X13761Y176991D01*
X13751Y176984D01*
X13739Y176979D01*
X13610Y176880D01*
X13481Y176784D01*
X13473Y176774D01*
X13463Y176766D01*
X13359Y176640D01*
X13256Y176518D01*
X13254Y176516D01*
X12369Y176168D01*
X12344Y176155D01*
X12164Y176070D01*
X11331Y175588D01*
X11259Y175599D01*
X11246Y175598D01*
X11234Y175600D01*
X11072Y175584D01*
X10911Y175571D01*
X10899Y175567D01*
X10887Y175565D01*
X10653Y175495D01*
X9692Y175118D01*
X9681Y175112D01*
X9669Y175108D01*
X9528Y175030D01*
X9385Y174954D01*
X9375Y174946D01*
X9364Y174940D01*
X9244Y174831D01*
X9122Y174725D01*
X9121Y174723D01*
X8193Y174511D01*
X8167Y174502D01*
X7976Y174444D01*
X7080Y174093D01*
X7011Y174114D01*
X6998Y174115D01*
X6986Y174118D01*
X6825Y174126D01*
X6663Y174137D01*
X6650Y174135D01*
X6638Y174136D01*
X6396Y174101D01*
X5390Y173871D01*
X5378Y173867D01*
X5366Y173865D01*
X5214Y173809D01*
X5061Y173755D01*
X5051Y173749D01*
X5039Y173744D01*
X4904Y173655D01*
X4768Y173568D01*
X4766Y173566D01*
X3818Y173495D01*
X3790Y173490D01*
X3592Y173461D01*
X3450Y173428D01*
X3422Y173419D01*
X3392Y173414D01*
X3258Y173361D01*
X3121Y173313D01*
X3096Y173296D01*
X3068Y173285D01*
X2949Y173203D01*
X2828Y173125D01*
X2807Y173104D01*
X2782Y173086D01*
X2685Y172979D01*
X2584Y172876D01*
X2569Y172850D01*
X2549Y172828D01*
X2479Y172701D01*
X2404Y172577D01*
X2395Y172549D01*
X2380Y172523D01*
X2341Y172383D01*
X2296Y172246D01*
X2294Y172216D01*
X2285Y172187D01*
X2266Y171943D01*
X2266Y135893D01*
X-753Y136137D01*
X-782Y136134D01*
X-810Y136138D01*
X-880Y136122D01*
X-951Y136113D01*
X-976Y136099D01*
X-1004Y136092D01*
X-1061Y136050D01*
X-1123Y136014D01*
X-1141Y135991D01*
X-1164Y135974D01*
X-1200Y135913D01*
X-1243Y135856D01*
X-1250Y135828D01*
X-1265Y135803D01*
X-1282Y135704D01*
X-1292Y135663D01*
X-1290Y135652D01*
X-1293Y135639D01*
X-1270Y116599D01*
X-1254Y116524D01*
X-1246Y116448D01*
X-1235Y116427D01*
X-1230Y116405D01*
X-1186Y116341D01*
X-1149Y116274D01*
X-1129Y116258D01*
X-1117Y116241D01*
X-1080Y116217D01*
X-1021Y116168D01*
X15457Y106629D01*
X15484Y106619D01*
X15508Y106603D01*
X15577Y106588D01*
X15645Y106565D01*
X15674Y106567D01*
X15702Y106561D01*
X15772Y106575D01*
X15843Y106580D01*
X15869Y106594D01*
X15897Y106599D01*
X15957Y106639D01*
X16020Y106672D01*
X16038Y106694D01*
X16062Y106710D01*
X16120Y106792D01*
X16147Y106825D01*
X16150Y106835D01*
X16158Y106847D01*
X17457Y109585D01*
X48664Y91569D01*
X48691Y91557D01*
X48716Y91540D01*
X48851Y91487D01*
X48983Y91430D01*
X49013Y91425D01*
X49041Y91414D01*
X49184Y91393D01*
X49326Y91368D01*
X49356Y91369D01*
X49386Y91365D01*
X49530Y91378D01*
G37*
G36*
X149241Y29511D02*
X149241Y29511D01*
X149318Y29510D01*
X149342Y29519D01*
X149363Y29520D01*
X149402Y29541D01*
X149474Y29567D01*
X165974Y39067D01*
X165996Y39086D01*
X166022Y39099D01*
X166056Y39137D01*
X166059Y39139D01*
X166062Y39143D01*
X166070Y39152D01*
X166123Y39199D01*
X166136Y39225D01*
X166155Y39247D01*
X166178Y39314D01*
X166209Y39378D01*
X166211Y39407D01*
X166220Y39434D01*
X166215Y39506D01*
X166218Y39577D01*
X166208Y39604D01*
X166206Y39633D01*
X166164Y39723D01*
X166149Y39763D01*
X166142Y39771D01*
X166136Y39784D01*
X164413Y42280D01*
X195622Y60297D01*
X195645Y60315D01*
X195672Y60328D01*
X195785Y60419D01*
X195901Y60505D01*
X195921Y60528D01*
X195944Y60546D01*
X196033Y60660D01*
X196127Y60771D01*
X196140Y60797D01*
X196159Y60821D01*
X196220Y60952D01*
X196286Y61081D01*
X196293Y61110D01*
X196306Y61137D01*
X196335Y61279D01*
X196370Y61419D01*
X196371Y61449D01*
X196377Y61478D01*
X196373Y61623D01*
X196376Y61768D01*
X196369Y61797D01*
X196369Y61826D01*
X196316Y62065D01*
X196269Y62216D01*
X196258Y62242D01*
X196186Y62428D01*
X195769Y63295D01*
X195785Y63366D01*
X195785Y63379D01*
X195787Y63391D01*
X195784Y63553D01*
X195782Y63715D01*
X195780Y63727D01*
X195779Y63740D01*
X195726Y63978D01*
X195422Y64966D01*
X195417Y64978D01*
X195414Y64990D01*
X195347Y65138D01*
X195282Y65286D01*
X195274Y65296D01*
X195269Y65307D01*
X195170Y65435D01*
X195073Y65565D01*
X195071Y65566D01*
X194929Y66507D01*
X194922Y66533D01*
X194879Y66729D01*
X194595Y67648D01*
X194622Y67716D01*
X194624Y67728D01*
X194628Y67740D01*
X194648Y67901D01*
X194671Y68061D01*
X194670Y68073D01*
X194672Y68086D01*
X194655Y68330D01*
X194501Y69352D01*
X194498Y69365D01*
X194497Y69377D01*
X194453Y69532D01*
X194410Y69689D01*
X194404Y69700D01*
X194401Y69712D01*
X194322Y69853D01*
X194245Y69996D01*
X194244Y69998D01*
X194244Y70949D01*
X194241Y70976D01*
X194227Y71176D01*
X194084Y72127D01*
X194120Y72190D01*
X194124Y72202D01*
X194130Y72214D01*
X194174Y72370D01*
X194221Y72524D01*
X194221Y72537D01*
X194225Y72549D01*
X194245Y72793D01*
X194245Y73827D01*
X194244Y73839D01*
X194245Y73852D01*
X194224Y74012D01*
X194205Y74173D01*
X194201Y74185D01*
X194199Y74197D01*
X194142Y74348D01*
X194088Y74501D01*
X194086Y74503D01*
X194228Y75443D01*
X194229Y75471D01*
X194246Y75670D01*
X194246Y76633D01*
X194291Y76690D01*
X194297Y76701D01*
X194304Y76711D01*
X194371Y76858D01*
X194440Y77005D01*
X194443Y77017D01*
X194448Y77028D01*
X194504Y77267D01*
X194658Y78289D01*
X194659Y78302D01*
X194662Y78314D01*
X194665Y78475D01*
X194671Y78637D01*
X194668Y78650D01*
X194668Y78662D01*
X194635Y78821D01*
X194603Y78979D01*
X194602Y78982D01*
X194883Y79890D01*
X194888Y79918D01*
X194934Y80112D01*
X195077Y81063D01*
X195131Y81113D01*
X195138Y81124D01*
X195147Y81132D01*
X195235Y81268D01*
X195325Y81402D01*
X195329Y81414D01*
X195336Y81425D01*
X195427Y81652D01*
X195732Y82640D01*
X195734Y82652D01*
X195739Y82664D01*
X195766Y82824D01*
X195796Y82983D01*
X195796Y82995D01*
X195798Y83008D01*
X195788Y83169D01*
X195781Y83331D01*
X195780Y83333D01*
X196193Y84190D01*
X196202Y84216D01*
X196276Y84402D01*
X196560Y85321D01*
X196620Y85362D01*
X196629Y85371D01*
X196639Y85379D01*
X196745Y85499D01*
X196855Y85619D01*
X196862Y85630D01*
X196870Y85640D01*
X196994Y85851D01*
X197442Y86782D01*
X197447Y86794D01*
X197453Y86805D01*
X197504Y86958D01*
X197557Y87112D01*
X197558Y87124D01*
X197562Y87136D01*
X197577Y87298D01*
X197593Y87458D01*
X197593Y87461D01*
X198129Y88246D01*
X198142Y88271D01*
X198243Y88443D01*
X198661Y89310D01*
X198726Y89342D01*
X198736Y89350D01*
X198747Y89355D01*
X198872Y89459D01*
X198997Y89561D01*
X199005Y89571D01*
X199015Y89579D01*
X199168Y89769D01*
X199751Y90623D01*
X199757Y90635D01*
X199765Y90644D01*
X199838Y90789D01*
X199913Y90932D01*
X199916Y90944D01*
X199922Y90955D01*
X199960Y91113D01*
X200001Y91269D01*
X200001Y91272D01*
X200648Y91969D01*
X200665Y91991D01*
X200790Y92147D01*
X201332Y92941D01*
X201402Y92963D01*
X201413Y92969D01*
X201425Y92973D01*
X201562Y93057D01*
X201703Y93139D01*
X201712Y93148D01*
X201722Y93155D01*
X201903Y93320D01*
X202606Y94078D01*
X202614Y94088D01*
X202623Y94096D01*
X202717Y94229D01*
X202813Y94358D01*
X202818Y94370D01*
X202825Y94380D01*
X202886Y94531D01*
X202950Y94679D01*
X202950Y94681D01*
X203694Y95274D01*
X203714Y95294D01*
X203861Y95429D01*
X204515Y96134D01*
X204587Y96145D01*
X204599Y96150D01*
X204612Y96152D01*
X204760Y96214D01*
X204911Y96275D01*
X204921Y96282D01*
X204933Y96287D01*
X205136Y96423D01*
X205944Y97068D01*
X205953Y97077D01*
X205964Y97084D01*
X206076Y97200D01*
X206190Y97315D01*
X206197Y97325D01*
X206206Y97334D01*
X206289Y97474D01*
X206374Y97611D01*
X206375Y97613D01*
X207198Y98089D01*
X207221Y98105D01*
X207386Y98217D01*
X208139Y98816D01*
X208212Y98817D01*
X208224Y98819D01*
X208237Y98820D01*
X208394Y98859D01*
X208551Y98896D01*
X208562Y98902D01*
X208574Y98905D01*
X208795Y99010D01*
X209691Y99527D01*
X209701Y99534D01*
X209713Y99540D01*
X209842Y99638D01*
X209971Y99734D01*
X209979Y99744D01*
X209989Y99752D01*
X210093Y99878D01*
X210196Y100000D01*
X210198Y100002D01*
X211083Y100350D01*
X211107Y100362D01*
X211288Y100448D01*
X212122Y100929D01*
X212194Y100918D01*
X212206Y100919D01*
X212219Y100918D01*
X212379Y100933D01*
X212541Y100947D01*
X212553Y100951D01*
X212565Y100952D01*
X212800Y101023D01*
X213762Y101400D01*
X213773Y101406D01*
X213786Y101409D01*
X213927Y101488D01*
X214070Y101563D01*
X214080Y101572D01*
X214091Y101578D01*
X214211Y101687D01*
X214333Y101793D01*
X214334Y101795D01*
X215261Y102006D01*
X215288Y102015D01*
X215479Y102073D01*
X215693Y102157D01*
X215773Y102200D01*
X215858Y102233D01*
X215927Y102281D01*
X216001Y102321D01*
X216069Y102380D01*
X216144Y102432D01*
X216200Y102495D01*
X216263Y102550D01*
X216316Y102623D01*
X216377Y102691D01*
X216418Y102764D01*
X216467Y102833D01*
X216502Y102916D01*
X216546Y102996D01*
X216569Y103077D01*
X216601Y103154D01*
X216616Y103244D01*
X216641Y103331D01*
X216650Y103449D01*
X216658Y103498D01*
X216656Y103527D01*
X216660Y103575D01*
X216660Y130538D01*
X216646Y130664D01*
X216639Y130790D01*
X216626Y130837D01*
X216620Y130885D01*
X216578Y131004D01*
X216543Y131125D01*
X216519Y131167D01*
X216503Y131213D01*
X216434Y131319D01*
X216373Y131429D01*
X216333Y131475D01*
X216314Y131505D01*
X216279Y131539D01*
X216214Y131615D01*
X213622Y134207D01*
X213504Y134301D01*
X213390Y134398D01*
X213368Y134409D01*
X213349Y134424D01*
X213213Y134488D01*
X213079Y134557D01*
X213056Y134563D01*
X213034Y134573D01*
X212887Y134604D01*
X212741Y134641D01*
X212717Y134641D01*
X212693Y134646D01*
X212544Y134644D01*
X212393Y134646D01*
X212369Y134641D01*
X212345Y134640D01*
X212199Y134604D01*
X212052Y134572D01*
X212030Y134561D01*
X212007Y134555D01*
X211873Y134486D01*
X211738Y134422D01*
X211719Y134407D01*
X211697Y134396D01*
X211582Y134298D01*
X211465Y134204D01*
X211450Y134186D01*
X211432Y134170D01*
X211342Y134049D01*
X211249Y133931D01*
X211236Y133905D01*
X211225Y133890D01*
X211206Y133846D01*
X211138Y133713D01*
X210732Y132734D01*
X208954Y130956D01*
X206630Y129993D01*
X205426Y129993D01*
X205400Y129990D01*
X205374Y129992D01*
X205228Y129970D01*
X205080Y129953D01*
X205056Y129945D01*
X205030Y129941D01*
X204892Y129886D01*
X204752Y129836D01*
X204730Y129822D01*
X204706Y129812D01*
X204584Y129727D01*
X204459Y129647D01*
X204441Y129628D01*
X204420Y129613D01*
X204321Y129503D01*
X204217Y129396D01*
X204204Y129374D01*
X204186Y129354D01*
X204114Y129224D01*
X204038Y129097D01*
X204030Y129072D01*
X204018Y129049D01*
X203977Y128906D01*
X203932Y128765D01*
X203930Y128739D01*
X203923Y128714D01*
X203903Y128470D01*
X203903Y126536D01*
X202941Y124212D01*
X201162Y122434D01*
X198838Y121471D01*
X196323Y121471D01*
X193999Y122434D01*
X192220Y124212D01*
X191258Y126536D01*
X191258Y129051D01*
X191848Y130477D01*
X191890Y130622D01*
X191935Y130765D01*
X191937Y130789D01*
X191944Y130812D01*
X191951Y130963D01*
X191963Y131112D01*
X191960Y131136D01*
X191961Y131161D01*
X191934Y131308D01*
X191912Y131457D01*
X191903Y131480D01*
X191898Y131503D01*
X191839Y131641D01*
X191783Y131781D01*
X191769Y131801D01*
X191760Y131823D01*
X191670Y131944D01*
X191584Y132067D01*
X191566Y132083D01*
X191552Y132103D01*
X191437Y132200D01*
X191325Y132301D01*
X191304Y132312D01*
X191286Y132328D01*
X191152Y132396D01*
X191020Y132469D01*
X190997Y132476D01*
X190975Y132487D01*
X190830Y132523D01*
X190685Y132564D01*
X190656Y132566D01*
X190637Y132571D01*
X190590Y132572D01*
X190441Y132584D01*
X188060Y132584D01*
X186862Y133080D01*
X186837Y133087D01*
X186814Y133099D01*
X186670Y133135D01*
X186527Y133175D01*
X186501Y133177D01*
X186475Y133183D01*
X186327Y133185D01*
X186179Y133192D01*
X186153Y133188D01*
X186127Y133188D01*
X185982Y133157D01*
X185836Y133130D01*
X185812Y133119D01*
X185786Y133114D01*
X185653Y133050D01*
X185516Y132991D01*
X185495Y132975D01*
X185472Y132964D01*
X185356Y132872D01*
X185237Y132783D01*
X185220Y132763D01*
X185199Y132747D01*
X185107Y132630D01*
X185012Y132517D01*
X185000Y132494D01*
X184983Y132473D01*
X184872Y132255D01*
X184828Y132150D01*
X183050Y130371D01*
X180726Y129409D01*
X179051Y129409D01*
X179025Y129406D01*
X178999Y129408D01*
X178853Y129386D01*
X178705Y129369D01*
X178681Y129360D01*
X178655Y129356D01*
X178517Y129301D01*
X178377Y129251D01*
X178355Y129237D01*
X178331Y129227D01*
X178209Y129143D01*
X178084Y129062D01*
X178066Y129043D01*
X178045Y129028D01*
X177946Y128918D01*
X177842Y128811D01*
X177829Y128789D01*
X177811Y128769D01*
X177739Y128640D01*
X177663Y128512D01*
X177655Y128487D01*
X177643Y128464D01*
X177602Y128322D01*
X177557Y128180D01*
X177555Y128154D01*
X177548Y128129D01*
X177528Y127885D01*
X177528Y126536D01*
X176566Y124212D01*
X174787Y122434D01*
X172463Y121471D01*
X169995Y121471D01*
X169969Y121468D01*
X169943Y121470D01*
X169796Y121448D01*
X169649Y121431D01*
X169624Y121422D01*
X169598Y121418D01*
X169461Y121364D01*
X169321Y121314D01*
X169299Y121299D01*
X169274Y121290D01*
X169153Y121205D01*
X169028Y121125D01*
X169010Y121106D01*
X168988Y121091D01*
X168889Y120981D01*
X168786Y120874D01*
X168772Y120851D01*
X168755Y120832D01*
X168683Y120702D01*
X168607Y120575D01*
X168599Y120550D01*
X168586Y120527D01*
X168546Y120384D01*
X168501Y120243D01*
X168499Y120217D01*
X168492Y120192D01*
X168473Y119963D01*
X167509Y117636D01*
X165731Y115858D01*
X163407Y114895D01*
X160892Y114895D01*
X158568Y115858D01*
X156789Y117636D01*
X155827Y119960D01*
X155827Y122475D01*
X156789Y124799D01*
X157479Y125489D01*
X157495Y125509D01*
X157515Y125526D01*
X157603Y125645D01*
X157695Y125762D01*
X157706Y125785D01*
X157722Y125807D01*
X157781Y125942D01*
X157844Y126077D01*
X157850Y126103D01*
X157860Y126127D01*
X157886Y126273D01*
X157917Y126418D01*
X157917Y126444D01*
X157922Y126470D01*
X157914Y126618D01*
X157912Y126766D01*
X157905Y126791D01*
X157904Y126818D01*
X157863Y126960D01*
X157827Y127104D01*
X157815Y127127D01*
X157807Y127153D01*
X157735Y127282D01*
X157667Y127414D01*
X157650Y127434D01*
X157637Y127457D01*
X157479Y127643D01*
X145991Y139130D01*
X145913Y139193D01*
X145840Y139262D01*
X145777Y139301D01*
X145718Y139347D01*
X145628Y139390D01*
X145541Y139441D01*
X145471Y139464D01*
X145403Y139496D01*
X145305Y139517D01*
X145209Y139548D01*
X145135Y139553D01*
X145063Y139569D01*
X144962Y139567D01*
X144862Y139575D01*
X144788Y139564D01*
X144714Y139563D01*
X144617Y139539D01*
X144517Y139524D01*
X144448Y139496D01*
X144376Y139478D01*
X144287Y139432D01*
X144193Y139395D01*
X144132Y139353D01*
X144066Y139319D01*
X143990Y139253D01*
X143907Y139196D01*
X143858Y139141D01*
X143801Y139093D01*
X143741Y139012D01*
X143674Y138937D01*
X143638Y138872D01*
X143594Y138812D01*
X143554Y138720D01*
X143505Y138632D01*
X143485Y138561D01*
X143456Y138492D01*
X143438Y138394D01*
X143411Y138297D01*
X143403Y138197D01*
X143394Y138149D01*
X143396Y138114D01*
X143391Y138053D01*
X143391Y128246D01*
X142068Y126923D01*
X141989Y126824D01*
X141905Y126730D01*
X141882Y126688D01*
X141852Y126650D01*
X141798Y126536D01*
X141736Y126425D01*
X141723Y126378D01*
X141703Y126335D01*
X141676Y126211D01*
X141642Y126089D01*
X141637Y126029D01*
X141629Y125994D01*
X141630Y125946D01*
X141622Y125846D01*
X141622Y117773D01*
X140134Y116284D01*
X138899Y116284D01*
X138873Y116281D01*
X138847Y116283D01*
X138701Y116261D01*
X138553Y116244D01*
X138529Y116236D01*
X138503Y116232D01*
X138365Y116177D01*
X138225Y116127D01*
X138203Y116113D01*
X138179Y116103D01*
X138057Y116018D01*
X137932Y115938D01*
X137914Y115919D01*
X137893Y115904D01*
X137794Y115794D01*
X137690Y115687D01*
X137677Y115665D01*
X137659Y115645D01*
X137587Y115515D01*
X137511Y115388D01*
X137503Y115363D01*
X137491Y115340D01*
X137450Y115197D01*
X137405Y115056D01*
X137403Y115030D01*
X137396Y115005D01*
X137376Y114761D01*
X137376Y113958D01*
X137379Y113932D01*
X137377Y113906D01*
X137399Y113759D01*
X137416Y113612D01*
X137425Y113587D01*
X137429Y113561D01*
X137484Y113423D01*
X137534Y113283D01*
X137548Y113261D01*
X137558Y113237D01*
X137642Y113115D01*
X137723Y112991D01*
X137742Y112972D01*
X137756Y112951D01*
X137866Y112852D01*
X137973Y112748D01*
X137996Y112735D01*
X138015Y112717D01*
X138145Y112646D01*
X138272Y112570D01*
X138297Y112562D01*
X138320Y112549D01*
X138463Y112508D01*
X138604Y112463D01*
X138630Y112461D01*
X138656Y112454D01*
X138899Y112434D01*
X139340Y112434D01*
X140828Y110946D01*
X140828Y93841D01*
X139340Y92353D01*
X138899Y92353D01*
X138873Y92350D01*
X138847Y92352D01*
X138701Y92330D01*
X138553Y92313D01*
X138529Y92304D01*
X138503Y92300D01*
X138365Y92246D01*
X138225Y92196D01*
X138203Y92181D01*
X138179Y92172D01*
X138057Y92087D01*
X137932Y92007D01*
X137914Y91988D01*
X137893Y91973D01*
X137794Y91863D01*
X137690Y91756D01*
X137677Y91733D01*
X137659Y91714D01*
X137587Y91584D01*
X137511Y91457D01*
X137503Y91432D01*
X137491Y91409D01*
X137450Y91266D01*
X137405Y91125D01*
X137403Y91099D01*
X137396Y91074D01*
X137376Y90830D01*
X137376Y88204D01*
X137376Y88202D01*
X137376Y88200D01*
X137397Y88022D01*
X137416Y87857D01*
X137417Y87856D01*
X137417Y87853D01*
X137492Y87621D01*
X138085Y86189D01*
X138085Y83674D01*
X137123Y81350D01*
X135344Y79571D01*
X133020Y78609D01*
X130505Y78609D01*
X128181Y79571D01*
X126402Y81350D01*
X125440Y83674D01*
X125440Y86189D01*
X126083Y87741D01*
X126083Y87743D01*
X126084Y87745D01*
X126129Y87904D01*
X126178Y88076D01*
X126179Y88079D01*
X126179Y88081D01*
X126199Y88324D01*
X126199Y90830D01*
X126196Y90856D01*
X126198Y90882D01*
X126176Y91029D01*
X126159Y91176D01*
X126150Y91201D01*
X126146Y91227D01*
X126091Y91364D01*
X126041Y91504D01*
X126027Y91526D01*
X126017Y91551D01*
X125933Y91672D01*
X125852Y91797D01*
X125833Y91815D01*
X125819Y91837D01*
X125709Y91936D01*
X125602Y92039D01*
X125579Y92053D01*
X125560Y92070D01*
X125430Y92142D01*
X125303Y92218D01*
X125278Y92226D01*
X125255Y92239D01*
X125112Y92279D01*
X124971Y92324D01*
X124945Y92326D01*
X124919Y92333D01*
X124676Y92353D01*
X124235Y92353D01*
X122747Y93841D01*
X122747Y110946D01*
X124235Y112434D01*
X124676Y112434D01*
X124702Y112437D01*
X124728Y112435D01*
X124874Y112457D01*
X125022Y112474D01*
X125046Y112483D01*
X125072Y112487D01*
X125210Y112542D01*
X125350Y112592D01*
X125372Y112606D01*
X125396Y112616D01*
X125518Y112700D01*
X125643Y112781D01*
X125661Y112800D01*
X125682Y112815D01*
X125781Y112925D01*
X125885Y113032D01*
X125898Y113054D01*
X125916Y113074D01*
X125988Y113203D01*
X126064Y113331D01*
X126072Y113356D01*
X126084Y113379D01*
X126125Y113521D01*
X126170Y113663D01*
X126172Y113689D01*
X126179Y113714D01*
X126199Y113958D01*
X126199Y116483D01*
X126184Y116609D01*
X126178Y116735D01*
X126164Y116782D01*
X126159Y116830D01*
X126116Y116949D01*
X126081Y117070D01*
X126058Y117112D01*
X126041Y117158D01*
X125973Y117264D01*
X125911Y117374D01*
X125872Y117421D01*
X125852Y117451D01*
X125818Y117484D01*
X125753Y117560D01*
X125541Y117773D01*
X125541Y122824D01*
X125529Y122924D01*
X125527Y123024D01*
X125509Y123096D01*
X125501Y123170D01*
X125467Y123265D01*
X125442Y123362D01*
X125408Y123428D01*
X125383Y123498D01*
X125329Y123583D01*
X125283Y123672D01*
X125234Y123729D01*
X125194Y123791D01*
X125122Y123861D01*
X125057Y123937D01*
X124997Y123981D01*
X124943Y124033D01*
X124857Y124085D01*
X124777Y124144D01*
X124708Y124174D01*
X124644Y124212D01*
X124549Y124243D01*
X124457Y124282D01*
X124383Y124296D01*
X124312Y124318D01*
X124212Y124326D01*
X124114Y124344D01*
X124039Y124340D01*
X123965Y124346D01*
X123866Y124331D01*
X123765Y124326D01*
X123694Y124306D01*
X123620Y124295D01*
X123527Y124257D01*
X123431Y124230D01*
X123366Y124193D01*
X123297Y124166D01*
X123214Y124109D01*
X123126Y124059D01*
X123050Y123994D01*
X123010Y123967D01*
X122987Y123940D01*
X122940Y123901D01*
X114979Y115940D01*
X112806Y115940D01*
X112681Y115925D01*
X112555Y115919D01*
X112508Y115905D01*
X112460Y115900D01*
X112341Y115857D01*
X112220Y115822D01*
X112178Y115798D01*
X112132Y115782D01*
X112026Y115713D01*
X111916Y115652D01*
X111869Y115613D01*
X111839Y115593D01*
X111806Y115558D01*
X111729Y115493D01*
X94222Y97986D01*
X94219Y97983D01*
X94116Y97853D01*
X94005Y97714D01*
X94004Y97712D01*
X94002Y97710D01*
X93929Y97555D01*
X93855Y97399D01*
X93854Y97397D01*
X93854Y97395D01*
X93817Y97226D01*
X93781Y97059D01*
X93781Y97056D01*
X93780Y97054D01*
X93783Y96882D01*
X93786Y96710D01*
X93786Y96708D01*
X93786Y96706D01*
X93828Y96538D01*
X93870Y96372D01*
X93871Y96370D01*
X93871Y96368D01*
X93953Y96209D01*
X94028Y96062D01*
X94030Y96060D01*
X94031Y96058D01*
X94037Y96051D01*
X94180Y95870D01*
X94589Y95429D01*
X94610Y95411D01*
X94756Y95274D01*
X95508Y94674D01*
X95525Y94604D01*
X95530Y94592D01*
X95533Y94580D01*
X95607Y94436D01*
X95678Y94291D01*
X95686Y94281D01*
X95692Y94270D01*
X95844Y94078D01*
X96547Y93320D01*
X96557Y93312D01*
X96565Y93302D01*
X96689Y93199D01*
X96812Y93093D01*
X96823Y93087D01*
X96833Y93079D01*
X96977Y93008D01*
X97121Y92933D01*
X97124Y92932D01*
X97660Y92147D01*
X97678Y92125D01*
X97802Y91969D01*
X98456Y91264D01*
X98462Y91191D01*
X98466Y91179D01*
X98467Y91166D01*
X98519Y91012D01*
X98567Y90859D01*
X98574Y90848D01*
X98578Y90836D01*
X98699Y90623D01*
X99282Y89769D01*
X99290Y89760D01*
X99296Y89749D01*
X99404Y89628D01*
X99510Y89506D01*
X99520Y89498D01*
X99528Y89489D01*
X99661Y89396D01*
X99792Y89301D01*
X99794Y89300D01*
X100207Y88443D01*
X100222Y88420D01*
X100321Y88246D01*
X100863Y87451D01*
X100858Y87379D01*
X100860Y87366D01*
X100859Y87354D01*
X100887Y87195D01*
X100912Y87035D01*
X100917Y87023D01*
X100919Y87011D01*
X101008Y86782D01*
X101457Y85851D01*
X101463Y85840D01*
X101468Y85828D01*
X101556Y85693D01*
X101643Y85556D01*
X101652Y85547D01*
X101659Y85537D01*
X101775Y85426D01*
X101891Y85312D01*
X101893Y85310D01*
X102174Y84402D01*
X102185Y84376D01*
X102257Y84190D01*
X102675Y83323D01*
X102659Y83252D01*
X102659Y83239D01*
X102656Y83227D01*
X102660Y83066D01*
X102661Y82904D01*
X102664Y82891D01*
X102665Y82879D01*
X102718Y82640D01*
X103023Y81652D01*
X103028Y81640D01*
X103031Y81628D01*
X103098Y81481D01*
X103163Y81333D01*
X103171Y81323D01*
X103176Y81311D01*
X103275Y81183D01*
X103372Y81054D01*
X103374Y81053D01*
X103516Y80112D01*
X103524Y80085D01*
X103567Y79890D01*
X103851Y78971D01*
X103824Y78903D01*
X103823Y78891D01*
X103818Y78879D01*
X103798Y78718D01*
X103775Y78558D01*
X103776Y78546D01*
X103775Y78533D01*
X103792Y78289D01*
X103946Y77267D01*
X103949Y77254D01*
X103950Y77242D01*
X103995Y77086D01*
X104037Y76930D01*
X104043Y76919D01*
X104047Y76907D01*
X104126Y76766D01*
X104202Y76623D01*
X104204Y76621D01*
X104204Y75670D01*
X104208Y75643D01*
X104222Y75443D01*
X104365Y74492D01*
X104329Y74429D01*
X104325Y74417D01*
X104319Y74406D01*
X104275Y74250D01*
X104229Y74095D01*
X104228Y74083D01*
X104225Y74070D01*
X104205Y73827D01*
X104205Y72793D01*
X104207Y72780D01*
X104206Y72767D01*
X104227Y72607D01*
X104245Y72446D01*
X104250Y72435D01*
X104251Y72422D01*
X104308Y72271D01*
X104363Y72118D01*
X104364Y72116D01*
X104223Y71176D01*
X104222Y71148D01*
X104206Y70949D01*
X104206Y69987D01*
X104161Y69930D01*
X104156Y69918D01*
X104148Y69908D01*
X104082Y69762D01*
X104012Y69615D01*
X104009Y69602D01*
X104004Y69591D01*
X103949Y69352D01*
X103795Y68330D01*
X103794Y68317D01*
X103791Y68305D01*
X103788Y68143D01*
X103783Y67982D01*
X103785Y67969D01*
X103785Y67957D01*
X103819Y67798D01*
X103850Y67640D01*
X103851Y67637D01*
X103571Y66729D01*
X103566Y66701D01*
X103521Y66507D01*
X103378Y65555D01*
X103324Y65506D01*
X103317Y65495D01*
X103308Y65486D01*
X103220Y65350D01*
X103130Y65216D01*
X103126Y65204D01*
X103119Y65194D01*
X103028Y64966D01*
X102724Y63978D01*
X102722Y63966D01*
X102717Y63954D01*
X102690Y63794D01*
X102660Y63636D01*
X102661Y63623D01*
X102658Y63611D01*
X102668Y63449D01*
X102676Y63287D01*
X102676Y63285D01*
X102264Y62428D01*
X102255Y62402D01*
X102181Y62216D01*
X102134Y62065D01*
X102129Y62036D01*
X102118Y62008D01*
X102097Y61865D01*
X102071Y61722D01*
X102072Y61693D01*
X102068Y61663D01*
X102080Y61519D01*
X102086Y61374D01*
X102094Y61346D01*
X102097Y61316D01*
X102141Y61178D01*
X102181Y61039D01*
X102195Y61013D01*
X102204Y60984D01*
X102279Y60860D01*
X102349Y60734D01*
X102369Y60711D01*
X102384Y60686D01*
X102485Y60582D01*
X102582Y60475D01*
X102606Y60458D01*
X102627Y60436D01*
X102829Y60297D01*
X134037Y42280D01*
X132314Y39784D01*
X132303Y39757D01*
X132284Y39735D01*
X132264Y39666D01*
X132236Y39601D01*
X132236Y39572D01*
X132228Y39544D01*
X132236Y39473D01*
X132236Y39402D01*
X132247Y39375D01*
X132250Y39346D01*
X132285Y39284D01*
X132313Y39219D01*
X132333Y39198D01*
X132348Y39173D01*
X132411Y39121D01*
X132415Y39116D01*
X132424Y39110D01*
X132425Y39110D01*
X132455Y39080D01*
X132465Y39076D01*
X132476Y39067D01*
X148976Y29567D01*
X149049Y29543D01*
X149119Y29512D01*
X149143Y29512D01*
X149165Y29504D01*
X149241Y29511D01*
G37*
G36*
X87749Y195973D02*
X87749Y195973D01*
X87873Y195976D01*
X87922Y195988D01*
X87972Y195992D01*
X88091Y196030D01*
X88211Y196061D01*
X88256Y196084D01*
X88304Y196099D01*
X88411Y196163D01*
X88521Y196220D01*
X88560Y196253D01*
X88603Y196279D01*
X88692Y196365D01*
X88787Y196446D01*
X88817Y196487D01*
X88853Y196522D01*
X88920Y196626D01*
X88994Y196726D01*
X89014Y196773D01*
X89041Y196815D01*
X89083Y196932D01*
X89132Y197046D01*
X89141Y197096D01*
X89158Y197143D01*
X89171Y197267D01*
X89193Y197389D01*
X89191Y197440D01*
X89196Y197490D01*
X89182Y197613D01*
X89176Y197737D01*
X89162Y197786D01*
X89156Y197836D01*
X89081Y198069D01*
X88134Y200355D01*
X88134Y202870D01*
X88237Y203120D01*
X88278Y203265D01*
X88324Y203408D01*
X88326Y203432D01*
X88333Y203455D01*
X88340Y203605D01*
X88352Y203755D01*
X88349Y203779D01*
X88350Y203804D01*
X88323Y203951D01*
X88301Y204100D01*
X88292Y204123D01*
X88287Y204146D01*
X88227Y204284D01*
X88172Y204424D01*
X88158Y204444D01*
X88148Y204466D01*
X88058Y204587D01*
X87973Y204710D01*
X87955Y204726D01*
X87941Y204746D01*
X87826Y204843D01*
X87714Y204944D01*
X87693Y204955D01*
X87674Y204971D01*
X87541Y205039D01*
X87409Y205112D01*
X87386Y205119D01*
X87364Y205130D01*
X87218Y205166D01*
X87074Y205207D01*
X87045Y205209D01*
X87026Y205214D01*
X86979Y205215D01*
X86830Y205227D01*
X85675Y205227D01*
X52525Y238377D01*
X52426Y238455D01*
X52332Y238540D01*
X52290Y238563D01*
X52252Y238593D01*
X52138Y238647D01*
X52027Y238708D01*
X51981Y238722D01*
X51937Y238742D01*
X51814Y238769D01*
X51758Y238784D01*
X49339Y241204D01*
X49339Y281953D01*
X49324Y282078D01*
X49318Y282205D01*
X49304Y282251D01*
X49299Y282299D01*
X49256Y282418D01*
X49221Y282539D01*
X49198Y282582D01*
X49181Y282627D01*
X49113Y282733D01*
X49051Y282844D01*
X49012Y282890D01*
X48992Y282920D01*
X48968Y282943D01*
X47998Y285286D01*
X47998Y287801D01*
X48960Y290125D01*
X50739Y291904D01*
X53063Y292866D01*
X55578Y292866D01*
X55742Y292799D01*
X55886Y292758D01*
X56029Y292712D01*
X56053Y292710D01*
X56077Y292703D01*
X56227Y292696D01*
X56377Y292684D01*
X56401Y292687D01*
X56425Y292686D01*
X56572Y292713D01*
X56721Y292735D01*
X56744Y292744D01*
X56768Y292749D01*
X56906Y292809D01*
X57045Y292864D01*
X57065Y292878D01*
X57087Y292888D01*
X57208Y292978D01*
X57331Y293063D01*
X57348Y293081D01*
X57367Y293095D01*
X57464Y293210D01*
X57565Y293322D01*
X57577Y293343D01*
X57592Y293361D01*
X57661Y293495D01*
X57733Y293627D01*
X57740Y293650D01*
X57751Y293672D01*
X57787Y293818D01*
X57813Y293910D01*
X57819Y293927D01*
X57819Y293930D01*
X57828Y293962D01*
X57830Y293991D01*
X57835Y294010D01*
X57836Y294057D01*
X57848Y294206D01*
X57848Y307059D01*
X57831Y307208D01*
X57818Y307359D01*
X57811Y307381D01*
X57808Y307405D01*
X57757Y307547D01*
X57711Y307690D01*
X57698Y307711D01*
X57690Y307733D01*
X57609Y307860D01*
X57531Y307989D01*
X57514Y308006D01*
X57501Y308026D01*
X57393Y308131D01*
X57288Y308239D01*
X57264Y308255D01*
X57251Y308268D01*
X57210Y308292D01*
X57087Y308378D01*
X56349Y308804D01*
X56323Y308871D01*
X56315Y308882D01*
X56311Y308893D01*
X56216Y309025D01*
X56124Y309158D01*
X56115Y309166D01*
X56108Y309177D01*
X55929Y309344D01*
X55121Y309989D01*
X55110Y309996D01*
X55101Y310004D01*
X54963Y310088D01*
X54826Y310174D01*
X54814Y310178D01*
X54803Y310184D01*
X54649Y310234D01*
X54496Y310287D01*
X54493Y310287D01*
X53847Y310984D01*
X53825Y311003D01*
X53680Y311139D01*
X52928Y311739D01*
X52911Y311810D01*
X52906Y311822D01*
X52903Y311834D01*
X52829Y311978D01*
X52758Y312123D01*
X52750Y312133D01*
X52744Y312144D01*
X52593Y312336D01*
X51890Y313094D01*
X51880Y313103D01*
X51873Y313113D01*
X51748Y313216D01*
X51625Y313321D01*
X51614Y313327D01*
X51604Y313335D01*
X51460Y313407D01*
X51316Y313482D01*
X51314Y313482D01*
X50778Y314268D01*
X50760Y314289D01*
X50636Y314446D01*
X50542Y314548D01*
X50519Y314568D01*
X50500Y314591D01*
X50387Y314681D01*
X50277Y314775D01*
X50251Y314789D01*
X50227Y314807D01*
X50096Y314869D01*
X49968Y314935D01*
X49939Y314943D01*
X49912Y314956D01*
X49770Y314986D01*
X49630Y315022D01*
X49600Y315022D01*
X49571Y315029D01*
X49426Y315026D01*
X49282Y315029D01*
X49253Y315022D01*
X49222Y315022D01*
X49082Y314986D01*
X48941Y314957D01*
X48914Y314944D01*
X48884Y314936D01*
X48664Y314831D01*
X17457Y296815D01*
X16158Y299553D01*
X16140Y299577D01*
X16130Y299604D01*
X16081Y299656D01*
X16038Y299713D01*
X16013Y299727D01*
X15993Y299748D01*
X15928Y299777D01*
X15866Y299812D01*
X15838Y299816D01*
X15811Y299828D01*
X15740Y299828D01*
X15669Y299837D01*
X15641Y299829D01*
X15612Y299830D01*
X15519Y299795D01*
X15478Y299783D01*
X15469Y299776D01*
X15457Y299771D01*
X-1021Y290232D01*
X-1078Y290181D01*
X-1140Y290136D01*
X-1152Y290116D01*
X-1170Y290100D01*
X-1203Y290031D01*
X-1242Y289965D01*
X-1246Y289939D01*
X-1255Y289921D01*
X-1257Y289876D01*
X-1270Y289801D01*
X-1293Y270761D01*
X-1287Y270733D01*
X-1289Y270704D01*
X-1267Y270636D01*
X-1253Y270566D01*
X-1237Y270542D01*
X-1228Y270515D01*
X-1181Y270461D01*
X-1141Y270402D01*
X-1117Y270387D01*
X-1098Y270365D01*
X-1033Y270333D01*
X-973Y270295D01*
X-945Y270290D01*
X-919Y270277D01*
X-819Y270269D01*
X-777Y270262D01*
X-767Y270264D01*
X-753Y270263D01*
X2266Y270507D01*
X2266Y234457D01*
X2269Y234427D01*
X2267Y234397D01*
X2289Y234254D01*
X2306Y234110D01*
X2316Y234082D01*
X2320Y234053D01*
X2374Y233918D01*
X2423Y233782D01*
X2439Y233757D01*
X2451Y233729D01*
X2534Y233611D01*
X2612Y233489D01*
X2634Y233469D01*
X2651Y233444D01*
X2759Y233348D01*
X2863Y233247D01*
X2888Y233232D01*
X2911Y233212D01*
X3038Y233143D01*
X3162Y233068D01*
X3190Y233059D01*
X3217Y233045D01*
X3450Y232972D01*
X3592Y232939D01*
X3620Y232936D01*
X3818Y232905D01*
X4777Y232833D01*
X4830Y232784D01*
X4841Y232778D01*
X4851Y232769D01*
X4993Y232692D01*
X5133Y232612D01*
X5146Y232608D01*
X5157Y232602D01*
X5390Y232529D01*
X6396Y232299D01*
X6408Y232298D01*
X6420Y232294D01*
X6582Y232279D01*
X6742Y232261D01*
X6755Y232262D01*
X6767Y232261D01*
X6928Y232283D01*
X7088Y232303D01*
X7091Y232303D01*
X7976Y231956D01*
X8003Y231949D01*
X8193Y231889D01*
X9131Y231675D01*
X9177Y231618D01*
X9187Y231610D01*
X9195Y231600D01*
X9324Y231502D01*
X9451Y231403D01*
X9463Y231397D01*
X9473Y231390D01*
X9692Y231282D01*
X10653Y230905D01*
X10665Y230902D01*
X10676Y230896D01*
X10832Y230858D01*
X10990Y230816D01*
X11002Y230816D01*
X11014Y230813D01*
X11176Y230810D01*
X11338Y230806D01*
X11341Y230806D01*
X12164Y230330D01*
X12189Y230320D01*
X12369Y230232D01*
X13265Y229880D01*
X13301Y229817D01*
X13310Y229808D01*
X13316Y229797D01*
X13429Y229682D01*
X13540Y229564D01*
X13551Y229557D01*
X13560Y229548D01*
X13761Y229409D01*
X14654Y228893D01*
X14666Y228888D01*
X14676Y228880D01*
X14769Y228842D01*
X14778Y228837D01*
X14787Y228835D01*
X14826Y228818D01*
X14974Y228754D01*
X14987Y228752D01*
X14998Y228747D01*
X15158Y228721D01*
X15317Y228692D01*
X15320Y228692D01*
X16063Y228099D01*
X16086Y228084D01*
X16251Y227971D01*
X17084Y227490D01*
X17111Y227422D01*
X17118Y227412D01*
X17123Y227400D01*
X17217Y227269D01*
X17310Y227135D01*
X17319Y227127D01*
X17326Y227117D01*
X17505Y226949D01*
X18311Y226306D01*
X18322Y226299D01*
X18331Y226291D01*
X18470Y226207D01*
X18607Y226121D01*
X18619Y226117D01*
X18630Y226111D01*
X18783Y226061D01*
X18937Y226009D01*
X18939Y226008D01*
X19586Y225311D01*
X19608Y225293D01*
X19753Y225156D01*
X20505Y224557D01*
X20521Y224486D01*
X20527Y224474D01*
X20530Y224462D01*
X20603Y224319D01*
X20675Y224173D01*
X20683Y224163D01*
X20689Y224152D01*
X20840Y223960D01*
X21542Y223203D01*
X21552Y223195D01*
X21559Y223185D01*
X21685Y223081D01*
X21807Y222977D01*
X21818Y222971D01*
X21828Y222963D01*
X21973Y222890D01*
X22116Y222816D01*
X22118Y222815D01*
X22654Y222030D01*
X22672Y222009D01*
X22796Y221852D01*
X23450Y221146D01*
X23456Y221074D01*
X23460Y221062D01*
X23461Y221049D01*
X23513Y220895D01*
X23561Y220742D01*
X23568Y220731D01*
X23572Y220719D01*
X23693Y220506D01*
X24274Y219654D01*
X24282Y219644D01*
X24288Y219633D01*
X24397Y219512D01*
X24502Y219390D01*
X24512Y219383D01*
X24521Y219373D01*
X24653Y219280D01*
X24784Y219185D01*
X24786Y219184D01*
X25199Y218328D01*
X25214Y218304D01*
X25313Y218130D01*
X25855Y217335D01*
X25849Y217263D01*
X25851Y217250D01*
X25851Y217238D01*
X25879Y217078D01*
X25904Y216919D01*
X25909Y216907D01*
X25911Y216894D01*
X25999Y216666D01*
X26447Y215737D01*
X26453Y215726D01*
X26458Y215714D01*
X26546Y215579D01*
X26633Y215442D01*
X26642Y215433D01*
X26649Y215423D01*
X26766Y215311D01*
X26881Y215197D01*
X26883Y215196D01*
X27163Y214287D01*
X27175Y214262D01*
X27247Y214075D01*
X27660Y213217D01*
X27744Y213083D01*
X27826Y212948D01*
X27837Y212937D01*
X27846Y212922D01*
X27959Y212811D01*
X28068Y212699D01*
X28082Y212690D01*
X28094Y212678D01*
X28230Y212595D01*
X28362Y212510D01*
X28377Y212505D01*
X28392Y212496D01*
X28541Y212446D01*
X28690Y212394D01*
X28707Y212392D01*
X28723Y212387D01*
X28879Y212372D01*
X29036Y212355D01*
X29053Y212357D01*
X29070Y212355D01*
X29226Y212377D01*
X29383Y212395D01*
X29401Y212402D01*
X29415Y212403D01*
X29453Y212418D01*
X29615Y212471D01*
X32080Y213491D01*
X34595Y213491D01*
X36919Y212529D01*
X38698Y210750D01*
X39325Y209236D01*
X39362Y209169D01*
X39390Y209098D01*
X39446Y209018D01*
X39494Y208932D01*
X39545Y208875D01*
X39589Y208812D01*
X39662Y208746D01*
X39728Y208674D01*
X39791Y208630D01*
X39848Y208579D01*
X39934Y208531D01*
X40015Y208475D01*
X40086Y208447D01*
X40153Y208410D01*
X40248Y208384D01*
X40339Y208348D01*
X40415Y208336D01*
X40488Y208316D01*
X40637Y208304D01*
X40684Y208297D01*
X40703Y208298D01*
X40732Y208296D01*
X74709Y208296D01*
X77536Y205469D01*
X86596Y196409D01*
X86636Y196377D01*
X86669Y196340D01*
X86772Y196269D01*
X86869Y196192D01*
X86915Y196170D01*
X86956Y196142D01*
X87072Y196096D01*
X87184Y196043D01*
X87233Y196032D01*
X87280Y196014D01*
X87404Y195996D01*
X87525Y195970D01*
X87575Y195970D01*
X87625Y195963D01*
X87749Y195973D01*
G37*
G36*
X495352Y147854D02*
X495352Y147854D01*
X495500Y147856D01*
X495526Y147862D01*
X495552Y147864D01*
X495694Y147905D01*
X495838Y147941D01*
X495861Y147953D01*
X495887Y147960D01*
X496016Y148033D01*
X496148Y148101D01*
X496168Y148118D01*
X496191Y148130D01*
X496377Y148289D01*
X497416Y149328D01*
X509334Y149328D01*
X509360Y149331D01*
X509386Y149329D01*
X509532Y149351D01*
X509680Y149368D01*
X509704Y149377D01*
X509730Y149381D01*
X509868Y149436D01*
X510008Y149486D01*
X510030Y149500D01*
X510054Y149510D01*
X510176Y149594D01*
X510301Y149675D01*
X510319Y149694D01*
X510340Y149708D01*
X510439Y149818D01*
X510543Y149925D01*
X510556Y149948D01*
X510574Y149967D01*
X510646Y150097D01*
X510722Y150224D01*
X510730Y150249D01*
X510742Y150272D01*
X510783Y150415D01*
X510828Y150556D01*
X510830Y150582D01*
X510837Y150608D01*
X510857Y150851D01*
X510857Y171611D01*
X510854Y171637D01*
X510856Y171663D01*
X510834Y171810D01*
X510817Y171957D01*
X510808Y171982D01*
X510804Y172008D01*
X510749Y172146D01*
X510699Y172285D01*
X510685Y172307D01*
X510675Y172332D01*
X510591Y172453D01*
X510510Y172578D01*
X510491Y172596D01*
X510477Y172618D01*
X510367Y172717D01*
X510260Y172820D01*
X510237Y172834D01*
X510218Y172851D01*
X510107Y172913D01*
X508397Y174623D01*
X508397Y190727D01*
X510203Y192534D01*
X510266Y192612D01*
X510336Y192685D01*
X510374Y192749D01*
X510420Y192807D01*
X510463Y192898D01*
X510514Y192984D01*
X510537Y193055D01*
X510569Y193122D01*
X510590Y193220D01*
X510621Y193316D01*
X510627Y193390D01*
X510642Y193463D01*
X510640Y193563D01*
X510649Y193663D01*
X510638Y193737D01*
X510636Y193811D01*
X510612Y193908D01*
X510597Y194008D01*
X510569Y194077D01*
X510551Y194149D01*
X510505Y194238D01*
X510468Y194332D01*
X510426Y194393D01*
X510392Y194459D01*
X510327Y194535D01*
X510269Y194618D01*
X510214Y194668D01*
X510166Y194724D01*
X510085Y194784D01*
X510010Y194851D01*
X509945Y194887D01*
X509885Y194932D01*
X509793Y194971D01*
X509705Y195020D01*
X509634Y195040D01*
X509565Y195070D01*
X509467Y195087D01*
X509370Y195115D01*
X509270Y195123D01*
X509222Y195131D01*
X509187Y195129D01*
X509126Y195134D01*
X500385Y195134D01*
X498897Y196623D01*
X498897Y212727D01*
X500367Y214198D01*
X500384Y214218D01*
X500404Y214235D01*
X500492Y214355D01*
X500584Y214471D01*
X500595Y214495D01*
X500611Y214516D01*
X500669Y214652D01*
X500733Y214786D01*
X500738Y214812D01*
X500749Y214836D01*
X500775Y214982D01*
X500806Y215127D01*
X500806Y215153D01*
X500810Y215179D01*
X500803Y215327D01*
X500800Y215475D01*
X500794Y215501D01*
X500792Y215527D01*
X500751Y215669D01*
X500715Y215813D01*
X500703Y215836D01*
X500696Y215862D01*
X500623Y215991D01*
X500556Y216123D01*
X500539Y216143D01*
X500526Y216166D01*
X500367Y216352D01*
X498758Y217961D01*
X498738Y217977D01*
X498721Y217997D01*
X498601Y218086D01*
X498485Y218178D01*
X498462Y218189D01*
X498441Y218204D01*
X498304Y218263D01*
X498170Y218327D01*
X498145Y218332D01*
X498120Y218342D01*
X497975Y218369D01*
X497830Y218400D01*
X497803Y218400D01*
X497777Y218404D01*
X497629Y218397D01*
X497481Y218394D01*
X497456Y218388D01*
X497429Y218386D01*
X497287Y218345D01*
X497143Y218309D01*
X497120Y218297D01*
X497095Y218290D01*
X496965Y218217D01*
X496833Y218149D01*
X496813Y218132D01*
X496790Y218120D01*
X496604Y217961D01*
X495234Y216591D01*
X483129Y216591D01*
X482486Y217233D01*
X482466Y217249D01*
X482449Y217269D01*
X482330Y217357D01*
X482213Y217450D01*
X482190Y217461D01*
X482169Y217476D01*
X482033Y217535D01*
X481898Y217598D01*
X481873Y217604D01*
X481849Y217614D01*
X481702Y217641D01*
X481558Y217672D01*
X481532Y217671D01*
X481506Y217676D01*
X481357Y217668D01*
X481209Y217666D01*
X481184Y217659D01*
X481158Y217658D01*
X481015Y217617D01*
X480871Y217581D01*
X480848Y217569D01*
X480823Y217562D01*
X480694Y217489D01*
X480561Y217421D01*
X480541Y217404D01*
X480519Y217391D01*
X480332Y217233D01*
X479690Y216591D01*
X475693Y216591D01*
X475593Y216579D01*
X475492Y216577D01*
X475420Y216559D01*
X475346Y216551D01*
X475252Y216517D01*
X475154Y216492D01*
X475088Y216458D01*
X475018Y216433D01*
X474934Y216379D01*
X474845Y216333D01*
X474788Y216284D01*
X474725Y216244D01*
X474656Y216172D01*
X474579Y216107D01*
X474535Y216047D01*
X474483Y215993D01*
X474432Y215907D01*
X474372Y215827D01*
X474343Y215758D01*
X474304Y215694D01*
X474274Y215599D01*
X474234Y215507D01*
X474221Y215433D01*
X474198Y215362D01*
X474190Y215262D01*
X474172Y215164D01*
X474176Y215089D01*
X474170Y215015D01*
X474185Y214916D01*
X474190Y214815D01*
X474211Y214744D01*
X474222Y214670D01*
X474259Y214577D01*
X474287Y214481D01*
X474323Y214416D01*
X474351Y214347D01*
X474408Y214264D01*
X474457Y214176D01*
X474522Y214100D01*
X474550Y214060D01*
X474576Y214037D01*
X474615Y213990D01*
X475878Y212727D01*
X475878Y196623D01*
X474072Y194816D01*
X474009Y194738D01*
X473939Y194665D01*
X473901Y194601D01*
X473855Y194543D01*
X473812Y194452D01*
X473761Y194366D01*
X473738Y194295D01*
X473706Y194228D01*
X473685Y194130D01*
X473654Y194034D01*
X473648Y193960D01*
X473633Y193887D01*
X473635Y193787D01*
X473626Y193687D01*
X473637Y193613D01*
X473639Y193539D01*
X473663Y193442D01*
X473678Y193342D01*
X473706Y193273D01*
X473724Y193201D01*
X473770Y193112D01*
X473807Y193018D01*
X473849Y192957D01*
X473883Y192891D01*
X473948Y192815D01*
X474006Y192732D01*
X474061Y192682D01*
X474109Y192626D01*
X474190Y192566D01*
X474265Y192499D01*
X474330Y192463D01*
X474390Y192418D01*
X474482Y192379D01*
X474570Y192330D01*
X474641Y192310D01*
X474710Y192280D01*
X474808Y192263D01*
X474905Y192235D01*
X475005Y192227D01*
X475053Y192219D01*
X475088Y192221D01*
X475149Y192216D01*
X483890Y192216D01*
X485378Y190727D01*
X485378Y182950D01*
X485393Y182825D01*
X485399Y182699D01*
X485413Y182652D01*
X485418Y182604D01*
X485461Y182485D01*
X485496Y182364D01*
X485519Y182322D01*
X485536Y182276D01*
X485604Y182170D01*
X485666Y182060D01*
X485705Y182013D01*
X485725Y181983D01*
X485759Y181950D01*
X485824Y181873D01*
X491438Y176259D01*
X492212Y174392D01*
X492212Y150851D01*
X492215Y150825D01*
X492213Y150799D01*
X492235Y150652D01*
X492252Y150505D01*
X492261Y150481D01*
X492265Y150455D01*
X492319Y150317D01*
X492369Y150177D01*
X492384Y150155D01*
X492393Y150131D01*
X492478Y150009D01*
X492558Y149884D01*
X492577Y149866D01*
X492592Y149845D01*
X492702Y149746D01*
X492809Y149642D01*
X492832Y149629D01*
X492851Y149611D01*
X492962Y149550D01*
X494223Y148289D01*
X494243Y148273D01*
X494260Y148253D01*
X494380Y148164D01*
X494496Y148072D01*
X494520Y148061D01*
X494541Y148046D01*
X494677Y147987D01*
X494811Y147923D01*
X494837Y147918D01*
X494861Y147908D01*
X495007Y147881D01*
X495152Y147850D01*
X495178Y147851D01*
X495204Y147846D01*
X495352Y147854D01*
G37*
G36*
X424913Y137112D02*
X424913Y137112D01*
X425039Y137118D01*
X425086Y137132D01*
X425134Y137137D01*
X425252Y137180D01*
X425374Y137215D01*
X425416Y137238D01*
X425462Y137255D01*
X425568Y137323D01*
X425678Y137385D01*
X425724Y137424D01*
X425754Y137444D01*
X425788Y137478D01*
X425864Y137543D01*
X428807Y140486D01*
X428885Y140585D01*
X428970Y140679D01*
X428993Y140721D01*
X429023Y140759D01*
X429077Y140873D01*
X429139Y140984D01*
X429152Y141030D01*
X429172Y141074D01*
X429199Y141197D01*
X429233Y141319D01*
X429238Y141380D01*
X429246Y141415D01*
X429245Y141463D01*
X429253Y141563D01*
X429253Y147840D01*
X430741Y149328D01*
X442846Y149328D01*
X444217Y147958D01*
X444237Y147941D01*
X444254Y147921D01*
X444374Y147833D01*
X444490Y147741D01*
X444513Y147730D01*
X444534Y147714D01*
X444671Y147656D01*
X444805Y147592D01*
X444830Y147587D01*
X444855Y147576D01*
X445001Y147550D01*
X445145Y147519D01*
X445172Y147519D01*
X445198Y147515D01*
X445346Y147522D01*
X445494Y147525D01*
X445519Y147531D01*
X445546Y147533D01*
X445688Y147574D01*
X445832Y147610D01*
X445855Y147622D01*
X445880Y147629D01*
X446010Y147702D01*
X446142Y147769D01*
X446162Y147786D01*
X446185Y147799D01*
X446371Y147958D01*
X447950Y149537D01*
X448032Y149594D01*
X448157Y149675D01*
X448175Y149694D01*
X448197Y149708D01*
X448296Y149818D01*
X448399Y149925D01*
X448413Y149948D01*
X448430Y149967D01*
X448502Y150097D01*
X448578Y150224D01*
X448586Y150249D01*
X448599Y150272D01*
X448639Y150415D01*
X448684Y150556D01*
X448686Y150582D01*
X448693Y150608D01*
X448713Y150851D01*
X448713Y171440D01*
X448699Y171565D01*
X448692Y171691D01*
X448679Y171738D01*
X448673Y171786D01*
X448630Y171905D01*
X448596Y172026D01*
X448572Y172068D01*
X448556Y172114D01*
X448487Y172220D01*
X448425Y172330D01*
X448386Y172377D01*
X448367Y172407D01*
X448332Y172440D01*
X448267Y172517D01*
X448096Y172688D01*
X447996Y172767D01*
X447903Y172851D01*
X447860Y172875D01*
X447823Y172905D01*
X447708Y172959D01*
X447598Y173020D01*
X447551Y173033D01*
X447507Y173054D01*
X447384Y173080D01*
X447262Y173115D01*
X447202Y173120D01*
X447167Y173127D01*
X447119Y173126D01*
X447018Y173134D01*
X439241Y173134D01*
X437753Y174623D01*
X437753Y190727D01*
X439560Y192534D01*
X439622Y192612D01*
X439692Y192685D01*
X439730Y192749D01*
X439776Y192807D01*
X439819Y192898D01*
X439871Y192984D01*
X439893Y193055D01*
X439925Y193122D01*
X439946Y193220D01*
X439977Y193316D01*
X439983Y193390D01*
X439998Y193463D01*
X439997Y193563D01*
X440005Y193663D01*
X439994Y193737D01*
X439992Y193811D01*
X439968Y193908D01*
X439953Y194008D01*
X439926Y194077D01*
X439907Y194149D01*
X439861Y194238D01*
X439824Y194332D01*
X439782Y194393D01*
X439748Y194459D01*
X439683Y194535D01*
X439625Y194618D01*
X439570Y194668D01*
X439522Y194724D01*
X439441Y194784D01*
X439367Y194851D01*
X439302Y194887D01*
X439242Y194932D01*
X439150Y194971D01*
X439062Y195020D01*
X438990Y195040D01*
X438922Y195070D01*
X438823Y195087D01*
X438726Y195115D01*
X438626Y195123D01*
X438579Y195131D01*
X438543Y195129D01*
X438482Y195134D01*
X429741Y195134D01*
X428253Y196623D01*
X428253Y212727D01*
X429741Y214216D01*
X430360Y214216D01*
X430422Y214223D01*
X430484Y214221D01*
X430594Y214243D01*
X430706Y214256D01*
X430765Y214277D01*
X430826Y214289D01*
X430928Y214335D01*
X431034Y214373D01*
X431086Y214407D01*
X431143Y214432D01*
X431232Y214501D01*
X431327Y214562D01*
X431370Y214607D01*
X431420Y214645D01*
X431491Y214732D01*
X431569Y214813D01*
X431601Y214866D01*
X431641Y214914D01*
X431690Y215015D01*
X431748Y215112D01*
X431767Y215171D01*
X431795Y215227D01*
X431845Y215415D01*
X431854Y215444D01*
X431855Y215452D01*
X431858Y215463D01*
X432013Y216305D01*
X432019Y216396D01*
X432035Y216485D01*
X432031Y216569D01*
X432037Y216653D01*
X432022Y216743D01*
X432017Y216833D01*
X431994Y216914D01*
X431980Y216997D01*
X431946Y217081D01*
X431921Y217168D01*
X431880Y217242D01*
X431848Y217319D01*
X431795Y217393D01*
X431751Y217472D01*
X431674Y217562D01*
X431645Y217603D01*
X431623Y217622D01*
X431592Y217659D01*
X431290Y217961D01*
X431269Y217977D01*
X431252Y217997D01*
X431133Y218086D01*
X431017Y218178D01*
X430993Y218189D01*
X430972Y218204D01*
X430836Y218263D01*
X430701Y218327D01*
X430676Y218332D01*
X430652Y218342D01*
X430506Y218369D01*
X430361Y218400D01*
X430335Y218400D01*
X430309Y218404D01*
X430161Y218397D01*
X430012Y218394D01*
X429987Y218388D01*
X429961Y218386D01*
X429818Y218345D01*
X429674Y218309D01*
X429651Y218297D01*
X429626Y218290D01*
X429496Y218217D01*
X429364Y218149D01*
X429344Y218132D01*
X429322Y218120D01*
X429135Y217961D01*
X427765Y216591D01*
X427300Y216591D01*
X427274Y216588D01*
X427248Y216590D01*
X427102Y216568D01*
X426954Y216551D01*
X426930Y216542D01*
X426904Y216538D01*
X426766Y216483D01*
X426626Y216433D01*
X426604Y216419D01*
X426580Y216409D01*
X426458Y216325D01*
X426333Y216244D01*
X426315Y216225D01*
X426294Y216210D01*
X426195Y216100D01*
X426091Y215993D01*
X426078Y215971D01*
X426060Y215951D01*
X425988Y215822D01*
X425912Y215694D01*
X425904Y215669D01*
X425892Y215646D01*
X425851Y215504D01*
X425806Y215362D01*
X425804Y215336D01*
X425797Y215311D01*
X425777Y215067D01*
X425777Y215010D01*
X422825Y212058D01*
X412314Y212058D01*
X412288Y212055D01*
X412262Y212057D01*
X412115Y212035D01*
X411968Y212018D01*
X411943Y212009D01*
X411917Y212005D01*
X411779Y211950D01*
X411640Y211900D01*
X411618Y211886D01*
X411593Y211876D01*
X411472Y211792D01*
X411347Y211711D01*
X411329Y211692D01*
X411307Y211677D01*
X411208Y211567D01*
X411105Y211460D01*
X411091Y211438D01*
X411074Y211418D01*
X411002Y211289D01*
X410926Y211161D01*
X410918Y211136D01*
X410905Y211113D01*
X410865Y210971D01*
X410820Y210829D01*
X410818Y210803D01*
X410810Y210778D01*
X410791Y210534D01*
X410791Y196623D01*
X408984Y194816D01*
X408922Y194738D01*
X408852Y194665D01*
X408814Y194601D01*
X408768Y194543D01*
X408725Y194452D01*
X408673Y194366D01*
X408650Y194295D01*
X408619Y194228D01*
X408598Y194130D01*
X408567Y194034D01*
X408561Y193960D01*
X408545Y193887D01*
X408547Y193787D01*
X408539Y193687D01*
X408550Y193613D01*
X408551Y193539D01*
X408576Y193442D01*
X408591Y193342D01*
X408618Y193273D01*
X408636Y193201D01*
X408682Y193112D01*
X408719Y193018D01*
X408762Y192957D01*
X408796Y192891D01*
X408861Y192815D01*
X408918Y192732D01*
X408973Y192682D01*
X409022Y192626D01*
X409103Y192566D01*
X409177Y192499D01*
X409242Y192463D01*
X409302Y192418D01*
X409394Y192379D01*
X409482Y192330D01*
X409554Y192310D01*
X409622Y192280D01*
X409721Y192263D01*
X409818Y192235D01*
X409918Y192227D01*
X409965Y192219D01*
X410001Y192221D01*
X410061Y192216D01*
X418802Y192216D01*
X420291Y190727D01*
X420291Y182950D01*
X420305Y182825D01*
X420312Y182699D01*
X420325Y182652D01*
X420331Y182604D01*
X420373Y182485D01*
X420408Y182364D01*
X420432Y182322D01*
X420448Y182276D01*
X420517Y182170D01*
X420578Y182060D01*
X420618Y182013D01*
X420637Y181983D01*
X420672Y181950D01*
X420737Y181873D01*
X420795Y181815D01*
X421568Y179948D01*
X421568Y156408D01*
X421571Y156382D01*
X421569Y156356D01*
X421591Y156209D01*
X421608Y156062D01*
X421617Y156037D01*
X421621Y156011D01*
X421676Y155873D01*
X421726Y155733D01*
X421740Y155711D01*
X421750Y155687D01*
X421834Y155565D01*
X421915Y155441D01*
X421934Y155422D01*
X421948Y155401D01*
X422058Y155302D01*
X422165Y155198D01*
X422188Y155185D01*
X422207Y155167D01*
X422318Y155106D01*
X424028Y153396D01*
X424028Y140291D01*
X423434Y139698D01*
X423372Y139619D01*
X423302Y139547D01*
X423264Y139483D01*
X423218Y139425D01*
X423175Y139334D01*
X423123Y139248D01*
X423101Y139177D01*
X423069Y139109D01*
X423048Y139011D01*
X423017Y138916D01*
X423011Y138841D01*
X422996Y138769D01*
X422997Y138668D01*
X422989Y138568D01*
X423000Y138495D01*
X423002Y138420D01*
X423026Y138323D01*
X423041Y138224D01*
X423068Y138154D01*
X423087Y138082D01*
X423133Y137993D01*
X423170Y137900D01*
X423212Y137839D01*
X423246Y137773D01*
X423311Y137696D01*
X423369Y137614D01*
X423424Y137564D01*
X423472Y137507D01*
X423553Y137447D01*
X423627Y137380D01*
X423692Y137344D01*
X423752Y137300D01*
X423844Y137260D01*
X423932Y137212D01*
X424004Y137191D01*
X424072Y137162D01*
X424171Y137144D01*
X424268Y137117D01*
X424368Y137109D01*
X424415Y137100D01*
X424451Y137102D01*
X424512Y137097D01*
X424787Y137097D01*
X424913Y137112D01*
G37*
G36*
X478684Y147522D02*
X478684Y147522D01*
X478831Y147525D01*
X478857Y147531D01*
X478883Y147533D01*
X479026Y147574D01*
X479169Y147610D01*
X479193Y147622D01*
X479218Y147629D01*
X479347Y147702D01*
X479479Y147769D01*
X479499Y147786D01*
X479522Y147799D01*
X479708Y147958D01*
X481288Y149537D01*
X481370Y149594D01*
X481494Y149675D01*
X481513Y149694D01*
X481534Y149708D01*
X481633Y149818D01*
X481737Y149925D01*
X481750Y149948D01*
X481768Y149967D01*
X481839Y150097D01*
X481915Y150224D01*
X481923Y150249D01*
X481936Y150272D01*
X481977Y150415D01*
X482022Y150556D01*
X482024Y150582D01*
X482031Y150608D01*
X482051Y150851D01*
X482051Y170646D01*
X482036Y170771D01*
X482030Y170898D01*
X482016Y170944D01*
X482011Y170992D01*
X481968Y171111D01*
X481933Y171232D01*
X481909Y171275D01*
X481893Y171320D01*
X481825Y171426D01*
X481763Y171537D01*
X481723Y171583D01*
X481704Y171613D01*
X481669Y171646D01*
X481604Y171723D01*
X480639Y172688D01*
X480540Y172767D01*
X480446Y172851D01*
X480404Y172875D01*
X480366Y172905D01*
X480252Y172959D01*
X480141Y173020D01*
X480095Y173033D01*
X480051Y173054D01*
X479928Y173080D01*
X479806Y173115D01*
X479745Y173120D01*
X479710Y173127D01*
X479662Y173126D01*
X479562Y173134D01*
X471785Y173134D01*
X470297Y174623D01*
X470297Y190727D01*
X472103Y192534D01*
X472166Y192612D01*
X472236Y192685D01*
X472274Y192749D01*
X472320Y192807D01*
X472363Y192898D01*
X472414Y192984D01*
X472437Y193055D01*
X472469Y193122D01*
X472490Y193220D01*
X472521Y193316D01*
X472527Y193390D01*
X472542Y193463D01*
X472540Y193563D01*
X472549Y193663D01*
X472538Y193737D01*
X472536Y193811D01*
X472512Y193908D01*
X472497Y194008D01*
X472469Y194077D01*
X472451Y194149D01*
X472405Y194238D01*
X472368Y194332D01*
X472326Y194393D01*
X472292Y194459D01*
X472227Y194535D01*
X472169Y194618D01*
X472114Y194668D01*
X472066Y194724D01*
X471985Y194784D01*
X471910Y194851D01*
X471845Y194887D01*
X471785Y194932D01*
X471693Y194971D01*
X471605Y195020D01*
X471534Y195040D01*
X471465Y195070D01*
X471367Y195087D01*
X471270Y195115D01*
X471170Y195123D01*
X471122Y195131D01*
X471087Y195129D01*
X471026Y195134D01*
X462285Y195134D01*
X460797Y196623D01*
X460797Y212727D01*
X462060Y213990D01*
X462122Y214069D01*
X462192Y214141D01*
X462230Y214205D01*
X462276Y214263D01*
X462319Y214354D01*
X462371Y214440D01*
X462393Y214511D01*
X462425Y214578D01*
X462446Y214676D01*
X462477Y214772D01*
X462483Y214846D01*
X462498Y214919D01*
X462497Y215019D01*
X462505Y215119D01*
X462494Y215193D01*
X462492Y215267D01*
X462468Y215365D01*
X462453Y215464D01*
X462426Y215533D01*
X462407Y215605D01*
X462361Y215695D01*
X462324Y215788D01*
X462282Y215849D01*
X462248Y215915D01*
X462183Y215992D01*
X462125Y216074D01*
X462070Y216124D01*
X462022Y216181D01*
X461941Y216240D01*
X461867Y216308D01*
X461802Y216344D01*
X461742Y216388D01*
X461650Y216428D01*
X461562Y216476D01*
X461490Y216496D01*
X461422Y216526D01*
X461323Y216544D01*
X461226Y216571D01*
X461126Y216579D01*
X461079Y216587D01*
X461043Y216586D01*
X460982Y216591D01*
X450585Y216591D01*
X448752Y218424D01*
X448731Y218440D01*
X448715Y218460D01*
X448595Y218548D01*
X448479Y218640D01*
X448455Y218651D01*
X448434Y218667D01*
X448298Y218726D01*
X448164Y218789D01*
X448138Y218795D01*
X448114Y218805D01*
X447968Y218831D01*
X447823Y218862D01*
X447797Y218862D01*
X447771Y218867D01*
X447623Y218859D01*
X447475Y218856D01*
X447449Y218850D01*
X447423Y218849D01*
X447281Y218808D01*
X447137Y218771D01*
X447114Y218759D01*
X447088Y218752D01*
X446959Y218680D01*
X446827Y218612D01*
X446807Y218595D01*
X446784Y218582D01*
X446598Y218424D01*
X444765Y216591D01*
X443666Y216591D01*
X443604Y216583D01*
X443542Y216585D01*
X443432Y216564D01*
X443320Y216551D01*
X443262Y216530D01*
X443200Y216518D01*
X443098Y216471D01*
X442992Y216433D01*
X442940Y216399D01*
X442883Y216374D01*
X442794Y216305D01*
X442699Y216244D01*
X442656Y216199D01*
X442607Y216161D01*
X442535Y216075D01*
X442457Y215993D01*
X442425Y215940D01*
X442386Y215892D01*
X442336Y215791D01*
X442278Y215694D01*
X442259Y215635D01*
X442232Y215579D01*
X442181Y215392D01*
X442172Y215362D01*
X442171Y215354D01*
X442168Y215343D01*
X442088Y214906D01*
X442082Y214816D01*
X442066Y214726D01*
X442070Y214642D01*
X442064Y214558D01*
X442079Y214469D01*
X442084Y214378D01*
X442107Y214298D01*
X442120Y214214D01*
X442155Y214131D01*
X442180Y214044D01*
X442221Y213970D01*
X442253Y213892D01*
X442306Y213819D01*
X442350Y213739D01*
X442427Y213649D01*
X442456Y213609D01*
X442478Y213589D01*
X442509Y213553D01*
X443334Y212727D01*
X443334Y196623D01*
X441528Y194816D01*
X441466Y194738D01*
X441396Y194665D01*
X441358Y194601D01*
X441311Y194543D01*
X441268Y194452D01*
X441217Y194366D01*
X441194Y194295D01*
X441162Y194228D01*
X441141Y194130D01*
X441111Y194034D01*
X441105Y193960D01*
X441089Y193887D01*
X441091Y193787D01*
X441083Y193687D01*
X441094Y193613D01*
X441095Y193539D01*
X441119Y193442D01*
X441134Y193342D01*
X441162Y193273D01*
X441180Y193201D01*
X441226Y193112D01*
X441263Y193018D01*
X441306Y192957D01*
X441340Y192891D01*
X441405Y192815D01*
X441462Y192732D01*
X441517Y192682D01*
X441565Y192626D01*
X441646Y192566D01*
X441721Y192499D01*
X441786Y192463D01*
X441846Y192418D01*
X441938Y192379D01*
X442026Y192330D01*
X442097Y192310D01*
X442166Y192280D01*
X442265Y192263D01*
X442361Y192235D01*
X442461Y192227D01*
X442509Y192219D01*
X442545Y192221D01*
X442605Y192216D01*
X451346Y192216D01*
X452834Y190727D01*
X452834Y182950D01*
X452849Y182825D01*
X452855Y182699D01*
X452869Y182652D01*
X452874Y182604D01*
X452917Y182485D01*
X452952Y182364D01*
X452976Y182322D01*
X452992Y182276D01*
X453060Y182170D01*
X453122Y182060D01*
X453162Y182013D01*
X453181Y181983D01*
X453216Y181950D01*
X453281Y181873D01*
X458101Y177053D01*
X458874Y175186D01*
X458874Y150851D01*
X458877Y150825D01*
X458875Y150799D01*
X458897Y150652D01*
X458914Y150505D01*
X458923Y150481D01*
X458927Y150455D01*
X458982Y150317D01*
X459032Y150177D01*
X459046Y150155D01*
X459056Y150131D01*
X459140Y150009D01*
X459221Y149884D01*
X459240Y149866D01*
X459255Y149845D01*
X459365Y149746D01*
X459472Y149642D01*
X459494Y149629D01*
X459514Y149611D01*
X459625Y149550D01*
X460885Y148289D01*
X460906Y148273D01*
X460923Y148253D01*
X461042Y148165D01*
X461158Y148072D01*
X461182Y148061D01*
X461203Y148046D01*
X461339Y147987D01*
X461473Y147923D01*
X461499Y147918D01*
X461523Y147908D01*
X461669Y147881D01*
X461814Y147850D01*
X461840Y147851D01*
X461866Y147846D01*
X462015Y147854D01*
X462163Y147856D01*
X462188Y147862D01*
X462214Y147864D01*
X462357Y147905D01*
X462501Y147941D01*
X462524Y147953D01*
X462549Y147960D01*
X462679Y148033D01*
X462810Y148101D01*
X462830Y148118D01*
X462853Y148130D01*
X463040Y148289D01*
X464079Y149328D01*
X476184Y149328D01*
X477554Y147958D01*
X477575Y147941D01*
X477592Y147921D01*
X477711Y147833D01*
X477827Y147741D01*
X477851Y147730D01*
X477872Y147714D01*
X478008Y147656D01*
X478142Y147592D01*
X478168Y147587D01*
X478192Y147576D01*
X478338Y147550D01*
X478483Y147519D01*
X478509Y147519D01*
X478535Y147515D01*
X478684Y147522D01*
G37*
G36*
X529484Y147060D02*
X529484Y147060D01*
X529631Y147062D01*
X529657Y147069D01*
X529683Y147070D01*
X529826Y147111D01*
X529969Y147147D01*
X529993Y147159D01*
X530018Y147167D01*
X530147Y147239D01*
X530279Y147307D01*
X530299Y147324D01*
X530322Y147337D01*
X530508Y147495D01*
X531757Y148744D01*
X531838Y148800D01*
X531963Y148881D01*
X531981Y148900D01*
X532003Y148915D01*
X532102Y149025D01*
X532205Y149132D01*
X532219Y149154D01*
X532236Y149174D01*
X532308Y149303D01*
X532384Y149431D01*
X532392Y149456D01*
X532405Y149479D01*
X532445Y149621D01*
X532490Y149763D01*
X532492Y149789D01*
X532500Y149814D01*
X532519Y150058D01*
X532519Y158404D01*
X533293Y160272D01*
X539684Y166663D01*
X539763Y166762D01*
X539847Y166856D01*
X539871Y166898D01*
X539901Y166936D01*
X539955Y167050D01*
X540016Y167161D01*
X540029Y167208D01*
X540050Y167251D01*
X540076Y167375D01*
X540111Y167496D01*
X540116Y167557D01*
X540123Y167592D01*
X540122Y167640D01*
X540130Y167740D01*
X540130Y169682D01*
X542723Y172274D01*
X542739Y172294D01*
X542759Y172311D01*
X542847Y172431D01*
X542939Y172547D01*
X542950Y172571D01*
X542966Y172592D01*
X543025Y172728D01*
X543088Y172862D01*
X543094Y172888D01*
X543104Y172912D01*
X543130Y173058D01*
X543161Y173203D01*
X543161Y173229D01*
X543166Y173255D01*
X543158Y173403D01*
X543155Y173551D01*
X543149Y173577D01*
X543148Y173603D01*
X543107Y173745D01*
X543070Y173889D01*
X543058Y173913D01*
X543051Y173938D01*
X542979Y174067D01*
X542911Y174199D01*
X542894Y174219D01*
X542881Y174242D01*
X542723Y174428D01*
X542528Y174623D01*
X542528Y190727D01*
X544335Y192534D01*
X544397Y192612D01*
X544467Y192685D01*
X544505Y192749D01*
X544551Y192807D01*
X544594Y192898D01*
X544646Y192984D01*
X544668Y193055D01*
X544700Y193122D01*
X544721Y193220D01*
X544752Y193316D01*
X544758Y193390D01*
X544773Y193463D01*
X544772Y193563D01*
X544780Y193663D01*
X544769Y193737D01*
X544767Y193811D01*
X544743Y193908D01*
X544728Y194008D01*
X544701Y194077D01*
X544682Y194149D01*
X544636Y194238D01*
X544599Y194332D01*
X544557Y194393D01*
X544523Y194459D01*
X544458Y194535D01*
X544400Y194618D01*
X544345Y194668D01*
X544297Y194724D01*
X544216Y194784D01*
X544142Y194851D01*
X544077Y194887D01*
X544017Y194932D01*
X543925Y194971D01*
X543837Y195020D01*
X543765Y195040D01*
X543697Y195070D01*
X543598Y195087D01*
X543501Y195115D01*
X543401Y195123D01*
X543354Y195131D01*
X543318Y195129D01*
X543257Y195134D01*
X534516Y195134D01*
X533028Y196623D01*
X533028Y212727D01*
X534291Y213990D01*
X534353Y214069D01*
X534423Y214141D01*
X534461Y214205D01*
X534507Y214263D01*
X534550Y214354D01*
X534602Y214440D01*
X534625Y214511D01*
X534656Y214578D01*
X534677Y214676D01*
X534708Y214772D01*
X534714Y214846D01*
X534730Y214919D01*
X534728Y215019D01*
X534736Y215119D01*
X534725Y215193D01*
X534724Y215267D01*
X534699Y215365D01*
X534684Y215464D01*
X534657Y215533D01*
X534639Y215605D01*
X534593Y215695D01*
X534556Y215788D01*
X534513Y215849D01*
X534479Y215915D01*
X534414Y215992D01*
X534357Y216074D01*
X534302Y216124D01*
X534253Y216181D01*
X534172Y216240D01*
X534098Y216308D01*
X534033Y216344D01*
X533973Y216388D01*
X533881Y216428D01*
X533793Y216476D01*
X533721Y216496D01*
X533653Y216526D01*
X533554Y216544D01*
X533457Y216571D01*
X533357Y216579D01*
X533310Y216587D01*
X533274Y216586D01*
X533214Y216591D01*
X531879Y216591D01*
X530508Y217961D01*
X530488Y217977D01*
X530471Y217997D01*
X530351Y218086D01*
X530235Y218178D01*
X530212Y218189D01*
X530191Y218204D01*
X530054Y218263D01*
X529920Y218327D01*
X529895Y218332D01*
X529870Y218342D01*
X529724Y218369D01*
X529580Y218400D01*
X529553Y218399D01*
X529527Y218404D01*
X529379Y218396D01*
X529231Y218394D01*
X529206Y218388D01*
X529179Y218386D01*
X529037Y218345D01*
X528893Y218309D01*
X528870Y218297D01*
X528845Y218290D01*
X528715Y218217D01*
X528583Y218149D01*
X528563Y218132D01*
X528540Y218120D01*
X528354Y217961D01*
X526984Y216591D01*
X514879Y216591D01*
X514633Y216836D01*
X514613Y216852D01*
X514596Y216872D01*
X514477Y216960D01*
X514360Y217053D01*
X514337Y217064D01*
X514316Y217079D01*
X514180Y217138D01*
X514045Y217202D01*
X514020Y217207D01*
X513996Y217217D01*
X513850Y217244D01*
X513705Y217275D01*
X513678Y217274D01*
X513653Y217279D01*
X513504Y217271D01*
X513356Y217269D01*
X513331Y217263D01*
X513305Y217261D01*
X513162Y217220D01*
X513018Y217184D01*
X512995Y217172D01*
X512970Y217165D01*
X512841Y217092D01*
X512708Y217024D01*
X512688Y217007D01*
X512666Y216995D01*
X512479Y216836D01*
X512252Y216608D01*
X512235Y216588D01*
X512215Y216571D01*
X512127Y216452D01*
X512035Y216335D01*
X512024Y216312D01*
X512008Y216291D01*
X511949Y216154D01*
X511886Y216020D01*
X511880Y215995D01*
X511870Y215971D01*
X511844Y215825D01*
X511813Y215680D01*
X511813Y215653D01*
X511808Y215628D01*
X511816Y215479D01*
X511819Y215331D01*
X511825Y215306D01*
X511826Y215279D01*
X511867Y215137D01*
X511904Y214993D01*
X511916Y214970D01*
X511923Y214945D01*
X511995Y214815D01*
X512063Y214683D01*
X512080Y214663D01*
X512093Y214640D01*
X512251Y214454D01*
X513978Y212727D01*
X513978Y196623D01*
X512172Y194816D01*
X512109Y194738D01*
X512039Y194665D01*
X512001Y194601D01*
X511955Y194543D01*
X511912Y194452D01*
X511861Y194366D01*
X511838Y194295D01*
X511806Y194228D01*
X511785Y194130D01*
X511754Y194034D01*
X511748Y193960D01*
X511733Y193887D01*
X511735Y193787D01*
X511726Y193687D01*
X511737Y193613D01*
X511739Y193539D01*
X511763Y193442D01*
X511778Y193342D01*
X511806Y193273D01*
X511824Y193201D01*
X511870Y193112D01*
X511907Y193018D01*
X511949Y192957D01*
X511983Y192891D01*
X512048Y192815D01*
X512106Y192732D01*
X512161Y192682D01*
X512209Y192626D01*
X512290Y192566D01*
X512365Y192499D01*
X512430Y192463D01*
X512490Y192418D01*
X512582Y192379D01*
X512670Y192330D01*
X512741Y192310D01*
X512810Y192280D01*
X512908Y192263D01*
X513005Y192235D01*
X513105Y192227D01*
X513153Y192219D01*
X513188Y192221D01*
X513249Y192216D01*
X521990Y192216D01*
X523478Y190727D01*
X523478Y174623D01*
X521781Y172925D01*
X521699Y172868D01*
X521574Y172788D01*
X521556Y172769D01*
X521535Y172754D01*
X521436Y172644D01*
X521332Y172537D01*
X521319Y172515D01*
X521301Y172495D01*
X521229Y172365D01*
X521153Y172238D01*
X521145Y172213D01*
X521133Y172190D01*
X521092Y172047D01*
X521047Y171906D01*
X521045Y171880D01*
X521038Y171855D01*
X521018Y171611D01*
X521018Y150851D01*
X521021Y150825D01*
X521019Y150799D01*
X521041Y150652D01*
X521058Y150505D01*
X521067Y150481D01*
X521071Y150455D01*
X521126Y150317D01*
X521176Y150177D01*
X521190Y150155D01*
X521200Y150131D01*
X521284Y150009D01*
X521365Y149884D01*
X521384Y149866D01*
X521398Y149845D01*
X521508Y149746D01*
X521615Y149642D01*
X521638Y149629D01*
X521657Y149611D01*
X521787Y149539D01*
X521914Y149463D01*
X521939Y149455D01*
X521962Y149443D01*
X522105Y149402D01*
X522246Y149357D01*
X522272Y149355D01*
X522298Y149348D01*
X522541Y149328D01*
X526521Y149328D01*
X528354Y147495D01*
X528375Y147479D01*
X528392Y147459D01*
X528511Y147371D01*
X528627Y147279D01*
X528651Y147267D01*
X528672Y147252D01*
X528808Y147193D01*
X528942Y147130D01*
X528968Y147124D01*
X528992Y147114D01*
X529138Y147087D01*
X529283Y147056D01*
X529309Y147057D01*
X529335Y147052D01*
X529484Y147060D01*
G37*
G36*
X200891Y59310D02*
X200891Y59310D01*
X200919Y59310D01*
X201017Y59346D01*
X201056Y59358D01*
X201064Y59364D01*
X201075Y59368D01*
X247875Y86368D01*
X247895Y86386D01*
X247920Y86397D01*
X247969Y86451D01*
X248024Y86499D01*
X248035Y86524D01*
X248054Y86544D01*
X248078Y86613D01*
X248109Y86679D01*
X248111Y86706D01*
X248120Y86731D01*
X248115Y86804D01*
X248118Y86877D01*
X248109Y86903D01*
X248107Y86930D01*
X248063Y87026D01*
X248049Y87064D01*
X248042Y87071D01*
X248038Y87081D01*
X245764Y90418D01*
X245741Y90440D01*
X245718Y90476D01*
X242972Y93437D01*
X242946Y93456D01*
X242918Y93488D01*
X239762Y96006D01*
X239733Y96021D01*
X239700Y96048D01*
X236204Y98068D01*
X236174Y98078D01*
X236137Y98101D01*
X232379Y99577D01*
X232347Y99582D01*
X232307Y99599D01*
X228371Y100499D01*
X228339Y100499D01*
X228297Y100510D01*
X224271Y100813D01*
X224240Y100809D01*
X224197Y100813D01*
X220170Y100512D01*
X220139Y100504D01*
X220096Y100501D01*
X216160Y99604D01*
X216131Y99591D01*
X216088Y99582D01*
X212329Y98108D01*
X212302Y98091D01*
X212262Y98076D01*
X208765Y96058D01*
X208741Y96037D01*
X208703Y96016D01*
X205545Y93500D01*
X205525Y93475D01*
X205491Y93449D01*
X202743Y90490D01*
X202727Y90463D01*
X202697Y90432D01*
X200421Y87096D01*
X200409Y87067D01*
X200384Y87032D01*
X198631Y83395D01*
X198623Y83364D01*
X198604Y83325D01*
X197412Y79467D01*
X197409Y79435D01*
X197396Y79394D01*
X196793Y75402D01*
X196794Y75370D01*
X196787Y75328D01*
X196786Y71290D01*
X196789Y71276D01*
X196787Y71266D01*
X196792Y71246D01*
X196791Y71216D01*
X197392Y67223D01*
X197403Y67193D01*
X197408Y67150D01*
X198597Y63291D01*
X198612Y63263D01*
X198624Y63222D01*
X200375Y59584D01*
X200392Y59562D01*
X200401Y59536D01*
X200451Y59483D01*
X200495Y59425D01*
X200519Y59412D01*
X200538Y59392D01*
X200604Y59362D01*
X200668Y59326D01*
X200695Y59323D01*
X200720Y59312D01*
X200793Y59311D01*
X200865Y59302D01*
X200891Y59310D01*
G37*
G36*
X224228Y305591D02*
X224228Y305591D01*
X224271Y305587D01*
X228297Y305890D01*
X228328Y305899D01*
X228371Y305901D01*
X232307Y306801D01*
X232336Y306814D01*
X232379Y306823D01*
X236137Y308299D01*
X236164Y308317D01*
X236204Y308332D01*
X239700Y310352D01*
X239724Y310373D01*
X239762Y310394D01*
X242918Y312912D01*
X242938Y312937D01*
X242972Y312963D01*
X245718Y315924D01*
X245734Y315951D01*
X245764Y315982D01*
X248038Y319319D01*
X248048Y319344D01*
X248065Y319365D01*
X248086Y319435D01*
X248115Y319502D01*
X248115Y319530D01*
X248122Y319556D01*
X248114Y319628D01*
X248114Y319701D01*
X248103Y319726D01*
X248100Y319753D01*
X248064Y319817D01*
X248036Y319884D01*
X248016Y319903D01*
X248003Y319926D01*
X247922Y319994D01*
X247892Y320022D01*
X247883Y320025D01*
X247875Y320032D01*
X201075Y347032D01*
X201049Y347041D01*
X201026Y347057D01*
X200955Y347072D01*
X200886Y347096D01*
X200859Y347093D01*
X200832Y347099D01*
X200761Y347086D01*
X200688Y347080D01*
X200663Y347067D01*
X200637Y347062D01*
X200576Y347022D01*
X200511Y346988D01*
X200494Y346967D01*
X200471Y346952D01*
X200410Y346866D01*
X200385Y346835D01*
X200382Y346826D01*
X200375Y346816D01*
X198624Y343178D01*
X198617Y343147D01*
X198597Y343109D01*
X197408Y339250D01*
X197405Y339218D01*
X197392Y339177D01*
X196791Y335184D01*
X196793Y335153D01*
X196786Y335110D01*
X196787Y331072D01*
X196793Y331043D01*
X196791Y331031D01*
X196793Y331023D01*
X196793Y330998D01*
X197396Y327006D01*
X197407Y326976D01*
X197412Y326933D01*
X198604Y323075D01*
X198619Y323047D01*
X198631Y323006D01*
X200384Y319368D01*
X200403Y319343D01*
X200421Y319304D01*
X202697Y315968D01*
X202720Y315946D01*
X202743Y315910D01*
X205491Y312951D01*
X205516Y312932D01*
X205545Y312900D01*
X208703Y310384D01*
X208731Y310369D01*
X208765Y310342D01*
X212262Y308324D01*
X212292Y308314D01*
X212329Y308292D01*
X216088Y306818D01*
X216120Y306812D01*
X216160Y306796D01*
X220096Y305899D01*
X220128Y305898D01*
X220170Y305888D01*
X224197Y305587D01*
X224228Y305591D01*
G37*
G36*
X97689Y59314D02*
X97689Y59314D01*
X97762Y59320D01*
X97787Y59333D01*
X97813Y59338D01*
X97874Y59378D01*
X97939Y59412D01*
X97956Y59433D01*
X97979Y59448D01*
X98040Y59534D01*
X98065Y59565D01*
X98068Y59574D01*
X98075Y59584D01*
X99826Y63222D01*
X99833Y63253D01*
X99853Y63291D01*
X101042Y67150D01*
X101045Y67182D01*
X101058Y67223D01*
X101659Y71216D01*
X101657Y71247D01*
X101664Y71290D01*
X101663Y75328D01*
X101657Y75359D01*
X101657Y75402D01*
X101054Y79394D01*
X101043Y79424D01*
X101038Y79467D01*
X99846Y83325D01*
X99831Y83353D01*
X99819Y83395D01*
X98066Y87032D01*
X98047Y87057D01*
X98029Y87096D01*
X95753Y90432D01*
X95730Y90454D01*
X95707Y90490D01*
X92959Y93449D01*
X92934Y93468D01*
X92905Y93500D01*
X89747Y96016D01*
X89719Y96031D01*
X89685Y96058D01*
X86188Y98076D01*
X86158Y98086D01*
X86121Y98108D01*
X82362Y99582D01*
X82330Y99588D01*
X82290Y99604D01*
X78354Y100501D01*
X78322Y100502D01*
X78280Y100512D01*
X74254Y100813D01*
X74222Y100809D01*
X74179Y100813D01*
X70153Y100510D01*
X70122Y100501D01*
X70079Y100499D01*
X66143Y99599D01*
X66114Y99586D01*
X66071Y99577D01*
X62313Y98101D01*
X62286Y98083D01*
X62246Y98068D01*
X58750Y96048D01*
X58726Y96027D01*
X58688Y96006D01*
X55532Y93488D01*
X55512Y93463D01*
X55478Y93437D01*
X52732Y90476D01*
X52716Y90449D01*
X52686Y90418D01*
X50412Y87081D01*
X50402Y87056D01*
X50385Y87035D01*
X50364Y86965D01*
X50335Y86898D01*
X50336Y86870D01*
X50328Y86844D01*
X50336Y86772D01*
X50336Y86699D01*
X50347Y86674D01*
X50350Y86647D01*
X50386Y86583D01*
X50414Y86516D01*
X50434Y86497D01*
X50447Y86474D01*
X50528Y86407D01*
X50558Y86378D01*
X50567Y86375D01*
X50576Y86368D01*
X97376Y59368D01*
X97401Y59359D01*
X97424Y59343D01*
X97495Y59328D01*
X97564Y59304D01*
X97591Y59307D01*
X97618Y59301D01*
X97689Y59314D01*
G37*
G36*
X78280Y305888D02*
X78280Y305888D01*
X78311Y305896D01*
X78354Y305899D01*
X82290Y306796D01*
X82319Y306809D01*
X82362Y306818D01*
X86121Y308292D01*
X86148Y308309D01*
X86188Y308324D01*
X89685Y310342D01*
X89709Y310363D01*
X89747Y310384D01*
X92905Y312900D01*
X92925Y312925D01*
X92959Y312951D01*
X95707Y315910D01*
X95723Y315937D01*
X95753Y315968D01*
X98029Y319304D01*
X98041Y319333D01*
X98066Y319368D01*
X99819Y323006D01*
X99827Y323036D01*
X99846Y323075D01*
X101038Y326933D01*
X101041Y326965D01*
X101054Y327006D01*
X101657Y330998D01*
X101656Y331030D01*
X101663Y331072D01*
X101664Y335110D01*
X101658Y335141D01*
X101659Y335184D01*
X101058Y339177D01*
X101047Y339207D01*
X101042Y339250D01*
X99853Y343109D01*
X99838Y343137D01*
X99826Y343178D01*
X98075Y346816D01*
X98058Y346838D01*
X98049Y346864D01*
X97999Y346917D01*
X97955Y346975D01*
X97931Y346988D01*
X97912Y347008D01*
X97846Y347038D01*
X97782Y347074D01*
X97755Y347077D01*
X97730Y347088D01*
X97657Y347089D01*
X97585Y347098D01*
X97559Y347090D01*
X97531Y347090D01*
X97433Y347054D01*
X97394Y347042D01*
X97386Y347036D01*
X97376Y347032D01*
X50576Y320032D01*
X50555Y320014D01*
X50530Y320003D01*
X50481Y319949D01*
X50427Y319901D01*
X50415Y319876D01*
X50396Y319856D01*
X50372Y319787D01*
X50341Y319721D01*
X50340Y319694D01*
X50330Y319669D01*
X50335Y319596D01*
X50332Y319523D01*
X50341Y319497D01*
X50343Y319470D01*
X50387Y319374D01*
X50401Y319336D01*
X50408Y319329D01*
X50412Y319319D01*
X52686Y315982D01*
X52709Y315960D01*
X52732Y315924D01*
X55478Y312963D01*
X55504Y312944D01*
X55532Y312912D01*
X58688Y310394D01*
X58717Y310379D01*
X58750Y310352D01*
X62246Y308332D01*
X62276Y308322D01*
X62313Y308299D01*
X66071Y306823D01*
X66103Y306818D01*
X66143Y306801D01*
X70079Y305901D01*
X70111Y305901D01*
X70153Y305890D01*
X74179Y305587D01*
X74210Y305591D01*
X74254Y305587D01*
X78280Y305888D01*
G37*
G36*
X-749Y175703D02*
X-749Y175703D01*
X-738Y175702D01*
X3286Y176004D01*
X3317Y176012D01*
X3360Y176015D01*
X7294Y176913D01*
X7323Y176926D01*
X7366Y176935D01*
X11122Y178409D01*
X11149Y178426D01*
X11190Y178441D01*
X14684Y180459D01*
X14708Y180480D01*
X14746Y180501D01*
X17901Y183017D01*
X17921Y183042D01*
X17956Y183068D01*
X20700Y186026D01*
X20717Y186053D01*
X20747Y186085D01*
X23020Y189419D01*
X23033Y189448D01*
X23058Y189483D01*
X24808Y193119D01*
X24816Y193150D01*
X24836Y193189D01*
X26025Y197045D01*
X26028Y197076D01*
X26042Y197118D01*
X26643Y201108D01*
X26642Y201140D01*
X26649Y201182D01*
X26649Y205218D01*
X26642Y205249D01*
X26643Y205292D01*
X26042Y209282D01*
X26031Y209312D01*
X26025Y209355D01*
X24836Y213211D01*
X24820Y213239D01*
X24808Y213281D01*
X23058Y216917D01*
X23038Y216942D01*
X23020Y216981D01*
X20747Y220315D01*
X20724Y220338D01*
X20700Y220374D01*
X17956Y223332D01*
X17930Y223351D01*
X17901Y223383D01*
X14746Y225899D01*
X14718Y225913D01*
X14684Y225941D01*
X11190Y227959D01*
X11159Y227969D01*
X11122Y227991D01*
X7366Y229465D01*
X7334Y229471D01*
X7294Y229487D01*
X3360Y230385D01*
X3328Y230386D01*
X3286Y230396D01*
X-738Y230698D01*
X-765Y230694D01*
X-792Y230699D01*
X-862Y230682D01*
X-935Y230673D01*
X-959Y230659D01*
X-985Y230653D01*
X-1044Y230610D01*
X-1107Y230573D01*
X-1123Y230551D01*
X-1145Y230535D01*
X-1182Y230472D01*
X-1226Y230414D01*
X-1233Y230387D01*
X-1247Y230364D01*
X-1264Y230260D01*
X-1274Y230221D01*
X-1272Y230211D01*
X-1274Y230200D01*
X-1274Y176200D01*
X-1269Y176173D01*
X-1271Y176146D01*
X-1249Y176077D01*
X-1235Y176005D01*
X-1219Y175983D01*
X-1211Y175957D01*
X-1163Y175901D01*
X-1122Y175841D01*
X-1099Y175827D01*
X-1081Y175806D01*
X-1016Y175774D01*
X-955Y175734D01*
X-928Y175730D01*
X-903Y175718D01*
X-799Y175708D01*
X-758Y175701D01*
X-749Y175703D01*
G37*
%LPC*%
G36*
X570887Y230568D02*
X570887Y230568D01*
X565530Y235925D01*
X565530Y243500D01*
X570887Y248857D01*
X578463Y248857D01*
X583820Y243500D01*
X583820Y235925D01*
X578463Y230568D01*
X570887Y230568D01*
G37*
%LPD*%
G36*
X139750Y217119D02*
X139750Y217119D01*
X139801Y217121D01*
X139833Y217138D01*
X139869Y217147D01*
X139908Y217179D01*
X139953Y217204D01*
X139974Y217234D01*
X140002Y217257D01*
X140023Y217304D01*
X140053Y217345D01*
X140061Y217387D01*
X140073Y217415D01*
X140072Y217446D01*
X140080Y217488D01*
X140080Y224631D01*
X140069Y224681D01*
X140067Y224732D01*
X140049Y224764D01*
X140041Y224800D01*
X140008Y224839D01*
X139984Y224884D01*
X139954Y224905D01*
X139931Y224934D01*
X139884Y224955D01*
X139842Y224984D01*
X139800Y224992D01*
X139772Y225005D01*
X139742Y225003D01*
X139700Y225012D01*
X129381Y225012D01*
X129332Y225000D01*
X129281Y224998D01*
X129248Y224980D01*
X129213Y224972D01*
X129173Y224940D01*
X129128Y224915D01*
X129107Y224885D01*
X129079Y224862D01*
X129058Y224815D01*
X129029Y224774D01*
X129021Y224732D01*
X129008Y224704D01*
X129009Y224673D01*
X129001Y224631D01*
X129001Y217488D01*
X129013Y217438D01*
X129015Y217387D01*
X129032Y217355D01*
X129040Y217319D01*
X129073Y217279D01*
X129097Y217235D01*
X129127Y217214D01*
X129151Y217185D01*
X129197Y217164D01*
X129239Y217135D01*
X129281Y217127D01*
X129309Y217114D01*
X129339Y217115D01*
X129381Y217107D01*
X139700Y217107D01*
X139750Y217119D01*
G37*
D10*
X165194Y244475D03*
X153194Y244475D03*
X141194Y244475D03*
D11*
X149225Y368400D03*
X299945Y280720D03*
X299945Y125680D03*
X149225Y38000D03*
X77725Y327100D03*
X220725Y327100D03*
X220725Y79300D03*
X77725Y79300D03*
X449225Y368400D03*
X592325Y285800D03*
X592325Y120600D03*
X449225Y38000D03*
X6158Y285800D03*
X6158Y120600D03*
X6125Y203200D03*
D12*
X227694Y280988D03*
X205694Y290488D03*
X205694Y271488D03*
D13*
X467519Y266813D03*
X477019Y288813D03*
X458019Y288813D03*
X550069Y182675D03*
X559569Y204675D03*
X540569Y204675D03*
X445294Y182675D03*
X454794Y204675D03*
X435794Y204675D03*
X412750Y182675D03*
X422250Y204675D03*
X403250Y204675D03*
D12*
X266588Y278606D03*
X244588Y288106D03*
X244588Y269106D03*
D13*
X515938Y182675D03*
X525438Y204675D03*
X506438Y204675D03*
X477838Y182675D03*
X487338Y204675D03*
X468338Y204675D03*
D14*
X225425Y152400D03*
X250825Y152400D03*
X276225Y152400D03*
X301625Y152400D03*
X327025Y152400D03*
X352425Y152400D03*
X377825Y152400D03*
X377825Y254000D03*
X352425Y254000D03*
X327025Y254000D03*
X301625Y254000D03*
X276225Y254000D03*
X250825Y254000D03*
X225425Y254000D03*
D15*
X114574Y221075D03*
X119575Y221075D03*
X124577Y221075D03*
X129578Y221075D03*
X134579Y221075D03*
X139580Y221075D03*
X144582Y221075D03*
X149583Y221075D03*
X154584Y221075D03*
X159585Y221075D03*
X164587Y221075D03*
X169588Y221075D03*
D16*
X176625Y214038D03*
X176625Y209037D03*
X176625Y204035D03*
X176625Y199034D03*
X176625Y194033D03*
X176625Y189032D03*
X176625Y184030D03*
X176625Y179029D03*
X176625Y174028D03*
X176625Y169027D03*
X176625Y164025D03*
X176625Y159024D03*
D15*
X169588Y151987D03*
X164587Y151987D03*
X159585Y151987D03*
X154584Y151987D03*
X149583Y151987D03*
X144582Y151987D03*
X139580Y151987D03*
X134579Y151987D03*
X129578Y151987D03*
X124577Y151987D03*
X119575Y151987D03*
X114574Y151987D03*
D16*
X107537Y159024D03*
X107537Y164025D03*
X107537Y169027D03*
X107537Y174028D03*
X107537Y179029D03*
X107537Y184030D03*
X107537Y189032D03*
X107537Y194033D03*
X107537Y199034D03*
X107537Y204035D03*
X107537Y209037D03*
X107537Y214038D03*
D17*
X142081Y186531D03*
D18*
X148431Y318294D03*
D19*
X574675Y239713D03*
X549275Y239713D03*
X574675Y165894D03*
X549275Y165894D03*
D20*
X485775Y78581D03*
X485775Y103981D03*
X408781Y78581D03*
X408781Y103981D03*
D21*
X456638Y224631D03*
X473638Y224631D03*
X489181Y224631D03*
X506181Y224631D03*
X247881Y230981D03*
X264881Y230981D03*
X371706Y196850D03*
X388706Y196850D03*
X421713Y224631D03*
X438713Y224631D03*
X520931Y224631D03*
X537931Y224631D03*
D22*
X438944Y270106D03*
X438944Y287106D03*
X202406Y239944D03*
X202406Y256944D03*
X228600Y222481D03*
X228600Y239481D03*
X497681Y272819D03*
X497681Y255819D03*
D21*
X554600Y140494D03*
X537600Y140494D03*
X453794Y141288D03*
X436794Y141288D03*
X416488Y146844D03*
X399488Y146844D03*
X296631Y230981D03*
X279631Y230981D03*
X520469Y141288D03*
X503469Y141288D03*
X487131Y141288D03*
X470131Y141288D03*
D22*
X32544Y140725D03*
X32544Y157725D03*
X159544Y267725D03*
X159544Y284725D03*
X129944Y323850D03*
X112944Y323850D03*
X97863Y262731D03*
X114863Y262731D03*
X98656Y241300D03*
X115656Y241300D03*
X133581Y123825D03*
X150581Y123825D03*
D23*
X138113Y286519D03*
X138113Y267519D03*
D24*
X96863Y284956D03*
X115863Y284956D03*
X131788Y102394D03*
X150788Y102394D03*
D25*
X53975Y178594D03*
X53975Y153194D03*
X53975Y127794D03*
D26*
X139580Y129824D02*
X139580Y151987D01*
X139580Y129824D02*
X134656Y124900D01*
X133581Y123825D01*
D27*
X131788Y122031D02*
X131788Y102394D01*
D28*
X131788Y122031D02*
X134656Y124900D01*
D27*
X131788Y102394D02*
X131788Y84956D01*
D28*
X131763Y84931D01*
D29*
X131763Y84931D03*
D30*
X559569Y193865D02*
X559569Y204675D01*
X559569Y193865D02*
X524669Y193865D01*
X487338Y193865D01*
X457175Y193865D01*
X454794Y193865D01*
X457175Y193675D02*
X422250Y193675D01*
X422250Y204675D01*
X454794Y204675D02*
X454794Y193865D01*
X457175Y193865D02*
X457175Y193675D01*
X487338Y193865D02*
X487338Y204675D01*
X525438Y204675D02*
X525438Y194634D01*
X524669Y193865D01*
D26*
X144582Y151987D02*
X144582Y129824D01*
X150581Y123825D01*
D28*
X150581Y102600D01*
X150788Y102394D01*
D31*
X153194Y244475D02*
X153194Y253206D01*
X157163Y257175D01*
X169863Y257175D01*
X169863Y282575D02*
X167713Y284725D01*
X162243Y284725D01*
X160338Y284725D02*
X159544Y284725D01*
X169863Y282575D02*
X169863Y257175D01*
D28*
X123028Y307960D02*
X116729Y314259D01*
X139009Y307960D02*
X162243Y284725D01*
X116729Y320065D02*
X112944Y323850D01*
X116729Y320065D02*
X116729Y314259D01*
X123028Y307960D02*
X139009Y307960D01*
D29*
X60325Y213519D03*
X182563Y307975D03*
X206375Y301625D03*
D26*
X144406Y152163D02*
X144582Y151987D01*
X144406Y152163D02*
X144406Y157524D01*
X142081Y159849D02*
X142081Y186531D01*
X142081Y159849D02*
X144406Y157524D01*
D29*
X69056Y184150D03*
D31*
X98656Y231157D02*
X98656Y241300D01*
D27*
X97863Y242094D02*
X97863Y262731D01*
X97863Y242094D02*
X98656Y241300D01*
D28*
X97863Y262731D02*
X96863Y263731D01*
D27*
X96863Y284956D01*
X96863Y297681D01*
D28*
X97631Y298450D01*
D27*
X133350Y298450D01*
X138113Y293688D02*
X138113Y286519D01*
X138113Y293688D02*
X133350Y298450D01*
D29*
X81756Y252413D03*
D27*
X92075Y262731D01*
X97863Y262731D01*
D31*
X134579Y226577D02*
X134579Y221075D01*
X130000Y231157D02*
X98656Y231157D01*
X130000Y231157D02*
X134579Y226577D01*
D26*
X117244Y239713D02*
X115656Y241300D01*
X144406Y221251D02*
X144582Y221075D01*
X144406Y221251D02*
X144406Y226612D01*
X131306Y239713D01*
D31*
X117244Y239713D01*
D27*
X115863Y267494D02*
X115863Y284956D01*
X115863Y267494D02*
X115863Y263731D01*
D28*
X114863Y262731D01*
D27*
X114863Y242094D01*
X115656Y241300D01*
D28*
X138088Y267494D02*
X138113Y267519D01*
D27*
X138088Y267494D02*
X115863Y267494D01*
D28*
X138113Y267519D02*
X138319Y267725D01*
D27*
X159544Y267725D01*
D26*
X159761Y221251D02*
X159585Y221075D01*
X159761Y221251D02*
X159761Y226612D01*
X165718Y232569D01*
X180753Y232569D01*
D30*
X180753Y291529D01*
X153988Y318294D01*
X149225Y318294D01*
X148431Y318294D01*
D28*
X149225Y318294D02*
X143669Y323850D01*
D27*
X129944Y323850D01*
D28*
X202406Y268200D02*
X202406Y256944D01*
X202406Y268200D02*
X205694Y271488D01*
X456313Y287106D02*
X458019Y288813D01*
X456313Y287106D02*
X438944Y287106D01*
X541106Y221456D02*
X541106Y205213D01*
X540569Y204675D01*
X541106Y221456D02*
X537931Y224631D01*
X435794Y208782D02*
X435794Y204675D01*
X435794Y208782D02*
X438713Y224631D01*
X403250Y204675D02*
X388706Y204675D01*
X388706Y196850D01*
X264088Y231775D02*
X264088Y257620D01*
X264088Y231775D02*
X264881Y230981D01*
X264088Y257620D02*
X252602Y269106D01*
X244588Y269106D01*
X506181Y204931D02*
X506438Y204675D01*
X506181Y204931D02*
X506181Y224631D01*
X468338Y219331D02*
X468338Y204675D01*
X468338Y219331D02*
X473638Y224631D01*
X228600Y222481D02*
X223606Y222481D01*
X213487Y232601D02*
X213487Y259525D01*
X213487Y232601D02*
X223606Y222481D01*
X213487Y259525D02*
X219901Y265938D01*
X228600Y265938D01*
X228600Y280081D01*
X227694Y280988D01*
X492919Y268056D02*
X497681Y272819D01*
X492919Y268056D02*
X468763Y268056D01*
X467519Y266813D01*
X559771Y182675D02*
X562293Y180153D01*
X559771Y182675D02*
X550069Y182675D01*
X562293Y180153D02*
X562293Y140494D01*
X554600Y140494D01*
X453794Y141288D02*
X453794Y174175D01*
X445294Y182675D01*
X416488Y178938D02*
X416488Y146844D01*
X416488Y178938D02*
X412750Y182675D01*
X266588Y278606D02*
X266048Y279146D01*
X268680Y279146D01*
X289457Y262993D02*
X289457Y230981D01*
X296631Y230981D01*
X289457Y262993D02*
X273304Y279146D01*
X268680Y279146D01*
X515938Y141391D02*
X520469Y141288D01*
X515938Y141391D02*
X515938Y182675D01*
X487131Y173381D02*
X487131Y141288D01*
X487131Y173381D02*
X477838Y182675D01*
D30*
X202406Y227013D02*
X202406Y239944D01*
X202406Y227013D02*
X201613Y226219D01*
D29*
X201613Y226219D03*
X178812Y222618D03*
D26*
X177270Y221075D02*
X169588Y221075D01*
X177270Y221075D02*
X178812Y222618D01*
D30*
X246760Y217043D02*
X339725Y217043D01*
X228906Y199190D02*
X205581Y199190D01*
X228906Y199190D02*
X246760Y217043D01*
X339725Y217043D02*
X340354Y217672D01*
X433760Y264922D02*
X438944Y270106D01*
X433760Y264922D02*
X347901Y264922D01*
X340354Y257375D01*
X340354Y217672D01*
D26*
X205581Y199190D02*
X176781Y199190D01*
X176625Y199034D01*
X114574Y151987D02*
X114193Y151606D01*
X101600Y151606D01*
D27*
X55563Y151606D01*
X53975Y153194D01*
X53975Y166688D02*
X53975Y178594D01*
X53975Y166688D02*
X53975Y153194D01*
X41506Y166688D02*
X32544Y157725D01*
X41506Y166688D02*
X53975Y166688D01*
D30*
X255365Y195040D02*
X362384Y195040D01*
X362855Y216122D01*
X421713Y216694D02*
X421713Y224631D01*
X421713Y216694D02*
X421141Y216122D01*
X362855Y216122D01*
X233416Y173091D02*
X208312Y173091D01*
X233416Y173091D02*
X255365Y195040D01*
D26*
X176800Y179204D02*
X176625Y179029D01*
X203187Y173091D02*
X208312Y173091D01*
X203187Y173091D02*
X197345Y178933D01*
X177071Y178933D02*
X176800Y179204D01*
X177071Y178933D02*
X197345Y178933D01*
D30*
X371706Y189706D02*
X371706Y196850D01*
X371706Y189706D02*
X259551Y189706D01*
X207963Y165100D02*
X207941Y165122D01*
X207963Y165100D02*
X234944Y165100D01*
X259551Y189706D01*
D26*
X195425Y174028D02*
X176625Y174028D01*
X195425Y174028D02*
X201188Y168265D01*
X204797Y168265D01*
X207941Y165122D01*
D30*
X247881Y225708D02*
X247881Y230981D01*
X226697Y204524D02*
X222250Y204524D01*
X226697Y204524D02*
X247881Y225708D01*
D26*
X203243Y204035D02*
X176625Y204035D01*
X203731Y204524D02*
X222250Y204524D01*
X203731Y204524D02*
X203243Y204035D01*
D30*
X351022Y227444D02*
X407270Y227444D01*
X351022Y227444D02*
X351022Y206375D01*
X407270Y227444D02*
X407270Y241078D01*
X488950Y241078D02*
X488950Y235744D01*
X488950Y241078D02*
X407270Y241078D01*
X488950Y235744D02*
X489181Y235744D01*
X489181Y224631D01*
X351022Y206375D02*
X255588Y206375D01*
X255461Y206248D01*
X251052Y206248D01*
X229357Y184553D01*
X211487Y184553D01*
D26*
X205375Y184553D01*
X201072Y188856D01*
X176801Y188856D02*
X176625Y189032D01*
X176801Y188856D02*
X201072Y188856D01*
D30*
X412769Y235744D02*
X456638Y235744D01*
X412769Y235744D02*
X412604Y222110D01*
X456638Y224631D02*
X456638Y235744D01*
X412604Y222110D02*
X356356Y222057D01*
X356507Y200517D01*
X276225Y200914D02*
X253261Y200914D01*
X276225Y200914D02*
X276225Y200517D01*
X356507Y200517D01*
X231566Y179219D02*
X216249Y179219D01*
X231566Y179219D02*
X253261Y200914D01*
D26*
X216249Y179219D02*
X203884Y179219D01*
X199073Y184030D01*
X176625Y184030D01*
D29*
X85652Y131763D03*
D26*
X124577Y144802D02*
X124577Y151987D01*
X124577Y144802D02*
X115443Y135668D01*
X90351Y135668D02*
X86446Y131763D01*
X85652Y131763D01*
X90351Y135668D02*
X115443Y135668D01*
D29*
X179468Y135731D03*
D26*
X159761Y151811D02*
X159585Y151987D01*
X168656Y135731D02*
X179468Y135731D01*
X168656Y135731D02*
X159761Y144626D01*
X159761Y151811D01*
D29*
X171206Y127794D03*
D26*
X154584Y142828D02*
X154584Y151987D01*
X169618Y127794D02*
X171206Y127794D01*
X169618Y127794D02*
X154584Y142828D01*
D29*
X106615Y127000D03*
D26*
X113758Y127000D02*
X129578Y142820D01*
X113758Y127000D02*
X106615Y127000D01*
X129578Y142820D02*
X129578Y151987D01*
D29*
X197581Y127794D03*
D26*
X196656Y128718D01*
X196656Y141946D01*
X186615Y151987D01*
X169588Y151987D01*
D29*
X205372Y136316D03*
D26*
X205451Y136395D01*
X205451Y139976D01*
X186403Y159024D01*
X176625Y159024D01*
D28*
X470131Y141288D02*
X470131Y130175D01*
X464575Y124619D01*
X382778Y124619D01*
X284024Y152400D02*
X276225Y152400D01*
X284024Y152400D02*
X296470Y164846D01*
X338963Y157345D02*
X338963Y147606D01*
X361950Y124619D01*
X331462Y164846D02*
X296470Y164846D01*
X331462Y164846D02*
X338963Y157345D01*
X361950Y124619D02*
X382778Y124619D01*
X467254Y116119D02*
X488156Y116119D01*
X488156Y116450D02*
X496888Y116450D01*
X467254Y116119D02*
X467181Y116046D01*
X327025Y148431D02*
X327025Y152400D01*
X327025Y148431D02*
X359410Y116046D01*
X467181Y116046D01*
X488156Y116119D02*
X488156Y116450D01*
X488156Y116119D02*
X488156Y106363D01*
X485775Y103981D01*
X503469Y123031D02*
X503469Y141288D01*
X503469Y123031D02*
X496888Y116450D01*
X279631Y230981D02*
X276225Y234388D01*
X276225Y254000D01*
X399395Y146936D02*
X399488Y146844D01*
X399395Y146936D02*
X399395Y173038D01*
X390124Y182309D01*
X262477Y182309D01*
X232569Y152400D01*
X225425Y152400D01*
X427523Y132017D02*
X436794Y141288D01*
X258624Y152400D02*
X250825Y152400D01*
X258624Y152400D02*
X280595Y174371D01*
X347337Y174371D02*
X365887Y155821D01*
X365887Y147455D01*
X381326Y132017D01*
X347337Y174371D02*
X280595Y174371D01*
X381326Y132017D02*
X427523Y132017D01*
X396081Y91238D02*
X492082Y91238D01*
X537600Y136756D02*
X537600Y140494D01*
X537600Y136756D02*
X492082Y91238D01*
X546100Y165894D02*
X549275Y165894D01*
X546100Y165894D02*
X537600Y157394D01*
X537600Y140494D01*
X310142Y152400D02*
X301625Y152400D01*
X310142Y152400D02*
X353862Y108680D01*
X389001Y108680D01*
X396081Y101600D02*
X396081Y91238D01*
X396081Y101600D02*
X389001Y108680D01*
X496094Y254231D02*
X497681Y255819D01*
X496094Y254231D02*
X396313Y254231D01*
X382588Y240506D01*
X365919Y240506D02*
X352425Y254000D01*
X365919Y240506D02*
X382588Y240506D01*
X497681Y255819D02*
X533169Y255819D01*
X549275Y239713D01*
X243119Y254000D02*
X228600Y239481D01*
X243119Y254000D02*
X250825Y254000D01*
D29*
X189318Y138906D03*
D26*
X164762Y151812D02*
X164587Y151987D01*
X164762Y151812D02*
X164762Y146450D01*
X184556Y143669D02*
X189318Y138906D01*
X184556Y143669D02*
X167544Y143669D01*
X164762Y146450D01*
D30*
X196056Y310356D02*
X196056Y313531D01*
X196056Y310356D02*
X187738Y302038D01*
D29*
X196056Y313531D03*
D30*
X187738Y302038D02*
X187738Y221837D01*
X187762Y221813D01*
X187762Y220663D01*
D26*
X181138Y214038D01*
X176625Y214038D01*
D30*
X193072Y299447D02*
X220725Y327100D01*
D26*
X192881Y212725D02*
X189194Y209037D01*
D30*
X192881Y212725D02*
X193096Y212940D01*
X193096Y230981D01*
D26*
X189194Y209037D02*
X176625Y209037D01*
D30*
X193072Y231006D02*
X193072Y299447D01*
X193072Y231006D02*
X193096Y230981D01*
X220725Y132494D02*
X220725Y79300D01*
D26*
X189194Y164025D02*
X176625Y164025D01*
X189194Y164025D02*
X220725Y132494D01*
D30*
X228317Y132839D02*
X199273Y161884D01*
X228317Y132839D02*
X228317Y106736D01*
D29*
X228317Y106736D03*
D26*
X192129Y169027D02*
X176625Y169027D01*
X192129Y169027D02*
X199273Y161884D01*
X154759Y221250D02*
X154759Y229787D01*
X154759Y221250D02*
X154584Y221075D01*
X165194Y240222D02*
X165194Y244475D01*
X165194Y240222D02*
X154759Y229787D01*
X141194Y238919D02*
X141194Y244475D01*
X149583Y230529D02*
X149583Y221075D01*
X149583Y230529D02*
X141194Y238919D01*
D30*
X400764Y246634D02*
X521341Y246634D01*
X400764Y246634D02*
X400633Y237109D01*
X521341Y246634D02*
X521341Y225041D01*
X520931Y224631D01*
X400633Y237109D02*
X396302Y232778D01*
X348813Y232778D01*
X345688Y229653D01*
X345688Y211709D01*
X248969Y211709D02*
X227147Y189887D01*
X248969Y211709D02*
X345688Y211709D01*
X227147Y189887D02*
X210693Y189887D01*
D26*
X206866Y189887D01*
X176800Y193858D02*
X176625Y194033D01*
X202895Y193858D02*
X206866Y189887D01*
X202895Y193858D02*
X176800Y193858D01*
X119575Y151987D02*
X119400Y151812D01*
X119400Y146450D01*
X115825Y142875D01*
X99219Y142875D01*
D27*
X69056Y142875D01*
X53975Y127794D01*
D30*
X36275Y204231D02*
X73025Y204231D01*
X36275Y204231D02*
X33338Y207169D01*
D29*
X33338Y207169D03*
D26*
X98012Y179029D02*
X107537Y179029D01*
X98012Y179029D02*
X95036Y182006D01*
X95250Y182006D01*
D30*
X73025Y204231D01*
X10888Y198438D02*
X6125Y203200D01*
X10888Y198438D02*
X71213Y198438D01*
D26*
X95622Y174028D02*
X107537Y174028D01*
D30*
X95622Y174028D02*
X71213Y198438D01*
X110238Y119750D02*
X77725Y87238D01*
X77725Y79300D01*
D26*
X134579Y140929D02*
X134579Y151987D01*
X113400Y119750D02*
X110238Y119750D01*
X113400Y119750D02*
X134579Y140929D01*
D29*
X162149Y121218D03*
D26*
X149758Y140753D02*
X149758Y151812D01*
X149583Y151987D01*
X149758Y140753D02*
X162019Y128492D01*
X162019Y121349D01*
X162149Y121218D01*
D29*
X54321Y286544D03*
D30*
X53404Y285627D01*
X53404Y242888D01*
D26*
X87254Y209037D02*
X107537Y209037D01*
X87254Y209037D02*
X53404Y242888D01*
D30*
X61913Y311288D02*
X77725Y327100D01*
X61913Y311288D02*
X61913Y242888D01*
D26*
X90762Y214038D02*
X107537Y214038D01*
X90762Y214038D02*
X61913Y242888D01*
D29*
X94456Y201613D03*
D26*
X97055Y204211D02*
X107361Y204211D01*
X97055Y204211D02*
X94456Y201613D01*
X107361Y204211D02*
X107537Y204035D01*
M02*
