G04 EAGLE Gerber RS-274X export*
G75*
%MOMM*%
%FSLAX34Y34*%
%LPD*%
%INSoldermask Bottom*%
%IPPOS*%
%AMOC8*
5,1,8,0,0,1.08239X$1,22.5*%
G01*
%ADD10R,0.603200X1.603197*%
%ADD11C,1.203200*%
%ADD12R,1.603200X1.203200*%
%ADD13R,1.203200X1.603200*%
%ADD14C,1.625600*%
%ADD15R,0.457200X1.016000*%
%ADD16R,1.016000X0.457200*%
%ADD17R,5.715000X5.715000*%
%ADD18R,0.396875X0.952500*%
%ADD19R,1.031875X0.396875*%
%ADD20R,0.396875X1.031875*%
%ADD21R,0.952500X0.396875*%
%ADD22P,1.869504X8X22.500000*%
%ADD23P,1.649562X8X202.500000*%
%ADD24P,1.649562X8X112.500000*%
%ADD25R,1.203200X1.303200*%
%ADD26R,1.303200X1.203200*%
%ADD27R,1.703200X1.503200*%
%ADD28R,1.503200X1.703200*%
%ADD29C,1.727200*%

G36*
X299252Y270303D02*
X299252Y270303D01*
X299265Y270302D01*
X302315Y270545D01*
X302347Y270554D01*
X302394Y270558D01*
X305366Y271286D01*
X305397Y271301D01*
X305442Y271312D01*
X305506Y271339D01*
X306682Y271838D01*
X307857Y272337D01*
X307858Y272337D01*
X308259Y272508D01*
X308287Y272527D01*
X308330Y272545D01*
X310918Y274177D01*
X310942Y274201D01*
X310982Y274225D01*
X313275Y276252D01*
X313295Y276279D01*
X313331Y276310D01*
X315269Y278678D01*
X315285Y278708D01*
X315314Y278744D01*
X316848Y281392D01*
X316858Y281424D01*
X316882Y281464D01*
X316935Y281604D01*
X317695Y283601D01*
X317885Y284100D01*
X317971Y284324D01*
X317976Y284357D01*
X317993Y284401D01*
X318609Y287398D01*
X318609Y287432D01*
X318618Y287478D01*
X318745Y290535D01*
X318740Y290569D01*
X318742Y290616D01*
X318377Y293654D01*
X318366Y293686D01*
X318361Y293732D01*
X317513Y296672D01*
X317497Y296702D01*
X317485Y296748D01*
X316176Y299514D01*
X316159Y299536D01*
X316149Y299563D01*
X316100Y299615D01*
X316057Y299673D01*
X316032Y299687D01*
X316013Y299708D01*
X315947Y299737D01*
X315885Y299773D01*
X315857Y299776D01*
X315831Y299788D01*
X315759Y299789D01*
X315688Y299798D01*
X315661Y299790D01*
X315632Y299791D01*
X315537Y299755D01*
X315497Y299744D01*
X315488Y299737D01*
X315476Y299733D01*
X299225Y290376D01*
X282974Y299733D01*
X282947Y299742D01*
X282923Y299758D01*
X282853Y299773D01*
X282785Y299796D01*
X282757Y299793D01*
X282729Y299799D01*
X282659Y299786D01*
X282587Y299780D01*
X282562Y299767D01*
X282534Y299761D01*
X282474Y299721D01*
X282411Y299688D01*
X282393Y299666D01*
X282369Y299650D01*
X282311Y299567D01*
X282284Y299535D01*
X282281Y299524D01*
X282274Y299514D01*
X280965Y296748D01*
X280957Y296715D01*
X280937Y296672D01*
X280089Y293732D01*
X280086Y293698D01*
X280073Y293654D01*
X279708Y290616D01*
X279711Y290582D01*
X279705Y290535D01*
X279832Y287478D01*
X279840Y287445D01*
X279841Y287398D01*
X280457Y284401D01*
X280470Y284370D01*
X280480Y284324D01*
X281568Y281464D01*
X281586Y281436D01*
X281603Y281392D01*
X283136Y278744D01*
X283158Y278718D01*
X283181Y278678D01*
X285119Y276310D01*
X285146Y276288D01*
X285175Y276252D01*
X287468Y274225D01*
X287497Y274209D01*
X287532Y274177D01*
X290120Y272545D01*
X290152Y272533D01*
X290191Y272508D01*
X293008Y271312D01*
X293041Y271305D01*
X293084Y271286D01*
X296056Y270558D01*
X296090Y270556D01*
X296135Y270545D01*
X299185Y270302D01*
X299214Y270306D01*
X299242Y270301D01*
X299252Y270303D01*
G37*
G36*
X315792Y106615D02*
X315792Y106615D01*
X315863Y106620D01*
X315888Y106633D01*
X315916Y106639D01*
X315976Y106679D01*
X316039Y106712D01*
X316057Y106734D01*
X316081Y106750D01*
X316139Y106833D01*
X316166Y106865D01*
X316169Y106876D01*
X316176Y106887D01*
X317485Y109653D01*
X317493Y109686D01*
X317513Y109728D01*
X318361Y112668D01*
X318364Y112702D01*
X318377Y112746D01*
X318742Y115784D01*
X318739Y115818D01*
X318745Y115865D01*
X318618Y118922D01*
X318610Y118955D01*
X318609Y119002D01*
X317993Y121999D01*
X317980Y122030D01*
X317971Y122076D01*
X316882Y124936D01*
X316864Y124965D01*
X316848Y125008D01*
X315314Y127656D01*
X315292Y127682D01*
X315269Y127723D01*
X313331Y130090D01*
X313304Y130112D01*
X313275Y130148D01*
X310982Y132175D01*
X310953Y132192D01*
X310918Y132223D01*
X308330Y133855D01*
X308298Y133867D01*
X308259Y133892D01*
X305442Y135088D01*
X305409Y135095D01*
X305366Y135114D01*
X302394Y135842D01*
X302360Y135844D01*
X302315Y135855D01*
X299265Y136098D01*
X299236Y136094D01*
X299208Y136099D01*
X299198Y136097D01*
X299185Y136098D01*
X296135Y135855D01*
X296103Y135846D01*
X296056Y135842D01*
X293084Y135114D01*
X293053Y135099D01*
X293008Y135088D01*
X292843Y135018D01*
X291668Y134519D01*
X290492Y134020D01*
X290191Y133892D01*
X290163Y133873D01*
X290120Y133855D01*
X287532Y132223D01*
X287508Y132199D01*
X287468Y132175D01*
X285175Y130148D01*
X285155Y130121D01*
X285119Y130090D01*
X283181Y127723D01*
X283165Y127692D01*
X283136Y127656D01*
X281603Y125008D01*
X281592Y124976D01*
X281568Y124936D01*
X280480Y122076D01*
X280474Y122043D01*
X280457Y121999D01*
X279841Y119002D01*
X279841Y118968D01*
X279832Y118922D01*
X279705Y115865D01*
X279710Y115831D01*
X279708Y115784D01*
X280073Y112746D01*
X280084Y112714D01*
X280089Y112668D01*
X280937Y109728D01*
X280953Y109698D01*
X280965Y109653D01*
X282274Y106887D01*
X282291Y106864D01*
X282301Y106837D01*
X282350Y106785D01*
X282393Y106727D01*
X282418Y106713D01*
X282437Y106692D01*
X282503Y106663D01*
X282565Y106627D01*
X282593Y106624D01*
X282619Y106612D01*
X282691Y106611D01*
X282762Y106602D01*
X282789Y106610D01*
X282818Y106610D01*
X282913Y106645D01*
X282953Y106656D01*
X282962Y106663D01*
X282974Y106667D01*
X299225Y116024D01*
X315476Y106667D01*
X315503Y106658D01*
X315527Y106642D01*
X315597Y106627D01*
X315665Y106604D01*
X315693Y106607D01*
X315721Y106601D01*
X315792Y106615D01*
G37*
G36*
X-748Y185704D02*
X-748Y185704D01*
X-734Y185702D01*
X2064Y185934D01*
X2098Y185944D01*
X2146Y185948D01*
X4867Y186637D01*
X4899Y186652D01*
X4945Y186664D01*
X7517Y187792D01*
X7545Y187812D01*
X7589Y187831D01*
X9940Y189367D01*
X9964Y189391D01*
X10005Y189417D01*
X12070Y191319D01*
X12083Y191336D01*
X12095Y191345D01*
X12106Y191361D01*
X12126Y191380D01*
X13851Y193595D01*
X13866Y193626D01*
X13896Y193664D01*
X15232Y196134D01*
X15242Y196167D01*
X15265Y196209D01*
X16177Y198865D01*
X16182Y198899D01*
X16197Y198945D01*
X16659Y201714D01*
X16658Y201749D01*
X16666Y201796D01*
X16666Y204604D01*
X16659Y204638D01*
X16659Y204686D01*
X16197Y207455D01*
X16185Y207488D01*
X16177Y207535D01*
X15265Y210191D01*
X15248Y210221D01*
X15232Y210266D01*
X13896Y212736D01*
X13874Y212762D01*
X13851Y212805D01*
X12126Y215020D01*
X12100Y215043D01*
X12070Y215081D01*
X10005Y216983D01*
X9975Y217001D01*
X9940Y217033D01*
X7589Y218569D01*
X7557Y218582D01*
X7517Y218608D01*
X4945Y219736D01*
X4912Y219743D01*
X4867Y219763D01*
X2146Y220452D01*
X2111Y220454D01*
X2064Y220466D01*
X-734Y220698D01*
X-763Y220694D01*
X-792Y220699D01*
X-861Y220683D01*
X-931Y220674D01*
X-957Y220660D01*
X-985Y220653D01*
X-1042Y220611D01*
X-1104Y220576D01*
X-1122Y220552D01*
X-1145Y220535D01*
X-1181Y220474D01*
X-1224Y220417D01*
X-1232Y220389D01*
X-1247Y220364D01*
X-1263Y220266D01*
X-1274Y220225D01*
X-1272Y220214D01*
X-1274Y220200D01*
X-1274Y186200D01*
X-1268Y186171D01*
X-1271Y186142D01*
X-1249Y186075D01*
X-1235Y186005D01*
X-1218Y185981D01*
X-1209Y185953D01*
X-1162Y185900D01*
X-1122Y185841D01*
X-1098Y185826D01*
X-1078Y185804D01*
X-1014Y185772D01*
X-955Y185734D01*
X-926Y185729D01*
X-900Y185717D01*
X-800Y185708D01*
X-758Y185701D01*
X-748Y185704D01*
G37*
G36*
X88991Y64314D02*
X88991Y64314D01*
X89062Y64320D01*
X89088Y64333D01*
X89116Y64339D01*
X89175Y64379D01*
X89238Y64411D01*
X89257Y64434D01*
X89281Y64450D01*
X89338Y64532D01*
X89365Y64565D01*
X89368Y64575D01*
X89376Y64587D01*
X90575Y67122D01*
X90583Y67156D01*
X90604Y67199D01*
X91369Y69897D01*
X91371Y69932D01*
X91385Y69978D01*
X91695Y72766D01*
X91692Y72794D01*
X91694Y72805D01*
X91693Y72810D01*
X91697Y72848D01*
X91545Y75648D01*
X91536Y75682D01*
X91533Y75730D01*
X90922Y78467D01*
X90908Y78499D01*
X90897Y78546D01*
X89844Y81145D01*
X89825Y81174D01*
X89807Y81218D01*
X88340Y83609D01*
X88316Y83634D01*
X88291Y83675D01*
X86450Y85791D01*
X86423Y85812D01*
X86391Y85849D01*
X84228Y87633D01*
X84197Y87649D01*
X84160Y87680D01*
X81732Y89084D01*
X81699Y89095D01*
X81657Y89119D01*
X79032Y90104D01*
X78997Y90110D01*
X78952Y90127D01*
X76200Y90666D01*
X76166Y90666D01*
X76118Y90675D01*
X73315Y90754D01*
X73281Y90749D01*
X73233Y90750D01*
X70454Y90367D01*
X70422Y90355D01*
X70374Y90349D01*
X67697Y89513D01*
X67666Y89496D01*
X67620Y89482D01*
X65117Y88218D01*
X65090Y88196D01*
X65047Y88174D01*
X62786Y86515D01*
X62763Y86489D01*
X62724Y86461D01*
X60767Y84452D01*
X60748Y84423D01*
X60714Y84388D01*
X59115Y82085D01*
X59103Y82058D01*
X59085Y82035D01*
X59064Y81967D01*
X59036Y81902D01*
X59036Y81873D01*
X59028Y81845D01*
X59036Y81774D01*
X59035Y81703D01*
X59046Y81676D01*
X59050Y81647D01*
X59084Y81585D01*
X59112Y81520D01*
X59133Y81499D01*
X59147Y81474D01*
X59223Y81411D01*
X59254Y81381D01*
X59264Y81377D01*
X59275Y81368D01*
X88675Y64368D01*
X88703Y64359D01*
X88727Y64342D01*
X88796Y64327D01*
X88864Y64305D01*
X88893Y64307D01*
X88921Y64301D01*
X88991Y64314D01*
G37*
G36*
X76118Y315725D02*
X76118Y315725D01*
X76152Y315733D01*
X76200Y315734D01*
X78952Y316273D01*
X78984Y316287D01*
X79032Y316296D01*
X81657Y317281D01*
X81687Y317299D01*
X81732Y317316D01*
X84160Y318720D01*
X84186Y318743D01*
X84228Y318767D01*
X86391Y320551D01*
X86413Y320578D01*
X86450Y320609D01*
X88291Y322725D01*
X88308Y322755D01*
X88340Y322791D01*
X89807Y325182D01*
X89818Y325214D01*
X89844Y325255D01*
X90897Y327854D01*
X90904Y327888D01*
X90922Y327933D01*
X91533Y330670D01*
X91534Y330705D01*
X91545Y330752D01*
X91697Y333552D01*
X91692Y333586D01*
X91695Y333634D01*
X91385Y336422D01*
X91374Y336455D01*
X91369Y336503D01*
X90604Y339201D01*
X90588Y339231D01*
X90575Y339278D01*
X89376Y341813D01*
X89359Y341837D01*
X89349Y341864D01*
X89300Y341916D01*
X89257Y341973D01*
X89232Y341987D01*
X89212Y342009D01*
X89147Y342037D01*
X89086Y342073D01*
X89057Y342076D01*
X89030Y342088D01*
X88959Y342089D01*
X88888Y342098D01*
X88860Y342090D01*
X88831Y342090D01*
X88738Y342056D01*
X88697Y342044D01*
X88688Y342037D01*
X88675Y342032D01*
X59275Y325032D01*
X59253Y325013D01*
X59227Y325000D01*
X59179Y324947D01*
X59126Y324900D01*
X59114Y324874D01*
X59094Y324852D01*
X59071Y324785D01*
X59041Y324721D01*
X59039Y324692D01*
X59030Y324664D01*
X59035Y324593D01*
X59032Y324522D01*
X59042Y324495D01*
X59044Y324466D01*
X59086Y324376D01*
X59101Y324336D01*
X59109Y324328D01*
X59115Y324315D01*
X60714Y322012D01*
X60740Y321988D01*
X60767Y321948D01*
X62724Y319939D01*
X62753Y319920D01*
X62786Y319885D01*
X65047Y318226D01*
X65078Y318211D01*
X65117Y318182D01*
X67620Y316918D01*
X67654Y316909D01*
X67697Y316887D01*
X70374Y316051D01*
X70408Y316048D01*
X70454Y316033D01*
X73233Y315650D01*
X73267Y315652D01*
X73315Y315646D01*
X76118Y315725D01*
G37*
G36*
X209590Y64310D02*
X209590Y64310D01*
X209619Y64310D01*
X209712Y64344D01*
X209753Y64356D01*
X209762Y64363D01*
X209775Y64368D01*
X239175Y81368D01*
X239197Y81387D01*
X239223Y81400D01*
X239271Y81453D01*
X239324Y81500D01*
X239336Y81526D01*
X239356Y81548D01*
X239379Y81615D01*
X239409Y81679D01*
X239411Y81708D01*
X239420Y81736D01*
X239415Y81807D01*
X239418Y81878D01*
X239408Y81905D01*
X239406Y81934D01*
X239364Y82024D01*
X239349Y82064D01*
X239341Y82072D01*
X239335Y82085D01*
X237736Y84388D01*
X237711Y84412D01*
X237683Y84452D01*
X235726Y86461D01*
X235697Y86480D01*
X235664Y86515D01*
X233403Y88174D01*
X233372Y88189D01*
X233333Y88218D01*
X230830Y89482D01*
X230796Y89491D01*
X230753Y89513D01*
X228076Y90349D01*
X228042Y90352D01*
X227996Y90367D01*
X225217Y90750D01*
X225183Y90748D01*
X225135Y90754D01*
X222332Y90675D01*
X222298Y90667D01*
X222250Y90666D01*
X219498Y90127D01*
X219466Y90113D01*
X219418Y90104D01*
X216793Y89119D01*
X216763Y89101D01*
X216718Y89084D01*
X214290Y87680D01*
X214264Y87657D01*
X214223Y87633D01*
X212059Y85849D01*
X212037Y85822D01*
X212000Y85791D01*
X210159Y83675D01*
X210142Y83645D01*
X210111Y83609D01*
X208643Y81218D01*
X208632Y81186D01*
X208606Y81145D01*
X207553Y78546D01*
X207546Y78512D01*
X207528Y78467D01*
X206917Y75730D01*
X206916Y75695D01*
X206905Y75648D01*
X206753Y72848D01*
X206758Y72814D01*
X206755Y72766D01*
X207065Y69978D01*
X207076Y69945D01*
X207081Y69897D01*
X207846Y67199D01*
X207862Y67169D01*
X207875Y67122D01*
X209074Y64587D01*
X209091Y64563D01*
X209101Y64536D01*
X209150Y64484D01*
X209193Y64427D01*
X209218Y64413D01*
X209238Y64392D01*
X209303Y64363D01*
X209365Y64327D01*
X209393Y64324D01*
X209420Y64312D01*
X209491Y64311D01*
X209562Y64302D01*
X209590Y64310D01*
G37*
G36*
X225169Y315652D02*
X225169Y315652D01*
X225217Y315650D01*
X227996Y316033D01*
X228028Y316045D01*
X228076Y316051D01*
X230753Y316887D01*
X230784Y316904D01*
X230830Y316918D01*
X233333Y318182D01*
X233360Y318204D01*
X233403Y318226D01*
X235664Y319885D01*
X235687Y319911D01*
X235726Y319939D01*
X237683Y321948D01*
X237702Y321977D01*
X237736Y322012D01*
X239335Y324315D01*
X239347Y324342D01*
X239365Y324365D01*
X239386Y324433D01*
X239414Y324498D01*
X239414Y324527D01*
X239422Y324555D01*
X239414Y324626D01*
X239415Y324697D01*
X239404Y324724D01*
X239400Y324753D01*
X239366Y324815D01*
X239338Y324880D01*
X239317Y324901D01*
X239303Y324926D01*
X239227Y324989D01*
X239196Y325019D01*
X239186Y325023D01*
X239175Y325032D01*
X209775Y342032D01*
X209747Y342041D01*
X209723Y342058D01*
X209654Y342073D01*
X209586Y342095D01*
X209557Y342093D01*
X209529Y342099D01*
X209459Y342086D01*
X209388Y342080D01*
X209362Y342067D01*
X209334Y342061D01*
X209275Y342021D01*
X209212Y341989D01*
X209193Y341966D01*
X209169Y341950D01*
X209112Y341868D01*
X209085Y341835D01*
X209082Y341825D01*
X209074Y341813D01*
X207875Y339278D01*
X207867Y339244D01*
X207846Y339201D01*
X207081Y336503D01*
X207079Y336468D01*
X207065Y336422D01*
X206755Y333634D01*
X206757Y333607D01*
X206757Y333602D01*
X206758Y333597D01*
X206753Y333552D01*
X206905Y330752D01*
X206914Y330718D01*
X206917Y330670D01*
X207528Y327933D01*
X207542Y327901D01*
X207553Y327854D01*
X208606Y325255D01*
X208625Y325226D01*
X208643Y325182D01*
X210111Y322791D01*
X210134Y322766D01*
X210159Y322725D01*
X212000Y320609D01*
X212027Y320588D01*
X212059Y320551D01*
X214223Y318767D01*
X214253Y318751D01*
X214290Y318720D01*
X216718Y317316D01*
X216751Y317305D01*
X216793Y317281D01*
X219418Y316296D01*
X219453Y316290D01*
X219498Y316273D01*
X222250Y315734D01*
X222285Y315734D01*
X222332Y315725D01*
X225135Y315646D01*
X225169Y315652D01*
G37*
G36*
X-767Y270264D02*
X-767Y270264D01*
X-753Y270263D01*
X2303Y270510D01*
X2336Y270519D01*
X2382Y270523D01*
X5359Y271256D01*
X5390Y271271D01*
X5436Y271282D01*
X8257Y272484D01*
X8284Y272503D01*
X8328Y272521D01*
X10919Y274160D01*
X10944Y274183D01*
X10983Y274208D01*
X13278Y276241D01*
X13299Y276268D01*
X13334Y276299D01*
X15273Y278674D01*
X15289Y278704D01*
X15319Y278740D01*
X16852Y281396D01*
X16863Y281428D01*
X16887Y281468D01*
X17974Y284335D01*
X17979Y284369D01*
X17996Y284413D01*
X18609Y287417D01*
X18610Y287451D01*
X18619Y287497D01*
X18743Y290560D01*
X18737Y290594D01*
X18739Y290640D01*
X18370Y293684D01*
X18359Y293717D01*
X18354Y293763D01*
X17501Y296708D01*
X17485Y296738D01*
X17472Y296783D01*
X16158Y299553D01*
X16140Y299577D01*
X16130Y299604D01*
X16081Y299656D01*
X16038Y299713D01*
X16013Y299727D01*
X15993Y299748D01*
X15928Y299777D01*
X15866Y299812D01*
X15838Y299816D01*
X15811Y299828D01*
X15740Y299828D01*
X15669Y299837D01*
X15641Y299829D01*
X15612Y299830D01*
X15519Y299795D01*
X15478Y299783D01*
X15469Y299776D01*
X15457Y299771D01*
X-1021Y290232D01*
X-1078Y290181D01*
X-1140Y290136D01*
X-1152Y290116D01*
X-1170Y290100D01*
X-1203Y290031D01*
X-1242Y289965D01*
X-1246Y289939D01*
X-1255Y289921D01*
X-1257Y289876D01*
X-1270Y289801D01*
X-1293Y270761D01*
X-1287Y270733D01*
X-1289Y270704D01*
X-1267Y270636D01*
X-1253Y270566D01*
X-1237Y270542D01*
X-1228Y270515D01*
X-1181Y270461D01*
X-1141Y270402D01*
X-1117Y270387D01*
X-1098Y270365D01*
X-1033Y270333D01*
X-973Y270295D01*
X-945Y270290D01*
X-919Y270277D01*
X-819Y270269D01*
X-777Y270262D01*
X-767Y270264D01*
G37*
G36*
X15772Y106575D02*
X15772Y106575D01*
X15843Y106580D01*
X15869Y106594D01*
X15897Y106599D01*
X15957Y106639D01*
X16020Y106672D01*
X16038Y106694D01*
X16062Y106710D01*
X16120Y106792D01*
X16147Y106825D01*
X16150Y106835D01*
X16158Y106847D01*
X17472Y109617D01*
X17480Y109650D01*
X17501Y109692D01*
X18354Y112637D01*
X18356Y112671D01*
X18370Y112716D01*
X18739Y115760D01*
X18737Y115793D01*
X18743Y115840D01*
X18619Y118904D01*
X18611Y118936D01*
X18609Y118983D01*
X17996Y121988D01*
X17983Y122019D01*
X17974Y122065D01*
X16887Y124932D01*
X16868Y124960D01*
X16852Y125004D01*
X15319Y127660D01*
X15296Y127685D01*
X15273Y127726D01*
X13334Y130101D01*
X13308Y130122D01*
X13278Y130159D01*
X10983Y132192D01*
X10954Y132209D01*
X10919Y132240D01*
X8328Y133879D01*
X8296Y133891D01*
X8257Y133916D01*
X5436Y135118D01*
X5402Y135125D01*
X5359Y135144D01*
X2382Y135877D01*
X2348Y135879D01*
X2303Y135890D01*
X-753Y136137D01*
X-782Y136134D01*
X-810Y136138D01*
X-880Y136122D01*
X-951Y136113D01*
X-976Y136099D01*
X-1004Y136092D01*
X-1061Y136050D01*
X-1123Y136014D01*
X-1141Y135991D01*
X-1164Y135974D01*
X-1200Y135913D01*
X-1243Y135856D01*
X-1250Y135828D01*
X-1265Y135803D01*
X-1282Y135704D01*
X-1292Y135663D01*
X-1290Y135652D01*
X-1293Y135639D01*
X-1270Y116599D01*
X-1254Y116524D01*
X-1246Y116448D01*
X-1235Y116427D01*
X-1230Y116405D01*
X-1186Y116341D01*
X-1149Y116274D01*
X-1129Y116258D01*
X-1117Y116241D01*
X-1080Y116217D01*
X-1021Y116168D01*
X15457Y106629D01*
X15484Y106619D01*
X15508Y106603D01*
X15577Y106588D01*
X15645Y106565D01*
X15674Y106567D01*
X15702Y106561D01*
X15772Y106575D01*
G37*
G36*
X449241Y29511D02*
X449241Y29511D01*
X449318Y29510D01*
X449342Y29519D01*
X449363Y29520D01*
X449402Y29541D01*
X449474Y29567D01*
X465974Y39067D01*
X465996Y39086D01*
X466022Y39099D01*
X466056Y39137D01*
X466059Y39139D01*
X466062Y39143D01*
X466070Y39152D01*
X466123Y39199D01*
X466136Y39225D01*
X466155Y39247D01*
X466178Y39314D01*
X466209Y39378D01*
X466211Y39407D01*
X466220Y39434D01*
X466215Y39506D01*
X466218Y39577D01*
X466208Y39604D01*
X466206Y39633D01*
X466164Y39723D01*
X466149Y39763D01*
X466142Y39771D01*
X466136Y39784D01*
X464394Y42307D01*
X464370Y42331D01*
X464343Y42369D01*
X462219Y44581D01*
X462191Y44600D01*
X462159Y44634D01*
X459708Y46476D01*
X459677Y46490D01*
X459640Y46519D01*
X456925Y47944D01*
X456892Y47953D01*
X456851Y47975D01*
X453943Y48946D01*
X453916Y48949D01*
X453907Y48951D01*
X453865Y48965D01*
X450838Y49457D01*
X450804Y49456D01*
X450758Y49464D01*
X447692Y49464D01*
X447659Y49457D01*
X447612Y49457D01*
X444585Y48965D01*
X444554Y48953D01*
X444507Y48946D01*
X441599Y47975D01*
X441570Y47958D01*
X441525Y47944D01*
X438810Y46519D01*
X438784Y46497D01*
X438742Y46476D01*
X436291Y44634D01*
X436268Y44609D01*
X436231Y44581D01*
X434107Y42369D01*
X434089Y42341D01*
X434056Y42307D01*
X432314Y39784D01*
X432303Y39757D01*
X432284Y39735D01*
X432264Y39666D01*
X432236Y39601D01*
X432236Y39572D01*
X432228Y39544D01*
X432236Y39473D01*
X432236Y39402D01*
X432247Y39375D01*
X432250Y39346D01*
X432285Y39284D01*
X432313Y39219D01*
X432333Y39198D01*
X432348Y39173D01*
X432411Y39121D01*
X432415Y39116D01*
X432424Y39110D01*
X432425Y39110D01*
X432455Y39080D01*
X432465Y39076D01*
X432476Y39067D01*
X448976Y29567D01*
X449049Y29543D01*
X449119Y29512D01*
X449143Y29512D01*
X449165Y29504D01*
X449241Y29511D01*
G37*
G36*
X149241Y29511D02*
X149241Y29511D01*
X149318Y29510D01*
X149342Y29519D01*
X149363Y29520D01*
X149402Y29541D01*
X149474Y29567D01*
X165974Y39067D01*
X165996Y39086D01*
X166022Y39099D01*
X166056Y39137D01*
X166059Y39139D01*
X166062Y39143D01*
X166070Y39152D01*
X166123Y39199D01*
X166136Y39225D01*
X166155Y39247D01*
X166178Y39314D01*
X166209Y39378D01*
X166211Y39407D01*
X166220Y39434D01*
X166215Y39506D01*
X166218Y39577D01*
X166208Y39604D01*
X166206Y39633D01*
X166164Y39723D01*
X166149Y39763D01*
X166142Y39771D01*
X166136Y39784D01*
X164394Y42307D01*
X164370Y42331D01*
X164343Y42369D01*
X162219Y44581D01*
X162191Y44600D01*
X162159Y44634D01*
X159708Y46476D01*
X159677Y46490D01*
X159640Y46519D01*
X156925Y47944D01*
X156892Y47953D01*
X156851Y47975D01*
X153943Y48946D01*
X153916Y48949D01*
X153907Y48951D01*
X153865Y48965D01*
X150838Y49457D01*
X150804Y49456D01*
X150758Y49464D01*
X147692Y49464D01*
X147659Y49457D01*
X147612Y49457D01*
X144585Y48965D01*
X144554Y48953D01*
X144507Y48946D01*
X141599Y47975D01*
X141570Y47958D01*
X141525Y47944D01*
X138810Y46519D01*
X138784Y46497D01*
X138742Y46476D01*
X136291Y44634D01*
X136268Y44609D01*
X136231Y44581D01*
X134107Y42369D01*
X134089Y42341D01*
X134056Y42307D01*
X132314Y39784D01*
X132303Y39757D01*
X132284Y39735D01*
X132264Y39666D01*
X132236Y39601D01*
X132236Y39572D01*
X132228Y39544D01*
X132236Y39473D01*
X132236Y39402D01*
X132247Y39375D01*
X132250Y39346D01*
X132285Y39284D01*
X132313Y39219D01*
X132333Y39198D01*
X132348Y39173D01*
X132411Y39121D01*
X132415Y39116D01*
X132424Y39110D01*
X132425Y39110D01*
X132455Y39080D01*
X132465Y39076D01*
X132476Y39067D01*
X148976Y29567D01*
X149049Y29543D01*
X149119Y29512D01*
X149143Y29512D01*
X149165Y29504D01*
X149241Y29511D01*
G37*
G36*
X150791Y356943D02*
X150791Y356943D01*
X150838Y356943D01*
X153865Y357435D01*
X153896Y357447D01*
X153943Y357454D01*
X156851Y358425D01*
X156881Y358442D01*
X156925Y358456D01*
X159640Y359881D01*
X159666Y359903D01*
X159708Y359924D01*
X162159Y361766D01*
X162182Y361791D01*
X162219Y361819D01*
X164343Y364031D01*
X164361Y364059D01*
X164394Y364093D01*
X166136Y366616D01*
X166147Y366643D01*
X166166Y366665D01*
X166186Y366734D01*
X166214Y366799D01*
X166214Y366828D01*
X166222Y366856D01*
X166214Y366927D01*
X166215Y366998D01*
X166203Y367025D01*
X166200Y367054D01*
X166165Y367116D01*
X166137Y367181D01*
X166117Y367202D01*
X166102Y367227D01*
X166025Y367290D01*
X165995Y367320D01*
X165985Y367324D01*
X165974Y367333D01*
X149474Y376833D01*
X149401Y376857D01*
X149331Y376888D01*
X149307Y376888D01*
X149285Y376896D01*
X149209Y376890D01*
X149132Y376891D01*
X149108Y376881D01*
X149087Y376880D01*
X149048Y376859D01*
X148976Y376833D01*
X132476Y367333D01*
X132454Y367314D01*
X132428Y367301D01*
X132380Y367248D01*
X132327Y367201D01*
X132314Y367175D01*
X132295Y367154D01*
X132272Y367086D01*
X132241Y367022D01*
X132240Y366993D01*
X132230Y366966D01*
X132235Y366894D01*
X132232Y366823D01*
X132242Y366796D01*
X132244Y366767D01*
X132286Y366677D01*
X132301Y366637D01*
X132308Y366629D01*
X132314Y366616D01*
X134056Y364093D01*
X134080Y364069D01*
X134107Y364031D01*
X136231Y361819D01*
X136259Y361800D01*
X136291Y361766D01*
X138742Y359924D01*
X138773Y359910D01*
X138810Y359881D01*
X141525Y358456D01*
X141558Y358447D01*
X141599Y358425D01*
X144507Y357454D01*
X144541Y357450D01*
X144585Y357435D01*
X147612Y356943D01*
X147646Y356944D01*
X147692Y356936D01*
X150758Y356936D01*
X150791Y356943D01*
G37*
G36*
X450791Y356943D02*
X450791Y356943D01*
X450838Y356943D01*
X453865Y357435D01*
X453896Y357447D01*
X453943Y357454D01*
X456851Y358425D01*
X456881Y358442D01*
X456925Y358456D01*
X459640Y359881D01*
X459666Y359903D01*
X459708Y359924D01*
X462159Y361766D01*
X462182Y361791D01*
X462219Y361819D01*
X464343Y364031D01*
X464361Y364059D01*
X464394Y364093D01*
X466136Y366616D01*
X466147Y366643D01*
X466166Y366665D01*
X466186Y366734D01*
X466214Y366799D01*
X466214Y366828D01*
X466222Y366856D01*
X466214Y366927D01*
X466215Y366998D01*
X466203Y367025D01*
X466200Y367054D01*
X466165Y367116D01*
X466137Y367181D01*
X466117Y367202D01*
X466102Y367227D01*
X466025Y367290D01*
X465995Y367320D01*
X465985Y367324D01*
X465974Y367333D01*
X449474Y376833D01*
X449401Y376857D01*
X449331Y376888D01*
X449307Y376888D01*
X449285Y376896D01*
X449209Y376890D01*
X449132Y376891D01*
X449108Y376881D01*
X449087Y376880D01*
X449048Y376859D01*
X448976Y376833D01*
X432476Y367333D01*
X432454Y367314D01*
X432428Y367301D01*
X432380Y367248D01*
X432327Y367201D01*
X432314Y367175D01*
X432295Y367154D01*
X432272Y367086D01*
X432241Y367022D01*
X432240Y366993D01*
X432230Y366966D01*
X432235Y366894D01*
X432232Y366823D01*
X432242Y366796D01*
X432244Y366767D01*
X432286Y366677D01*
X432301Y366637D01*
X432308Y366629D01*
X432314Y366616D01*
X434056Y364093D01*
X434080Y364069D01*
X434107Y364031D01*
X436231Y361819D01*
X436259Y361800D01*
X436291Y361766D01*
X438742Y359924D01*
X438773Y359910D01*
X438810Y359881D01*
X441525Y358456D01*
X441558Y358447D01*
X441599Y358425D01*
X444507Y357454D01*
X444541Y357450D01*
X444585Y357435D01*
X447612Y356943D01*
X447646Y356944D01*
X447692Y356936D01*
X450758Y356936D01*
X450791Y356943D01*
G37*
G36*
X599311Y270318D02*
X599311Y270318D01*
X599383Y270326D01*
X599407Y270341D01*
X599435Y270347D01*
X599493Y270390D01*
X599555Y270426D01*
X599572Y270448D01*
X599595Y270465D01*
X599632Y270527D01*
X599675Y270584D01*
X599682Y270612D01*
X599697Y270636D01*
X599713Y270736D01*
X599724Y270777D01*
X599722Y270787D01*
X599724Y270800D01*
X599724Y289800D01*
X599709Y289876D01*
X599700Y289954D01*
X599689Y289973D01*
X599685Y289995D01*
X599641Y290059D01*
X599602Y290127D01*
X599583Y290143D01*
X599572Y290159D01*
X599534Y290183D01*
X599474Y290233D01*
X582974Y299733D01*
X582947Y299742D01*
X582923Y299758D01*
X582853Y299773D01*
X582785Y299796D01*
X582757Y299793D01*
X582729Y299799D01*
X582659Y299786D01*
X582587Y299780D01*
X582562Y299767D01*
X582534Y299761D01*
X582474Y299721D01*
X582411Y299688D01*
X582393Y299666D01*
X582369Y299650D01*
X582311Y299567D01*
X582284Y299535D01*
X582281Y299524D01*
X582274Y299514D01*
X580965Y296748D01*
X580957Y296715D01*
X580937Y296672D01*
X580089Y293732D01*
X580086Y293698D01*
X580073Y293654D01*
X579708Y290616D01*
X579711Y290582D01*
X579705Y290535D01*
X579832Y287478D01*
X579840Y287445D01*
X579841Y287398D01*
X580457Y284401D01*
X580470Y284370D01*
X580480Y284324D01*
X581568Y281464D01*
X581586Y281436D01*
X581603Y281392D01*
X583136Y278744D01*
X583158Y278718D01*
X583181Y278678D01*
X585119Y276310D01*
X585146Y276288D01*
X585175Y276252D01*
X587468Y274225D01*
X587497Y274209D01*
X587532Y274177D01*
X590120Y272545D01*
X590152Y272533D01*
X590191Y272508D01*
X593008Y271312D01*
X593041Y271305D01*
X593084Y271286D01*
X596056Y270558D01*
X596090Y270556D01*
X596135Y270545D01*
X599185Y270302D01*
X599214Y270306D01*
X599242Y270301D01*
X599311Y270318D01*
G37*
G36*
X582789Y106610D02*
X582789Y106610D01*
X582818Y106610D01*
X582913Y106645D01*
X582953Y106656D01*
X582962Y106663D01*
X582974Y106667D01*
X599474Y116167D01*
X599533Y116219D01*
X599595Y116265D01*
X599606Y116284D01*
X599623Y116299D01*
X599657Y116369D01*
X599697Y116436D01*
X599701Y116461D01*
X599709Y116478D01*
X599711Y116523D01*
X599724Y116600D01*
X599724Y135600D01*
X599719Y135628D01*
X599721Y135656D01*
X599699Y135724D01*
X599685Y135795D01*
X599669Y135818D01*
X599660Y135845D01*
X599613Y135900D01*
X599572Y135959D01*
X599548Y135974D01*
X599530Y135996D01*
X599465Y136027D01*
X599405Y136066D01*
X599377Y136071D01*
X599351Y136083D01*
X599250Y136092D01*
X599208Y136099D01*
X599198Y136097D01*
X599185Y136098D01*
X596135Y135855D01*
X596103Y135846D01*
X596056Y135842D01*
X593084Y135114D01*
X593053Y135099D01*
X593008Y135088D01*
X592843Y135018D01*
X591668Y134519D01*
X590492Y134020D01*
X590191Y133892D01*
X590163Y133873D01*
X590120Y133855D01*
X587532Y132223D01*
X587508Y132199D01*
X587468Y132175D01*
X585175Y130148D01*
X585155Y130121D01*
X585119Y130090D01*
X583181Y127723D01*
X583165Y127692D01*
X583136Y127656D01*
X581603Y125008D01*
X581592Y124976D01*
X581568Y124936D01*
X580480Y122076D01*
X580474Y122043D01*
X580457Y121999D01*
X579841Y119002D01*
X579841Y118968D01*
X579832Y118922D01*
X579705Y115865D01*
X579710Y115831D01*
X579708Y115784D01*
X580073Y112746D01*
X580084Y112714D01*
X580089Y112668D01*
X580937Y109728D01*
X580953Y109698D01*
X580965Y109653D01*
X582274Y106887D01*
X582291Y106864D01*
X582301Y106837D01*
X582350Y106785D01*
X582393Y106727D01*
X582418Y106713D01*
X582437Y106692D01*
X582503Y106663D01*
X582565Y106627D01*
X582593Y106624D01*
X582619Y106612D01*
X582691Y106611D01*
X582762Y106602D01*
X582789Y106610D01*
G37*
D10*
X165194Y244475D03*
X153194Y244475D03*
X141194Y244475D03*
D11*
X149225Y368400D03*
X299945Y280720D03*
X299945Y125680D03*
X149225Y38000D03*
X77725Y327100D03*
X220725Y327100D03*
X220725Y79300D03*
X77725Y79300D03*
X449225Y368400D03*
X592325Y285800D03*
X592325Y120600D03*
X449225Y38000D03*
X6158Y285800D03*
X6158Y120600D03*
X6125Y203200D03*
D12*
X227694Y280988D03*
X205694Y290488D03*
X205694Y271488D03*
D13*
X467519Y266813D03*
X477019Y288813D03*
X458019Y288813D03*
X550069Y182675D03*
X559569Y204675D03*
X540569Y204675D03*
X445294Y182675D03*
X454794Y204675D03*
X435794Y204675D03*
X412750Y182675D03*
X422250Y204675D03*
X403250Y204675D03*
D12*
X266588Y278606D03*
X244588Y288106D03*
X244588Y269106D03*
D13*
X515938Y182675D03*
X525438Y204675D03*
X506438Y204675D03*
X477838Y182675D03*
X487338Y204675D03*
X468338Y204675D03*
D14*
X225425Y152400D03*
X250825Y152400D03*
X276225Y152400D03*
X301625Y152400D03*
X327025Y152400D03*
X352425Y152400D03*
X377825Y152400D03*
X377825Y254000D03*
X352425Y254000D03*
X327025Y254000D03*
X301625Y254000D03*
X276225Y254000D03*
X250825Y254000D03*
X225425Y254000D03*
D15*
X119575Y221075D03*
X124577Y221075D03*
X129578Y221075D03*
X134579Y221075D03*
X139580Y221075D03*
X144582Y221075D03*
X149583Y221075D03*
X154584Y221075D03*
X159585Y221075D03*
X164587Y221075D03*
D16*
X176625Y209037D03*
X176625Y204035D03*
X176625Y199034D03*
X176625Y194033D03*
X176625Y189032D03*
X176625Y184030D03*
X176625Y179029D03*
X176625Y174028D03*
X176625Y169027D03*
X176625Y164025D03*
D15*
X164587Y151987D03*
X159585Y151987D03*
X154584Y151987D03*
X149583Y151987D03*
X144582Y151987D03*
X139580Y151987D03*
X134579Y151987D03*
X129578Y151987D03*
X124577Y151987D03*
X119575Y151987D03*
D16*
X107537Y164025D03*
X107537Y169027D03*
X107537Y174028D03*
X107537Y179029D03*
X107537Y184030D03*
X107537Y189032D03*
X107537Y194033D03*
X107537Y199034D03*
X107537Y204035D03*
X107537Y209037D03*
D17*
X142081Y186531D03*
D18*
X114697Y151606D03*
D19*
X107553Y159147D03*
X107553Y213916D03*
D18*
X114697Y221456D03*
D20*
X169466Y221059D03*
D21*
X177006Y213916D03*
X177006Y159147D03*
D20*
X169466Y152003D03*
D22*
X148431Y318294D03*
D23*
X574675Y239713D03*
X549275Y239713D03*
X574675Y165894D03*
X549275Y165894D03*
D24*
X485775Y78581D03*
X485775Y103981D03*
X408781Y78581D03*
X408781Y103981D03*
D25*
X456638Y224631D03*
X473638Y224631D03*
X489181Y224631D03*
X506181Y224631D03*
X247881Y230981D03*
X264881Y230981D03*
X371706Y196850D03*
X388706Y196850D03*
X421713Y224631D03*
X438713Y224631D03*
X520931Y224631D03*
X537931Y224631D03*
D26*
X438944Y270106D03*
X438944Y287106D03*
X202406Y239944D03*
X202406Y256944D03*
X228600Y222481D03*
X228600Y239481D03*
X497681Y272819D03*
X497681Y255819D03*
D25*
X554600Y140494D03*
X537600Y140494D03*
X453794Y141288D03*
X436794Y141288D03*
X416488Y146844D03*
X399488Y146844D03*
X296631Y230981D03*
X279631Y230981D03*
X520469Y141288D03*
X503469Y141288D03*
X487131Y141288D03*
X470131Y141288D03*
D26*
X32544Y140725D03*
X32544Y157725D03*
X159544Y267725D03*
X159544Y284725D03*
X129944Y323850D03*
X112944Y323850D03*
X97863Y262731D03*
X114863Y262731D03*
X98656Y241300D03*
X115656Y241300D03*
X133581Y123825D03*
X150581Y123825D03*
D27*
X138113Y286519D03*
X138113Y267519D03*
D28*
X96863Y284956D03*
X115863Y284956D03*
X131788Y102394D03*
X150788Y102394D03*
D29*
X53975Y178594D03*
X53975Y153194D03*
X53975Y127794D03*
M02*
